<?xml version="1.0" encoding="utf-8" standalone="no"?>
<!DOCTYPE svg PUBLIC "-//W3C//DTD SVG 1.1//EN"
  "http://www.w3.org/Graphics/SVG/1.1/DTD/svg11.dtd">
<!-- Created with matplotlib (https://matplotlib.org/) -->
<svg height="345.6pt" version="1.1" viewBox="0 0 460.8 345.6" width="460.8pt" xmlns="http://www.w3.org/2000/svg" xmlns:xlink="http://www.w3.org/1999/xlink">
 <metadata>
  <rdf:RDF xmlns:cc="http://creativecommons.org/ns#" xmlns:dc="http://purl.org/dc/elements/1.1/" xmlns:rdf="http://www.w3.org/1999/02/22-rdf-syntax-ns#">
   <cc:Work>
    <dc:type rdf:resource="http://purl.org/dc/dcmitype/StillImage"/>
    <dc:date>2021-04-07T21:24:30.832601</dc:date>
    <dc:format>image/svg+xml</dc:format>
    <dc:creator>
     <cc:Agent>
      <dc:title>Matplotlib v3.3.4, https://matplotlib.org/</dc:title>
     </cc:Agent>
    </dc:creator>
   </cc:Work>
  </rdf:RDF>
 </metadata>
 <defs>
  <style type="text/css">*{stroke-linecap:butt;stroke-linejoin:round;}</style>
 </defs>
 <g id="figure_1">
  <g id="patch_1">
   <path d="M 0 345.6 
L 460.8 345.6 
L 460.8 0 
L 0 0 
z
" style="fill:#ffffff;"/>
  </g>
  <g id="axes_1">
   <g id="patch_2">
    <path d="M 57.6 307.584 
L 414.72 307.584 
L 414.72 41.472 
L 57.6 41.472 
z
" style="fill:#ffffff;"/>
   </g>
   <g id="matplotlib.axis_1">
    <g id="xtick_1">
     <g id="line2d_1">
      <defs>
       <path d="M 0 0 
L 0 3.5 
" id="m25592a232a" style="stroke:#000000;stroke-width:0.8;"/>
      </defs>
      <g>
       <use style="stroke:#000000;stroke-width:0.8;" x="72.201297" xlink:href="#m25592a232a" y="307.584"/>
      </g>
     </g>
     <g id="text_1">
      <!-- 0 -->
      <g transform="translate(69.020047 322.182437)scale(0.1 -0.1)">
       <defs>
        <path d="M 31.78125 66.40625 
Q 24.171875 66.40625 20.328125 58.90625 
Q 16.5 51.421875 16.5 36.375 
Q 16.5 21.390625 20.328125 13.890625 
Q 24.171875 6.390625 31.78125 6.390625 
Q 39.453125 6.390625 43.28125 13.890625 
Q 47.125 21.390625 47.125 36.375 
Q 47.125 51.421875 43.28125 58.90625 
Q 39.453125 66.40625 31.78125 66.40625 
z
M 31.78125 74.21875 
Q 44.046875 74.21875 50.515625 64.515625 
Q 56.984375 54.828125 56.984375 36.375 
Q 56.984375 17.96875 50.515625 8.265625 
Q 44.046875 -1.421875 31.78125 -1.421875 
Q 19.53125 -1.421875 13.0625 8.265625 
Q 6.59375 17.96875 6.59375 36.375 
Q 6.59375 54.828125 13.0625 64.515625 
Q 19.53125 74.21875 31.78125 74.21875 
z
" id="DejaVuSans-48"/>
       </defs>
       <use xlink:href="#DejaVuSans-48"/>
      </g>
     </g>
    </g>
    <g id="xtick_2">
     <g id="line2d_2">
      <g>
       <use style="stroke:#000000;stroke-width:0.8;" x="112.987044" xlink:href="#m25592a232a" y="307.584"/>
      </g>
     </g>
     <g id="text_2">
      <!-- 25 -->
      <g transform="translate(106.624544 322.182437)scale(0.1 -0.1)">
       <defs>
        <path d="M 19.1875 8.296875 
L 53.609375 8.296875 
L 53.609375 0 
L 7.328125 0 
L 7.328125 8.296875 
Q 12.9375 14.109375 22.625 23.890625 
Q 32.328125 33.6875 34.8125 36.53125 
Q 39.546875 41.84375 41.421875 45.53125 
Q 43.3125 49.21875 43.3125 52.78125 
Q 43.3125 58.59375 39.234375 62.25 
Q 35.15625 65.921875 28.609375 65.921875 
Q 23.96875 65.921875 18.8125 64.3125 
Q 13.671875 62.703125 7.8125 59.421875 
L 7.8125 69.390625 
Q 13.765625 71.78125 18.9375 73 
Q 24.125 74.21875 28.421875 74.21875 
Q 39.75 74.21875 46.484375 68.546875 
Q 53.21875 62.890625 53.21875 53.421875 
Q 53.21875 48.921875 51.53125 44.890625 
Q 49.859375 40.875 45.40625 35.40625 
Q 44.1875 33.984375 37.640625 27.21875 
Q 31.109375 20.453125 19.1875 8.296875 
z
" id="DejaVuSans-50"/>
        <path d="M 10.796875 72.90625 
L 49.515625 72.90625 
L 49.515625 64.59375 
L 19.828125 64.59375 
L 19.828125 46.734375 
Q 21.96875 47.46875 24.109375 47.828125 
Q 26.265625 48.1875 28.421875 48.1875 
Q 40.625 48.1875 47.75 41.5 
Q 54.890625 34.8125 54.890625 23.390625 
Q 54.890625 11.625 47.5625 5.09375 
Q 40.234375 -1.421875 26.90625 -1.421875 
Q 22.3125 -1.421875 17.546875 -0.640625 
Q 12.796875 0.140625 7.71875 1.703125 
L 7.71875 11.625 
Q 12.109375 9.234375 16.796875 8.0625 
Q 21.484375 6.890625 26.703125 6.890625 
Q 35.15625 6.890625 40.078125 11.328125 
Q 45.015625 15.765625 45.015625 23.390625 
Q 45.015625 31 40.078125 35.4375 
Q 35.15625 39.890625 26.703125 39.890625 
Q 22.75 39.890625 18.8125 39.015625 
Q 14.890625 38.140625 10.796875 36.28125 
z
" id="DejaVuSans-53"/>
       </defs>
       <use xlink:href="#DejaVuSans-50"/>
       <use x="63.623047" xlink:href="#DejaVuSans-53"/>
      </g>
     </g>
    </g>
    <g id="xtick_3">
     <g id="line2d_3">
      <g>
       <use style="stroke:#000000;stroke-width:0.8;" x="153.772791" xlink:href="#m25592a232a" y="307.584"/>
      </g>
     </g>
     <g id="text_3">
      <!-- 50 -->
      <g transform="translate(147.410291 322.182437)scale(0.1 -0.1)">
       <use xlink:href="#DejaVuSans-53"/>
       <use x="63.623047" xlink:href="#DejaVuSans-48"/>
      </g>
     </g>
    </g>
    <g id="xtick_4">
     <g id="line2d_4">
      <g>
       <use style="stroke:#000000;stroke-width:0.8;" x="194.558538" xlink:href="#m25592a232a" y="307.584"/>
      </g>
     </g>
     <g id="text_4">
      <!-- 75 -->
      <g transform="translate(188.196038 322.182437)scale(0.1 -0.1)">
       <defs>
        <path d="M 8.203125 72.90625 
L 55.078125 72.90625 
L 55.078125 68.703125 
L 28.609375 0 
L 18.3125 0 
L 43.21875 64.59375 
L 8.203125 64.59375 
z
" id="DejaVuSans-55"/>
       </defs>
       <use xlink:href="#DejaVuSans-55"/>
       <use x="63.623047" xlink:href="#DejaVuSans-53"/>
      </g>
     </g>
    </g>
    <g id="xtick_5">
     <g id="line2d_5">
      <g>
       <use style="stroke:#000000;stroke-width:0.8;" x="235.344285" xlink:href="#m25592a232a" y="307.584"/>
      </g>
     </g>
     <g id="text_5">
      <!-- 100 -->
      <g transform="translate(225.800535 322.182437)scale(0.1 -0.1)">
       <defs>
        <path d="M 12.40625 8.296875 
L 28.515625 8.296875 
L 28.515625 63.921875 
L 10.984375 60.40625 
L 10.984375 69.390625 
L 28.421875 72.90625 
L 38.28125 72.90625 
L 38.28125 8.296875 
L 54.390625 8.296875 
L 54.390625 0 
L 12.40625 0 
z
" id="DejaVuSans-49"/>
       </defs>
       <use xlink:href="#DejaVuSans-49"/>
       <use x="63.623047" xlink:href="#DejaVuSans-48"/>
       <use x="127.246094" xlink:href="#DejaVuSans-48"/>
      </g>
     </g>
    </g>
    <g id="xtick_6">
     <g id="line2d_6">
      <g>
       <use style="stroke:#000000;stroke-width:0.8;" x="276.130032" xlink:href="#m25592a232a" y="307.584"/>
      </g>
     </g>
     <g id="text_6">
      <!-- 125 -->
      <g transform="translate(266.586282 322.182437)scale(0.1 -0.1)">
       <use xlink:href="#DejaVuSans-49"/>
       <use x="63.623047" xlink:href="#DejaVuSans-50"/>
       <use x="127.246094" xlink:href="#DejaVuSans-53"/>
      </g>
     </g>
    </g>
    <g id="xtick_7">
     <g id="line2d_7">
      <g>
       <use style="stroke:#000000;stroke-width:0.8;" x="316.915779" xlink:href="#m25592a232a" y="307.584"/>
      </g>
     </g>
     <g id="text_7">
      <!-- 150 -->
      <g transform="translate(307.372029 322.182437)scale(0.1 -0.1)">
       <use xlink:href="#DejaVuSans-49"/>
       <use x="63.623047" xlink:href="#DejaVuSans-53"/>
       <use x="127.246094" xlink:href="#DejaVuSans-48"/>
      </g>
     </g>
    </g>
    <g id="xtick_8">
     <g id="line2d_8">
      <g>
       <use style="stroke:#000000;stroke-width:0.8;" x="357.701526" xlink:href="#m25592a232a" y="307.584"/>
      </g>
     </g>
     <g id="text_8">
      <!-- 175 -->
      <g transform="translate(348.157776 322.182437)scale(0.1 -0.1)">
       <use xlink:href="#DejaVuSans-49"/>
       <use x="63.623047" xlink:href="#DejaVuSans-55"/>
       <use x="127.246094" xlink:href="#DejaVuSans-53"/>
      </g>
     </g>
    </g>
    <g id="xtick_9">
     <g id="line2d_9">
      <g>
       <use style="stroke:#000000;stroke-width:0.8;" x="398.487273" xlink:href="#m25592a232a" y="307.584"/>
      </g>
     </g>
     <g id="text_9">
      <!-- 200 -->
      <g transform="translate(388.943523 322.182437)scale(0.1 -0.1)">
       <use xlink:href="#DejaVuSans-50"/>
       <use x="63.623047" xlink:href="#DejaVuSans-48"/>
       <use x="127.246094" xlink:href="#DejaVuSans-48"/>
      </g>
     </g>
    </g>
    <g id="text_10">
     <!-- Numero de tirada -->
     <g transform="translate(192.165469 335.860562)scale(0.1 -0.1)">
      <defs>
       <path d="M 9.8125 72.90625 
L 23.09375 72.90625 
L 55.421875 11.921875 
L 55.421875 72.90625 
L 64.984375 72.90625 
L 64.984375 0 
L 51.703125 0 
L 19.390625 60.984375 
L 19.390625 0 
L 9.8125 0 
z
" id="DejaVuSans-78"/>
       <path d="M 8.5 21.578125 
L 8.5 54.6875 
L 17.484375 54.6875 
L 17.484375 21.921875 
Q 17.484375 14.15625 20.5 10.265625 
Q 23.53125 6.390625 29.59375 6.390625 
Q 36.859375 6.390625 41.078125 11.03125 
Q 45.3125 15.671875 45.3125 23.6875 
L 45.3125 54.6875 
L 54.296875 54.6875 
L 54.296875 0 
L 45.3125 0 
L 45.3125 8.40625 
Q 42.046875 3.421875 37.71875 1 
Q 33.40625 -1.421875 27.6875 -1.421875 
Q 18.265625 -1.421875 13.375 4.4375 
Q 8.5 10.296875 8.5 21.578125 
z
M 31.109375 56 
z
" id="DejaVuSans-117"/>
       <path d="M 52 44.1875 
Q 55.375 50.25 60.0625 53.125 
Q 64.75 56 71.09375 56 
Q 79.640625 56 84.28125 50.015625 
Q 88.921875 44.046875 88.921875 33.015625 
L 88.921875 0 
L 79.890625 0 
L 79.890625 32.71875 
Q 79.890625 40.578125 77.09375 44.375 
Q 74.3125 48.1875 68.609375 48.1875 
Q 61.625 48.1875 57.5625 43.546875 
Q 53.515625 38.921875 53.515625 30.90625 
L 53.515625 0 
L 44.484375 0 
L 44.484375 32.71875 
Q 44.484375 40.625 41.703125 44.40625 
Q 38.921875 48.1875 33.109375 48.1875 
Q 26.21875 48.1875 22.15625 43.53125 
Q 18.109375 38.875 18.109375 30.90625 
L 18.109375 0 
L 9.078125 0 
L 9.078125 54.6875 
L 18.109375 54.6875 
L 18.109375 46.1875 
Q 21.1875 51.21875 25.484375 53.609375 
Q 29.78125 56 35.6875 56 
Q 41.65625 56 45.828125 52.96875 
Q 50 49.953125 52 44.1875 
z
" id="DejaVuSans-109"/>
       <path d="M 56.203125 29.59375 
L 56.203125 25.203125 
L 14.890625 25.203125 
Q 15.484375 15.921875 20.484375 11.0625 
Q 25.484375 6.203125 34.421875 6.203125 
Q 39.59375 6.203125 44.453125 7.46875 
Q 49.3125 8.734375 54.109375 11.28125 
L 54.109375 2.78125 
Q 49.265625 0.734375 44.1875 -0.34375 
Q 39.109375 -1.421875 33.890625 -1.421875 
Q 20.796875 -1.421875 13.15625 6.1875 
Q 5.515625 13.8125 5.515625 26.8125 
Q 5.515625 40.234375 12.765625 48.109375 
Q 20.015625 56 32.328125 56 
Q 43.359375 56 49.78125 48.890625 
Q 56.203125 41.796875 56.203125 29.59375 
z
M 47.21875 32.234375 
Q 47.125 39.59375 43.09375 43.984375 
Q 39.0625 48.390625 32.421875 48.390625 
Q 24.90625 48.390625 20.390625 44.140625 
Q 15.875 39.890625 15.1875 32.171875 
z
" id="DejaVuSans-101"/>
       <path d="M 41.109375 46.296875 
Q 39.59375 47.171875 37.8125 47.578125 
Q 36.03125 48 33.890625 48 
Q 26.265625 48 22.1875 43.046875 
Q 18.109375 38.09375 18.109375 28.8125 
L 18.109375 0 
L 9.078125 0 
L 9.078125 54.6875 
L 18.109375 54.6875 
L 18.109375 46.1875 
Q 20.953125 51.171875 25.484375 53.578125 
Q 30.03125 56 36.53125 56 
Q 37.453125 56 38.578125 55.875 
Q 39.703125 55.765625 41.0625 55.515625 
z
" id="DejaVuSans-114"/>
       <path d="M 30.609375 48.390625 
Q 23.390625 48.390625 19.1875 42.75 
Q 14.984375 37.109375 14.984375 27.296875 
Q 14.984375 17.484375 19.15625 11.84375 
Q 23.34375 6.203125 30.609375 6.203125 
Q 37.796875 6.203125 41.984375 11.859375 
Q 46.1875 17.53125 46.1875 27.296875 
Q 46.1875 37.015625 41.984375 42.703125 
Q 37.796875 48.390625 30.609375 48.390625 
z
M 30.609375 56 
Q 42.328125 56 49.015625 48.375 
Q 55.71875 40.765625 55.71875 27.296875 
Q 55.71875 13.875 49.015625 6.21875 
Q 42.328125 -1.421875 30.609375 -1.421875 
Q 18.84375 -1.421875 12.171875 6.21875 
Q 5.515625 13.875 5.515625 27.296875 
Q 5.515625 40.765625 12.171875 48.375 
Q 18.84375 56 30.609375 56 
z
" id="DejaVuSans-111"/>
       <path id="DejaVuSans-32"/>
       <path d="M 45.40625 46.390625 
L 45.40625 75.984375 
L 54.390625 75.984375 
L 54.390625 0 
L 45.40625 0 
L 45.40625 8.203125 
Q 42.578125 3.328125 38.25 0.953125 
Q 33.9375 -1.421875 27.875 -1.421875 
Q 17.96875 -1.421875 11.734375 6.484375 
Q 5.515625 14.40625 5.515625 27.296875 
Q 5.515625 40.1875 11.734375 48.09375 
Q 17.96875 56 27.875 56 
Q 33.9375 56 38.25 53.625 
Q 42.578125 51.265625 45.40625 46.390625 
z
M 14.796875 27.296875 
Q 14.796875 17.390625 18.875 11.75 
Q 22.953125 6.109375 30.078125 6.109375 
Q 37.203125 6.109375 41.296875 11.75 
Q 45.40625 17.390625 45.40625 27.296875 
Q 45.40625 37.203125 41.296875 42.84375 
Q 37.203125 48.484375 30.078125 48.484375 
Q 22.953125 48.484375 18.875 42.84375 
Q 14.796875 37.203125 14.796875 27.296875 
z
" id="DejaVuSans-100"/>
       <path d="M 18.3125 70.21875 
L 18.3125 54.6875 
L 36.8125 54.6875 
L 36.8125 47.703125 
L 18.3125 47.703125 
L 18.3125 18.015625 
Q 18.3125 11.328125 20.140625 9.421875 
Q 21.96875 7.515625 27.59375 7.515625 
L 36.8125 7.515625 
L 36.8125 0 
L 27.59375 0 
Q 17.1875 0 13.234375 3.875 
Q 9.28125 7.765625 9.28125 18.015625 
L 9.28125 47.703125 
L 2.6875 47.703125 
L 2.6875 54.6875 
L 9.28125 54.6875 
L 9.28125 70.21875 
z
" id="DejaVuSans-116"/>
       <path d="M 9.421875 54.6875 
L 18.40625 54.6875 
L 18.40625 0 
L 9.421875 0 
z
M 9.421875 75.984375 
L 18.40625 75.984375 
L 18.40625 64.59375 
L 9.421875 64.59375 
z
" id="DejaVuSans-105"/>
       <path d="M 34.28125 27.484375 
Q 23.390625 27.484375 19.1875 25 
Q 14.984375 22.515625 14.984375 16.5 
Q 14.984375 11.71875 18.140625 8.90625 
Q 21.296875 6.109375 26.703125 6.109375 
Q 34.1875 6.109375 38.703125 11.40625 
Q 43.21875 16.703125 43.21875 25.484375 
L 43.21875 27.484375 
z
M 52.203125 31.203125 
L 52.203125 0 
L 43.21875 0 
L 43.21875 8.296875 
Q 40.140625 3.328125 35.546875 0.953125 
Q 30.953125 -1.421875 24.3125 -1.421875 
Q 15.921875 -1.421875 10.953125 3.296875 
Q 6 8.015625 6 15.921875 
Q 6 25.140625 12.171875 29.828125 
Q 18.359375 34.515625 30.609375 34.515625 
L 43.21875 34.515625 
L 43.21875 35.40625 
Q 43.21875 41.609375 39.140625 45 
Q 35.0625 48.390625 27.6875 48.390625 
Q 23 48.390625 18.546875 47.265625 
Q 14.109375 46.140625 10.015625 43.890625 
L 10.015625 52.203125 
Q 14.9375 54.109375 19.578125 55.046875 
Q 24.21875 56 28.609375 56 
Q 40.484375 56 46.34375 49.84375 
Q 52.203125 43.703125 52.203125 31.203125 
z
" id="DejaVuSans-97"/>
      </defs>
      <use xlink:href="#DejaVuSans-78"/>
      <use x="74.804688" xlink:href="#DejaVuSans-117"/>
      <use x="138.183594" xlink:href="#DejaVuSans-109"/>
      <use x="235.595703" xlink:href="#DejaVuSans-101"/>
      <use x="297.119141" xlink:href="#DejaVuSans-114"/>
      <use x="335.982422" xlink:href="#DejaVuSans-111"/>
      <use x="397.164062" xlink:href="#DejaVuSans-32"/>
      <use x="428.951172" xlink:href="#DejaVuSans-100"/>
      <use x="492.427734" xlink:href="#DejaVuSans-101"/>
      <use x="553.951172" xlink:href="#DejaVuSans-32"/>
      <use x="585.738281" xlink:href="#DejaVuSans-116"/>
      <use x="624.947266" xlink:href="#DejaVuSans-105"/>
      <use x="652.730469" xlink:href="#DejaVuSans-114"/>
      <use x="693.84375" xlink:href="#DejaVuSans-97"/>
      <use x="755.123047" xlink:href="#DejaVuSans-100"/>
      <use x="818.599609" xlink:href="#DejaVuSans-97"/>
     </g>
    </g>
   </g>
   <g id="matplotlib.axis_2">
    <g id="ytick_1">
     <g id="line2d_10">
      <defs>
       <path d="M 0 0 
L -3.5 0 
" id="m6f337323d1" style="stroke:#000000;stroke-width:0.8;"/>
      </defs>
      <g>
       <use style="stroke:#000000;stroke-width:0.8;" x="57.6" xlink:href="#m6f337323d1" y="307.193806"/>
      </g>
     </g>
     <g id="text_11">
      <!-- 146000 -->
      <g transform="translate(12.425 310.993025)scale(0.1 -0.1)">
       <defs>
        <path d="M 37.796875 64.3125 
L 12.890625 25.390625 
L 37.796875 25.390625 
z
M 35.203125 72.90625 
L 47.609375 72.90625 
L 47.609375 25.390625 
L 58.015625 25.390625 
L 58.015625 17.1875 
L 47.609375 17.1875 
L 47.609375 0 
L 37.796875 0 
L 37.796875 17.1875 
L 4.890625 17.1875 
L 4.890625 26.703125 
z
" id="DejaVuSans-52"/>
        <path d="M 33.015625 40.375 
Q 26.375 40.375 22.484375 35.828125 
Q 18.609375 31.296875 18.609375 23.390625 
Q 18.609375 15.53125 22.484375 10.953125 
Q 26.375 6.390625 33.015625 6.390625 
Q 39.65625 6.390625 43.53125 10.953125 
Q 47.40625 15.53125 47.40625 23.390625 
Q 47.40625 31.296875 43.53125 35.828125 
Q 39.65625 40.375 33.015625 40.375 
z
M 52.59375 71.296875 
L 52.59375 62.3125 
Q 48.875 64.0625 45.09375 64.984375 
Q 41.3125 65.921875 37.59375 65.921875 
Q 27.828125 65.921875 22.671875 59.328125 
Q 17.53125 52.734375 16.796875 39.40625 
Q 19.671875 43.65625 24.015625 45.921875 
Q 28.375 48.1875 33.59375 48.1875 
Q 44.578125 48.1875 50.953125 41.515625 
Q 57.328125 34.859375 57.328125 23.390625 
Q 57.328125 12.15625 50.6875 5.359375 
Q 44.046875 -1.421875 33.015625 -1.421875 
Q 20.359375 -1.421875 13.671875 8.265625 
Q 6.984375 17.96875 6.984375 36.375 
Q 6.984375 53.65625 15.1875 63.9375 
Q 23.390625 74.21875 37.203125 74.21875 
Q 40.921875 74.21875 44.703125 73.484375 
Q 48.484375 72.75 52.59375 71.296875 
z
" id="DejaVuSans-54"/>
       </defs>
       <use xlink:href="#DejaVuSans-49"/>
       <use x="63.623047" xlink:href="#DejaVuSans-52"/>
       <use x="127.246094" xlink:href="#DejaVuSans-54"/>
       <use x="190.869141" xlink:href="#DejaVuSans-48"/>
       <use x="254.492188" xlink:href="#DejaVuSans-48"/>
       <use x="318.115234" xlink:href="#DejaVuSans-48"/>
      </g>
     </g>
    </g>
    <g id="ytick_2">
     <g id="line2d_11">
      <g>
       <use style="stroke:#000000;stroke-width:0.8;" x="57.6" xlink:href="#m6f337323d1" y="268.174452"/>
      </g>
     </g>
     <g id="text_12">
      <!-- 147000 -->
      <g transform="translate(12.425 271.97367)scale(0.1 -0.1)">
       <use xlink:href="#DejaVuSans-49"/>
       <use x="63.623047" xlink:href="#DejaVuSans-52"/>
       <use x="127.246094" xlink:href="#DejaVuSans-55"/>
       <use x="190.869141" xlink:href="#DejaVuSans-48"/>
       <use x="254.492188" xlink:href="#DejaVuSans-48"/>
       <use x="318.115234" xlink:href="#DejaVuSans-48"/>
      </g>
     </g>
    </g>
    <g id="ytick_3">
     <g id="line2d_12">
      <g>
       <use style="stroke:#000000;stroke-width:0.8;" x="57.6" xlink:href="#m6f337323d1" y="229.155097"/>
      </g>
     </g>
     <g id="text_13">
      <!-- 148000 -->
      <g transform="translate(12.425 232.954316)scale(0.1 -0.1)">
       <defs>
        <path d="M 31.78125 34.625 
Q 24.75 34.625 20.71875 30.859375 
Q 16.703125 27.09375 16.703125 20.515625 
Q 16.703125 13.921875 20.71875 10.15625 
Q 24.75 6.390625 31.78125 6.390625 
Q 38.8125 6.390625 42.859375 10.171875 
Q 46.921875 13.96875 46.921875 20.515625 
Q 46.921875 27.09375 42.890625 30.859375 
Q 38.875 34.625 31.78125 34.625 
z
M 21.921875 38.8125 
Q 15.578125 40.375 12.03125 44.71875 
Q 8.5 49.078125 8.5 55.328125 
Q 8.5 64.0625 14.71875 69.140625 
Q 20.953125 74.21875 31.78125 74.21875 
Q 42.671875 74.21875 48.875 69.140625 
Q 55.078125 64.0625 55.078125 55.328125 
Q 55.078125 49.078125 51.53125 44.71875 
Q 48 40.375 41.703125 38.8125 
Q 48.828125 37.15625 52.796875 32.3125 
Q 56.78125 27.484375 56.78125 20.515625 
Q 56.78125 9.90625 50.3125 4.234375 
Q 43.84375 -1.421875 31.78125 -1.421875 
Q 19.734375 -1.421875 13.25 4.234375 
Q 6.78125 9.90625 6.78125 20.515625 
Q 6.78125 27.484375 10.78125 32.3125 
Q 14.796875 37.15625 21.921875 38.8125 
z
M 18.3125 54.390625 
Q 18.3125 48.734375 21.84375 45.5625 
Q 25.390625 42.390625 31.78125 42.390625 
Q 38.140625 42.390625 41.71875 45.5625 
Q 45.3125 48.734375 45.3125 54.390625 
Q 45.3125 60.0625 41.71875 63.234375 
Q 38.140625 66.40625 31.78125 66.40625 
Q 25.390625 66.40625 21.84375 63.234375 
Q 18.3125 60.0625 18.3125 54.390625 
z
" id="DejaVuSans-56"/>
       </defs>
       <use xlink:href="#DejaVuSans-49"/>
       <use x="63.623047" xlink:href="#DejaVuSans-52"/>
       <use x="127.246094" xlink:href="#DejaVuSans-56"/>
       <use x="190.869141" xlink:href="#DejaVuSans-48"/>
       <use x="254.492188" xlink:href="#DejaVuSans-48"/>
       <use x="318.115234" xlink:href="#DejaVuSans-48"/>
      </g>
     </g>
    </g>
    <g id="ytick_4">
     <g id="line2d_13">
      <g>
       <use style="stroke:#000000;stroke-width:0.8;" x="57.6" xlink:href="#m6f337323d1" y="190.135742"/>
      </g>
     </g>
     <g id="text_14">
      <!-- 149000 -->
      <g transform="translate(12.425 193.934961)scale(0.1 -0.1)">
       <defs>
        <path d="M 10.984375 1.515625 
L 10.984375 10.5 
Q 14.703125 8.734375 18.5 7.8125 
Q 22.3125 6.890625 25.984375 6.890625 
Q 35.75 6.890625 40.890625 13.453125 
Q 46.046875 20.015625 46.78125 33.40625 
Q 43.953125 29.203125 39.59375 26.953125 
Q 35.25 24.703125 29.984375 24.703125 
Q 19.046875 24.703125 12.671875 31.3125 
Q 6.296875 37.9375 6.296875 49.421875 
Q 6.296875 60.640625 12.9375 67.421875 
Q 19.578125 74.21875 30.609375 74.21875 
Q 43.265625 74.21875 49.921875 64.515625 
Q 56.59375 54.828125 56.59375 36.375 
Q 56.59375 19.140625 48.40625 8.859375 
Q 40.234375 -1.421875 26.421875 -1.421875 
Q 22.703125 -1.421875 18.890625 -0.6875 
Q 15.09375 0.046875 10.984375 1.515625 
z
M 30.609375 32.421875 
Q 37.25 32.421875 41.125 36.953125 
Q 45.015625 41.5 45.015625 49.421875 
Q 45.015625 57.28125 41.125 61.84375 
Q 37.25 66.40625 30.609375 66.40625 
Q 23.96875 66.40625 20.09375 61.84375 
Q 16.21875 57.28125 16.21875 49.421875 
Q 16.21875 41.5 20.09375 36.953125 
Q 23.96875 32.421875 30.609375 32.421875 
z
" id="DejaVuSans-57"/>
       </defs>
       <use xlink:href="#DejaVuSans-49"/>
       <use x="63.623047" xlink:href="#DejaVuSans-52"/>
       <use x="127.246094" xlink:href="#DejaVuSans-57"/>
       <use x="190.869141" xlink:href="#DejaVuSans-48"/>
       <use x="254.492188" xlink:href="#DejaVuSans-48"/>
       <use x="318.115234" xlink:href="#DejaVuSans-48"/>
      </g>
     </g>
    </g>
    <g id="ytick_5">
     <g id="line2d_14">
      <g>
       <use style="stroke:#000000;stroke-width:0.8;" x="57.6" xlink:href="#m6f337323d1" y="151.116387"/>
      </g>
     </g>
     <g id="text_15">
      <!-- 150000 -->
      <g transform="translate(12.425 154.915606)scale(0.1 -0.1)">
       <use xlink:href="#DejaVuSans-49"/>
       <use x="63.623047" xlink:href="#DejaVuSans-53"/>
       <use x="127.246094" xlink:href="#DejaVuSans-48"/>
       <use x="190.869141" xlink:href="#DejaVuSans-48"/>
       <use x="254.492188" xlink:href="#DejaVuSans-48"/>
       <use x="318.115234" xlink:href="#DejaVuSans-48"/>
      </g>
     </g>
    </g>
    <g id="ytick_6">
     <g id="line2d_15">
      <g>
       <use style="stroke:#000000;stroke-width:0.8;" x="57.6" xlink:href="#m6f337323d1" y="112.097032"/>
      </g>
     </g>
     <g id="text_16">
      <!-- 151000 -->
      <g transform="translate(12.425 115.896251)scale(0.1 -0.1)">
       <use xlink:href="#DejaVuSans-49"/>
       <use x="63.623047" xlink:href="#DejaVuSans-53"/>
       <use x="127.246094" xlink:href="#DejaVuSans-49"/>
       <use x="190.869141" xlink:href="#DejaVuSans-48"/>
       <use x="254.492188" xlink:href="#DejaVuSans-48"/>
       <use x="318.115234" xlink:href="#DejaVuSans-48"/>
      </g>
     </g>
    </g>
    <g id="ytick_7">
     <g id="line2d_16">
      <g>
       <use style="stroke:#000000;stroke-width:0.8;" x="57.6" xlink:href="#m6f337323d1" y="73.077677"/>
      </g>
     </g>
     <g id="text_17">
      <!-- 152000 -->
      <g transform="translate(12.425 76.876896)scale(0.1 -0.1)">
       <use xlink:href="#DejaVuSans-49"/>
       <use x="63.623047" xlink:href="#DejaVuSans-53"/>
       <use x="127.246094" xlink:href="#DejaVuSans-50"/>
       <use x="190.869141" xlink:href="#DejaVuSans-48"/>
       <use x="254.492188" xlink:href="#DejaVuSans-48"/>
       <use x="318.115234" xlink:href="#DejaVuSans-48"/>
      </g>
     </g>
    </g>
    <g id="text_18">
     <!-- Fondo en $ -->
     <g transform="translate(6.345312 202.288938)rotate(-90)scale(0.1 -0.1)">
      <defs>
       <path d="M 9.8125 72.90625 
L 51.703125 72.90625 
L 51.703125 64.59375 
L 19.671875 64.59375 
L 19.671875 43.109375 
L 48.578125 43.109375 
L 48.578125 34.8125 
L 19.671875 34.8125 
L 19.671875 0 
L 9.8125 0 
z
" id="DejaVuSans-70"/>
       <path d="M 54.890625 33.015625 
L 54.890625 0 
L 45.90625 0 
L 45.90625 32.71875 
Q 45.90625 40.484375 42.875 44.328125 
Q 39.84375 48.1875 33.796875 48.1875 
Q 26.515625 48.1875 22.3125 43.546875 
Q 18.109375 38.921875 18.109375 30.90625 
L 18.109375 0 
L 9.078125 0 
L 9.078125 54.6875 
L 18.109375 54.6875 
L 18.109375 46.1875 
Q 21.34375 51.125 25.703125 53.5625 
Q 30.078125 56 35.796875 56 
Q 45.21875 56 50.046875 50.171875 
Q 54.890625 44.34375 54.890625 33.015625 
z
" id="DejaVuSans-110"/>
       <path d="M 33.796875 -14.703125 
L 28.90625 -14.703125 
L 28.859375 0 
Q 23.734375 0.09375 18.609375 1.1875 
Q 13.484375 2.296875 8.296875 4.5 
L 8.296875 13.28125 
Q 13.28125 10.15625 18.375 8.5625 
Q 23.484375 6.984375 28.90625 6.9375 
L 28.90625 29.203125 
Q 18.109375 30.953125 13.203125 35.15625 
Q 8.296875 39.359375 8.296875 46.6875 
Q 8.296875 54.640625 13.625 59.21875 
Q 18.953125 63.8125 28.90625 64.5 
L 28.90625 75.984375 
L 33.796875 75.984375 
L 33.796875 64.65625 
Q 38.328125 64.453125 42.578125 63.6875 
Q 46.828125 62.9375 50.875 61.625 
L 50.875 53.078125 
Q 46.828125 55.125 42.546875 56.25 
Q 38.28125 57.375 33.796875 57.5625 
L 33.796875 36.71875 
Q 44.875 35.015625 50.09375 30.609375 
Q 55.328125 26.21875 55.328125 18.609375 
Q 55.328125 10.359375 49.78125 5.59375 
Q 44.234375 0.828125 33.796875 0.09375 
z
M 28.90625 37.59375 
L 28.90625 57.625 
Q 23.25 56.984375 20.265625 54.390625 
Q 17.28125 51.8125 17.28125 47.515625 
Q 17.28125 43.3125 20.03125 40.96875 
Q 22.796875 38.625 28.90625 37.59375 
z
M 33.796875 28.21875 
L 33.796875 7.078125 
Q 39.984375 7.90625 43.140625 10.59375 
Q 46.296875 13.28125 46.296875 17.671875 
Q 46.296875 21.96875 43.28125 24.5 
Q 40.28125 27.046875 33.796875 28.21875 
z
" id="DejaVuSans-36"/>
      </defs>
      <use xlink:href="#DejaVuSans-70"/>
      <use x="53.894531" xlink:href="#DejaVuSans-111"/>
      <use x="115.076172" xlink:href="#DejaVuSans-110"/>
      <use x="178.455078" xlink:href="#DejaVuSans-100"/>
      <use x="241.931641" xlink:href="#DejaVuSans-111"/>
      <use x="303.113281" xlink:href="#DejaVuSans-32"/>
      <use x="334.900391" xlink:href="#DejaVuSans-101"/>
      <use x="396.423828" xlink:href="#DejaVuSans-110"/>
      <use x="459.802734" xlink:href="#DejaVuSans-32"/>
      <use x="491.589844" xlink:href="#DejaVuSans-36"/>
     </g>
    </g>
   </g>
   <g id="line2d_17">
    <path clip-path="url(#p487abb856b)" d="M 73.832727 147.214452 
L 77.095587 139.410581 
L 83.621307 155.018323 
L 85.252736 151.116387 
L 88.515596 158.920258 
L 90.147026 155.018323 
L 96.672746 170.626065 
L 101.567035 158.920258 
L 103.198465 162.822194 
L 104.829895 158.920258 
L 106.461325 162.822194 
L 114.618474 143.312516 
L 117.881334 151.116387 
L 119.512764 147.214452 
L 122.775624 155.018323 
L 124.407053 151.116387 
L 132.564203 170.626065 
L 135.827063 162.822194 
L 139.089922 170.626065 
L 140.721352 166.724129 
L 143.984212 174.528 
L 150.509931 158.920258 
L 153.772791 166.724129 
L 155.404221 162.822194 
L 161.929941 178.429935 
L 163.56137 174.528 
L 166.82423 182.331871 
L 168.45566 178.429935 
L 173.34995 190.135742 
L 178.244239 178.429935 
L 183.138529 190.135742 
L 188.032819 178.429935 
L 196.189968 197.939613 
L 197.821398 194.037677 
L 199.452828 197.939613 
L 201.084258 194.037677 
L 202.715688 197.939613 
L 204.347117 194.037677 
L 210.872837 209.645419 
L 215.767127 197.939613 
L 217.398556 201.841548 
L 219.029986 197.939613 
L 222.292846 205.743484 
L 223.924276 201.841548 
L 225.555706 205.743484 
L 230.449995 194.037677 
L 236.975715 209.645419 
L 240.238575 201.841548 
L 243.501434 209.645419 
L 246.764294 201.841548 
L 251.658584 213.547355 
L 256.552873 201.841548 
L 258.184303 205.743484 
L 259.815733 201.841548 
L 261.447163 205.743484 
L 263.078593 201.841548 
L 266.341453 209.645419 
L 267.972883 205.743484 
L 271.235742 213.547355 
L 276.130032 201.841548 
L 281.024322 213.547355 
L 282.655751 209.645419 
L 287.550041 221.351226 
L 289.181471 217.44929 
L 292.444331 225.253161 
L 294.075761 221.351226 
L 297.33862 229.155097 
L 300.60148 221.351226 
L 310.390059 244.762839 
L 315.284349 233.057032 
L 316.915779 236.958968 
L 318.547209 233.057032 
L 321.810069 240.860903 
L 325.072928 233.057032 
L 326.704358 236.958968 
L 329.967218 229.155097 
L 331.598648 233.057032 
L 333.230078 229.155097 
L 334.861508 233.057032 
L 336.492937 229.155097 
L 341.387227 240.860903 
L 343.018657 236.958968 
L 344.650087 240.860903 
L 349.544376 229.155097 
L 351.175806 233.057032 
L 354.438666 225.253161 
L 356.070096 229.155097 
L 359.332956 221.351226 
L 364.227245 233.057032 
L 365.858675 229.155097 
L 367.490105 233.057032 
L 369.121535 229.155097 
L 374.015825 240.860903 
L 378.910114 229.155097 
L 380.541544 233.057032 
L 383.804404 225.253161 
L 388.698693 236.958968 
L 391.961553 229.155097 
L 393.592983 233.057032 
L 395.224413 229.155097 
L 398.487273 236.958968 
L 398.487273 236.958968 
" style="fill:none;stroke:#1f77b4;stroke-linecap:square;stroke-width:1.5;"/>
   </g>
   <g id="line2d_18">
    <path clip-path="url(#p487abb856b)" d="M 73.832727 147.214452 
L 75.464157 143.312516 
L 78.727017 151.116387 
L 80.358447 147.214452 
L 83.621307 155.018323 
L 88.515596 143.312516 
L 91.778456 151.116387 
L 99.935605 131.60671 
L 101.567035 135.508645 
L 103.198465 131.60671 
L 104.829895 135.508645 
L 109.724185 123.802839 
L 111.355614 127.704774 
L 112.987044 123.802839 
L 116.249904 131.60671 
L 117.881334 127.704774 
L 119.512764 131.60671 
L 121.144194 127.704774 
L 122.775624 131.60671 
L 130.932773 112.097032 
L 135.827063 123.802839 
L 139.089922 115.998968 
L 145.615642 131.60671 
L 147.247072 127.704774 
L 150.509931 135.508645 
L 152.141361 131.60671 
L 153.772791 135.508645 
L 155.404221 131.60671 
L 160.298511 143.312516 
L 168.45566 123.802839 
L 174.98138 139.410581 
L 179.875669 127.704774 
L 181.507099 131.60671 
L 184.769959 123.802839 
L 186.401389 127.704774 
L 192.927108 112.097032 
L 194.558538 115.998968 
L 196.189968 112.097032 
L 199.452828 119.900903 
L 201.084258 115.998968 
L 205.978547 127.704774 
L 207.609977 123.802839 
L 210.872837 131.60671 
L 217.398556 115.998968 
L 219.029986 119.900903 
L 223.924276 108.195097 
L 227.187136 115.998968 
L 230.449995 108.195097 
L 232.081425 112.097032 
L 233.712855 108.195097 
L 235.344285 112.097032 
L 236.975715 108.195097 
L 238.607145 112.097032 
L 240.238575 108.195097 
L 241.870005 112.097032 
L 245.132864 104.293161 
L 246.764294 108.195097 
L 248.395724 104.293161 
L 250.027154 108.195097 
L 253.290014 100.391226 
L 254.921444 104.293161 
L 258.184303 96.48929 
L 261.447163 104.293161 
L 267.972883 88.685419 
L 271.235742 96.48929 
L 272.867172 92.587355 
L 276.130032 100.391226 
L 279.392892 92.587355 
L 282.655751 100.391226 
L 284.287181 96.48929 
L 285.918611 100.391226 
L 287.550041 96.48929 
L 289.181471 100.391226 
L 292.444331 92.587355 
L 295.70719 100.391226 
L 297.33862 96.48929 
L 308.75863 123.802839 
L 310.390059 119.900903 
L 312.021489 123.802839 
L 313.652919 119.900903 
L 315.284349 123.802839 
L 318.547209 115.998968 
L 320.178639 119.900903 
L 323.441498 112.097032 
L 325.072928 115.998968 
L 326.704358 112.097032 
L 331.598648 123.802839 
L 338.124367 108.195097 
L 341.387227 115.998968 
L 343.018657 112.097032 
L 344.650087 115.998968 
L 346.281517 112.097032 
L 347.912947 115.998968 
L 351.175806 108.195097 
L 356.070096 119.900903 
L 357.701526 115.998968 
L 359.332956 119.900903 
L 360.964386 115.998968 
L 365.858675 127.704774 
L 369.121535 119.900903 
L 372.384395 127.704774 
L 374.015825 123.802839 
L 378.910114 135.508645 
L 382.172974 127.704774 
L 383.804404 131.60671 
L 390.330123 115.998968 
L 391.961553 119.900903 
L 395.224413 112.097032 
L 398.487273 119.900903 
L 398.487273 119.900903 
" style="fill:none;stroke:#ff7f0e;stroke-linecap:square;stroke-width:1.5;"/>
   </g>
   <g id="line2d_19">
    <path clip-path="url(#p487abb856b)" d="M 73.832727 147.214452 
L 75.464157 151.116387 
L 77.095587 147.214452 
L 78.727017 151.116387 
L 80.358447 147.214452 
L 81.989877 151.116387 
L 83.621307 147.214452 
L 96.672746 178.429935 
L 98.304175 174.528 
L 104.829895 190.135742 
L 106.461325 186.233806 
L 114.618474 205.743484 
L 116.249904 201.841548 
L 119.512764 209.645419 
L 121.144194 205.743484 
L 122.775624 209.645419 
L 124.407053 205.743484 
L 127.669913 213.547355 
L 132.564203 201.841548 
L 135.827063 209.645419 
L 139.089922 201.841548 
L 143.984212 213.547355 
L 147.247072 205.743484 
L 152.141361 217.44929 
L 157.035651 205.743484 
L 158.667081 209.645419 
L 163.56137 197.939613 
L 165.1928 201.841548 
L 171.71852 186.233806 
L 174.98138 194.037677 
L 178.244239 186.233806 
L 186.401389 205.743484 
L 191.295678 194.037677 
L 205.978547 229.155097 
L 220.661416 194.037677 
L 222.292846 197.939613 
L 223.924276 194.037677 
L 228.818566 205.743484 
L 236.975715 186.233806 
L 238.607145 190.135742 
L 245.132864 174.528 
L 248.395724 182.331871 
L 250.027154 178.429935 
L 253.290014 186.233806 
L 256.552873 178.429935 
L 258.184303 182.331871 
L 259.815733 178.429935 
L 263.078593 186.233806 
L 266.341453 178.429935 
L 267.972883 182.331871 
L 271.235742 174.528 
L 274.498602 182.331871 
L 276.130032 178.429935 
L 281.024322 190.135742 
L 285.918611 178.429935 
L 289.181471 186.233806 
L 290.812901 182.331871 
L 292.444331 186.233806 
L 294.075761 182.331871 
L 297.33862 190.135742 
L 298.97005 186.233806 
L 300.60148 190.135742 
L 303.86434 182.331871 
L 307.1272 190.135742 
L 308.75863 186.233806 
L 312.021489 194.037677 
L 315.284349 186.233806 
L 316.915779 190.135742 
L 320.178639 182.331871 
L 323.441498 190.135742 
L 325.072928 186.233806 
L 326.704358 190.135742 
L 329.967218 182.331871 
L 331.598648 186.233806 
L 336.492937 174.528 
L 339.755797 182.331871 
L 344.650087 170.626065 
L 356.070096 197.939613 
L 360.964386 186.233806 
L 362.595815 190.135742 
L 365.858675 182.331871 
L 369.121535 190.135742 
L 374.015825 178.429935 
L 378.910114 190.135742 
L 380.541544 186.233806 
L 382.172974 190.135742 
L 388.698693 174.528 
L 390.330123 178.429935 
L 395.224413 166.724129 
L 396.855843 170.626065 
L 398.487273 166.724129 
L 398.487273 166.724129 
" style="fill:none;stroke:#2ca02c;stroke-linecap:square;stroke-width:1.5;"/>
   </g>
   <g id="line2d_20">
    <path clip-path="url(#p487abb856b)" d="M 73.832727 155.018323 
L 75.464157 158.920258 
L 77.095587 155.018323 
L 78.727017 158.920258 
L 80.358447 155.018323 
L 83.621307 162.822194 
L 85.252736 158.920258 
L 88.515596 166.724129 
L 95.041316 151.116387 
L 96.672746 155.018323 
L 98.304175 151.116387 
L 101.567035 158.920258 
L 104.829895 151.116387 
L 106.461325 155.018323 
L 109.724185 147.214452 
L 112.987044 155.018323 
L 119.512764 139.410581 
L 121.144194 143.312516 
L 126.038483 131.60671 
L 129.301343 139.410581 
L 135.827063 123.802839 
L 137.458492 127.704774 
L 140.721352 119.900903 
L 142.352782 123.802839 
L 143.984212 119.900903 
L 145.615642 123.802839 
L 147.247072 119.900903 
L 155.404221 139.410581 
L 158.667081 131.60671 
L 161.929941 139.410581 
L 163.56137 135.508645 
L 165.1928 139.410581 
L 166.82423 135.508645 
L 170.08709 143.312516 
L 171.71852 139.410581 
L 181.507099 162.822194 
L 188.032819 147.214452 
L 191.295678 155.018323 
L 197.821398 139.410581 
L 201.084258 147.214452 
L 202.715688 143.312516 
L 204.347117 147.214452 
L 205.978547 143.312516 
L 207.609977 147.214452 
L 209.241407 143.312516 
L 210.872837 147.214452 
L 212.504267 143.312516 
L 215.767127 151.116387 
L 217.398556 147.214452 
L 219.029986 151.116387 
L 220.661416 147.214452 
L 223.924276 155.018323 
L 225.555706 151.116387 
L 232.081425 166.724129 
L 233.712855 162.822194 
L 235.344285 166.724129 
L 240.238575 155.018323 
L 241.870005 158.920258 
L 248.395724 143.312516 
L 250.027154 147.214452 
L 251.658584 143.312516 
L 253.290014 147.214452 
L 259.815733 131.60671 
L 263.078593 139.410581 
L 271.235742 119.900903 
L 272.867172 123.802839 
L 274.498602 119.900903 
L 277.761462 127.704774 
L 279.392892 123.802839 
L 281.024322 127.704774 
L 284.287181 119.900903 
L 292.444331 139.410581 
L 298.97005 123.802839 
L 300.60148 127.704774 
L 305.49577 115.998968 
L 310.390059 127.704774 
L 312.021489 123.802839 
L 318.547209 139.410581 
L 320.178639 135.508645 
L 321.810069 139.410581 
L 323.441498 135.508645 
L 325.072928 139.410581 
L 326.704358 135.508645 
L 328.335788 139.410581 
L 329.967218 135.508645 
L 336.492937 151.116387 
L 343.018657 135.508645 
L 347.912947 147.214452 
L 351.175806 139.410581 
L 359.332956 158.920258 
L 360.964386 155.018323 
L 362.595815 158.920258 
L 364.227245 155.018323 
L 365.858675 158.920258 
L 367.490105 155.018323 
L 369.121535 158.920258 
L 370.752965 155.018323 
L 375.647254 166.724129 
L 377.278684 162.822194 
L 380.541544 170.626065 
L 383.804404 162.822194 
L 385.435834 166.724129 
L 388.698693 158.920258 
L 395.224413 174.528 
L 398.487273 166.724129 
L 398.487273 166.724129 
" style="fill:none;stroke:#d62728;stroke-linecap:square;stroke-width:1.5;"/>
   </g>
   <g id="line2d_21">
    <path clip-path="url(#p487abb856b)" d="M 73.832727 147.214452 
L 75.464157 143.312516 
L 77.095587 147.214452 
L 78.727017 143.312516 
L 80.358447 147.214452 
L 86.884166 131.60671 
L 95.041316 151.116387 
L 96.672746 147.214452 
L 98.304175 151.116387 
L 101.567035 143.312516 
L 104.829895 151.116387 
L 108.092755 143.312516 
L 109.724185 147.214452 
L 111.355614 143.312516 
L 112.987044 147.214452 
L 117.881334 135.508645 
L 119.512764 139.410581 
L 122.775624 131.60671 
L 127.669913 143.312516 
L 129.301343 139.410581 
L 134.195633 151.116387 
L 135.827063 147.214452 
L 137.458492 151.116387 
L 139.089922 147.214452 
L 143.984212 158.920258 
L 147.247072 151.116387 
L 148.878502 155.018323 
L 153.772791 143.312516 
L 155.404221 147.214452 
L 157.035651 143.312516 
L 158.667081 147.214452 
L 166.82423 127.704774 
L 168.45566 131.60671 
L 170.08709 127.704774 
L 171.71852 131.60671 
L 176.61281 119.900903 
L 178.244239 123.802839 
L 179.875669 119.900903 
L 181.507099 123.802839 
L 183.138529 119.900903 
L 184.769959 123.802839 
L 186.401389 119.900903 
L 188.032819 123.802839 
L 189.664249 119.900903 
L 194.558538 131.60671 
L 196.189968 127.704774 
L 197.821398 131.60671 
L 199.452828 127.704774 
L 204.347117 139.410581 
L 205.978547 135.508645 
L 207.609977 139.410581 
L 210.872837 131.60671 
L 217.398556 147.214452 
L 222.292846 135.508645 
L 223.924276 139.410581 
L 228.818566 127.704774 
L 233.712855 139.410581 
L 235.344285 135.508645 
L 238.607145 143.312516 
L 243.501434 131.60671 
L 246.764294 139.410581 
L 248.395724 135.508645 
L 263.078593 170.626065 
L 264.710023 166.724129 
L 269.604312 178.429935 
L 279.392892 155.018323 
L 281.024322 158.920258 
L 282.655751 155.018323 
L 284.287181 158.920258 
L 289.181471 147.214452 
L 292.444331 155.018323 
L 295.70719 147.214452 
L 300.60148 158.920258 
L 305.49577 147.214452 
L 308.75863 155.018323 
L 312.021489 147.214452 
L 315.284349 155.018323 
L 318.547209 147.214452 
L 321.810069 155.018323 
L 328.335788 139.410581 
L 331.598648 147.214452 
L 336.492937 135.508645 
L 341.387227 147.214452 
L 343.018657 143.312516 
L 351.175806 162.822194 
L 352.807236 158.920258 
L 356.070096 166.724129 
L 364.227245 147.214452 
L 367.490105 155.018323 
L 377.278684 131.60671 
L 380.541544 139.410581 
L 382.172974 135.508645 
L 385.435834 143.312516 
L 387.067264 139.410581 
L 396.855843 162.822194 
L 398.487273 158.920258 
L 398.487273 158.920258 
" style="fill:none;stroke:#9467bd;stroke-linecap:square;stroke-width:1.5;"/>
   </g>
   <g id="line2d_22">
    <path clip-path="url(#p487abb856b)" d="M 73.832727 147.214452 
L 77.095587 139.410581 
L 80.358447 147.214452 
L 86.884166 131.60671 
L 93.409886 147.214452 
L 95.041316 143.312516 
L 101.567035 158.920258 
L 108.092755 143.312516 
L 111.355614 151.116387 
L 114.618474 143.312516 
L 116.249904 147.214452 
L 119.512764 139.410581 
L 121.144194 143.312516 
L 122.775624 139.410581 
L 126.038483 147.214452 
L 132.564203 131.60671 
L 134.195633 135.508645 
L 143.984212 112.097032 
L 145.615642 115.998968 
L 150.509931 104.293161 
L 155.404221 115.998968 
L 158.667081 108.195097 
L 160.298511 112.097032 
L 163.56137 104.293161 
L 166.82423 112.097032 
L 171.71852 100.391226 
L 174.98138 108.195097 
L 178.244239 100.391226 
L 183.138529 112.097032 
L 194.558538 84.783484 
L 196.189968 88.685419 
L 199.452828 80.881548 
L 202.715688 88.685419 
L 209.241407 73.077677 
L 210.872837 76.979613 
L 220.661416 53.568 
L 225.555706 65.273806 
L 228.818566 57.469935 
L 232.081425 65.273806 
L 233.712855 61.371871 
L 238.607145 73.077677 
L 241.870005 65.273806 
L 250.027154 84.783484 
L 253.290014 76.979613 
L 259.815733 92.587355 
L 263.078593 84.783484 
L 266.341453 92.587355 
L 267.972883 88.685419 
L 269.604312 92.587355 
L 274.498602 80.881548 
L 276.130032 84.783484 
L 277.761462 80.881548 
L 282.655751 92.587355 
L 287.550041 80.881548 
L 289.181471 84.783484 
L 290.812901 80.881548 
L 292.444331 84.783484 
L 294.075761 80.881548 
L 295.70719 84.783484 
L 297.33862 80.881548 
L 298.97005 84.783484 
L 300.60148 80.881548 
L 302.23291 84.783484 
L 308.75863 69.175742 
L 313.652919 80.881548 
L 316.915779 73.077677 
L 325.072928 92.587355 
L 333.230078 73.077677 
L 334.861508 76.979613 
L 336.492937 73.077677 
L 338.124367 76.979613 
L 339.755797 73.077677 
L 341.387227 76.979613 
L 347.912947 61.371871 
L 356.070096 80.881548 
L 357.701526 76.979613 
L 360.964386 84.783484 
L 369.121535 65.273806 
L 372.384395 73.077677 
L 374.015825 69.175742 
L 375.647254 73.077677 
L 378.910114 65.273806 
L 383.804404 76.979613 
L 385.435834 73.077677 
L 387.067264 76.979613 
L 388.698693 73.077677 
L 391.961553 80.881548 
L 393.592983 76.979613 
L 396.855843 84.783484 
L 398.487273 80.881548 
L 398.487273 80.881548 
" style="fill:none;stroke:#8c564b;stroke-linecap:square;stroke-width:1.5;"/>
   </g>
   <g id="line2d_23">
    <path clip-path="url(#p487abb856b)" d="M 73.832727 147.214452 
L 75.464157 151.116387 
L 77.095587 147.214452 
L 78.727017 151.116387 
L 80.358447 147.214452 
L 81.989877 151.116387 
L 83.621307 147.214452 
L 88.515596 158.920258 
L 98.304175 135.508645 
L 99.935605 139.410581 
L 101.567035 135.508645 
L 103.198465 139.410581 
L 112.987044 115.998968 
L 116.249904 123.802839 
L 119.512764 115.998968 
L 121.144194 119.900903 
L 124.407053 112.097032 
L 127.669913 119.900903 
L 134.195633 104.293161 
L 137.458492 112.097032 
L 139.089922 108.195097 
L 140.721352 112.097032 
L 142.352782 108.195097 
L 143.984212 112.097032 
L 148.878502 100.391226 
L 150.509931 104.293161 
L 155.404221 92.587355 
L 157.035651 96.48929 
L 160.298511 88.685419 
L 161.929941 92.587355 
L 163.56137 88.685419 
L 165.1928 92.587355 
L 166.82423 88.685419 
L 168.45566 92.587355 
L 170.08709 88.685419 
L 173.34995 96.48929 
L 174.98138 92.587355 
L 176.61281 96.48929 
L 178.244239 92.587355 
L 179.875669 96.48929 
L 183.138529 88.685419 
L 186.401389 96.48929 
L 191.295678 84.783484 
L 192.927108 88.685419 
L 194.558538 84.783484 
L 199.452828 96.48929 
L 201.084258 92.587355 
L 202.715688 96.48929 
L 204.347117 92.587355 
L 207.609977 100.391226 
L 209.241407 96.48929 
L 212.504267 104.293161 
L 214.135697 100.391226 
L 215.767127 104.293161 
L 217.398556 100.391226 
L 219.029986 104.293161 
L 220.661416 100.391226 
L 222.292846 104.293161 
L 223.924276 100.391226 
L 225.555706 104.293161 
L 227.187136 100.391226 
L 230.449995 108.195097 
L 232.081425 104.293161 
L 235.344285 112.097032 
L 236.975715 108.195097 
L 241.870005 119.900903 
L 248.395724 104.293161 
L 253.290014 115.998968 
L 256.552873 108.195097 
L 258.184303 112.097032 
L 259.815733 108.195097 
L 261.447163 112.097032 
L 263.078593 108.195097 
L 266.341453 115.998968 
L 274.498602 96.48929 
L 276.130032 100.391226 
L 281.024322 88.685419 
L 282.655751 92.587355 
L 284.287181 88.685419 
L 289.181471 100.391226 
L 292.444331 92.587355 
L 302.23291 115.998968 
L 303.86434 112.097032 
L 305.49577 115.998968 
L 307.1272 112.097032 
L 308.75863 115.998968 
L 310.390059 112.097032 
L 316.915779 127.704774 
L 321.810069 115.998968 
L 323.441498 119.900903 
L 325.072928 115.998968 
L 326.704358 119.900903 
L 328.335788 115.998968 
L 339.755797 143.312516 
L 341.387227 139.410581 
L 347.912947 155.018323 
L 352.807236 143.312516 
L 364.227245 170.626065 
L 365.858675 166.724129 
L 370.752965 178.429935 
L 377.278684 162.822194 
L 378.910114 166.724129 
L 380.541544 162.822194 
L 383.804404 170.626065 
L 387.067264 162.822194 
L 390.330123 170.626065 
L 391.961553 166.724129 
L 395.224413 174.528 
L 396.855843 170.626065 
L 398.487273 174.528 
L 398.487273 174.528 
" style="fill:none;stroke:#e377c2;stroke-linecap:square;stroke-width:1.5;"/>
   </g>
   <g id="line2d_24">
    <path clip-path="url(#p487abb856b)" d="M 73.832727 155.018323 
L 75.464157 151.116387 
L 77.095587 155.018323 
L 78.727017 151.116387 
L 80.358447 155.018323 
L 90.147026 131.60671 
L 101.567035 158.920258 
L 104.829895 151.116387 
L 106.461325 155.018323 
L 109.724185 147.214452 
L 112.987044 155.018323 
L 114.618474 151.116387 
L 117.881334 158.920258 
L 119.512764 155.018323 
L 121.144194 158.920258 
L 122.775624 155.018323 
L 126.038483 162.822194 
L 127.669913 158.920258 
L 129.301343 162.822194 
L 130.932773 158.920258 
L 137.458492 174.528 
L 139.089922 170.626065 
L 140.721352 174.528 
L 143.984212 166.724129 
L 145.615642 170.626065 
L 147.247072 166.724129 
L 148.878502 170.626065 
L 150.509931 166.724129 
L 153.772791 174.528 
L 155.404221 170.626065 
L 160.298511 182.331871 
L 165.1928 170.626065 
L 166.82423 174.528 
L 171.71852 162.822194 
L 173.34995 166.724129 
L 178.244239 155.018323 
L 181.507099 162.822194 
L 186.401389 151.116387 
L 189.664249 158.920258 
L 194.558538 147.214452 
L 199.452828 158.920258 
L 207.609977 139.410581 
L 209.241407 143.312516 
L 210.872837 139.410581 
L 214.135697 147.214452 
L 215.767127 143.312516 
L 217.398556 147.214452 
L 220.661416 139.410581 
L 223.924276 147.214452 
L 228.818566 135.508645 
L 230.449995 139.410581 
L 236.975715 123.802839 
L 238.607145 127.704774 
L 240.238575 123.802839 
L 243.501434 131.60671 
L 245.132864 127.704774 
L 246.764294 131.60671 
L 248.395724 127.704774 
L 250.027154 131.60671 
L 254.921444 119.900903 
L 256.552873 123.802839 
L 259.815733 115.998968 
L 264.710023 127.704774 
L 267.972883 119.900903 
L 269.604312 123.802839 
L 272.867172 115.998968 
L 277.761462 127.704774 
L 279.392892 123.802839 
L 281.024322 127.704774 
L 284.287181 119.900903 
L 289.181471 131.60671 
L 290.812901 127.704774 
L 298.97005 147.214452 
L 300.60148 143.312516 
L 302.23291 147.214452 
L 307.1272 135.508645 
L 308.75863 139.410581 
L 313.652919 127.704774 
L 316.915779 135.508645 
L 318.547209 131.60671 
L 321.810069 139.410581 
L 323.441498 135.508645 
L 325.072928 139.410581 
L 328.335788 131.60671 
L 329.967218 135.508645 
L 334.861508 123.802839 
L 336.492937 127.704774 
L 339.755797 119.900903 
L 341.387227 123.802839 
L 343.018657 119.900903 
L 347.912947 131.60671 
L 354.438666 115.998968 
L 369.121535 151.116387 
L 370.752965 147.214452 
L 372.384395 151.116387 
L 375.647254 143.312516 
L 380.541544 155.018323 
L 382.172974 151.116387 
L 383.804404 155.018323 
L 385.435834 151.116387 
L 387.067264 155.018323 
L 388.698693 151.116387 
L 391.961553 158.920258 
L 396.855843 147.214452 
L 398.487273 151.116387 
L 398.487273 151.116387 
" style="fill:none;stroke:#7f7f7f;stroke-linecap:square;stroke-width:1.5;"/>
   </g>
   <g id="line2d_25">
    <path clip-path="url(#p487abb856b)" d="M 73.832727 147.214452 
L 77.095587 155.018323 
L 78.727017 151.116387 
L 81.989877 158.920258 
L 85.252736 151.116387 
L 91.778456 166.724129 
L 96.672746 155.018323 
L 98.304175 158.920258 
L 101.567035 151.116387 
L 108.092755 166.724129 
L 109.724185 162.822194 
L 122.775624 194.037677 
L 126.038483 186.233806 
L 127.669913 190.135742 
L 130.932773 182.331871 
L 132.564203 186.233806 
L 135.827063 178.429935 
L 139.089922 186.233806 
L 142.352782 178.429935 
L 147.247072 190.135742 
L 150.509931 182.331871 
L 160.298511 205.743484 
L 161.929941 201.841548 
L 166.82423 213.547355 
L 168.45566 209.645419 
L 170.08709 213.547355 
L 174.98138 201.841548 
L 179.875669 213.547355 
L 181.507099 209.645419 
L 184.769959 217.44929 
L 188.032819 209.645419 
L 192.927108 221.351226 
L 194.558538 217.44929 
L 201.084258 233.057032 
L 202.715688 229.155097 
L 204.347117 233.057032 
L 207.609977 225.253161 
L 209.241407 229.155097 
L 212.504267 221.351226 
L 220.661416 240.860903 
L 223.924276 233.057032 
L 228.818566 244.762839 
L 230.449995 240.860903 
L 232.081425 244.762839 
L 241.870005 221.351226 
L 246.764294 233.057032 
L 248.395724 229.155097 
L 253.290014 240.860903 
L 254.921444 236.958968 
L 261.447163 252.56671 
L 263.078593 248.664774 
L 264.710023 252.56671 
L 271.235742 236.958968 
L 272.867172 240.860903 
L 274.498602 236.958968 
L 277.761462 244.762839 
L 279.392892 240.860903 
L 281.024322 244.762839 
L 285.918611 233.057032 
L 287.550041 236.958968 
L 289.181471 233.057032 
L 307.1272 275.978323 
L 308.75863 272.076387 
L 310.390059 275.978323 
L 312.021489 272.076387 
L 313.652919 275.978323 
L 316.915779 268.174452 
L 320.178639 275.978323 
L 321.810069 272.076387 
L 323.441498 275.978323 
L 325.072928 272.076387 
L 326.704358 275.978323 
L 329.967218 268.174452 
L 334.861508 279.880258 
L 339.755797 268.174452 
L 341.387227 272.076387 
L 343.018657 268.174452 
L 347.912947 279.880258 
L 349.544376 275.978323 
L 351.175806 279.880258 
L 352.807236 275.978323 
L 356.070096 283.782194 
L 357.701526 279.880258 
L 362.595815 291.586065 
L 364.227245 287.684129 
L 367.490105 295.488 
L 374.015825 279.880258 
L 375.647254 283.782194 
L 377.278684 279.880258 
L 378.910114 283.782194 
L 382.172974 275.978323 
L 383.804404 279.880258 
L 390.330123 264.272516 
L 391.961553 268.174452 
L 395.224413 260.370581 
L 398.487273 268.174452 
L 398.487273 268.174452 
" style="fill:none;stroke:#bcbd22;stroke-linecap:square;stroke-width:1.5;"/>
   </g>
   <g id="line2d_26">
    <path clip-path="url(#p487abb856b)" d="M 73.832727 155.018323 
L 78.727017 143.312516 
L 80.358447 147.214452 
L 81.989877 143.312516 
L 88.515596 158.920258 
L 90.147026 155.018323 
L 91.778456 158.920258 
L 98.304175 143.312516 
L 109.724185 170.626065 
L 111.355614 166.724129 
L 114.618474 174.528 
L 117.881334 166.724129 
L 127.669913 190.135742 
L 132.564203 178.429935 
L 137.458492 190.135742 
L 140.721352 182.331871 
L 145.615642 194.037677 
L 147.247072 190.135742 
L 148.878502 194.037677 
L 150.509931 190.135742 
L 152.141361 194.037677 
L 153.772791 190.135742 
L 155.404221 194.037677 
L 157.035651 190.135742 
L 158.667081 194.037677 
L 163.56137 182.331871 
L 166.82423 190.135742 
L 168.45566 186.233806 
L 170.08709 190.135742 
L 173.34995 182.331871 
L 179.875669 197.939613 
L 183.138529 190.135742 
L 192.927108 213.547355 
L 194.558538 209.645419 
L 201.084258 225.253161 
L 202.715688 221.351226 
L 207.609977 233.057032 
L 220.661416 201.841548 
L 222.292846 205.743484 
L 225.555706 197.939613 
L 228.818566 205.743484 
L 230.449995 201.841548 
L 235.344285 213.547355 
L 240.238575 201.841548 
L 241.870005 205.743484 
L 243.501434 201.841548 
L 245.132864 205.743484 
L 251.658584 190.135742 
L 253.290014 194.037677 
L 254.921444 190.135742 
L 261.447163 205.743484 
L 269.604312 186.233806 
L 274.498602 197.939613 
L 277.761462 190.135742 
L 279.392892 194.037677 
L 281.024322 190.135742 
L 282.655751 194.037677 
L 285.918611 186.233806 
L 290.812901 197.939613 
L 292.444331 194.037677 
L 294.075761 197.939613 
L 295.70719 194.037677 
L 297.33862 197.939613 
L 298.97005 194.037677 
L 302.23291 201.841548 
L 307.1272 190.135742 
L 308.75863 194.037677 
L 310.390059 190.135742 
L 312.021489 194.037677 
L 315.284349 186.233806 
L 320.178639 197.939613 
L 321.810069 194.037677 
L 325.072928 201.841548 
L 326.704358 197.939613 
L 328.335788 201.841548 
L 336.492937 182.331871 
L 338.124367 186.233806 
L 343.018657 174.528 
L 346.281517 182.331871 
L 351.175806 170.626065 
L 352.807236 174.528 
L 359.332956 158.920258 
L 362.595815 166.724129 
L 365.858675 158.920258 
L 367.490105 162.822194 
L 370.752965 155.018323 
L 372.384395 158.920258 
L 377.278684 147.214452 
L 382.172974 158.920258 
L 387.067264 147.214452 
L 390.330123 155.018323 
L 391.961553 151.116387 
L 396.855843 162.822194 
L 398.487273 158.920258 
L 398.487273 158.920258 
" style="fill:none;stroke:#17becf;stroke-linecap:square;stroke-width:1.5;"/>
   </g>
   <g id="patch_3">
    <path d="M 57.6 307.584 
L 57.6 41.472 
" style="fill:none;stroke:#000000;stroke-linecap:square;stroke-linejoin:miter;stroke-width:0.8;"/>
   </g>
   <g id="patch_4">
    <path d="M 414.72 307.584 
L 414.72 41.472 
" style="fill:none;stroke:#000000;stroke-linecap:square;stroke-linejoin:miter;stroke-width:0.8;"/>
   </g>
   <g id="patch_5">
    <path d="M 57.6 307.584 
L 414.72 307.584 
" style="fill:none;stroke:#000000;stroke-linecap:square;stroke-linejoin:miter;stroke-width:0.8;"/>
   </g>
   <g id="patch_6">
    <path d="M 57.6 41.472 
L 414.72 41.472 
" style="fill:none;stroke:#000000;stroke-linecap:square;stroke-linejoin:miter;stroke-width:0.8;"/>
   </g>
   <g id="text_19">
    <!-- Grafico fondos rojos apuesta simple F.I: $150000.0 -->
    <g transform="translate(83.950312 35.472)scale(0.12 -0.12)">
     <defs>
      <path d="M 59.515625 10.40625 
L 59.515625 29.984375 
L 43.40625 29.984375 
L 43.40625 38.09375 
L 69.28125 38.09375 
L 69.28125 6.78125 
Q 63.578125 2.734375 56.6875 0.65625 
Q 49.8125 -1.421875 42 -1.421875 
Q 24.90625 -1.421875 15.25 8.5625 
Q 5.609375 18.5625 5.609375 36.375 
Q 5.609375 54.25 15.25 64.234375 
Q 24.90625 74.21875 42 74.21875 
Q 49.125 74.21875 55.546875 72.453125 
Q 61.96875 70.703125 67.390625 67.28125 
L 67.390625 56.78125 
Q 61.921875 61.421875 55.765625 63.765625 
Q 49.609375 66.109375 42.828125 66.109375 
Q 29.4375 66.109375 22.71875 58.640625 
Q 16.015625 51.171875 16.015625 36.375 
Q 16.015625 21.625 22.71875 14.15625 
Q 29.4375 6.6875 42.828125 6.6875 
Q 48.046875 6.6875 52.140625 7.59375 
Q 56.25 8.5 59.515625 10.40625 
z
" id="DejaVuSans-71"/>
      <path d="M 37.109375 75.984375 
L 37.109375 68.5 
L 28.515625 68.5 
Q 23.6875 68.5 21.796875 66.546875 
Q 19.921875 64.59375 19.921875 59.515625 
L 19.921875 54.6875 
L 34.71875 54.6875 
L 34.71875 47.703125 
L 19.921875 47.703125 
L 19.921875 0 
L 10.890625 0 
L 10.890625 47.703125 
L 2.296875 47.703125 
L 2.296875 54.6875 
L 10.890625 54.6875 
L 10.890625 58.5 
Q 10.890625 67.625 15.140625 71.796875 
Q 19.390625 75.984375 28.609375 75.984375 
z
" id="DejaVuSans-102"/>
      <path d="M 48.78125 52.59375 
L 48.78125 44.1875 
Q 44.96875 46.296875 41.140625 47.34375 
Q 37.3125 48.390625 33.40625 48.390625 
Q 24.65625 48.390625 19.8125 42.84375 
Q 14.984375 37.3125 14.984375 27.296875 
Q 14.984375 17.28125 19.8125 11.734375 
Q 24.65625 6.203125 33.40625 6.203125 
Q 37.3125 6.203125 41.140625 7.25 
Q 44.96875 8.296875 48.78125 10.40625 
L 48.78125 2.09375 
Q 45.015625 0.34375 40.984375 -0.53125 
Q 36.96875 -1.421875 32.421875 -1.421875 
Q 20.0625 -1.421875 12.78125 6.34375 
Q 5.515625 14.109375 5.515625 27.296875 
Q 5.515625 40.671875 12.859375 48.328125 
Q 20.21875 56 33.015625 56 
Q 37.15625 56 41.109375 55.140625 
Q 45.0625 54.296875 48.78125 52.59375 
z
" id="DejaVuSans-99"/>
      <path d="M 44.28125 53.078125 
L 44.28125 44.578125 
Q 40.484375 46.53125 36.375 47.5 
Q 32.28125 48.484375 27.875 48.484375 
Q 21.1875 48.484375 17.84375 46.4375 
Q 14.5 44.390625 14.5 40.28125 
Q 14.5 37.15625 16.890625 35.375 
Q 19.28125 33.59375 26.515625 31.984375 
L 29.59375 31.296875 
Q 39.15625 29.25 43.1875 25.515625 
Q 47.21875 21.78125 47.21875 15.09375 
Q 47.21875 7.46875 41.1875 3.015625 
Q 35.15625 -1.421875 24.609375 -1.421875 
Q 20.21875 -1.421875 15.453125 -0.5625 
Q 10.6875 0.296875 5.421875 2 
L 5.421875 11.28125 
Q 10.40625 8.6875 15.234375 7.390625 
Q 20.0625 6.109375 24.8125 6.109375 
Q 31.15625 6.109375 34.5625 8.28125 
Q 37.984375 10.453125 37.984375 14.40625 
Q 37.984375 18.0625 35.515625 20.015625 
Q 33.0625 21.96875 24.703125 23.78125 
L 21.578125 24.515625 
Q 13.234375 26.265625 9.515625 29.90625 
Q 5.8125 33.546875 5.8125 39.890625 
Q 5.8125 47.609375 11.28125 51.796875 
Q 16.75 56 26.8125 56 
Q 31.78125 56 36.171875 55.265625 
Q 40.578125 54.546875 44.28125 53.078125 
z
" id="DejaVuSans-115"/>
      <path d="M 9.421875 54.6875 
L 18.40625 54.6875 
L 18.40625 -0.984375 
Q 18.40625 -11.421875 14.421875 -16.109375 
Q 10.453125 -20.796875 1.609375 -20.796875 
L -1.8125 -20.796875 
L -1.8125 -13.1875 
L 0.59375 -13.1875 
Q 5.71875 -13.1875 7.5625 -10.8125 
Q 9.421875 -8.453125 9.421875 -0.984375 
z
M 9.421875 75.984375 
L 18.40625 75.984375 
L 18.40625 64.59375 
L 9.421875 64.59375 
z
" id="DejaVuSans-106"/>
      <path d="M 18.109375 8.203125 
L 18.109375 -20.796875 
L 9.078125 -20.796875 
L 9.078125 54.6875 
L 18.109375 54.6875 
L 18.109375 46.390625 
Q 20.953125 51.265625 25.265625 53.625 
Q 29.59375 56 35.59375 56 
Q 45.5625 56 51.78125 48.09375 
Q 58.015625 40.1875 58.015625 27.296875 
Q 58.015625 14.40625 51.78125 6.484375 
Q 45.5625 -1.421875 35.59375 -1.421875 
Q 29.59375 -1.421875 25.265625 0.953125 
Q 20.953125 3.328125 18.109375 8.203125 
z
M 48.6875 27.296875 
Q 48.6875 37.203125 44.609375 42.84375 
Q 40.53125 48.484375 33.40625 48.484375 
Q 26.265625 48.484375 22.1875 42.84375 
Q 18.109375 37.203125 18.109375 27.296875 
Q 18.109375 17.390625 22.1875 11.75 
Q 26.265625 6.109375 33.40625 6.109375 
Q 40.53125 6.109375 44.609375 11.75 
Q 48.6875 17.390625 48.6875 27.296875 
z
" id="DejaVuSans-112"/>
      <path d="M 9.421875 75.984375 
L 18.40625 75.984375 
L 18.40625 0 
L 9.421875 0 
z
" id="DejaVuSans-108"/>
      <path d="M 10.6875 12.40625 
L 21 12.40625 
L 21 0 
L 10.6875 0 
z
" id="DejaVuSans-46"/>
      <path d="M 9.8125 72.90625 
L 19.671875 72.90625 
L 19.671875 0 
L 9.8125 0 
z
" id="DejaVuSans-73"/>
      <path d="M 11.71875 12.40625 
L 22.015625 12.40625 
L 22.015625 0 
L 11.71875 0 
z
M 11.71875 51.703125 
L 22.015625 51.703125 
L 22.015625 39.3125 
L 11.71875 39.3125 
z
" id="DejaVuSans-58"/>
     </defs>
     <use xlink:href="#DejaVuSans-71"/>
     <use x="77.490234" xlink:href="#DejaVuSans-114"/>
     <use x="118.603516" xlink:href="#DejaVuSans-97"/>
     <use x="179.882812" xlink:href="#DejaVuSans-102"/>
     <use x="215.087891" xlink:href="#DejaVuSans-105"/>
     <use x="242.871094" xlink:href="#DejaVuSans-99"/>
     <use x="297.851562" xlink:href="#DejaVuSans-111"/>
     <use x="359.033203" xlink:href="#DejaVuSans-32"/>
     <use x="390.820312" xlink:href="#DejaVuSans-102"/>
     <use x="426.025391" xlink:href="#DejaVuSans-111"/>
     <use x="487.207031" xlink:href="#DejaVuSans-110"/>
     <use x="550.585938" xlink:href="#DejaVuSans-100"/>
     <use x="614.0625" xlink:href="#DejaVuSans-111"/>
     <use x="675.244141" xlink:href="#DejaVuSans-115"/>
     <use x="727.34375" xlink:href="#DejaVuSans-32"/>
     <use x="759.130859" xlink:href="#DejaVuSans-114"/>
     <use x="797.994141" xlink:href="#DejaVuSans-111"/>
     <use x="859.175781" xlink:href="#DejaVuSans-106"/>
     <use x="886.958984" xlink:href="#DejaVuSans-111"/>
     <use x="948.140625" xlink:href="#DejaVuSans-115"/>
     <use x="1000.240234" xlink:href="#DejaVuSans-32"/>
     <use x="1032.027344" xlink:href="#DejaVuSans-97"/>
     <use x="1093.306641" xlink:href="#DejaVuSans-112"/>
     <use x="1156.783203" xlink:href="#DejaVuSans-117"/>
     <use x="1220.162109" xlink:href="#DejaVuSans-101"/>
     <use x="1281.685547" xlink:href="#DejaVuSans-115"/>
     <use x="1333.785156" xlink:href="#DejaVuSans-116"/>
     <use x="1372.994141" xlink:href="#DejaVuSans-97"/>
     <use x="1434.273438" xlink:href="#DejaVuSans-32"/>
     <use x="1466.060547" xlink:href="#DejaVuSans-115"/>
     <use x="1518.160156" xlink:href="#DejaVuSans-105"/>
     <use x="1545.943359" xlink:href="#DejaVuSans-109"/>
     <use x="1643.355469" xlink:href="#DejaVuSans-112"/>
     <use x="1706.832031" xlink:href="#DejaVuSans-108"/>
     <use x="1734.615234" xlink:href="#DejaVuSans-101"/>
     <use x="1796.138672" xlink:href="#DejaVuSans-32"/>
     <use x="1827.925781" xlink:href="#DejaVuSans-70"/>
     <use x="1869.320312" xlink:href="#DejaVuSans-46"/>
     <use x="1901.107422" xlink:href="#DejaVuSans-73"/>
     <use x="1930.599609" xlink:href="#DejaVuSans-58"/>
     <use x="1964.291016" xlink:href="#DejaVuSans-32"/>
     <use x="1996.078125" xlink:href="#DejaVuSans-36"/>
     <use x="2059.701172" xlink:href="#DejaVuSans-49"/>
     <use x="2123.324219" xlink:href="#DejaVuSans-53"/>
     <use x="2186.947266" xlink:href="#DejaVuSans-48"/>
     <use x="2250.570312" xlink:href="#DejaVuSans-48"/>
     <use x="2314.193359" xlink:href="#DejaVuSans-48"/>
     <use x="2377.816406" xlink:href="#DejaVuSans-48"/>
     <use x="2441.439453" xlink:href="#DejaVuSans-46"/>
     <use x="2473.226562" xlink:href="#DejaVuSans-48"/>
    </g>
   </g>
   <g id="legend_1">
    <g id="patch_7">
     <path d="M 64.6 302.584 
L 148.025 302.584 
Q 150.025 302.584 150.025 300.584 
L 150.025 154.80275 
Q 150.025 152.80275 148.025 152.80275 
L 64.6 152.80275 
Q 62.6 152.80275 62.6 154.80275 
L 62.6 300.584 
Q 62.6 302.584 64.6 302.584 
z
" style="fill:#ffffff;opacity:0.8;stroke:#cccccc;stroke-linejoin:miter;"/>
    </g>
    <g id="line2d_27">
     <path d="M 66.6 160.901187 
L 86.6 160.901187 
" style="fill:none;stroke:#1f77b4;stroke-linecap:square;stroke-width:1.5;"/>
    </g>
    <g id="line2d_28"/>
    <g id="text_20">
     <!-- Fondos 1 -->
     <g transform="translate(94.6 164.401187)scale(0.1 -0.1)">
      <use xlink:href="#DejaVuSans-70"/>
      <use x="53.894531" xlink:href="#DejaVuSans-111"/>
      <use x="115.076172" xlink:href="#DejaVuSans-110"/>
      <use x="178.455078" xlink:href="#DejaVuSans-100"/>
      <use x="241.931641" xlink:href="#DejaVuSans-111"/>
      <use x="303.113281" xlink:href="#DejaVuSans-115"/>
      <use x="355.212891" xlink:href="#DejaVuSans-32"/>
      <use x="387" xlink:href="#DejaVuSans-49"/>
     </g>
    </g>
    <g id="line2d_29">
     <path d="M 66.6 175.579313 
L 86.6 175.579313 
" style="fill:none;stroke:#ff7f0e;stroke-linecap:square;stroke-width:1.5;"/>
    </g>
    <g id="line2d_30"/>
    <g id="text_21">
     <!-- Fondos 2 -->
     <g transform="translate(94.6 179.079313)scale(0.1 -0.1)">
      <use xlink:href="#DejaVuSans-70"/>
      <use x="53.894531" xlink:href="#DejaVuSans-111"/>
      <use x="115.076172" xlink:href="#DejaVuSans-110"/>
      <use x="178.455078" xlink:href="#DejaVuSans-100"/>
      <use x="241.931641" xlink:href="#DejaVuSans-111"/>
      <use x="303.113281" xlink:href="#DejaVuSans-115"/>
      <use x="355.212891" xlink:href="#DejaVuSans-32"/>
      <use x="387" xlink:href="#DejaVuSans-50"/>
     </g>
    </g>
    <g id="line2d_31">
     <path d="M 66.6 190.257438 
L 86.6 190.257438 
" style="fill:none;stroke:#2ca02c;stroke-linecap:square;stroke-width:1.5;"/>
    </g>
    <g id="line2d_32"/>
    <g id="text_22">
     <!-- Fondos 3 -->
     <g transform="translate(94.6 193.757438)scale(0.1 -0.1)">
      <defs>
       <path d="M 40.578125 39.3125 
Q 47.65625 37.796875 51.625 33 
Q 55.609375 28.21875 55.609375 21.1875 
Q 55.609375 10.40625 48.1875 4.484375 
Q 40.765625 -1.421875 27.09375 -1.421875 
Q 22.515625 -1.421875 17.65625 -0.515625 
Q 12.796875 0.390625 7.625 2.203125 
L 7.625 11.71875 
Q 11.71875 9.328125 16.59375 8.109375 
Q 21.484375 6.890625 26.8125 6.890625 
Q 36.078125 6.890625 40.9375 10.546875 
Q 45.796875 14.203125 45.796875 21.1875 
Q 45.796875 27.640625 41.28125 31.265625 
Q 36.765625 34.90625 28.71875 34.90625 
L 20.21875 34.90625 
L 20.21875 43.015625 
L 29.109375 43.015625 
Q 36.375 43.015625 40.234375 45.921875 
Q 44.09375 48.828125 44.09375 54.296875 
Q 44.09375 59.90625 40.109375 62.90625 
Q 36.140625 65.921875 28.71875 65.921875 
Q 24.65625 65.921875 20.015625 65.03125 
Q 15.375 64.15625 9.8125 62.3125 
L 9.8125 71.09375 
Q 15.4375 72.65625 20.34375 73.4375 
Q 25.25 74.21875 29.59375 74.21875 
Q 40.828125 74.21875 47.359375 69.109375 
Q 53.90625 64.015625 53.90625 55.328125 
Q 53.90625 49.265625 50.4375 45.09375 
Q 46.96875 40.921875 40.578125 39.3125 
z
" id="DejaVuSans-51"/>
      </defs>
      <use xlink:href="#DejaVuSans-70"/>
      <use x="53.894531" xlink:href="#DejaVuSans-111"/>
      <use x="115.076172" xlink:href="#DejaVuSans-110"/>
      <use x="178.455078" xlink:href="#DejaVuSans-100"/>
      <use x="241.931641" xlink:href="#DejaVuSans-111"/>
      <use x="303.113281" xlink:href="#DejaVuSans-115"/>
      <use x="355.212891" xlink:href="#DejaVuSans-32"/>
      <use x="387" xlink:href="#DejaVuSans-51"/>
     </g>
    </g>
    <g id="line2d_33">
     <path d="M 66.6 204.935563 
L 86.6 204.935563 
" style="fill:none;stroke:#d62728;stroke-linecap:square;stroke-width:1.5;"/>
    </g>
    <g id="line2d_34"/>
    <g id="text_23">
     <!-- Fondos 4 -->
     <g transform="translate(94.6 208.435563)scale(0.1 -0.1)">
      <use xlink:href="#DejaVuSans-70"/>
      <use x="53.894531" xlink:href="#DejaVuSans-111"/>
      <use x="115.076172" xlink:href="#DejaVuSans-110"/>
      <use x="178.455078" xlink:href="#DejaVuSans-100"/>
      <use x="241.931641" xlink:href="#DejaVuSans-111"/>
      <use x="303.113281" xlink:href="#DejaVuSans-115"/>
      <use x="355.212891" xlink:href="#DejaVuSans-32"/>
      <use x="387" xlink:href="#DejaVuSans-52"/>
     </g>
    </g>
    <g id="line2d_35">
     <path d="M 66.6 219.613688 
L 86.6 219.613688 
" style="fill:none;stroke:#9467bd;stroke-linecap:square;stroke-width:1.5;"/>
    </g>
    <g id="line2d_36"/>
    <g id="text_24">
     <!-- Fondos 5 -->
     <g transform="translate(94.6 223.113688)scale(0.1 -0.1)">
      <use xlink:href="#DejaVuSans-70"/>
      <use x="53.894531" xlink:href="#DejaVuSans-111"/>
      <use x="115.076172" xlink:href="#DejaVuSans-110"/>
      <use x="178.455078" xlink:href="#DejaVuSans-100"/>
      <use x="241.931641" xlink:href="#DejaVuSans-111"/>
      <use x="303.113281" xlink:href="#DejaVuSans-115"/>
      <use x="355.212891" xlink:href="#DejaVuSans-32"/>
      <use x="387" xlink:href="#DejaVuSans-53"/>
     </g>
    </g>
    <g id="line2d_37">
     <path d="M 66.6 234.291812 
L 86.6 234.291812 
" style="fill:none;stroke:#8c564b;stroke-linecap:square;stroke-width:1.5;"/>
    </g>
    <g id="line2d_38"/>
    <g id="text_25">
     <!-- Fondos 6 -->
     <g transform="translate(94.6 237.791812)scale(0.1 -0.1)">
      <use xlink:href="#DejaVuSans-70"/>
      <use x="53.894531" xlink:href="#DejaVuSans-111"/>
      <use x="115.076172" xlink:href="#DejaVuSans-110"/>
      <use x="178.455078" xlink:href="#DejaVuSans-100"/>
      <use x="241.931641" xlink:href="#DejaVuSans-111"/>
      <use x="303.113281" xlink:href="#DejaVuSans-115"/>
      <use x="355.212891" xlink:href="#DejaVuSans-32"/>
      <use x="387" xlink:href="#DejaVuSans-54"/>
     </g>
    </g>
    <g id="line2d_39">
     <path d="M 66.6 248.969938 
L 86.6 248.969938 
" style="fill:none;stroke:#e377c2;stroke-linecap:square;stroke-width:1.5;"/>
    </g>
    <g id="line2d_40"/>
    <g id="text_26">
     <!-- Fondos 7 -->
     <g transform="translate(94.6 252.469938)scale(0.1 -0.1)">
      <use xlink:href="#DejaVuSans-70"/>
      <use x="53.894531" xlink:href="#DejaVuSans-111"/>
      <use x="115.076172" xlink:href="#DejaVuSans-110"/>
      <use x="178.455078" xlink:href="#DejaVuSans-100"/>
      <use x="241.931641" xlink:href="#DejaVuSans-111"/>
      <use x="303.113281" xlink:href="#DejaVuSans-115"/>
      <use x="355.212891" xlink:href="#DejaVuSans-32"/>
      <use x="387" xlink:href="#DejaVuSans-55"/>
     </g>
    </g>
    <g id="line2d_41">
     <path d="M 66.6 263.648062 
L 86.6 263.648062 
" style="fill:none;stroke:#7f7f7f;stroke-linecap:square;stroke-width:1.5;"/>
    </g>
    <g id="line2d_42"/>
    <g id="text_27">
     <!-- Fondos 8 -->
     <g transform="translate(94.6 267.148062)scale(0.1 -0.1)">
      <use xlink:href="#DejaVuSans-70"/>
      <use x="53.894531" xlink:href="#DejaVuSans-111"/>
      <use x="115.076172" xlink:href="#DejaVuSans-110"/>
      <use x="178.455078" xlink:href="#DejaVuSans-100"/>
      <use x="241.931641" xlink:href="#DejaVuSans-111"/>
      <use x="303.113281" xlink:href="#DejaVuSans-115"/>
      <use x="355.212891" xlink:href="#DejaVuSans-32"/>
      <use x="387" xlink:href="#DejaVuSans-56"/>
     </g>
    </g>
    <g id="line2d_43">
     <path d="M 66.6 278.326188 
L 86.6 278.326188 
" style="fill:none;stroke:#bcbd22;stroke-linecap:square;stroke-width:1.5;"/>
    </g>
    <g id="line2d_44"/>
    <g id="text_28">
     <!-- Fondos 9 -->
     <g transform="translate(94.6 281.826188)scale(0.1 -0.1)">
      <use xlink:href="#DejaVuSans-70"/>
      <use x="53.894531" xlink:href="#DejaVuSans-111"/>
      <use x="115.076172" xlink:href="#DejaVuSans-110"/>
      <use x="178.455078" xlink:href="#DejaVuSans-100"/>
      <use x="241.931641" xlink:href="#DejaVuSans-111"/>
      <use x="303.113281" xlink:href="#DejaVuSans-115"/>
      <use x="355.212891" xlink:href="#DejaVuSans-32"/>
      <use x="387" xlink:href="#DejaVuSans-57"/>
     </g>
    </g>
    <g id="line2d_45">
     <path d="M 66.6 293.004312 
L 86.6 293.004312 
" style="fill:none;stroke:#17becf;stroke-linecap:square;stroke-width:1.5;"/>
    </g>
    <g id="line2d_46"/>
    <g id="text_29">
     <!-- Fondos 10 -->
     <g transform="translate(94.6 296.504312)scale(0.1 -0.1)">
      <use xlink:href="#DejaVuSans-70"/>
      <use x="53.894531" xlink:href="#DejaVuSans-111"/>
      <use x="115.076172" xlink:href="#DejaVuSans-110"/>
      <use x="178.455078" xlink:href="#DejaVuSans-100"/>
      <use x="241.931641" xlink:href="#DejaVuSans-111"/>
      <use x="303.113281" xlink:href="#DejaVuSans-115"/>
      <use x="355.212891" xlink:href="#DejaVuSans-32"/>
      <use x="387" xlink:href="#DejaVuSans-49"/>
      <use x="450.623047" xlink:href="#DejaVuSans-48"/>
     </g>
    </g>
   </g>
  </g>
 </g>
 <defs>
  <clipPath id="p487abb856b">
   <rect height="266.112" width="357.12" x="57.6" y="41.472"/>
  </clipPath>
 </defs>
</svg>
