<?xml version="1.0" encoding="utf-8" standalone="no"?>
<!DOCTYPE svg PUBLIC "-//W3C//DTD SVG 1.1//EN"
  "http://www.w3.org/Graphics/SVG/1.1/DTD/svg11.dtd">
<!-- Created with matplotlib (https://matplotlib.org/) -->
<svg height="345.6pt" version="1.1" viewBox="0 0 460.8 345.6" width="460.8pt" xmlns="http://www.w3.org/2000/svg" xmlns:xlink="http://www.w3.org/1999/xlink">
 <metadata>
  <rdf:RDF xmlns:cc="http://creativecommons.org/ns#" xmlns:dc="http://purl.org/dc/elements/1.1/" xmlns:rdf="http://www.w3.org/1999/02/22-rdf-syntax-ns#">
   <cc:Work>
    <dc:type rdf:resource="http://purl.org/dc/dcmitype/StillImage"/>
    <dc:date>2021-04-07T20:02:39.105042</dc:date>
    <dc:format>image/svg+xml</dc:format>
    <dc:creator>
     <cc:Agent>
      <dc:title>Matplotlib v3.3.4, https://matplotlib.org/</dc:title>
     </cc:Agent>
    </dc:creator>
   </cc:Work>
  </rdf:RDF>
 </metadata>
 <defs>
  <style type="text/css">*{stroke-linecap:butt;stroke-linejoin:round;}</style>
 </defs>
 <g id="figure_1">
  <g id="patch_1">
   <path d="M 0 345.6 
L 460.8 345.6 
L 460.8 0 
L 0 0 
z
" style="fill:#ffffff;"/>
  </g>
  <g id="axes_1">
   <g id="patch_2">
    <path d="M 57.6 307.584 
L 414.72 307.584 
L 414.72 41.472 
L 57.6 41.472 
z
" style="fill:#ffffff;"/>
   </g>
   <g id="matplotlib.axis_1">
    <g id="xtick_1">
     <g id="line2d_1">
      <defs>
       <path d="M 0 0 
L 0 3.5 
" id="m7e09e222ca" style="stroke:#000000;stroke-width:0.8;"/>
      </defs>
      <g>
       <use style="stroke:#000000;stroke-width:0.8;" x="70.553388" xlink:href="#m7e09e222ca" y="307.584"/>
      </g>
     </g>
     <g id="text_1">
      <!-- 0 -->
      <g transform="translate(67.372138 322.182437)scale(0.1 -0.1)">
       <defs>
        <path d="M 31.78125 66.40625 
Q 24.171875 66.40625 20.328125 58.90625 
Q 16.5 51.421875 16.5 36.375 
Q 16.5 21.390625 20.328125 13.890625 
Q 24.171875 6.390625 31.78125 6.390625 
Q 39.453125 6.390625 43.28125 13.890625 
Q 47.125 21.390625 47.125 36.375 
Q 47.125 51.421875 43.28125 58.90625 
Q 39.453125 66.40625 31.78125 66.40625 
z
M 31.78125 74.21875 
Q 44.046875 74.21875 50.515625 64.515625 
Q 56.984375 54.828125 56.984375 36.375 
Q 56.984375 17.96875 50.515625 8.265625 
Q 44.046875 -1.421875 31.78125 -1.421875 
Q 19.53125 -1.421875 13.0625 8.265625 
Q 6.59375 17.96875 6.59375 36.375 
Q 6.59375 54.828125 13.0625 64.515625 
Q 19.53125 74.21875 31.78125 74.21875 
z
" id="DejaVuSans-48"/>
       </defs>
       <use xlink:href="#DejaVuSans-48"/>
      </g>
     </g>
    </g>
    <g id="xtick_2">
     <g id="line2d_2">
      <g>
       <use style="stroke:#000000;stroke-width:0.8;" x="136.140165" xlink:href="#m7e09e222ca" y="307.584"/>
      </g>
     </g>
     <g id="text_2">
      <!-- 20 -->
      <g transform="translate(129.777665 322.182437)scale(0.1 -0.1)">
       <defs>
        <path d="M 19.1875 8.296875 
L 53.609375 8.296875 
L 53.609375 0 
L 7.328125 0 
L 7.328125 8.296875 
Q 12.9375 14.109375 22.625 23.890625 
Q 32.328125 33.6875 34.8125 36.53125 
Q 39.546875 41.84375 41.421875 45.53125 
Q 43.3125 49.21875 43.3125 52.78125 
Q 43.3125 58.59375 39.234375 62.25 
Q 35.15625 65.921875 28.609375 65.921875 
Q 23.96875 65.921875 18.8125 64.3125 
Q 13.671875 62.703125 7.8125 59.421875 
L 7.8125 69.390625 
Q 13.765625 71.78125 18.9375 73 
Q 24.125 74.21875 28.421875 74.21875 
Q 39.75 74.21875 46.484375 68.546875 
Q 53.21875 62.890625 53.21875 53.421875 
Q 53.21875 48.921875 51.53125 44.890625 
Q 49.859375 40.875 45.40625 35.40625 
Q 44.1875 33.984375 37.640625 27.21875 
Q 31.109375 20.453125 19.1875 8.296875 
z
" id="DejaVuSans-50"/>
       </defs>
       <use xlink:href="#DejaVuSans-50"/>
       <use x="63.623047" xlink:href="#DejaVuSans-48"/>
      </g>
     </g>
    </g>
    <g id="xtick_3">
     <g id="line2d_3">
      <g>
       <use style="stroke:#000000;stroke-width:0.8;" x="201.726942" xlink:href="#m7e09e222ca" y="307.584"/>
      </g>
     </g>
     <g id="text_3">
      <!-- 40 -->
      <g transform="translate(195.364442 322.182437)scale(0.1 -0.1)">
       <defs>
        <path d="M 37.796875 64.3125 
L 12.890625 25.390625 
L 37.796875 25.390625 
z
M 35.203125 72.90625 
L 47.609375 72.90625 
L 47.609375 25.390625 
L 58.015625 25.390625 
L 58.015625 17.1875 
L 47.609375 17.1875 
L 47.609375 0 
L 37.796875 0 
L 37.796875 17.1875 
L 4.890625 17.1875 
L 4.890625 26.703125 
z
" id="DejaVuSans-52"/>
       </defs>
       <use xlink:href="#DejaVuSans-52"/>
       <use x="63.623047" xlink:href="#DejaVuSans-48"/>
      </g>
     </g>
    </g>
    <g id="xtick_4">
     <g id="line2d_4">
      <g>
       <use style="stroke:#000000;stroke-width:0.8;" x="267.313719" xlink:href="#m7e09e222ca" y="307.584"/>
      </g>
     </g>
     <g id="text_4">
      <!-- 60 -->
      <g transform="translate(260.951219 322.182437)scale(0.1 -0.1)">
       <defs>
        <path d="M 33.015625 40.375 
Q 26.375 40.375 22.484375 35.828125 
Q 18.609375 31.296875 18.609375 23.390625 
Q 18.609375 15.53125 22.484375 10.953125 
Q 26.375 6.390625 33.015625 6.390625 
Q 39.65625 6.390625 43.53125 10.953125 
Q 47.40625 15.53125 47.40625 23.390625 
Q 47.40625 31.296875 43.53125 35.828125 
Q 39.65625 40.375 33.015625 40.375 
z
M 52.59375 71.296875 
L 52.59375 62.3125 
Q 48.875 64.0625 45.09375 64.984375 
Q 41.3125 65.921875 37.59375 65.921875 
Q 27.828125 65.921875 22.671875 59.328125 
Q 17.53125 52.734375 16.796875 39.40625 
Q 19.671875 43.65625 24.015625 45.921875 
Q 28.375 48.1875 33.59375 48.1875 
Q 44.578125 48.1875 50.953125 41.515625 
Q 57.328125 34.859375 57.328125 23.390625 
Q 57.328125 12.15625 50.6875 5.359375 
Q 44.046875 -1.421875 33.015625 -1.421875 
Q 20.359375 -1.421875 13.671875 8.265625 
Q 6.984375 17.96875 6.984375 36.375 
Q 6.984375 53.65625 15.1875 63.9375 
Q 23.390625 74.21875 37.203125 74.21875 
Q 40.921875 74.21875 44.703125 73.484375 
Q 48.484375 72.75 52.59375 71.296875 
z
" id="DejaVuSans-54"/>
       </defs>
       <use xlink:href="#DejaVuSans-54"/>
       <use x="63.623047" xlink:href="#DejaVuSans-48"/>
      </g>
     </g>
    </g>
    <g id="xtick_5">
     <g id="line2d_5">
      <g>
       <use style="stroke:#000000;stroke-width:0.8;" x="332.900496" xlink:href="#m7e09e222ca" y="307.584"/>
      </g>
     </g>
     <g id="text_5">
      <!-- 80 -->
      <g transform="translate(326.537996 322.182437)scale(0.1 -0.1)">
       <defs>
        <path d="M 31.78125 34.625 
Q 24.75 34.625 20.71875 30.859375 
Q 16.703125 27.09375 16.703125 20.515625 
Q 16.703125 13.921875 20.71875 10.15625 
Q 24.75 6.390625 31.78125 6.390625 
Q 38.8125 6.390625 42.859375 10.171875 
Q 46.921875 13.96875 46.921875 20.515625 
Q 46.921875 27.09375 42.890625 30.859375 
Q 38.875 34.625 31.78125 34.625 
z
M 21.921875 38.8125 
Q 15.578125 40.375 12.03125 44.71875 
Q 8.5 49.078125 8.5 55.328125 
Q 8.5 64.0625 14.71875 69.140625 
Q 20.953125 74.21875 31.78125 74.21875 
Q 42.671875 74.21875 48.875 69.140625 
Q 55.078125 64.0625 55.078125 55.328125 
Q 55.078125 49.078125 51.53125 44.71875 
Q 48 40.375 41.703125 38.8125 
Q 48.828125 37.15625 52.796875 32.3125 
Q 56.78125 27.484375 56.78125 20.515625 
Q 56.78125 9.90625 50.3125 4.234375 
Q 43.84375 -1.421875 31.78125 -1.421875 
Q 19.734375 -1.421875 13.25 4.234375 
Q 6.78125 9.90625 6.78125 20.515625 
Q 6.78125 27.484375 10.78125 32.3125 
Q 14.796875 37.15625 21.921875 38.8125 
z
M 18.3125 54.390625 
Q 18.3125 48.734375 21.84375 45.5625 
Q 25.390625 42.390625 31.78125 42.390625 
Q 38.140625 42.390625 41.71875 45.5625 
Q 45.3125 48.734375 45.3125 54.390625 
Q 45.3125 60.0625 41.71875 63.234375 
Q 38.140625 66.40625 31.78125 66.40625 
Q 25.390625 66.40625 21.84375 63.234375 
Q 18.3125 60.0625 18.3125 54.390625 
z
" id="DejaVuSans-56"/>
       </defs>
       <use xlink:href="#DejaVuSans-56"/>
       <use x="63.623047" xlink:href="#DejaVuSans-48"/>
      </g>
     </g>
    </g>
    <g id="xtick_6">
     <g id="line2d_6">
      <g>
       <use style="stroke:#000000;stroke-width:0.8;" x="398.487273" xlink:href="#m7e09e222ca" y="307.584"/>
      </g>
     </g>
     <g id="text_6">
      <!-- 100 -->
      <g transform="translate(388.943523 322.182437)scale(0.1 -0.1)">
       <defs>
        <path d="M 12.40625 8.296875 
L 28.515625 8.296875 
L 28.515625 63.921875 
L 10.984375 60.40625 
L 10.984375 69.390625 
L 28.421875 72.90625 
L 38.28125 72.90625 
L 38.28125 8.296875 
L 54.390625 8.296875 
L 54.390625 0 
L 12.40625 0 
z
" id="DejaVuSans-49"/>
       </defs>
       <use xlink:href="#DejaVuSans-49"/>
       <use x="63.623047" xlink:href="#DejaVuSans-48"/>
       <use x="127.246094" xlink:href="#DejaVuSans-48"/>
      </g>
     </g>
    </g>
    <g id="text_7">
     <!-- Tiradas -->
     <g transform="translate(217.910781 335.860562)scale(0.1 -0.1)">
      <defs>
       <path d="M -0.296875 72.90625 
L 61.375 72.90625 
L 61.375 64.59375 
L 35.5 64.59375 
L 35.5 0 
L 25.59375 0 
L 25.59375 64.59375 
L -0.296875 64.59375 
z
" id="DejaVuSans-84"/>
       <path d="M 9.421875 54.6875 
L 18.40625 54.6875 
L 18.40625 0 
L 9.421875 0 
z
M 9.421875 75.984375 
L 18.40625 75.984375 
L 18.40625 64.59375 
L 9.421875 64.59375 
z
" id="DejaVuSans-105"/>
       <path d="M 41.109375 46.296875 
Q 39.59375 47.171875 37.8125 47.578125 
Q 36.03125 48 33.890625 48 
Q 26.265625 48 22.1875 43.046875 
Q 18.109375 38.09375 18.109375 28.8125 
L 18.109375 0 
L 9.078125 0 
L 9.078125 54.6875 
L 18.109375 54.6875 
L 18.109375 46.1875 
Q 20.953125 51.171875 25.484375 53.578125 
Q 30.03125 56 36.53125 56 
Q 37.453125 56 38.578125 55.875 
Q 39.703125 55.765625 41.0625 55.515625 
z
" id="DejaVuSans-114"/>
       <path d="M 34.28125 27.484375 
Q 23.390625 27.484375 19.1875 25 
Q 14.984375 22.515625 14.984375 16.5 
Q 14.984375 11.71875 18.140625 8.90625 
Q 21.296875 6.109375 26.703125 6.109375 
Q 34.1875 6.109375 38.703125 11.40625 
Q 43.21875 16.703125 43.21875 25.484375 
L 43.21875 27.484375 
z
M 52.203125 31.203125 
L 52.203125 0 
L 43.21875 0 
L 43.21875 8.296875 
Q 40.140625 3.328125 35.546875 0.953125 
Q 30.953125 -1.421875 24.3125 -1.421875 
Q 15.921875 -1.421875 10.953125 3.296875 
Q 6 8.015625 6 15.921875 
Q 6 25.140625 12.171875 29.828125 
Q 18.359375 34.515625 30.609375 34.515625 
L 43.21875 34.515625 
L 43.21875 35.40625 
Q 43.21875 41.609375 39.140625 45 
Q 35.0625 48.390625 27.6875 48.390625 
Q 23 48.390625 18.546875 47.265625 
Q 14.109375 46.140625 10.015625 43.890625 
L 10.015625 52.203125 
Q 14.9375 54.109375 19.578125 55.046875 
Q 24.21875 56 28.609375 56 
Q 40.484375 56 46.34375 49.84375 
Q 52.203125 43.703125 52.203125 31.203125 
z
" id="DejaVuSans-97"/>
       <path d="M 45.40625 46.390625 
L 45.40625 75.984375 
L 54.390625 75.984375 
L 54.390625 0 
L 45.40625 0 
L 45.40625 8.203125 
Q 42.578125 3.328125 38.25 0.953125 
Q 33.9375 -1.421875 27.875 -1.421875 
Q 17.96875 -1.421875 11.734375 6.484375 
Q 5.515625 14.40625 5.515625 27.296875 
Q 5.515625 40.1875 11.734375 48.09375 
Q 17.96875 56 27.875 56 
Q 33.9375 56 38.25 53.625 
Q 42.578125 51.265625 45.40625 46.390625 
z
M 14.796875 27.296875 
Q 14.796875 17.390625 18.875 11.75 
Q 22.953125 6.109375 30.078125 6.109375 
Q 37.203125 6.109375 41.296875 11.75 
Q 45.40625 17.390625 45.40625 27.296875 
Q 45.40625 37.203125 41.296875 42.84375 
Q 37.203125 48.484375 30.078125 48.484375 
Q 22.953125 48.484375 18.875 42.84375 
Q 14.796875 37.203125 14.796875 27.296875 
z
" id="DejaVuSans-100"/>
       <path d="M 44.28125 53.078125 
L 44.28125 44.578125 
Q 40.484375 46.53125 36.375 47.5 
Q 32.28125 48.484375 27.875 48.484375 
Q 21.1875 48.484375 17.84375 46.4375 
Q 14.5 44.390625 14.5 40.28125 
Q 14.5 37.15625 16.890625 35.375 
Q 19.28125 33.59375 26.515625 31.984375 
L 29.59375 31.296875 
Q 39.15625 29.25 43.1875 25.515625 
Q 47.21875 21.78125 47.21875 15.09375 
Q 47.21875 7.46875 41.1875 3.015625 
Q 35.15625 -1.421875 24.609375 -1.421875 
Q 20.21875 -1.421875 15.453125 -0.5625 
Q 10.6875 0.296875 5.421875 2 
L 5.421875 11.28125 
Q 10.40625 8.6875 15.234375 7.390625 
Q 20.0625 6.109375 24.8125 6.109375 
Q 31.15625 6.109375 34.5625 8.28125 
Q 37.984375 10.453125 37.984375 14.40625 
Q 37.984375 18.0625 35.515625 20.015625 
Q 33.0625 21.96875 24.703125 23.78125 
L 21.578125 24.515625 
Q 13.234375 26.265625 9.515625 29.90625 
Q 5.8125 33.546875 5.8125 39.890625 
Q 5.8125 47.609375 11.28125 51.796875 
Q 16.75 56 26.8125 56 
Q 31.78125 56 36.171875 55.265625 
Q 40.578125 54.546875 44.28125 53.078125 
z
" id="DejaVuSans-115"/>
      </defs>
      <use xlink:href="#DejaVuSans-84"/>
      <use x="57.958984" xlink:href="#DejaVuSans-105"/>
      <use x="85.742188" xlink:href="#DejaVuSans-114"/>
      <use x="126.855469" xlink:href="#DejaVuSans-97"/>
      <use x="188.134766" xlink:href="#DejaVuSans-100"/>
      <use x="251.611328" xlink:href="#DejaVuSans-97"/>
      <use x="312.890625" xlink:href="#DejaVuSans-115"/>
     </g>
    </g>
   </g>
   <g id="matplotlib.axis_2">
    <g id="ytick_1">
     <g id="line2d_7">
      <defs>
       <path d="M 0 0 
L -3.5 0 
" id="m5d16a62f0d" style="stroke:#000000;stroke-width:0.8;"/>
      </defs>
      <g>
       <use style="stroke:#000000;stroke-width:0.8;" x="57.6" xlink:href="#m5d16a62f0d" y="295.488"/>
      </g>
     </g>
     <g id="text_8">
      <!-- 0.0 -->
      <g transform="translate(34.696875 299.287219)scale(0.1 -0.1)">
       <defs>
        <path d="M 10.6875 12.40625 
L 21 12.40625 
L 21 0 
L 10.6875 0 
z
" id="DejaVuSans-46"/>
       </defs>
       <use xlink:href="#DejaVuSans-48"/>
       <use x="63.623047" xlink:href="#DejaVuSans-46"/>
       <use x="95.410156" xlink:href="#DejaVuSans-48"/>
      </g>
     </g>
    </g>
    <g id="ytick_2">
     <g id="line2d_8">
      <g>
       <use style="stroke:#000000;stroke-width:0.8;" x="57.6" xlink:href="#m5d16a62f0d" y="247.104"/>
      </g>
     </g>
     <g id="text_9">
      <!-- 0.2 -->
      <g transform="translate(34.696875 250.903219)scale(0.1 -0.1)">
       <use xlink:href="#DejaVuSans-48"/>
       <use x="63.623047" xlink:href="#DejaVuSans-46"/>
       <use x="95.410156" xlink:href="#DejaVuSans-50"/>
      </g>
     </g>
    </g>
    <g id="ytick_3">
     <g id="line2d_9">
      <g>
       <use style="stroke:#000000;stroke-width:0.8;" x="57.6" xlink:href="#m5d16a62f0d" y="198.72"/>
      </g>
     </g>
     <g id="text_10">
      <!-- 0.4 -->
      <g transform="translate(34.696875 202.519219)scale(0.1 -0.1)">
       <use xlink:href="#DejaVuSans-48"/>
       <use x="63.623047" xlink:href="#DejaVuSans-46"/>
       <use x="95.410156" xlink:href="#DejaVuSans-52"/>
      </g>
     </g>
    </g>
    <g id="ytick_4">
     <g id="line2d_10">
      <g>
       <use style="stroke:#000000;stroke-width:0.8;" x="57.6" xlink:href="#m5d16a62f0d" y="150.336"/>
      </g>
     </g>
     <g id="text_11">
      <!-- 0.6 -->
      <g transform="translate(34.696875 154.135219)scale(0.1 -0.1)">
       <use xlink:href="#DejaVuSans-48"/>
       <use x="63.623047" xlink:href="#DejaVuSans-46"/>
       <use x="95.410156" xlink:href="#DejaVuSans-54"/>
      </g>
     </g>
    </g>
    <g id="ytick_5">
     <g id="line2d_11">
      <g>
       <use style="stroke:#000000;stroke-width:0.8;" x="57.6" xlink:href="#m5d16a62f0d" y="101.952"/>
      </g>
     </g>
     <g id="text_12">
      <!-- 0.8 -->
      <g transform="translate(34.696875 105.751219)scale(0.1 -0.1)">
       <use xlink:href="#DejaVuSans-48"/>
       <use x="63.623047" xlink:href="#DejaVuSans-46"/>
       <use x="95.410156" xlink:href="#DejaVuSans-56"/>
      </g>
     </g>
    </g>
    <g id="ytick_6">
     <g id="line2d_12">
      <g>
       <use style="stroke:#000000;stroke-width:0.8;" x="57.6" xlink:href="#m5d16a62f0d" y="53.568"/>
      </g>
     </g>
     <g id="text_13">
      <!-- 1.0 -->
      <g transform="translate(34.696875 57.367219)scale(0.1 -0.1)">
       <use xlink:href="#DejaVuSans-49"/>
       <use x="63.623047" xlink:href="#DejaVuSans-46"/>
       <use x="95.410156" xlink:href="#DejaVuSans-48"/>
      </g>
     </g>
    </g>
    <g id="text_14">
     <!-- Frecuencias relativas -->
     <g transform="translate(28.617187 227.070188)rotate(-90)scale(0.1 -0.1)">
      <defs>
       <path d="M 9.8125 72.90625 
L 51.703125 72.90625 
L 51.703125 64.59375 
L 19.671875 64.59375 
L 19.671875 43.109375 
L 48.578125 43.109375 
L 48.578125 34.8125 
L 19.671875 34.8125 
L 19.671875 0 
L 9.8125 0 
z
" id="DejaVuSans-70"/>
       <path d="M 56.203125 29.59375 
L 56.203125 25.203125 
L 14.890625 25.203125 
Q 15.484375 15.921875 20.484375 11.0625 
Q 25.484375 6.203125 34.421875 6.203125 
Q 39.59375 6.203125 44.453125 7.46875 
Q 49.3125 8.734375 54.109375 11.28125 
L 54.109375 2.78125 
Q 49.265625 0.734375 44.1875 -0.34375 
Q 39.109375 -1.421875 33.890625 -1.421875 
Q 20.796875 -1.421875 13.15625 6.1875 
Q 5.515625 13.8125 5.515625 26.8125 
Q 5.515625 40.234375 12.765625 48.109375 
Q 20.015625 56 32.328125 56 
Q 43.359375 56 49.78125 48.890625 
Q 56.203125 41.796875 56.203125 29.59375 
z
M 47.21875 32.234375 
Q 47.125 39.59375 43.09375 43.984375 
Q 39.0625 48.390625 32.421875 48.390625 
Q 24.90625 48.390625 20.390625 44.140625 
Q 15.875 39.890625 15.1875 32.171875 
z
" id="DejaVuSans-101"/>
       <path d="M 48.78125 52.59375 
L 48.78125 44.1875 
Q 44.96875 46.296875 41.140625 47.34375 
Q 37.3125 48.390625 33.40625 48.390625 
Q 24.65625 48.390625 19.8125 42.84375 
Q 14.984375 37.3125 14.984375 27.296875 
Q 14.984375 17.28125 19.8125 11.734375 
Q 24.65625 6.203125 33.40625 6.203125 
Q 37.3125 6.203125 41.140625 7.25 
Q 44.96875 8.296875 48.78125 10.40625 
L 48.78125 2.09375 
Q 45.015625 0.34375 40.984375 -0.53125 
Q 36.96875 -1.421875 32.421875 -1.421875 
Q 20.0625 -1.421875 12.78125 6.34375 
Q 5.515625 14.109375 5.515625 27.296875 
Q 5.515625 40.671875 12.859375 48.328125 
Q 20.21875 56 33.015625 56 
Q 37.15625 56 41.109375 55.140625 
Q 45.0625 54.296875 48.78125 52.59375 
z
" id="DejaVuSans-99"/>
       <path d="M 8.5 21.578125 
L 8.5 54.6875 
L 17.484375 54.6875 
L 17.484375 21.921875 
Q 17.484375 14.15625 20.5 10.265625 
Q 23.53125 6.390625 29.59375 6.390625 
Q 36.859375 6.390625 41.078125 11.03125 
Q 45.3125 15.671875 45.3125 23.6875 
L 45.3125 54.6875 
L 54.296875 54.6875 
L 54.296875 0 
L 45.3125 0 
L 45.3125 8.40625 
Q 42.046875 3.421875 37.71875 1 
Q 33.40625 -1.421875 27.6875 -1.421875 
Q 18.265625 -1.421875 13.375 4.4375 
Q 8.5 10.296875 8.5 21.578125 
z
M 31.109375 56 
z
" id="DejaVuSans-117"/>
       <path d="M 54.890625 33.015625 
L 54.890625 0 
L 45.90625 0 
L 45.90625 32.71875 
Q 45.90625 40.484375 42.875 44.328125 
Q 39.84375 48.1875 33.796875 48.1875 
Q 26.515625 48.1875 22.3125 43.546875 
Q 18.109375 38.921875 18.109375 30.90625 
L 18.109375 0 
L 9.078125 0 
L 9.078125 54.6875 
L 18.109375 54.6875 
L 18.109375 46.1875 
Q 21.34375 51.125 25.703125 53.5625 
Q 30.078125 56 35.796875 56 
Q 45.21875 56 50.046875 50.171875 
Q 54.890625 44.34375 54.890625 33.015625 
z
" id="DejaVuSans-110"/>
       <path id="DejaVuSans-32"/>
       <path d="M 9.421875 75.984375 
L 18.40625 75.984375 
L 18.40625 0 
L 9.421875 0 
z
" id="DejaVuSans-108"/>
       <path d="M 18.3125 70.21875 
L 18.3125 54.6875 
L 36.8125 54.6875 
L 36.8125 47.703125 
L 18.3125 47.703125 
L 18.3125 18.015625 
Q 18.3125 11.328125 20.140625 9.421875 
Q 21.96875 7.515625 27.59375 7.515625 
L 36.8125 7.515625 
L 36.8125 0 
L 27.59375 0 
Q 17.1875 0 13.234375 3.875 
Q 9.28125 7.765625 9.28125 18.015625 
L 9.28125 47.703125 
L 2.6875 47.703125 
L 2.6875 54.6875 
L 9.28125 54.6875 
L 9.28125 70.21875 
z
" id="DejaVuSans-116"/>
       <path d="M 2.984375 54.6875 
L 12.5 54.6875 
L 29.59375 8.796875 
L 46.6875 54.6875 
L 56.203125 54.6875 
L 35.6875 0 
L 23.484375 0 
z
" id="DejaVuSans-118"/>
      </defs>
      <use xlink:href="#DejaVuSans-70"/>
      <use x="50.269531" xlink:href="#DejaVuSans-114"/>
      <use x="89.132812" xlink:href="#DejaVuSans-101"/>
      <use x="150.65625" xlink:href="#DejaVuSans-99"/>
      <use x="205.636719" xlink:href="#DejaVuSans-117"/>
      <use x="269.015625" xlink:href="#DejaVuSans-101"/>
      <use x="330.539062" xlink:href="#DejaVuSans-110"/>
      <use x="393.917969" xlink:href="#DejaVuSans-99"/>
      <use x="448.898438" xlink:href="#DejaVuSans-105"/>
      <use x="476.681641" xlink:href="#DejaVuSans-97"/>
      <use x="537.960938" xlink:href="#DejaVuSans-115"/>
      <use x="590.060547" xlink:href="#DejaVuSans-32"/>
      <use x="621.847656" xlink:href="#DejaVuSans-114"/>
      <use x="660.710938" xlink:href="#DejaVuSans-101"/>
      <use x="722.234375" xlink:href="#DejaVuSans-108"/>
      <use x="750.017578" xlink:href="#DejaVuSans-97"/>
      <use x="811.296875" xlink:href="#DejaVuSans-116"/>
      <use x="850.505859" xlink:href="#DejaVuSans-105"/>
      <use x="878.289062" xlink:href="#DejaVuSans-118"/>
      <use x="937.46875" xlink:href="#DejaVuSans-97"/>
      <use x="998.748047" xlink:href="#DejaVuSans-115"/>
     </g>
    </g>
   </g>
   <g id="line2d_13">
    <path clip-path="url(#pacd25182f1)" d="M 73.832727 295.488 
L 77.112066 174.528 
L 80.391405 214.848 
L 83.670744 235.008 
L 86.950083 247.104 
L 90.229421 255.168 
L 93.50876 260.928 
L 96.788099 265.248 
L 100.067438 268.608 
L 103.346777 271.296 
L 106.626116 273.495273 
L 109.905455 275.328 
L 113.184793 276.878769 
L 116.464132 278.208 
L 119.743471 279.36 
L 123.02281 280.368 
L 126.302149 281.257412 
L 129.581488 282.048 
L 132.860826 282.755368 
L 136.140165 283.392 
L 139.419504 283.968 
L 142.698843 284.491636 
L 145.978182 284.969739 
L 149.257521 285.408 
L 152.53686 285.8112 
L 155.816198 286.183385 
L 159.095537 286.528 
L 162.374876 286.848 
L 165.654215 287.145931 
L 168.933554 287.424 
L 172.212893 287.684129 
L 175.492231 287.928 
L 178.77157 288.157091 
L 182.050909 288.372706 
L 185.330248 288.576 
L 188.609587 288.768 
L 191.888926 288.949622 
L 195.168264 289.121684 
L 198.447603 289.284923 
L 201.726942 289.44 
L 205.006281 289.587512 
L 208.28562 289.728 
L 211.564959 289.861953 
L 214.844298 289.989818 
L 218.123636 290.112 
L 221.402975 290.22887 
L 224.682314 290.340766 
L 227.961653 290.448 
L 231.240992 290.550857 
L 234.520331 290.6496 
L 237.799669 290.744471 
L 241.079008 290.835692 
L 244.358347 290.923472 
L 247.637686 291.008 
L 250.917025 291.089455 
L 254.196364 291.168 
L 257.475702 291.243789 
L 260.755041 291.316966 
L 264.03438 291.387661 
L 267.313719 291.456 
L 270.593058 291.522098 
L 273.872397 291.586065 
L 277.151736 291.648 
L 280.431074 291.708 
L 283.710413 291.766154 
L 286.989752 291.822545 
L 290.269091 291.877254 
L 293.54843 291.930353 
L 296.827769 291.981913 
L 300.107107 292.032 
L 303.386446 292.080676 
L 306.665785 292.128 
L 309.945124 292.174027 
L 313.224463 292.218811 
L 316.503802 292.2624 
L 319.78314 292.304842 
L 323.062479 292.346182 
L 326.341818 292.386462 
L 329.621157 292.425722 
L 332.900496 292.464 
L 336.179835 292.501333 
L 339.459174 292.537756 
L 342.738512 292.573301 
L 346.017851 292.608 
L 349.29719 292.641882 
L 352.576529 292.674977 
L 355.855868 292.70731 
L 359.135207 292.738909 
L 362.414545 292.769798 
L 365.693884 292.8 
L 368.973223 292.829538 
L 372.252562 292.858435 
L 375.531901 292.88671 
L 378.81124 292.914383 
L 382.090579 292.941474 
L 385.369917 292.968 
L 388.649256 292.993979 
L 391.928595 293.019429 
L 395.207934 293.044364 
L 398.487273 293.0688 
" style="fill:none;stroke:#1f77b4;stroke-linecap:square;stroke-width:1.5;"/>
   </g>
   <g id="line2d_14">
    <path clip-path="url(#pacd25182f1)" d="M 73.832727 295.488 
L 77.112066 174.528 
L 80.391405 134.208 
L 83.670744 174.528 
L 86.950083 198.72 
L 90.229421 214.848 
L 93.50876 226.368 
L 96.788099 235.008 
L 100.067438 241.728 
L 103.346777 222.912 
L 106.626116 207.517091 
L 109.905455 214.848 
L 113.184793 221.051077 
L 116.464132 226.368 
L 119.743471 214.848 
L 123.02281 204.768 
L 126.302149 210.104471 
L 129.581488 201.408 
L 132.860826 206.359579 
L 136.140165 210.816 
L 139.419504 214.848 
L 142.698843 218.513455 
L 145.978182 221.860174 
L 149.257521 224.928 
L 152.53686 227.7504 
L 155.816198 230.355692 
L 159.095537 232.768 
L 162.374876 226.368 
L 165.654215 228.751448 
L 168.933554 222.912 
L 172.212893 225.253161 
L 175.492231 227.448 
L 178.77157 229.509818 
L 182.050909 231.450353 
L 185.330248 233.28 
L 188.609587 228.288 
L 191.888926 230.104216 
L 195.168264 231.824842 
L 198.447603 233.457231 
L 201.726942 228.96 
L 205.006281 224.682146 
L 208.28562 220.608 
L 211.564959 222.349395 
L 214.844298 224.011636 
L 218.123636 225.6 
L 221.402975 221.860174 
L 224.682314 223.426723 
L 227.961653 219.888 
L 231.240992 216.493714 
L 234.520331 218.0736 
L 237.799669 219.591529 
L 241.079008 221.051077 
L 244.358347 217.891019 
L 247.637686 219.328 
L 250.917025 220.712727 
L 254.196364 222.048 
L 257.475702 223.336421 
L 260.755041 224.580414 
L 264.03438 221.681898 
L 267.313719 218.88 
L 270.593058 216.169967 
L 273.872397 213.547355 
L 277.151736 214.848 
L 280.431074 212.328 
L 283.710413 213.607385 
L 286.989752 211.182545 
L 290.269091 212.440836 
L 293.54843 210.104471 
L 296.827769 211.341913 
L 300.107107 209.088 
L 303.386446 210.304901 
L 306.665785 211.488 
L 309.945124 212.638685 
L 313.224463 213.75827 
L 316.503802 214.848 
L 319.78314 215.909053 
L 323.062479 216.942545 
L 326.341818 217.949538 
L 329.621157 218.931038 
L 332.900496 219.888 
L 336.179835 220.821333 
L 339.459174 221.731902 
L 342.738512 222.62053 
L 346.017851 223.488 
L 349.29719 224.335059 
L 352.576529 225.162419 
L 355.855868 225.970759 
L 359.135207 226.760727 
L 362.414545 227.532944 
L 365.693884 228.288 
L 368.973223 229.026462 
L 372.252562 229.74887 
L 375.531901 230.455742 
L 378.81124 231.147574 
L 382.090579 231.824842 
L 385.369917 232.488 
L 388.649256 233.137485 
L 391.928595 233.773714 
L 395.207934 234.397091 
L 398.487273 235.008 
" style="fill:none;stroke:#ff7f0e;stroke-linecap:square;stroke-width:1.5;"/>
   </g>
   <g id="line2d_15">
    <path clip-path="url(#pacd25182f1)" d="M 73.832727 295.488 
L 77.112066 295.488 
L 80.391405 214.848 
L 83.670744 174.528 
L 86.950083 198.72 
L 90.229421 214.848 
L 93.50876 226.368 
L 96.788099 204.768 
L 100.067438 214.848 
L 103.346777 222.912 
L 106.626116 229.509818 
L 109.905455 214.848 
L 113.184793 202.441846 
L 116.464132 209.088 
L 119.743471 214.848 
L 123.02281 219.888 
L 126.302149 224.335059 
L 129.581488 214.848 
L 132.860826 219.092211 
L 136.140165 210.816 
L 139.419504 214.848 
L 142.698843 218.513455 
L 145.978182 211.341913 
L 149.257521 204.768 
L 152.53686 198.72 
L 155.816198 193.137231 
L 159.095537 187.968 
L 162.374876 191.808 
L 165.654215 195.383172 
L 168.933554 198.72 
L 172.212893 201.841548 
L 175.492231 204.768 
L 178.77157 200.186182 
L 182.050909 202.989176 
L 185.330248 198.72 
L 188.609587 201.408 
L 191.888926 203.950703 
L 195.168264 206.359579 
L 198.447603 208.644923 
L 201.726942 210.816 
L 205.006281 212.881171 
L 208.28562 214.848 
L 211.564959 216.723349 
L 214.844298 213.015273 
L 218.123636 209.472 
L 221.402975 206.082783 
L 224.682314 207.985021 
L 227.961653 209.808 
L 231.240992 211.556571 
L 234.520331 208.3968 
L 237.799669 210.104471 
L 241.079008 211.746462 
L 244.358347 213.326491 
L 247.637686 214.848 
L 250.917025 211.915636 
L 254.196364 213.408 
L 257.475702 210.603789 
L 260.755041 212.06731 
L 264.03438 213.48122 
L 267.313719 214.848 
L 270.593058 216.169967 
L 273.872397 217.44929 
L 277.151736 214.848 
L 280.431074 212.328 
L 283.710413 213.607385 
L 286.989752 214.848 
L 290.269091 216.051582 
L 293.54843 217.219765 
L 296.827769 218.354087 
L 300.107107 219.456 
L 303.386446 220.526873 
L 306.665785 218.208 
L 309.945124 219.26663 
L 313.224463 220.296649 
L 316.503802 221.2992 
L 319.78314 222.275368 
L 323.062479 220.084364 
L 326.341818 221.051077 
L 329.621157 221.993316 
L 332.900496 222.912 
L 336.179835 223.808 
L 339.459174 224.682146 
L 342.738512 222.62053 
L 346.017851 223.488 
L 349.29719 224.335059 
L 352.576529 222.349395 
L 355.855868 220.409379 
L 359.135207 221.262545 
L 362.414545 222.096539 
L 365.693884 222.912 
L 368.973223 223.709538 
L 372.252562 224.489739 
L 375.531901 225.253161 
L 378.81124 226.00034 
L 382.090579 226.731789 
L 385.369917 227.448 
L 388.649256 228.149443 
L 391.928595 228.836571 
L 395.207934 229.509818 
L 398.487273 230.1696 
" style="fill:none;stroke:#2ca02c;stroke-linecap:square;stroke-width:1.5;"/>
   </g>
   <g id="line2d_16">
    <path clip-path="url(#pacd25182f1)" d="M 73.832727 295.488 
L 77.112066 174.528 
L 80.391405 214.848 
L 83.670744 174.528 
L 86.950083 150.336 
L 90.229421 174.528 
L 93.50876 191.808 
L 96.788099 204.768 
L 100.067438 187.968 
L 103.346777 174.528 
L 106.626116 185.524364 
L 109.905455 194.688 
L 113.184793 183.832615 
L 116.464132 174.528 
L 119.743471 166.464 
L 123.02281 159.408 
L 126.302149 153.182118 
L 129.581488 161.088 
L 132.860826 168.161684 
L 136.140165 174.528 
L 139.419504 180.288 
L 142.698843 174.528 
L 145.978182 179.78713 
L 149.257521 184.608 
L 152.53686 189.0432 
L 155.816198 193.137231 
L 159.095537 196.928 
L 162.374876 200.448 
L 165.654215 203.725241 
L 168.933554 198.72 
L 172.212893 201.841548 
L 175.492231 204.768 
L 178.77157 207.517091 
L 182.050909 202.989176 
L 185.330248 205.632 
L 188.609587 208.128 
L 191.888926 210.489081 
L 195.168264 212.725895 
L 198.447603 214.848 
L 201.726942 216.864 
L 205.006281 218.781659 
L 208.28562 220.608 
L 211.564959 222.349395 
L 214.844298 224.011636 
L 218.123636 225.6 
L 221.402975 227.119304 
L 224.682314 228.573957 
L 227.961653 229.968 
L 231.240992 231.305143 
L 234.520331 232.5888 
L 237.799669 233.822118 
L 241.079008 235.008 
L 244.358347 236.149132 
L 247.637686 237.248 
L 250.917025 238.306909 
L 254.196364 239.328 
L 257.475702 240.313263 
L 260.755041 241.264552 
L 264.03438 242.183593 
L 267.313719 243.072 
L 270.593058 243.931279 
L 273.872397 244.762839 
L 277.151736 245.568 
L 280.431074 246.348 
L 283.710413 247.104 
L 286.989752 247.837091 
L 290.269091 248.548299 
L 293.54843 249.238588 
L 296.827769 249.90887 
L 300.107107 250.56 
L 303.386446 251.192789 
L 306.665785 251.808 
L 309.945124 252.406356 
L 313.224463 252.988541 
L 316.503802 253.5552 
L 319.78314 254.106947 
L 323.062479 254.644364 
L 326.341818 255.168 
L 329.621157 255.67838 
L 332.900496 256.176 
L 336.179835 256.661333 
L 339.459174 257.134829 
L 342.738512 257.596916 
L 346.017851 258.048 
L 349.29719 258.488471 
L 352.576529 258.918698 
L 355.855868 259.339034 
L 359.135207 259.749818 
L 362.414545 260.151371 
L 365.693884 260.544 
L 368.973223 260.928 
L 372.252562 261.303652 
L 375.531901 261.671226 
L 378.81124 262.030979 
L 382.090579 262.383158 
L 385.369917 262.728 
L 388.649256 263.065732 
L 391.928595 263.396571 
L 395.207934 263.720727 
L 398.487273 264.0384 
" style="fill:none;stroke:#d62728;stroke-linecap:square;stroke-width:1.5;"/>
   </g>
   <g id="line2d_17">
    <path clip-path="url(#pacd25182f1)" d="M 73.832727 53.568 
L 77.112066 174.528 
L 80.391405 134.208 
L 83.670744 174.528 
L 86.950083 198.72 
L 90.229421 214.848 
L 93.50876 191.808 
L 96.788099 174.528 
L 100.067438 161.088 
L 103.346777 150.336 
L 106.626116 163.531636 
L 109.905455 154.368 
L 113.184793 165.223385 
L 116.464132 174.528 
L 119.743471 182.592 
L 123.02281 189.648 
L 126.302149 195.873882 
L 129.581488 201.408 
L 132.860826 206.359579 
L 136.140165 210.816 
L 139.419504 203.328 
L 142.698843 196.520727 
L 145.978182 190.305391 
L 149.257521 194.688 
L 152.53686 198.72 
L 155.816198 193.137231 
L 159.095537 187.968 
L 162.374876 191.808 
L 165.654215 195.383172 
L 168.933554 198.72 
L 172.212893 194.037677 
L 175.492231 197.208 
L 178.77157 200.186182 
L 182.050909 202.989176 
L 185.330248 205.632 
L 188.609587 208.128 
L 191.888926 210.489081 
L 195.168264 212.725895 
L 198.447603 214.848 
L 201.726942 216.864 
L 205.006281 218.781659 
L 208.28562 220.608 
L 211.564959 222.349395 
L 214.844298 224.011636 
L 218.123636 225.6 
L 221.402975 227.119304 
L 224.682314 228.573957 
L 227.961653 229.968 
L 231.240992 231.305143 
L 234.520331 232.5888 
L 237.799669 233.822118 
L 241.079008 235.008 
L 244.358347 236.149132 
L 247.637686 237.248 
L 250.917025 238.306909 
L 254.196364 239.328 
L 257.475702 240.313263 
L 260.755041 241.264552 
L 264.03438 242.183593 
L 267.313719 243.072 
L 270.593058 243.931279 
L 273.872397 244.762839 
L 277.151736 245.568 
L 280.431074 246.348 
L 283.710413 247.104 
L 286.989752 247.837091 
L 290.269091 248.548299 
L 293.54843 249.238588 
L 296.827769 249.90887 
L 300.107107 250.56 
L 303.386446 251.192789 
L 306.665785 251.808 
L 309.945124 252.406356 
L 313.224463 252.988541 
L 316.503802 253.5552 
L 319.78314 254.106947 
L 323.062479 254.644364 
L 326.341818 255.168 
L 329.621157 255.67838 
L 332.900496 256.176 
L 336.179835 256.661333 
L 339.459174 257.134829 
L 342.738512 257.596916 
L 346.017851 258.048 
L 349.29719 258.488471 
L 352.576529 258.918698 
L 355.855868 259.339034 
L 359.135207 259.749818 
L 362.414545 260.151371 
L 365.693884 260.544 
L 368.973223 260.928 
L 372.252562 261.303652 
L 375.531901 261.671226 
L 378.81124 262.030979 
L 382.090579 262.383158 
L 385.369917 262.728 
L 388.649256 263.065732 
L 391.928595 263.396571 
L 395.207934 263.720727 
L 398.487273 264.0384 
" style="fill:none;stroke:#9467bd;stroke-linecap:square;stroke-width:1.5;"/>
   </g>
   <g id="line2d_18">
    <path clip-path="url(#pacd25182f1)" d="M 73.832727 53.568 
L 77.112066 174.528 
L 80.391405 214.848 
L 83.670744 174.528 
L 86.950083 198.72 
L 90.229421 214.848 
L 93.50876 191.808 
L 96.788099 204.768 
L 100.067438 214.848 
L 103.346777 222.912 
L 106.626116 207.517091 
L 109.905455 214.848 
L 113.184793 202.441846 
L 116.464132 191.808 
L 119.743471 198.72 
L 123.02281 204.768 
L 126.302149 210.104471 
L 129.581488 214.848 
L 132.860826 206.359579 
L 136.140165 210.816 
L 139.419504 214.848 
L 142.698843 218.513455 
L 145.978182 221.860174 
L 149.257521 224.928 
L 152.53686 227.7504 
L 155.816198 230.355692 
L 159.095537 223.808 
L 162.374876 226.368 
L 165.654215 228.751448 
L 168.933554 222.912 
L 172.212893 225.253161 
L 175.492231 219.888 
L 178.77157 222.178909 
L 182.050909 224.335059 
L 185.330248 226.368 
L 188.609587 228.288 
L 191.888926 230.104216 
L 195.168264 231.824842 
L 198.447603 233.457231 
L 201.726942 235.008 
L 205.006281 236.483122 
L 208.28562 237.888 
L 211.564959 239.227535 
L 214.844298 240.506182 
L 218.123636 241.728 
L 221.402975 242.896696 
L 224.682314 244.01566 
L 227.961653 245.088 
L 231.240992 246.116571 
L 234.520331 247.104 
L 237.799669 248.052706 
L 241.079008 248.964923 
L 244.358347 249.842717 
L 247.637686 250.688 
L 250.917025 251.502545 
L 254.196364 252.288 
L 257.475702 253.045895 
L 260.755041 253.777655 
L 264.03438 254.48461 
L 267.313719 255.168 
L 270.593058 255.828984 
L 273.872397 256.468645 
L 277.151736 257.088 
L 280.431074 257.688 
L 283.710413 258.269538 
L 286.989752 258.833455 
L 290.269091 259.380537 
L 293.54843 259.911529 
L 296.827769 260.42713 
L 300.107107 260.928 
L 303.386446 261.414761 
L 306.665785 261.888 
L 309.945124 262.348274 
L 313.224463 262.796108 
L 316.503802 263.232 
L 319.78314 263.656421 
L 323.062479 264.069818 
L 326.341818 264.472615 
L 329.621157 264.865215 
L 332.900496 265.248 
L 336.179835 265.621333 
L 339.459174 265.985561 
L 342.738512 266.341012 
L 346.017851 266.688 
L 349.29719 267.026824 
L 352.576529 267.357767 
L 355.855868 267.681103 
L 359.135207 267.997091 
L 362.414545 268.305978 
L 365.693884 268.608 
L 368.973223 268.903385 
L 372.252562 269.192348 
L 375.531901 269.475097 
L 378.81124 269.75183 
L 382.090579 270.022737 
L 385.369917 270.288 
L 388.649256 270.547794 
L 391.928595 270.802286 
L 395.207934 271.051636 
L 398.487273 271.296 
" style="fill:none;stroke:#8c564b;stroke-linecap:square;stroke-width:1.5;"/>
   </g>
   <g id="line2d_19">
    <path clip-path="url(#pacd25182f1)" d="M 73.832727 295.488 
L 77.112066 295.488 
L 80.391405 295.488 
L 83.670744 235.008 
L 86.950083 247.104 
L 90.229421 214.848 
L 93.50876 191.808 
L 96.788099 174.528 
L 100.067438 187.968 
L 103.346777 198.72 
L 106.626116 207.517091 
L 109.905455 214.848 
L 113.184793 221.051077 
L 116.464132 209.088 
L 119.743471 214.848 
L 123.02281 219.888 
L 126.302149 224.335059 
L 129.581488 228.288 
L 132.860826 219.092211 
L 136.140165 222.912 
L 139.419504 214.848 
L 142.698843 207.517091 
L 145.978182 200.823652 
L 149.257521 204.768 
L 152.53686 208.3968 
L 155.816198 202.441846 
L 159.095537 205.888 
L 162.374876 200.448 
L 165.654215 203.725241 
L 168.933554 206.784 
L 172.212893 209.645419 
L 175.492231 212.328 
L 178.77157 214.848 
L 182.050909 217.219765 
L 185.330248 219.456 
L 188.609587 214.848 
L 191.888926 217.027459 
L 195.168264 212.725895 
L 198.447603 208.644923 
L 201.726942 210.816 
L 205.006281 212.881171 
L 208.28562 214.848 
L 211.564959 216.723349 
L 214.844298 218.513455 
L 218.123636 220.224 
L 221.402975 221.860174 
L 224.682314 223.426723 
L 227.961653 219.888 
L 231.240992 216.493714 
L 234.520331 218.0736 
L 237.799669 219.591529 
L 241.079008 216.398769 
L 244.358347 217.891019 
L 247.637686 219.328 
L 250.917025 220.712727 
L 254.196364 217.728 
L 257.475702 219.092211 
L 260.755041 220.409379 
L 264.03438 217.581559 
L 267.313719 214.848 
L 270.593058 216.169967 
L 273.872397 213.547355 
L 277.151736 214.848 
L 280.431074 216.108 
L 283.710413 217.329231 
L 286.989752 218.513455 
L 290.269091 219.662328 
L 293.54843 217.219765 
L 296.827769 214.848 
L 300.107107 216 
L 303.386446 217.119549 
L 306.665785 214.848 
L 309.945124 212.638685 
L 313.224463 213.75827 
L 316.503802 214.848 
L 319.78314 215.909053 
L 323.062479 216.942545 
L 326.341818 217.949538 
L 329.621157 218.931038 
L 332.900496 219.888 
L 336.179835 220.821333 
L 339.459174 218.781659 
L 342.738512 219.705831 
L 346.017851 217.728 
L 349.29719 218.642824 
L 352.576529 219.536372 
L 355.855868 220.409379 
L 359.135207 221.262545 
L 362.414545 222.096539 
L 365.693884 220.224 
L 368.973223 221.051077 
L 372.252562 221.860174 
L 375.531901 220.050581 
L 378.81124 220.853106 
L 382.090579 219.092211 
L 385.369917 219.888 
L 388.649256 220.667381 
L 391.928595 218.962286 
L 395.207934 217.291636 
L 398.487273 218.0736 
" style="fill:none;stroke:#e377c2;stroke-linecap:square;stroke-width:1.5;"/>
   </g>
   <g id="line2d_20">
    <path clip-path="url(#pacd25182f1)" d="M 73.832727 295.488 
L 77.112066 174.528 
L 80.391405 214.848 
L 83.670744 174.528 
L 86.950083 198.72 
L 90.229421 174.528 
L 93.50876 191.808 
L 96.788099 204.768 
L 100.067438 187.968 
L 103.346777 198.72 
L 106.626116 207.517091 
L 109.905455 194.688 
L 113.184793 202.441846 
L 116.464132 209.088 
L 119.743471 198.72 
L 123.02281 204.768 
L 126.302149 210.104471 
L 129.581488 214.848 
L 132.860826 219.092211 
L 136.140165 210.816 
L 139.419504 214.848 
L 142.698843 207.517091 
L 145.978182 211.341913 
L 149.257521 214.848 
L 152.53686 218.0736 
L 155.816198 221.051077 
L 159.095537 223.808 
L 162.374876 217.728 
L 165.654215 220.409379 
L 168.933554 222.912 
L 172.212893 217.44929 
L 175.492231 219.888 
L 178.77157 214.848 
L 182.050909 210.104471 
L 185.330248 212.544 
L 188.609587 208.128 
L 191.888926 203.950703 
L 195.168264 199.993263 
L 198.447603 196.238769 
L 201.726942 198.72 
L 205.006281 201.080195 
L 208.28562 203.328 
L 211.564959 199.845209 
L 214.844298 202.018909 
L 218.123636 204.096 
L 221.402975 200.823652 
L 224.682314 202.837787 
L 227.961653 204.768 
L 231.240992 206.619429 
L 234.520331 208.3968 
L 237.799669 210.104471 
L 241.079008 211.746462 
L 244.358347 213.326491 
L 247.637686 210.368 
L 250.917025 211.915636 
L 254.196364 213.408 
L 257.475702 214.848 
L 260.755041 216.238345 
L 264.03438 217.581559 
L 267.313719 214.848 
L 270.593058 216.169967 
L 273.872397 217.44929 
L 277.151736 214.848 
L 280.431074 216.108 
L 283.710413 217.329231 
L 286.989752 218.513455 
L 290.269091 216.051582 
L 293.54843 217.219765 
L 296.827769 218.354087 
L 300.107107 216 
L 303.386446 213.712225 
L 306.665785 214.848 
L 309.945124 215.952658 
L 313.224463 213.75827 
L 316.503802 211.6224 
L 319.78314 212.725895 
L 323.062479 213.800727 
L 326.341818 211.746462 
L 329.621157 212.806481 
L 332.900496 210.816 
L 336.179835 211.861333 
L 339.459174 209.930927 
L 342.738512 208.047036 
L 346.017851 206.208 
L 349.29719 207.258353 
L 352.576529 208.284279 
L 355.855868 209.286621 
L 359.135207 210.266182 
L 362.414545 211.22373 
L 365.693884 209.472 
L 368.973223 210.417231 
L 372.252562 208.712348 
L 375.531901 207.044129 
L 378.81124 207.985021 
L 382.090579 208.906105 
L 385.369917 209.808 
L 388.649256 210.691299 
L 391.928595 211.556571 
L 395.207934 212.404364 
L 398.487273 213.2352 
" style="fill:none;stroke:#7f7f7f;stroke-linecap:square;stroke-width:1.5;"/>
   </g>
   <g id="line2d_21">
    <path clip-path="url(#pacd25182f1)" d="M 73.832727 53.568 
L 77.112066 53.568 
L 80.391405 53.568 
L 83.670744 114.048 
L 86.950083 150.336 
L 90.229421 134.208 
L 93.50876 122.688 
L 96.788099 144.288 
L 100.067438 161.088 
L 103.346777 174.528 
L 106.626116 185.524364 
L 109.905455 194.688 
L 113.184793 183.832615 
L 116.464132 174.528 
L 119.743471 182.592 
L 123.02281 189.648 
L 126.302149 195.873882 
L 129.581488 187.968 
L 132.860826 193.626947 
L 136.140165 198.72 
L 139.419504 203.328 
L 142.698843 207.517091 
L 145.978182 200.823652 
L 149.257521 204.768 
L 152.53686 198.72 
L 155.816198 202.441846 
L 159.095537 205.888 
L 162.374876 200.448 
L 165.654215 203.725241 
L 168.933554 206.784 
L 172.212893 209.645419 
L 175.492231 212.328 
L 178.77157 214.848 
L 182.050909 217.219765 
L 185.330248 219.456 
L 188.609587 221.568 
L 191.888926 217.027459 
L 195.168264 219.092211 
L 198.447603 221.051077 
L 201.726942 222.912 
L 205.006281 224.682146 
L 208.28562 226.368 
L 211.564959 222.349395 
L 214.844298 224.011636 
L 218.123636 220.224 
L 221.402975 216.601043 
L 224.682314 218.279489 
L 227.961653 219.888 
L 231.240992 221.430857 
L 234.520331 222.912 
L 237.799669 219.591529 
L 241.079008 221.051077 
L 244.358347 222.455547 
L 247.637686 219.328 
L 250.917025 216.314182 
L 254.196364 217.728 
L 257.475702 219.092211 
L 260.755041 220.409379 
L 264.03438 221.681898 
L 267.313719 222.912 
L 270.593058 224.10177 
L 273.872397 225.253161 
L 277.151736 226.368 
L 280.431074 227.448 
L 283.710413 224.772923 
L 286.989752 222.178909 
L 290.269091 219.662328 
L 293.54843 217.219765 
L 296.827769 218.354087 
L 300.107107 219.456 
L 303.386446 220.526873 
L 306.665785 221.568 
L 309.945124 222.580603 
L 313.224463 220.296649 
L 316.503802 221.2992 
L 319.78314 222.275368 
L 323.062479 223.226182 
L 326.341818 221.051077 
L 329.621157 221.993316 
L 332.900496 222.912 
L 336.179835 220.821333 
L 339.459174 221.731902 
L 342.738512 219.705831 
L 346.017851 220.608 
L 349.29719 218.642824 
L 352.576529 219.536372 
L 355.855868 220.409379 
L 359.135207 221.262545 
L 362.414545 222.096539 
L 365.693884 222.912 
L 368.973223 221.051077 
L 372.252562 221.860174 
L 375.531901 220.050581 
L 378.81124 220.853106 
L 382.090579 221.638737 
L 385.369917 222.408 
L 388.649256 223.161402 
L 391.928595 221.430857 
L 395.207934 222.178909 
L 398.487273 220.4928 
" style="fill:none;stroke:#bcbd22;stroke-linecap:square;stroke-width:1.5;"/>
   </g>
   <g id="line2d_22">
    <path clip-path="url(#pacd25182f1)" d="M 73.832727 295.488 
L 77.112066 295.488 
L 80.391405 295.488 
L 83.670744 295.488 
L 86.950083 247.104 
L 90.229421 255.168 
L 93.50876 260.928 
L 96.788099 235.008 
L 100.067438 241.728 
L 103.346777 247.104 
L 106.626116 251.502545 
L 109.905455 235.008 
L 113.184793 239.660308 
L 116.464132 243.648 
L 119.743471 230.976 
L 123.02281 219.888 
L 126.302149 224.335059 
L 129.581488 228.288 
L 132.860826 231.824842 
L 136.140165 235.008 
L 139.419504 237.888 
L 142.698843 240.506182 
L 145.978182 232.378435 
L 149.257521 235.008 
L 152.53686 237.4272 
L 155.816198 239.660308 
L 159.095537 232.768 
L 162.374876 235.008 
L 165.654215 228.751448 
L 168.933554 222.912 
L 172.212893 225.253161 
L 175.492231 227.448 
L 178.77157 229.509818 
L 182.050909 224.335059 
L 185.330248 226.368 
L 188.609587 228.288 
L 191.888926 230.104216 
L 195.168264 225.458526 
L 198.447603 221.051077 
L 201.726942 222.912 
L 205.006281 218.781659 
L 208.28562 220.608 
L 211.564959 216.723349 
L 214.844298 218.513455 
L 218.123636 214.848 
L 221.402975 216.601043 
L 224.682314 213.132255 
L 227.961653 214.848 
L 231.240992 216.493714 
L 234.520331 213.2352 
L 237.799669 210.104471 
L 241.079008 211.746462 
L 244.358347 208.761962 
L 247.637686 210.368 
L 250.917025 211.915636 
L 254.196364 213.408 
L 257.475702 214.848 
L 260.755041 216.238345 
L 264.03438 217.581559 
L 267.313719 218.88 
L 270.593058 220.135869 
L 273.872397 221.351226 
L 277.151736 222.528 
L 280.431074 223.668 
L 283.710413 224.772923 
L 286.989752 225.844364 
L 290.269091 226.883821 
L 293.54843 227.892706 
L 296.827769 228.872348 
L 300.107107 229.824 
L 303.386446 230.748845 
L 306.665785 231.648 
L 309.945124 232.522521 
L 313.224463 233.373405 
L 316.503802 234.2016 
L 319.78314 235.008 
L 323.062479 235.793455 
L 326.341818 236.558769 
L 329.621157 237.304709 
L 332.900496 238.032 
L 336.179835 238.741333 
L 339.459174 239.433366 
L 342.738512 240.108723 
L 346.017851 240.768 
L 349.29719 241.411765 
L 352.576529 242.040558 
L 355.855868 242.654897 
L 359.135207 243.255273 
L 362.414545 243.842157 
L 365.693884 244.416 
L 368.973223 244.977231 
L 372.252562 245.526261 
L 375.531901 246.063484 
L 378.81124 246.589277 
L 382.090579 247.104 
L 385.369917 247.608 
L 388.649256 248.101608 
L 391.928595 248.585143 
L 395.207934 249.058909 
L 398.487273 249.5232 
" style="fill:none;stroke:#17becf;stroke-linecap:square;stroke-width:1.5;"/>
   </g>
   <g id="patch_3">
    <path d="M 57.6 307.584 
L 57.6 41.472 
" style="fill:none;stroke:#000000;stroke-linecap:square;stroke-linejoin:miter;stroke-width:0.8;"/>
   </g>
   <g id="patch_4">
    <path d="M 414.72 307.584 
L 414.72 41.472 
" style="fill:none;stroke:#000000;stroke-linecap:square;stroke-linejoin:miter;stroke-width:0.8;"/>
   </g>
   <g id="patch_5">
    <path d="M 57.6 307.584 
L 414.72 307.584 
" style="fill:none;stroke:#000000;stroke-linecap:square;stroke-linejoin:miter;stroke-width:0.8;"/>
   </g>
   <g id="patch_6">
    <path d="M 57.6 41.472 
L 414.72 41.472 
" style="fill:none;stroke:#000000;stroke-linecap:square;stroke-linejoin:miter;stroke-width:0.8;"/>
   </g>
   <g id="text_15">
    <!-- Grafico frecuencias relativas columnas martin gala F.I: $150000.0 -->
    <g transform="translate(38.873437 35.472)scale(0.12 -0.12)">
     <defs>
      <path d="M 59.515625 10.40625 
L 59.515625 29.984375 
L 43.40625 29.984375 
L 43.40625 38.09375 
L 69.28125 38.09375 
L 69.28125 6.78125 
Q 63.578125 2.734375 56.6875 0.65625 
Q 49.8125 -1.421875 42 -1.421875 
Q 24.90625 -1.421875 15.25 8.5625 
Q 5.609375 18.5625 5.609375 36.375 
Q 5.609375 54.25 15.25 64.234375 
Q 24.90625 74.21875 42 74.21875 
Q 49.125 74.21875 55.546875 72.453125 
Q 61.96875 70.703125 67.390625 67.28125 
L 67.390625 56.78125 
Q 61.921875 61.421875 55.765625 63.765625 
Q 49.609375 66.109375 42.828125 66.109375 
Q 29.4375 66.109375 22.71875 58.640625 
Q 16.015625 51.171875 16.015625 36.375 
Q 16.015625 21.625 22.71875 14.15625 
Q 29.4375 6.6875 42.828125 6.6875 
Q 48.046875 6.6875 52.140625 7.59375 
Q 56.25 8.5 59.515625 10.40625 
z
" id="DejaVuSans-71"/>
      <path d="M 37.109375 75.984375 
L 37.109375 68.5 
L 28.515625 68.5 
Q 23.6875 68.5 21.796875 66.546875 
Q 19.921875 64.59375 19.921875 59.515625 
L 19.921875 54.6875 
L 34.71875 54.6875 
L 34.71875 47.703125 
L 19.921875 47.703125 
L 19.921875 0 
L 10.890625 0 
L 10.890625 47.703125 
L 2.296875 47.703125 
L 2.296875 54.6875 
L 10.890625 54.6875 
L 10.890625 58.5 
Q 10.890625 67.625 15.140625 71.796875 
Q 19.390625 75.984375 28.609375 75.984375 
z
" id="DejaVuSans-102"/>
      <path d="M 30.609375 48.390625 
Q 23.390625 48.390625 19.1875 42.75 
Q 14.984375 37.109375 14.984375 27.296875 
Q 14.984375 17.484375 19.15625 11.84375 
Q 23.34375 6.203125 30.609375 6.203125 
Q 37.796875 6.203125 41.984375 11.859375 
Q 46.1875 17.53125 46.1875 27.296875 
Q 46.1875 37.015625 41.984375 42.703125 
Q 37.796875 48.390625 30.609375 48.390625 
z
M 30.609375 56 
Q 42.328125 56 49.015625 48.375 
Q 55.71875 40.765625 55.71875 27.296875 
Q 55.71875 13.875 49.015625 6.21875 
Q 42.328125 -1.421875 30.609375 -1.421875 
Q 18.84375 -1.421875 12.171875 6.21875 
Q 5.515625 13.875 5.515625 27.296875 
Q 5.515625 40.765625 12.171875 48.375 
Q 18.84375 56 30.609375 56 
z
" id="DejaVuSans-111"/>
      <path d="M 52 44.1875 
Q 55.375 50.25 60.0625 53.125 
Q 64.75 56 71.09375 56 
Q 79.640625 56 84.28125 50.015625 
Q 88.921875 44.046875 88.921875 33.015625 
L 88.921875 0 
L 79.890625 0 
L 79.890625 32.71875 
Q 79.890625 40.578125 77.09375 44.375 
Q 74.3125 48.1875 68.609375 48.1875 
Q 61.625 48.1875 57.5625 43.546875 
Q 53.515625 38.921875 53.515625 30.90625 
L 53.515625 0 
L 44.484375 0 
L 44.484375 32.71875 
Q 44.484375 40.625 41.703125 44.40625 
Q 38.921875 48.1875 33.109375 48.1875 
Q 26.21875 48.1875 22.15625 43.53125 
Q 18.109375 38.875 18.109375 30.90625 
L 18.109375 0 
L 9.078125 0 
L 9.078125 54.6875 
L 18.109375 54.6875 
L 18.109375 46.1875 
Q 21.1875 51.21875 25.484375 53.609375 
Q 29.78125 56 35.6875 56 
Q 41.65625 56 45.828125 52.96875 
Q 50 49.953125 52 44.1875 
z
" id="DejaVuSans-109"/>
      <path d="M 45.40625 27.984375 
Q 45.40625 37.75 41.375 43.109375 
Q 37.359375 48.484375 30.078125 48.484375 
Q 22.859375 48.484375 18.828125 43.109375 
Q 14.796875 37.75 14.796875 27.984375 
Q 14.796875 18.265625 18.828125 12.890625 
Q 22.859375 7.515625 30.078125 7.515625 
Q 37.359375 7.515625 41.375 12.890625 
Q 45.40625 18.265625 45.40625 27.984375 
z
M 54.390625 6.78125 
Q 54.390625 -7.171875 48.1875 -13.984375 
Q 42 -20.796875 29.203125 -20.796875 
Q 24.46875 -20.796875 20.265625 -20.09375 
Q 16.0625 -19.390625 12.109375 -17.921875 
L 12.109375 -9.1875 
Q 16.0625 -11.328125 19.921875 -12.34375 
Q 23.78125 -13.375 27.78125 -13.375 
Q 36.625 -13.375 41.015625 -8.765625 
Q 45.40625 -4.15625 45.40625 5.171875 
L 45.40625 9.625 
Q 42.625 4.78125 38.28125 2.390625 
Q 33.9375 0 27.875 0 
Q 17.828125 0 11.671875 7.65625 
Q 5.515625 15.328125 5.515625 27.984375 
Q 5.515625 40.671875 11.671875 48.328125 
Q 17.828125 56 27.875 56 
Q 33.9375 56 38.28125 53.609375 
Q 42.625 51.21875 45.40625 46.390625 
L 45.40625 54.6875 
L 54.390625 54.6875 
z
" id="DejaVuSans-103"/>
      <path d="M 9.8125 72.90625 
L 19.671875 72.90625 
L 19.671875 0 
L 9.8125 0 
z
" id="DejaVuSans-73"/>
      <path d="M 11.71875 12.40625 
L 22.015625 12.40625 
L 22.015625 0 
L 11.71875 0 
z
M 11.71875 51.703125 
L 22.015625 51.703125 
L 22.015625 39.3125 
L 11.71875 39.3125 
z
" id="DejaVuSans-58"/>
      <path d="M 33.796875 -14.703125 
L 28.90625 -14.703125 
L 28.859375 0 
Q 23.734375 0.09375 18.609375 1.1875 
Q 13.484375 2.296875 8.296875 4.5 
L 8.296875 13.28125 
Q 13.28125 10.15625 18.375 8.5625 
Q 23.484375 6.984375 28.90625 6.9375 
L 28.90625 29.203125 
Q 18.109375 30.953125 13.203125 35.15625 
Q 8.296875 39.359375 8.296875 46.6875 
Q 8.296875 54.640625 13.625 59.21875 
Q 18.953125 63.8125 28.90625 64.5 
L 28.90625 75.984375 
L 33.796875 75.984375 
L 33.796875 64.65625 
Q 38.328125 64.453125 42.578125 63.6875 
Q 46.828125 62.9375 50.875 61.625 
L 50.875 53.078125 
Q 46.828125 55.125 42.546875 56.25 
Q 38.28125 57.375 33.796875 57.5625 
L 33.796875 36.71875 
Q 44.875 35.015625 50.09375 30.609375 
Q 55.328125 26.21875 55.328125 18.609375 
Q 55.328125 10.359375 49.78125 5.59375 
Q 44.234375 0.828125 33.796875 0.09375 
z
M 28.90625 37.59375 
L 28.90625 57.625 
Q 23.25 56.984375 20.265625 54.390625 
Q 17.28125 51.8125 17.28125 47.515625 
Q 17.28125 43.3125 20.03125 40.96875 
Q 22.796875 38.625 28.90625 37.59375 
z
M 33.796875 28.21875 
L 33.796875 7.078125 
Q 39.984375 7.90625 43.140625 10.59375 
Q 46.296875 13.28125 46.296875 17.671875 
Q 46.296875 21.96875 43.28125 24.5 
Q 40.28125 27.046875 33.796875 28.21875 
z
" id="DejaVuSans-36"/>
      <path d="M 10.796875 72.90625 
L 49.515625 72.90625 
L 49.515625 64.59375 
L 19.828125 64.59375 
L 19.828125 46.734375 
Q 21.96875 47.46875 24.109375 47.828125 
Q 26.265625 48.1875 28.421875 48.1875 
Q 40.625 48.1875 47.75 41.5 
Q 54.890625 34.8125 54.890625 23.390625 
Q 54.890625 11.625 47.5625 5.09375 
Q 40.234375 -1.421875 26.90625 -1.421875 
Q 22.3125 -1.421875 17.546875 -0.640625 
Q 12.796875 0.140625 7.71875 1.703125 
L 7.71875 11.625 
Q 12.109375 9.234375 16.796875 8.0625 
Q 21.484375 6.890625 26.703125 6.890625 
Q 35.15625 6.890625 40.078125 11.328125 
Q 45.015625 15.765625 45.015625 23.390625 
Q 45.015625 31 40.078125 35.4375 
Q 35.15625 39.890625 26.703125 39.890625 
Q 22.75 39.890625 18.8125 39.015625 
Q 14.890625 38.140625 10.796875 36.28125 
z
" id="DejaVuSans-53"/>
     </defs>
     <use xlink:href="#DejaVuSans-71"/>
     <use x="77.490234" xlink:href="#DejaVuSans-114"/>
     <use x="118.603516" xlink:href="#DejaVuSans-97"/>
     <use x="179.882812" xlink:href="#DejaVuSans-102"/>
     <use x="215.087891" xlink:href="#DejaVuSans-105"/>
     <use x="242.871094" xlink:href="#DejaVuSans-99"/>
     <use x="297.851562" xlink:href="#DejaVuSans-111"/>
     <use x="359.033203" xlink:href="#DejaVuSans-32"/>
     <use x="390.820312" xlink:href="#DejaVuSans-102"/>
     <use x="426.025391" xlink:href="#DejaVuSans-114"/>
     <use x="464.888672" xlink:href="#DejaVuSans-101"/>
     <use x="526.412109" xlink:href="#DejaVuSans-99"/>
     <use x="581.392578" xlink:href="#DejaVuSans-117"/>
     <use x="644.771484" xlink:href="#DejaVuSans-101"/>
     <use x="706.294922" xlink:href="#DejaVuSans-110"/>
     <use x="769.673828" xlink:href="#DejaVuSans-99"/>
     <use x="824.654297" xlink:href="#DejaVuSans-105"/>
     <use x="852.4375" xlink:href="#DejaVuSans-97"/>
     <use x="913.716797" xlink:href="#DejaVuSans-115"/>
     <use x="965.816406" xlink:href="#DejaVuSans-32"/>
     <use x="997.603516" xlink:href="#DejaVuSans-114"/>
     <use x="1036.466797" xlink:href="#DejaVuSans-101"/>
     <use x="1097.990234" xlink:href="#DejaVuSans-108"/>
     <use x="1125.773438" xlink:href="#DejaVuSans-97"/>
     <use x="1187.052734" xlink:href="#DejaVuSans-116"/>
     <use x="1226.261719" xlink:href="#DejaVuSans-105"/>
     <use x="1254.044922" xlink:href="#DejaVuSans-118"/>
     <use x="1313.224609" xlink:href="#DejaVuSans-97"/>
     <use x="1374.503906" xlink:href="#DejaVuSans-115"/>
     <use x="1426.603516" xlink:href="#DejaVuSans-32"/>
     <use x="1458.390625" xlink:href="#DejaVuSans-99"/>
     <use x="1513.371094" xlink:href="#DejaVuSans-111"/>
     <use x="1574.552734" xlink:href="#DejaVuSans-108"/>
     <use x="1602.335938" xlink:href="#DejaVuSans-117"/>
     <use x="1665.714844" xlink:href="#DejaVuSans-109"/>
     <use x="1763.126953" xlink:href="#DejaVuSans-110"/>
     <use x="1826.505859" xlink:href="#DejaVuSans-97"/>
     <use x="1887.785156" xlink:href="#DejaVuSans-115"/>
     <use x="1939.884766" xlink:href="#DejaVuSans-32"/>
     <use x="1971.671875" xlink:href="#DejaVuSans-109"/>
     <use x="2069.083984" xlink:href="#DejaVuSans-97"/>
     <use x="2130.363281" xlink:href="#DejaVuSans-114"/>
     <use x="2171.476562" xlink:href="#DejaVuSans-116"/>
     <use x="2210.685547" xlink:href="#DejaVuSans-105"/>
     <use x="2238.46875" xlink:href="#DejaVuSans-110"/>
     <use x="2301.847656" xlink:href="#DejaVuSans-32"/>
     <use x="2333.634766" xlink:href="#DejaVuSans-103"/>
     <use x="2397.111328" xlink:href="#DejaVuSans-97"/>
     <use x="2458.390625" xlink:href="#DejaVuSans-108"/>
     <use x="2486.173828" xlink:href="#DejaVuSans-97"/>
     <use x="2547.453125" xlink:href="#DejaVuSans-32"/>
     <use x="2579.240234" xlink:href="#DejaVuSans-70"/>
     <use x="2620.634766" xlink:href="#DejaVuSans-46"/>
     <use x="2652.421875" xlink:href="#DejaVuSans-73"/>
     <use x="2681.914062" xlink:href="#DejaVuSans-58"/>
     <use x="2715.605469" xlink:href="#DejaVuSans-32"/>
     <use x="2747.392578" xlink:href="#DejaVuSans-36"/>
     <use x="2811.015625" xlink:href="#DejaVuSans-49"/>
     <use x="2874.638672" xlink:href="#DejaVuSans-53"/>
     <use x="2938.261719" xlink:href="#DejaVuSans-48"/>
     <use x="3001.884766" xlink:href="#DejaVuSans-48"/>
     <use x="3065.507812" xlink:href="#DejaVuSans-48"/>
     <use x="3129.130859" xlink:href="#DejaVuSans-48"/>
     <use x="3192.753906" xlink:href="#DejaVuSans-46"/>
     <use x="3224.541016" xlink:href="#DejaVuSans-48"/>
    </g>
   </g>
   <g id="legend_1">
    <g id="patch_7">
     <path d="M 347.116875 196.25325 
L 407.72 196.25325 
Q 409.72 196.25325 409.72 194.25325 
L 409.72 48.472 
Q 409.72 46.472 407.72 46.472 
L 347.116875 46.472 
Q 345.116875 46.472 345.116875 48.472 
L 345.116875 194.25325 
Q 345.116875 196.25325 347.116875 196.25325 
z
" style="fill:#ffffff;opacity:0.8;stroke:#cccccc;stroke-linejoin:miter;"/>
    </g>
    <g id="line2d_23">
     <path d="M 349.116875 54.570437 
L 369.116875 54.570437 
" style="fill:none;stroke:#1f77b4;stroke-linecap:square;stroke-width:1.5;"/>
    </g>
    <g id="line2d_24"/>
    <g id="text_16">
     <!-- FR 1 -->
     <g transform="translate(377.116875 58.070437)scale(0.1 -0.1)">
      <defs>
       <path d="M 44.390625 34.1875 
Q 47.5625 33.109375 50.5625 29.59375 
Q 53.5625 26.078125 56.59375 19.921875 
L 66.609375 0 
L 56 0 
L 46.6875 18.703125 
Q 43.0625 26.03125 39.671875 28.421875 
Q 36.28125 30.8125 30.421875 30.8125 
L 19.671875 30.8125 
L 19.671875 0 
L 9.8125 0 
L 9.8125 72.90625 
L 32.078125 72.90625 
Q 44.578125 72.90625 50.734375 67.671875 
Q 56.890625 62.453125 56.890625 51.90625 
Q 56.890625 45.015625 53.6875 40.46875 
Q 50.484375 35.9375 44.390625 34.1875 
z
M 19.671875 64.796875 
L 19.671875 38.921875 
L 32.078125 38.921875 
Q 39.203125 38.921875 42.84375 42.21875 
Q 46.484375 45.515625 46.484375 51.90625 
Q 46.484375 58.296875 42.84375 61.546875 
Q 39.203125 64.796875 32.078125 64.796875 
z
" id="DejaVuSans-82"/>
      </defs>
      <use xlink:href="#DejaVuSans-70"/>
      <use x="57.519531" xlink:href="#DejaVuSans-82"/>
      <use x="127.001953" xlink:href="#DejaVuSans-32"/>
      <use x="158.789062" xlink:href="#DejaVuSans-49"/>
     </g>
    </g>
    <g id="line2d_25">
     <path d="M 349.116875 69.248562 
L 369.116875 69.248562 
" style="fill:none;stroke:#ff7f0e;stroke-linecap:square;stroke-width:1.5;"/>
    </g>
    <g id="line2d_26"/>
    <g id="text_17">
     <!-- FR 2 -->
     <g transform="translate(377.116875 72.748562)scale(0.1 -0.1)">
      <use xlink:href="#DejaVuSans-70"/>
      <use x="57.519531" xlink:href="#DejaVuSans-82"/>
      <use x="127.001953" xlink:href="#DejaVuSans-32"/>
      <use x="158.789062" xlink:href="#DejaVuSans-50"/>
     </g>
    </g>
    <g id="line2d_27">
     <path d="M 349.116875 83.926688 
L 369.116875 83.926688 
" style="fill:none;stroke:#2ca02c;stroke-linecap:square;stroke-width:1.5;"/>
    </g>
    <g id="line2d_28"/>
    <g id="text_18">
     <!-- FR 3 -->
     <g transform="translate(377.116875 87.426688)scale(0.1 -0.1)">
      <defs>
       <path d="M 40.578125 39.3125 
Q 47.65625 37.796875 51.625 33 
Q 55.609375 28.21875 55.609375 21.1875 
Q 55.609375 10.40625 48.1875 4.484375 
Q 40.765625 -1.421875 27.09375 -1.421875 
Q 22.515625 -1.421875 17.65625 -0.515625 
Q 12.796875 0.390625 7.625 2.203125 
L 7.625 11.71875 
Q 11.71875 9.328125 16.59375 8.109375 
Q 21.484375 6.890625 26.8125 6.890625 
Q 36.078125 6.890625 40.9375 10.546875 
Q 45.796875 14.203125 45.796875 21.1875 
Q 45.796875 27.640625 41.28125 31.265625 
Q 36.765625 34.90625 28.71875 34.90625 
L 20.21875 34.90625 
L 20.21875 43.015625 
L 29.109375 43.015625 
Q 36.375 43.015625 40.234375 45.921875 
Q 44.09375 48.828125 44.09375 54.296875 
Q 44.09375 59.90625 40.109375 62.90625 
Q 36.140625 65.921875 28.71875 65.921875 
Q 24.65625 65.921875 20.015625 65.03125 
Q 15.375 64.15625 9.8125 62.3125 
L 9.8125 71.09375 
Q 15.4375 72.65625 20.34375 73.4375 
Q 25.25 74.21875 29.59375 74.21875 
Q 40.828125 74.21875 47.359375 69.109375 
Q 53.90625 64.015625 53.90625 55.328125 
Q 53.90625 49.265625 50.4375 45.09375 
Q 46.96875 40.921875 40.578125 39.3125 
z
" id="DejaVuSans-51"/>
      </defs>
      <use xlink:href="#DejaVuSans-70"/>
      <use x="57.519531" xlink:href="#DejaVuSans-82"/>
      <use x="127.001953" xlink:href="#DejaVuSans-32"/>
      <use x="158.789062" xlink:href="#DejaVuSans-51"/>
     </g>
    </g>
    <g id="line2d_29">
     <path d="M 349.116875 98.604812 
L 369.116875 98.604812 
" style="fill:none;stroke:#d62728;stroke-linecap:square;stroke-width:1.5;"/>
    </g>
    <g id="line2d_30"/>
    <g id="text_19">
     <!-- FR 4 -->
     <g transform="translate(377.116875 102.104812)scale(0.1 -0.1)">
      <use xlink:href="#DejaVuSans-70"/>
      <use x="57.519531" xlink:href="#DejaVuSans-82"/>
      <use x="127.001953" xlink:href="#DejaVuSans-32"/>
      <use x="158.789062" xlink:href="#DejaVuSans-52"/>
     </g>
    </g>
    <g id="line2d_31">
     <path d="M 349.116875 113.282938 
L 369.116875 113.282938 
" style="fill:none;stroke:#9467bd;stroke-linecap:square;stroke-width:1.5;"/>
    </g>
    <g id="line2d_32"/>
    <g id="text_20">
     <!-- FR 5 -->
     <g transform="translate(377.116875 116.782938)scale(0.1 -0.1)">
      <use xlink:href="#DejaVuSans-70"/>
      <use x="57.519531" xlink:href="#DejaVuSans-82"/>
      <use x="127.001953" xlink:href="#DejaVuSans-32"/>
      <use x="158.789062" xlink:href="#DejaVuSans-53"/>
     </g>
    </g>
    <g id="line2d_33">
     <path d="M 349.116875 127.961062 
L 369.116875 127.961062 
" style="fill:none;stroke:#8c564b;stroke-linecap:square;stroke-width:1.5;"/>
    </g>
    <g id="line2d_34"/>
    <g id="text_21">
     <!-- FR 6 -->
     <g transform="translate(377.116875 131.461062)scale(0.1 -0.1)">
      <use xlink:href="#DejaVuSans-70"/>
      <use x="57.519531" xlink:href="#DejaVuSans-82"/>
      <use x="127.001953" xlink:href="#DejaVuSans-32"/>
      <use x="158.789062" xlink:href="#DejaVuSans-54"/>
     </g>
    </g>
    <g id="line2d_35">
     <path d="M 349.116875 142.639187 
L 369.116875 142.639187 
" style="fill:none;stroke:#e377c2;stroke-linecap:square;stroke-width:1.5;"/>
    </g>
    <g id="line2d_36"/>
    <g id="text_22">
     <!-- FR 7 -->
     <g transform="translate(377.116875 146.139187)scale(0.1 -0.1)">
      <defs>
       <path d="M 8.203125 72.90625 
L 55.078125 72.90625 
L 55.078125 68.703125 
L 28.609375 0 
L 18.3125 0 
L 43.21875 64.59375 
L 8.203125 64.59375 
z
" id="DejaVuSans-55"/>
      </defs>
      <use xlink:href="#DejaVuSans-70"/>
      <use x="57.519531" xlink:href="#DejaVuSans-82"/>
      <use x="127.001953" xlink:href="#DejaVuSans-32"/>
      <use x="158.789062" xlink:href="#DejaVuSans-55"/>
     </g>
    </g>
    <g id="line2d_37">
     <path d="M 349.116875 157.317312 
L 369.116875 157.317312 
" style="fill:none;stroke:#7f7f7f;stroke-linecap:square;stroke-width:1.5;"/>
    </g>
    <g id="line2d_38"/>
    <g id="text_23">
     <!-- FR 8 -->
     <g transform="translate(377.116875 160.817312)scale(0.1 -0.1)">
      <use xlink:href="#DejaVuSans-70"/>
      <use x="57.519531" xlink:href="#DejaVuSans-82"/>
      <use x="127.001953" xlink:href="#DejaVuSans-32"/>
      <use x="158.789062" xlink:href="#DejaVuSans-56"/>
     </g>
    </g>
    <g id="line2d_39">
     <path d="M 349.116875 171.995437 
L 369.116875 171.995437 
" style="fill:none;stroke:#bcbd22;stroke-linecap:square;stroke-width:1.5;"/>
    </g>
    <g id="line2d_40"/>
    <g id="text_24">
     <!-- FR 9 -->
     <g transform="translate(377.116875 175.495437)scale(0.1 -0.1)">
      <defs>
       <path d="M 10.984375 1.515625 
L 10.984375 10.5 
Q 14.703125 8.734375 18.5 7.8125 
Q 22.3125 6.890625 25.984375 6.890625 
Q 35.75 6.890625 40.890625 13.453125 
Q 46.046875 20.015625 46.78125 33.40625 
Q 43.953125 29.203125 39.59375 26.953125 
Q 35.25 24.703125 29.984375 24.703125 
Q 19.046875 24.703125 12.671875 31.3125 
Q 6.296875 37.9375 6.296875 49.421875 
Q 6.296875 60.640625 12.9375 67.421875 
Q 19.578125 74.21875 30.609375 74.21875 
Q 43.265625 74.21875 49.921875 64.515625 
Q 56.59375 54.828125 56.59375 36.375 
Q 56.59375 19.140625 48.40625 8.859375 
Q 40.234375 -1.421875 26.421875 -1.421875 
Q 22.703125 -1.421875 18.890625 -0.6875 
Q 15.09375 0.046875 10.984375 1.515625 
z
M 30.609375 32.421875 
Q 37.25 32.421875 41.125 36.953125 
Q 45.015625 41.5 45.015625 49.421875 
Q 45.015625 57.28125 41.125 61.84375 
Q 37.25 66.40625 30.609375 66.40625 
Q 23.96875 66.40625 20.09375 61.84375 
Q 16.21875 57.28125 16.21875 49.421875 
Q 16.21875 41.5 20.09375 36.953125 
Q 23.96875 32.421875 30.609375 32.421875 
z
" id="DejaVuSans-57"/>
      </defs>
      <use xlink:href="#DejaVuSans-70"/>
      <use x="57.519531" xlink:href="#DejaVuSans-82"/>
      <use x="127.001953" xlink:href="#DejaVuSans-32"/>
      <use x="158.789062" xlink:href="#DejaVuSans-57"/>
     </g>
    </g>
    <g id="line2d_41">
     <path d="M 349.116875 186.673562 
L 369.116875 186.673562 
" style="fill:none;stroke:#17becf;stroke-linecap:square;stroke-width:1.5;"/>
    </g>
    <g id="line2d_42"/>
    <g id="text_25">
     <!-- FR 10 -->
     <g transform="translate(377.116875 190.173562)scale(0.1 -0.1)">
      <use xlink:href="#DejaVuSans-70"/>
      <use x="57.519531" xlink:href="#DejaVuSans-82"/>
      <use x="127.001953" xlink:href="#DejaVuSans-32"/>
      <use x="158.789062" xlink:href="#DejaVuSans-49"/>
      <use x="222.412109" xlink:href="#DejaVuSans-48"/>
     </g>
    </g>
   </g>
  </g>
 </g>
 <defs>
  <clipPath id="pacd25182f1">
   <rect height="266.112" width="357.12" x="57.6" y="41.472"/>
  </clipPath>
 </defs>
</svg>
