<?xml version="1.0" encoding="utf-8" standalone="no"?>
<!DOCTYPE svg PUBLIC "-//W3C//DTD SVG 1.1//EN"
  "http://www.w3.org/Graphics/SVG/1.1/DTD/svg11.dtd">
<!-- Created with matplotlib (https://matplotlib.org/) -->
<svg height="345.6pt" version="1.1" viewBox="0 0 460.8 345.6" width="460.8pt" xmlns="http://www.w3.org/2000/svg" xmlns:xlink="http://www.w3.org/1999/xlink">
 <metadata>
  <rdf:RDF xmlns:cc="http://creativecommons.org/ns#" xmlns:dc="http://purl.org/dc/elements/1.1/" xmlns:rdf="http://www.w3.org/1999/02/22-rdf-syntax-ns#">
   <cc:Work>
    <dc:type rdf:resource="http://purl.org/dc/dcmitype/StillImage"/>
    <dc:date>2021-04-07T20:02:36.004609</dc:date>
    <dc:format>image/svg+xml</dc:format>
    <dc:creator>
     <cc:Agent>
      <dc:title>Matplotlib v3.3.4, https://matplotlib.org/</dc:title>
     </cc:Agent>
    </dc:creator>
   </cc:Work>
  </rdf:RDF>
 </metadata>
 <defs>
  <style type="text/css">*{stroke-linecap:butt;stroke-linejoin:round;}</style>
 </defs>
 <g id="figure_1">
  <g id="patch_1">
   <path d="M 0 345.6 
L 460.8 345.6 
L 460.8 0 
L 0 0 
z
" style="fill:#ffffff;"/>
  </g>
  <g id="axes_1">
   <g id="patch_2">
    <path d="M 57.6 307.584 
L 414.72 307.584 
L 414.72 41.472 
L 57.6 41.472 
z
" style="fill:#ffffff;"/>
   </g>
   <g id="matplotlib.axis_1">
    <g id="xtick_1">
     <g id="line2d_1">
      <defs>
       <path d="M 0 0 
L 0 3.5 
" id="m0458fda009" style="stroke:#000000;stroke-width:0.8;"/>
      </defs>
      <g>
       <use style="stroke:#000000;stroke-width:0.8;" x="70.553388" xlink:href="#m0458fda009" y="307.584"/>
      </g>
     </g>
     <g id="text_1">
      <!-- 0 -->
      <g transform="translate(67.372138 322.182437)scale(0.1 -0.1)">
       <defs>
        <path d="M 31.78125 66.40625 
Q 24.171875 66.40625 20.328125 58.90625 
Q 16.5 51.421875 16.5 36.375 
Q 16.5 21.390625 20.328125 13.890625 
Q 24.171875 6.390625 31.78125 6.390625 
Q 39.453125 6.390625 43.28125 13.890625 
Q 47.125 21.390625 47.125 36.375 
Q 47.125 51.421875 43.28125 58.90625 
Q 39.453125 66.40625 31.78125 66.40625 
z
M 31.78125 74.21875 
Q 44.046875 74.21875 50.515625 64.515625 
Q 56.984375 54.828125 56.984375 36.375 
Q 56.984375 17.96875 50.515625 8.265625 
Q 44.046875 -1.421875 31.78125 -1.421875 
Q 19.53125 -1.421875 13.0625 8.265625 
Q 6.59375 17.96875 6.59375 36.375 
Q 6.59375 54.828125 13.0625 64.515625 
Q 19.53125 74.21875 31.78125 74.21875 
z
" id="DejaVuSans-48"/>
       </defs>
       <use xlink:href="#DejaVuSans-48"/>
      </g>
     </g>
    </g>
    <g id="xtick_2">
     <g id="line2d_2">
      <g>
       <use style="stroke:#000000;stroke-width:0.8;" x="136.140165" xlink:href="#m0458fda009" y="307.584"/>
      </g>
     </g>
     <g id="text_2">
      <!-- 20 -->
      <g transform="translate(129.777665 322.182437)scale(0.1 -0.1)">
       <defs>
        <path d="M 19.1875 8.296875 
L 53.609375 8.296875 
L 53.609375 0 
L 7.328125 0 
L 7.328125 8.296875 
Q 12.9375 14.109375 22.625 23.890625 
Q 32.328125 33.6875 34.8125 36.53125 
Q 39.546875 41.84375 41.421875 45.53125 
Q 43.3125 49.21875 43.3125 52.78125 
Q 43.3125 58.59375 39.234375 62.25 
Q 35.15625 65.921875 28.609375 65.921875 
Q 23.96875 65.921875 18.8125 64.3125 
Q 13.671875 62.703125 7.8125 59.421875 
L 7.8125 69.390625 
Q 13.765625 71.78125 18.9375 73 
Q 24.125 74.21875 28.421875 74.21875 
Q 39.75 74.21875 46.484375 68.546875 
Q 53.21875 62.890625 53.21875 53.421875 
Q 53.21875 48.921875 51.53125 44.890625 
Q 49.859375 40.875 45.40625 35.40625 
Q 44.1875 33.984375 37.640625 27.21875 
Q 31.109375 20.453125 19.1875 8.296875 
z
" id="DejaVuSans-50"/>
       </defs>
       <use xlink:href="#DejaVuSans-50"/>
       <use x="63.623047" xlink:href="#DejaVuSans-48"/>
      </g>
     </g>
    </g>
    <g id="xtick_3">
     <g id="line2d_3">
      <g>
       <use style="stroke:#000000;stroke-width:0.8;" x="201.726942" xlink:href="#m0458fda009" y="307.584"/>
      </g>
     </g>
     <g id="text_3">
      <!-- 40 -->
      <g transform="translate(195.364442 322.182437)scale(0.1 -0.1)">
       <defs>
        <path d="M 37.796875 64.3125 
L 12.890625 25.390625 
L 37.796875 25.390625 
z
M 35.203125 72.90625 
L 47.609375 72.90625 
L 47.609375 25.390625 
L 58.015625 25.390625 
L 58.015625 17.1875 
L 47.609375 17.1875 
L 47.609375 0 
L 37.796875 0 
L 37.796875 17.1875 
L 4.890625 17.1875 
L 4.890625 26.703125 
z
" id="DejaVuSans-52"/>
       </defs>
       <use xlink:href="#DejaVuSans-52"/>
       <use x="63.623047" xlink:href="#DejaVuSans-48"/>
      </g>
     </g>
    </g>
    <g id="xtick_4">
     <g id="line2d_4">
      <g>
       <use style="stroke:#000000;stroke-width:0.8;" x="267.313719" xlink:href="#m0458fda009" y="307.584"/>
      </g>
     </g>
     <g id="text_4">
      <!-- 60 -->
      <g transform="translate(260.951219 322.182437)scale(0.1 -0.1)">
       <defs>
        <path d="M 33.015625 40.375 
Q 26.375 40.375 22.484375 35.828125 
Q 18.609375 31.296875 18.609375 23.390625 
Q 18.609375 15.53125 22.484375 10.953125 
Q 26.375 6.390625 33.015625 6.390625 
Q 39.65625 6.390625 43.53125 10.953125 
Q 47.40625 15.53125 47.40625 23.390625 
Q 47.40625 31.296875 43.53125 35.828125 
Q 39.65625 40.375 33.015625 40.375 
z
M 52.59375 71.296875 
L 52.59375 62.3125 
Q 48.875 64.0625 45.09375 64.984375 
Q 41.3125 65.921875 37.59375 65.921875 
Q 27.828125 65.921875 22.671875 59.328125 
Q 17.53125 52.734375 16.796875 39.40625 
Q 19.671875 43.65625 24.015625 45.921875 
Q 28.375 48.1875 33.59375 48.1875 
Q 44.578125 48.1875 50.953125 41.515625 
Q 57.328125 34.859375 57.328125 23.390625 
Q 57.328125 12.15625 50.6875 5.359375 
Q 44.046875 -1.421875 33.015625 -1.421875 
Q 20.359375 -1.421875 13.671875 8.265625 
Q 6.984375 17.96875 6.984375 36.375 
Q 6.984375 53.65625 15.1875 63.9375 
Q 23.390625 74.21875 37.203125 74.21875 
Q 40.921875 74.21875 44.703125 73.484375 
Q 48.484375 72.75 52.59375 71.296875 
z
" id="DejaVuSans-54"/>
       </defs>
       <use xlink:href="#DejaVuSans-54"/>
       <use x="63.623047" xlink:href="#DejaVuSans-48"/>
      </g>
     </g>
    </g>
    <g id="xtick_5">
     <g id="line2d_5">
      <g>
       <use style="stroke:#000000;stroke-width:0.8;" x="332.900496" xlink:href="#m0458fda009" y="307.584"/>
      </g>
     </g>
     <g id="text_5">
      <!-- 80 -->
      <g transform="translate(326.537996 322.182437)scale(0.1 -0.1)">
       <defs>
        <path d="M 31.78125 34.625 
Q 24.75 34.625 20.71875 30.859375 
Q 16.703125 27.09375 16.703125 20.515625 
Q 16.703125 13.921875 20.71875 10.15625 
Q 24.75 6.390625 31.78125 6.390625 
Q 38.8125 6.390625 42.859375 10.171875 
Q 46.921875 13.96875 46.921875 20.515625 
Q 46.921875 27.09375 42.890625 30.859375 
Q 38.875 34.625 31.78125 34.625 
z
M 21.921875 38.8125 
Q 15.578125 40.375 12.03125 44.71875 
Q 8.5 49.078125 8.5 55.328125 
Q 8.5 64.0625 14.71875 69.140625 
Q 20.953125 74.21875 31.78125 74.21875 
Q 42.671875 74.21875 48.875 69.140625 
Q 55.078125 64.0625 55.078125 55.328125 
Q 55.078125 49.078125 51.53125 44.71875 
Q 48 40.375 41.703125 38.8125 
Q 48.828125 37.15625 52.796875 32.3125 
Q 56.78125 27.484375 56.78125 20.515625 
Q 56.78125 9.90625 50.3125 4.234375 
Q 43.84375 -1.421875 31.78125 -1.421875 
Q 19.734375 -1.421875 13.25 4.234375 
Q 6.78125 9.90625 6.78125 20.515625 
Q 6.78125 27.484375 10.78125 32.3125 
Q 14.796875 37.15625 21.921875 38.8125 
z
M 18.3125 54.390625 
Q 18.3125 48.734375 21.84375 45.5625 
Q 25.390625 42.390625 31.78125 42.390625 
Q 38.140625 42.390625 41.71875 45.5625 
Q 45.3125 48.734375 45.3125 54.390625 
Q 45.3125 60.0625 41.71875 63.234375 
Q 38.140625 66.40625 31.78125 66.40625 
Q 25.390625 66.40625 21.84375 63.234375 
Q 18.3125 60.0625 18.3125 54.390625 
z
" id="DejaVuSans-56"/>
       </defs>
       <use xlink:href="#DejaVuSans-56"/>
       <use x="63.623047" xlink:href="#DejaVuSans-48"/>
      </g>
     </g>
    </g>
    <g id="xtick_6">
     <g id="line2d_6">
      <g>
       <use style="stroke:#000000;stroke-width:0.8;" x="398.487273" xlink:href="#m0458fda009" y="307.584"/>
      </g>
     </g>
     <g id="text_6">
      <!-- 100 -->
      <g transform="translate(388.943523 322.182437)scale(0.1 -0.1)">
       <defs>
        <path d="M 12.40625 8.296875 
L 28.515625 8.296875 
L 28.515625 63.921875 
L 10.984375 60.40625 
L 10.984375 69.390625 
L 28.421875 72.90625 
L 38.28125 72.90625 
L 38.28125 8.296875 
L 54.390625 8.296875 
L 54.390625 0 
L 12.40625 0 
z
" id="DejaVuSans-49"/>
       </defs>
       <use xlink:href="#DejaVuSans-49"/>
       <use x="63.623047" xlink:href="#DejaVuSans-48"/>
       <use x="127.246094" xlink:href="#DejaVuSans-48"/>
      </g>
     </g>
    </g>
    <g id="text_7">
     <!-- Tiradas -->
     <g transform="translate(217.910781 335.860562)scale(0.1 -0.1)">
      <defs>
       <path d="M -0.296875 72.90625 
L 61.375 72.90625 
L 61.375 64.59375 
L 35.5 64.59375 
L 35.5 0 
L 25.59375 0 
L 25.59375 64.59375 
L -0.296875 64.59375 
z
" id="DejaVuSans-84"/>
       <path d="M 9.421875 54.6875 
L 18.40625 54.6875 
L 18.40625 0 
L 9.421875 0 
z
M 9.421875 75.984375 
L 18.40625 75.984375 
L 18.40625 64.59375 
L 9.421875 64.59375 
z
" id="DejaVuSans-105"/>
       <path d="M 41.109375 46.296875 
Q 39.59375 47.171875 37.8125 47.578125 
Q 36.03125 48 33.890625 48 
Q 26.265625 48 22.1875 43.046875 
Q 18.109375 38.09375 18.109375 28.8125 
L 18.109375 0 
L 9.078125 0 
L 9.078125 54.6875 
L 18.109375 54.6875 
L 18.109375 46.1875 
Q 20.953125 51.171875 25.484375 53.578125 
Q 30.03125 56 36.53125 56 
Q 37.453125 56 38.578125 55.875 
Q 39.703125 55.765625 41.0625 55.515625 
z
" id="DejaVuSans-114"/>
       <path d="M 34.28125 27.484375 
Q 23.390625 27.484375 19.1875 25 
Q 14.984375 22.515625 14.984375 16.5 
Q 14.984375 11.71875 18.140625 8.90625 
Q 21.296875 6.109375 26.703125 6.109375 
Q 34.1875 6.109375 38.703125 11.40625 
Q 43.21875 16.703125 43.21875 25.484375 
L 43.21875 27.484375 
z
M 52.203125 31.203125 
L 52.203125 0 
L 43.21875 0 
L 43.21875 8.296875 
Q 40.140625 3.328125 35.546875 0.953125 
Q 30.953125 -1.421875 24.3125 -1.421875 
Q 15.921875 -1.421875 10.953125 3.296875 
Q 6 8.015625 6 15.921875 
Q 6 25.140625 12.171875 29.828125 
Q 18.359375 34.515625 30.609375 34.515625 
L 43.21875 34.515625 
L 43.21875 35.40625 
Q 43.21875 41.609375 39.140625 45 
Q 35.0625 48.390625 27.6875 48.390625 
Q 23 48.390625 18.546875 47.265625 
Q 14.109375 46.140625 10.015625 43.890625 
L 10.015625 52.203125 
Q 14.9375 54.109375 19.578125 55.046875 
Q 24.21875 56 28.609375 56 
Q 40.484375 56 46.34375 49.84375 
Q 52.203125 43.703125 52.203125 31.203125 
z
" id="DejaVuSans-97"/>
       <path d="M 45.40625 46.390625 
L 45.40625 75.984375 
L 54.390625 75.984375 
L 54.390625 0 
L 45.40625 0 
L 45.40625 8.203125 
Q 42.578125 3.328125 38.25 0.953125 
Q 33.9375 -1.421875 27.875 -1.421875 
Q 17.96875 -1.421875 11.734375 6.484375 
Q 5.515625 14.40625 5.515625 27.296875 
Q 5.515625 40.1875 11.734375 48.09375 
Q 17.96875 56 27.875 56 
Q 33.9375 56 38.25 53.625 
Q 42.578125 51.265625 45.40625 46.390625 
z
M 14.796875 27.296875 
Q 14.796875 17.390625 18.875 11.75 
Q 22.953125 6.109375 30.078125 6.109375 
Q 37.203125 6.109375 41.296875 11.75 
Q 45.40625 17.390625 45.40625 27.296875 
Q 45.40625 37.203125 41.296875 42.84375 
Q 37.203125 48.484375 30.078125 48.484375 
Q 22.953125 48.484375 18.875 42.84375 
Q 14.796875 37.203125 14.796875 27.296875 
z
" id="DejaVuSans-100"/>
       <path d="M 44.28125 53.078125 
L 44.28125 44.578125 
Q 40.484375 46.53125 36.375 47.5 
Q 32.28125 48.484375 27.875 48.484375 
Q 21.1875 48.484375 17.84375 46.4375 
Q 14.5 44.390625 14.5 40.28125 
Q 14.5 37.15625 16.890625 35.375 
Q 19.28125 33.59375 26.515625 31.984375 
L 29.59375 31.296875 
Q 39.15625 29.25 43.1875 25.515625 
Q 47.21875 21.78125 47.21875 15.09375 
Q 47.21875 7.46875 41.1875 3.015625 
Q 35.15625 -1.421875 24.609375 -1.421875 
Q 20.21875 -1.421875 15.453125 -0.5625 
Q 10.6875 0.296875 5.421875 2 
L 5.421875 11.28125 
Q 10.40625 8.6875 15.234375 7.390625 
Q 20.0625 6.109375 24.8125 6.109375 
Q 31.15625 6.109375 34.5625 8.28125 
Q 37.984375 10.453125 37.984375 14.40625 
Q 37.984375 18.0625 35.515625 20.015625 
Q 33.0625 21.96875 24.703125 23.78125 
L 21.578125 24.515625 
Q 13.234375 26.265625 9.515625 29.90625 
Q 5.8125 33.546875 5.8125 39.890625 
Q 5.8125 47.609375 11.28125 51.796875 
Q 16.75 56 26.8125 56 
Q 31.78125 56 36.171875 55.265625 
Q 40.578125 54.546875 44.28125 53.078125 
z
" id="DejaVuSans-115"/>
      </defs>
      <use xlink:href="#DejaVuSans-84"/>
      <use x="57.958984" xlink:href="#DejaVuSans-105"/>
      <use x="85.742188" xlink:href="#DejaVuSans-114"/>
      <use x="126.855469" xlink:href="#DejaVuSans-97"/>
      <use x="188.134766" xlink:href="#DejaVuSans-100"/>
      <use x="251.611328" xlink:href="#DejaVuSans-97"/>
      <use x="312.890625" xlink:href="#DejaVuSans-115"/>
     </g>
    </g>
   </g>
   <g id="matplotlib.axis_2">
    <g id="ytick_1">
     <g id="line2d_7">
      <defs>
       <path d="M 0 0 
L -3.5 0 
" id="m22b28b788e" style="stroke:#000000;stroke-width:0.8;"/>
      </defs>
      <g>
       <use style="stroke:#000000;stroke-width:0.8;" x="57.6" xlink:href="#m22b28b788e" y="295.488"/>
      </g>
     </g>
     <g id="text_8">
      <!-- 0.0 -->
      <g transform="translate(34.696875 299.287219)scale(0.1 -0.1)">
       <defs>
        <path d="M 10.6875 12.40625 
L 21 12.40625 
L 21 0 
L 10.6875 0 
z
" id="DejaVuSans-46"/>
       </defs>
       <use xlink:href="#DejaVuSans-48"/>
       <use x="63.623047" xlink:href="#DejaVuSans-46"/>
       <use x="95.410156" xlink:href="#DejaVuSans-48"/>
      </g>
     </g>
    </g>
    <g id="ytick_2">
     <g id="line2d_8">
      <g>
       <use style="stroke:#000000;stroke-width:0.8;" x="57.6" xlink:href="#m22b28b788e" y="247.104"/>
      </g>
     </g>
     <g id="text_9">
      <!-- 0.2 -->
      <g transform="translate(34.696875 250.903219)scale(0.1 -0.1)">
       <use xlink:href="#DejaVuSans-48"/>
       <use x="63.623047" xlink:href="#DejaVuSans-46"/>
       <use x="95.410156" xlink:href="#DejaVuSans-50"/>
      </g>
     </g>
    </g>
    <g id="ytick_3">
     <g id="line2d_9">
      <g>
       <use style="stroke:#000000;stroke-width:0.8;" x="57.6" xlink:href="#m22b28b788e" y="198.72"/>
      </g>
     </g>
     <g id="text_10">
      <!-- 0.4 -->
      <g transform="translate(34.696875 202.519219)scale(0.1 -0.1)">
       <use xlink:href="#DejaVuSans-48"/>
       <use x="63.623047" xlink:href="#DejaVuSans-46"/>
       <use x="95.410156" xlink:href="#DejaVuSans-52"/>
      </g>
     </g>
    </g>
    <g id="ytick_4">
     <g id="line2d_10">
      <g>
       <use style="stroke:#000000;stroke-width:0.8;" x="57.6" xlink:href="#m22b28b788e" y="150.336"/>
      </g>
     </g>
     <g id="text_11">
      <!-- 0.6 -->
      <g transform="translate(34.696875 154.135219)scale(0.1 -0.1)">
       <use xlink:href="#DejaVuSans-48"/>
       <use x="63.623047" xlink:href="#DejaVuSans-46"/>
       <use x="95.410156" xlink:href="#DejaVuSans-54"/>
      </g>
     </g>
    </g>
    <g id="ytick_5">
     <g id="line2d_11">
      <g>
       <use style="stroke:#000000;stroke-width:0.8;" x="57.6" xlink:href="#m22b28b788e" y="101.952"/>
      </g>
     </g>
     <g id="text_12">
      <!-- 0.8 -->
      <g transform="translate(34.696875 105.751219)scale(0.1 -0.1)">
       <use xlink:href="#DejaVuSans-48"/>
       <use x="63.623047" xlink:href="#DejaVuSans-46"/>
       <use x="95.410156" xlink:href="#DejaVuSans-56"/>
      </g>
     </g>
    </g>
    <g id="ytick_6">
     <g id="line2d_12">
      <g>
       <use style="stroke:#000000;stroke-width:0.8;" x="57.6" xlink:href="#m22b28b788e" y="53.568"/>
      </g>
     </g>
     <g id="text_13">
      <!-- 1.0 -->
      <g transform="translate(34.696875 57.367219)scale(0.1 -0.1)">
       <use xlink:href="#DejaVuSans-49"/>
       <use x="63.623047" xlink:href="#DejaVuSans-46"/>
       <use x="95.410156" xlink:href="#DejaVuSans-48"/>
      </g>
     </g>
    </g>
    <g id="text_14">
     <!-- Frecuencias relativas -->
     <g transform="translate(28.617187 227.070188)rotate(-90)scale(0.1 -0.1)">
      <defs>
       <path d="M 9.8125 72.90625 
L 51.703125 72.90625 
L 51.703125 64.59375 
L 19.671875 64.59375 
L 19.671875 43.109375 
L 48.578125 43.109375 
L 48.578125 34.8125 
L 19.671875 34.8125 
L 19.671875 0 
L 9.8125 0 
z
" id="DejaVuSans-70"/>
       <path d="M 56.203125 29.59375 
L 56.203125 25.203125 
L 14.890625 25.203125 
Q 15.484375 15.921875 20.484375 11.0625 
Q 25.484375 6.203125 34.421875 6.203125 
Q 39.59375 6.203125 44.453125 7.46875 
Q 49.3125 8.734375 54.109375 11.28125 
L 54.109375 2.78125 
Q 49.265625 0.734375 44.1875 -0.34375 
Q 39.109375 -1.421875 33.890625 -1.421875 
Q 20.796875 -1.421875 13.15625 6.1875 
Q 5.515625 13.8125 5.515625 26.8125 
Q 5.515625 40.234375 12.765625 48.109375 
Q 20.015625 56 32.328125 56 
Q 43.359375 56 49.78125 48.890625 
Q 56.203125 41.796875 56.203125 29.59375 
z
M 47.21875 32.234375 
Q 47.125 39.59375 43.09375 43.984375 
Q 39.0625 48.390625 32.421875 48.390625 
Q 24.90625 48.390625 20.390625 44.140625 
Q 15.875 39.890625 15.1875 32.171875 
z
" id="DejaVuSans-101"/>
       <path d="M 48.78125 52.59375 
L 48.78125 44.1875 
Q 44.96875 46.296875 41.140625 47.34375 
Q 37.3125 48.390625 33.40625 48.390625 
Q 24.65625 48.390625 19.8125 42.84375 
Q 14.984375 37.3125 14.984375 27.296875 
Q 14.984375 17.28125 19.8125 11.734375 
Q 24.65625 6.203125 33.40625 6.203125 
Q 37.3125 6.203125 41.140625 7.25 
Q 44.96875 8.296875 48.78125 10.40625 
L 48.78125 2.09375 
Q 45.015625 0.34375 40.984375 -0.53125 
Q 36.96875 -1.421875 32.421875 -1.421875 
Q 20.0625 -1.421875 12.78125 6.34375 
Q 5.515625 14.109375 5.515625 27.296875 
Q 5.515625 40.671875 12.859375 48.328125 
Q 20.21875 56 33.015625 56 
Q 37.15625 56 41.109375 55.140625 
Q 45.0625 54.296875 48.78125 52.59375 
z
" id="DejaVuSans-99"/>
       <path d="M 8.5 21.578125 
L 8.5 54.6875 
L 17.484375 54.6875 
L 17.484375 21.921875 
Q 17.484375 14.15625 20.5 10.265625 
Q 23.53125 6.390625 29.59375 6.390625 
Q 36.859375 6.390625 41.078125 11.03125 
Q 45.3125 15.671875 45.3125 23.6875 
L 45.3125 54.6875 
L 54.296875 54.6875 
L 54.296875 0 
L 45.3125 0 
L 45.3125 8.40625 
Q 42.046875 3.421875 37.71875 1 
Q 33.40625 -1.421875 27.6875 -1.421875 
Q 18.265625 -1.421875 13.375 4.4375 
Q 8.5 10.296875 8.5 21.578125 
z
M 31.109375 56 
z
" id="DejaVuSans-117"/>
       <path d="M 54.890625 33.015625 
L 54.890625 0 
L 45.90625 0 
L 45.90625 32.71875 
Q 45.90625 40.484375 42.875 44.328125 
Q 39.84375 48.1875 33.796875 48.1875 
Q 26.515625 48.1875 22.3125 43.546875 
Q 18.109375 38.921875 18.109375 30.90625 
L 18.109375 0 
L 9.078125 0 
L 9.078125 54.6875 
L 18.109375 54.6875 
L 18.109375 46.1875 
Q 21.34375 51.125 25.703125 53.5625 
Q 30.078125 56 35.796875 56 
Q 45.21875 56 50.046875 50.171875 
Q 54.890625 44.34375 54.890625 33.015625 
z
" id="DejaVuSans-110"/>
       <path id="DejaVuSans-32"/>
       <path d="M 9.421875 75.984375 
L 18.40625 75.984375 
L 18.40625 0 
L 9.421875 0 
z
" id="DejaVuSans-108"/>
       <path d="M 18.3125 70.21875 
L 18.3125 54.6875 
L 36.8125 54.6875 
L 36.8125 47.703125 
L 18.3125 47.703125 
L 18.3125 18.015625 
Q 18.3125 11.328125 20.140625 9.421875 
Q 21.96875 7.515625 27.59375 7.515625 
L 36.8125 7.515625 
L 36.8125 0 
L 27.59375 0 
Q 17.1875 0 13.234375 3.875 
Q 9.28125 7.765625 9.28125 18.015625 
L 9.28125 47.703125 
L 2.6875 47.703125 
L 2.6875 54.6875 
L 9.28125 54.6875 
L 9.28125 70.21875 
z
" id="DejaVuSans-116"/>
       <path d="M 2.984375 54.6875 
L 12.5 54.6875 
L 29.59375 8.796875 
L 46.6875 54.6875 
L 56.203125 54.6875 
L 35.6875 0 
L 23.484375 0 
z
" id="DejaVuSans-118"/>
      </defs>
      <use xlink:href="#DejaVuSans-70"/>
      <use x="50.269531" xlink:href="#DejaVuSans-114"/>
      <use x="89.132812" xlink:href="#DejaVuSans-101"/>
      <use x="150.65625" xlink:href="#DejaVuSans-99"/>
      <use x="205.636719" xlink:href="#DejaVuSans-117"/>
      <use x="269.015625" xlink:href="#DejaVuSans-101"/>
      <use x="330.539062" xlink:href="#DejaVuSans-110"/>
      <use x="393.917969" xlink:href="#DejaVuSans-99"/>
      <use x="448.898438" xlink:href="#DejaVuSans-105"/>
      <use x="476.681641" xlink:href="#DejaVuSans-97"/>
      <use x="537.960938" xlink:href="#DejaVuSans-115"/>
      <use x="590.060547" xlink:href="#DejaVuSans-32"/>
      <use x="621.847656" xlink:href="#DejaVuSans-114"/>
      <use x="660.710938" xlink:href="#DejaVuSans-101"/>
      <use x="722.234375" xlink:href="#DejaVuSans-108"/>
      <use x="750.017578" xlink:href="#DejaVuSans-97"/>
      <use x="811.296875" xlink:href="#DejaVuSans-116"/>
      <use x="850.505859" xlink:href="#DejaVuSans-105"/>
      <use x="878.289062" xlink:href="#DejaVuSans-118"/>
      <use x="937.46875" xlink:href="#DejaVuSans-97"/>
      <use x="998.748047" xlink:href="#DejaVuSans-115"/>
     </g>
    </g>
   </g>
   <g id="line2d_13">
    <path clip-path="url(#p45fdbedf17)" d="M 73.832727 53.568 
L 77.112066 174.528 
L 80.391405 134.208 
L 83.670744 174.528 
L 86.950083 150.336 
L 90.229421 134.208 
L 93.50876 157.248 
L 96.788099 144.288 
L 100.067438 134.208 
L 103.346777 150.336 
L 106.626116 141.538909 
L 109.905455 134.208 
L 113.184793 128.004923 
L 116.464132 122.688 
L 119.743471 118.08 
L 123.02281 114.048 
L 126.302149 110.490353 
L 129.581488 120.768 
L 132.860826 117.231158 
L 136.140165 126.144 
L 139.419504 134.208 
L 142.698843 130.542545 
L 145.978182 127.195826 
L 149.257521 134.208 
L 152.53686 130.9824 
L 155.816198 137.309538 
L 159.095537 134.208 
L 162.374876 131.328 
L 165.654215 128.646621 
L 168.933554 134.208 
L 172.212893 139.410581 
L 175.492231 144.288 
L 178.77157 141.538909 
L 182.050909 138.951529 
L 185.330248 136.512 
L 188.609587 140.928 
L 191.888926 138.566919 
L 195.168264 142.696421 
L 198.447603 146.614154 
L 201.726942 144.288 
L 205.006281 147.975805 
L 208.28562 145.728 
L 211.564959 143.584744 
L 214.844298 147.037091 
L 218.123636 150.336 
L 221.402975 148.232348 
L 224.682314 151.365447 
L 227.961653 154.368 
L 231.240992 152.310857 
L 234.520331 155.1744 
L 237.799669 153.182118 
L 241.079008 155.918769 
L 244.358347 158.552151 
L 247.637686 161.088 
L 250.917025 159.133091 
L 254.196364 157.248 
L 257.475702 155.429053 
L 260.755041 153.672828 
L 264.03438 156.076475 
L 267.313719 158.4 
L 270.593058 156.681443 
L 273.872397 158.920258 
L 277.151736 157.248 
L 280.431074 155.628 
L 283.710413 157.779692 
L 286.989752 156.200727 
L 290.269091 154.668896 
L 293.54843 153.182118 
L 296.827769 155.244522 
L 300.107107 157.248 
L 303.386446 155.787718 
L 306.665785 154.368 
L 309.945124 152.987178 
L 313.224463 151.643676 
L 316.503802 150.336 
L 319.78314 149.062737 
L 323.062479 147.822545 
L 326.341818 146.614154 
L 329.621157 145.436354 
L 332.900496 144.288 
L 336.179835 146.154667 
L 339.459174 147.975805 
L 342.738512 146.838361 
L 346.017851 148.608 
L 349.29719 147.489882 
L 352.576529 149.210791 
L 355.855868 148.111448 
L 359.135207 147.037091 
L 362.414545 148.705079 
L 365.693884 147.648 
L 368.973223 146.614154 
L 372.252562 145.602783 
L 375.531901 144.613161 
L 378.81124 143.644596 
L 382.090579 145.242947 
L 385.369917 144.288 
L 388.649256 145.846763 
L 391.928595 147.373714 
L 395.207934 148.869818 
L 398.487273 150.336 
" style="fill:none;stroke:#1f77b4;stroke-linecap:square;stroke-width:1.5;"/>
   </g>
   <g id="line2d_14">
    <path clip-path="url(#p45fdbedf17)" d="M 73.832727 295.488 
L 77.112066 174.528 
L 80.391405 214.848 
L 83.670744 174.528 
L 86.950083 198.72 
L 90.229421 214.848 
L 93.50876 226.368 
L 96.788099 235.008 
L 100.067438 214.848 
L 103.346777 198.72 
L 106.626116 185.524364 
L 109.905455 194.688 
L 113.184793 202.441846 
L 116.464132 191.808 
L 119.743471 182.592 
L 123.02281 189.648 
L 126.302149 195.873882 
L 129.581488 201.408 
L 132.860826 193.626947 
L 136.140165 186.624 
L 139.419504 191.808 
L 142.698843 196.520727 
L 145.978182 190.305391 
L 149.257521 194.688 
L 152.53686 198.72 
L 155.816198 202.441846 
L 159.095537 196.928 
L 162.374876 200.448 
L 165.654215 195.383172 
L 168.933554 190.656 
L 172.212893 194.037677 
L 175.492231 189.648 
L 178.77157 185.524364 
L 182.050909 188.758588 
L 185.330248 191.808 
L 188.609587 194.688 
L 191.888926 190.873946 
L 195.168264 193.626947 
L 198.447603 190.035692 
L 201.726942 186.624 
L 205.006281 183.378732 
L 208.28562 186.048 
L 211.564959 182.96707 
L 214.844298 180.026182 
L 218.123636 182.592 
L 221.402975 185.046261 
L 224.682314 187.396085 
L 227.961653 189.648 
L 231.240992 191.808 
L 234.520331 193.8816 
L 237.799669 191.130353 
L 241.079008 188.484923 
L 244.358347 190.503849 
L 247.637686 187.968 
L 250.917025 189.922909 
L 254.196364 191.808 
L 257.475702 193.626947 
L 260.755041 191.212138 
L 264.03438 188.879186 
L 267.313719 186.624 
L 270.593058 188.408656 
L 273.872397 190.135742 
L 277.151736 187.968 
L 280.431074 189.648 
L 283.710413 191.276308 
L 286.989752 192.855273 
L 290.269091 194.387104 
L 293.54843 192.316235 
L 296.827769 193.811478 
L 300.107107 191.808 
L 303.386446 193.268282 
L 306.665785 194.688 
L 309.945124 196.068822 
L 313.224463 194.143135 
L 316.503802 195.4944 
L 319.78314 196.810105 
L 323.062479 194.949818 
L 326.341818 196.238769 
L 329.621157 197.495089 
L 332.900496 195.696 
L 336.179835 196.928 
L 339.459174 195.179707 
L 342.738512 193.473542 
L 346.017851 191.808 
L 349.29719 193.027765 
L 352.576529 194.219163 
L 355.855868 195.383172 
L 359.135207 193.771636 
L 362.414545 194.914517 
L 365.693884 193.344 
L 368.973223 194.466462 
L 372.252562 192.934957 
L 375.531901 194.037677 
L 378.81124 195.116936 
L 382.090579 196.173474 
L 385.369917 194.688 
L 388.649256 193.233155 
L 391.928595 191.808 
L 395.207934 190.411636 
L 398.487273 189.0432 
" style="fill:none;stroke:#ff7f0e;stroke-linecap:square;stroke-width:1.5;"/>
   </g>
   <g id="line2d_15">
    <path clip-path="url(#p45fdbedf17)" d="M 73.832727 53.568 
L 77.112066 53.568 
L 80.391405 53.568 
L 83.670744 53.568 
L 86.950083 53.568 
L 90.229421 53.568 
L 93.50876 88.128 
L 96.788099 83.808 
L 100.067438 80.448 
L 103.346777 77.76 
L 106.626116 75.560727 
L 109.905455 73.728 
L 113.184793 90.786462 
L 116.464132 88.128 
L 119.743471 85.824 
L 123.02281 98.928 
L 126.302149 110.490353 
L 129.581488 120.768 
L 132.860826 117.231158 
L 136.140165 114.048 
L 139.419504 122.688 
L 142.698843 130.542545 
L 145.978182 137.714087 
L 149.257521 134.208 
L 152.53686 140.6592 
L 155.816198 137.309538 
L 159.095537 134.208 
L 162.374876 131.328 
L 165.654215 128.646621 
L 168.933554 134.208 
L 172.212893 139.410581 
L 175.492231 144.288 
L 178.77157 148.869818 
L 182.050909 153.182118 
L 185.330248 157.248 
L 188.609587 161.088 
L 191.888926 158.182054 
L 195.168264 155.429053 
L 198.447603 152.817231 
L 201.726942 150.336 
L 205.006281 147.975805 
L 208.28562 151.488 
L 211.564959 149.210791 
L 214.844298 147.037091 
L 218.123636 144.96 
L 221.402975 142.973217 
L 224.682314 141.070979 
L 227.961653 139.248 
L 231.240992 137.499429 
L 234.520331 140.6592 
L 237.799669 143.695059 
L 241.079008 146.614154 
L 244.358347 149.423094 
L 247.637686 147.648 
L 250.917025 145.937455 
L 254.196364 144.288 
L 257.475702 146.940632 
L 260.755041 145.330759 
L 264.03438 147.875797 
L 267.313719 146.304 
L 270.593058 144.783738 
L 273.872397 147.214452 
L 277.151736 145.728 
L 280.431074 148.068 
L 283.710413 146.614154 
L 286.989752 145.204364 
L 290.269091 143.836657 
L 293.54843 146.066824 
L 296.827769 144.726261 
L 300.107107 146.88 
L 303.386446 145.565746 
L 306.665785 147.648 
L 309.945124 146.359233 
L 313.224463 145.105297 
L 316.503802 143.8848 
L 319.78314 145.879579 
L 323.062479 147.822545 
L 326.341818 146.614154 
L 329.621157 145.436354 
L 332.900496 147.312 
L 336.179835 149.141333 
L 339.459174 150.926049 
L 342.738512 152.667759 
L 346.017851 154.368 
L 349.29719 156.028235 
L 352.576529 154.836837 
L 355.855868 153.672828 
L 359.135207 152.535273 
L 362.414545 154.141483 
L 365.693884 153.024 
L 368.973223 151.931077 
L 372.252562 150.861913 
L 375.531901 152.417032 
L 378.81124 153.939064 
L 382.090579 155.429053 
L 385.369917 156.888 
L 388.649256 158.316866 
L 391.928595 159.716571 
L 395.207934 161.088 
L 398.487273 162.432 
" style="fill:none;stroke:#2ca02c;stroke-linecap:square;stroke-width:1.5;"/>
   </g>
   <g id="line2d_16">
    <path clip-path="url(#p45fdbedf17)" d="M 73.832727 53.568 
L 77.112066 53.568 
L 80.391405 134.208 
L 83.670744 114.048 
L 86.950083 150.336 
L 90.229421 174.528 
L 93.50876 157.248 
L 96.788099 144.288 
L 100.067438 161.088 
L 103.346777 174.528 
L 106.626116 185.524364 
L 109.905455 174.528 
L 113.184793 165.223385 
L 116.464132 157.248 
L 119.743471 150.336 
L 123.02281 144.288 
L 126.302149 153.182118 
L 129.581488 147.648 
L 132.860826 142.696421 
L 136.140165 150.336 
L 139.419504 157.248 
L 142.698843 152.535273 
L 145.978182 158.750609 
L 149.257521 164.448 
L 152.53686 169.6896 
L 155.816198 174.528 
L 159.095537 179.008 
L 162.374876 174.528 
L 165.654215 170.356966 
L 168.933554 166.464 
L 172.212893 170.626065 
L 175.492231 174.528 
L 178.77157 178.193455 
L 182.050909 174.528 
L 185.330248 177.984 
L 188.609587 181.248 
L 191.888926 177.797189 
L 195.168264 180.894316 
L 198.447603 177.629538 
L 201.726942 174.528 
L 205.006281 171.577756 
L 208.28562 174.528 
L 211.564959 171.714977 
L 214.844298 174.528 
L 218.123636 177.216 
L 221.402975 174.528 
L 224.682314 177.101617 
L 227.961653 174.528 
L 231.240992 172.059429 
L 234.520331 169.6896 
L 237.799669 172.156235 
L 241.079008 169.875692 
L 244.358347 167.681208 
L 247.637686 165.568 
L 250.917025 167.930182 
L 254.196364 165.888 
L 257.475702 163.917474 
L 260.755041 166.185931 
L 264.03438 164.277153 
L 267.313719 166.464 
L 270.593058 164.613246 
L 273.872397 162.822194 
L 277.151736 161.088 
L 280.431074 163.188 
L 283.710413 165.223385 
L 286.989752 163.531636 
L 290.269091 161.890388 
L 293.54843 160.297412 
L 296.827769 162.256696 
L 300.107107 160.704 
L 303.386446 159.195042 
L 306.665785 157.728 
L 309.945124 156.301151 
L 313.224463 154.912865 
L 316.503802 156.7872 
L 319.78314 155.429053 
L 323.062479 154.106182 
L 326.341818 155.918769 
L 329.621157 154.62319 
L 332.900496 153.36 
L 336.179835 152.128 
L 339.459174 150.926049 
L 342.738512 152.667759 
L 346.017851 154.368 
L 349.29719 156.028235 
L 352.576529 157.64986 
L 355.855868 159.234207 
L 359.135207 158.033455 
L 362.414545 159.577888 
L 365.693884 158.4 
L 368.973223 159.906462 
L 372.252562 161.380174 
L 375.531901 162.822194 
L 378.81124 161.659915 
L 382.090579 160.522105 
L 385.369917 159.408 
L 388.649256 160.810887 
L 391.928595 162.185143 
L 395.207934 161.088 
L 398.487273 162.432 
" style="fill:none;stroke:#d62728;stroke-linecap:square;stroke-width:1.5;"/>
   </g>
   <g id="line2d_17">
    <path clip-path="url(#p45fdbedf17)" d="M 73.832727 53.568 
L 77.112066 174.528 
L 80.391405 214.848 
L 83.670744 174.528 
L 86.950083 150.336 
L 90.229421 174.528 
L 93.50876 191.808 
L 96.788099 204.768 
L 100.067438 214.848 
L 103.346777 198.72 
L 106.626116 185.524364 
L 109.905455 174.528 
L 113.184793 183.832615 
L 116.464132 174.528 
L 119.743471 166.464 
L 123.02281 159.408 
L 126.302149 167.412706 
L 129.581488 161.088 
L 132.860826 168.161684 
L 136.140165 162.432 
L 139.419504 168.768 
L 142.698843 163.531636 
L 145.978182 169.26887 
L 149.257521 164.448 
L 152.53686 160.0128 
L 155.816198 165.223385 
L 159.095537 170.048 
L 162.374876 165.888 
L 165.654215 162.014897 
L 168.933554 158.4 
L 172.212893 162.822194 
L 175.492231 159.408 
L 178.77157 163.531636 
L 182.050909 167.412706 
L 185.330248 164.16 
L 188.609587 161.088 
L 191.888926 158.182054 
L 195.168264 161.795368 
L 198.447603 165.223385 
L 201.726942 168.48 
L 205.006281 171.577756 
L 208.28562 174.528 
L 211.564959 177.341023 
L 214.844298 174.528 
L 218.123636 177.216 
L 221.402975 179.78713 
L 224.682314 182.248851 
L 227.961653 179.568 
L 231.240992 181.933714 
L 234.520331 179.3664 
L 237.799669 181.643294 
L 241.079008 179.180308 
L 244.358347 181.374792 
L 247.637686 179.008 
L 250.917025 181.125818 
L 254.196364 183.168 
L 257.475702 180.894316 
L 260.755041 178.699034 
L 264.03438 176.578169 
L 267.313719 174.528 
L 270.593058 172.545049 
L 273.872397 174.528 
L 277.151736 176.448 
L 280.431074 178.308 
L 283.710413 180.110769 
L 286.989752 178.193455 
L 290.269091 179.944119 
L 293.54843 178.085647 
L 296.827769 179.78713 
L 300.107107 181.44 
L 303.386446 179.638986 
L 306.665785 181.248 
L 309.945124 179.498959 
L 313.224463 177.797189 
L 316.503802 176.1408 
L 319.78314 174.528 
L 323.062479 176.098909 
L 326.341818 174.528 
L 329.621157 176.059139 
L 332.900496 177.552 
L 336.179835 176.021333 
L 339.459174 174.528 
L 342.738512 173.070651 
L 346.017851 174.528 
L 349.29719 175.951059 
L 352.576529 177.341023 
L 355.855868 178.699034 
L 359.135207 180.026182 
L 362.414545 181.323506 
L 365.693884 179.904 
L 368.973223 178.515692 
L 372.252562 177.157565 
L 375.531901 178.429935 
L 378.81124 179.675234 
L 382.090579 180.894316 
L 385.369917 182.088 
L 388.649256 183.257072 
L 391.928595 181.933714 
L 395.207934 180.637091 
L 398.487273 179.3664 
" style="fill:none;stroke:#9467bd;stroke-linecap:square;stroke-width:1.5;"/>
   </g>
   <g id="line2d_18">
    <path clip-path="url(#p45fdbedf17)" d="M 73.832727 295.488 
L 77.112066 174.528 
L 80.391405 214.848 
L 83.670744 174.528 
L 86.950083 198.72 
L 90.229421 214.848 
L 93.50876 226.368 
L 96.788099 204.768 
L 100.067438 187.968 
L 103.346777 174.528 
L 106.626116 163.531636 
L 109.905455 154.368 
L 113.184793 146.614154 
L 116.464132 139.968 
L 119.743471 134.208 
L 123.02281 144.288 
L 126.302149 138.951529 
L 129.581488 147.648 
L 132.860826 142.696421 
L 136.140165 138.24 
L 139.419504 134.208 
L 142.698843 130.542545 
L 145.978182 127.195826 
L 149.257521 124.128 
L 152.53686 130.9824 
L 155.816198 137.309538 
L 159.095537 143.168 
L 162.374876 148.608 
L 165.654215 145.330759 
L 168.933554 142.272 
L 172.212893 139.410581 
L 175.492231 136.728 
L 178.77157 141.538909 
L 182.050909 138.951529 
L 185.330248 143.424 
L 188.609587 140.928 
L 191.888926 145.105297 
L 195.168264 149.062737 
L 198.447603 152.817231 
L 201.726942 150.336 
L 205.006281 153.876293 
L 208.28562 151.488 
L 211.564959 149.210791 
L 214.844298 152.535273 
L 218.123636 155.712 
L 221.402975 158.750609 
L 224.682314 161.659915 
L 227.961653 164.448 
L 231.240992 162.185143 
L 234.520331 160.0128 
L 237.799669 157.925647 
L 241.079008 155.918769 
L 244.358347 158.552151 
L 247.637686 161.088 
L 250.917025 163.531636 
L 254.196364 165.888 
L 257.475702 168.161684 
L 260.755041 166.185931 
L 264.03438 168.377492 
L 267.313719 166.464 
L 270.593058 168.579148 
L 273.872397 166.724129 
L 277.151736 164.928 
L 280.431074 163.188 
L 283.710413 161.501538 
L 286.989752 163.531636 
L 290.269091 165.501134 
L 293.54843 163.855059 
L 296.827769 162.256696 
L 300.107107 160.704 
L 303.386446 162.602366 
L 306.665785 161.088 
L 309.945124 159.615123 
L 313.224463 158.182054 
L 316.503802 160.0128 
L 319.78314 161.795368 
L 323.062479 163.531636 
L 326.341818 162.121846 
L 329.621157 160.747747 
L 332.900496 159.408 
L 336.179835 161.088 
L 339.459174 159.77678 
L 342.738512 158.497157 
L 346.017851 160.128 
L 349.29719 158.874353 
L 352.576529 157.64986 
L 355.855868 159.234207 
L 359.135207 160.782545 
L 362.414545 159.577888 
L 365.693884 158.4 
L 368.973223 157.248 
L 372.252562 156.121043 
L 375.531901 157.619613 
L 378.81124 159.086298 
L 382.090579 160.522105 
L 385.369917 159.408 
L 388.649256 158.316866 
L 391.928595 159.716571 
L 395.207934 158.644364 
L 398.487273 160.0128 
" style="fill:none;stroke:#8c564b;stroke-linecap:square;stroke-width:1.5;"/>
   </g>
   <g id="line2d_19">
    <path clip-path="url(#p45fdbedf17)" d="M 73.832727 295.488 
L 77.112066 295.488 
L 80.391405 295.488 
L 83.670744 235.008 
L 86.950083 247.104 
L 90.229421 255.168 
L 93.50876 260.928 
L 96.788099 235.008 
L 100.067438 241.728 
L 103.346777 247.104 
L 106.626116 229.509818 
L 109.905455 235.008 
L 113.184793 221.051077 
L 116.464132 226.368 
L 119.743471 230.976 
L 123.02281 219.888 
L 126.302149 210.104471 
L 129.581488 201.408 
L 132.860826 206.359579 
L 136.140165 210.816 
L 139.419504 203.328 
L 142.698843 196.520727 
L 145.978182 200.823652 
L 149.257521 194.688 
L 152.53686 198.72 
L 155.816198 193.137231 
L 159.095537 196.928 
L 162.374876 200.448 
L 165.654215 195.383172 
L 168.933554 190.656 
L 172.212893 194.037677 
L 175.492231 189.648 
L 178.77157 185.524364 
L 182.050909 188.758588 
L 185.330248 191.808 
L 188.609587 194.688 
L 191.888926 190.873946 
L 195.168264 187.260632 
L 198.447603 183.832615 
L 201.726942 186.624 
L 205.006281 189.27922 
L 208.28562 186.048 
L 211.564959 188.593116 
L 214.844298 185.524364 
L 218.123636 182.592 
L 221.402975 179.78713 
L 224.682314 177.101617 
L 227.961653 179.568 
L 231.240992 181.933714 
L 234.520331 179.3664 
L 237.799669 176.899765 
L 241.079008 179.180308 
L 244.358347 181.374792 
L 247.637686 183.488 
L 250.917025 185.524364 
L 254.196364 187.488 
L 257.475702 185.138526 
L 260.755041 182.870069 
L 264.03438 180.678508 
L 267.313719 178.56 
L 270.593058 180.476852 
L 273.872397 178.429935 
L 277.151736 180.288 
L 280.431074 178.308 
L 283.710413 180.110769 
L 286.989752 181.858909 
L 290.269091 179.944119 
L 293.54843 178.085647 
L 296.827769 176.281043 
L 300.107107 177.984 
L 303.386446 176.231662 
L 306.665785 177.888 
L 309.945124 176.184986 
L 313.224463 177.797189 
L 316.503802 176.1408 
L 319.78314 174.528 
L 323.062479 176.098909 
L 326.341818 177.629538 
L 329.621157 179.121418 
L 332.900496 177.552 
L 336.179835 176.021333 
L 339.459174 177.478244 
L 342.738512 178.900048 
L 346.017851 180.288 
L 349.29719 178.797176 
L 352.576529 180.154047 
L 355.855868 178.699034 
L 359.135207 177.277091 
L 362.414545 178.605303 
L 365.693884 179.904 
L 368.973223 181.174154 
L 372.252562 182.416696 
L 375.531901 181.031226 
L 378.81124 182.248851 
L 382.090579 183.440842 
L 385.369917 182.088 
L 388.649256 183.257072 
L 391.928595 181.933714 
L 395.207934 180.637091 
L 398.487273 181.7856 
" style="fill:none;stroke:#e377c2;stroke-linecap:square;stroke-width:1.5;"/>
   </g>
   <g id="line2d_20">
    <path clip-path="url(#p45fdbedf17)" d="M 73.832727 295.488 
L 77.112066 295.488 
L 80.391405 295.488 
L 83.670744 235.008 
L 86.950083 247.104 
L 90.229421 214.848 
L 93.50876 226.368 
L 96.788099 235.008 
L 100.067438 241.728 
L 103.346777 247.104 
L 106.626116 251.502545 
L 109.905455 255.168 
L 113.184793 239.660308 
L 116.464132 226.368 
L 119.743471 230.976 
L 123.02281 235.008 
L 126.302149 238.565647 
L 129.581488 241.728 
L 132.860826 231.824842 
L 136.140165 235.008 
L 139.419504 237.888 
L 142.698843 240.506182 
L 145.978182 242.896696 
L 149.257521 245.088 
L 152.53686 247.104 
L 155.816198 248.964923 
L 159.095537 250.688 
L 162.374876 243.648 
L 165.654215 237.093517 
L 168.933554 239.04 
L 172.212893 240.860903 
L 175.492231 235.008 
L 178.77157 236.840727 
L 182.050909 231.450353 
L 185.330248 226.368 
L 188.609587 228.288 
L 191.888926 230.104216 
L 195.168264 225.458526 
L 198.447603 227.254154 
L 201.726942 222.912 
L 205.006281 218.781659 
L 208.28562 214.848 
L 211.564959 216.723349 
L 214.844298 218.513455 
L 218.123636 214.848 
L 221.402975 216.601043 
L 224.682314 218.279489 
L 227.961653 219.888 
L 231.240992 221.430857 
L 234.520331 222.912 
L 237.799669 224.335059 
L 241.079008 221.051077 
L 244.358347 217.891019 
L 247.637686 214.848 
L 250.917025 211.915636 
L 254.196364 213.408 
L 257.475702 210.603789 
L 260.755041 212.06731 
L 264.03438 213.48122 
L 267.313719 214.848 
L 270.593058 212.204066 
L 273.872397 209.645419 
L 277.151736 207.168 
L 280.431074 204.768 
L 283.710413 206.163692 
L 286.989752 207.517091 
L 290.269091 208.83009 
L 293.54843 210.104471 
L 296.827769 211.341913 
L 300.107107 209.088 
L 303.386446 206.897577 
L 306.665785 208.128 
L 309.945124 209.324712 
L 313.224463 210.489081 
L 316.503802 208.3968 
L 319.78314 209.542737 
L 323.062479 210.658909 
L 326.341818 211.746462 
L 329.621157 209.744203 
L 332.900496 207.792 
L 336.179835 208.874667 
L 339.459174 209.930927 
L 342.738512 208.047036 
L 346.017851 209.088 
L 349.29719 207.258353 
L 352.576529 208.284279 
L 355.855868 206.505931 
L 359.135207 207.517091 
L 362.414545 208.505528 
L 365.693884 206.784 
L 368.973223 205.100308 
L 372.252562 206.082783 
L 375.531901 207.044129 
L 378.81124 205.411404 
L 382.090579 203.813053 
L 385.369917 204.768 
L 388.649256 203.209237 
L 391.928595 204.150857 
L 395.207934 205.073455 
L 398.487273 205.9776 
" style="fill:none;stroke:#7f7f7f;stroke-linecap:square;stroke-width:1.5;"/>
   </g>
   <g id="line2d_21">
    <path clip-path="url(#p45fdbedf17)" d="M 73.832727 295.488 
L 77.112066 295.488 
L 80.391405 295.488 
L 83.670744 235.008 
L 86.950083 198.72 
L 90.229421 214.848 
L 93.50876 191.808 
L 96.788099 174.528 
L 100.067438 161.088 
L 103.346777 150.336 
L 106.626116 163.531636 
L 109.905455 174.528 
L 113.184793 183.832615 
L 116.464132 191.808 
L 119.743471 198.72 
L 123.02281 189.648 
L 126.302149 195.873882 
L 129.581488 201.408 
L 132.860826 193.626947 
L 136.140165 186.624 
L 139.419504 180.288 
L 142.698843 174.528 
L 145.978182 169.26887 
L 149.257521 174.528 
L 152.53686 169.6896 
L 155.816198 174.528 
L 159.095537 179.008 
L 162.374876 174.528 
L 165.654215 178.699034 
L 168.933554 174.528 
L 172.212893 178.429935 
L 175.492231 182.088 
L 178.77157 185.524364 
L 182.050909 188.758588 
L 185.330248 191.808 
L 188.609587 187.968 
L 191.888926 184.335568 
L 195.168264 187.260632 
L 198.447603 190.035692 
L 201.726942 192.672 
L 205.006281 195.179707 
L 208.28562 191.808 
L 211.564959 188.593116 
L 214.844298 191.022545 
L 218.123636 193.344 
L 221.402975 195.564522 
L 224.682314 197.690553 
L 227.961653 194.688 
L 231.240992 191.808 
L 234.520331 189.0432 
L 237.799669 186.386824 
L 241.079008 188.484923 
L 244.358347 185.939321 
L 247.637686 183.488 
L 250.917025 185.524364 
L 254.196364 183.168 
L 257.475702 185.138526 
L 260.755041 187.041103 
L 264.03438 188.879186 
L 267.313719 186.624 
L 270.593058 184.442754 
L 273.872397 186.233806 
L 277.151736 184.128 
L 280.431074 182.088 
L 283.710413 183.832615 
L 286.989752 185.524364 
L 290.269091 183.554866 
L 293.54843 185.200941 
L 296.827769 183.293217 
L 300.107107 181.44 
L 303.386446 179.638986 
L 306.665785 177.888 
L 309.945124 179.498959 
L 313.224463 181.066378 
L 316.503802 179.3664 
L 319.78314 177.711158 
L 323.062479 179.240727 
L 326.341818 177.629538 
L 329.621157 176.059139 
L 332.900496 174.528 
L 336.179835 176.021333 
L 339.459174 177.478244 
L 342.738512 175.985349 
L 346.017851 177.408 
L 349.29719 178.797176 
L 352.576529 177.341023 
L 355.855868 175.918345 
L 359.135207 174.528 
L 362.414545 173.168899 
L 365.693884 174.528 
L 368.973223 175.857231 
L 372.252562 177.157565 
L 375.531901 178.429935 
L 378.81124 177.101617 
L 382.090579 175.801263 
L 385.369917 177.048 
L 388.649256 175.77501 
L 391.928595 174.528 
L 395.207934 173.306182 
L 398.487273 172.1088 
" style="fill:none;stroke:#bcbd22;stroke-linecap:square;stroke-width:1.5;"/>
   </g>
   <g id="line2d_22">
    <path clip-path="url(#p45fdbedf17)" d="M 73.832727 53.568 
L 77.112066 174.528 
L 80.391405 134.208 
L 83.670744 174.528 
L 86.950083 150.336 
L 90.229421 174.528 
L 93.50876 157.248 
L 96.788099 174.528 
L 100.067438 187.968 
L 103.346777 198.72 
L 106.626116 207.517091 
L 109.905455 214.848 
L 113.184793 202.441846 
L 116.464132 191.808 
L 119.743471 182.592 
L 123.02281 174.528 
L 126.302149 167.412706 
L 129.581488 161.088 
L 132.860826 168.161684 
L 136.140165 162.432 
L 139.419504 168.768 
L 142.698843 174.528 
L 145.978182 179.78713 
L 149.257521 174.528 
L 152.53686 169.6896 
L 155.816198 174.528 
L 159.095537 179.008 
L 162.374876 183.168 
L 165.654215 187.041103 
L 168.933554 182.592 
L 172.212893 178.429935 
L 175.492231 182.088 
L 178.77157 178.193455 
L 182.050909 181.643294 
L 185.330248 177.984 
L 188.609587 181.248 
L 191.888926 184.335568 
L 195.168264 180.894316 
L 198.447603 183.832615 
L 201.726942 186.624 
L 205.006281 189.27922 
L 208.28562 186.048 
L 211.564959 188.593116 
L 214.844298 191.022545 
L 218.123636 193.344 
L 221.402975 195.564522 
L 224.682314 197.690553 
L 227.961653 199.728 
L 231.240992 196.745143 
L 234.520331 198.72 
L 237.799669 200.617412 
L 241.079008 197.789538 
L 244.358347 199.632906 
L 247.637686 201.408 
L 250.917025 203.118545 
L 254.196364 200.448 
L 257.475702 197.871158 
L 260.755041 199.554207 
L 264.03438 201.180203 
L 267.313719 202.752 
L 270.593058 200.306361 
L 273.872397 201.841548 
L 277.151736 203.328 
L 280.431074 200.988 
L 283.710413 202.441846 
L 286.989752 203.851636 
L 290.269091 201.608597 
L 293.54843 199.431529 
L 296.827769 197.317565 
L 300.107107 198.72 
L 303.386446 196.675606 
L 306.665785 198.048 
L 309.945124 196.068822 
L 313.224463 197.412324 
L 316.503802 198.72 
L 319.78314 196.810105 
L 323.062479 198.091636 
L 326.341818 196.238769 
L 329.621157 197.495089 
L 332.900496 195.696 
L 336.179835 193.941333 
L 339.459174 195.179707 
L 342.738512 196.388241 
L 346.017851 197.568 
L 349.29719 198.72 
L 352.576529 199.845209 
L 355.855868 198.163862 
L 359.135207 199.269818 
L 362.414545 200.350921 
L 365.693884 201.408 
L 368.973223 199.783385 
L 372.252562 200.823652 
L 375.531901 199.240258 
L 378.81124 200.26417 
L 382.090579 198.72 
L 385.369917 197.208 
L 388.649256 195.727175 
L 391.928595 196.745143 
L 395.207934 197.742545 
L 398.487273 198.72 
" style="fill:none;stroke:#17becf;stroke-linecap:square;stroke-width:1.5;"/>
   </g>
   <g id="patch_3">
    <path d="M 57.6 307.584 
L 57.6 41.472 
" style="fill:none;stroke:#000000;stroke-linecap:square;stroke-linejoin:miter;stroke-width:0.8;"/>
   </g>
   <g id="patch_4">
    <path d="M 414.72 307.584 
L 414.72 41.472 
" style="fill:none;stroke:#000000;stroke-linecap:square;stroke-linejoin:miter;stroke-width:0.8;"/>
   </g>
   <g id="patch_5">
    <path d="M 57.6 307.584 
L 414.72 307.584 
" style="fill:none;stroke:#000000;stroke-linecap:square;stroke-linejoin:miter;stroke-width:0.8;"/>
   </g>
   <g id="patch_6">
    <path d="M 57.6 41.472 
L 414.72 41.472 
" style="fill:none;stroke:#000000;stroke-linecap:square;stroke-linejoin:miter;stroke-width:0.8;"/>
   </g>
   <g id="text_15">
    <!-- Grafico frecuencias relativas rojos apuesta simple F.I: $150000.0 -->
    <g transform="translate(41.995313 35.472)scale(0.12 -0.12)">
     <defs>
      <path d="M 59.515625 10.40625 
L 59.515625 29.984375 
L 43.40625 29.984375 
L 43.40625 38.09375 
L 69.28125 38.09375 
L 69.28125 6.78125 
Q 63.578125 2.734375 56.6875 0.65625 
Q 49.8125 -1.421875 42 -1.421875 
Q 24.90625 -1.421875 15.25 8.5625 
Q 5.609375 18.5625 5.609375 36.375 
Q 5.609375 54.25 15.25 64.234375 
Q 24.90625 74.21875 42 74.21875 
Q 49.125 74.21875 55.546875 72.453125 
Q 61.96875 70.703125 67.390625 67.28125 
L 67.390625 56.78125 
Q 61.921875 61.421875 55.765625 63.765625 
Q 49.609375 66.109375 42.828125 66.109375 
Q 29.4375 66.109375 22.71875 58.640625 
Q 16.015625 51.171875 16.015625 36.375 
Q 16.015625 21.625 22.71875 14.15625 
Q 29.4375 6.6875 42.828125 6.6875 
Q 48.046875 6.6875 52.140625 7.59375 
Q 56.25 8.5 59.515625 10.40625 
z
" id="DejaVuSans-71"/>
      <path d="M 37.109375 75.984375 
L 37.109375 68.5 
L 28.515625 68.5 
Q 23.6875 68.5 21.796875 66.546875 
Q 19.921875 64.59375 19.921875 59.515625 
L 19.921875 54.6875 
L 34.71875 54.6875 
L 34.71875 47.703125 
L 19.921875 47.703125 
L 19.921875 0 
L 10.890625 0 
L 10.890625 47.703125 
L 2.296875 47.703125 
L 2.296875 54.6875 
L 10.890625 54.6875 
L 10.890625 58.5 
Q 10.890625 67.625 15.140625 71.796875 
Q 19.390625 75.984375 28.609375 75.984375 
z
" id="DejaVuSans-102"/>
      <path d="M 30.609375 48.390625 
Q 23.390625 48.390625 19.1875 42.75 
Q 14.984375 37.109375 14.984375 27.296875 
Q 14.984375 17.484375 19.15625 11.84375 
Q 23.34375 6.203125 30.609375 6.203125 
Q 37.796875 6.203125 41.984375 11.859375 
Q 46.1875 17.53125 46.1875 27.296875 
Q 46.1875 37.015625 41.984375 42.703125 
Q 37.796875 48.390625 30.609375 48.390625 
z
M 30.609375 56 
Q 42.328125 56 49.015625 48.375 
Q 55.71875 40.765625 55.71875 27.296875 
Q 55.71875 13.875 49.015625 6.21875 
Q 42.328125 -1.421875 30.609375 -1.421875 
Q 18.84375 -1.421875 12.171875 6.21875 
Q 5.515625 13.875 5.515625 27.296875 
Q 5.515625 40.765625 12.171875 48.375 
Q 18.84375 56 30.609375 56 
z
" id="DejaVuSans-111"/>
      <path d="M 9.421875 54.6875 
L 18.40625 54.6875 
L 18.40625 -0.984375 
Q 18.40625 -11.421875 14.421875 -16.109375 
Q 10.453125 -20.796875 1.609375 -20.796875 
L -1.8125 -20.796875 
L -1.8125 -13.1875 
L 0.59375 -13.1875 
Q 5.71875 -13.1875 7.5625 -10.8125 
Q 9.421875 -8.453125 9.421875 -0.984375 
z
M 9.421875 75.984375 
L 18.40625 75.984375 
L 18.40625 64.59375 
L 9.421875 64.59375 
z
" id="DejaVuSans-106"/>
      <path d="M 18.109375 8.203125 
L 18.109375 -20.796875 
L 9.078125 -20.796875 
L 9.078125 54.6875 
L 18.109375 54.6875 
L 18.109375 46.390625 
Q 20.953125 51.265625 25.265625 53.625 
Q 29.59375 56 35.59375 56 
Q 45.5625 56 51.78125 48.09375 
Q 58.015625 40.1875 58.015625 27.296875 
Q 58.015625 14.40625 51.78125 6.484375 
Q 45.5625 -1.421875 35.59375 -1.421875 
Q 29.59375 -1.421875 25.265625 0.953125 
Q 20.953125 3.328125 18.109375 8.203125 
z
M 48.6875 27.296875 
Q 48.6875 37.203125 44.609375 42.84375 
Q 40.53125 48.484375 33.40625 48.484375 
Q 26.265625 48.484375 22.1875 42.84375 
Q 18.109375 37.203125 18.109375 27.296875 
Q 18.109375 17.390625 22.1875 11.75 
Q 26.265625 6.109375 33.40625 6.109375 
Q 40.53125 6.109375 44.609375 11.75 
Q 48.6875 17.390625 48.6875 27.296875 
z
" id="DejaVuSans-112"/>
      <path d="M 52 44.1875 
Q 55.375 50.25 60.0625 53.125 
Q 64.75 56 71.09375 56 
Q 79.640625 56 84.28125 50.015625 
Q 88.921875 44.046875 88.921875 33.015625 
L 88.921875 0 
L 79.890625 0 
L 79.890625 32.71875 
Q 79.890625 40.578125 77.09375 44.375 
Q 74.3125 48.1875 68.609375 48.1875 
Q 61.625 48.1875 57.5625 43.546875 
Q 53.515625 38.921875 53.515625 30.90625 
L 53.515625 0 
L 44.484375 0 
L 44.484375 32.71875 
Q 44.484375 40.625 41.703125 44.40625 
Q 38.921875 48.1875 33.109375 48.1875 
Q 26.21875 48.1875 22.15625 43.53125 
Q 18.109375 38.875 18.109375 30.90625 
L 18.109375 0 
L 9.078125 0 
L 9.078125 54.6875 
L 18.109375 54.6875 
L 18.109375 46.1875 
Q 21.1875 51.21875 25.484375 53.609375 
Q 29.78125 56 35.6875 56 
Q 41.65625 56 45.828125 52.96875 
Q 50 49.953125 52 44.1875 
z
" id="DejaVuSans-109"/>
      <path d="M 9.8125 72.90625 
L 19.671875 72.90625 
L 19.671875 0 
L 9.8125 0 
z
" id="DejaVuSans-73"/>
      <path d="M 11.71875 12.40625 
L 22.015625 12.40625 
L 22.015625 0 
L 11.71875 0 
z
M 11.71875 51.703125 
L 22.015625 51.703125 
L 22.015625 39.3125 
L 11.71875 39.3125 
z
" id="DejaVuSans-58"/>
      <path d="M 33.796875 -14.703125 
L 28.90625 -14.703125 
L 28.859375 0 
Q 23.734375 0.09375 18.609375 1.1875 
Q 13.484375 2.296875 8.296875 4.5 
L 8.296875 13.28125 
Q 13.28125 10.15625 18.375 8.5625 
Q 23.484375 6.984375 28.90625 6.9375 
L 28.90625 29.203125 
Q 18.109375 30.953125 13.203125 35.15625 
Q 8.296875 39.359375 8.296875 46.6875 
Q 8.296875 54.640625 13.625 59.21875 
Q 18.953125 63.8125 28.90625 64.5 
L 28.90625 75.984375 
L 33.796875 75.984375 
L 33.796875 64.65625 
Q 38.328125 64.453125 42.578125 63.6875 
Q 46.828125 62.9375 50.875 61.625 
L 50.875 53.078125 
Q 46.828125 55.125 42.546875 56.25 
Q 38.28125 57.375 33.796875 57.5625 
L 33.796875 36.71875 
Q 44.875 35.015625 50.09375 30.609375 
Q 55.328125 26.21875 55.328125 18.609375 
Q 55.328125 10.359375 49.78125 5.59375 
Q 44.234375 0.828125 33.796875 0.09375 
z
M 28.90625 37.59375 
L 28.90625 57.625 
Q 23.25 56.984375 20.265625 54.390625 
Q 17.28125 51.8125 17.28125 47.515625 
Q 17.28125 43.3125 20.03125 40.96875 
Q 22.796875 38.625 28.90625 37.59375 
z
M 33.796875 28.21875 
L 33.796875 7.078125 
Q 39.984375 7.90625 43.140625 10.59375 
Q 46.296875 13.28125 46.296875 17.671875 
Q 46.296875 21.96875 43.28125 24.5 
Q 40.28125 27.046875 33.796875 28.21875 
z
" id="DejaVuSans-36"/>
      <path d="M 10.796875 72.90625 
L 49.515625 72.90625 
L 49.515625 64.59375 
L 19.828125 64.59375 
L 19.828125 46.734375 
Q 21.96875 47.46875 24.109375 47.828125 
Q 26.265625 48.1875 28.421875 48.1875 
Q 40.625 48.1875 47.75 41.5 
Q 54.890625 34.8125 54.890625 23.390625 
Q 54.890625 11.625 47.5625 5.09375 
Q 40.234375 -1.421875 26.90625 -1.421875 
Q 22.3125 -1.421875 17.546875 -0.640625 
Q 12.796875 0.140625 7.71875 1.703125 
L 7.71875 11.625 
Q 12.109375 9.234375 16.796875 8.0625 
Q 21.484375 6.890625 26.703125 6.890625 
Q 35.15625 6.890625 40.078125 11.328125 
Q 45.015625 15.765625 45.015625 23.390625 
Q 45.015625 31 40.078125 35.4375 
Q 35.15625 39.890625 26.703125 39.890625 
Q 22.75 39.890625 18.8125 39.015625 
Q 14.890625 38.140625 10.796875 36.28125 
z
" id="DejaVuSans-53"/>
     </defs>
     <use xlink:href="#DejaVuSans-71"/>
     <use x="77.490234" xlink:href="#DejaVuSans-114"/>
     <use x="118.603516" xlink:href="#DejaVuSans-97"/>
     <use x="179.882812" xlink:href="#DejaVuSans-102"/>
     <use x="215.087891" xlink:href="#DejaVuSans-105"/>
     <use x="242.871094" xlink:href="#DejaVuSans-99"/>
     <use x="297.851562" xlink:href="#DejaVuSans-111"/>
     <use x="359.033203" xlink:href="#DejaVuSans-32"/>
     <use x="390.820312" xlink:href="#DejaVuSans-102"/>
     <use x="426.025391" xlink:href="#DejaVuSans-114"/>
     <use x="464.888672" xlink:href="#DejaVuSans-101"/>
     <use x="526.412109" xlink:href="#DejaVuSans-99"/>
     <use x="581.392578" xlink:href="#DejaVuSans-117"/>
     <use x="644.771484" xlink:href="#DejaVuSans-101"/>
     <use x="706.294922" xlink:href="#DejaVuSans-110"/>
     <use x="769.673828" xlink:href="#DejaVuSans-99"/>
     <use x="824.654297" xlink:href="#DejaVuSans-105"/>
     <use x="852.4375" xlink:href="#DejaVuSans-97"/>
     <use x="913.716797" xlink:href="#DejaVuSans-115"/>
     <use x="965.816406" xlink:href="#DejaVuSans-32"/>
     <use x="997.603516" xlink:href="#DejaVuSans-114"/>
     <use x="1036.466797" xlink:href="#DejaVuSans-101"/>
     <use x="1097.990234" xlink:href="#DejaVuSans-108"/>
     <use x="1125.773438" xlink:href="#DejaVuSans-97"/>
     <use x="1187.052734" xlink:href="#DejaVuSans-116"/>
     <use x="1226.261719" xlink:href="#DejaVuSans-105"/>
     <use x="1254.044922" xlink:href="#DejaVuSans-118"/>
     <use x="1313.224609" xlink:href="#DejaVuSans-97"/>
     <use x="1374.503906" xlink:href="#DejaVuSans-115"/>
     <use x="1426.603516" xlink:href="#DejaVuSans-32"/>
     <use x="1458.390625" xlink:href="#DejaVuSans-114"/>
     <use x="1497.253906" xlink:href="#DejaVuSans-111"/>
     <use x="1558.435547" xlink:href="#DejaVuSans-106"/>
     <use x="1586.21875" xlink:href="#DejaVuSans-111"/>
     <use x="1647.400391" xlink:href="#DejaVuSans-115"/>
     <use x="1699.5" xlink:href="#DejaVuSans-32"/>
     <use x="1731.287109" xlink:href="#DejaVuSans-97"/>
     <use x="1792.566406" xlink:href="#DejaVuSans-112"/>
     <use x="1856.042969" xlink:href="#DejaVuSans-117"/>
     <use x="1919.421875" xlink:href="#DejaVuSans-101"/>
     <use x="1980.945312" xlink:href="#DejaVuSans-115"/>
     <use x="2033.044922" xlink:href="#DejaVuSans-116"/>
     <use x="2072.253906" xlink:href="#DejaVuSans-97"/>
     <use x="2133.533203" xlink:href="#DejaVuSans-32"/>
     <use x="2165.320312" xlink:href="#DejaVuSans-115"/>
     <use x="2217.419922" xlink:href="#DejaVuSans-105"/>
     <use x="2245.203125" xlink:href="#DejaVuSans-109"/>
     <use x="2342.615234" xlink:href="#DejaVuSans-112"/>
     <use x="2406.091797" xlink:href="#DejaVuSans-108"/>
     <use x="2433.875" xlink:href="#DejaVuSans-101"/>
     <use x="2495.398438" xlink:href="#DejaVuSans-32"/>
     <use x="2527.185547" xlink:href="#DejaVuSans-70"/>
     <use x="2568.580078" xlink:href="#DejaVuSans-46"/>
     <use x="2600.367188" xlink:href="#DejaVuSans-73"/>
     <use x="2629.859375" xlink:href="#DejaVuSans-58"/>
     <use x="2663.550781" xlink:href="#DejaVuSans-32"/>
     <use x="2695.337891" xlink:href="#DejaVuSans-36"/>
     <use x="2758.960938" xlink:href="#DejaVuSans-49"/>
     <use x="2822.583984" xlink:href="#DejaVuSans-53"/>
     <use x="2886.207031" xlink:href="#DejaVuSans-48"/>
     <use x="2949.830078" xlink:href="#DejaVuSans-48"/>
     <use x="3013.453125" xlink:href="#DejaVuSans-48"/>
     <use x="3077.076172" xlink:href="#DejaVuSans-48"/>
     <use x="3140.699219" xlink:href="#DejaVuSans-46"/>
     <use x="3172.486328" xlink:href="#DejaVuSans-48"/>
    </g>
   </g>
   <g id="legend_1">
    <g id="patch_7">
     <path d="M 64.6 196.25325 
L 125.203125 196.25325 
Q 127.203125 196.25325 127.203125 194.25325 
L 127.203125 48.472 
Q 127.203125 46.472 125.203125 46.472 
L 64.6 46.472 
Q 62.6 46.472 62.6 48.472 
L 62.6 194.25325 
Q 62.6 196.25325 64.6 196.25325 
z
" style="fill:#ffffff;opacity:0.8;stroke:#cccccc;stroke-linejoin:miter;"/>
    </g>
    <g id="line2d_23">
     <path d="M 66.6 54.570437 
L 86.6 54.570437 
" style="fill:none;stroke:#1f77b4;stroke-linecap:square;stroke-width:1.5;"/>
    </g>
    <g id="line2d_24"/>
    <g id="text_16">
     <!-- FR 1 -->
     <g transform="translate(94.6 58.070437)scale(0.1 -0.1)">
      <defs>
       <path d="M 44.390625 34.1875 
Q 47.5625 33.109375 50.5625 29.59375 
Q 53.5625 26.078125 56.59375 19.921875 
L 66.609375 0 
L 56 0 
L 46.6875 18.703125 
Q 43.0625 26.03125 39.671875 28.421875 
Q 36.28125 30.8125 30.421875 30.8125 
L 19.671875 30.8125 
L 19.671875 0 
L 9.8125 0 
L 9.8125 72.90625 
L 32.078125 72.90625 
Q 44.578125 72.90625 50.734375 67.671875 
Q 56.890625 62.453125 56.890625 51.90625 
Q 56.890625 45.015625 53.6875 40.46875 
Q 50.484375 35.9375 44.390625 34.1875 
z
M 19.671875 64.796875 
L 19.671875 38.921875 
L 32.078125 38.921875 
Q 39.203125 38.921875 42.84375 42.21875 
Q 46.484375 45.515625 46.484375 51.90625 
Q 46.484375 58.296875 42.84375 61.546875 
Q 39.203125 64.796875 32.078125 64.796875 
z
" id="DejaVuSans-82"/>
      </defs>
      <use xlink:href="#DejaVuSans-70"/>
      <use x="57.519531" xlink:href="#DejaVuSans-82"/>
      <use x="127.001953" xlink:href="#DejaVuSans-32"/>
      <use x="158.789062" xlink:href="#DejaVuSans-49"/>
     </g>
    </g>
    <g id="line2d_25">
     <path d="M 66.6 69.248562 
L 86.6 69.248562 
" style="fill:none;stroke:#ff7f0e;stroke-linecap:square;stroke-width:1.5;"/>
    </g>
    <g id="line2d_26"/>
    <g id="text_17">
     <!-- FR 2 -->
     <g transform="translate(94.6 72.748562)scale(0.1 -0.1)">
      <use xlink:href="#DejaVuSans-70"/>
      <use x="57.519531" xlink:href="#DejaVuSans-82"/>
      <use x="127.001953" xlink:href="#DejaVuSans-32"/>
      <use x="158.789062" xlink:href="#DejaVuSans-50"/>
     </g>
    </g>
    <g id="line2d_27">
     <path d="M 66.6 83.926688 
L 86.6 83.926688 
" style="fill:none;stroke:#2ca02c;stroke-linecap:square;stroke-width:1.5;"/>
    </g>
    <g id="line2d_28"/>
    <g id="text_18">
     <!-- FR 3 -->
     <g transform="translate(94.6 87.426688)scale(0.1 -0.1)">
      <defs>
       <path d="M 40.578125 39.3125 
Q 47.65625 37.796875 51.625 33 
Q 55.609375 28.21875 55.609375 21.1875 
Q 55.609375 10.40625 48.1875 4.484375 
Q 40.765625 -1.421875 27.09375 -1.421875 
Q 22.515625 -1.421875 17.65625 -0.515625 
Q 12.796875 0.390625 7.625 2.203125 
L 7.625 11.71875 
Q 11.71875 9.328125 16.59375 8.109375 
Q 21.484375 6.890625 26.8125 6.890625 
Q 36.078125 6.890625 40.9375 10.546875 
Q 45.796875 14.203125 45.796875 21.1875 
Q 45.796875 27.640625 41.28125 31.265625 
Q 36.765625 34.90625 28.71875 34.90625 
L 20.21875 34.90625 
L 20.21875 43.015625 
L 29.109375 43.015625 
Q 36.375 43.015625 40.234375 45.921875 
Q 44.09375 48.828125 44.09375 54.296875 
Q 44.09375 59.90625 40.109375 62.90625 
Q 36.140625 65.921875 28.71875 65.921875 
Q 24.65625 65.921875 20.015625 65.03125 
Q 15.375 64.15625 9.8125 62.3125 
L 9.8125 71.09375 
Q 15.4375 72.65625 20.34375 73.4375 
Q 25.25 74.21875 29.59375 74.21875 
Q 40.828125 74.21875 47.359375 69.109375 
Q 53.90625 64.015625 53.90625 55.328125 
Q 53.90625 49.265625 50.4375 45.09375 
Q 46.96875 40.921875 40.578125 39.3125 
z
" id="DejaVuSans-51"/>
      </defs>
      <use xlink:href="#DejaVuSans-70"/>
      <use x="57.519531" xlink:href="#DejaVuSans-82"/>
      <use x="127.001953" xlink:href="#DejaVuSans-32"/>
      <use x="158.789062" xlink:href="#DejaVuSans-51"/>
     </g>
    </g>
    <g id="line2d_29">
     <path d="M 66.6 98.604812 
L 86.6 98.604812 
" style="fill:none;stroke:#d62728;stroke-linecap:square;stroke-width:1.5;"/>
    </g>
    <g id="line2d_30"/>
    <g id="text_19">
     <!-- FR 4 -->
     <g transform="translate(94.6 102.104812)scale(0.1 -0.1)">
      <use xlink:href="#DejaVuSans-70"/>
      <use x="57.519531" xlink:href="#DejaVuSans-82"/>
      <use x="127.001953" xlink:href="#DejaVuSans-32"/>
      <use x="158.789062" xlink:href="#DejaVuSans-52"/>
     </g>
    </g>
    <g id="line2d_31">
     <path d="M 66.6 113.282938 
L 86.6 113.282938 
" style="fill:none;stroke:#9467bd;stroke-linecap:square;stroke-width:1.5;"/>
    </g>
    <g id="line2d_32"/>
    <g id="text_20">
     <!-- FR 5 -->
     <g transform="translate(94.6 116.782938)scale(0.1 -0.1)">
      <use xlink:href="#DejaVuSans-70"/>
      <use x="57.519531" xlink:href="#DejaVuSans-82"/>
      <use x="127.001953" xlink:href="#DejaVuSans-32"/>
      <use x="158.789062" xlink:href="#DejaVuSans-53"/>
     </g>
    </g>
    <g id="line2d_33">
     <path d="M 66.6 127.961062 
L 86.6 127.961062 
" style="fill:none;stroke:#8c564b;stroke-linecap:square;stroke-width:1.5;"/>
    </g>
    <g id="line2d_34"/>
    <g id="text_21">
     <!-- FR 6 -->
     <g transform="translate(94.6 131.461062)scale(0.1 -0.1)">
      <use xlink:href="#DejaVuSans-70"/>
      <use x="57.519531" xlink:href="#DejaVuSans-82"/>
      <use x="127.001953" xlink:href="#DejaVuSans-32"/>
      <use x="158.789062" xlink:href="#DejaVuSans-54"/>
     </g>
    </g>
    <g id="line2d_35">
     <path d="M 66.6 142.639187 
L 86.6 142.639187 
" style="fill:none;stroke:#e377c2;stroke-linecap:square;stroke-width:1.5;"/>
    </g>
    <g id="line2d_36"/>
    <g id="text_22">
     <!-- FR 7 -->
     <g transform="translate(94.6 146.139187)scale(0.1 -0.1)">
      <defs>
       <path d="M 8.203125 72.90625 
L 55.078125 72.90625 
L 55.078125 68.703125 
L 28.609375 0 
L 18.3125 0 
L 43.21875 64.59375 
L 8.203125 64.59375 
z
" id="DejaVuSans-55"/>
      </defs>
      <use xlink:href="#DejaVuSans-70"/>
      <use x="57.519531" xlink:href="#DejaVuSans-82"/>
      <use x="127.001953" xlink:href="#DejaVuSans-32"/>
      <use x="158.789062" xlink:href="#DejaVuSans-55"/>
     </g>
    </g>
    <g id="line2d_37">
     <path d="M 66.6 157.317312 
L 86.6 157.317312 
" style="fill:none;stroke:#7f7f7f;stroke-linecap:square;stroke-width:1.5;"/>
    </g>
    <g id="line2d_38"/>
    <g id="text_23">
     <!-- FR 8 -->
     <g transform="translate(94.6 160.817312)scale(0.1 -0.1)">
      <use xlink:href="#DejaVuSans-70"/>
      <use x="57.519531" xlink:href="#DejaVuSans-82"/>
      <use x="127.001953" xlink:href="#DejaVuSans-32"/>
      <use x="158.789062" xlink:href="#DejaVuSans-56"/>
     </g>
    </g>
    <g id="line2d_39">
     <path d="M 66.6 171.995437 
L 86.6 171.995437 
" style="fill:none;stroke:#bcbd22;stroke-linecap:square;stroke-width:1.5;"/>
    </g>
    <g id="line2d_40"/>
    <g id="text_24">
     <!-- FR 9 -->
     <g transform="translate(94.6 175.495437)scale(0.1 -0.1)">
      <defs>
       <path d="M 10.984375 1.515625 
L 10.984375 10.5 
Q 14.703125 8.734375 18.5 7.8125 
Q 22.3125 6.890625 25.984375 6.890625 
Q 35.75 6.890625 40.890625 13.453125 
Q 46.046875 20.015625 46.78125 33.40625 
Q 43.953125 29.203125 39.59375 26.953125 
Q 35.25 24.703125 29.984375 24.703125 
Q 19.046875 24.703125 12.671875 31.3125 
Q 6.296875 37.9375 6.296875 49.421875 
Q 6.296875 60.640625 12.9375 67.421875 
Q 19.578125 74.21875 30.609375 74.21875 
Q 43.265625 74.21875 49.921875 64.515625 
Q 56.59375 54.828125 56.59375 36.375 
Q 56.59375 19.140625 48.40625 8.859375 
Q 40.234375 -1.421875 26.421875 -1.421875 
Q 22.703125 -1.421875 18.890625 -0.6875 
Q 15.09375 0.046875 10.984375 1.515625 
z
M 30.609375 32.421875 
Q 37.25 32.421875 41.125 36.953125 
Q 45.015625 41.5 45.015625 49.421875 
Q 45.015625 57.28125 41.125 61.84375 
Q 37.25 66.40625 30.609375 66.40625 
Q 23.96875 66.40625 20.09375 61.84375 
Q 16.21875 57.28125 16.21875 49.421875 
Q 16.21875 41.5 20.09375 36.953125 
Q 23.96875 32.421875 30.609375 32.421875 
z
" id="DejaVuSans-57"/>
      </defs>
      <use xlink:href="#DejaVuSans-70"/>
      <use x="57.519531" xlink:href="#DejaVuSans-82"/>
      <use x="127.001953" xlink:href="#DejaVuSans-32"/>
      <use x="158.789062" xlink:href="#DejaVuSans-57"/>
     </g>
    </g>
    <g id="line2d_41">
     <path d="M 66.6 186.673562 
L 86.6 186.673562 
" style="fill:none;stroke:#17becf;stroke-linecap:square;stroke-width:1.5;"/>
    </g>
    <g id="line2d_42"/>
    <g id="text_25">
     <!-- FR 10 -->
     <g transform="translate(94.6 190.173562)scale(0.1 -0.1)">
      <use xlink:href="#DejaVuSans-70"/>
      <use x="57.519531" xlink:href="#DejaVuSans-82"/>
      <use x="127.001953" xlink:href="#DejaVuSans-32"/>
      <use x="158.789062" xlink:href="#DejaVuSans-49"/>
      <use x="222.412109" xlink:href="#DejaVuSans-48"/>
     </g>
    </g>
   </g>
  </g>
 </g>
 <defs>
  <clipPath id="p45fdbedf17">
   <rect height="266.112" width="357.12" x="57.6" y="41.472"/>
  </clipPath>
 </defs>
</svg>
