<?xml version="1.0" encoding="utf-8" standalone="no"?>
<!DOCTYPE svg PUBLIC "-//W3C//DTD SVG 1.1//EN"
  "http://www.w3.org/Graphics/SVG/1.1/DTD/svg11.dtd">
<!-- Created with matplotlib (https://matplotlib.org/) -->
<svg height="345.6pt" version="1.1" viewBox="0 0 460.8 345.6" width="460.8pt" xmlns="http://www.w3.org/2000/svg" xmlns:xlink="http://www.w3.org/1999/xlink">
 <metadata>
  <rdf:RDF xmlns:cc="http://creativecommons.org/ns#" xmlns:dc="http://purl.org/dc/elements/1.1/" xmlns:rdf="http://www.w3.org/1999/02/22-rdf-syntax-ns#">
   <cc:Work>
    <dc:type rdf:resource="http://purl.org/dc/dcmitype/StillImage"/>
    <dc:date>2021-04-07T21:24:31.289325</dc:date>
    <dc:format>image/svg+xml</dc:format>
    <dc:creator>
     <cc:Agent>
      <dc:title>Matplotlib v3.3.4, https://matplotlib.org/</dc:title>
     </cc:Agent>
    </dc:creator>
   </cc:Work>
  </rdf:RDF>
 </metadata>
 <defs>
  <style type="text/css">*{stroke-linecap:butt;stroke-linejoin:round;}</style>
 </defs>
 <g id="figure_1">
  <g id="patch_1">
   <path d="M 0 345.6 
L 460.8 345.6 
L 460.8 0 
L 0 0 
z
" style="fill:#ffffff;"/>
  </g>
  <g id="axes_1">
   <g id="patch_2">
    <path d="M 57.6 307.584 
L 414.72 307.584 
L 414.72 41.472 
L 57.6 41.472 
z
" style="fill:#ffffff;"/>
   </g>
   <g id="matplotlib.axis_1">
    <g id="xtick_1">
     <g id="line2d_1">
      <defs>
       <path d="M 0 0 
L 0 3.5 
" id="m0f1fa3cf91" style="stroke:#000000;stroke-width:0.8;"/>
      </defs>
      <g>
       <use style="stroke:#000000;stroke-width:0.8;" x="72.201297" xlink:href="#m0f1fa3cf91" y="307.584"/>
      </g>
     </g>
     <g id="text_1">
      <!-- 0 -->
      <g transform="translate(69.020047 322.182437)scale(0.1 -0.1)">
       <defs>
        <path d="M 31.78125 66.40625 
Q 24.171875 66.40625 20.328125 58.90625 
Q 16.5 51.421875 16.5 36.375 
Q 16.5 21.390625 20.328125 13.890625 
Q 24.171875 6.390625 31.78125 6.390625 
Q 39.453125 6.390625 43.28125 13.890625 
Q 47.125 21.390625 47.125 36.375 
Q 47.125 51.421875 43.28125 58.90625 
Q 39.453125 66.40625 31.78125 66.40625 
z
M 31.78125 74.21875 
Q 44.046875 74.21875 50.515625 64.515625 
Q 56.984375 54.828125 56.984375 36.375 
Q 56.984375 17.96875 50.515625 8.265625 
Q 44.046875 -1.421875 31.78125 -1.421875 
Q 19.53125 -1.421875 13.0625 8.265625 
Q 6.59375 17.96875 6.59375 36.375 
Q 6.59375 54.828125 13.0625 64.515625 
Q 19.53125 74.21875 31.78125 74.21875 
z
" id="DejaVuSans-48"/>
       </defs>
       <use xlink:href="#DejaVuSans-48"/>
      </g>
     </g>
    </g>
    <g id="xtick_2">
     <g id="line2d_2">
      <g>
       <use style="stroke:#000000;stroke-width:0.8;" x="112.987044" xlink:href="#m0f1fa3cf91" y="307.584"/>
      </g>
     </g>
     <g id="text_2">
      <!-- 25 -->
      <g transform="translate(106.624544 322.182437)scale(0.1 -0.1)">
       <defs>
        <path d="M 19.1875 8.296875 
L 53.609375 8.296875 
L 53.609375 0 
L 7.328125 0 
L 7.328125 8.296875 
Q 12.9375 14.109375 22.625 23.890625 
Q 32.328125 33.6875 34.8125 36.53125 
Q 39.546875 41.84375 41.421875 45.53125 
Q 43.3125 49.21875 43.3125 52.78125 
Q 43.3125 58.59375 39.234375 62.25 
Q 35.15625 65.921875 28.609375 65.921875 
Q 23.96875 65.921875 18.8125 64.3125 
Q 13.671875 62.703125 7.8125 59.421875 
L 7.8125 69.390625 
Q 13.765625 71.78125 18.9375 73 
Q 24.125 74.21875 28.421875 74.21875 
Q 39.75 74.21875 46.484375 68.546875 
Q 53.21875 62.890625 53.21875 53.421875 
Q 53.21875 48.921875 51.53125 44.890625 
Q 49.859375 40.875 45.40625 35.40625 
Q 44.1875 33.984375 37.640625 27.21875 
Q 31.109375 20.453125 19.1875 8.296875 
z
" id="DejaVuSans-50"/>
        <path d="M 10.796875 72.90625 
L 49.515625 72.90625 
L 49.515625 64.59375 
L 19.828125 64.59375 
L 19.828125 46.734375 
Q 21.96875 47.46875 24.109375 47.828125 
Q 26.265625 48.1875 28.421875 48.1875 
Q 40.625 48.1875 47.75 41.5 
Q 54.890625 34.8125 54.890625 23.390625 
Q 54.890625 11.625 47.5625 5.09375 
Q 40.234375 -1.421875 26.90625 -1.421875 
Q 22.3125 -1.421875 17.546875 -0.640625 
Q 12.796875 0.140625 7.71875 1.703125 
L 7.71875 11.625 
Q 12.109375 9.234375 16.796875 8.0625 
Q 21.484375 6.890625 26.703125 6.890625 
Q 35.15625 6.890625 40.078125 11.328125 
Q 45.015625 15.765625 45.015625 23.390625 
Q 45.015625 31 40.078125 35.4375 
Q 35.15625 39.890625 26.703125 39.890625 
Q 22.75 39.890625 18.8125 39.015625 
Q 14.890625 38.140625 10.796875 36.28125 
z
" id="DejaVuSans-53"/>
       </defs>
       <use xlink:href="#DejaVuSans-50"/>
       <use x="63.623047" xlink:href="#DejaVuSans-53"/>
      </g>
     </g>
    </g>
    <g id="xtick_3">
     <g id="line2d_3">
      <g>
       <use style="stroke:#000000;stroke-width:0.8;" x="153.772791" xlink:href="#m0f1fa3cf91" y="307.584"/>
      </g>
     </g>
     <g id="text_3">
      <!-- 50 -->
      <g transform="translate(147.410291 322.182437)scale(0.1 -0.1)">
       <use xlink:href="#DejaVuSans-53"/>
       <use x="63.623047" xlink:href="#DejaVuSans-48"/>
      </g>
     </g>
    </g>
    <g id="xtick_4">
     <g id="line2d_4">
      <g>
       <use style="stroke:#000000;stroke-width:0.8;" x="194.558538" xlink:href="#m0f1fa3cf91" y="307.584"/>
      </g>
     </g>
     <g id="text_4">
      <!-- 75 -->
      <g transform="translate(188.196038 322.182437)scale(0.1 -0.1)">
       <defs>
        <path d="M 8.203125 72.90625 
L 55.078125 72.90625 
L 55.078125 68.703125 
L 28.609375 0 
L 18.3125 0 
L 43.21875 64.59375 
L 8.203125 64.59375 
z
" id="DejaVuSans-55"/>
       </defs>
       <use xlink:href="#DejaVuSans-55"/>
       <use x="63.623047" xlink:href="#DejaVuSans-53"/>
      </g>
     </g>
    </g>
    <g id="xtick_5">
     <g id="line2d_5">
      <g>
       <use style="stroke:#000000;stroke-width:0.8;" x="235.344285" xlink:href="#m0f1fa3cf91" y="307.584"/>
      </g>
     </g>
     <g id="text_5">
      <!-- 100 -->
      <g transform="translate(225.800535 322.182437)scale(0.1 -0.1)">
       <defs>
        <path d="M 12.40625 8.296875 
L 28.515625 8.296875 
L 28.515625 63.921875 
L 10.984375 60.40625 
L 10.984375 69.390625 
L 28.421875 72.90625 
L 38.28125 72.90625 
L 38.28125 8.296875 
L 54.390625 8.296875 
L 54.390625 0 
L 12.40625 0 
z
" id="DejaVuSans-49"/>
       </defs>
       <use xlink:href="#DejaVuSans-49"/>
       <use x="63.623047" xlink:href="#DejaVuSans-48"/>
       <use x="127.246094" xlink:href="#DejaVuSans-48"/>
      </g>
     </g>
    </g>
    <g id="xtick_6">
     <g id="line2d_6">
      <g>
       <use style="stroke:#000000;stroke-width:0.8;" x="276.130032" xlink:href="#m0f1fa3cf91" y="307.584"/>
      </g>
     </g>
     <g id="text_6">
      <!-- 125 -->
      <g transform="translate(266.586282 322.182437)scale(0.1 -0.1)">
       <use xlink:href="#DejaVuSans-49"/>
       <use x="63.623047" xlink:href="#DejaVuSans-50"/>
       <use x="127.246094" xlink:href="#DejaVuSans-53"/>
      </g>
     </g>
    </g>
    <g id="xtick_7">
     <g id="line2d_7">
      <g>
       <use style="stroke:#000000;stroke-width:0.8;" x="316.915779" xlink:href="#m0f1fa3cf91" y="307.584"/>
      </g>
     </g>
     <g id="text_7">
      <!-- 150 -->
      <g transform="translate(307.372029 322.182437)scale(0.1 -0.1)">
       <use xlink:href="#DejaVuSans-49"/>
       <use x="63.623047" xlink:href="#DejaVuSans-53"/>
       <use x="127.246094" xlink:href="#DejaVuSans-48"/>
      </g>
     </g>
    </g>
    <g id="xtick_8">
     <g id="line2d_8">
      <g>
       <use style="stroke:#000000;stroke-width:0.8;" x="357.701526" xlink:href="#m0f1fa3cf91" y="307.584"/>
      </g>
     </g>
     <g id="text_8">
      <!-- 175 -->
      <g transform="translate(348.157776 322.182437)scale(0.1 -0.1)">
       <use xlink:href="#DejaVuSans-49"/>
       <use x="63.623047" xlink:href="#DejaVuSans-55"/>
       <use x="127.246094" xlink:href="#DejaVuSans-53"/>
      </g>
     </g>
    </g>
    <g id="xtick_9">
     <g id="line2d_9">
      <g>
       <use style="stroke:#000000;stroke-width:0.8;" x="398.487273" xlink:href="#m0f1fa3cf91" y="307.584"/>
      </g>
     </g>
     <g id="text_9">
      <!-- 200 -->
      <g transform="translate(388.943523 322.182437)scale(0.1 -0.1)">
       <use xlink:href="#DejaVuSans-50"/>
       <use x="63.623047" xlink:href="#DejaVuSans-48"/>
       <use x="127.246094" xlink:href="#DejaVuSans-48"/>
      </g>
     </g>
    </g>
    <g id="text_10">
     <!-- Numero de tirada -->
     <g transform="translate(192.165469 335.860562)scale(0.1 -0.1)">
      <defs>
       <path d="M 9.8125 72.90625 
L 23.09375 72.90625 
L 55.421875 11.921875 
L 55.421875 72.90625 
L 64.984375 72.90625 
L 64.984375 0 
L 51.703125 0 
L 19.390625 60.984375 
L 19.390625 0 
L 9.8125 0 
z
" id="DejaVuSans-78"/>
       <path d="M 8.5 21.578125 
L 8.5 54.6875 
L 17.484375 54.6875 
L 17.484375 21.921875 
Q 17.484375 14.15625 20.5 10.265625 
Q 23.53125 6.390625 29.59375 6.390625 
Q 36.859375 6.390625 41.078125 11.03125 
Q 45.3125 15.671875 45.3125 23.6875 
L 45.3125 54.6875 
L 54.296875 54.6875 
L 54.296875 0 
L 45.3125 0 
L 45.3125 8.40625 
Q 42.046875 3.421875 37.71875 1 
Q 33.40625 -1.421875 27.6875 -1.421875 
Q 18.265625 -1.421875 13.375 4.4375 
Q 8.5 10.296875 8.5 21.578125 
z
M 31.109375 56 
z
" id="DejaVuSans-117"/>
       <path d="M 52 44.1875 
Q 55.375 50.25 60.0625 53.125 
Q 64.75 56 71.09375 56 
Q 79.640625 56 84.28125 50.015625 
Q 88.921875 44.046875 88.921875 33.015625 
L 88.921875 0 
L 79.890625 0 
L 79.890625 32.71875 
Q 79.890625 40.578125 77.09375 44.375 
Q 74.3125 48.1875 68.609375 48.1875 
Q 61.625 48.1875 57.5625 43.546875 
Q 53.515625 38.921875 53.515625 30.90625 
L 53.515625 0 
L 44.484375 0 
L 44.484375 32.71875 
Q 44.484375 40.625 41.703125 44.40625 
Q 38.921875 48.1875 33.109375 48.1875 
Q 26.21875 48.1875 22.15625 43.53125 
Q 18.109375 38.875 18.109375 30.90625 
L 18.109375 0 
L 9.078125 0 
L 9.078125 54.6875 
L 18.109375 54.6875 
L 18.109375 46.1875 
Q 21.1875 51.21875 25.484375 53.609375 
Q 29.78125 56 35.6875 56 
Q 41.65625 56 45.828125 52.96875 
Q 50 49.953125 52 44.1875 
z
" id="DejaVuSans-109"/>
       <path d="M 56.203125 29.59375 
L 56.203125 25.203125 
L 14.890625 25.203125 
Q 15.484375 15.921875 20.484375 11.0625 
Q 25.484375 6.203125 34.421875 6.203125 
Q 39.59375 6.203125 44.453125 7.46875 
Q 49.3125 8.734375 54.109375 11.28125 
L 54.109375 2.78125 
Q 49.265625 0.734375 44.1875 -0.34375 
Q 39.109375 -1.421875 33.890625 -1.421875 
Q 20.796875 -1.421875 13.15625 6.1875 
Q 5.515625 13.8125 5.515625 26.8125 
Q 5.515625 40.234375 12.765625 48.109375 
Q 20.015625 56 32.328125 56 
Q 43.359375 56 49.78125 48.890625 
Q 56.203125 41.796875 56.203125 29.59375 
z
M 47.21875 32.234375 
Q 47.125 39.59375 43.09375 43.984375 
Q 39.0625 48.390625 32.421875 48.390625 
Q 24.90625 48.390625 20.390625 44.140625 
Q 15.875 39.890625 15.1875 32.171875 
z
" id="DejaVuSans-101"/>
       <path d="M 41.109375 46.296875 
Q 39.59375 47.171875 37.8125 47.578125 
Q 36.03125 48 33.890625 48 
Q 26.265625 48 22.1875 43.046875 
Q 18.109375 38.09375 18.109375 28.8125 
L 18.109375 0 
L 9.078125 0 
L 9.078125 54.6875 
L 18.109375 54.6875 
L 18.109375 46.1875 
Q 20.953125 51.171875 25.484375 53.578125 
Q 30.03125 56 36.53125 56 
Q 37.453125 56 38.578125 55.875 
Q 39.703125 55.765625 41.0625 55.515625 
z
" id="DejaVuSans-114"/>
       <path d="M 30.609375 48.390625 
Q 23.390625 48.390625 19.1875 42.75 
Q 14.984375 37.109375 14.984375 27.296875 
Q 14.984375 17.484375 19.15625 11.84375 
Q 23.34375 6.203125 30.609375 6.203125 
Q 37.796875 6.203125 41.984375 11.859375 
Q 46.1875 17.53125 46.1875 27.296875 
Q 46.1875 37.015625 41.984375 42.703125 
Q 37.796875 48.390625 30.609375 48.390625 
z
M 30.609375 56 
Q 42.328125 56 49.015625 48.375 
Q 55.71875 40.765625 55.71875 27.296875 
Q 55.71875 13.875 49.015625 6.21875 
Q 42.328125 -1.421875 30.609375 -1.421875 
Q 18.84375 -1.421875 12.171875 6.21875 
Q 5.515625 13.875 5.515625 27.296875 
Q 5.515625 40.765625 12.171875 48.375 
Q 18.84375 56 30.609375 56 
z
" id="DejaVuSans-111"/>
       <path id="DejaVuSans-32"/>
       <path d="M 45.40625 46.390625 
L 45.40625 75.984375 
L 54.390625 75.984375 
L 54.390625 0 
L 45.40625 0 
L 45.40625 8.203125 
Q 42.578125 3.328125 38.25 0.953125 
Q 33.9375 -1.421875 27.875 -1.421875 
Q 17.96875 -1.421875 11.734375 6.484375 
Q 5.515625 14.40625 5.515625 27.296875 
Q 5.515625 40.1875 11.734375 48.09375 
Q 17.96875 56 27.875 56 
Q 33.9375 56 38.25 53.625 
Q 42.578125 51.265625 45.40625 46.390625 
z
M 14.796875 27.296875 
Q 14.796875 17.390625 18.875 11.75 
Q 22.953125 6.109375 30.078125 6.109375 
Q 37.203125 6.109375 41.296875 11.75 
Q 45.40625 17.390625 45.40625 27.296875 
Q 45.40625 37.203125 41.296875 42.84375 
Q 37.203125 48.484375 30.078125 48.484375 
Q 22.953125 48.484375 18.875 42.84375 
Q 14.796875 37.203125 14.796875 27.296875 
z
" id="DejaVuSans-100"/>
       <path d="M 18.3125 70.21875 
L 18.3125 54.6875 
L 36.8125 54.6875 
L 36.8125 47.703125 
L 18.3125 47.703125 
L 18.3125 18.015625 
Q 18.3125 11.328125 20.140625 9.421875 
Q 21.96875 7.515625 27.59375 7.515625 
L 36.8125 7.515625 
L 36.8125 0 
L 27.59375 0 
Q 17.1875 0 13.234375 3.875 
Q 9.28125 7.765625 9.28125 18.015625 
L 9.28125 47.703125 
L 2.6875 47.703125 
L 2.6875 54.6875 
L 9.28125 54.6875 
L 9.28125 70.21875 
z
" id="DejaVuSans-116"/>
       <path d="M 9.421875 54.6875 
L 18.40625 54.6875 
L 18.40625 0 
L 9.421875 0 
z
M 9.421875 75.984375 
L 18.40625 75.984375 
L 18.40625 64.59375 
L 9.421875 64.59375 
z
" id="DejaVuSans-105"/>
       <path d="M 34.28125 27.484375 
Q 23.390625 27.484375 19.1875 25 
Q 14.984375 22.515625 14.984375 16.5 
Q 14.984375 11.71875 18.140625 8.90625 
Q 21.296875 6.109375 26.703125 6.109375 
Q 34.1875 6.109375 38.703125 11.40625 
Q 43.21875 16.703125 43.21875 25.484375 
L 43.21875 27.484375 
z
M 52.203125 31.203125 
L 52.203125 0 
L 43.21875 0 
L 43.21875 8.296875 
Q 40.140625 3.328125 35.546875 0.953125 
Q 30.953125 -1.421875 24.3125 -1.421875 
Q 15.921875 -1.421875 10.953125 3.296875 
Q 6 8.015625 6 15.921875 
Q 6 25.140625 12.171875 29.828125 
Q 18.359375 34.515625 30.609375 34.515625 
L 43.21875 34.515625 
L 43.21875 35.40625 
Q 43.21875 41.609375 39.140625 45 
Q 35.0625 48.390625 27.6875 48.390625 
Q 23 48.390625 18.546875 47.265625 
Q 14.109375 46.140625 10.015625 43.890625 
L 10.015625 52.203125 
Q 14.9375 54.109375 19.578125 55.046875 
Q 24.21875 56 28.609375 56 
Q 40.484375 56 46.34375 49.84375 
Q 52.203125 43.703125 52.203125 31.203125 
z
" id="DejaVuSans-97"/>
      </defs>
      <use xlink:href="#DejaVuSans-78"/>
      <use x="74.804688" xlink:href="#DejaVuSans-117"/>
      <use x="138.183594" xlink:href="#DejaVuSans-109"/>
      <use x="235.595703" xlink:href="#DejaVuSans-101"/>
      <use x="297.119141" xlink:href="#DejaVuSans-114"/>
      <use x="335.982422" xlink:href="#DejaVuSans-111"/>
      <use x="397.164062" xlink:href="#DejaVuSans-32"/>
      <use x="428.951172" xlink:href="#DejaVuSans-100"/>
      <use x="492.427734" xlink:href="#DejaVuSans-101"/>
      <use x="553.951172" xlink:href="#DejaVuSans-32"/>
      <use x="585.738281" xlink:href="#DejaVuSans-116"/>
      <use x="624.947266" xlink:href="#DejaVuSans-105"/>
      <use x="652.730469" xlink:href="#DejaVuSans-114"/>
      <use x="693.84375" xlink:href="#DejaVuSans-97"/>
      <use x="755.123047" xlink:href="#DejaVuSans-100"/>
      <use x="818.599609" xlink:href="#DejaVuSans-97"/>
     </g>
    </g>
   </g>
   <g id="matplotlib.axis_2">
    <g id="ytick_1">
     <g id="line2d_10">
      <defs>
       <path d="M 0 0 
L -3.5 0 
" id="m849cbc899e" style="stroke:#000000;stroke-width:0.8;"/>
      </defs>
      <g>
       <use style="stroke:#000000;stroke-width:0.8;" x="57.6" xlink:href="#m849cbc899e" y="268.990974"/>
      </g>
     </g>
     <g id="text_11">
      <!-- 60000 -->
      <g transform="translate(18.7875 272.790193)scale(0.1 -0.1)">
       <defs>
        <path d="M 33.015625 40.375 
Q 26.375 40.375 22.484375 35.828125 
Q 18.609375 31.296875 18.609375 23.390625 
Q 18.609375 15.53125 22.484375 10.953125 
Q 26.375 6.390625 33.015625 6.390625 
Q 39.65625 6.390625 43.53125 10.953125 
Q 47.40625 15.53125 47.40625 23.390625 
Q 47.40625 31.296875 43.53125 35.828125 
Q 39.65625 40.375 33.015625 40.375 
z
M 52.59375 71.296875 
L 52.59375 62.3125 
Q 48.875 64.0625 45.09375 64.984375 
Q 41.3125 65.921875 37.59375 65.921875 
Q 27.828125 65.921875 22.671875 59.328125 
Q 17.53125 52.734375 16.796875 39.40625 
Q 19.671875 43.65625 24.015625 45.921875 
Q 28.375 48.1875 33.59375 48.1875 
Q 44.578125 48.1875 50.953125 41.515625 
Q 57.328125 34.859375 57.328125 23.390625 
Q 57.328125 12.15625 50.6875 5.359375 
Q 44.046875 -1.421875 33.015625 -1.421875 
Q 20.359375 -1.421875 13.671875 8.265625 
Q 6.984375 17.96875 6.984375 36.375 
Q 6.984375 53.65625 15.1875 63.9375 
Q 23.390625 74.21875 37.203125 74.21875 
Q 40.921875 74.21875 44.703125 73.484375 
Q 48.484375 72.75 52.59375 71.296875 
z
" id="DejaVuSans-54"/>
       </defs>
       <use xlink:href="#DejaVuSans-54"/>
       <use x="63.623047" xlink:href="#DejaVuSans-48"/>
       <use x="127.246094" xlink:href="#DejaVuSans-48"/>
       <use x="190.869141" xlink:href="#DejaVuSans-48"/>
       <use x="254.492188" xlink:href="#DejaVuSans-48"/>
      </g>
     </g>
    </g>
    <g id="ytick_2">
     <g id="line2d_11">
      <g>
       <use style="stroke:#000000;stroke-width:0.8;" x="57.6" xlink:href="#m849cbc899e" y="225.906379"/>
      </g>
     </g>
     <g id="text_12">
      <!-- 80000 -->
      <g transform="translate(18.7875 229.705598)scale(0.1 -0.1)">
       <defs>
        <path d="M 31.78125 34.625 
Q 24.75 34.625 20.71875 30.859375 
Q 16.703125 27.09375 16.703125 20.515625 
Q 16.703125 13.921875 20.71875 10.15625 
Q 24.75 6.390625 31.78125 6.390625 
Q 38.8125 6.390625 42.859375 10.171875 
Q 46.921875 13.96875 46.921875 20.515625 
Q 46.921875 27.09375 42.890625 30.859375 
Q 38.875 34.625 31.78125 34.625 
z
M 21.921875 38.8125 
Q 15.578125 40.375 12.03125 44.71875 
Q 8.5 49.078125 8.5 55.328125 
Q 8.5 64.0625 14.71875 69.140625 
Q 20.953125 74.21875 31.78125 74.21875 
Q 42.671875 74.21875 48.875 69.140625 
Q 55.078125 64.0625 55.078125 55.328125 
Q 55.078125 49.078125 51.53125 44.71875 
Q 48 40.375 41.703125 38.8125 
Q 48.828125 37.15625 52.796875 32.3125 
Q 56.78125 27.484375 56.78125 20.515625 
Q 56.78125 9.90625 50.3125 4.234375 
Q 43.84375 -1.421875 31.78125 -1.421875 
Q 19.734375 -1.421875 13.25 4.234375 
Q 6.78125 9.90625 6.78125 20.515625 
Q 6.78125 27.484375 10.78125 32.3125 
Q 14.796875 37.15625 21.921875 38.8125 
z
M 18.3125 54.390625 
Q 18.3125 48.734375 21.84375 45.5625 
Q 25.390625 42.390625 31.78125 42.390625 
Q 38.140625 42.390625 41.71875 45.5625 
Q 45.3125 48.734375 45.3125 54.390625 
Q 45.3125 60.0625 41.71875 63.234375 
Q 38.140625 66.40625 31.78125 66.40625 
Q 25.390625 66.40625 21.84375 63.234375 
Q 18.3125 60.0625 18.3125 54.390625 
z
" id="DejaVuSans-56"/>
       </defs>
       <use xlink:href="#DejaVuSans-56"/>
       <use x="63.623047" xlink:href="#DejaVuSans-48"/>
       <use x="127.246094" xlink:href="#DejaVuSans-48"/>
       <use x="190.869141" xlink:href="#DejaVuSans-48"/>
       <use x="254.492188" xlink:href="#DejaVuSans-48"/>
      </g>
     </g>
    </g>
    <g id="ytick_3">
     <g id="line2d_12">
      <g>
       <use style="stroke:#000000;stroke-width:0.8;" x="57.6" xlink:href="#m849cbc899e" y="182.821785"/>
      </g>
     </g>
     <g id="text_13">
      <!-- 100000 -->
      <g transform="translate(12.425 186.621003)scale(0.1 -0.1)">
       <use xlink:href="#DejaVuSans-49"/>
       <use x="63.623047" xlink:href="#DejaVuSans-48"/>
       <use x="127.246094" xlink:href="#DejaVuSans-48"/>
       <use x="190.869141" xlink:href="#DejaVuSans-48"/>
       <use x="254.492188" xlink:href="#DejaVuSans-48"/>
       <use x="318.115234" xlink:href="#DejaVuSans-48"/>
      </g>
     </g>
    </g>
    <g id="ytick_4">
     <g id="line2d_13">
      <g>
       <use style="stroke:#000000;stroke-width:0.8;" x="57.6" xlink:href="#m849cbc899e" y="139.73719"/>
      </g>
     </g>
     <g id="text_14">
      <!-- 120000 -->
      <g transform="translate(12.425 143.536408)scale(0.1 -0.1)">
       <use xlink:href="#DejaVuSans-49"/>
       <use x="63.623047" xlink:href="#DejaVuSans-50"/>
       <use x="127.246094" xlink:href="#DejaVuSans-48"/>
       <use x="190.869141" xlink:href="#DejaVuSans-48"/>
       <use x="254.492188" xlink:href="#DejaVuSans-48"/>
       <use x="318.115234" xlink:href="#DejaVuSans-48"/>
      </g>
     </g>
    </g>
    <g id="ytick_5">
     <g id="line2d_14">
      <g>
       <use style="stroke:#000000;stroke-width:0.8;" x="57.6" xlink:href="#m849cbc899e" y="96.652595"/>
      </g>
     </g>
     <g id="text_15">
      <!-- 140000 -->
      <g transform="translate(12.425 100.451814)scale(0.1 -0.1)">
       <defs>
        <path d="M 37.796875 64.3125 
L 12.890625 25.390625 
L 37.796875 25.390625 
z
M 35.203125 72.90625 
L 47.609375 72.90625 
L 47.609375 25.390625 
L 58.015625 25.390625 
L 58.015625 17.1875 
L 47.609375 17.1875 
L 47.609375 0 
L 37.796875 0 
L 37.796875 17.1875 
L 4.890625 17.1875 
L 4.890625 26.703125 
z
" id="DejaVuSans-52"/>
       </defs>
       <use xlink:href="#DejaVuSans-49"/>
       <use x="63.623047" xlink:href="#DejaVuSans-52"/>
       <use x="127.246094" xlink:href="#DejaVuSans-48"/>
       <use x="190.869141" xlink:href="#DejaVuSans-48"/>
       <use x="254.492188" xlink:href="#DejaVuSans-48"/>
       <use x="318.115234" xlink:href="#DejaVuSans-48"/>
      </g>
     </g>
    </g>
    <g id="ytick_6">
     <g id="line2d_15">
      <g>
       <use style="stroke:#000000;stroke-width:0.8;" x="57.6" xlink:href="#m849cbc899e" y="53.568"/>
      </g>
     </g>
     <g id="text_16">
      <!-- 160000 -->
      <g transform="translate(12.425 57.367219)scale(0.1 -0.1)">
       <use xlink:href="#DejaVuSans-49"/>
       <use x="63.623047" xlink:href="#DejaVuSans-54"/>
       <use x="127.246094" xlink:href="#DejaVuSans-48"/>
       <use x="190.869141" xlink:href="#DejaVuSans-48"/>
       <use x="254.492188" xlink:href="#DejaVuSans-48"/>
       <use x="318.115234" xlink:href="#DejaVuSans-48"/>
      </g>
     </g>
    </g>
    <g id="text_17">
     <!-- Fondo en $ -->
     <g transform="translate(6.345312 202.288938)rotate(-90)scale(0.1 -0.1)">
      <defs>
       <path d="M 9.8125 72.90625 
L 51.703125 72.90625 
L 51.703125 64.59375 
L 19.671875 64.59375 
L 19.671875 43.109375 
L 48.578125 43.109375 
L 48.578125 34.8125 
L 19.671875 34.8125 
L 19.671875 0 
L 9.8125 0 
z
" id="DejaVuSans-70"/>
       <path d="M 54.890625 33.015625 
L 54.890625 0 
L 45.90625 0 
L 45.90625 32.71875 
Q 45.90625 40.484375 42.875 44.328125 
Q 39.84375 48.1875 33.796875 48.1875 
Q 26.515625 48.1875 22.3125 43.546875 
Q 18.109375 38.921875 18.109375 30.90625 
L 18.109375 0 
L 9.078125 0 
L 9.078125 54.6875 
L 18.109375 54.6875 
L 18.109375 46.1875 
Q 21.34375 51.125 25.703125 53.5625 
Q 30.078125 56 35.796875 56 
Q 45.21875 56 50.046875 50.171875 
Q 54.890625 44.34375 54.890625 33.015625 
z
" id="DejaVuSans-110"/>
       <path d="M 33.796875 -14.703125 
L 28.90625 -14.703125 
L 28.859375 0 
Q 23.734375 0.09375 18.609375 1.1875 
Q 13.484375 2.296875 8.296875 4.5 
L 8.296875 13.28125 
Q 13.28125 10.15625 18.375 8.5625 
Q 23.484375 6.984375 28.90625 6.9375 
L 28.90625 29.203125 
Q 18.109375 30.953125 13.203125 35.15625 
Q 8.296875 39.359375 8.296875 46.6875 
Q 8.296875 54.640625 13.625 59.21875 
Q 18.953125 63.8125 28.90625 64.5 
L 28.90625 75.984375 
L 33.796875 75.984375 
L 33.796875 64.65625 
Q 38.328125 64.453125 42.578125 63.6875 
Q 46.828125 62.9375 50.875 61.625 
L 50.875 53.078125 
Q 46.828125 55.125 42.546875 56.25 
Q 38.28125 57.375 33.796875 57.5625 
L 33.796875 36.71875 
Q 44.875 35.015625 50.09375 30.609375 
Q 55.328125 26.21875 55.328125 18.609375 
Q 55.328125 10.359375 49.78125 5.59375 
Q 44.234375 0.828125 33.796875 0.09375 
z
M 28.90625 37.59375 
L 28.90625 57.625 
Q 23.25 56.984375 20.265625 54.390625 
Q 17.28125 51.8125 17.28125 47.515625 
Q 17.28125 43.3125 20.03125 40.96875 
Q 22.796875 38.625 28.90625 37.59375 
z
M 33.796875 28.21875 
L 33.796875 7.078125 
Q 39.984375 7.90625 43.140625 10.59375 
Q 46.296875 13.28125 46.296875 17.671875 
Q 46.296875 21.96875 43.28125 24.5 
Q 40.28125 27.046875 33.796875 28.21875 
z
" id="DejaVuSans-36"/>
      </defs>
      <use xlink:href="#DejaVuSans-70"/>
      <use x="53.894531" xlink:href="#DejaVuSans-111"/>
      <use x="115.076172" xlink:href="#DejaVuSans-110"/>
      <use x="178.455078" xlink:href="#DejaVuSans-100"/>
      <use x="241.931641" xlink:href="#DejaVuSans-111"/>
      <use x="303.113281" xlink:href="#DejaVuSans-32"/>
      <use x="334.900391" xlink:href="#DejaVuSans-101"/>
      <use x="396.423828" xlink:href="#DejaVuSans-110"/>
      <use x="459.802734" xlink:href="#DejaVuSans-32"/>
      <use x="491.589844" xlink:href="#DejaVuSans-36"/>
     </g>
    </g>
   </g>
   <g id="line2d_16">
    <path clip-path="url(#pdd311fbda1)" d="M 73.832727 75.32572 
L 75.464157 75.756566 
L 77.095587 74.894874 
L 78.727017 75.110297 
L 80.358447 75.541143 
L 81.989877 76.402835 
L 83.621307 74.679451 
L 85.252736 74.894874 
L 86.884166 74.464028 
L 88.515596 74.679451 
L 90.147026 74.248606 
L 91.778456 74.033183 
L 93.409886 74.248606 
L 95.041316 73.81776 
L 96.672746 73.602337 
L 98.304175 73.81776 
L 99.935605 73.386914 
L 103.198465 72.956068 
L 104.829895 73.171491 
L 106.461325 72.740645 
L 108.092755 72.956068 
L 109.724185 72.525222 
L 111.355614 72.740645 
L 112.987044 72.309799 
L 116.249904 71.878953 
L 117.881334 72.094376 
L 119.512764 72.525222 
L 121.144194 73.386914 
L 122.775624 75.110297 
L 124.407053 71.66353 
L 126.038483 71.878953 
L 127.669913 72.309799 
L 129.301343 71.448107 
L 130.932773 71.66353 
L 132.564203 72.094376 
L 134.195633 71.232684 
L 135.827063 71.017261 
L 137.458492 71.232684 
L 139.089922 71.66353 
L 140.721352 72.525222 
L 142.352782 74.248606 
L 143.984212 77.695373 
L 145.615642 84.588908 
L 147.247072 70.801838 
L 148.878502 71.017261 
L 150.509931 70.586415 
L 155.404221 69.940146 
L 157.035651 70.155569 
L 158.667081 70.586415 
L 160.298511 69.724723 
L 166.82423 68.863031 
L 168.45566 69.078454 
L 170.08709 69.5093 
L 171.71852 70.370992 
L 173.34995 72.094376 
L 174.98138 68.647608 
L 176.61281 68.863031 
L 178.244239 69.293877 
L 179.875669 68.432185 
L 181.507099 68.216762 
L 183.138529 68.432185 
L 184.769959 68.001339 
L 188.032819 67.570493 
L 189.664249 67.785916 
L 191.295678 67.35507 
L 192.927108 67.570493 
L 194.558538 67.139647 
L 196.189968 67.35507 
L 197.821398 67.785916 
L 199.452828 68.647608 
L 201.084258 66.924224 
L 204.347117 66.493378 
L 205.978547 66.708801 
L 207.609977 66.277955 
L 209.241407 66.493378 
L 210.872837 66.062533 
L 212.504267 66.277955 
L 214.135697 66.708801 
L 215.767127 65.84711 
L 222.292846 64.985418 
L 223.924276 65.200841 
L 225.555706 65.631687 
L 227.187136 66.493378 
L 228.818566 64.769995 
L 232.081425 64.339149 
L 233.712855 64.554572 
L 235.344285 64.985418 
L 236.975715 65.84711 
L 238.607145 64.123726 
L 240.238575 63.908303 
L 241.870005 64.123726 
L 243.501434 64.554572 
L 245.132864 65.416264 
L 246.764294 67.139647 
L 248.395724 63.69288 
L 250.027154 63.908303 
L 251.658584 64.339149 
L 253.290014 65.200841 
L 254.921444 66.924224 
L 256.552873 63.477457 
L 258.184303 63.262034 
L 259.815733 63.477457 
L 261.447163 63.046611 
L 263.078593 62.831188 
L 264.710023 63.046611 
L 266.341453 62.615765 
L 267.972883 62.831188 
L 269.604312 62.400342 
L 271.235742 62.184919 
L 272.867172 62.400342 
L 274.498602 62.831188 
L 276.130032 63.69288 
L 277.761462 65.416264 
L 279.392892 61.969496 
L 281.024322 62.184919 
L 282.655751 62.615765 
L 284.287181 61.754073 
L 285.918611 61.969496 
L 287.550041 61.53865 
L 289.181471 61.754073 
L 290.812901 61.323227 
L 292.444331 61.53865 
L 294.075761 61.969496 
L 295.70719 61.107804 
L 297.33862 60.892381 
L 298.97005 61.107804 
L 300.60148 61.53865 
L 302.23291 60.676958 
L 308.75863 59.815266 
L 310.390059 60.030689 
L 312.021489 60.461535 
L 313.652919 59.599843 
L 316.915779 59.168997 
L 318.547209 59.38442 
L 320.178639 58.953574 
L 321.810069 59.168997 
L 323.441498 59.599843 
L 325.072928 58.738151 
L 326.704358 58.522728 
L 328.335788 58.738151 
L 329.967218 58.307305 
L 331.598648 58.522728 
L 333.230078 58.953574 
L 334.861508 59.815266 
L 336.492937 58.091882 
L 339.755797 57.661037 
L 341.387227 57.876459 
L 343.018657 58.307305 
L 344.650087 59.168997 
L 346.281517 60.892381 
L 347.912947 64.339149 
L 349.544376 57.445614 
L 351.175806 57.661037 
L 352.807236 58.091882 
L 354.438666 57.230191 
L 356.070096 57.014768 
L 357.701526 57.230191 
L 359.332956 56.799345 
L 360.964386 56.583922 
L 362.595815 56.799345 
L 364.227245 56.368499 
L 365.858675 56.153076 
L 367.490105 56.368499 
L 369.121535 56.799345 
L 370.752965 55.937653 
L 375.647254 55.291384 
L 377.278684 55.506807 
L 378.910114 55.075961 
L 380.541544 55.291384 
L 382.172974 54.860538 
L 383.804404 55.075961 
L 385.435834 54.645115 
L 387.067264 54.429692 
L 388.698693 54.645115 
L 390.330123 54.214269 
L 391.961553 54.429692 
L 393.592983 54.860538 
L 395.224413 53.998846 
L 398.487273 53.568 
L 398.487273 53.568 
" style="fill:none;stroke:#1f77b4;stroke-linecap:square;stroke-width:1.5;"/>
   </g>
   <g id="line2d_17">
    <path clip-path="url(#pdd311fbda1)" d="M 73.832727 74.894874 
L 80.358447 74.033183 
L 81.989877 74.248606 
L 83.621307 73.81776 
L 85.252736 74.033183 
L 86.884166 74.464028 
L 88.515596 73.602337 
L 90.147026 73.81776 
L 91.778456 74.248606 
L 93.409886 73.386914 
L 95.041316 73.602337 
L 96.672746 74.033183 
L 98.304175 73.171491 
L 99.935605 73.386914 
L 101.567035 72.956068 
L 104.829895 72.525222 
L 106.461325 72.740645 
L 108.092755 73.171491 
L 109.724185 72.309799 
L 119.512764 71.017261 
L 121.144194 71.232684 
L 122.775624 70.801838 
L 124.407053 71.017261 
L 126.038483 71.448107 
L 127.669913 72.309799 
L 129.301343 74.033183 
L 130.932773 77.47995 
L 132.564203 70.586415 
L 134.195633 70.801838 
L 135.827063 71.232684 
L 137.458492 72.094376 
L 139.089922 73.81776 
L 140.721352 70.370992 
L 142.352782 70.586415 
L 143.984212 71.017261 
L 145.615642 70.155569 
L 147.247072 70.370992 
L 148.878502 69.940146 
L 150.509931 70.155569 
L 152.141361 70.586415 
L 153.772791 71.448107 
L 155.404221 69.724723 
L 157.035651 69.940146 
L 158.667081 69.5093 
L 160.298511 69.724723 
L 161.929941 70.155569 
L 163.56137 69.293877 
L 165.1928 69.5093 
L 166.82423 69.078454 
L 168.45566 68.863031 
L 170.08709 69.078454 
L 171.71852 69.5093 
L 173.34995 70.370992 
L 174.98138 68.647608 
L 176.61281 68.432185 
L 178.244239 68.647608 
L 179.875669 68.216762 
L 181.507099 68.432185 
L 183.138529 68.001339 
L 191.295678 66.924224 
L 192.927108 67.139647 
L 194.558538 66.708801 
L 197.821398 66.277955 
L 199.452828 66.493378 
L 201.084258 66.924224 
L 202.715688 66.062533 
L 204.347117 66.277955 
L 205.978547 65.84711 
L 207.609977 66.062533 
L 209.241407 65.631687 
L 210.872837 65.84711 
L 212.504267 65.416264 
L 214.135697 65.631687 
L 215.767127 65.200841 
L 217.398556 65.416264 
L 219.029986 65.84711 
L 220.661416 64.985418 
L 222.292846 65.200841 
L 223.924276 65.631687 
L 225.555706 64.769995 
L 227.187136 64.985418 
L 228.818566 64.554572 
L 232.081425 64.123726 
L 233.712855 64.339149 
L 235.344285 64.769995 
L 236.975715 63.908303 
L 238.607145 63.69288 
L 240.238575 63.908303 
L 241.870005 64.339149 
L 243.501434 63.477457 
L 245.132864 63.69288 
L 246.764294 64.123726 
L 248.395724 64.985418 
L 250.027154 66.708801 
L 251.658584 63.262034 
L 254.921444 62.831188 
L 256.552873 63.046611 
L 258.184303 63.477457 
L 259.815733 64.339149 
L 261.447163 62.615765 
L 263.078593 62.831188 
L 264.710023 62.400342 
L 267.972883 61.969496 
L 269.604312 62.184919 
L 271.235742 61.754073 
L 272.867172 61.969496 
L 274.498602 62.400342 
L 276.130032 63.262034 
L 277.761462 61.53865 
L 279.392892 61.323227 
L 281.024322 61.53865 
L 282.655751 61.107804 
L 284.287181 61.323227 
L 285.918611 61.754073 
L 287.550041 60.892381 
L 289.181471 60.676958 
L 290.812901 60.892381 
L 292.444331 61.323227 
L 294.075761 62.184919 
L 295.70719 60.461535 
L 297.33862 60.246112 
L 298.97005 60.461535 
L 300.60148 60.892381 
L 302.23291 60.030689 
L 305.49577 59.599843 
L 307.1272 59.815266 
L 308.75863 60.246112 
L 310.390059 59.38442 
L 312.021489 59.168997 
L 313.652919 59.38442 
L 315.284349 59.815266 
L 316.915779 58.953574 
L 318.547209 59.168997 
L 320.178639 58.738151 
L 323.441498 58.307305 
L 325.072928 58.522728 
L 326.704358 58.091882 
L 328.335788 58.307305 
L 329.967218 58.738151 
L 331.598648 57.876459 
L 336.492937 57.230191 
L 338.124367 57.445614 
L 339.755797 57.876459 
L 341.387227 57.014768 
L 343.018657 56.799345 
L 344.650087 57.014768 
L 346.281517 57.445614 
L 347.912947 58.307305 
L 349.544376 60.030689 
L 351.175806 63.477457 
L 352.807236 56.583922 
L 354.438666 56.799345 
L 356.070096 56.368499 
L 357.701526 56.583922 
L 359.332956 56.153076 
L 360.964386 55.937653 
L 362.595815 56.153076 
L 364.227245 56.583922 
L 365.858675 55.72223 
L 370.752965 55.075961 
L 372.384395 55.291384 
L 374.015825 54.860538 
L 375.647254 55.075961 
L 377.278684 55.506807 
L 378.910114 54.645115 
L 380.541544 54.860538 
L 382.172974 55.291384 
L 383.804404 54.429692 
L 385.435834 54.645115 
L 387.067264 55.075961 
L 388.698693 54.214269 
L 390.330123 54.429692 
L 391.961553 53.998846 
L 393.592983 54.214269 
L 395.224413 54.645115 
L 396.855843 55.506807 
L 398.487273 57.230191 
L 398.487273 57.230191 
" style="fill:none;stroke:#ff7f0e;stroke-linecap:square;stroke-width:1.5;"/>
   </g>
   <g id="line2d_18">
    <path clip-path="url(#pdd311fbda1)" d="M 73.832727 74.894874 
L 75.464157 75.110297 
L 77.095587 74.679451 
L 80.358447 74.248606 
L 81.989877 74.464028 
L 83.621307 74.033183 
L 85.252736 74.248606 
L 86.884166 74.679451 
L 88.515596 73.81776 
L 91.778456 73.386914 
L 93.409886 73.602337 
L 95.041316 73.171491 
L 98.304175 72.740645 
L 99.935605 72.956068 
L 101.567035 72.525222 
L 106.461325 71.878953 
L 108.092755 72.094376 
L 109.724185 71.66353 
L 111.355614 71.878953 
L 112.987044 72.309799 
L 114.618474 71.448107 
L 116.249904 71.66353 
L 117.881334 72.094376 
L 119.512764 72.956068 
L 121.144194 71.232684 
L 126.038483 70.586415 
L 127.669913 70.801838 
L 129.301343 70.370992 
L 130.932773 70.586415 
L 132.564203 70.155569 
L 134.195633 70.370992 
L 135.827063 70.801838 
L 137.458492 69.940146 
L 140.721352 69.5093 
L 142.352782 69.724723 
L 143.984212 70.155569 
L 145.615642 71.017261 
L 147.247072 72.740645 
L 148.878502 69.293877 
L 150.509931 69.078454 
L 152.141361 69.293877 
L 153.772791 69.724723 
L 155.404221 68.863031 
L 157.035651 68.647608 
L 158.667081 68.863031 
L 160.298511 69.293877 
L 161.929941 70.155569 
L 163.56137 71.878953 
L 165.1928 75.32572 
L 166.82423 68.432185 
L 168.45566 68.647608 
L 170.08709 69.078454 
L 171.71852 69.940146 
L 173.34995 71.66353 
L 174.98138 68.216762 
L 179.875669 67.570493 
L 181.507099 67.785916 
L 183.138529 67.35507 
L 184.769959 67.570493 
L 186.401389 67.139647 
L 188.032819 67.35507 
L 189.664249 67.785916 
L 191.295678 66.924224 
L 192.927108 66.708801 
L 194.558538 66.924224 
L 196.189968 67.35507 
L 197.821398 68.216762 
L 199.452828 69.940146 
L 201.084258 66.493378 
L 202.715688 66.708801 
L 204.347117 66.277955 
L 205.978547 66.062533 
L 207.609977 66.277955 
L 209.241407 66.708801 
L 210.872837 65.84711 
L 212.504267 66.062533 
L 214.135697 66.493378 
L 215.767127 67.35507 
L 217.398556 65.631687 
L 219.029986 65.84711 
L 220.661416 66.277955 
L 222.292846 67.139647 
L 223.924276 68.863031 
L 225.555706 72.309799 
L 227.187136 65.416264 
L 228.818566 65.631687 
L 230.449995 66.062533 
L 232.081425 65.200841 
L 233.712855 65.416264 
L 235.344285 64.985418 
L 236.975715 64.769995 
L 238.607145 64.985418 
L 240.238575 65.416264 
L 241.870005 66.277955 
L 243.501434 68.001339 
L 245.132864 71.448107 
L 246.764294 64.554572 
L 248.395724 64.339149 
L 250.027154 64.554572 
L 251.658584 64.123726 
L 253.290014 64.339149 
L 254.921444 64.769995 
L 256.552873 63.908303 
L 258.184303 64.123726 
L 259.815733 63.69288 
L 266.341453 62.831188 
L 267.972883 63.046611 
L 269.604312 63.477457 
L 271.235742 62.615765 
L 276.130032 61.969496 
L 277.761462 62.184919 
L 279.392892 62.615765 
L 281.024322 61.754073 
L 282.655751 61.969496 
L 284.287181 62.400342 
L 285.918611 63.262034 
L 287.550041 64.985418 
L 289.181471 61.53865 
L 290.812901 61.754073 
L 292.444331 62.184919 
L 294.075761 63.046611 
L 295.70719 64.769995 
L 297.33862 68.216762 
L 298.97005 61.323227 
L 308.75863 60.030689 
L 310.390059 60.246112 
L 312.021489 59.815266 
L 316.915779 59.168997 
L 318.547209 59.38442 
L 320.178639 59.815266 
L 321.810069 60.676958 
L 323.441498 62.400342 
L 325.072928 58.953574 
L 328.335788 58.522728 
L 329.967218 58.738151 
L 331.598648 59.168997 
L 333.230078 60.030689 
L 334.861508 58.307305 
L 336.492937 58.522728 
L 338.124367 58.091882 
L 339.755797 57.876459 
L 341.387227 58.091882 
L 343.018657 58.522728 
L 344.650087 59.38442 
L 346.281517 61.107804 
L 347.912947 64.554572 
L 349.544376 57.661037 
L 351.175806 57.876459 
L 352.807236 57.445614 
L 354.438666 57.661037 
L 356.070096 58.091882 
L 357.701526 58.953574 
L 359.332956 60.676958 
L 360.964386 57.230191 
L 362.595815 57.445614 
L 364.227245 57.876459 
L 365.858675 57.014768 
L 370.752965 56.368499 
L 372.384395 56.583922 
L 374.015825 56.153076 
L 380.541544 55.291384 
L 382.172974 55.506807 
L 383.804404 55.937653 
L 385.435834 56.799345 
L 387.067264 55.075961 
L 388.698693 54.860538 
L 390.330123 55.075961 
L 391.961553 54.645115 
L 393.592983 54.860538 
L 395.224413 54.429692 
L 398.487273 53.998846 
L 398.487273 53.998846 
" style="fill:none;stroke:#2ca02c;stroke-linecap:square;stroke-width:1.5;"/>
   </g>
   <g id="line2d_19">
    <path clip-path="url(#pdd311fbda1)" d="M 73.832727 75.32572 
L 75.464157 75.756566 
L 77.095587 76.618258 
L 78.727017 78.341642 
L 80.358447 81.78841 
L 81.989877 88.681945 
L 83.621307 102.469015 
L 85.252736 130.043156 
L 86.884166 185.191437 
L 88.515596 295.488 
L 398.487273 295.488 
L 398.487273 295.488 
" style="fill:none;stroke:#d62728;stroke-linecap:square;stroke-width:1.5;"/>
   </g>
   <g id="line2d_20">
    <path clip-path="url(#pdd311fbda1)" d="M 73.832727 75.32572 
L 75.464157 74.894874 
L 77.095587 75.110297 
L 78.727017 75.541143 
L 80.358447 76.402835 
L 81.989877 74.679451 
L 83.621307 74.464028 
L 85.252736 74.679451 
L 86.884166 75.110297 
L 88.515596 75.971989 
L 90.147026 74.248606 
L 95.041316 73.602337 
L 96.672746 73.81776 
L 98.304175 74.248606 
L 99.935605 73.386914 
L 101.567035 73.602337 
L 103.198465 74.033183 
L 104.829895 73.171491 
L 106.461325 72.956068 
L 108.092755 73.171491 
L 109.724185 72.740645 
L 117.881334 71.66353 
L 119.512764 71.878953 
L 121.144194 71.448107 
L 122.775624 71.66353 
L 124.407053 71.232684 
L 126.038483 71.017261 
L 127.669913 71.232684 
L 129.301343 70.801838 
L 130.932773 71.017261 
L 132.564203 71.448107 
L 134.195633 70.586415 
L 135.827063 70.801838 
L 137.458492 70.370992 
L 139.089922 70.155569 
L 140.721352 70.370992 
L 142.352782 69.940146 
L 143.984212 70.155569 
L 145.615642 69.724723 
L 147.247072 69.940146 
L 148.878502 70.370992 
L 150.509931 71.232684 
L 152.141361 69.5093 
L 158.667081 68.647608 
L 160.298511 68.863031 
L 161.929941 69.293877 
L 163.56137 70.155569 
L 165.1928 68.432185 
L 166.82423 68.647608 
L 168.45566 69.078454 
L 170.08709 69.940146 
L 171.71852 68.216762 
L 178.244239 67.35507 
L 179.875669 67.570493 
L 181.507099 68.001339 
L 183.138529 67.139647 
L 184.769959 67.35507 
L 186.401389 66.924224 
L 189.664249 66.493378 
L 191.295678 66.708801 
L 192.927108 66.277955 
L 194.558538 66.062533 
L 196.189968 66.277955 
L 197.821398 65.84711 
L 199.452828 65.631687 
L 201.084258 65.84711 
L 202.715688 66.277955 
L 204.347117 67.139647 
L 205.978547 68.863031 
L 207.609977 65.416264 
L 209.241407 65.200841 
L 210.872837 65.416264 
L 212.504267 64.985418 
L 217.398556 64.339149 
L 219.029986 64.554572 
L 220.661416 64.123726 
L 222.292846 63.908303 
L 223.924276 64.123726 
L 225.555706 64.554572 
L 227.187136 65.416264 
L 228.818566 63.69288 
L 230.449995 63.477457 
L 232.081425 63.69288 
L 233.712855 64.123726 
L 235.344285 63.262034 
L 240.238575 62.615765 
L 241.870005 62.831188 
L 243.501434 63.262034 
L 245.132864 62.400342 
L 246.764294 62.615765 
L 248.395724 62.184919 
L 250.027154 62.400342 
L 251.658584 62.831188 
L 253.290014 63.69288 
L 254.921444 65.416264 
L 256.552873 68.863031 
L 258.184303 75.756566 
L 259.815733 61.969496 
L 261.447163 62.184919 
L 263.078593 62.615765 
L 264.710023 63.477457 
L 266.341453 65.200841 
L 267.972883 61.754073 
L 269.604312 61.969496 
L 271.235742 61.53865 
L 272.867172 61.323227 
L 274.498602 61.53865 
L 276.130032 61.969496 
L 277.761462 62.831188 
L 279.392892 64.554572 
L 281.024322 68.001339 
L 282.655751 74.894874 
L 284.287181 88.681945 
L 285.918611 116.256085 
L 287.550041 171.404367 
L 289.181471 281.70093 
L 398.487273 281.70093 
L 398.487273 281.70093 
" style="fill:none;stroke:#9467bd;stroke-linecap:square;stroke-width:1.5;"/>
   </g>
   <g id="line2d_21">
    <path clip-path="url(#pdd311fbda1)" d="M 73.832727 74.894874 
L 75.464157 75.110297 
L 77.095587 75.541143 
L 78.727017 74.679451 
L 80.358447 74.894874 
L 81.989877 74.464028 
L 83.621307 74.679451 
L 85.252736 75.110297 
L 86.884166 74.248606 
L 88.515596 74.464028 
L 90.147026 74.033183 
L 91.778456 74.248606 
L 93.409886 73.81776 
L 95.041316 73.602337 
L 96.672746 73.81776 
L 98.304175 74.248606 
L 99.935605 75.110297 
L 101.567035 76.833681 
L 103.198465 80.280449 
L 104.829895 87.173984 
L 106.461325 73.386914 
L 108.092755 73.602337 
L 109.724185 73.171491 
L 111.355614 72.956068 
L 112.987044 73.171491 
L 114.618474 73.602337 
L 116.249904 74.464028 
L 117.881334 76.187412 
L 119.512764 79.63418 
L 121.144194 72.740645 
L 122.775624 72.525222 
L 124.407053 72.740645 
L 126.038483 72.309799 
L 129.301343 71.878953 
L 130.932773 72.094376 
L 132.564203 71.66353 
L 134.195633 71.448107 
L 135.827063 71.66353 
L 137.458492 72.094376 
L 139.089922 72.956068 
L 140.721352 71.232684 
L 142.352782 71.448107 
L 143.984212 71.017261 
L 145.615642 71.232684 
L 147.247072 71.66353 
L 148.878502 72.525222 
L 150.509931 74.248606 
L 152.141361 70.801838 
L 155.404221 70.370992 
L 157.035651 70.586415 
L 158.667081 70.155569 
L 161.929941 69.724723 
L 163.56137 69.940146 
L 165.1928 70.370992 
L 166.82423 69.5093 
L 168.45566 69.724723 
L 170.08709 70.155569 
L 171.71852 69.293877 
L 176.61281 68.647608 
L 178.244239 68.863031 
L 179.875669 69.293877 
L 181.507099 70.155569 
L 183.138529 68.432185 
L 188.032819 67.785916 
L 189.664249 68.001339 
L 191.295678 68.432185 
L 192.927108 69.293877 
L 194.558538 67.570493 
L 196.189968 67.785916 
L 197.821398 68.216762 
L 199.452828 67.35507 
L 201.084258 67.570493 
L 202.715688 68.001339 
L 204.347117 68.863031 
L 205.978547 70.586415 
L 207.609977 74.033183 
L 209.241407 67.139647 
L 210.872837 66.924224 
L 212.504267 67.139647 
L 214.135697 67.570493 
L 215.767127 68.432185 
L 217.398556 66.708801 
L 219.029986 66.493378 
L 220.661416 66.708801 
L 222.292846 66.277955 
L 223.924276 66.062533 
L 225.555706 66.277955 
L 227.187136 65.84711 
L 230.449995 65.416264 
L 232.081425 65.631687 
L 233.712855 65.200841 
L 235.344285 65.416264 
L 236.975715 65.84711 
L 238.607145 66.708801 
L 240.238575 68.432185 
L 241.870005 71.878953 
L 243.501434 64.985418 
L 250.027154 64.123726 
L 251.658584 64.339149 
L 253.290014 63.908303 
L 254.921444 63.69288 
L 256.552873 63.908303 
L 258.184303 63.477457 
L 259.815733 63.69288 
L 261.447163 64.123726 
L 263.078593 64.985418 
L 264.710023 63.262034 
L 266.341453 63.046611 
L 267.972883 63.262034 
L 269.604312 63.69288 
L 271.235742 64.554572 
L 272.867172 62.831188 
L 274.498602 63.046611 
L 276.130032 63.477457 
L 277.761462 62.615765 
L 279.392892 62.831188 
L 281.024322 62.400342 
L 282.655751 62.615765 
L 284.287181 62.184919 
L 285.918611 61.969496 
L 287.550041 62.184919 
L 289.181471 61.754073 
L 290.812901 61.969496 
L 292.444331 61.53865 
L 294.075761 61.754073 
L 295.70719 62.184919 
L 297.33862 61.323227 
L 298.97005 61.53865 
L 300.60148 61.969496 
L 302.23291 62.831188 
L 303.86434 61.107804 
L 307.1272 60.676958 
L 308.75863 60.892381 
L 310.390059 60.461535 
L 315.284349 59.815266 
L 316.915779 60.030689 
L 318.547209 59.599843 
L 325.072928 58.738151 
L 326.704358 58.953574 
L 328.335788 58.522728 
L 329.967218 58.738151 
L 331.598648 59.168997 
L 333.230078 58.307305 
L 334.861508 58.522728 
L 336.492937 58.091882 
L 338.124367 57.876459 
L 339.755797 58.091882 
L 341.387227 57.661037 
L 343.018657 57.445614 
L 344.650087 57.661037 
L 346.281517 57.230191 
L 347.912947 57.014768 
L 349.544376 57.230191 
L 351.175806 57.661037 
L 352.807236 56.799345 
L 356.070096 56.368499 
L 357.701526 56.583922 
L 359.332956 57.014768 
L 360.964386 57.876459 
L 362.595815 59.599843 
L 364.227245 63.046611 
L 365.858675 69.940146 
L 367.490105 56.153076 
L 369.121535 56.368499 
L 370.752965 56.799345 
L 372.384395 55.937653 
L 374.015825 56.153076 
L 375.647254 55.72223 
L 377.278684 55.506807 
L 378.910114 55.72223 
L 380.541544 56.153076 
L 382.172974 55.291384 
L 383.804404 55.075961 
L 385.435834 55.291384 
L 387.067264 54.860538 
L 396.855843 53.568 
L 398.487273 53.783423 
L 398.487273 53.783423 
" style="fill:none;stroke:#8c564b;stroke-linecap:square;stroke-width:1.5;"/>
   </g>
   <g id="line2d_22">
    <path clip-path="url(#pdd311fbda1)" d="M 73.832727 75.32572 
L 75.464157 74.894874 
L 77.095587 74.679451 
L 78.727017 74.894874 
L 80.358447 75.32572 
L 81.989877 76.187412 
L 83.621307 77.910796 
L 85.252736 74.464028 
L 86.884166 74.679451 
L 88.515596 74.248606 
L 90.147026 74.464028 
L 91.778456 74.894874 
L 93.409886 75.756566 
L 95.041316 74.033183 
L 96.672746 74.248606 
L 98.304175 74.679451 
L 99.935605 73.81776 
L 101.567035 73.602337 
L 103.198465 73.81776 
L 104.829895 74.248606 
L 106.461325 73.386914 
L 111.355614 72.740645 
L 112.987044 72.956068 
L 114.618474 73.386914 
L 116.249904 74.248606 
L 117.881334 72.525222 
L 119.512764 72.740645 
L 121.144194 72.309799 
L 124.407053 71.878953 
L 126.038483 72.094376 
L 127.669913 71.66353 
L 129.301343 71.878953 
L 130.932773 71.448107 
L 132.564203 71.66353 
L 134.195633 72.094376 
L 135.827063 72.956068 
L 137.458492 74.679451 
L 139.089922 78.126219 
L 140.721352 71.232684 
L 142.352782 71.448107 
L 143.984212 71.017261 
L 145.615642 70.801838 
L 147.247072 71.017261 
L 148.878502 71.448107 
L 150.509931 70.586415 
L 152.141361 70.801838 
L 153.772791 70.370992 
L 155.404221 70.586415 
L 157.035651 71.017261 
L 158.667081 71.878953 
L 160.298511 70.155569 
L 163.56137 69.724723 
L 165.1928 69.940146 
L 166.82423 70.370992 
L 168.45566 69.5093 
L 170.08709 69.724723 
L 171.71852 70.155569 
L 173.34995 69.293877 
L 174.98138 69.078454 
L 176.61281 69.293877 
L 178.244239 69.724723 
L 179.875669 68.863031 
L 181.507099 68.647608 
L 183.138529 68.863031 
L 184.769959 68.432185 
L 186.401389 68.216762 
L 188.032819 68.432185 
L 189.664249 68.863031 
L 191.295678 69.724723 
L 192.927108 68.001339 
L 194.558538 68.216762 
L 196.189968 67.785916 
L 197.821398 68.001339 
L 199.452828 67.570493 
L 201.084258 67.785916 
L 202.715688 67.35507 
L 204.347117 67.570493 
L 205.978547 67.139647 
L 207.609977 67.35507 
L 209.241407 66.924224 
L 210.872837 66.708801 
L 212.504267 66.924224 
L 214.135697 66.493378 
L 215.767127 66.708801 
L 217.398556 66.277955 
L 220.661416 65.84711 
L 222.292846 66.062533 
L 223.924276 65.631687 
L 225.555706 65.416264 
L 227.187136 65.631687 
L 228.818566 65.200841 
L 230.449995 64.985418 
L 232.081425 65.200841 
L 233.712855 65.631687 
L 235.344285 66.493378 
L 236.975715 64.769995 
L 241.870005 64.123726 
L 243.501434 64.339149 
L 245.132864 63.908303 
L 246.764294 63.69288 
L 248.395724 63.908303 
L 250.027154 64.339149 
L 251.658584 63.477457 
L 253.290014 63.69288 
L 254.921444 64.123726 
L 256.552873 63.262034 
L 258.184303 63.477457 
L 259.815733 63.908303 
L 261.447163 64.769995 
L 263.078593 66.493378 
L 264.710023 63.046611 
L 266.341453 63.262034 
L 267.972883 62.831188 
L 269.604312 63.046611 
L 271.235742 63.477457 
L 272.867172 62.615765 
L 276.130032 62.184919 
L 277.761462 62.400342 
L 279.392892 62.831188 
L 281.024322 63.69288 
L 282.655751 65.416264 
L 284.287181 68.863031 
L 285.918611 75.756566 
L 287.550041 61.969496 
L 289.181471 62.184919 
L 290.812901 62.615765 
L 292.444331 63.477457 
L 294.075761 65.200841 
L 295.70719 68.647608 
L 297.33862 61.754073 
L 298.97005 61.969496 
L 300.60148 61.53865 
L 302.23291 61.754073 
L 303.86434 61.323227 
L 305.49577 61.53865 
L 307.1272 61.969496 
L 308.75863 61.107804 
L 310.390059 61.323227 
L 312.021489 60.892381 
L 313.652919 60.676958 
L 315.284349 60.892381 
L 316.915779 61.323227 
L 318.547209 62.184919 
L 320.178639 60.461535 
L 321.810069 60.676958 
L 323.441498 60.246112 
L 325.072928 60.461535 
L 326.704358 60.030689 
L 331.598648 59.38442 
L 333.230078 59.599843 
L 334.861508 60.030689 
L 336.492937 59.168997 
L 338.124367 59.38442 
L 339.755797 59.815266 
L 341.387227 60.676958 
L 343.018657 62.400342 
L 344.650087 65.84711 
L 346.281517 72.740645 
L 347.912947 58.953574 
L 349.544376 58.738151 
L 351.175806 58.953574 
L 352.807236 58.522728 
L 354.438666 58.738151 
L 356.070096 59.168997 
L 357.701526 60.030689 
L 359.332956 58.307305 
L 364.227245 57.661037 
L 365.858675 57.876459 
L 367.490105 57.445614 
L 370.752965 57.014768 
L 372.384395 57.230191 
L 374.015825 57.661037 
L 375.647254 58.522728 
L 377.278684 60.246112 
L 378.910114 63.69288 
L 380.541544 56.799345 
L 382.172974 56.583922 
L 383.804404 56.799345 
L 385.435834 56.368499 
L 388.698693 55.937653 
L 390.330123 56.153076 
L 391.961553 55.72223 
L 395.224413 55.291384 
L 396.855843 55.506807 
L 398.487273 55.937653 
L 398.487273 55.937653 
" style="fill:none;stroke:#e377c2;stroke-linecap:square;stroke-width:1.5;"/>
   </g>
   <g id="line2d_23">
    <path clip-path="url(#pdd311fbda1)" d="M 73.832727 75.32572 
L 75.464157 75.756566 
L 77.095587 76.618258 
L 78.727017 74.894874 
L 80.358447 74.679451 
L 81.989877 74.894874 
L 83.621307 75.32572 
L 85.252736 74.464028 
L 103.198465 72.094376 
L 104.829895 72.309799 
L 106.461325 72.740645 
L 108.092755 71.878953 
L 109.724185 72.094376 
L 111.355614 71.66353 
L 112.987044 71.448107 
L 114.618474 71.66353 
L 116.249904 72.094376 
L 117.881334 72.956068 
L 119.512764 71.232684 
L 121.144194 71.448107 
L 122.775624 71.017261 
L 124.407053 71.232684 
L 126.038483 71.66353 
L 127.669913 70.801838 
L 134.195633 69.940146 
L 135.827063 70.155569 
L 137.458492 70.586415 
L 139.089922 69.724723 
L 142.352782 69.293877 
L 143.984212 69.5093 
L 145.615642 69.078454 
L 147.247072 69.293877 
L 148.878502 68.863031 
L 150.509931 68.647608 
L 152.141361 68.863031 
L 153.772791 68.432185 
L 155.404221 68.647608 
L 157.035651 68.216762 
L 158.667081 68.001339 
L 160.298511 68.216762 
L 161.929941 68.647608 
L 163.56137 69.5093 
L 165.1928 71.232684 
L 166.82423 74.679451 
L 168.45566 67.785916 
L 170.08709 68.001339 
L 171.71852 67.570493 
L 173.34995 67.785916 
L 174.98138 68.216762 
L 176.61281 67.35507 
L 178.244239 67.570493 
L 179.875669 67.139647 
L 181.507099 67.35507 
L 183.138529 67.785916 
L 184.769959 66.924224 
L 186.401389 67.139647 
L 188.032819 66.708801 
L 189.664249 66.924224 
L 191.295678 67.35507 
L 192.927108 68.216762 
L 194.558538 66.493378 
L 196.189968 66.708801 
L 197.821398 66.277955 
L 199.452828 66.062533 
L 201.084258 66.277955 
L 202.715688 65.84711 
L 204.347117 65.631687 
L 205.978547 65.84711 
L 207.609977 66.277955 
L 209.241407 65.416264 
L 210.872837 65.631687 
L 212.504267 65.200841 
L 214.135697 64.985418 
L 215.767127 65.200841 
L 217.398556 65.631687 
L 219.029986 64.769995 
L 220.661416 64.985418 
L 222.292846 64.554572 
L 223.924276 64.339149 
L 225.555706 64.554572 
L 227.187136 64.985418 
L 228.818566 65.84711 
L 230.449995 64.123726 
L 235.344285 63.477457 
L 236.975715 63.69288 
L 238.607145 64.123726 
L 240.238575 64.985418 
L 241.870005 66.708801 
L 243.501434 70.155569 
L 245.132864 63.262034 
L 246.764294 63.477457 
L 248.395724 63.908303 
L 250.027154 63.046611 
L 251.658584 62.831188 
L 253.290014 63.046611 
L 254.921444 62.615765 
L 256.552873 62.831188 
L 258.184303 63.262034 
L 259.815733 64.123726 
L 261.447163 65.84711 
L 263.078593 62.400342 
L 264.710023 62.615765 
L 266.341453 62.184919 
L 267.972883 61.969496 
L 269.604312 62.184919 
L 271.235742 62.615765 
L 272.867172 63.477457 
L 274.498602 65.200841 
L 276.130032 68.647608 
L 277.761462 75.541143 
L 279.392892 89.328214 
L 281.024322 116.902354 
L 282.655751 61.754073 
L 285.918611 61.323227 
L 287.550041 61.53865 
L 289.181471 61.107804 
L 290.812901 60.892381 
L 292.444331 61.107804 
L 294.075761 60.676958 
L 295.70719 60.892381 
L 297.33862 60.461535 
L 298.97005 60.676958 
L 300.60148 61.107804 
L 302.23291 61.969496 
L 303.86434 63.69288 
L 305.49577 67.139647 
L 307.1272 74.033183 
L 308.75863 87.820253 
L 310.390059 115.394394 
L 312.021489 60.246112 
L 316.915779 59.599843 
L 318.547209 59.815266 
L 320.178639 59.38442 
L 321.810069 59.599843 
L 323.441498 59.168997 
L 325.072928 59.38442 
L 326.704358 58.953574 
L 329.967218 58.522728 
L 331.598648 58.738151 
L 333.230078 58.307305 
L 336.492937 57.876459 
L 338.124367 58.091882 
L 339.755797 58.522728 
L 341.387227 57.661037 
L 343.018657 57.445614 
L 344.650087 57.661037 
L 346.281517 58.091882 
L 347.912947 57.230191 
L 349.544376 57.445614 
L 351.175806 57.014768 
L 352.807236 57.230191 
L 354.438666 56.799345 
L 356.070096 57.014768 
L 357.701526 57.445614 
L 359.332956 58.307305 
L 360.964386 56.583922 
L 365.858675 55.937653 
L 367.490105 56.153076 
L 369.121535 55.72223 
L 370.752965 55.937653 
L 372.384395 56.368499 
L 374.015825 55.506807 
L 375.647254 55.291384 
L 377.278684 55.506807 
L 378.910114 55.075961 
L 383.804404 54.429692 
L 385.435834 54.645115 
L 387.067264 55.075961 
L 388.698693 54.214269 
L 390.330123 54.429692 
L 391.961553 53.998846 
L 393.592983 53.783423 
L 395.224413 53.998846 
L 396.855843 54.429692 
L 398.487273 55.291384 
L 398.487273 55.291384 
" style="fill:none;stroke:#7f7f7f;stroke-linecap:square;stroke-width:1.5;"/>
   </g>
   <g id="line2d_24">
    <path clip-path="url(#pdd311fbda1)" d="M 73.832727 74.894874 
L 75.464157 75.110297 
L 77.095587 74.679451 
L 78.727017 74.894874 
L 80.358447 74.464028 
L 81.989877 74.248606 
L 83.621307 74.464028 
L 85.252736 74.894874 
L 86.884166 74.033183 
L 88.515596 73.81776 
L 90.147026 74.033183 
L 91.778456 73.602337 
L 93.409886 73.81776 
L 95.041316 73.386914 
L 96.672746 73.602337 
L 98.304175 74.033183 
L 99.935605 73.171491 
L 101.567035 73.386914 
L 103.198465 73.81776 
L 104.829895 74.679451 
L 106.461325 72.956068 
L 111.355614 72.309799 
L 112.987044 72.525222 
L 114.618474 72.094376 
L 116.249904 72.309799 
L 117.881334 71.878953 
L 119.512764 72.094376 
L 121.144194 71.66353 
L 124.407053 71.232684 
L 126.038483 71.448107 
L 127.669913 71.017261 
L 129.301343 70.801838 
L 130.932773 71.017261 
L 132.564203 70.586415 
L 134.195633 70.801838 
L 135.827063 71.232684 
L 137.458492 70.370992 
L 139.089922 70.586415 
L 140.721352 71.017261 
L 142.352782 71.878953 
L 143.984212 70.155569 
L 147.247072 69.724723 
L 148.878502 69.940146 
L 150.509931 70.370992 
L 152.141361 69.5093 
L 155.404221 69.078454 
L 157.035651 69.293877 
L 158.667081 69.724723 
L 160.298511 68.863031 
L 161.929941 69.078454 
L 163.56137 69.5093 
L 165.1928 70.370992 
L 166.82423 68.647608 
L 168.45566 68.863031 
L 170.08709 68.432185 
L 171.71852 68.647608 
L 173.34995 68.216762 
L 174.98138 68.432185 
L 176.61281 68.001339 
L 178.244239 68.216762 
L 179.875669 68.647608 
L 181.507099 69.5093 
L 183.138529 71.232684 
L 184.769959 67.785916 
L 186.401389 67.570493 
L 188.032819 67.785916 
L 189.664249 68.216762 
L 191.295678 67.35507 
L 192.927108 67.570493 
L 194.558538 67.139647 
L 196.189968 66.924224 
L 197.821398 67.139647 
L 199.452828 67.570493 
L 201.084258 68.432185 
L 202.715688 70.155569 
L 204.347117 66.708801 
L 214.135697 65.416264 
L 215.767127 65.631687 
L 217.398556 66.062533 
L 219.029986 66.924224 
L 220.661416 65.200841 
L 223.924276 64.769995 
L 225.555706 64.985418 
L 227.187136 64.554572 
L 228.818566 64.769995 
L 230.449995 65.200841 
L 232.081425 66.062533 
L 233.712855 67.785916 
L 235.344285 71.232684 
L 236.975715 64.339149 
L 243.501434 63.477457 
L 245.132864 63.69288 
L 246.764294 63.262034 
L 248.395724 63.477457 
L 250.027154 63.908303 
L 251.658584 63.046611 
L 253.290014 63.262034 
L 254.921444 63.69288 
L 256.552873 64.554572 
L 258.184303 62.831188 
L 261.447163 62.400342 
L 263.078593 62.615765 
L 264.710023 63.046611 
L 266.341453 62.184919 
L 267.972883 61.969496 
L 269.604312 62.184919 
L 271.235742 61.754073 
L 272.867172 61.969496 
L 274.498602 62.400342 
L 276.130032 61.53865 
L 277.761462 61.323227 
L 279.392892 61.53865 
L 281.024322 61.969496 
L 282.655751 62.831188 
L 284.287181 61.107804 
L 285.918611 60.892381 
L 287.550041 61.107804 
L 289.181471 61.53865 
L 290.812901 62.400342 
L 292.444331 60.676958 
L 295.70719 60.246112 
L 297.33862 60.461535 
L 298.97005 60.892381 
L 300.60148 61.754073 
L 302.23291 60.030689 
L 303.86434 60.246112 
L 305.49577 60.676958 
L 307.1272 59.815266 
L 315.284349 58.738151 
L 316.915779 58.953574 
L 318.547209 58.522728 
L 320.178639 58.738151 
L 321.810069 59.168997 
L 323.441498 60.030689 
L 325.072928 61.754073 
L 326.704358 58.307305 
L 328.335788 58.091882 
L 329.967218 58.307305 
L 331.598648 57.876459 
L 333.230078 57.661037 
L 334.861508 57.876459 
L 336.492937 57.445614 
L 338.124367 57.230191 
L 339.755797 57.445614 
L 341.387227 57.876459 
L 343.018657 58.738151 
L 344.650087 60.461535 
L 346.281517 57.014768 
L 347.912947 57.230191 
L 349.544376 57.661037 
L 351.175806 56.799345 
L 357.701526 55.937653 
L 359.332956 56.153076 
L 360.964386 56.583922 
L 362.595815 55.72223 
L 364.227245 55.937653 
L 365.858675 55.506807 
L 367.490105 55.72223 
L 369.121535 56.153076 
L 370.752965 57.014768 
L 372.384395 55.291384 
L 374.015825 55.506807 
L 375.647254 55.937653 
L 377.278684 55.075961 
L 378.910114 55.291384 
L 380.541544 54.860538 
L 382.172974 55.075961 
L 383.804404 55.506807 
L 385.435834 56.368499 
L 387.067264 54.645115 
L 388.698693 54.429692 
L 390.330123 54.645115 
L 391.961553 55.075961 
L 393.592983 54.214269 
L 395.224413 54.429692 
L 396.855843 54.860538 
L 398.487273 55.72223 
L 398.487273 55.72223 
" style="fill:none;stroke:#bcbd22;stroke-linecap:square;stroke-width:1.5;"/>
   </g>
   <g id="line2d_25">
    <path clip-path="url(#pdd311fbda1)" d="M 73.832727 75.32572 
L 75.464157 75.756566 
L 77.095587 74.894874 
L 78.727017 74.679451 
L 80.358447 74.894874 
L 81.989877 75.32572 
L 83.621307 74.464028 
L 86.884166 74.033183 
L 88.515596 74.248606 
L 90.147026 74.679451 
L 91.778456 75.541143 
L 93.409886 73.81776 
L 95.041316 74.033183 
L 96.672746 73.602337 
L 99.935605 73.171491 
L 101.567035 73.386914 
L 103.198465 72.956068 
L 106.461325 72.525222 
L 108.092755 72.740645 
L 109.724185 73.171491 
L 111.355614 74.033183 
L 112.987044 75.756566 
L 114.618474 79.203334 
L 116.249904 86.096869 
L 117.881334 99.883939 
L 119.512764 127.45808 
L 121.144194 182.606362 
L 122.775624 292.902924 
L 398.487273 292.902924 
L 398.487273 292.902924 
" style="fill:none;stroke:#17becf;stroke-linecap:square;stroke-width:1.5;"/>
   </g>
   <g id="patch_3">
    <path d="M 57.6 307.584 
L 57.6 41.472 
" style="fill:none;stroke:#000000;stroke-linecap:square;stroke-linejoin:miter;stroke-width:0.8;"/>
   </g>
   <g id="patch_4">
    <path d="M 414.72 307.584 
L 414.72 41.472 
" style="fill:none;stroke:#000000;stroke-linecap:square;stroke-linejoin:miter;stroke-width:0.8;"/>
   </g>
   <g id="patch_5">
    <path d="M 57.6 307.584 
L 414.72 307.584 
" style="fill:none;stroke:#000000;stroke-linecap:square;stroke-linejoin:miter;stroke-width:0.8;"/>
   </g>
   <g id="patch_6">
    <path d="M 57.6 41.472 
L 414.72 41.472 
" style="fill:none;stroke:#000000;stroke-linecap:square;stroke-linejoin:miter;stroke-width:0.8;"/>
   </g>
   <g id="text_18">
    <!-- Grafico fondos rojos martin gala F.I: $150000.0 -->
    <g transform="translate(95.250937 35.472)scale(0.12 -0.12)">
     <defs>
      <path d="M 59.515625 10.40625 
L 59.515625 29.984375 
L 43.40625 29.984375 
L 43.40625 38.09375 
L 69.28125 38.09375 
L 69.28125 6.78125 
Q 63.578125 2.734375 56.6875 0.65625 
Q 49.8125 -1.421875 42 -1.421875 
Q 24.90625 -1.421875 15.25 8.5625 
Q 5.609375 18.5625 5.609375 36.375 
Q 5.609375 54.25 15.25 64.234375 
Q 24.90625 74.21875 42 74.21875 
Q 49.125 74.21875 55.546875 72.453125 
Q 61.96875 70.703125 67.390625 67.28125 
L 67.390625 56.78125 
Q 61.921875 61.421875 55.765625 63.765625 
Q 49.609375 66.109375 42.828125 66.109375 
Q 29.4375 66.109375 22.71875 58.640625 
Q 16.015625 51.171875 16.015625 36.375 
Q 16.015625 21.625 22.71875 14.15625 
Q 29.4375 6.6875 42.828125 6.6875 
Q 48.046875 6.6875 52.140625 7.59375 
Q 56.25 8.5 59.515625 10.40625 
z
" id="DejaVuSans-71"/>
      <path d="M 37.109375 75.984375 
L 37.109375 68.5 
L 28.515625 68.5 
Q 23.6875 68.5 21.796875 66.546875 
Q 19.921875 64.59375 19.921875 59.515625 
L 19.921875 54.6875 
L 34.71875 54.6875 
L 34.71875 47.703125 
L 19.921875 47.703125 
L 19.921875 0 
L 10.890625 0 
L 10.890625 47.703125 
L 2.296875 47.703125 
L 2.296875 54.6875 
L 10.890625 54.6875 
L 10.890625 58.5 
Q 10.890625 67.625 15.140625 71.796875 
Q 19.390625 75.984375 28.609375 75.984375 
z
" id="DejaVuSans-102"/>
      <path d="M 48.78125 52.59375 
L 48.78125 44.1875 
Q 44.96875 46.296875 41.140625 47.34375 
Q 37.3125 48.390625 33.40625 48.390625 
Q 24.65625 48.390625 19.8125 42.84375 
Q 14.984375 37.3125 14.984375 27.296875 
Q 14.984375 17.28125 19.8125 11.734375 
Q 24.65625 6.203125 33.40625 6.203125 
Q 37.3125 6.203125 41.140625 7.25 
Q 44.96875 8.296875 48.78125 10.40625 
L 48.78125 2.09375 
Q 45.015625 0.34375 40.984375 -0.53125 
Q 36.96875 -1.421875 32.421875 -1.421875 
Q 20.0625 -1.421875 12.78125 6.34375 
Q 5.515625 14.109375 5.515625 27.296875 
Q 5.515625 40.671875 12.859375 48.328125 
Q 20.21875 56 33.015625 56 
Q 37.15625 56 41.109375 55.140625 
Q 45.0625 54.296875 48.78125 52.59375 
z
" id="DejaVuSans-99"/>
      <path d="M 44.28125 53.078125 
L 44.28125 44.578125 
Q 40.484375 46.53125 36.375 47.5 
Q 32.28125 48.484375 27.875 48.484375 
Q 21.1875 48.484375 17.84375 46.4375 
Q 14.5 44.390625 14.5 40.28125 
Q 14.5 37.15625 16.890625 35.375 
Q 19.28125 33.59375 26.515625 31.984375 
L 29.59375 31.296875 
Q 39.15625 29.25 43.1875 25.515625 
Q 47.21875 21.78125 47.21875 15.09375 
Q 47.21875 7.46875 41.1875 3.015625 
Q 35.15625 -1.421875 24.609375 -1.421875 
Q 20.21875 -1.421875 15.453125 -0.5625 
Q 10.6875 0.296875 5.421875 2 
L 5.421875 11.28125 
Q 10.40625 8.6875 15.234375 7.390625 
Q 20.0625 6.109375 24.8125 6.109375 
Q 31.15625 6.109375 34.5625 8.28125 
Q 37.984375 10.453125 37.984375 14.40625 
Q 37.984375 18.0625 35.515625 20.015625 
Q 33.0625 21.96875 24.703125 23.78125 
L 21.578125 24.515625 
Q 13.234375 26.265625 9.515625 29.90625 
Q 5.8125 33.546875 5.8125 39.890625 
Q 5.8125 47.609375 11.28125 51.796875 
Q 16.75 56 26.8125 56 
Q 31.78125 56 36.171875 55.265625 
Q 40.578125 54.546875 44.28125 53.078125 
z
" id="DejaVuSans-115"/>
      <path d="M 9.421875 54.6875 
L 18.40625 54.6875 
L 18.40625 -0.984375 
Q 18.40625 -11.421875 14.421875 -16.109375 
Q 10.453125 -20.796875 1.609375 -20.796875 
L -1.8125 -20.796875 
L -1.8125 -13.1875 
L 0.59375 -13.1875 
Q 5.71875 -13.1875 7.5625 -10.8125 
Q 9.421875 -8.453125 9.421875 -0.984375 
z
M 9.421875 75.984375 
L 18.40625 75.984375 
L 18.40625 64.59375 
L 9.421875 64.59375 
z
" id="DejaVuSans-106"/>
      <path d="M 45.40625 27.984375 
Q 45.40625 37.75 41.375 43.109375 
Q 37.359375 48.484375 30.078125 48.484375 
Q 22.859375 48.484375 18.828125 43.109375 
Q 14.796875 37.75 14.796875 27.984375 
Q 14.796875 18.265625 18.828125 12.890625 
Q 22.859375 7.515625 30.078125 7.515625 
Q 37.359375 7.515625 41.375 12.890625 
Q 45.40625 18.265625 45.40625 27.984375 
z
M 54.390625 6.78125 
Q 54.390625 -7.171875 48.1875 -13.984375 
Q 42 -20.796875 29.203125 -20.796875 
Q 24.46875 -20.796875 20.265625 -20.09375 
Q 16.0625 -19.390625 12.109375 -17.921875 
L 12.109375 -9.1875 
Q 16.0625 -11.328125 19.921875 -12.34375 
Q 23.78125 -13.375 27.78125 -13.375 
Q 36.625 -13.375 41.015625 -8.765625 
Q 45.40625 -4.15625 45.40625 5.171875 
L 45.40625 9.625 
Q 42.625 4.78125 38.28125 2.390625 
Q 33.9375 0 27.875 0 
Q 17.828125 0 11.671875 7.65625 
Q 5.515625 15.328125 5.515625 27.984375 
Q 5.515625 40.671875 11.671875 48.328125 
Q 17.828125 56 27.875 56 
Q 33.9375 56 38.28125 53.609375 
Q 42.625 51.21875 45.40625 46.390625 
L 45.40625 54.6875 
L 54.390625 54.6875 
z
" id="DejaVuSans-103"/>
      <path d="M 9.421875 75.984375 
L 18.40625 75.984375 
L 18.40625 0 
L 9.421875 0 
z
" id="DejaVuSans-108"/>
      <path d="M 10.6875 12.40625 
L 21 12.40625 
L 21 0 
L 10.6875 0 
z
" id="DejaVuSans-46"/>
      <path d="M 9.8125 72.90625 
L 19.671875 72.90625 
L 19.671875 0 
L 9.8125 0 
z
" id="DejaVuSans-73"/>
      <path d="M 11.71875 12.40625 
L 22.015625 12.40625 
L 22.015625 0 
L 11.71875 0 
z
M 11.71875 51.703125 
L 22.015625 51.703125 
L 22.015625 39.3125 
L 11.71875 39.3125 
z
" id="DejaVuSans-58"/>
     </defs>
     <use xlink:href="#DejaVuSans-71"/>
     <use x="77.490234" xlink:href="#DejaVuSans-114"/>
     <use x="118.603516" xlink:href="#DejaVuSans-97"/>
     <use x="179.882812" xlink:href="#DejaVuSans-102"/>
     <use x="215.087891" xlink:href="#DejaVuSans-105"/>
     <use x="242.871094" xlink:href="#DejaVuSans-99"/>
     <use x="297.851562" xlink:href="#DejaVuSans-111"/>
     <use x="359.033203" xlink:href="#DejaVuSans-32"/>
     <use x="390.820312" xlink:href="#DejaVuSans-102"/>
     <use x="426.025391" xlink:href="#DejaVuSans-111"/>
     <use x="487.207031" xlink:href="#DejaVuSans-110"/>
     <use x="550.585938" xlink:href="#DejaVuSans-100"/>
     <use x="614.0625" xlink:href="#DejaVuSans-111"/>
     <use x="675.244141" xlink:href="#DejaVuSans-115"/>
     <use x="727.34375" xlink:href="#DejaVuSans-32"/>
     <use x="759.130859" xlink:href="#DejaVuSans-114"/>
     <use x="797.994141" xlink:href="#DejaVuSans-111"/>
     <use x="859.175781" xlink:href="#DejaVuSans-106"/>
     <use x="886.958984" xlink:href="#DejaVuSans-111"/>
     <use x="948.140625" xlink:href="#DejaVuSans-115"/>
     <use x="1000.240234" xlink:href="#DejaVuSans-32"/>
     <use x="1032.027344" xlink:href="#DejaVuSans-109"/>
     <use x="1129.439453" xlink:href="#DejaVuSans-97"/>
     <use x="1190.71875" xlink:href="#DejaVuSans-114"/>
     <use x="1231.832031" xlink:href="#DejaVuSans-116"/>
     <use x="1271.041016" xlink:href="#DejaVuSans-105"/>
     <use x="1298.824219" xlink:href="#DejaVuSans-110"/>
     <use x="1362.203125" xlink:href="#DejaVuSans-32"/>
     <use x="1393.990234" xlink:href="#DejaVuSans-103"/>
     <use x="1457.466797" xlink:href="#DejaVuSans-97"/>
     <use x="1518.746094" xlink:href="#DejaVuSans-108"/>
     <use x="1546.529297" xlink:href="#DejaVuSans-97"/>
     <use x="1607.808594" xlink:href="#DejaVuSans-32"/>
     <use x="1639.595703" xlink:href="#DejaVuSans-70"/>
     <use x="1680.990234" xlink:href="#DejaVuSans-46"/>
     <use x="1712.777344" xlink:href="#DejaVuSans-73"/>
     <use x="1742.269531" xlink:href="#DejaVuSans-58"/>
     <use x="1775.960938" xlink:href="#DejaVuSans-32"/>
     <use x="1807.748047" xlink:href="#DejaVuSans-36"/>
     <use x="1871.371094" xlink:href="#DejaVuSans-49"/>
     <use x="1934.994141" xlink:href="#DejaVuSans-53"/>
     <use x="1998.617188" xlink:href="#DejaVuSans-48"/>
     <use x="2062.240234" xlink:href="#DejaVuSans-48"/>
     <use x="2125.863281" xlink:href="#DejaVuSans-48"/>
     <use x="2189.486328" xlink:href="#DejaVuSans-48"/>
     <use x="2253.109375" xlink:href="#DejaVuSans-46"/>
     <use x="2284.896484" xlink:href="#DejaVuSans-48"/>
    </g>
   </g>
   <g id="legend_1">
    <g id="patch_7">
     <path d="M 324.295 249.418625 
L 407.72 249.418625 
Q 409.72 249.418625 409.72 247.418625 
L 409.72 101.637375 
Q 409.72 99.637375 407.72 99.637375 
L 324.295 99.637375 
Q 322.295 99.637375 322.295 101.637375 
L 322.295 247.418625 
Q 322.295 249.418625 324.295 249.418625 
z
" style="fill:#ffffff;opacity:0.8;stroke:#cccccc;stroke-linejoin:miter;"/>
    </g>
    <g id="line2d_26">
     <path d="M 326.295 107.735813 
L 346.295 107.735813 
" style="fill:none;stroke:#1f77b4;stroke-linecap:square;stroke-width:1.5;"/>
    </g>
    <g id="line2d_27"/>
    <g id="text_19">
     <!-- Fondos 1 -->
     <g transform="translate(354.295 111.235813)scale(0.1 -0.1)">
      <use xlink:href="#DejaVuSans-70"/>
      <use x="53.894531" xlink:href="#DejaVuSans-111"/>
      <use x="115.076172" xlink:href="#DejaVuSans-110"/>
      <use x="178.455078" xlink:href="#DejaVuSans-100"/>
      <use x="241.931641" xlink:href="#DejaVuSans-111"/>
      <use x="303.113281" xlink:href="#DejaVuSans-115"/>
      <use x="355.212891" xlink:href="#DejaVuSans-32"/>
      <use x="387" xlink:href="#DejaVuSans-49"/>
     </g>
    </g>
    <g id="line2d_28">
     <path d="M 326.295 122.413938 
L 346.295 122.413938 
" style="fill:none;stroke:#ff7f0e;stroke-linecap:square;stroke-width:1.5;"/>
    </g>
    <g id="line2d_29"/>
    <g id="text_20">
     <!-- Fondos 2 -->
     <g transform="translate(354.295 125.913938)scale(0.1 -0.1)">
      <use xlink:href="#DejaVuSans-70"/>
      <use x="53.894531" xlink:href="#DejaVuSans-111"/>
      <use x="115.076172" xlink:href="#DejaVuSans-110"/>
      <use x="178.455078" xlink:href="#DejaVuSans-100"/>
      <use x="241.931641" xlink:href="#DejaVuSans-111"/>
      <use x="303.113281" xlink:href="#DejaVuSans-115"/>
      <use x="355.212891" xlink:href="#DejaVuSans-32"/>
      <use x="387" xlink:href="#DejaVuSans-50"/>
     </g>
    </g>
    <g id="line2d_30">
     <path d="M 326.295 137.092063 
L 346.295 137.092063 
" style="fill:none;stroke:#2ca02c;stroke-linecap:square;stroke-width:1.5;"/>
    </g>
    <g id="line2d_31"/>
    <g id="text_21">
     <!-- Fondos 3 -->
     <g transform="translate(354.295 140.592063)scale(0.1 -0.1)">
      <defs>
       <path d="M 40.578125 39.3125 
Q 47.65625 37.796875 51.625 33 
Q 55.609375 28.21875 55.609375 21.1875 
Q 55.609375 10.40625 48.1875 4.484375 
Q 40.765625 -1.421875 27.09375 -1.421875 
Q 22.515625 -1.421875 17.65625 -0.515625 
Q 12.796875 0.390625 7.625 2.203125 
L 7.625 11.71875 
Q 11.71875 9.328125 16.59375 8.109375 
Q 21.484375 6.890625 26.8125 6.890625 
Q 36.078125 6.890625 40.9375 10.546875 
Q 45.796875 14.203125 45.796875 21.1875 
Q 45.796875 27.640625 41.28125 31.265625 
Q 36.765625 34.90625 28.71875 34.90625 
L 20.21875 34.90625 
L 20.21875 43.015625 
L 29.109375 43.015625 
Q 36.375 43.015625 40.234375 45.921875 
Q 44.09375 48.828125 44.09375 54.296875 
Q 44.09375 59.90625 40.109375 62.90625 
Q 36.140625 65.921875 28.71875 65.921875 
Q 24.65625 65.921875 20.015625 65.03125 
Q 15.375 64.15625 9.8125 62.3125 
L 9.8125 71.09375 
Q 15.4375 72.65625 20.34375 73.4375 
Q 25.25 74.21875 29.59375 74.21875 
Q 40.828125 74.21875 47.359375 69.109375 
Q 53.90625 64.015625 53.90625 55.328125 
Q 53.90625 49.265625 50.4375 45.09375 
Q 46.96875 40.921875 40.578125 39.3125 
z
" id="DejaVuSans-51"/>
      </defs>
      <use xlink:href="#DejaVuSans-70"/>
      <use x="53.894531" xlink:href="#DejaVuSans-111"/>
      <use x="115.076172" xlink:href="#DejaVuSans-110"/>
      <use x="178.455078" xlink:href="#DejaVuSans-100"/>
      <use x="241.931641" xlink:href="#DejaVuSans-111"/>
      <use x="303.113281" xlink:href="#DejaVuSans-115"/>
      <use x="355.212891" xlink:href="#DejaVuSans-32"/>
      <use x="387" xlink:href="#DejaVuSans-51"/>
     </g>
    </g>
    <g id="line2d_32">
     <path d="M 326.295 151.770188 
L 346.295 151.770188 
" style="fill:none;stroke:#d62728;stroke-linecap:square;stroke-width:1.5;"/>
    </g>
    <g id="line2d_33"/>
    <g id="text_22">
     <!-- Fondos 4 -->
     <g transform="translate(354.295 155.270188)scale(0.1 -0.1)">
      <use xlink:href="#DejaVuSans-70"/>
      <use x="53.894531" xlink:href="#DejaVuSans-111"/>
      <use x="115.076172" xlink:href="#DejaVuSans-110"/>
      <use x="178.455078" xlink:href="#DejaVuSans-100"/>
      <use x="241.931641" xlink:href="#DejaVuSans-111"/>
      <use x="303.113281" xlink:href="#DejaVuSans-115"/>
      <use x="355.212891" xlink:href="#DejaVuSans-32"/>
      <use x="387" xlink:href="#DejaVuSans-52"/>
     </g>
    </g>
    <g id="line2d_34">
     <path d="M 326.295 166.448313 
L 346.295 166.448313 
" style="fill:none;stroke:#9467bd;stroke-linecap:square;stroke-width:1.5;"/>
    </g>
    <g id="line2d_35"/>
    <g id="text_23">
     <!-- Fondos 5 -->
     <g transform="translate(354.295 169.948313)scale(0.1 -0.1)">
      <use xlink:href="#DejaVuSans-70"/>
      <use x="53.894531" xlink:href="#DejaVuSans-111"/>
      <use x="115.076172" xlink:href="#DejaVuSans-110"/>
      <use x="178.455078" xlink:href="#DejaVuSans-100"/>
      <use x="241.931641" xlink:href="#DejaVuSans-111"/>
      <use x="303.113281" xlink:href="#DejaVuSans-115"/>
      <use x="355.212891" xlink:href="#DejaVuSans-32"/>
      <use x="387" xlink:href="#DejaVuSans-53"/>
     </g>
    </g>
    <g id="line2d_36">
     <path d="M 326.295 181.126438 
L 346.295 181.126438 
" style="fill:none;stroke:#8c564b;stroke-linecap:square;stroke-width:1.5;"/>
    </g>
    <g id="line2d_37"/>
    <g id="text_24">
     <!-- Fondos 6 -->
     <g transform="translate(354.295 184.626438)scale(0.1 -0.1)">
      <use xlink:href="#DejaVuSans-70"/>
      <use x="53.894531" xlink:href="#DejaVuSans-111"/>
      <use x="115.076172" xlink:href="#DejaVuSans-110"/>
      <use x="178.455078" xlink:href="#DejaVuSans-100"/>
      <use x="241.931641" xlink:href="#DejaVuSans-111"/>
      <use x="303.113281" xlink:href="#DejaVuSans-115"/>
      <use x="355.212891" xlink:href="#DejaVuSans-32"/>
      <use x="387" xlink:href="#DejaVuSans-54"/>
     </g>
    </g>
    <g id="line2d_38">
     <path d="M 326.295 195.804563 
L 346.295 195.804563 
" style="fill:none;stroke:#e377c2;stroke-linecap:square;stroke-width:1.5;"/>
    </g>
    <g id="line2d_39"/>
    <g id="text_25">
     <!-- Fondos 7 -->
     <g transform="translate(354.295 199.304563)scale(0.1 -0.1)">
      <use xlink:href="#DejaVuSans-70"/>
      <use x="53.894531" xlink:href="#DejaVuSans-111"/>
      <use x="115.076172" xlink:href="#DejaVuSans-110"/>
      <use x="178.455078" xlink:href="#DejaVuSans-100"/>
      <use x="241.931641" xlink:href="#DejaVuSans-111"/>
      <use x="303.113281" xlink:href="#DejaVuSans-115"/>
      <use x="355.212891" xlink:href="#DejaVuSans-32"/>
      <use x="387" xlink:href="#DejaVuSans-55"/>
     </g>
    </g>
    <g id="line2d_40">
     <path d="M 326.295 210.482687 
L 346.295 210.482687 
" style="fill:none;stroke:#7f7f7f;stroke-linecap:square;stroke-width:1.5;"/>
    </g>
    <g id="line2d_41"/>
    <g id="text_26">
     <!-- Fondos 8 -->
     <g transform="translate(354.295 213.982687)scale(0.1 -0.1)">
      <use xlink:href="#DejaVuSans-70"/>
      <use x="53.894531" xlink:href="#DejaVuSans-111"/>
      <use x="115.076172" xlink:href="#DejaVuSans-110"/>
      <use x="178.455078" xlink:href="#DejaVuSans-100"/>
      <use x="241.931641" xlink:href="#DejaVuSans-111"/>
      <use x="303.113281" xlink:href="#DejaVuSans-115"/>
      <use x="355.212891" xlink:href="#DejaVuSans-32"/>
      <use x="387" xlink:href="#DejaVuSans-56"/>
     </g>
    </g>
    <g id="line2d_42">
     <path d="M 326.295 225.160813 
L 346.295 225.160813 
" style="fill:none;stroke:#bcbd22;stroke-linecap:square;stroke-width:1.5;"/>
    </g>
    <g id="line2d_43"/>
    <g id="text_27">
     <!-- Fondos 9 -->
     <g transform="translate(354.295 228.660813)scale(0.1 -0.1)">
      <defs>
       <path d="M 10.984375 1.515625 
L 10.984375 10.5 
Q 14.703125 8.734375 18.5 7.8125 
Q 22.3125 6.890625 25.984375 6.890625 
Q 35.75 6.890625 40.890625 13.453125 
Q 46.046875 20.015625 46.78125 33.40625 
Q 43.953125 29.203125 39.59375 26.953125 
Q 35.25 24.703125 29.984375 24.703125 
Q 19.046875 24.703125 12.671875 31.3125 
Q 6.296875 37.9375 6.296875 49.421875 
Q 6.296875 60.640625 12.9375 67.421875 
Q 19.578125 74.21875 30.609375 74.21875 
Q 43.265625 74.21875 49.921875 64.515625 
Q 56.59375 54.828125 56.59375 36.375 
Q 56.59375 19.140625 48.40625 8.859375 
Q 40.234375 -1.421875 26.421875 -1.421875 
Q 22.703125 -1.421875 18.890625 -0.6875 
Q 15.09375 0.046875 10.984375 1.515625 
z
M 30.609375 32.421875 
Q 37.25 32.421875 41.125 36.953125 
Q 45.015625 41.5 45.015625 49.421875 
Q 45.015625 57.28125 41.125 61.84375 
Q 37.25 66.40625 30.609375 66.40625 
Q 23.96875 66.40625 20.09375 61.84375 
Q 16.21875 57.28125 16.21875 49.421875 
Q 16.21875 41.5 20.09375 36.953125 
Q 23.96875 32.421875 30.609375 32.421875 
z
" id="DejaVuSans-57"/>
      </defs>
      <use xlink:href="#DejaVuSans-70"/>
      <use x="53.894531" xlink:href="#DejaVuSans-111"/>
      <use x="115.076172" xlink:href="#DejaVuSans-110"/>
      <use x="178.455078" xlink:href="#DejaVuSans-100"/>
      <use x="241.931641" xlink:href="#DejaVuSans-111"/>
      <use x="303.113281" xlink:href="#DejaVuSans-115"/>
      <use x="355.212891" xlink:href="#DejaVuSans-32"/>
      <use x="387" xlink:href="#DejaVuSans-57"/>
     </g>
    </g>
    <g id="line2d_44">
     <path d="M 326.295 239.838937 
L 346.295 239.838937 
" style="fill:none;stroke:#17becf;stroke-linecap:square;stroke-width:1.5;"/>
    </g>
    <g id="line2d_45"/>
    <g id="text_28">
     <!-- Fondos 10 -->
     <g transform="translate(354.295 243.338937)scale(0.1 -0.1)">
      <use xlink:href="#DejaVuSans-70"/>
      <use x="53.894531" xlink:href="#DejaVuSans-111"/>
      <use x="115.076172" xlink:href="#DejaVuSans-110"/>
      <use x="178.455078" xlink:href="#DejaVuSans-100"/>
      <use x="241.931641" xlink:href="#DejaVuSans-111"/>
      <use x="303.113281" xlink:href="#DejaVuSans-115"/>
      <use x="355.212891" xlink:href="#DejaVuSans-32"/>
      <use x="387" xlink:href="#DejaVuSans-49"/>
      <use x="450.623047" xlink:href="#DejaVuSans-48"/>
     </g>
    </g>
   </g>
  </g>
 </g>
 <defs>
  <clipPath id="pdd311fbda1">
   <rect height="266.112" width="357.12" x="57.6" y="41.472"/>
  </clipPath>
 </defs>
</svg>
