<?xml version="1.0" encoding="utf-8" standalone="no"?>
<!DOCTYPE svg PUBLIC "-//W3C//DTD SVG 1.1//EN"
  "http://www.w3.org/Graphics/SVG/1.1/DTD/svg11.dtd">
<!-- Created with matplotlib (https://matplotlib.org/) -->
<svg height="345.6pt" version="1.1" viewBox="0 0 460.8 345.6" width="460.8pt" xmlns="http://www.w3.org/2000/svg" xmlns:xlink="http://www.w3.org/1999/xlink">
 <metadata>
  <rdf:RDF xmlns:cc="http://creativecommons.org/ns#" xmlns:dc="http://purl.org/dc/elements/1.1/" xmlns:rdf="http://www.w3.org/1999/02/22-rdf-syntax-ns#">
   <cc:Work>
    <dc:type rdf:resource="http://purl.org/dc/dcmitype/StillImage"/>
    <dc:date>2021-04-07T21:24:32.200150</dc:date>
    <dc:format>image/svg+xml</dc:format>
    <dc:creator>
     <cc:Agent>
      <dc:title>Matplotlib v3.3.4, https://matplotlib.org/</dc:title>
     </cc:Agent>
    </dc:creator>
   </cc:Work>
  </rdf:RDF>
 </metadata>
 <defs>
  <style type="text/css">*{stroke-linecap:butt;stroke-linejoin:round;}</style>
 </defs>
 <g id="figure_1">
  <g id="patch_1">
   <path d="M 0 345.6 
L 460.8 345.6 
L 460.8 0 
L 0 0 
z
" style="fill:#ffffff;"/>
  </g>
  <g id="axes_1">
   <g id="patch_2">
    <path d="M 57.6 307.584 
L 414.72 307.584 
L 414.72 41.472 
L 57.6 41.472 
z
" style="fill:#ffffff;"/>
   </g>
   <g id="matplotlib.axis_1">
    <g id="xtick_1">
     <g id="line2d_1">
      <defs>
       <path d="M 0 0 
L 0 3.5 
" id="m68cff1984e" style="stroke:#000000;stroke-width:0.8;"/>
      </defs>
      <g>
       <use style="stroke:#000000;stroke-width:0.8;" x="72.201297" xlink:href="#m68cff1984e" y="307.584"/>
      </g>
     </g>
     <g id="text_1">
      <!-- 0 -->
      <g transform="translate(69.020047 322.182437)scale(0.1 -0.1)">
       <defs>
        <path d="M 31.78125 66.40625 
Q 24.171875 66.40625 20.328125 58.90625 
Q 16.5 51.421875 16.5 36.375 
Q 16.5 21.390625 20.328125 13.890625 
Q 24.171875 6.390625 31.78125 6.390625 
Q 39.453125 6.390625 43.28125 13.890625 
Q 47.125 21.390625 47.125 36.375 
Q 47.125 51.421875 43.28125 58.90625 
Q 39.453125 66.40625 31.78125 66.40625 
z
M 31.78125 74.21875 
Q 44.046875 74.21875 50.515625 64.515625 
Q 56.984375 54.828125 56.984375 36.375 
Q 56.984375 17.96875 50.515625 8.265625 
Q 44.046875 -1.421875 31.78125 -1.421875 
Q 19.53125 -1.421875 13.0625 8.265625 
Q 6.59375 17.96875 6.59375 36.375 
Q 6.59375 54.828125 13.0625 64.515625 
Q 19.53125 74.21875 31.78125 74.21875 
z
" id="DejaVuSans-48"/>
       </defs>
       <use xlink:href="#DejaVuSans-48"/>
      </g>
     </g>
    </g>
    <g id="xtick_2">
     <g id="line2d_2">
      <g>
       <use style="stroke:#000000;stroke-width:0.8;" x="112.987044" xlink:href="#m68cff1984e" y="307.584"/>
      </g>
     </g>
     <g id="text_2">
      <!-- 25 -->
      <g transform="translate(106.624544 322.182437)scale(0.1 -0.1)">
       <defs>
        <path d="M 19.1875 8.296875 
L 53.609375 8.296875 
L 53.609375 0 
L 7.328125 0 
L 7.328125 8.296875 
Q 12.9375 14.109375 22.625 23.890625 
Q 32.328125 33.6875 34.8125 36.53125 
Q 39.546875 41.84375 41.421875 45.53125 
Q 43.3125 49.21875 43.3125 52.78125 
Q 43.3125 58.59375 39.234375 62.25 
Q 35.15625 65.921875 28.609375 65.921875 
Q 23.96875 65.921875 18.8125 64.3125 
Q 13.671875 62.703125 7.8125 59.421875 
L 7.8125 69.390625 
Q 13.765625 71.78125 18.9375 73 
Q 24.125 74.21875 28.421875 74.21875 
Q 39.75 74.21875 46.484375 68.546875 
Q 53.21875 62.890625 53.21875 53.421875 
Q 53.21875 48.921875 51.53125 44.890625 
Q 49.859375 40.875 45.40625 35.40625 
Q 44.1875 33.984375 37.640625 27.21875 
Q 31.109375 20.453125 19.1875 8.296875 
z
" id="DejaVuSans-50"/>
        <path d="M 10.796875 72.90625 
L 49.515625 72.90625 
L 49.515625 64.59375 
L 19.828125 64.59375 
L 19.828125 46.734375 
Q 21.96875 47.46875 24.109375 47.828125 
Q 26.265625 48.1875 28.421875 48.1875 
Q 40.625 48.1875 47.75 41.5 
Q 54.890625 34.8125 54.890625 23.390625 
Q 54.890625 11.625 47.5625 5.09375 
Q 40.234375 -1.421875 26.90625 -1.421875 
Q 22.3125 -1.421875 17.546875 -0.640625 
Q 12.796875 0.140625 7.71875 1.703125 
L 7.71875 11.625 
Q 12.109375 9.234375 16.796875 8.0625 
Q 21.484375 6.890625 26.703125 6.890625 
Q 35.15625 6.890625 40.078125 11.328125 
Q 45.015625 15.765625 45.015625 23.390625 
Q 45.015625 31 40.078125 35.4375 
Q 35.15625 39.890625 26.703125 39.890625 
Q 22.75 39.890625 18.8125 39.015625 
Q 14.890625 38.140625 10.796875 36.28125 
z
" id="DejaVuSans-53"/>
       </defs>
       <use xlink:href="#DejaVuSans-50"/>
       <use x="63.623047" xlink:href="#DejaVuSans-53"/>
      </g>
     </g>
    </g>
    <g id="xtick_3">
     <g id="line2d_3">
      <g>
       <use style="stroke:#000000;stroke-width:0.8;" x="153.772791" xlink:href="#m68cff1984e" y="307.584"/>
      </g>
     </g>
     <g id="text_3">
      <!-- 50 -->
      <g transform="translate(147.410291 322.182437)scale(0.1 -0.1)">
       <use xlink:href="#DejaVuSans-53"/>
       <use x="63.623047" xlink:href="#DejaVuSans-48"/>
      </g>
     </g>
    </g>
    <g id="xtick_4">
     <g id="line2d_4">
      <g>
       <use style="stroke:#000000;stroke-width:0.8;" x="194.558538" xlink:href="#m68cff1984e" y="307.584"/>
      </g>
     </g>
     <g id="text_4">
      <!-- 75 -->
      <g transform="translate(188.196038 322.182437)scale(0.1 -0.1)">
       <defs>
        <path d="M 8.203125 72.90625 
L 55.078125 72.90625 
L 55.078125 68.703125 
L 28.609375 0 
L 18.3125 0 
L 43.21875 64.59375 
L 8.203125 64.59375 
z
" id="DejaVuSans-55"/>
       </defs>
       <use xlink:href="#DejaVuSans-55"/>
       <use x="63.623047" xlink:href="#DejaVuSans-53"/>
      </g>
     </g>
    </g>
    <g id="xtick_5">
     <g id="line2d_5">
      <g>
       <use style="stroke:#000000;stroke-width:0.8;" x="235.344285" xlink:href="#m68cff1984e" y="307.584"/>
      </g>
     </g>
     <g id="text_5">
      <!-- 100 -->
      <g transform="translate(225.800535 322.182437)scale(0.1 -0.1)">
       <defs>
        <path d="M 12.40625 8.296875 
L 28.515625 8.296875 
L 28.515625 63.921875 
L 10.984375 60.40625 
L 10.984375 69.390625 
L 28.421875 72.90625 
L 38.28125 72.90625 
L 38.28125 8.296875 
L 54.390625 8.296875 
L 54.390625 0 
L 12.40625 0 
z
" id="DejaVuSans-49"/>
       </defs>
       <use xlink:href="#DejaVuSans-49"/>
       <use x="63.623047" xlink:href="#DejaVuSans-48"/>
       <use x="127.246094" xlink:href="#DejaVuSans-48"/>
      </g>
     </g>
    </g>
    <g id="xtick_6">
     <g id="line2d_6">
      <g>
       <use style="stroke:#000000;stroke-width:0.8;" x="276.130032" xlink:href="#m68cff1984e" y="307.584"/>
      </g>
     </g>
     <g id="text_6">
      <!-- 125 -->
      <g transform="translate(266.586282 322.182437)scale(0.1 -0.1)">
       <use xlink:href="#DejaVuSans-49"/>
       <use x="63.623047" xlink:href="#DejaVuSans-50"/>
       <use x="127.246094" xlink:href="#DejaVuSans-53"/>
      </g>
     </g>
    </g>
    <g id="xtick_7">
     <g id="line2d_7">
      <g>
       <use style="stroke:#000000;stroke-width:0.8;" x="316.915779" xlink:href="#m68cff1984e" y="307.584"/>
      </g>
     </g>
     <g id="text_7">
      <!-- 150 -->
      <g transform="translate(307.372029 322.182437)scale(0.1 -0.1)">
       <use xlink:href="#DejaVuSans-49"/>
       <use x="63.623047" xlink:href="#DejaVuSans-53"/>
       <use x="127.246094" xlink:href="#DejaVuSans-48"/>
      </g>
     </g>
    </g>
    <g id="xtick_8">
     <g id="line2d_8">
      <g>
       <use style="stroke:#000000;stroke-width:0.8;" x="357.701526" xlink:href="#m68cff1984e" y="307.584"/>
      </g>
     </g>
     <g id="text_8">
      <!-- 175 -->
      <g transform="translate(348.157776 322.182437)scale(0.1 -0.1)">
       <use xlink:href="#DejaVuSans-49"/>
       <use x="63.623047" xlink:href="#DejaVuSans-55"/>
       <use x="127.246094" xlink:href="#DejaVuSans-53"/>
      </g>
     </g>
    </g>
    <g id="xtick_9">
     <g id="line2d_9">
      <g>
       <use style="stroke:#000000;stroke-width:0.8;" x="398.487273" xlink:href="#m68cff1984e" y="307.584"/>
      </g>
     </g>
     <g id="text_9">
      <!-- 200 -->
      <g transform="translate(388.943523 322.182437)scale(0.1 -0.1)">
       <use xlink:href="#DejaVuSans-50"/>
       <use x="63.623047" xlink:href="#DejaVuSans-48"/>
       <use x="127.246094" xlink:href="#DejaVuSans-48"/>
      </g>
     </g>
    </g>
    <g id="text_10">
     <!-- Numero de tirada -->
     <g transform="translate(192.165469 335.860562)scale(0.1 -0.1)">
      <defs>
       <path d="M 9.8125 72.90625 
L 23.09375 72.90625 
L 55.421875 11.921875 
L 55.421875 72.90625 
L 64.984375 72.90625 
L 64.984375 0 
L 51.703125 0 
L 19.390625 60.984375 
L 19.390625 0 
L 9.8125 0 
z
" id="DejaVuSans-78"/>
       <path d="M 8.5 21.578125 
L 8.5 54.6875 
L 17.484375 54.6875 
L 17.484375 21.921875 
Q 17.484375 14.15625 20.5 10.265625 
Q 23.53125 6.390625 29.59375 6.390625 
Q 36.859375 6.390625 41.078125 11.03125 
Q 45.3125 15.671875 45.3125 23.6875 
L 45.3125 54.6875 
L 54.296875 54.6875 
L 54.296875 0 
L 45.3125 0 
L 45.3125 8.40625 
Q 42.046875 3.421875 37.71875 1 
Q 33.40625 -1.421875 27.6875 -1.421875 
Q 18.265625 -1.421875 13.375 4.4375 
Q 8.5 10.296875 8.5 21.578125 
z
M 31.109375 56 
z
" id="DejaVuSans-117"/>
       <path d="M 52 44.1875 
Q 55.375 50.25 60.0625 53.125 
Q 64.75 56 71.09375 56 
Q 79.640625 56 84.28125 50.015625 
Q 88.921875 44.046875 88.921875 33.015625 
L 88.921875 0 
L 79.890625 0 
L 79.890625 32.71875 
Q 79.890625 40.578125 77.09375 44.375 
Q 74.3125 48.1875 68.609375 48.1875 
Q 61.625 48.1875 57.5625 43.546875 
Q 53.515625 38.921875 53.515625 30.90625 
L 53.515625 0 
L 44.484375 0 
L 44.484375 32.71875 
Q 44.484375 40.625 41.703125 44.40625 
Q 38.921875 48.1875 33.109375 48.1875 
Q 26.21875 48.1875 22.15625 43.53125 
Q 18.109375 38.875 18.109375 30.90625 
L 18.109375 0 
L 9.078125 0 
L 9.078125 54.6875 
L 18.109375 54.6875 
L 18.109375 46.1875 
Q 21.1875 51.21875 25.484375 53.609375 
Q 29.78125 56 35.6875 56 
Q 41.65625 56 45.828125 52.96875 
Q 50 49.953125 52 44.1875 
z
" id="DejaVuSans-109"/>
       <path d="M 56.203125 29.59375 
L 56.203125 25.203125 
L 14.890625 25.203125 
Q 15.484375 15.921875 20.484375 11.0625 
Q 25.484375 6.203125 34.421875 6.203125 
Q 39.59375 6.203125 44.453125 7.46875 
Q 49.3125 8.734375 54.109375 11.28125 
L 54.109375 2.78125 
Q 49.265625 0.734375 44.1875 -0.34375 
Q 39.109375 -1.421875 33.890625 -1.421875 
Q 20.796875 -1.421875 13.15625 6.1875 
Q 5.515625 13.8125 5.515625 26.8125 
Q 5.515625 40.234375 12.765625 48.109375 
Q 20.015625 56 32.328125 56 
Q 43.359375 56 49.78125 48.890625 
Q 56.203125 41.796875 56.203125 29.59375 
z
M 47.21875 32.234375 
Q 47.125 39.59375 43.09375 43.984375 
Q 39.0625 48.390625 32.421875 48.390625 
Q 24.90625 48.390625 20.390625 44.140625 
Q 15.875 39.890625 15.1875 32.171875 
z
" id="DejaVuSans-101"/>
       <path d="M 41.109375 46.296875 
Q 39.59375 47.171875 37.8125 47.578125 
Q 36.03125 48 33.890625 48 
Q 26.265625 48 22.1875 43.046875 
Q 18.109375 38.09375 18.109375 28.8125 
L 18.109375 0 
L 9.078125 0 
L 9.078125 54.6875 
L 18.109375 54.6875 
L 18.109375 46.1875 
Q 20.953125 51.171875 25.484375 53.578125 
Q 30.03125 56 36.53125 56 
Q 37.453125 56 38.578125 55.875 
Q 39.703125 55.765625 41.0625 55.515625 
z
" id="DejaVuSans-114"/>
       <path d="M 30.609375 48.390625 
Q 23.390625 48.390625 19.1875 42.75 
Q 14.984375 37.109375 14.984375 27.296875 
Q 14.984375 17.484375 19.15625 11.84375 
Q 23.34375 6.203125 30.609375 6.203125 
Q 37.796875 6.203125 41.984375 11.859375 
Q 46.1875 17.53125 46.1875 27.296875 
Q 46.1875 37.015625 41.984375 42.703125 
Q 37.796875 48.390625 30.609375 48.390625 
z
M 30.609375 56 
Q 42.328125 56 49.015625 48.375 
Q 55.71875 40.765625 55.71875 27.296875 
Q 55.71875 13.875 49.015625 6.21875 
Q 42.328125 -1.421875 30.609375 -1.421875 
Q 18.84375 -1.421875 12.171875 6.21875 
Q 5.515625 13.875 5.515625 27.296875 
Q 5.515625 40.765625 12.171875 48.375 
Q 18.84375 56 30.609375 56 
z
" id="DejaVuSans-111"/>
       <path id="DejaVuSans-32"/>
       <path d="M 45.40625 46.390625 
L 45.40625 75.984375 
L 54.390625 75.984375 
L 54.390625 0 
L 45.40625 0 
L 45.40625 8.203125 
Q 42.578125 3.328125 38.25 0.953125 
Q 33.9375 -1.421875 27.875 -1.421875 
Q 17.96875 -1.421875 11.734375 6.484375 
Q 5.515625 14.40625 5.515625 27.296875 
Q 5.515625 40.1875 11.734375 48.09375 
Q 17.96875 56 27.875 56 
Q 33.9375 56 38.25 53.625 
Q 42.578125 51.265625 45.40625 46.390625 
z
M 14.796875 27.296875 
Q 14.796875 17.390625 18.875 11.75 
Q 22.953125 6.109375 30.078125 6.109375 
Q 37.203125 6.109375 41.296875 11.75 
Q 45.40625 17.390625 45.40625 27.296875 
Q 45.40625 37.203125 41.296875 42.84375 
Q 37.203125 48.484375 30.078125 48.484375 
Q 22.953125 48.484375 18.875 42.84375 
Q 14.796875 37.203125 14.796875 27.296875 
z
" id="DejaVuSans-100"/>
       <path d="M 18.3125 70.21875 
L 18.3125 54.6875 
L 36.8125 54.6875 
L 36.8125 47.703125 
L 18.3125 47.703125 
L 18.3125 18.015625 
Q 18.3125 11.328125 20.140625 9.421875 
Q 21.96875 7.515625 27.59375 7.515625 
L 36.8125 7.515625 
L 36.8125 0 
L 27.59375 0 
Q 17.1875 0 13.234375 3.875 
Q 9.28125 7.765625 9.28125 18.015625 
L 9.28125 47.703125 
L 2.6875 47.703125 
L 2.6875 54.6875 
L 9.28125 54.6875 
L 9.28125 70.21875 
z
" id="DejaVuSans-116"/>
       <path d="M 9.421875 54.6875 
L 18.40625 54.6875 
L 18.40625 0 
L 9.421875 0 
z
M 9.421875 75.984375 
L 18.40625 75.984375 
L 18.40625 64.59375 
L 9.421875 64.59375 
z
" id="DejaVuSans-105"/>
       <path d="M 34.28125 27.484375 
Q 23.390625 27.484375 19.1875 25 
Q 14.984375 22.515625 14.984375 16.5 
Q 14.984375 11.71875 18.140625 8.90625 
Q 21.296875 6.109375 26.703125 6.109375 
Q 34.1875 6.109375 38.703125 11.40625 
Q 43.21875 16.703125 43.21875 25.484375 
L 43.21875 27.484375 
z
M 52.203125 31.203125 
L 52.203125 0 
L 43.21875 0 
L 43.21875 8.296875 
Q 40.140625 3.328125 35.546875 0.953125 
Q 30.953125 -1.421875 24.3125 -1.421875 
Q 15.921875 -1.421875 10.953125 3.296875 
Q 6 8.015625 6 15.921875 
Q 6 25.140625 12.171875 29.828125 
Q 18.359375 34.515625 30.609375 34.515625 
L 43.21875 34.515625 
L 43.21875 35.40625 
Q 43.21875 41.609375 39.140625 45 
Q 35.0625 48.390625 27.6875 48.390625 
Q 23 48.390625 18.546875 47.265625 
Q 14.109375 46.140625 10.015625 43.890625 
L 10.015625 52.203125 
Q 14.9375 54.109375 19.578125 55.046875 
Q 24.21875 56 28.609375 56 
Q 40.484375 56 46.34375 49.84375 
Q 52.203125 43.703125 52.203125 31.203125 
z
" id="DejaVuSans-97"/>
      </defs>
      <use xlink:href="#DejaVuSans-78"/>
      <use x="74.804688" xlink:href="#DejaVuSans-117"/>
      <use x="138.183594" xlink:href="#DejaVuSans-109"/>
      <use x="235.595703" xlink:href="#DejaVuSans-101"/>
      <use x="297.119141" xlink:href="#DejaVuSans-114"/>
      <use x="335.982422" xlink:href="#DejaVuSans-111"/>
      <use x="397.164062" xlink:href="#DejaVuSans-32"/>
      <use x="428.951172" xlink:href="#DejaVuSans-100"/>
      <use x="492.427734" xlink:href="#DejaVuSans-101"/>
      <use x="553.951172" xlink:href="#DejaVuSans-32"/>
      <use x="585.738281" xlink:href="#DejaVuSans-116"/>
      <use x="624.947266" xlink:href="#DejaVuSans-105"/>
      <use x="652.730469" xlink:href="#DejaVuSans-114"/>
      <use x="693.84375" xlink:href="#DejaVuSans-97"/>
      <use x="755.123047" xlink:href="#DejaVuSans-100"/>
      <use x="818.599609" xlink:href="#DejaVuSans-97"/>
     </g>
    </g>
   </g>
   <g id="matplotlib.axis_2">
    <g id="ytick_1">
     <g id="line2d_10">
      <defs>
       <path d="M 0 0 
L -3.5 0 
" id="m5dc57e231e" style="stroke:#000000;stroke-width:0.8;"/>
      </defs>
      <g>
       <use style="stroke:#000000;stroke-width:0.8;" x="57.6" xlink:href="#m5dc57e231e" y="291.877254"/>
      </g>
     </g>
     <g id="text_11">
      <!-- 146000 -->
      <g transform="translate(12.425 295.676472)scale(0.1 -0.1)">
       <defs>
        <path d="M 37.796875 64.3125 
L 12.890625 25.390625 
L 37.796875 25.390625 
z
M 35.203125 72.90625 
L 47.609375 72.90625 
L 47.609375 25.390625 
L 58.015625 25.390625 
L 58.015625 17.1875 
L 47.609375 17.1875 
L 47.609375 0 
L 37.796875 0 
L 37.796875 17.1875 
L 4.890625 17.1875 
L 4.890625 26.703125 
z
" id="DejaVuSans-52"/>
        <path d="M 33.015625 40.375 
Q 26.375 40.375 22.484375 35.828125 
Q 18.609375 31.296875 18.609375 23.390625 
Q 18.609375 15.53125 22.484375 10.953125 
Q 26.375 6.390625 33.015625 6.390625 
Q 39.65625 6.390625 43.53125 10.953125 
Q 47.40625 15.53125 47.40625 23.390625 
Q 47.40625 31.296875 43.53125 35.828125 
Q 39.65625 40.375 33.015625 40.375 
z
M 52.59375 71.296875 
L 52.59375 62.3125 
Q 48.875 64.0625 45.09375 64.984375 
Q 41.3125 65.921875 37.59375 65.921875 
Q 27.828125 65.921875 22.671875 59.328125 
Q 17.53125 52.734375 16.796875 39.40625 
Q 19.671875 43.65625 24.015625 45.921875 
Q 28.375 48.1875 33.59375 48.1875 
Q 44.578125 48.1875 50.953125 41.515625 
Q 57.328125 34.859375 57.328125 23.390625 
Q 57.328125 12.15625 50.6875 5.359375 
Q 44.046875 -1.421875 33.015625 -1.421875 
Q 20.359375 -1.421875 13.671875 8.265625 
Q 6.984375 17.96875 6.984375 36.375 
Q 6.984375 53.65625 15.1875 63.9375 
Q 23.390625 74.21875 37.203125 74.21875 
Q 40.921875 74.21875 44.703125 73.484375 
Q 48.484375 72.75 52.59375 71.296875 
z
" id="DejaVuSans-54"/>
       </defs>
       <use xlink:href="#DejaVuSans-49"/>
       <use x="63.623047" xlink:href="#DejaVuSans-52"/>
       <use x="127.246094" xlink:href="#DejaVuSans-54"/>
       <use x="190.869141" xlink:href="#DejaVuSans-48"/>
       <use x="254.492188" xlink:href="#DejaVuSans-48"/>
       <use x="318.115234" xlink:href="#DejaVuSans-48"/>
      </g>
     </g>
    </g>
    <g id="ytick_2">
     <g id="line2d_11">
      <g>
       <use style="stroke:#000000;stroke-width:0.8;" x="57.6" xlink:href="#m5dc57e231e" y="255.769791"/>
      </g>
     </g>
     <g id="text_12">
      <!-- 147000 -->
      <g transform="translate(12.425 259.56901)scale(0.1 -0.1)">
       <use xlink:href="#DejaVuSans-49"/>
       <use x="63.623047" xlink:href="#DejaVuSans-52"/>
       <use x="127.246094" xlink:href="#DejaVuSans-55"/>
       <use x="190.869141" xlink:href="#DejaVuSans-48"/>
       <use x="254.492188" xlink:href="#DejaVuSans-48"/>
       <use x="318.115234" xlink:href="#DejaVuSans-48"/>
      </g>
     </g>
    </g>
    <g id="ytick_3">
     <g id="line2d_12">
      <g>
       <use style="stroke:#000000;stroke-width:0.8;" x="57.6" xlink:href="#m5dc57e231e" y="219.662328"/>
      </g>
     </g>
     <g id="text_13">
      <!-- 148000 -->
      <g transform="translate(12.425 223.461547)scale(0.1 -0.1)">
       <defs>
        <path d="M 31.78125 34.625 
Q 24.75 34.625 20.71875 30.859375 
Q 16.703125 27.09375 16.703125 20.515625 
Q 16.703125 13.921875 20.71875 10.15625 
Q 24.75 6.390625 31.78125 6.390625 
Q 38.8125 6.390625 42.859375 10.171875 
Q 46.921875 13.96875 46.921875 20.515625 
Q 46.921875 27.09375 42.890625 30.859375 
Q 38.875 34.625 31.78125 34.625 
z
M 21.921875 38.8125 
Q 15.578125 40.375 12.03125 44.71875 
Q 8.5 49.078125 8.5 55.328125 
Q 8.5 64.0625 14.71875 69.140625 
Q 20.953125 74.21875 31.78125 74.21875 
Q 42.671875 74.21875 48.875 69.140625 
Q 55.078125 64.0625 55.078125 55.328125 
Q 55.078125 49.078125 51.53125 44.71875 
Q 48 40.375 41.703125 38.8125 
Q 48.828125 37.15625 52.796875 32.3125 
Q 56.78125 27.484375 56.78125 20.515625 
Q 56.78125 9.90625 50.3125 4.234375 
Q 43.84375 -1.421875 31.78125 -1.421875 
Q 19.734375 -1.421875 13.25 4.234375 
Q 6.78125 9.90625 6.78125 20.515625 
Q 6.78125 27.484375 10.78125 32.3125 
Q 14.796875 37.15625 21.921875 38.8125 
z
M 18.3125 54.390625 
Q 18.3125 48.734375 21.84375 45.5625 
Q 25.390625 42.390625 31.78125 42.390625 
Q 38.140625 42.390625 41.71875 45.5625 
Q 45.3125 48.734375 45.3125 54.390625 
Q 45.3125 60.0625 41.71875 63.234375 
Q 38.140625 66.40625 31.78125 66.40625 
Q 25.390625 66.40625 21.84375 63.234375 
Q 18.3125 60.0625 18.3125 54.390625 
z
" id="DejaVuSans-56"/>
       </defs>
       <use xlink:href="#DejaVuSans-49"/>
       <use x="63.623047" xlink:href="#DejaVuSans-52"/>
       <use x="127.246094" xlink:href="#DejaVuSans-56"/>
       <use x="190.869141" xlink:href="#DejaVuSans-48"/>
       <use x="254.492188" xlink:href="#DejaVuSans-48"/>
       <use x="318.115234" xlink:href="#DejaVuSans-48"/>
      </g>
     </g>
    </g>
    <g id="ytick_4">
     <g id="line2d_13">
      <g>
       <use style="stroke:#000000;stroke-width:0.8;" x="57.6" xlink:href="#m5dc57e231e" y="183.554866"/>
      </g>
     </g>
     <g id="text_14">
      <!-- 149000 -->
      <g transform="translate(12.425 187.354084)scale(0.1 -0.1)">
       <defs>
        <path d="M 10.984375 1.515625 
L 10.984375 10.5 
Q 14.703125 8.734375 18.5 7.8125 
Q 22.3125 6.890625 25.984375 6.890625 
Q 35.75 6.890625 40.890625 13.453125 
Q 46.046875 20.015625 46.78125 33.40625 
Q 43.953125 29.203125 39.59375 26.953125 
Q 35.25 24.703125 29.984375 24.703125 
Q 19.046875 24.703125 12.671875 31.3125 
Q 6.296875 37.9375 6.296875 49.421875 
Q 6.296875 60.640625 12.9375 67.421875 
Q 19.578125 74.21875 30.609375 74.21875 
Q 43.265625 74.21875 49.921875 64.515625 
Q 56.59375 54.828125 56.59375 36.375 
Q 56.59375 19.140625 48.40625 8.859375 
Q 40.234375 -1.421875 26.421875 -1.421875 
Q 22.703125 -1.421875 18.890625 -0.6875 
Q 15.09375 0.046875 10.984375 1.515625 
z
M 30.609375 32.421875 
Q 37.25 32.421875 41.125 36.953125 
Q 45.015625 41.5 45.015625 49.421875 
Q 45.015625 57.28125 41.125 61.84375 
Q 37.25 66.40625 30.609375 66.40625 
Q 23.96875 66.40625 20.09375 61.84375 
Q 16.21875 57.28125 16.21875 49.421875 
Q 16.21875 41.5 20.09375 36.953125 
Q 23.96875 32.421875 30.609375 32.421875 
z
" id="DejaVuSans-57"/>
       </defs>
       <use xlink:href="#DejaVuSans-49"/>
       <use x="63.623047" xlink:href="#DejaVuSans-52"/>
       <use x="127.246094" xlink:href="#DejaVuSans-57"/>
       <use x="190.869141" xlink:href="#DejaVuSans-48"/>
       <use x="254.492188" xlink:href="#DejaVuSans-48"/>
       <use x="318.115234" xlink:href="#DejaVuSans-48"/>
      </g>
     </g>
    </g>
    <g id="ytick_5">
     <g id="line2d_14">
      <g>
       <use style="stroke:#000000;stroke-width:0.8;" x="57.6" xlink:href="#m5dc57e231e" y="147.447403"/>
      </g>
     </g>
     <g id="text_15">
      <!-- 150000 -->
      <g transform="translate(12.425 151.246622)scale(0.1 -0.1)">
       <use xlink:href="#DejaVuSans-49"/>
       <use x="63.623047" xlink:href="#DejaVuSans-53"/>
       <use x="127.246094" xlink:href="#DejaVuSans-48"/>
       <use x="190.869141" xlink:href="#DejaVuSans-48"/>
       <use x="254.492188" xlink:href="#DejaVuSans-48"/>
       <use x="318.115234" xlink:href="#DejaVuSans-48"/>
      </g>
     </g>
    </g>
    <g id="ytick_6">
     <g id="line2d_15">
      <g>
       <use style="stroke:#000000;stroke-width:0.8;" x="57.6" xlink:href="#m5dc57e231e" y="111.33994"/>
      </g>
     </g>
     <g id="text_16">
      <!-- 151000 -->
      <g transform="translate(12.425 115.139159)scale(0.1 -0.1)">
       <use xlink:href="#DejaVuSans-49"/>
       <use x="63.623047" xlink:href="#DejaVuSans-53"/>
       <use x="127.246094" xlink:href="#DejaVuSans-49"/>
       <use x="190.869141" xlink:href="#DejaVuSans-48"/>
       <use x="254.492188" xlink:href="#DejaVuSans-48"/>
       <use x="318.115234" xlink:href="#DejaVuSans-48"/>
      </g>
     </g>
    </g>
    <g id="ytick_7">
     <g id="line2d_16">
      <g>
       <use style="stroke:#000000;stroke-width:0.8;" x="57.6" xlink:href="#m5dc57e231e" y="75.232478"/>
      </g>
     </g>
     <g id="text_17">
      <!-- 152000 -->
      <g transform="translate(12.425 79.031696)scale(0.1 -0.1)">
       <use xlink:href="#DejaVuSans-49"/>
       <use x="63.623047" xlink:href="#DejaVuSans-53"/>
       <use x="127.246094" xlink:href="#DejaVuSans-50"/>
       <use x="190.869141" xlink:href="#DejaVuSans-48"/>
       <use x="254.492188" xlink:href="#DejaVuSans-48"/>
       <use x="318.115234" xlink:href="#DejaVuSans-48"/>
      </g>
     </g>
    </g>
    <g id="text_18">
     <!-- Fondo en $ -->
     <g transform="translate(6.345312 202.288938)rotate(-90)scale(0.1 -0.1)">
      <defs>
       <path d="M 9.8125 72.90625 
L 51.703125 72.90625 
L 51.703125 64.59375 
L 19.671875 64.59375 
L 19.671875 43.109375 
L 48.578125 43.109375 
L 48.578125 34.8125 
L 19.671875 34.8125 
L 19.671875 0 
L 9.8125 0 
z
" id="DejaVuSans-70"/>
       <path d="M 54.890625 33.015625 
L 54.890625 0 
L 45.90625 0 
L 45.90625 32.71875 
Q 45.90625 40.484375 42.875 44.328125 
Q 39.84375 48.1875 33.796875 48.1875 
Q 26.515625 48.1875 22.3125 43.546875 
Q 18.109375 38.921875 18.109375 30.90625 
L 18.109375 0 
L 9.078125 0 
L 9.078125 54.6875 
L 18.109375 54.6875 
L 18.109375 46.1875 
Q 21.34375 51.125 25.703125 53.5625 
Q 30.078125 56 35.796875 56 
Q 45.21875 56 50.046875 50.171875 
Q 54.890625 44.34375 54.890625 33.015625 
z
" id="DejaVuSans-110"/>
       <path d="M 33.796875 -14.703125 
L 28.90625 -14.703125 
L 28.859375 0 
Q 23.734375 0.09375 18.609375 1.1875 
Q 13.484375 2.296875 8.296875 4.5 
L 8.296875 13.28125 
Q 13.28125 10.15625 18.375 8.5625 
Q 23.484375 6.984375 28.90625 6.9375 
L 28.90625 29.203125 
Q 18.109375 30.953125 13.203125 35.15625 
Q 8.296875 39.359375 8.296875 46.6875 
Q 8.296875 54.640625 13.625 59.21875 
Q 18.953125 63.8125 28.90625 64.5 
L 28.90625 75.984375 
L 33.796875 75.984375 
L 33.796875 64.65625 
Q 38.328125 64.453125 42.578125 63.6875 
Q 46.828125 62.9375 50.875 61.625 
L 50.875 53.078125 
Q 46.828125 55.125 42.546875 56.25 
Q 38.28125 57.375 33.796875 57.5625 
L 33.796875 36.71875 
Q 44.875 35.015625 50.09375 30.609375 
Q 55.328125 26.21875 55.328125 18.609375 
Q 55.328125 10.359375 49.78125 5.59375 
Q 44.234375 0.828125 33.796875 0.09375 
z
M 28.90625 37.59375 
L 28.90625 57.625 
Q 23.25 56.984375 20.265625 54.390625 
Q 17.28125 51.8125 17.28125 47.515625 
Q 17.28125 43.3125 20.03125 40.96875 
Q 22.796875 38.625 28.90625 37.59375 
z
M 33.796875 28.21875 
L 33.796875 7.078125 
Q 39.984375 7.90625 43.140625 10.59375 
Q 46.296875 13.28125 46.296875 17.671875 
Q 46.296875 21.96875 43.28125 24.5 
Q 40.28125 27.046875 33.796875 28.21875 
z
" id="DejaVuSans-36"/>
      </defs>
      <use xlink:href="#DejaVuSans-70"/>
      <use x="53.894531" xlink:href="#DejaVuSans-111"/>
      <use x="115.076172" xlink:href="#DejaVuSans-110"/>
      <use x="178.455078" xlink:href="#DejaVuSans-100"/>
      <use x="241.931641" xlink:href="#DejaVuSans-111"/>
      <use x="303.113281" xlink:href="#DejaVuSans-32"/>
      <use x="334.900391" xlink:href="#DejaVuSans-101"/>
      <use x="396.423828" xlink:href="#DejaVuSans-110"/>
      <use x="459.802734" xlink:href="#DejaVuSans-32"/>
      <use x="491.589844" xlink:href="#DejaVuSans-36"/>
     </g>
    </g>
   </g>
   <g id="line2d_17">
    <path clip-path="url(#p66edb18978)" d="M 73.832727 151.058149 
L 75.464157 154.668896 
L 77.095587 151.058149 
L 78.727017 154.668896 
L 80.358447 151.058149 
L 81.989877 154.668896 
L 83.621307 151.058149 
L 90.147026 165.501134 
L 95.041316 154.668896 
L 98.304175 161.890388 
L 99.935605 158.279642 
L 101.567035 161.890388 
L 104.829895 154.668896 
L 108.092755 161.890388 
L 117.881334 140.22591 
L 119.512764 143.836657 
L 121.144194 140.22591 
L 122.775624 143.836657 
L 124.407053 140.22591 
L 127.669913 147.447403 
L 130.932773 140.22591 
L 132.564203 143.836657 
L 134.195633 140.22591 
L 135.827063 143.836657 
L 137.458492 140.22591 
L 140.721352 147.447403 
L 142.352782 143.836657 
L 148.878502 158.279642 
L 150.509931 154.668896 
L 153.772791 161.890388 
L 155.404221 158.279642 
L 157.035651 161.890388 
L 165.1928 143.836657 
L 168.45566 151.058149 
L 170.08709 147.447403 
L 171.71852 151.058149 
L 173.34995 147.447403 
L 176.61281 154.668896 
L 179.875669 147.447403 
L 184.769959 158.279642 
L 186.401389 154.668896 
L 188.032819 158.279642 
L 189.664249 154.668896 
L 192.927108 161.890388 
L 199.452828 147.447403 
L 202.715688 154.668896 
L 214.135697 129.393672 
L 215.767127 133.004418 
L 223.924276 114.950687 
L 225.555706 118.561433 
L 227.187136 114.950687 
L 233.712855 129.393672 
L 241.870005 111.33994 
L 250.027154 129.393672 
L 253.290014 122.172179 
L 254.921444 125.782925 
L 256.552873 122.172179 
L 269.604312 151.058149 
L 271.235742 147.447403 
L 272.867172 151.058149 
L 274.498602 147.447403 
L 276.130032 151.058149 
L 279.392892 143.836657 
L 281.024322 147.447403 
L 282.655751 143.836657 
L 284.287181 147.447403 
L 287.550041 140.22591 
L 289.181471 143.836657 
L 292.444331 136.615164 
L 297.33862 147.447403 
L 300.60148 140.22591 
L 302.23291 143.836657 
L 307.1272 133.004418 
L 318.547209 158.279642 
L 326.704358 140.22591 
L 329.967218 147.447403 
L 334.861508 136.615164 
L 336.492937 140.22591 
L 338.124367 136.615164 
L 341.387227 143.836657 
L 346.281517 133.004418 
L 351.175806 143.836657 
L 352.807236 140.22591 
L 362.595815 161.890388 
L 364.227245 158.279642 
L 367.490105 165.501134 
L 369.121535 161.890388 
L 370.752965 165.501134 
L 375.647254 154.668896 
L 377.278684 158.279642 
L 385.435834 140.22591 
L 387.067264 143.836657 
L 388.698693 140.22591 
L 391.961553 147.447403 
L 393.592983 143.836657 
L 395.224413 147.447403 
L 398.487273 140.22591 
L 398.487273 140.22591 
" style="fill:none;stroke:#1f77b4;stroke-linecap:square;stroke-width:1.5;"/>
   </g>
   <g id="line2d_18">
    <path clip-path="url(#p66edb18978)" d="M 73.832727 143.836657 
L 75.464157 147.447403 
L 78.727017 140.22591 
L 81.989877 147.447403 
L 83.621307 143.836657 
L 88.515596 154.668896 
L 90.147026 151.058149 
L 91.778456 154.668896 
L 93.409886 151.058149 
L 95.041316 154.668896 
L 96.672746 151.058149 
L 98.304175 154.668896 
L 99.935605 151.058149 
L 103.198465 158.279642 
L 106.461325 151.058149 
L 108.092755 154.668896 
L 111.355614 147.447403 
L 114.618474 154.668896 
L 116.249904 151.058149 
L 124.407053 169.111881 
L 126.038483 165.501134 
L 132.564203 179.944119 
L 134.195633 176.333373 
L 145.615642 201.608597 
L 152.141361 187.165612 
L 153.772791 190.776358 
L 155.404221 187.165612 
L 161.929941 201.608597 
L 163.56137 197.997851 
L 166.82423 205.219343 
L 168.45566 201.608597 
L 173.34995 212.440836 
L 183.138529 190.776358 
L 192.927108 212.440836 
L 194.558538 208.83009 
L 196.189968 212.440836 
L 199.452828 205.219343 
L 202.715688 212.440836 
L 207.609977 201.608597 
L 214.135697 216.051582 
L 230.449995 179.944119 
L 233.712855 187.165612 
L 235.344285 183.554866 
L 240.238575 194.387104 
L 243.501434 187.165612 
L 248.395724 197.997851 
L 250.027154 194.387104 
L 251.658584 197.997851 
L 254.921444 190.776358 
L 258.184303 197.997851 
L 263.078593 187.165612 
L 264.710023 190.776358 
L 267.972883 183.554866 
L 274.498602 197.997851 
L 276.130032 194.387104 
L 277.761462 197.997851 
L 281.024322 190.776358 
L 282.655751 194.387104 
L 287.550041 183.554866 
L 294.075761 197.997851 
L 297.33862 190.776358 
L 302.23291 201.608597 
L 303.86434 197.997851 
L 312.021489 216.051582 
L 313.652919 212.440836 
L 320.178639 226.883821 
L 321.810069 223.273075 
L 323.441498 226.883821 
L 326.704358 219.662328 
L 328.335788 223.273075 
L 329.967218 219.662328 
L 333.230078 226.883821 
L 336.492937 219.662328 
L 339.755797 226.883821 
L 341.387227 223.273075 
L 356.070096 255.769791 
L 357.701526 252.159045 
L 360.964386 259.380537 
L 362.595815 255.769791 
L 374.015825 281.045015 
L 378.910114 270.212776 
L 387.067264 288.266507 
L 388.698693 284.655761 
L 391.961553 291.877254 
L 393.592983 288.266507 
L 396.855843 295.488 
L 398.487273 291.877254 
L 398.487273 291.877254 
" style="fill:none;stroke:#ff7f0e;stroke-linecap:square;stroke-width:1.5;"/>
   </g>
   <g id="line2d_19">
    <path clip-path="url(#p66edb18978)" d="M 73.832727 151.058149 
L 75.464157 154.668896 
L 77.095587 151.058149 
L 83.621307 165.501134 
L 85.252736 161.890388 
L 86.884166 165.501134 
L 91.778456 154.668896 
L 95.041316 161.890388 
L 96.672746 158.279642 
L 98.304175 161.890388 
L 101.567035 154.668896 
L 104.829895 161.890388 
L 109.724185 151.058149 
L 112.987044 158.279642 
L 114.618474 154.668896 
L 116.249904 158.279642 
L 117.881334 154.668896 
L 121.144194 161.890388 
L 122.775624 158.279642 
L 124.407053 161.890388 
L 130.932773 147.447403 
L 132.564203 151.058149 
L 139.089922 136.615164 
L 140.721352 140.22591 
L 142.352782 136.615164 
L 143.984212 140.22591 
L 145.615642 136.615164 
L 148.878502 143.836657 
L 150.509931 140.22591 
L 155.404221 151.058149 
L 158.667081 143.836657 
L 160.298511 147.447403 
L 163.56137 140.22591 
L 165.1928 143.836657 
L 168.45566 136.615164 
L 170.08709 140.22591 
L 188.032819 100.507701 
L 189.664249 104.118448 
L 191.295678 100.507701 
L 192.927108 104.118448 
L 197.821398 93.286209 
L 201.084258 100.507701 
L 205.978547 89.675463 
L 207.609977 93.286209 
L 209.241407 89.675463 
L 212.504267 96.896955 
L 214.135697 93.286209 
L 219.029986 104.118448 
L 220.661416 100.507701 
L 223.924276 107.729194 
L 225.555706 104.118448 
L 227.187136 107.729194 
L 228.818566 104.118448 
L 230.449995 107.729194 
L 232.081425 104.118448 
L 233.712855 107.729194 
L 235.344285 104.118448 
L 236.975715 107.729194 
L 241.870005 96.896955 
L 250.027154 114.950687 
L 253.290014 107.729194 
L 256.552873 114.950687 
L 259.815733 107.729194 
L 264.710023 118.561433 
L 269.604312 107.729194 
L 271.235742 111.33994 
L 276.130032 100.507701 
L 277.761462 104.118448 
L 282.655751 93.286209 
L 289.181471 107.729194 
L 290.812901 104.118448 
L 292.444331 107.729194 
L 298.97005 93.286209 
L 300.60148 96.896955 
L 303.86434 89.675463 
L 316.915779 118.561433 
L 318.547209 114.950687 
L 325.072928 129.393672 
L 326.704358 125.782925 
L 328.335788 129.393672 
L 329.967218 125.782925 
L 331.598648 129.393672 
L 333.230078 125.782925 
L 334.861508 129.393672 
L 336.492937 125.782925 
L 338.124367 129.393672 
L 339.755797 125.782925 
L 341.387227 129.393672 
L 349.544376 111.33994 
L 351.175806 114.950687 
L 357.701526 100.507701 
L 364.227245 114.950687 
L 374.015825 93.286209 
L 375.647254 96.896955 
L 377.278684 93.286209 
L 378.910114 96.896955 
L 382.172974 89.675463 
L 385.435834 96.896955 
L 388.698693 89.675463 
L 395.224413 104.118448 
L 398.487273 96.896955 
L 398.487273 96.896955 
" style="fill:none;stroke:#2ca02c;stroke-linecap:square;stroke-width:1.5;"/>
   </g>
   <g id="line2d_20">
    <path clip-path="url(#p66edb18978)" d="M 73.832727 143.836657 
L 80.358447 158.279642 
L 81.989877 154.668896 
L 85.252736 161.890388 
L 90.147026 151.058149 
L 91.778456 154.668896 
L 96.672746 143.836657 
L 104.829895 161.890388 
L 106.461325 158.279642 
L 108.092755 161.890388 
L 111.355614 154.668896 
L 114.618474 161.890388 
L 116.249904 158.279642 
L 129.301343 187.165612 
L 132.564203 179.944119 
L 135.827063 187.165612 
L 137.458492 183.554866 
L 140.721352 190.776358 
L 142.352782 187.165612 
L 143.984212 190.776358 
L 150.509931 176.333373 
L 152.141361 179.944119 
L 153.772791 176.333373 
L 160.298511 190.776358 
L 170.08709 169.111881 
L 173.34995 176.333373 
L 174.98138 172.722627 
L 178.244239 179.944119 
L 179.875669 176.333373 
L 181.507099 179.944119 
L 184.769959 172.722627 
L 192.927108 190.776358 
L 194.558538 187.165612 
L 197.821398 194.387104 
L 201.084258 187.165612 
L 207.609977 201.608597 
L 209.241407 197.997851 
L 210.872837 201.608597 
L 219.029986 183.554866 
L 232.081425 212.440836 
L 233.712855 208.83009 
L 241.870005 226.883821 
L 243.501434 223.273075 
L 245.132864 226.883821 
L 248.395724 219.662328 
L 250.027154 223.273075 
L 251.658584 219.662328 
L 254.921444 226.883821 
L 259.815733 216.051582 
L 263.078593 223.273075 
L 264.710023 219.662328 
L 266.341453 223.273075 
L 267.972883 219.662328 
L 269.604312 223.273075 
L 271.235742 219.662328 
L 274.498602 226.883821 
L 276.130032 223.273075 
L 279.392892 230.494567 
L 284.287181 219.662328 
L 287.550041 226.883821 
L 289.181471 223.273075 
L 290.812901 226.883821 
L 292.444331 223.273075 
L 295.70719 230.494567 
L 297.33862 226.883821 
L 307.1272 248.548299 
L 308.75863 244.937552 
L 310.390059 248.548299 
L 312.021489 244.937552 
L 313.652919 248.548299 
L 318.547209 237.71606 
L 320.178639 241.326806 
L 323.441498 234.105313 
L 325.072928 237.71606 
L 326.704358 234.105313 
L 328.335788 237.71606 
L 331.598648 230.494567 
L 333.230078 234.105313 
L 338.124367 223.273075 
L 339.755797 226.883821 
L 341.387227 223.273075 
L 343.018657 226.883821 
L 344.650087 223.273075 
L 346.281517 226.883821 
L 351.175806 216.051582 
L 352.807236 219.662328 
L 354.438666 216.051582 
L 356.070096 219.662328 
L 362.595815 205.219343 
L 364.227245 208.83009 
L 369.121535 197.997851 
L 370.752965 201.608597 
L 372.384395 197.997851 
L 374.015825 201.608597 
L 375.647254 197.997851 
L 378.910114 205.219343 
L 382.172974 197.997851 
L 383.804404 201.608597 
L 385.435834 197.997851 
L 387.067264 201.608597 
L 388.698693 197.997851 
L 390.330123 201.608597 
L 393.592983 194.387104 
L 398.487273 205.219343 
L 398.487273 205.219343 
" style="fill:none;stroke:#d62728;stroke-linecap:square;stroke-width:1.5;"/>
   </g>
   <g id="line2d_21">
    <path clip-path="url(#p66edb18978)" d="M 73.832727 143.836657 
L 77.095587 151.058149 
L 80.358447 143.836657 
L 81.989877 147.447403 
L 83.621307 143.836657 
L 85.252736 147.447403 
L 86.884166 143.836657 
L 93.409886 158.279642 
L 103.198465 136.615164 
L 104.829895 140.22591 
L 112.987044 122.172179 
L 116.249904 129.393672 
L 122.775624 114.950687 
L 127.669913 125.782925 
L 129.301343 122.172179 
L 130.932773 125.782925 
L 132.564203 122.172179 
L 137.458492 133.004418 
L 140.721352 125.782925 
L 143.984212 133.004418 
L 145.615642 129.393672 
L 148.878502 136.615164 
L 160.298511 111.33994 
L 165.1928 122.172179 
L 166.82423 118.561433 
L 171.71852 129.393672 
L 173.34995 125.782925 
L 174.98138 129.393672 
L 176.61281 125.782925 
L 178.244239 129.393672 
L 181.507099 122.172179 
L 183.138529 125.782925 
L 184.769959 122.172179 
L 188.032819 129.393672 
L 192.927108 118.561433 
L 194.558538 122.172179 
L 196.189968 118.561433 
L 197.821398 122.172179 
L 199.452828 118.561433 
L 201.084258 122.172179 
L 205.978547 111.33994 
L 212.504267 125.782925 
L 214.135697 122.172179 
L 220.661416 136.615164 
L 222.292846 133.004418 
L 223.924276 136.615164 
L 227.187136 129.393672 
L 228.818566 133.004418 
L 230.449995 129.393672 
L 232.081425 133.004418 
L 233.712855 129.393672 
L 235.344285 133.004418 
L 241.870005 118.561433 
L 248.395724 133.004418 
L 250.027154 129.393672 
L 253.290014 136.615164 
L 254.921444 133.004418 
L 256.552873 136.615164 
L 259.815733 129.393672 
L 267.972883 147.447403 
L 272.867172 136.615164 
L 274.498602 140.22591 
L 279.392892 129.393672 
L 281.024322 133.004418 
L 285.918611 122.172179 
L 287.550041 125.782925 
L 300.60148 96.896955 
L 302.23291 100.507701 
L 305.49577 93.286209 
L 308.75863 100.507701 
L 315.284349 86.064716 
L 316.915779 89.675463 
L 318.547209 86.064716 
L 321.810069 93.286209 
L 333.230078 68.010985 
L 334.861508 71.621731 
L 338.124367 64.400239 
L 339.755797 68.010985 
L 343.018657 60.789493 
L 344.650087 64.400239 
L 346.281517 60.789493 
L 349.544376 68.010985 
L 351.175806 64.400239 
L 352.807236 68.010985 
L 354.438666 64.400239 
L 357.701526 71.621731 
L 364.227245 57.178746 
L 367.490105 64.400239 
L 369.121535 60.789493 
L 372.384395 68.010985 
L 377.278684 57.178746 
L 378.910114 60.789493 
L 380.541544 57.178746 
L 382.172974 60.789493 
L 385.435834 53.568 
L 391.961553 68.010985 
L 393.592983 64.400239 
L 395.224413 68.010985 
L 396.855843 64.400239 
L 398.487273 68.010985 
L 398.487273 68.010985 
" style="fill:none;stroke:#9467bd;stroke-linecap:square;stroke-width:1.5;"/>
   </g>
   <g id="line2d_22">
    <path clip-path="url(#p66edb18978)" d="M 73.832727 151.058149 
L 75.464157 154.668896 
L 83.621307 136.615164 
L 85.252736 140.22591 
L 86.884166 136.615164 
L 91.778456 147.447403 
L 93.409886 143.836657 
L 98.304175 154.668896 
L 104.829895 140.22591 
L 108.092755 147.447403 
L 109.724185 143.836657 
L 114.618474 154.668896 
L 119.512764 143.836657 
L 126.038483 158.279642 
L 127.669913 154.668896 
L 129.301343 158.279642 
L 130.932773 154.668896 
L 132.564203 158.279642 
L 137.458492 147.447403 
L 139.089922 151.058149 
L 143.984212 140.22591 
L 155.404221 165.501134 
L 163.56137 147.447403 
L 174.98138 172.722627 
L 176.61281 169.111881 
L 179.875669 176.333373 
L 188.032819 158.279642 
L 194.558538 172.722627 
L 210.872837 136.615164 
L 214.135697 143.836657 
L 215.767127 140.22591 
L 219.029986 147.447403 
L 220.661416 143.836657 
L 223.924276 151.058149 
L 225.555706 147.447403 
L 227.187136 151.058149 
L 228.818566 147.447403 
L 230.449995 151.058149 
L 232.081425 147.447403 
L 233.712855 151.058149 
L 235.344285 147.447403 
L 236.975715 151.058149 
L 238.607145 147.447403 
L 243.501434 158.279642 
L 245.132864 154.668896 
L 248.395724 161.890388 
L 250.027154 158.279642 
L 253.290014 165.501134 
L 254.921444 161.890388 
L 256.552873 165.501134 
L 259.815733 158.279642 
L 261.447163 161.890388 
L 263.078593 158.279642 
L 267.972883 169.111881 
L 269.604312 165.501134 
L 277.761462 183.554866 
L 279.392892 179.944119 
L 281.024322 183.554866 
L 285.918611 172.722627 
L 289.181471 179.944119 
L 292.444331 172.722627 
L 298.97005 187.165612 
L 302.23291 179.944119 
L 305.49577 187.165612 
L 307.1272 183.554866 
L 308.75863 187.165612 
L 312.021489 179.944119 
L 313.652919 183.554866 
L 320.178639 169.111881 
L 321.810069 172.722627 
L 323.441498 169.111881 
L 328.335788 179.944119 
L 331.598648 172.722627 
L 333.230078 176.333373 
L 343.018657 154.668896 
L 347.912947 165.501134 
L 357.701526 143.836657 
L 359.332956 147.447403 
L 360.964386 143.836657 
L 362.595815 147.447403 
L 365.858675 140.22591 
L 367.490105 143.836657 
L 374.015825 129.393672 
L 375.647254 133.004418 
L 380.541544 122.172179 
L 382.172974 125.782925 
L 385.435834 118.561433 
L 387.067264 122.172179 
L 388.698693 118.561433 
L 393.592983 129.393672 
L 395.224413 125.782925 
L 396.855843 129.393672 
L 398.487273 125.782925 
L 398.487273 125.782925 
" style="fill:none;stroke:#8c564b;stroke-linecap:square;stroke-width:1.5;"/>
   </g>
   <g id="line2d_23">
    <path clip-path="url(#p66edb18978)" d="M 73.832727 151.058149 
L 78.727017 161.890388 
L 81.989877 154.668896 
L 86.884166 165.501134 
L 88.515596 161.890388 
L 93.409886 172.722627 
L 95.041316 169.111881 
L 96.672746 172.722627 
L 99.935605 165.501134 
L 101.567035 169.111881 
L 111.355614 147.447403 
L 112.987044 151.058149 
L 117.881334 140.22591 
L 119.512764 143.836657 
L 121.144194 140.22591 
L 122.775624 143.836657 
L 124.407053 140.22591 
L 126.038483 143.836657 
L 127.669913 140.22591 
L 129.301343 143.836657 
L 130.932773 140.22591 
L 139.089922 158.279642 
L 150.509931 133.004418 
L 152.141361 136.615164 
L 157.035651 125.782925 
L 160.298511 133.004418 
L 163.56137 125.782925 
L 165.1928 129.393672 
L 166.82423 125.782925 
L 168.45566 129.393672 
L 170.08709 125.782925 
L 171.71852 129.393672 
L 178.244239 114.950687 
L 183.138529 125.782925 
L 184.769959 122.172179 
L 188.032819 129.393672 
L 189.664249 125.782925 
L 191.295678 129.393672 
L 196.189968 118.561433 
L 197.821398 122.172179 
L 199.452828 118.561433 
L 204.347117 129.393672 
L 205.978547 125.782925 
L 210.872837 136.615164 
L 217.398556 122.172179 
L 219.029986 125.782925 
L 220.661416 122.172179 
L 223.924276 129.393672 
L 225.555706 125.782925 
L 227.187136 129.393672 
L 228.818566 125.782925 
L 230.449995 129.393672 
L 240.238575 107.729194 
L 243.501434 114.950687 
L 250.027154 100.507701 
L 251.658584 104.118448 
L 259.815733 86.064716 
L 264.710023 96.896955 
L 266.341453 93.286209 
L 277.761462 118.561433 
L 284.287181 104.118448 
L 285.918611 107.729194 
L 287.550041 104.118448 
L 289.181471 107.729194 
L 290.812901 104.118448 
L 294.075761 111.33994 
L 298.97005 100.507701 
L 300.60148 104.118448 
L 303.86434 96.896955 
L 305.49577 100.507701 
L 308.75863 93.286209 
L 310.390059 96.896955 
L 313.652919 89.675463 
L 316.915779 96.896955 
L 318.547209 93.286209 
L 320.178639 96.896955 
L 323.441498 89.675463 
L 325.072928 93.286209 
L 328.335788 86.064716 
L 329.967218 89.675463 
L 333.230078 82.45397 
L 336.492937 89.675463 
L 338.124367 86.064716 
L 343.018657 96.896955 
L 351.175806 78.843224 
L 359.332956 96.896955 
L 360.964386 93.286209 
L 364.227245 100.507701 
L 365.858675 96.896955 
L 369.121535 104.118448 
L 370.752965 100.507701 
L 372.384395 104.118448 
L 374.015825 100.507701 
L 377.278684 107.729194 
L 378.910114 104.118448 
L 380.541544 107.729194 
L 382.172974 104.118448 
L 383.804404 107.729194 
L 385.435834 104.118448 
L 391.961553 118.561433 
L 393.592983 114.950687 
L 398.487273 125.782925 
L 398.487273 125.782925 
" style="fill:none;stroke:#e377c2;stroke-linecap:square;stroke-width:1.5;"/>
   </g>
   <g id="line2d_24">
    <path clip-path="url(#p66edb18978)" d="M 73.832727 151.058149 
L 75.464157 154.668896 
L 77.095587 151.058149 
L 83.621307 165.501134 
L 85.252736 161.890388 
L 88.515596 169.111881 
L 90.147026 165.501134 
L 93.409886 172.722627 
L 95.041316 169.111881 
L 96.672746 172.722627 
L 103.198465 158.279642 
L 106.461325 165.501134 
L 108.092755 161.890388 
L 112.987044 172.722627 
L 114.618474 169.111881 
L 119.512764 179.944119 
L 122.775624 172.722627 
L 124.407053 176.333373 
L 126.038483 172.722627 
L 127.669913 176.333373 
L 132.564203 165.501134 
L 134.195633 169.111881 
L 137.458492 161.890388 
L 140.721352 169.111881 
L 142.352782 165.501134 
L 143.984212 169.111881 
L 148.878502 158.279642 
L 155.404221 172.722627 
L 157.035651 169.111881 
L 158.667081 172.722627 
L 160.298511 169.111881 
L 168.45566 187.165612 
L 170.08709 183.554866 
L 174.98138 194.387104 
L 178.244239 187.165612 
L 186.401389 205.219343 
L 189.664249 197.997851 
L 194.558538 208.83009 
L 201.084258 194.387104 
L 202.715688 197.997851 
L 204.347117 194.387104 
L 205.978547 197.997851 
L 209.241407 190.776358 
L 210.872837 194.387104 
L 212.504267 190.776358 
L 214.135697 194.387104 
L 215.767127 190.776358 
L 219.029986 197.997851 
L 220.661416 194.387104 
L 222.292846 197.997851 
L 225.555706 190.776358 
L 227.187136 194.387104 
L 228.818566 190.776358 
L 232.081425 197.997851 
L 236.975715 187.165612 
L 241.870005 197.997851 
L 246.764294 187.165612 
L 250.027154 194.387104 
L 254.921444 183.554866 
L 256.552873 187.165612 
L 258.184303 183.554866 
L 259.815733 187.165612 
L 269.604312 165.501134 
L 271.235742 169.111881 
L 272.867172 165.501134 
L 277.761462 176.333373 
L 279.392892 172.722627 
L 281.024322 176.333373 
L 284.287181 169.111881 
L 285.918611 172.722627 
L 287.550041 169.111881 
L 292.444331 179.944119 
L 295.70719 172.722627 
L 298.97005 179.944119 
L 310.390059 154.668896 
L 312.021489 158.279642 
L 313.652919 154.668896 
L 318.547209 165.501134 
L 320.178639 161.890388 
L 321.810069 165.501134 
L 323.441498 161.890388 
L 325.072928 165.501134 
L 331.598648 151.058149 
L 333.230078 154.668896 
L 334.861508 151.058149 
L 336.492937 154.668896 
L 338.124367 151.058149 
L 339.755797 154.668896 
L 341.387227 151.058149 
L 343.018657 154.668896 
L 346.281517 147.447403 
L 347.912947 151.058149 
L 354.438666 136.615164 
L 359.332956 147.447403 
L 360.964386 143.836657 
L 362.595815 147.447403 
L 365.858675 140.22591 
L 369.121535 147.447403 
L 372.384395 140.22591 
L 377.278684 151.058149 
L 378.910114 147.447403 
L 380.541544 151.058149 
L 382.172974 147.447403 
L 383.804404 151.058149 
L 385.435834 147.447403 
L 390.330123 158.279642 
L 393.592983 151.058149 
L 398.487273 161.890388 
L 398.487273 161.890388 
" style="fill:none;stroke:#7f7f7f;stroke-linecap:square;stroke-width:1.5;"/>
   </g>
   <g id="line2d_25">
    <path clip-path="url(#p66edb18978)" d="M 73.832727 151.058149 
L 77.095587 158.279642 
L 81.989877 147.447403 
L 90.147026 165.501134 
L 91.778456 161.890388 
L 95.041316 169.111881 
L 98.304175 161.890388 
L 99.935605 165.501134 
L 104.829895 154.668896 
L 108.092755 161.890388 
L 109.724185 158.279642 
L 117.881334 176.333373 
L 121.144194 169.111881 
L 122.775624 172.722627 
L 124.407053 169.111881 
L 126.038483 172.722627 
L 127.669913 169.111881 
L 130.932773 176.333373 
L 132.564203 172.722627 
L 137.458492 183.554866 
L 142.352782 172.722627 
L 143.984212 176.333373 
L 145.615642 172.722627 
L 147.247072 176.333373 
L 150.509931 169.111881 
L 155.404221 179.944119 
L 157.035651 176.333373 
L 165.1928 194.387104 
L 166.82423 190.776358 
L 168.45566 194.387104 
L 170.08709 190.776358 
L 171.71852 194.387104 
L 173.34995 190.776358 
L 176.61281 197.997851 
L 178.244239 194.387104 
L 188.032819 216.051582 
L 194.558538 201.608597 
L 196.189968 205.219343 
L 204.347117 187.165612 
L 205.978547 190.776358 
L 207.609977 187.165612 
L 212.504267 197.997851 
L 217.398556 187.165612 
L 219.029986 190.776358 
L 220.661416 187.165612 
L 223.924276 194.387104 
L 225.555706 190.776358 
L 227.187136 194.387104 
L 230.449995 187.165612 
L 232.081425 190.776358 
L 233.712855 187.165612 
L 235.344285 190.776358 
L 236.975715 187.165612 
L 241.870005 197.997851 
L 245.132864 190.776358 
L 248.395724 197.997851 
L 251.658584 190.776358 
L 253.290014 194.387104 
L 258.184303 183.554866 
L 259.815733 187.165612 
L 261.447163 183.554866 
L 266.341453 194.387104 
L 267.972883 190.776358 
L 271.235742 197.997851 
L 276.130032 187.165612 
L 279.392892 194.387104 
L 282.655751 187.165612 
L 284.287181 190.776358 
L 289.181471 179.944119 
L 290.812901 183.554866 
L 292.444331 179.944119 
L 298.97005 194.387104 
L 302.23291 187.165612 
L 303.86434 190.776358 
L 305.49577 187.165612 
L 307.1272 190.776358 
L 308.75863 187.165612 
L 315.284349 201.608597 
L 318.547209 194.387104 
L 320.178639 197.997851 
L 323.441498 190.776358 
L 325.072928 194.387104 
L 326.704358 190.776358 
L 329.967218 197.997851 
L 331.598648 194.387104 
L 338.124367 208.83009 
L 341.387227 201.608597 
L 344.650087 208.83009 
L 347.912947 201.608597 
L 349.544376 205.219343 
L 351.175806 201.608597 
L 352.807236 205.219343 
L 354.438666 201.608597 
L 356.070096 205.219343 
L 357.701526 201.608597 
L 360.964386 208.83009 
L 362.595815 205.219343 
L 364.227245 208.83009 
L 369.121535 197.997851 
L 370.752965 201.608597 
L 372.384395 197.997851 
L 377.278684 208.83009 
L 380.541544 201.608597 
L 383.804404 208.83009 
L 388.698693 197.997851 
L 391.961553 205.219343 
L 393.592983 201.608597 
L 395.224413 205.219343 
L 396.855843 201.608597 
L 398.487273 205.219343 
L 398.487273 205.219343 
" style="fill:none;stroke:#bcbd22;stroke-linecap:square;stroke-width:1.5;"/>
   </g>
   <g id="line2d_26">
    <path clip-path="url(#p66edb18978)" d="M 73.832727 151.058149 
L 80.358447 165.501134 
L 83.621307 158.279642 
L 88.515596 169.111881 
L 93.409886 158.279642 
L 95.041316 161.890388 
L 99.935605 151.058149 
L 103.198465 158.279642 
L 104.829895 154.668896 
L 109.724185 165.501134 
L 111.355614 161.890388 
L 114.618474 169.111881 
L 116.249904 165.501134 
L 119.512764 172.722627 
L 124.407053 161.890388 
L 129.301343 172.722627 
L 130.932773 169.111881 
L 142.352782 194.387104 
L 145.615642 187.165612 
L 147.247072 190.776358 
L 150.509931 183.554866 
L 152.141361 187.165612 
L 153.772791 183.554866 
L 157.035651 190.776358 
L 158.667081 187.165612 
L 161.929941 194.387104 
L 163.56137 190.776358 
L 165.1928 194.387104 
L 166.82423 190.776358 
L 168.45566 194.387104 
L 171.71852 187.165612 
L 173.34995 190.776358 
L 174.98138 187.165612 
L 176.61281 190.776358 
L 178.244239 187.165612 
L 179.875669 190.776358 
L 181.507099 187.165612 
L 188.032819 201.608597 
L 189.664249 197.997851 
L 192.927108 205.219343 
L 194.558538 201.608597 
L 199.452828 212.440836 
L 205.978547 197.997851 
L 207.609977 201.608597 
L 210.872837 194.387104 
L 212.504267 197.997851 
L 214.135697 194.387104 
L 215.767127 197.997851 
L 230.449995 165.501134 
L 233.712855 172.722627 
L 235.344285 169.111881 
L 238.607145 176.333373 
L 240.238575 172.722627 
L 243.501434 179.944119 
L 245.132864 176.333373 
L 246.764294 179.944119 
L 250.027154 172.722627 
L 251.658584 176.333373 
L 254.921444 169.111881 
L 256.552873 172.722627 
L 261.447163 161.890388 
L 263.078593 165.501134 
L 269.604312 151.058149 
L 272.867172 158.279642 
L 276.130032 151.058149 
L 279.392892 158.279642 
L 281.024322 154.668896 
L 287.550041 169.111881 
L 289.181471 165.501134 
L 290.812901 169.111881 
L 294.075761 161.890388 
L 295.70719 165.501134 
L 310.390059 133.004418 
L 316.915779 147.447403 
L 320.178639 140.22591 
L 328.335788 158.279642 
L 329.967218 154.668896 
L 331.598648 158.279642 
L 333.230078 154.668896 
L 339.755797 169.111881 
L 341.387227 165.501134 
L 344.650087 172.722627 
L 346.281517 169.111881 
L 351.175806 179.944119 
L 352.807236 176.333373 
L 354.438666 179.944119 
L 357.701526 172.722627 
L 364.227245 187.165612 
L 365.858675 183.554866 
L 369.121535 190.776358 
L 372.384395 183.554866 
L 378.910114 197.997851 
L 380.541544 194.387104 
L 388.698693 212.440836 
L 393.592983 201.608597 
L 395.224413 205.219343 
L 396.855843 201.608597 
L 398.487273 205.219343 
L 398.487273 205.219343 
" style="fill:none;stroke:#17becf;stroke-linecap:square;stroke-width:1.5;"/>
   </g>
   <g id="patch_3">
    <path d="M 57.6 307.584 
L 57.6 41.472 
" style="fill:none;stroke:#000000;stroke-linecap:square;stroke-linejoin:miter;stroke-width:0.8;"/>
   </g>
   <g id="patch_4">
    <path d="M 414.72 307.584 
L 414.72 41.472 
" style="fill:none;stroke:#000000;stroke-linecap:square;stroke-linejoin:miter;stroke-width:0.8;"/>
   </g>
   <g id="patch_5">
    <path d="M 57.6 307.584 
L 414.72 307.584 
" style="fill:none;stroke:#000000;stroke-linecap:square;stroke-linejoin:miter;stroke-width:0.8;"/>
   </g>
   <g id="patch_6">
    <path d="M 57.6 41.472 
L 414.72 41.472 
" style="fill:none;stroke:#000000;stroke-linecap:square;stroke-linejoin:miter;stroke-width:0.8;"/>
   </g>
   <g id="text_19">
    <!-- Grafico fondos pares apuesta simple F.I: $150000.0 -->
    <g transform="translate(81.781875 35.472)scale(0.12 -0.12)">
     <defs>
      <path d="M 59.515625 10.40625 
L 59.515625 29.984375 
L 43.40625 29.984375 
L 43.40625 38.09375 
L 69.28125 38.09375 
L 69.28125 6.78125 
Q 63.578125 2.734375 56.6875 0.65625 
Q 49.8125 -1.421875 42 -1.421875 
Q 24.90625 -1.421875 15.25 8.5625 
Q 5.609375 18.5625 5.609375 36.375 
Q 5.609375 54.25 15.25 64.234375 
Q 24.90625 74.21875 42 74.21875 
Q 49.125 74.21875 55.546875 72.453125 
Q 61.96875 70.703125 67.390625 67.28125 
L 67.390625 56.78125 
Q 61.921875 61.421875 55.765625 63.765625 
Q 49.609375 66.109375 42.828125 66.109375 
Q 29.4375 66.109375 22.71875 58.640625 
Q 16.015625 51.171875 16.015625 36.375 
Q 16.015625 21.625 22.71875 14.15625 
Q 29.4375 6.6875 42.828125 6.6875 
Q 48.046875 6.6875 52.140625 7.59375 
Q 56.25 8.5 59.515625 10.40625 
z
" id="DejaVuSans-71"/>
      <path d="M 37.109375 75.984375 
L 37.109375 68.5 
L 28.515625 68.5 
Q 23.6875 68.5 21.796875 66.546875 
Q 19.921875 64.59375 19.921875 59.515625 
L 19.921875 54.6875 
L 34.71875 54.6875 
L 34.71875 47.703125 
L 19.921875 47.703125 
L 19.921875 0 
L 10.890625 0 
L 10.890625 47.703125 
L 2.296875 47.703125 
L 2.296875 54.6875 
L 10.890625 54.6875 
L 10.890625 58.5 
Q 10.890625 67.625 15.140625 71.796875 
Q 19.390625 75.984375 28.609375 75.984375 
z
" id="DejaVuSans-102"/>
      <path d="M 48.78125 52.59375 
L 48.78125 44.1875 
Q 44.96875 46.296875 41.140625 47.34375 
Q 37.3125 48.390625 33.40625 48.390625 
Q 24.65625 48.390625 19.8125 42.84375 
Q 14.984375 37.3125 14.984375 27.296875 
Q 14.984375 17.28125 19.8125 11.734375 
Q 24.65625 6.203125 33.40625 6.203125 
Q 37.3125 6.203125 41.140625 7.25 
Q 44.96875 8.296875 48.78125 10.40625 
L 48.78125 2.09375 
Q 45.015625 0.34375 40.984375 -0.53125 
Q 36.96875 -1.421875 32.421875 -1.421875 
Q 20.0625 -1.421875 12.78125 6.34375 
Q 5.515625 14.109375 5.515625 27.296875 
Q 5.515625 40.671875 12.859375 48.328125 
Q 20.21875 56 33.015625 56 
Q 37.15625 56 41.109375 55.140625 
Q 45.0625 54.296875 48.78125 52.59375 
z
" id="DejaVuSans-99"/>
      <path d="M 44.28125 53.078125 
L 44.28125 44.578125 
Q 40.484375 46.53125 36.375 47.5 
Q 32.28125 48.484375 27.875 48.484375 
Q 21.1875 48.484375 17.84375 46.4375 
Q 14.5 44.390625 14.5 40.28125 
Q 14.5 37.15625 16.890625 35.375 
Q 19.28125 33.59375 26.515625 31.984375 
L 29.59375 31.296875 
Q 39.15625 29.25 43.1875 25.515625 
Q 47.21875 21.78125 47.21875 15.09375 
Q 47.21875 7.46875 41.1875 3.015625 
Q 35.15625 -1.421875 24.609375 -1.421875 
Q 20.21875 -1.421875 15.453125 -0.5625 
Q 10.6875 0.296875 5.421875 2 
L 5.421875 11.28125 
Q 10.40625 8.6875 15.234375 7.390625 
Q 20.0625 6.109375 24.8125 6.109375 
Q 31.15625 6.109375 34.5625 8.28125 
Q 37.984375 10.453125 37.984375 14.40625 
Q 37.984375 18.0625 35.515625 20.015625 
Q 33.0625 21.96875 24.703125 23.78125 
L 21.578125 24.515625 
Q 13.234375 26.265625 9.515625 29.90625 
Q 5.8125 33.546875 5.8125 39.890625 
Q 5.8125 47.609375 11.28125 51.796875 
Q 16.75 56 26.8125 56 
Q 31.78125 56 36.171875 55.265625 
Q 40.578125 54.546875 44.28125 53.078125 
z
" id="DejaVuSans-115"/>
      <path d="M 18.109375 8.203125 
L 18.109375 -20.796875 
L 9.078125 -20.796875 
L 9.078125 54.6875 
L 18.109375 54.6875 
L 18.109375 46.390625 
Q 20.953125 51.265625 25.265625 53.625 
Q 29.59375 56 35.59375 56 
Q 45.5625 56 51.78125 48.09375 
Q 58.015625 40.1875 58.015625 27.296875 
Q 58.015625 14.40625 51.78125 6.484375 
Q 45.5625 -1.421875 35.59375 -1.421875 
Q 29.59375 -1.421875 25.265625 0.953125 
Q 20.953125 3.328125 18.109375 8.203125 
z
M 48.6875 27.296875 
Q 48.6875 37.203125 44.609375 42.84375 
Q 40.53125 48.484375 33.40625 48.484375 
Q 26.265625 48.484375 22.1875 42.84375 
Q 18.109375 37.203125 18.109375 27.296875 
Q 18.109375 17.390625 22.1875 11.75 
Q 26.265625 6.109375 33.40625 6.109375 
Q 40.53125 6.109375 44.609375 11.75 
Q 48.6875 17.390625 48.6875 27.296875 
z
" id="DejaVuSans-112"/>
      <path d="M 9.421875 75.984375 
L 18.40625 75.984375 
L 18.40625 0 
L 9.421875 0 
z
" id="DejaVuSans-108"/>
      <path d="M 10.6875 12.40625 
L 21 12.40625 
L 21 0 
L 10.6875 0 
z
" id="DejaVuSans-46"/>
      <path d="M 9.8125 72.90625 
L 19.671875 72.90625 
L 19.671875 0 
L 9.8125 0 
z
" id="DejaVuSans-73"/>
      <path d="M 11.71875 12.40625 
L 22.015625 12.40625 
L 22.015625 0 
L 11.71875 0 
z
M 11.71875 51.703125 
L 22.015625 51.703125 
L 22.015625 39.3125 
L 11.71875 39.3125 
z
" id="DejaVuSans-58"/>
     </defs>
     <use xlink:href="#DejaVuSans-71"/>
     <use x="77.490234" xlink:href="#DejaVuSans-114"/>
     <use x="118.603516" xlink:href="#DejaVuSans-97"/>
     <use x="179.882812" xlink:href="#DejaVuSans-102"/>
     <use x="215.087891" xlink:href="#DejaVuSans-105"/>
     <use x="242.871094" xlink:href="#DejaVuSans-99"/>
     <use x="297.851562" xlink:href="#DejaVuSans-111"/>
     <use x="359.033203" xlink:href="#DejaVuSans-32"/>
     <use x="390.820312" xlink:href="#DejaVuSans-102"/>
     <use x="426.025391" xlink:href="#DejaVuSans-111"/>
     <use x="487.207031" xlink:href="#DejaVuSans-110"/>
     <use x="550.585938" xlink:href="#DejaVuSans-100"/>
     <use x="614.0625" xlink:href="#DejaVuSans-111"/>
     <use x="675.244141" xlink:href="#DejaVuSans-115"/>
     <use x="727.34375" xlink:href="#DejaVuSans-32"/>
     <use x="759.130859" xlink:href="#DejaVuSans-112"/>
     <use x="822.607422" xlink:href="#DejaVuSans-97"/>
     <use x="883.886719" xlink:href="#DejaVuSans-114"/>
     <use x="922.75" xlink:href="#DejaVuSans-101"/>
     <use x="984.273438" xlink:href="#DejaVuSans-115"/>
     <use x="1036.373047" xlink:href="#DejaVuSans-32"/>
     <use x="1068.160156" xlink:href="#DejaVuSans-97"/>
     <use x="1129.439453" xlink:href="#DejaVuSans-112"/>
     <use x="1192.916016" xlink:href="#DejaVuSans-117"/>
     <use x="1256.294922" xlink:href="#DejaVuSans-101"/>
     <use x="1317.818359" xlink:href="#DejaVuSans-115"/>
     <use x="1369.917969" xlink:href="#DejaVuSans-116"/>
     <use x="1409.126953" xlink:href="#DejaVuSans-97"/>
     <use x="1470.40625" xlink:href="#DejaVuSans-32"/>
     <use x="1502.193359" xlink:href="#DejaVuSans-115"/>
     <use x="1554.292969" xlink:href="#DejaVuSans-105"/>
     <use x="1582.076172" xlink:href="#DejaVuSans-109"/>
     <use x="1679.488281" xlink:href="#DejaVuSans-112"/>
     <use x="1742.964844" xlink:href="#DejaVuSans-108"/>
     <use x="1770.748047" xlink:href="#DejaVuSans-101"/>
     <use x="1832.271484" xlink:href="#DejaVuSans-32"/>
     <use x="1864.058594" xlink:href="#DejaVuSans-70"/>
     <use x="1905.453125" xlink:href="#DejaVuSans-46"/>
     <use x="1937.240234" xlink:href="#DejaVuSans-73"/>
     <use x="1966.732422" xlink:href="#DejaVuSans-58"/>
     <use x="2000.423828" xlink:href="#DejaVuSans-32"/>
     <use x="2032.210938" xlink:href="#DejaVuSans-36"/>
     <use x="2095.833984" xlink:href="#DejaVuSans-49"/>
     <use x="2159.457031" xlink:href="#DejaVuSans-53"/>
     <use x="2223.080078" xlink:href="#DejaVuSans-48"/>
     <use x="2286.703125" xlink:href="#DejaVuSans-48"/>
     <use x="2350.326172" xlink:href="#DejaVuSans-48"/>
     <use x="2413.949219" xlink:href="#DejaVuSans-48"/>
     <use x="2477.572266" xlink:href="#DejaVuSans-46"/>
     <use x="2509.359375" xlink:href="#DejaVuSans-48"/>
    </g>
   </g>
   <g id="legend_1">
    <g id="patch_7">
     <path d="M 324.295 302.584 
L 407.72 302.584 
Q 409.72 302.584 409.72 300.584 
L 409.72 154.80275 
Q 409.72 152.80275 407.72 152.80275 
L 324.295 152.80275 
Q 322.295 152.80275 322.295 154.80275 
L 322.295 300.584 
Q 322.295 302.584 324.295 302.584 
z
" style="fill:#ffffff;opacity:0.8;stroke:#cccccc;stroke-linejoin:miter;"/>
    </g>
    <g id="line2d_27">
     <path d="M 326.295 160.901187 
L 346.295 160.901187 
" style="fill:none;stroke:#1f77b4;stroke-linecap:square;stroke-width:1.5;"/>
    </g>
    <g id="line2d_28"/>
    <g id="text_20">
     <!-- Fondos 1 -->
     <g transform="translate(354.295 164.401187)scale(0.1 -0.1)">
      <use xlink:href="#DejaVuSans-70"/>
      <use x="53.894531" xlink:href="#DejaVuSans-111"/>
      <use x="115.076172" xlink:href="#DejaVuSans-110"/>
      <use x="178.455078" xlink:href="#DejaVuSans-100"/>
      <use x="241.931641" xlink:href="#DejaVuSans-111"/>
      <use x="303.113281" xlink:href="#DejaVuSans-115"/>
      <use x="355.212891" xlink:href="#DejaVuSans-32"/>
      <use x="387" xlink:href="#DejaVuSans-49"/>
     </g>
    </g>
    <g id="line2d_29">
     <path d="M 326.295 175.579313 
L 346.295 175.579313 
" style="fill:none;stroke:#ff7f0e;stroke-linecap:square;stroke-width:1.5;"/>
    </g>
    <g id="line2d_30"/>
    <g id="text_21">
     <!-- Fondos 2 -->
     <g transform="translate(354.295 179.079313)scale(0.1 -0.1)">
      <use xlink:href="#DejaVuSans-70"/>
      <use x="53.894531" xlink:href="#DejaVuSans-111"/>
      <use x="115.076172" xlink:href="#DejaVuSans-110"/>
      <use x="178.455078" xlink:href="#DejaVuSans-100"/>
      <use x="241.931641" xlink:href="#DejaVuSans-111"/>
      <use x="303.113281" xlink:href="#DejaVuSans-115"/>
      <use x="355.212891" xlink:href="#DejaVuSans-32"/>
      <use x="387" xlink:href="#DejaVuSans-50"/>
     </g>
    </g>
    <g id="line2d_31">
     <path d="M 326.295 190.257438 
L 346.295 190.257438 
" style="fill:none;stroke:#2ca02c;stroke-linecap:square;stroke-width:1.5;"/>
    </g>
    <g id="line2d_32"/>
    <g id="text_22">
     <!-- Fondos 3 -->
     <g transform="translate(354.295 193.757438)scale(0.1 -0.1)">
      <defs>
       <path d="M 40.578125 39.3125 
Q 47.65625 37.796875 51.625 33 
Q 55.609375 28.21875 55.609375 21.1875 
Q 55.609375 10.40625 48.1875 4.484375 
Q 40.765625 -1.421875 27.09375 -1.421875 
Q 22.515625 -1.421875 17.65625 -0.515625 
Q 12.796875 0.390625 7.625 2.203125 
L 7.625 11.71875 
Q 11.71875 9.328125 16.59375 8.109375 
Q 21.484375 6.890625 26.8125 6.890625 
Q 36.078125 6.890625 40.9375 10.546875 
Q 45.796875 14.203125 45.796875 21.1875 
Q 45.796875 27.640625 41.28125 31.265625 
Q 36.765625 34.90625 28.71875 34.90625 
L 20.21875 34.90625 
L 20.21875 43.015625 
L 29.109375 43.015625 
Q 36.375 43.015625 40.234375 45.921875 
Q 44.09375 48.828125 44.09375 54.296875 
Q 44.09375 59.90625 40.109375 62.90625 
Q 36.140625 65.921875 28.71875 65.921875 
Q 24.65625 65.921875 20.015625 65.03125 
Q 15.375 64.15625 9.8125 62.3125 
L 9.8125 71.09375 
Q 15.4375 72.65625 20.34375 73.4375 
Q 25.25 74.21875 29.59375 74.21875 
Q 40.828125 74.21875 47.359375 69.109375 
Q 53.90625 64.015625 53.90625 55.328125 
Q 53.90625 49.265625 50.4375 45.09375 
Q 46.96875 40.921875 40.578125 39.3125 
z
" id="DejaVuSans-51"/>
      </defs>
      <use xlink:href="#DejaVuSans-70"/>
      <use x="53.894531" xlink:href="#DejaVuSans-111"/>
      <use x="115.076172" xlink:href="#DejaVuSans-110"/>
      <use x="178.455078" xlink:href="#DejaVuSans-100"/>
      <use x="241.931641" xlink:href="#DejaVuSans-111"/>
      <use x="303.113281" xlink:href="#DejaVuSans-115"/>
      <use x="355.212891" xlink:href="#DejaVuSans-32"/>
      <use x="387" xlink:href="#DejaVuSans-51"/>
     </g>
    </g>
    <g id="line2d_33">
     <path d="M 326.295 204.935563 
L 346.295 204.935563 
" style="fill:none;stroke:#d62728;stroke-linecap:square;stroke-width:1.5;"/>
    </g>
    <g id="line2d_34"/>
    <g id="text_23">
     <!-- Fondos 4 -->
     <g transform="translate(354.295 208.435563)scale(0.1 -0.1)">
      <use xlink:href="#DejaVuSans-70"/>
      <use x="53.894531" xlink:href="#DejaVuSans-111"/>
      <use x="115.076172" xlink:href="#DejaVuSans-110"/>
      <use x="178.455078" xlink:href="#DejaVuSans-100"/>
      <use x="241.931641" xlink:href="#DejaVuSans-111"/>
      <use x="303.113281" xlink:href="#DejaVuSans-115"/>
      <use x="355.212891" xlink:href="#DejaVuSans-32"/>
      <use x="387" xlink:href="#DejaVuSans-52"/>
     </g>
    </g>
    <g id="line2d_35">
     <path d="M 326.295 219.613688 
L 346.295 219.613688 
" style="fill:none;stroke:#9467bd;stroke-linecap:square;stroke-width:1.5;"/>
    </g>
    <g id="line2d_36"/>
    <g id="text_24">
     <!-- Fondos 5 -->
     <g transform="translate(354.295 223.113688)scale(0.1 -0.1)">
      <use xlink:href="#DejaVuSans-70"/>
      <use x="53.894531" xlink:href="#DejaVuSans-111"/>
      <use x="115.076172" xlink:href="#DejaVuSans-110"/>
      <use x="178.455078" xlink:href="#DejaVuSans-100"/>
      <use x="241.931641" xlink:href="#DejaVuSans-111"/>
      <use x="303.113281" xlink:href="#DejaVuSans-115"/>
      <use x="355.212891" xlink:href="#DejaVuSans-32"/>
      <use x="387" xlink:href="#DejaVuSans-53"/>
     </g>
    </g>
    <g id="line2d_37">
     <path d="M 326.295 234.291812 
L 346.295 234.291812 
" style="fill:none;stroke:#8c564b;stroke-linecap:square;stroke-width:1.5;"/>
    </g>
    <g id="line2d_38"/>
    <g id="text_25">
     <!-- Fondos 6 -->
     <g transform="translate(354.295 237.791812)scale(0.1 -0.1)">
      <use xlink:href="#DejaVuSans-70"/>
      <use x="53.894531" xlink:href="#DejaVuSans-111"/>
      <use x="115.076172" xlink:href="#DejaVuSans-110"/>
      <use x="178.455078" xlink:href="#DejaVuSans-100"/>
      <use x="241.931641" xlink:href="#DejaVuSans-111"/>
      <use x="303.113281" xlink:href="#DejaVuSans-115"/>
      <use x="355.212891" xlink:href="#DejaVuSans-32"/>
      <use x="387" xlink:href="#DejaVuSans-54"/>
     </g>
    </g>
    <g id="line2d_39">
     <path d="M 326.295 248.969938 
L 346.295 248.969938 
" style="fill:none;stroke:#e377c2;stroke-linecap:square;stroke-width:1.5;"/>
    </g>
    <g id="line2d_40"/>
    <g id="text_26">
     <!-- Fondos 7 -->
     <g transform="translate(354.295 252.469938)scale(0.1 -0.1)">
      <use xlink:href="#DejaVuSans-70"/>
      <use x="53.894531" xlink:href="#DejaVuSans-111"/>
      <use x="115.076172" xlink:href="#DejaVuSans-110"/>
      <use x="178.455078" xlink:href="#DejaVuSans-100"/>
      <use x="241.931641" xlink:href="#DejaVuSans-111"/>
      <use x="303.113281" xlink:href="#DejaVuSans-115"/>
      <use x="355.212891" xlink:href="#DejaVuSans-32"/>
      <use x="387" xlink:href="#DejaVuSans-55"/>
     </g>
    </g>
    <g id="line2d_41">
     <path d="M 326.295 263.648062 
L 346.295 263.648062 
" style="fill:none;stroke:#7f7f7f;stroke-linecap:square;stroke-width:1.5;"/>
    </g>
    <g id="line2d_42"/>
    <g id="text_27">
     <!-- Fondos 8 -->
     <g transform="translate(354.295 267.148062)scale(0.1 -0.1)">
      <use xlink:href="#DejaVuSans-70"/>
      <use x="53.894531" xlink:href="#DejaVuSans-111"/>
      <use x="115.076172" xlink:href="#DejaVuSans-110"/>
      <use x="178.455078" xlink:href="#DejaVuSans-100"/>
      <use x="241.931641" xlink:href="#DejaVuSans-111"/>
      <use x="303.113281" xlink:href="#DejaVuSans-115"/>
      <use x="355.212891" xlink:href="#DejaVuSans-32"/>
      <use x="387" xlink:href="#DejaVuSans-56"/>
     </g>
    </g>
    <g id="line2d_43">
     <path d="M 326.295 278.326188 
L 346.295 278.326188 
" style="fill:none;stroke:#bcbd22;stroke-linecap:square;stroke-width:1.5;"/>
    </g>
    <g id="line2d_44"/>
    <g id="text_28">
     <!-- Fondos 9 -->
     <g transform="translate(354.295 281.826188)scale(0.1 -0.1)">
      <use xlink:href="#DejaVuSans-70"/>
      <use x="53.894531" xlink:href="#DejaVuSans-111"/>
      <use x="115.076172" xlink:href="#DejaVuSans-110"/>
      <use x="178.455078" xlink:href="#DejaVuSans-100"/>
      <use x="241.931641" xlink:href="#DejaVuSans-111"/>
      <use x="303.113281" xlink:href="#DejaVuSans-115"/>
      <use x="355.212891" xlink:href="#DejaVuSans-32"/>
      <use x="387" xlink:href="#DejaVuSans-57"/>
     </g>
    </g>
    <g id="line2d_45">
     <path d="M 326.295 293.004312 
L 346.295 293.004312 
" style="fill:none;stroke:#17becf;stroke-linecap:square;stroke-width:1.5;"/>
    </g>
    <g id="line2d_46"/>
    <g id="text_29">
     <!-- Fondos 10 -->
     <g transform="translate(354.295 296.504312)scale(0.1 -0.1)">
      <use xlink:href="#DejaVuSans-70"/>
      <use x="53.894531" xlink:href="#DejaVuSans-111"/>
      <use x="115.076172" xlink:href="#DejaVuSans-110"/>
      <use x="178.455078" xlink:href="#DejaVuSans-100"/>
      <use x="241.931641" xlink:href="#DejaVuSans-111"/>
      <use x="303.113281" xlink:href="#DejaVuSans-115"/>
      <use x="355.212891" xlink:href="#DejaVuSans-32"/>
      <use x="387" xlink:href="#DejaVuSans-49"/>
      <use x="450.623047" xlink:href="#DejaVuSans-48"/>
     </g>
    </g>
   </g>
  </g>
 </g>
 <defs>
  <clipPath id="p66edb18978">
   <rect height="266.112" width="357.12" x="57.6" y="41.472"/>
  </clipPath>
 </defs>
</svg>
