<?xml version="1.0" encoding="utf-8" standalone="no"?>
<!DOCTYPE svg PUBLIC "-//W3C//DTD SVG 1.1//EN"
  "http://www.w3.org/Graphics/SVG/1.1/DTD/svg11.dtd">
<!-- Created with matplotlib (https://matplotlib.org/) -->
<svg height="345.6pt" version="1.1" viewBox="0 0 460.8 345.6" width="460.8pt" xmlns="http://www.w3.org/2000/svg" xmlns:xlink="http://www.w3.org/1999/xlink">
 <metadata>
  <rdf:RDF xmlns:cc="http://creativecommons.org/ns#" xmlns:dc="http://purl.org/dc/elements/1.1/" xmlns:rdf="http://www.w3.org/1999/02/22-rdf-syntax-ns#">
   <cc:Work>
    <dc:type rdf:resource="http://purl.org/dc/dcmitype/StillImage"/>
    <dc:date>2021-04-07T21:24:33.911961</dc:date>
    <dc:format>image/svg+xml</dc:format>
    <dc:creator>
     <cc:Agent>
      <dc:title>Matplotlib v3.3.4, https://matplotlib.org/</dc:title>
     </cc:Agent>
    </dc:creator>
   </cc:Work>
  </rdf:RDF>
 </metadata>
 <defs>
  <style type="text/css">*{stroke-linecap:butt;stroke-linejoin:round;}</style>
 </defs>
 <g id="figure_1">
  <g id="patch_1">
   <path d="M 0 345.6 
L 460.8 345.6 
L 460.8 0 
L 0 0 
z
" style="fill:#ffffff;"/>
  </g>
  <g id="axes_1">
   <g id="patch_2">
    <path d="M 57.6 307.584 
L 414.72 307.584 
L 414.72 41.472 
L 57.6 41.472 
z
" style="fill:#ffffff;"/>
   </g>
   <g id="matplotlib.axis_1">
    <g id="xtick_1">
     <g id="line2d_1">
      <defs>
       <path d="M 0 0 
L 0 3.5 
" id="mbd3deb03ce" style="stroke:#000000;stroke-width:0.8;"/>
      </defs>
      <g>
       <use style="stroke:#000000;stroke-width:0.8;" x="72.201297" xlink:href="#mbd3deb03ce" y="307.584"/>
      </g>
     </g>
     <g id="text_1">
      <!-- 0 -->
      <g transform="translate(69.020047 322.182437)scale(0.1 -0.1)">
       <defs>
        <path d="M 31.78125 66.40625 
Q 24.171875 66.40625 20.328125 58.90625 
Q 16.5 51.421875 16.5 36.375 
Q 16.5 21.390625 20.328125 13.890625 
Q 24.171875 6.390625 31.78125 6.390625 
Q 39.453125 6.390625 43.28125 13.890625 
Q 47.125 21.390625 47.125 36.375 
Q 47.125 51.421875 43.28125 58.90625 
Q 39.453125 66.40625 31.78125 66.40625 
z
M 31.78125 74.21875 
Q 44.046875 74.21875 50.515625 64.515625 
Q 56.984375 54.828125 56.984375 36.375 
Q 56.984375 17.96875 50.515625 8.265625 
Q 44.046875 -1.421875 31.78125 -1.421875 
Q 19.53125 -1.421875 13.0625 8.265625 
Q 6.59375 17.96875 6.59375 36.375 
Q 6.59375 54.828125 13.0625 64.515625 
Q 19.53125 74.21875 31.78125 74.21875 
z
" id="DejaVuSans-48"/>
       </defs>
       <use xlink:href="#DejaVuSans-48"/>
      </g>
     </g>
    </g>
    <g id="xtick_2">
     <g id="line2d_2">
      <g>
       <use style="stroke:#000000;stroke-width:0.8;" x="112.987044" xlink:href="#mbd3deb03ce" y="307.584"/>
      </g>
     </g>
     <g id="text_2">
      <!-- 25 -->
      <g transform="translate(106.624544 322.182437)scale(0.1 -0.1)">
       <defs>
        <path d="M 19.1875 8.296875 
L 53.609375 8.296875 
L 53.609375 0 
L 7.328125 0 
L 7.328125 8.296875 
Q 12.9375 14.109375 22.625 23.890625 
Q 32.328125 33.6875 34.8125 36.53125 
Q 39.546875 41.84375 41.421875 45.53125 
Q 43.3125 49.21875 43.3125 52.78125 
Q 43.3125 58.59375 39.234375 62.25 
Q 35.15625 65.921875 28.609375 65.921875 
Q 23.96875 65.921875 18.8125 64.3125 
Q 13.671875 62.703125 7.8125 59.421875 
L 7.8125 69.390625 
Q 13.765625 71.78125 18.9375 73 
Q 24.125 74.21875 28.421875 74.21875 
Q 39.75 74.21875 46.484375 68.546875 
Q 53.21875 62.890625 53.21875 53.421875 
Q 53.21875 48.921875 51.53125 44.890625 
Q 49.859375 40.875 45.40625 35.40625 
Q 44.1875 33.984375 37.640625 27.21875 
Q 31.109375 20.453125 19.1875 8.296875 
z
" id="DejaVuSans-50"/>
        <path d="M 10.796875 72.90625 
L 49.515625 72.90625 
L 49.515625 64.59375 
L 19.828125 64.59375 
L 19.828125 46.734375 
Q 21.96875 47.46875 24.109375 47.828125 
Q 26.265625 48.1875 28.421875 48.1875 
Q 40.625 48.1875 47.75 41.5 
Q 54.890625 34.8125 54.890625 23.390625 
Q 54.890625 11.625 47.5625 5.09375 
Q 40.234375 -1.421875 26.90625 -1.421875 
Q 22.3125 -1.421875 17.546875 -0.640625 
Q 12.796875 0.140625 7.71875 1.703125 
L 7.71875 11.625 
Q 12.109375 9.234375 16.796875 8.0625 
Q 21.484375 6.890625 26.703125 6.890625 
Q 35.15625 6.890625 40.078125 11.328125 
Q 45.015625 15.765625 45.015625 23.390625 
Q 45.015625 31 40.078125 35.4375 
Q 35.15625 39.890625 26.703125 39.890625 
Q 22.75 39.890625 18.8125 39.015625 
Q 14.890625 38.140625 10.796875 36.28125 
z
" id="DejaVuSans-53"/>
       </defs>
       <use xlink:href="#DejaVuSans-50"/>
       <use x="63.623047" xlink:href="#DejaVuSans-53"/>
      </g>
     </g>
    </g>
    <g id="xtick_3">
     <g id="line2d_3">
      <g>
       <use style="stroke:#000000;stroke-width:0.8;" x="153.772791" xlink:href="#mbd3deb03ce" y="307.584"/>
      </g>
     </g>
     <g id="text_3">
      <!-- 50 -->
      <g transform="translate(147.410291 322.182437)scale(0.1 -0.1)">
       <use xlink:href="#DejaVuSans-53"/>
       <use x="63.623047" xlink:href="#DejaVuSans-48"/>
      </g>
     </g>
    </g>
    <g id="xtick_4">
     <g id="line2d_4">
      <g>
       <use style="stroke:#000000;stroke-width:0.8;" x="194.558538" xlink:href="#mbd3deb03ce" y="307.584"/>
      </g>
     </g>
     <g id="text_4">
      <!-- 75 -->
      <g transform="translate(188.196038 322.182437)scale(0.1 -0.1)">
       <defs>
        <path d="M 8.203125 72.90625 
L 55.078125 72.90625 
L 55.078125 68.703125 
L 28.609375 0 
L 18.3125 0 
L 43.21875 64.59375 
L 8.203125 64.59375 
z
" id="DejaVuSans-55"/>
       </defs>
       <use xlink:href="#DejaVuSans-55"/>
       <use x="63.623047" xlink:href="#DejaVuSans-53"/>
      </g>
     </g>
    </g>
    <g id="xtick_5">
     <g id="line2d_5">
      <g>
       <use style="stroke:#000000;stroke-width:0.8;" x="235.344285" xlink:href="#mbd3deb03ce" y="307.584"/>
      </g>
     </g>
     <g id="text_5">
      <!-- 100 -->
      <g transform="translate(225.800535 322.182437)scale(0.1 -0.1)">
       <defs>
        <path d="M 12.40625 8.296875 
L 28.515625 8.296875 
L 28.515625 63.921875 
L 10.984375 60.40625 
L 10.984375 69.390625 
L 28.421875 72.90625 
L 38.28125 72.90625 
L 38.28125 8.296875 
L 54.390625 8.296875 
L 54.390625 0 
L 12.40625 0 
z
" id="DejaVuSans-49"/>
       </defs>
       <use xlink:href="#DejaVuSans-49"/>
       <use x="63.623047" xlink:href="#DejaVuSans-48"/>
       <use x="127.246094" xlink:href="#DejaVuSans-48"/>
      </g>
     </g>
    </g>
    <g id="xtick_6">
     <g id="line2d_6">
      <g>
       <use style="stroke:#000000;stroke-width:0.8;" x="276.130032" xlink:href="#mbd3deb03ce" y="307.584"/>
      </g>
     </g>
     <g id="text_6">
      <!-- 125 -->
      <g transform="translate(266.586282 322.182437)scale(0.1 -0.1)">
       <use xlink:href="#DejaVuSans-49"/>
       <use x="63.623047" xlink:href="#DejaVuSans-50"/>
       <use x="127.246094" xlink:href="#DejaVuSans-53"/>
      </g>
     </g>
    </g>
    <g id="xtick_7">
     <g id="line2d_7">
      <g>
       <use style="stroke:#000000;stroke-width:0.8;" x="316.915779" xlink:href="#mbd3deb03ce" y="307.584"/>
      </g>
     </g>
     <g id="text_7">
      <!-- 150 -->
      <g transform="translate(307.372029 322.182437)scale(0.1 -0.1)">
       <use xlink:href="#DejaVuSans-49"/>
       <use x="63.623047" xlink:href="#DejaVuSans-53"/>
       <use x="127.246094" xlink:href="#DejaVuSans-48"/>
      </g>
     </g>
    </g>
    <g id="xtick_8">
     <g id="line2d_8">
      <g>
       <use style="stroke:#000000;stroke-width:0.8;" x="357.701526" xlink:href="#mbd3deb03ce" y="307.584"/>
      </g>
     </g>
     <g id="text_8">
      <!-- 175 -->
      <g transform="translate(348.157776 322.182437)scale(0.1 -0.1)">
       <use xlink:href="#DejaVuSans-49"/>
       <use x="63.623047" xlink:href="#DejaVuSans-55"/>
       <use x="127.246094" xlink:href="#DejaVuSans-53"/>
      </g>
     </g>
    </g>
    <g id="xtick_9">
     <g id="line2d_9">
      <g>
       <use style="stroke:#000000;stroke-width:0.8;" x="398.487273" xlink:href="#mbd3deb03ce" y="307.584"/>
      </g>
     </g>
     <g id="text_9">
      <!-- 200 -->
      <g transform="translate(388.943523 322.182437)scale(0.1 -0.1)">
       <use xlink:href="#DejaVuSans-50"/>
       <use x="63.623047" xlink:href="#DejaVuSans-48"/>
       <use x="127.246094" xlink:href="#DejaVuSans-48"/>
      </g>
     </g>
    </g>
    <g id="text_10">
     <!-- Numero de tirada -->
     <g transform="translate(192.165469 335.860562)scale(0.1 -0.1)">
      <defs>
       <path d="M 9.8125 72.90625 
L 23.09375 72.90625 
L 55.421875 11.921875 
L 55.421875 72.90625 
L 64.984375 72.90625 
L 64.984375 0 
L 51.703125 0 
L 19.390625 60.984375 
L 19.390625 0 
L 9.8125 0 
z
" id="DejaVuSans-78"/>
       <path d="M 8.5 21.578125 
L 8.5 54.6875 
L 17.484375 54.6875 
L 17.484375 21.921875 
Q 17.484375 14.15625 20.5 10.265625 
Q 23.53125 6.390625 29.59375 6.390625 
Q 36.859375 6.390625 41.078125 11.03125 
Q 45.3125 15.671875 45.3125 23.6875 
L 45.3125 54.6875 
L 54.296875 54.6875 
L 54.296875 0 
L 45.3125 0 
L 45.3125 8.40625 
Q 42.046875 3.421875 37.71875 1 
Q 33.40625 -1.421875 27.6875 -1.421875 
Q 18.265625 -1.421875 13.375 4.4375 
Q 8.5 10.296875 8.5 21.578125 
z
M 31.109375 56 
z
" id="DejaVuSans-117"/>
       <path d="M 52 44.1875 
Q 55.375 50.25 60.0625 53.125 
Q 64.75 56 71.09375 56 
Q 79.640625 56 84.28125 50.015625 
Q 88.921875 44.046875 88.921875 33.015625 
L 88.921875 0 
L 79.890625 0 
L 79.890625 32.71875 
Q 79.890625 40.578125 77.09375 44.375 
Q 74.3125 48.1875 68.609375 48.1875 
Q 61.625 48.1875 57.5625 43.546875 
Q 53.515625 38.921875 53.515625 30.90625 
L 53.515625 0 
L 44.484375 0 
L 44.484375 32.71875 
Q 44.484375 40.625 41.703125 44.40625 
Q 38.921875 48.1875 33.109375 48.1875 
Q 26.21875 48.1875 22.15625 43.53125 
Q 18.109375 38.875 18.109375 30.90625 
L 18.109375 0 
L 9.078125 0 
L 9.078125 54.6875 
L 18.109375 54.6875 
L 18.109375 46.1875 
Q 21.1875 51.21875 25.484375 53.609375 
Q 29.78125 56 35.6875 56 
Q 41.65625 56 45.828125 52.96875 
Q 50 49.953125 52 44.1875 
z
" id="DejaVuSans-109"/>
       <path d="M 56.203125 29.59375 
L 56.203125 25.203125 
L 14.890625 25.203125 
Q 15.484375 15.921875 20.484375 11.0625 
Q 25.484375 6.203125 34.421875 6.203125 
Q 39.59375 6.203125 44.453125 7.46875 
Q 49.3125 8.734375 54.109375 11.28125 
L 54.109375 2.78125 
Q 49.265625 0.734375 44.1875 -0.34375 
Q 39.109375 -1.421875 33.890625 -1.421875 
Q 20.796875 -1.421875 13.15625 6.1875 
Q 5.515625 13.8125 5.515625 26.8125 
Q 5.515625 40.234375 12.765625 48.109375 
Q 20.015625 56 32.328125 56 
Q 43.359375 56 49.78125 48.890625 
Q 56.203125 41.796875 56.203125 29.59375 
z
M 47.21875 32.234375 
Q 47.125 39.59375 43.09375 43.984375 
Q 39.0625 48.390625 32.421875 48.390625 
Q 24.90625 48.390625 20.390625 44.140625 
Q 15.875 39.890625 15.1875 32.171875 
z
" id="DejaVuSans-101"/>
       <path d="M 41.109375 46.296875 
Q 39.59375 47.171875 37.8125 47.578125 
Q 36.03125 48 33.890625 48 
Q 26.265625 48 22.1875 43.046875 
Q 18.109375 38.09375 18.109375 28.8125 
L 18.109375 0 
L 9.078125 0 
L 9.078125 54.6875 
L 18.109375 54.6875 
L 18.109375 46.1875 
Q 20.953125 51.171875 25.484375 53.578125 
Q 30.03125 56 36.53125 56 
Q 37.453125 56 38.578125 55.875 
Q 39.703125 55.765625 41.0625 55.515625 
z
" id="DejaVuSans-114"/>
       <path d="M 30.609375 48.390625 
Q 23.390625 48.390625 19.1875 42.75 
Q 14.984375 37.109375 14.984375 27.296875 
Q 14.984375 17.484375 19.15625 11.84375 
Q 23.34375 6.203125 30.609375 6.203125 
Q 37.796875 6.203125 41.984375 11.859375 
Q 46.1875 17.53125 46.1875 27.296875 
Q 46.1875 37.015625 41.984375 42.703125 
Q 37.796875 48.390625 30.609375 48.390625 
z
M 30.609375 56 
Q 42.328125 56 49.015625 48.375 
Q 55.71875 40.765625 55.71875 27.296875 
Q 55.71875 13.875 49.015625 6.21875 
Q 42.328125 -1.421875 30.609375 -1.421875 
Q 18.84375 -1.421875 12.171875 6.21875 
Q 5.515625 13.875 5.515625 27.296875 
Q 5.515625 40.765625 12.171875 48.375 
Q 18.84375 56 30.609375 56 
z
" id="DejaVuSans-111"/>
       <path id="DejaVuSans-32"/>
       <path d="M 45.40625 46.390625 
L 45.40625 75.984375 
L 54.390625 75.984375 
L 54.390625 0 
L 45.40625 0 
L 45.40625 8.203125 
Q 42.578125 3.328125 38.25 0.953125 
Q 33.9375 -1.421875 27.875 -1.421875 
Q 17.96875 -1.421875 11.734375 6.484375 
Q 5.515625 14.40625 5.515625 27.296875 
Q 5.515625 40.1875 11.734375 48.09375 
Q 17.96875 56 27.875 56 
Q 33.9375 56 38.25 53.625 
Q 42.578125 51.265625 45.40625 46.390625 
z
M 14.796875 27.296875 
Q 14.796875 17.390625 18.875 11.75 
Q 22.953125 6.109375 30.078125 6.109375 
Q 37.203125 6.109375 41.296875 11.75 
Q 45.40625 17.390625 45.40625 27.296875 
Q 45.40625 37.203125 41.296875 42.84375 
Q 37.203125 48.484375 30.078125 48.484375 
Q 22.953125 48.484375 18.875 42.84375 
Q 14.796875 37.203125 14.796875 27.296875 
z
" id="DejaVuSans-100"/>
       <path d="M 18.3125 70.21875 
L 18.3125 54.6875 
L 36.8125 54.6875 
L 36.8125 47.703125 
L 18.3125 47.703125 
L 18.3125 18.015625 
Q 18.3125 11.328125 20.140625 9.421875 
Q 21.96875 7.515625 27.59375 7.515625 
L 36.8125 7.515625 
L 36.8125 0 
L 27.59375 0 
Q 17.1875 0 13.234375 3.875 
Q 9.28125 7.765625 9.28125 18.015625 
L 9.28125 47.703125 
L 2.6875 47.703125 
L 2.6875 54.6875 
L 9.28125 54.6875 
L 9.28125 70.21875 
z
" id="DejaVuSans-116"/>
       <path d="M 9.421875 54.6875 
L 18.40625 54.6875 
L 18.40625 0 
L 9.421875 0 
z
M 9.421875 75.984375 
L 18.40625 75.984375 
L 18.40625 64.59375 
L 9.421875 64.59375 
z
" id="DejaVuSans-105"/>
       <path d="M 34.28125 27.484375 
Q 23.390625 27.484375 19.1875 25 
Q 14.984375 22.515625 14.984375 16.5 
Q 14.984375 11.71875 18.140625 8.90625 
Q 21.296875 6.109375 26.703125 6.109375 
Q 34.1875 6.109375 38.703125 11.40625 
Q 43.21875 16.703125 43.21875 25.484375 
L 43.21875 27.484375 
z
M 52.203125 31.203125 
L 52.203125 0 
L 43.21875 0 
L 43.21875 8.296875 
Q 40.140625 3.328125 35.546875 0.953125 
Q 30.953125 -1.421875 24.3125 -1.421875 
Q 15.921875 -1.421875 10.953125 3.296875 
Q 6 8.015625 6 15.921875 
Q 6 25.140625 12.171875 29.828125 
Q 18.359375 34.515625 30.609375 34.515625 
L 43.21875 34.515625 
L 43.21875 35.40625 
Q 43.21875 41.609375 39.140625 45 
Q 35.0625 48.390625 27.6875 48.390625 
Q 23 48.390625 18.546875 47.265625 
Q 14.109375 46.140625 10.015625 43.890625 
L 10.015625 52.203125 
Q 14.9375 54.109375 19.578125 55.046875 
Q 24.21875 56 28.609375 56 
Q 40.484375 56 46.34375 49.84375 
Q 52.203125 43.703125 52.203125 31.203125 
z
" id="DejaVuSans-97"/>
      </defs>
      <use xlink:href="#DejaVuSans-78"/>
      <use x="74.804688" xlink:href="#DejaVuSans-117"/>
      <use x="138.183594" xlink:href="#DejaVuSans-109"/>
      <use x="235.595703" xlink:href="#DejaVuSans-101"/>
      <use x="297.119141" xlink:href="#DejaVuSans-114"/>
      <use x="335.982422" xlink:href="#DejaVuSans-111"/>
      <use x="397.164062" xlink:href="#DejaVuSans-32"/>
      <use x="428.951172" xlink:href="#DejaVuSans-100"/>
      <use x="492.427734" xlink:href="#DejaVuSans-101"/>
      <use x="553.951172" xlink:href="#DejaVuSans-32"/>
      <use x="585.738281" xlink:href="#DejaVuSans-116"/>
      <use x="624.947266" xlink:href="#DejaVuSans-105"/>
      <use x="652.730469" xlink:href="#DejaVuSans-114"/>
      <use x="693.84375" xlink:href="#DejaVuSans-97"/>
      <use x="755.123047" xlink:href="#DejaVuSans-100"/>
      <use x="818.599609" xlink:href="#DejaVuSans-97"/>
     </g>
    </g>
   </g>
   <g id="matplotlib.axis_2">
    <g id="ytick_1">
     <g id="line2d_10">
      <defs>
       <path d="M 0 0 
L -3.5 0 
" id="m3bb8737bdf" style="stroke:#000000;stroke-width:0.8;"/>
      </defs>
      <g>
       <use style="stroke:#000000;stroke-width:0.8;" x="57.6" xlink:href="#m3bb8737bdf" y="300.628132"/>
      </g>
     </g>
     <g id="text_11">
      <!-- 0 -->
      <g transform="translate(44.2375 304.427351)scale(0.1 -0.1)">
       <use xlink:href="#DejaVuSans-48"/>
      </g>
     </g>
    </g>
    <g id="ytick_2">
     <g id="line2d_11">
      <g>
       <use style="stroke:#000000;stroke-width:0.8;" x="57.6" xlink:href="#m3bb8737bdf" y="267.250649"/>
      </g>
     </g>
     <g id="text_12">
      <!-- 50000 -->
      <g transform="translate(18.7875 271.049868)scale(0.1 -0.1)">
       <use xlink:href="#DejaVuSans-53"/>
       <use x="63.623047" xlink:href="#DejaVuSans-48"/>
       <use x="127.246094" xlink:href="#DejaVuSans-48"/>
       <use x="190.869141" xlink:href="#DejaVuSans-48"/>
       <use x="254.492188" xlink:href="#DejaVuSans-48"/>
      </g>
     </g>
    </g>
    <g id="ytick_3">
     <g id="line2d_12">
      <g>
       <use style="stroke:#000000;stroke-width:0.8;" x="57.6" xlink:href="#m3bb8737bdf" y="233.873166"/>
      </g>
     </g>
     <g id="text_13">
      <!-- 100000 -->
      <g transform="translate(12.425 237.672384)scale(0.1 -0.1)">
       <use xlink:href="#DejaVuSans-49"/>
       <use x="63.623047" xlink:href="#DejaVuSans-48"/>
       <use x="127.246094" xlink:href="#DejaVuSans-48"/>
       <use x="190.869141" xlink:href="#DejaVuSans-48"/>
       <use x="254.492188" xlink:href="#DejaVuSans-48"/>
       <use x="318.115234" xlink:href="#DejaVuSans-48"/>
      </g>
     </g>
    </g>
    <g id="ytick_4">
     <g id="line2d_13">
      <g>
       <use style="stroke:#000000;stroke-width:0.8;" x="57.6" xlink:href="#m3bb8737bdf" y="200.495682"/>
      </g>
     </g>
     <g id="text_14">
      <!-- 150000 -->
      <g transform="translate(12.425 204.294901)scale(0.1 -0.1)">
       <use xlink:href="#DejaVuSans-49"/>
       <use x="63.623047" xlink:href="#DejaVuSans-53"/>
       <use x="127.246094" xlink:href="#DejaVuSans-48"/>
       <use x="190.869141" xlink:href="#DejaVuSans-48"/>
       <use x="254.492188" xlink:href="#DejaVuSans-48"/>
       <use x="318.115234" xlink:href="#DejaVuSans-48"/>
      </g>
     </g>
    </g>
    <g id="ytick_5">
     <g id="line2d_14">
      <g>
       <use style="stroke:#000000;stroke-width:0.8;" x="57.6" xlink:href="#m3bb8737bdf" y="167.118199"/>
      </g>
     </g>
     <g id="text_15">
      <!-- 200000 -->
      <g transform="translate(12.425 170.917417)scale(0.1 -0.1)">
       <use xlink:href="#DejaVuSans-50"/>
       <use x="63.623047" xlink:href="#DejaVuSans-48"/>
       <use x="127.246094" xlink:href="#DejaVuSans-48"/>
       <use x="190.869141" xlink:href="#DejaVuSans-48"/>
       <use x="254.492188" xlink:href="#DejaVuSans-48"/>
       <use x="318.115234" xlink:href="#DejaVuSans-48"/>
      </g>
     </g>
    </g>
    <g id="ytick_6">
     <g id="line2d_15">
      <g>
       <use style="stroke:#000000;stroke-width:0.8;" x="57.6" xlink:href="#m3bb8737bdf" y="133.740715"/>
      </g>
     </g>
     <g id="text_16">
      <!-- 250000 -->
      <g transform="translate(12.425 137.539934)scale(0.1 -0.1)">
       <use xlink:href="#DejaVuSans-50"/>
       <use x="63.623047" xlink:href="#DejaVuSans-53"/>
       <use x="127.246094" xlink:href="#DejaVuSans-48"/>
       <use x="190.869141" xlink:href="#DejaVuSans-48"/>
       <use x="254.492188" xlink:href="#DejaVuSans-48"/>
       <use x="318.115234" xlink:href="#DejaVuSans-48"/>
      </g>
     </g>
    </g>
    <g id="ytick_7">
     <g id="line2d_16">
      <g>
       <use style="stroke:#000000;stroke-width:0.8;" x="57.6" xlink:href="#m3bb8737bdf" y="100.363232"/>
      </g>
     </g>
     <g id="text_17">
      <!-- 300000 -->
      <g transform="translate(12.425 104.162451)scale(0.1 -0.1)">
       <defs>
        <path d="M 40.578125 39.3125 
Q 47.65625 37.796875 51.625 33 
Q 55.609375 28.21875 55.609375 21.1875 
Q 55.609375 10.40625 48.1875 4.484375 
Q 40.765625 -1.421875 27.09375 -1.421875 
Q 22.515625 -1.421875 17.65625 -0.515625 
Q 12.796875 0.390625 7.625 2.203125 
L 7.625 11.71875 
Q 11.71875 9.328125 16.59375 8.109375 
Q 21.484375 6.890625 26.8125 6.890625 
Q 36.078125 6.890625 40.9375 10.546875 
Q 45.796875 14.203125 45.796875 21.1875 
Q 45.796875 27.640625 41.28125 31.265625 
Q 36.765625 34.90625 28.71875 34.90625 
L 20.21875 34.90625 
L 20.21875 43.015625 
L 29.109375 43.015625 
Q 36.375 43.015625 40.234375 45.921875 
Q 44.09375 48.828125 44.09375 54.296875 
Q 44.09375 59.90625 40.109375 62.90625 
Q 36.140625 65.921875 28.71875 65.921875 
Q 24.65625 65.921875 20.015625 65.03125 
Q 15.375 64.15625 9.8125 62.3125 
L 9.8125 71.09375 
Q 15.4375 72.65625 20.34375 73.4375 
Q 25.25 74.21875 29.59375 74.21875 
Q 40.828125 74.21875 47.359375 69.109375 
Q 53.90625 64.015625 53.90625 55.328125 
Q 53.90625 49.265625 50.4375 45.09375 
Q 46.96875 40.921875 40.578125 39.3125 
z
" id="DejaVuSans-51"/>
       </defs>
       <use xlink:href="#DejaVuSans-51"/>
       <use x="63.623047" xlink:href="#DejaVuSans-48"/>
       <use x="127.246094" xlink:href="#DejaVuSans-48"/>
       <use x="190.869141" xlink:href="#DejaVuSans-48"/>
       <use x="254.492188" xlink:href="#DejaVuSans-48"/>
       <use x="318.115234" xlink:href="#DejaVuSans-48"/>
      </g>
     </g>
    </g>
    <g id="ytick_8">
     <g id="line2d_17">
      <g>
       <use style="stroke:#000000;stroke-width:0.8;" x="57.6" xlink:href="#m3bb8737bdf" y="66.985748"/>
      </g>
     </g>
     <g id="text_18">
      <!-- 350000 -->
      <g transform="translate(12.425 70.784967)scale(0.1 -0.1)">
       <use xlink:href="#DejaVuSans-51"/>
       <use x="63.623047" xlink:href="#DejaVuSans-53"/>
       <use x="127.246094" xlink:href="#DejaVuSans-48"/>
       <use x="190.869141" xlink:href="#DejaVuSans-48"/>
       <use x="254.492188" xlink:href="#DejaVuSans-48"/>
       <use x="318.115234" xlink:href="#DejaVuSans-48"/>
      </g>
     </g>
    </g>
    <g id="text_19">
     <!-- Fondo en $ -->
     <g transform="translate(6.345312 202.288938)rotate(-90)scale(0.1 -0.1)">
      <defs>
       <path d="M 9.8125 72.90625 
L 51.703125 72.90625 
L 51.703125 64.59375 
L 19.671875 64.59375 
L 19.671875 43.109375 
L 48.578125 43.109375 
L 48.578125 34.8125 
L 19.671875 34.8125 
L 19.671875 0 
L 9.8125 0 
z
" id="DejaVuSans-70"/>
       <path d="M 54.890625 33.015625 
L 54.890625 0 
L 45.90625 0 
L 45.90625 32.71875 
Q 45.90625 40.484375 42.875 44.328125 
Q 39.84375 48.1875 33.796875 48.1875 
Q 26.515625 48.1875 22.3125 43.546875 
Q 18.109375 38.921875 18.109375 30.90625 
L 18.109375 0 
L 9.078125 0 
L 9.078125 54.6875 
L 18.109375 54.6875 
L 18.109375 46.1875 
Q 21.34375 51.125 25.703125 53.5625 
Q 30.078125 56 35.796875 56 
Q 45.21875 56 50.046875 50.171875 
Q 54.890625 44.34375 54.890625 33.015625 
z
" id="DejaVuSans-110"/>
       <path d="M 33.796875 -14.703125 
L 28.90625 -14.703125 
L 28.859375 0 
Q 23.734375 0.09375 18.609375 1.1875 
Q 13.484375 2.296875 8.296875 4.5 
L 8.296875 13.28125 
Q 13.28125 10.15625 18.375 8.5625 
Q 23.484375 6.984375 28.90625 6.9375 
L 28.90625 29.203125 
Q 18.109375 30.953125 13.203125 35.15625 
Q 8.296875 39.359375 8.296875 46.6875 
Q 8.296875 54.640625 13.625 59.21875 
Q 18.953125 63.8125 28.90625 64.5 
L 28.90625 75.984375 
L 33.796875 75.984375 
L 33.796875 64.65625 
Q 38.328125 64.453125 42.578125 63.6875 
Q 46.828125 62.9375 50.875 61.625 
L 50.875 53.078125 
Q 46.828125 55.125 42.546875 56.25 
Q 38.28125 57.375 33.796875 57.5625 
L 33.796875 36.71875 
Q 44.875 35.015625 50.09375 30.609375 
Q 55.328125 26.21875 55.328125 18.609375 
Q 55.328125 10.359375 49.78125 5.59375 
Q 44.234375 0.828125 33.796875 0.09375 
z
M 28.90625 37.59375 
L 28.90625 57.625 
Q 23.25 56.984375 20.265625 54.390625 
Q 17.28125 51.8125 17.28125 47.515625 
Q 17.28125 43.3125 20.03125 40.96875 
Q 22.796875 38.625 28.90625 37.59375 
z
M 33.796875 28.21875 
L 33.796875 7.078125 
Q 39.984375 7.90625 43.140625 10.59375 
Q 46.296875 13.28125 46.296875 17.671875 
Q 46.296875 21.96875 43.28125 24.5 
Q 40.28125 27.046875 33.796875 28.21875 
z
" id="DejaVuSans-36"/>
      </defs>
      <use xlink:href="#DejaVuSans-70"/>
      <use x="53.894531" xlink:href="#DejaVuSans-111"/>
      <use x="115.076172" xlink:href="#DejaVuSans-110"/>
      <use x="178.455078" xlink:href="#DejaVuSans-100"/>
      <use x="241.931641" xlink:href="#DejaVuSans-111"/>
      <use x="303.113281" xlink:href="#DejaVuSans-32"/>
      <use x="334.900391" xlink:href="#DejaVuSans-101"/>
      <use x="396.423828" xlink:href="#DejaVuSans-110"/>
      <use x="459.802734" xlink:href="#DejaVuSans-32"/>
      <use x="491.589844" xlink:href="#DejaVuSans-36"/>
     </g>
    </g>
   </g>
   <g id="line2d_18">
    <path clip-path="url(#p9cea77d86f)" d="M 73.832727 200.562437 
L 75.464157 200.295417 
L 78.727017 200.495682 
L 80.358447 200.762702 
L 81.989877 201.296742 
L 83.621307 202.364821 
L 85.252736 204.50098 
L 86.884166 208.773298 
L 88.515596 191.684026 
L 91.778456 191.884291 
L 93.409886 192.151311 
L 95.041316 192.685351 
L 96.672746 190.549192 
L 98.304175 190.615947 
L 99.935605 190.348927 
L 103.198465 190.549192 
L 104.829895 190.816212 
L 106.461325 191.350252 
L 108.092755 192.418331 
L 109.724185 188.146013 
L 112.987044 188.346278 
L 114.618474 187.812238 
L 117.881334 188.012503 
L 119.512764 188.279523 
L 121.144194 187.211444 
L 122.775624 187.077934 
L 126.038483 187.278199 
L 127.669913 186.744159 
L 130.932773 186.944424 
L 132.564203 187.211444 
L 134.195633 187.745483 
L 135.827063 188.813563 
L 137.458492 190.949722 
L 139.089922 182.405086 
L 140.721352 182.271576 
L 143.984212 182.471841 
L 145.615642 182.738861 
L 147.247072 181.670781 
L 148.878502 181.537272 
L 152.141361 181.737536 
L 153.772791 182.004556 
L 155.404221 182.538596 
L 157.035651 180.402437 
L 160.298511 180.602702 
L 161.929941 180.869722 
L 163.56137 179.801642 
L 166.82423 180.001907 
L 168.45566 179.467868 
L 170.08709 179.534623 
L 171.71852 179.267603 
L 174.98138 179.467868 
L 176.61281 179.734887 
L 178.244239 178.666808 
L 181.507099 178.867073 
L 183.138529 179.134093 
L 184.769959 179.668132 
L 186.401389 180.736212 
L 188.032819 182.872371 
L 189.664249 174.327735 
L 192.927108 174.528 
L 194.558538 174.79502 
L 196.189968 173.72694 
L 199.452828 173.927205 
L 201.084258 174.194225 
L 202.715688 174.728265 
L 204.347117 172.592106 
L 205.978547 172.658861 
L 207.609977 172.391841 
L 210.872837 172.592106 
L 212.504267 172.058066 
L 214.135697 172.124821 
L 215.767127 171.857801 
L 219.029986 172.058066 
L 220.661416 172.325086 
L 222.292846 172.859126 
L 223.924276 170.722967 
L 227.187136 170.923232 
L 228.818566 171.190252 
L 230.449995 171.724291 
L 232.081425 172.792371 
L 233.712855 174.92853 
L 235.344285 179.200848 
L 236.975715 162.111576 
L 238.607145 161.978066 
L 241.870005 162.178331 
L 243.501434 161.644291 
L 246.764294 161.844556 
L 248.395724 161.310517 
L 250.027154 161.177007 
L 251.658584 161.243762 
L 253.290014 160.976742 
L 256.552873 161.177007 
L 258.184303 161.444026 
L 259.815733 160.375947 
L 261.447163 160.442702 
L 263.078593 160.175682 
L 264.710023 160.042172 
L 267.972883 160.242437 
L 269.604312 160.509457 
L 271.235742 159.441377 
L 274.498602 159.641642 
L 276.130032 159.908662 
L 277.761462 158.840583 
L 281.024322 159.040848 
L 282.655751 159.307868 
L 284.287181 159.841907 
L 285.918611 160.909987 
L 287.550041 163.046146 
L 289.181471 167.318464 
L 290.812901 175.863099 
L 292.444331 192.952371 
L 294.075761 227.130914 
L 295.70719 295.488 
L 398.487273 295.488 
L 398.487273 295.488 
" style="fill:none;stroke:#1f77b4;stroke-linecap:square;stroke-width:1.5;"/>
   </g>
   <g id="line2d_19">
    <path clip-path="url(#p9cea77d86f)" d="M 73.832727 200.562437 
L 75.464157 200.295417 
L 78.727017 200.495682 
L 80.358447 200.762702 
L 81.989877 201.296742 
L 83.621307 199.160583 
L 85.252736 199.227338 
L 86.884166 198.960318 
L 90.147026 199.160583 
L 91.778456 199.427603 
L 93.409886 199.961642 
L 95.041316 201.029722 
L 96.672746 203.165881 
L 98.304175 194.621245 
L 99.935605 194.487735 
L 103.198465 194.688 
L 104.829895 194.95502 
L 106.461325 193.88694 
L 108.092755 193.953695 
L 109.724185 193.686675 
L 111.355614 193.553166 
L 114.618474 193.75343 
L 116.249904 193.219391 
L 119.512764 193.419656 
L 121.144194 193.686675 
L 122.775624 194.220715 
L 124.407053 195.288795 
L 126.038483 197.424954 
L 127.669913 201.697272 
L 129.301343 210.241907 
L 130.932773 227.331179 
L 132.564203 158.974093 
L 134.195633 159.040848 
L 135.827063 158.773828 
L 139.089922 158.974093 
L 140.721352 159.241113 
L 142.352782 158.173033 
L 145.615642 158.373298 
L 147.247072 158.640318 
L 148.878502 157.572238 
L 155.404221 157.038199 
L 157.035651 157.104954 
L 158.667081 156.837934 
L 160.298511 156.704424 
L 163.56137 156.904689 
L 165.1928 156.370649 
L 166.82423 156.237139 
L 170.08709 156.437404 
L 171.71852 155.903364 
L 173.34995 155.769854 
L 176.61281 155.970119 
L 178.244239 155.436079 
L 181.507099 155.636344 
L 183.138529 155.903364 
L 184.769959 156.437404 
L 186.401389 157.505483 
L 188.032819 153.233166 
L 191.295678 153.43343 
L 192.927108 152.899391 
L 196.189968 152.632371 
L 197.821398 152.699126 
L 199.452828 152.432106 
L 202.715688 152.632371 
L 204.347117 152.899391 
L 205.978547 153.43343 
L 207.609977 154.50151 
L 209.241407 150.229192 
L 212.504267 150.429457 
L 214.135697 150.696477 
L 215.767127 151.230517 
L 217.398556 149.094358 
L 219.029986 148.960848 
L 222.292846 149.161113 
L 223.924276 148.627073 
L 225.555706 148.493563 
L 228.818566 148.693828 
L 230.449995 148.159788 
L 233.712855 148.360053 
L 235.344285 148.627073 
L 236.975715 149.161113 
L 238.607145 150.229192 
L 240.238575 152.365351 
L 241.870005 156.637669 
L 243.501434 165.182305 
L 245.132864 182.271576 
L 246.764294 113.91449 
L 248.395724 113.78098 
L 250.027154 113.847735 
L 251.658584 113.580715 
L 253.290014 113.447205 
L 256.552873 113.64747 
L 258.184303 113.11343 
L 263.078593 112.712901 
L 264.710023 112.779656 
L 266.341453 112.512636 
L 269.604312 112.712901 
L 271.235742 112.979921 
L 272.867172 113.51396 
L 274.498602 114.58204 
L 276.130032 116.718199 
L 277.761462 108.173563 
L 281.024322 108.373828 
L 282.655751 108.640848 
L 284.287181 107.572768 
L 285.918611 107.439258 
L 289.181471 107.639523 
L 290.812901 107.105483 
L 294.075761 106.838464 
L 295.70719 106.905219 
L 297.33862 106.638199 
L 298.97005 106.704954 
L 300.60148 106.437934 
L 302.23291 106.504689 
L 303.86434 106.237669 
L 305.49577 106.104159 
L 307.1272 106.170914 
L 308.75863 105.903894 
L 312.021489 106.104159 
L 313.652919 106.371179 
L 315.284349 105.303099 
L 318.547209 105.036079 
L 321.810069 105.236344 
L 323.441498 105.503364 
L 325.072928 104.435285 
L 326.704358 104.301775 
L 329.967218 104.50204 
L 331.598648 104.76906 
L 333.230078 103.70098 
L 336.492937 103.901245 
L 338.124367 103.367205 
L 341.387227 103.56747 
L 343.018657 103.03343 
L 346.281517 103.233695 
L 347.912947 103.500715 
L 349.544376 102.432636 
L 352.807236 102.632901 
L 354.438666 102.899921 
L 356.070096 103.43396 
L 357.701526 104.50204 
L 359.332956 100.229722 
L 362.595815 99.962702 
L 365.858675 100.162967 
L 367.490105 100.429987 
L 369.121535 99.361907 
L 372.384395 99.562172 
L 374.015825 99.829192 
L 375.647254 100.363232 
L 377.278684 101.431311 
L 378.910114 97.158993 
L 382.172974 96.891974 
L 385.435834 97.092238 
L 387.067264 97.359258 
L 388.698693 97.893298 
L 390.330123 98.961377 
L 391.961553 94.68906 
L 395.224413 94.889325 
L 396.855843 94.355285 
L 398.487273 94.221775 
L 398.487273 94.221775 
" style="fill:none;stroke:#ff7f0e;stroke-linecap:square;stroke-width:1.5;"/>
   </g>
   <g id="line2d_20">
    <path clip-path="url(#p9cea77d86f)" d="M 73.832727 200.562437 
L 75.464157 200.295417 
L 78.727017 200.028397 
L 80.358447 200.095152 
L 81.989877 199.828132 
L 85.252736 200.028397 
L 86.884166 200.295417 
L 88.515596 200.829457 
L 90.147026 201.897536 
L 91.778456 204.033695 
L 93.409886 195.48906 
L 95.041316 195.35555 
L 98.304175 195.555815 
L 99.935605 195.021775 
L 103.198465 195.22204 
L 104.829895 194.688 
L 108.092755 194.888265 
L 109.724185 195.155285 
L 111.355614 194.087205 
L 114.618474 194.28747 
L 116.249904 194.55449 
L 117.881334 195.08853 
L 119.512764 196.156609 
L 121.144194 198.292768 
L 122.775624 202.565086 
L 124.407053 211.109722 
L 126.038483 228.198993 
L 127.669913 159.841907 
L 130.932773 160.042172 
L 132.564203 159.508132 
L 134.195633 159.374623 
L 135.827063 159.441377 
L 137.458492 159.174358 
L 139.089922 159.241113 
L 140.721352 158.974093 
L 143.984212 159.174358 
L 145.615642 159.441377 
L 147.247072 158.373298 
L 148.878502 158.239788 
L 150.509931 158.306543 
L 152.141361 158.039523 
L 155.404221 158.239788 
L 157.035651 158.506808 
L 158.667081 159.040848 
L 160.298511 160.108927 
L 161.929941 162.245086 
L 163.56137 166.517404 
L 165.1928 175.06204 
L 166.82423 192.151311 
L 168.45566 123.794225 
L 171.71852 123.99449 
L 173.34995 123.46045 
L 176.61281 123.19343 
L 179.875669 123.393695 
L 181.507099 122.859656 
L 184.769959 123.059921 
L 186.401389 122.525881 
L 188.032819 122.592636 
L 189.664249 122.325616 
L 192.927108 122.525881 
L 194.558538 122.792901 
L 196.189968 121.724821 
L 199.452828 121.925086 
L 201.084258 121.391046 
L 204.347117 121.591311 
L 205.978547 121.858331 
L 207.609977 122.392371 
L 209.241407 123.46045 
L 210.872837 125.596609 
L 212.504267 129.868927 
L 214.135697 112.779656 
L 215.767127 112.846411 
L 217.398556 112.579391 
L 219.029986 112.445881 
L 222.292846 112.646146 
L 223.924276 112.112106 
L 225.555706 111.978596 
L 228.818566 112.178861 
L 230.449995 112.445881 
L 232.081425 112.979921 
L 233.712855 114.048 
L 235.344285 109.775682 
L 236.975715 109.642172 
L 240.238575 109.842437 
L 241.870005 109.308397 
L 243.501434 109.375152 
L 245.132864 109.108132 
L 246.764294 108.974623 
L 250.027154 109.174887 
L 251.658584 109.441907 
L 253.290014 109.975947 
L 254.921444 107.839788 
L 258.184303 108.040053 
L 259.815733 107.506013 
L 261.447163 107.372503 
L 263.078593 107.439258 
L 264.710023 107.172238 
L 267.972883 107.372503 
L 269.604312 107.639523 
L 271.235742 106.571444 
L 272.867172 106.638199 
L 274.498602 106.371179 
L 277.761462 106.571444 
L 279.392892 106.838464 
L 281.024322 105.770384 
L 282.655751 105.636874 
L 285.918611 105.837139 
L 287.550041 105.303099 
L 290.812901 105.503364 
L 292.444331 105.770384 
L 294.075761 106.304424 
L 295.70719 107.372503 
L 297.33862 109.508662 
L 298.97005 100.964026 
L 300.60148 100.830517 
L 303.86434 101.030781 
L 305.49577 101.297801 
L 307.1272 101.831841 
L 308.75863 99.695682 
L 312.021489 99.895947 
L 313.652919 100.162967 
L 315.284349 100.697007 
L 316.915779 101.765086 
L 318.547209 103.901245 
L 320.178639 95.356609 
L 321.810069 95.423364 
L 323.441498 95.156344 
L 325.072928 95.223099 
L 326.704358 94.956079 
L 328.335788 95.022834 
L 329.967218 94.755815 
L 333.230078 94.956079 
L 334.861508 95.223099 
L 336.492937 95.757139 
L 338.124367 96.825219 
L 339.755797 98.961377 
L 341.387227 103.233695 
L 343.018657 111.778331 
L 344.650087 128.867603 
L 346.281517 60.510517 
L 347.912947 60.377007 
L 351.175806 60.577272 
L 352.807236 60.043232 
L 354.438666 59.909722 
L 356.070096 59.976477 
L 357.701526 59.709457 
L 360.964386 59.909722 
L 362.595815 60.176742 
L 364.227245 60.710781 
L 365.858675 61.778861 
L 367.490105 63.91502 
L 369.121535 55.370384 
L 370.752965 55.236874 
L 372.384395 55.303629 
L 374.015825 55.036609 
L 377.278684 55.236874 
L 378.910114 54.702834 
L 380.541544 54.569325 
L 382.172974 54.636079 
L 383.804404 54.36906 
L 385.435834 54.23555 
L 388.698693 54.435815 
L 390.330123 53.901775 
L 391.961553 53.96853 
L 393.592983 53.70151 
L 395.224413 53.568 
L 398.487273 53.768265 
L 398.487273 53.768265 
" style="fill:none;stroke:#2ca02c;stroke-linecap:square;stroke-width:1.5;"/>
   </g>
   <g id="line2d_21">
    <path clip-path="url(#p9cea77d86f)" d="M 73.832727 200.562437 
L 75.464157 200.695947 
L 77.095587 200.161907 
L 80.358447 200.362172 
L 81.989877 200.629192 
L 83.621307 199.561113 
L 86.884166 199.761377 
L 88.515596 199.227338 
L 91.778456 198.960318 
L 95.041316 199.160583 
L 96.672746 199.427603 
L 98.304175 198.359523 
L 101.567035 198.559788 
L 103.198465 198.025748 
L 104.829895 197.892238 
L 108.092755 198.092503 
L 109.724185 197.558464 
L 111.355614 197.424954 
L 112.987044 197.491709 
L 114.618474 197.224689 
L 116.249904 197.291444 
L 117.881334 197.024424 
L 119.512764 197.091179 
L 121.144194 196.824159 
L 124.407053 197.024424 
L 126.038483 197.291444 
L 127.669913 197.825483 
L 129.301343 198.893563 
L 130.932773 201.029722 
L 132.564203 205.30204 
L 134.195633 213.846675 
L 135.827063 230.935947 
L 137.458492 162.578861 
L 140.721352 162.311841 
L 143.984212 162.512106 
L 145.615642 162.779126 
L 147.247072 161.711046 
L 148.878502 161.777801 
L 150.509931 161.510781 
L 153.772791 161.711046 
L 155.404221 161.978066 
L 157.035651 160.909987 
L 160.298511 161.110252 
L 161.929941 160.576212 
L 163.56137 160.442702 
L 166.82423 160.642967 
L 168.45566 160.909987 
L 170.08709 161.444026 
L 171.71852 162.512106 
L 173.34995 164.648265 
L 174.98138 156.103629 
L 176.61281 155.970119 
L 179.875669 156.170384 
L 181.507099 156.437404 
L 183.138529 156.971444 
L 184.769959 154.835285 
L 186.401389 154.701775 
L 189.664249 154.90204 
L 191.295678 154.368 
L 192.927108 154.434755 
L 194.558538 154.167735 
L 196.189968 154.23449 
L 197.821398 153.96747 
L 199.452828 153.83396 
L 202.715688 154.034225 
L 204.347117 154.301245 
L 205.978547 154.835285 
L 207.609977 155.903364 
L 209.241407 158.039523 
L 210.872837 149.494887 
L 214.135697 149.695152 
L 215.767127 149.962172 
L 217.398556 148.894093 
L 220.661416 149.094358 
L 222.292846 149.361377 
L 223.924276 148.293298 
L 225.555706 148.159788 
L 228.818566 148.360053 
L 230.449995 148.627073 
L 232.081425 149.161113 
L 233.712855 150.229192 
L 235.344285 152.365351 
L 236.975715 156.637669 
L 238.607145 139.548397 
L 240.238575 139.615152 
L 241.870005 139.348132 
L 245.132864 139.548397 
L 246.764294 139.815417 
L 248.395724 138.747338 
L 250.027154 138.613828 
L 253.290014 138.814093 
L 254.921444 138.280053 
L 258.184303 138.480318 
L 259.815733 137.946278 
L 263.078593 138.146543 
L 264.710023 138.413563 
L 266.341453 138.947603 
L 267.972883 140.015682 
L 269.604312 142.151841 
L 271.235742 146.424159 
L 272.867172 129.334887 
L 276.130032 129.067868 
L 279.392892 129.268132 
L 281.024322 129.535152 
L 282.655751 130.069192 
L 284.287181 127.933033 
L 289.181471 127.532503 
L 290.812901 127.599258 
L 292.444331 127.332238 
L 294.075761 127.398993 
L 295.70719 127.131974 
L 298.97005 127.332238 
L 300.60148 126.798199 
L 303.86434 126.998464 
L 305.49577 127.265483 
L 307.1272 126.197404 
L 308.75863 126.264159 
L 310.390059 125.997139 
L 313.652919 126.197404 
L 315.284349 125.663364 
L 318.547209 125.863629 
L 320.178639 126.130649 
L 321.810069 126.664689 
L 323.441498 127.732768 
L 325.072928 129.868927 
L 326.704358 134.141245 
L 328.335788 142.685881 
L 329.967218 108.507338 
L 333.230078 108.707603 
L 334.861508 108.974623 
L 336.492937 109.508662 
L 338.124367 110.576742 
L 339.755797 112.712901 
L 341.387227 104.168265 
L 343.018657 104.034755 
L 346.281517 104.23502 
L 347.912947 104.50204 
L 349.544376 105.036079 
L 351.175806 102.899921 
L 354.438666 103.100185 
L 356.070096 103.367205 
L 357.701526 102.299126 
L 359.332956 102.165616 
L 360.964386 102.232371 
L 362.595815 101.965351 
L 365.858675 102.165616 
L 367.490105 102.432636 
L 369.121535 101.364556 
L 370.752965 101.431311 
L 372.384395 101.164291 
L 374.015825 101.231046 
L 375.647254 100.964026 
L 377.278684 101.030781 
L 378.910114 100.763762 
L 382.172974 100.964026 
L 383.804404 101.231046 
L 385.435834 101.765086 
L 387.067264 102.833166 
L 388.698693 98.560848 
L 391.961553 98.761113 
L 393.592983 99.028132 
L 395.224413 99.562172 
L 396.855843 100.630252 
L 398.487273 96.357934 
L 398.487273 96.357934 
" style="fill:none;stroke:#d62728;stroke-linecap:square;stroke-width:1.5;"/>
   </g>
   <g id="line2d_22">
    <path clip-path="url(#p9cea77d86f)" d="M 73.832727 200.562437 
L 75.464157 200.695947 
L 77.095587 200.962967 
L 78.727017 201.497007 
L 80.358447 202.565086 
L 81.989877 198.292768 
L 85.252736 198.493033 
L 86.884166 198.760053 
L 88.515596 199.294093 
L 90.147026 200.362172 
L 91.778456 196.089854 
L 95.041316 196.290119 
L 96.672746 196.557139 
L 98.304175 197.091179 
L 99.935605 198.159258 
L 101.567035 193.88694 
L 104.829895 194.087205 
L 106.461325 193.553166 
L 108.092755 193.419656 
L 111.355614 193.619921 
L 112.987044 193.88694 
L 114.618474 192.818861 
L 116.249904 192.685351 
L 117.881334 192.752106 
L 119.512764 192.485086 
L 121.144194 192.351576 
L 122.775624 192.418331 
L 124.407053 192.151311 
L 127.669913 191.884291 
L 130.932773 192.084556 
L 132.564203 192.351576 
L 134.195633 192.885616 
L 135.827063 193.953695 
L 137.458492 196.089854 
L 139.089922 200.362172 
L 140.721352 208.906808 
L 142.352782 225.996079 
L 143.984212 260.174623 
L 398.487273 260.174623 
L 398.487273 260.174623 
" style="fill:none;stroke:#9467bd;stroke-linecap:square;stroke-width:1.5;"/>
   </g>
   <g id="line2d_23">
    <path clip-path="url(#p9cea77d86f)" d="M 73.832727 200.562437 
L 75.464157 200.695947 
L 77.095587 200.161907 
L 78.727017 200.028397 
L 80.358447 200.095152 
L 81.989877 199.828132 
L 85.252736 200.028397 
L 86.884166 199.494358 
L 88.515596 199.360848 
L 91.778456 199.561113 
L 93.409886 199.828132 
L 95.041316 200.362172 
L 96.672746 198.226013 
L 98.304175 198.292768 
L 99.935605 198.025748 
L 101.567035 198.092503 
L 103.198465 197.825483 
L 104.829895 197.892238 
L 106.461325 197.625219 
L 109.724185 197.825483 
L 111.355614 198.092503 
L 112.987044 198.626543 
L 114.618474 199.694623 
L 116.249904 201.830781 
L 117.881334 206.103099 
L 119.512764 214.647735 
L 121.144194 231.737007 
L 122.775624 265.91555 
L 398.487273 265.91555 
L 398.487273 265.91555 
" style="fill:none;stroke:#8c564b;stroke-linecap:square;stroke-width:1.5;"/>
   </g>
   <g id="line2d_24">
    <path clip-path="url(#p9cea77d86f)" d="M 73.832727 200.362172 
L 77.095587 200.562437 
L 78.727017 200.829457 
L 80.358447 201.363497 
L 81.989877 202.431576 
L 83.621307 204.567735 
L 85.252736 196.023099 
L 86.884166 195.889589 
L 90.147026 196.089854 
L 91.778456 196.356874 
L 93.409886 196.890914 
L 95.041316 197.958993 
L 96.672746 200.095152 
L 98.304175 204.36747 
L 99.935605 212.912106 
L 101.567035 178.733563 
L 104.829895 178.933828 
L 106.461325 178.399788 
L 109.724185 178.600053 
L 111.355614 178.867073 
L 112.987044 179.401113 
L 114.618474 180.469192 
L 116.249904 182.605351 
L 117.881334 174.060715 
L 121.144194 174.26098 
L 122.775624 174.528 
L 124.407053 173.459921 
L 127.669913 173.660185 
L 129.301343 173.927205 
L 130.932773 174.461245 
L 132.564203 175.529325 
L 134.195633 171.257007 
L 137.458492 171.457272 
L 139.089922 171.724291 
L 140.721352 172.258331 
L 142.352782 173.326411 
L 143.984212 175.46257 
L 145.615642 179.734887 
L 147.247072 162.645616 
L 148.878502 162.712371 
L 150.509931 162.445351 
L 153.772791 162.178331 
L 155.404221 162.245086 
L 157.035651 161.978066 
L 158.667081 161.844556 
L 161.929941 162.044821 
L 163.56137 161.510781 
L 165.1928 161.377272 
L 168.45566 161.577536 
L 170.08709 161.043497 
L 174.98138 160.642967 
L 176.61281 160.709722 
L 178.244239 160.442702 
L 188.032819 159.641642 
L 189.664249 159.708397 
L 191.295678 159.441377 
L 192.927108 159.307868 
L 196.189968 159.508132 
L 197.821398 159.775152 
L 199.452828 160.309192 
L 201.084258 161.377272 
L 202.715688 163.51343 
L 204.347117 167.785748 
L 205.978547 150.696477 
L 207.609977 150.763232 
L 209.241407 150.496212 
L 212.504267 150.229192 
L 215.767127 150.429457 
L 217.398556 150.696477 
L 219.029986 151.230517 
L 220.661416 152.298596 
L 222.292846 154.434755 
L 223.924276 145.890119 
L 227.187136 146.090384 
L 228.818566 146.357404 
L 230.449995 146.891444 
L 232.081425 147.959523 
L 233.712855 150.095682 
L 235.344285 154.368 
L 236.975715 162.912636 
L 238.607145 180.001907 
L 240.238575 214.18045 
L 241.870005 77.466278 
L 243.501434 77.332768 
L 245.132864 77.399523 
L 246.764294 77.132503 
L 248.395724 77.199258 
L 250.027154 76.932238 
L 253.290014 77.132503 
L 254.921444 76.598464 
L 258.184303 76.331444 
L 259.815733 76.398199 
L 261.447163 76.131179 
L 264.710023 76.331444 
L 266.341453 75.797404 
L 269.604312 75.997669 
L 271.235742 76.264689 
L 272.867172 76.798728 
L 274.498602 74.66257 
L 277.761462 74.862834 
L 279.392892 74.328795 
L 282.655751 74.52906 
L 284.287181 74.796079 
L 285.918611 73.728 
L 289.181471 73.928265 
L 290.812901 74.195285 
L 292.444331 73.127205 
L 295.70719 73.32747 
L 297.33862 72.79343 
L 300.60148 72.993695 
L 302.23291 73.260715 
L 303.86434 73.794755 
L 305.49577 71.658596 
L 307.1272 71.525086 
L 310.390059 71.725351 
L 312.021489 71.992371 
L 313.652919 70.924291 
L 315.284349 70.991046 
L 316.915779 70.724026 
L 318.547209 70.590517 
L 321.810069 70.790781 
L 323.441498 70.256742 
L 326.704358 70.457007 
L 328.335788 70.724026 
L 329.967218 69.655947 
L 334.861508 69.255417 
L 338.124367 69.455682 
L 339.755797 68.921642 
L 343.018657 69.121907 
L 344.650087 68.587868 
L 347.912947 68.788132 
L 349.544376 68.254093 
L 352.807236 67.987073 
L 356.070096 68.187338 
L 357.701526 68.454358 
L 359.332956 68.988397 
L 360.964386 66.852238 
L 364.227245 66.585219 
L 365.858675 66.651974 
L 367.490105 66.384954 
L 370.752965 66.585219 
L 372.384395 66.051179 
L 374.015825 65.917669 
L 375.647254 65.984424 
L 377.278684 65.717404 
L 380.541544 65.450384 
L 382.172974 65.517139 
L 383.804404 65.250119 
L 385.435834 65.316874 
L 387.067264 65.049854 
L 390.330123 65.250119 
L 391.961553 65.517139 
L 393.592983 64.44906 
L 398.487273 64.04853 
L 398.487273 64.04853 
" style="fill:none;stroke:#e377c2;stroke-linecap:square;stroke-width:1.5;"/>
   </g>
   <g id="line2d_25">
    <path clip-path="url(#p9cea77d86f)" d="M 73.832727 200.562437 
L 75.464157 200.295417 
L 78.727017 200.495682 
L 80.358447 200.762702 
L 81.989877 201.296742 
L 83.621307 199.160583 
L 85.252736 199.027073 
L 88.515596 199.227338 
L 90.147026 198.693298 
L 93.409886 198.893563 
L 95.041316 199.160583 
L 96.672746 199.694623 
L 98.304175 200.762702 
L 99.935605 202.898861 
L 101.567035 207.171179 
L 103.198465 215.715815 
L 104.829895 232.805086 
L 106.461325 266.983629 
L 398.487273 266.983629 
L 398.487273 266.983629 
" style="fill:none;stroke:#7f7f7f;stroke-linecap:square;stroke-width:1.5;"/>
   </g>
   <g id="line2d_26">
    <path clip-path="url(#p9cea77d86f)" d="M 73.832727 200.562437 
L 75.464157 200.295417 
L 77.095587 200.362172 
L 78.727017 200.095152 
L 80.358447 199.961642 
L 83.621307 200.161907 
L 85.252736 200.428927 
L 86.884166 199.360848 
L 90.147026 199.561113 
L 91.778456 199.027073 
L 93.409886 198.893563 
L 96.672746 199.093828 
L 98.304175 199.360848 
L 99.935605 199.894887 
L 101.567035 200.962967 
L 103.198465 203.099126 
L 104.829895 207.371444 
L 106.461325 190.282172 
L 109.724185 190.482437 
L 111.355614 190.749457 
L 112.987044 191.283497 
L 114.618474 189.147338 
L 117.881334 188.880318 
L 121.144194 189.080583 
L 122.775624 189.347603 
L 124.407053 188.279523 
L 126.038483 188.146013 
L 127.669913 188.212768 
L 129.301343 187.945748 
L 130.932773 187.812238 
L 132.564203 187.878993 
L 134.195633 187.611974 
L 135.827063 187.478464 
L 137.458492 187.545219 
L 139.089922 187.278199 
L 140.721352 187.344954 
L 142.352782 187.077934 
L 145.615642 187.278199 
L 147.247072 187.545219 
L 148.878502 186.477139 
L 150.509931 186.543894 
L 152.141361 186.276874 
L 153.772791 186.143364 
L 155.404221 186.210119 
L 157.035651 185.943099 
L 160.298511 186.143364 
L 161.929941 185.609325 
L 163.56137 185.475815 
L 166.82423 185.676079 
L 168.45566 185.943099 
L 170.08709 186.477139 
L 171.71852 184.34098 
L 174.98138 184.541245 
L 176.61281 184.808265 
L 178.244239 185.342305 
L 179.875669 186.410384 
L 181.507099 182.138066 
L 184.769959 182.338331 
L 186.401389 181.804291 
L 189.664249 182.004556 
L 191.295678 182.271576 
L 192.927108 182.805616 
L 194.558538 183.873695 
L 196.189968 186.009854 
L 197.821398 190.282172 
L 199.452828 198.826808 
L 201.084258 215.916079 
L 202.715688 250.094623 
L 398.487273 250.094623 
L 398.487273 250.094623 
" style="fill:none;stroke:#bcbd22;stroke-linecap:square;stroke-width:1.5;"/>
   </g>
   <g id="line2d_27">
    <path clip-path="url(#p9cea77d86f)" d="M 73.832727 200.562437 
L 75.464157 200.695947 
L 77.095587 200.161907 
L 78.727017 200.028397 
L 81.989877 200.228662 
L 83.621307 200.495682 
L 85.252736 201.029722 
L 86.884166 202.097801 
L 88.515596 204.23396 
L 90.147026 208.506278 
L 91.778456 217.050914 
L 93.409886 182.872371 
L 96.672746 183.072636 
L 98.304175 182.538596 
L 99.935605 182.605351 
L 101.567035 182.338331 
L 104.829895 182.538596 
L 106.461325 182.004556 
L 109.724185 182.204821 
L 111.355614 182.471841 
L 112.987044 183.005881 
L 114.618474 180.869722 
L 117.881334 181.069987 
L 119.512764 181.337007 
L 121.144194 181.871046 
L 122.775624 182.939126 
L 124.407053 185.075285 
L 126.038483 189.347603 
L 127.669913 197.892238 
L 129.301343 163.713695 
L 132.564203 163.91396 
L 134.195633 163.379921 
L 137.458492 163.112901 
L 140.721352 163.313166 
L 142.352782 162.779126 
L 145.615642 162.979391 
L 147.247072 162.445351 
L 150.509931 162.645616 
L 152.141361 162.912636 
L 153.772791 163.446675 
L 155.404221 161.310517 
L 158.667081 161.510781 
L 160.298511 161.777801 
L 161.929941 162.311841 
L 163.56137 163.379921 
L 165.1928 159.107603 
L 168.45566 159.307868 
L 170.08709 158.773828 
L 173.34995 158.974093 
L 174.98138 158.440053 
L 176.61281 158.306543 
L 179.875669 158.506808 
L 181.507099 158.773828 
L 183.138529 159.307868 
L 184.769959 160.375947 
L 186.401389 162.512106 
L 188.032819 153.96747 
L 189.664249 153.83396 
L 192.927108 154.034225 
L 194.558538 154.301245 
L 196.189968 153.233166 
L 197.821398 153.299921 
L 199.452828 153.032901 
L 201.084258 152.899391 
L 204.347117 153.099656 
L 205.978547 152.565616 
L 207.609977 152.432106 
L 209.241407 152.498861 
L 210.872837 152.231841 
L 214.135697 152.432106 
L 215.767127 151.898066 
L 217.398556 151.764556 
L 220.661416 151.964821 
L 222.292846 152.231841 
L 223.924276 152.765881 
L 225.555706 150.629722 
L 228.818566 150.829987 
L 230.449995 151.097007 
L 232.081425 151.631046 
L 233.712855 149.494887 
L 236.975715 149.695152 
L 238.607145 149.962172 
L 240.238575 150.496212 
L 241.870005 148.360053 
L 243.501434 148.226543 
L 245.132864 148.293298 
L 246.764294 148.026278 
L 248.395724 148.093033 
L 250.027154 147.826013 
L 253.290014 148.026278 
L 254.921444 148.293298 
L 256.552873 148.827338 
L 258.184303 149.895417 
L 259.815733 145.623099 
L 263.078593 145.823364 
L 264.710023 146.090384 
L 266.341453 145.022305 
L 269.604312 145.22257 
L 271.235742 145.489589 
L 272.867172 146.023629 
L 274.498602 147.091709 
L 276.130032 149.227868 
L 277.761462 153.500185 
L 279.392892 162.044821 
L 281.024322 179.134093 
L 282.655751 213.312636 
L 284.287181 281.669722 
L 398.487273 281.669722 
L 398.487273 281.669722 
" style="fill:none;stroke:#17becf;stroke-linecap:square;stroke-width:1.5;"/>
   </g>
   <g id="patch_3">
    <path d="M 57.6 307.584 
L 57.6 41.472 
" style="fill:none;stroke:#000000;stroke-linecap:square;stroke-linejoin:miter;stroke-width:0.8;"/>
   </g>
   <g id="patch_4">
    <path d="M 414.72 307.584 
L 414.72 41.472 
" style="fill:none;stroke:#000000;stroke-linecap:square;stroke-linejoin:miter;stroke-width:0.8;"/>
   </g>
   <g id="patch_5">
    <path d="M 57.6 307.584 
L 414.72 307.584 
" style="fill:none;stroke:#000000;stroke-linecap:square;stroke-linejoin:miter;stroke-width:0.8;"/>
   </g>
   <g id="patch_6">
    <path d="M 57.6 41.472 
L 414.72 41.472 
" style="fill:none;stroke:#000000;stroke-linecap:square;stroke-linejoin:miter;stroke-width:0.8;"/>
   </g>
   <g id="text_20">
    <!-- Grafico fondos docenas martin gala F.I: $150000.0 -->
    <g transform="translate(84.64125 35.472)scale(0.12 -0.12)">
     <defs>
      <path d="M 59.515625 10.40625 
L 59.515625 29.984375 
L 43.40625 29.984375 
L 43.40625 38.09375 
L 69.28125 38.09375 
L 69.28125 6.78125 
Q 63.578125 2.734375 56.6875 0.65625 
Q 49.8125 -1.421875 42 -1.421875 
Q 24.90625 -1.421875 15.25 8.5625 
Q 5.609375 18.5625 5.609375 36.375 
Q 5.609375 54.25 15.25 64.234375 
Q 24.90625 74.21875 42 74.21875 
Q 49.125 74.21875 55.546875 72.453125 
Q 61.96875 70.703125 67.390625 67.28125 
L 67.390625 56.78125 
Q 61.921875 61.421875 55.765625 63.765625 
Q 49.609375 66.109375 42.828125 66.109375 
Q 29.4375 66.109375 22.71875 58.640625 
Q 16.015625 51.171875 16.015625 36.375 
Q 16.015625 21.625 22.71875 14.15625 
Q 29.4375 6.6875 42.828125 6.6875 
Q 48.046875 6.6875 52.140625 7.59375 
Q 56.25 8.5 59.515625 10.40625 
z
" id="DejaVuSans-71"/>
      <path d="M 37.109375 75.984375 
L 37.109375 68.5 
L 28.515625 68.5 
Q 23.6875 68.5 21.796875 66.546875 
Q 19.921875 64.59375 19.921875 59.515625 
L 19.921875 54.6875 
L 34.71875 54.6875 
L 34.71875 47.703125 
L 19.921875 47.703125 
L 19.921875 0 
L 10.890625 0 
L 10.890625 47.703125 
L 2.296875 47.703125 
L 2.296875 54.6875 
L 10.890625 54.6875 
L 10.890625 58.5 
Q 10.890625 67.625 15.140625 71.796875 
Q 19.390625 75.984375 28.609375 75.984375 
z
" id="DejaVuSans-102"/>
      <path d="M 48.78125 52.59375 
L 48.78125 44.1875 
Q 44.96875 46.296875 41.140625 47.34375 
Q 37.3125 48.390625 33.40625 48.390625 
Q 24.65625 48.390625 19.8125 42.84375 
Q 14.984375 37.3125 14.984375 27.296875 
Q 14.984375 17.28125 19.8125 11.734375 
Q 24.65625 6.203125 33.40625 6.203125 
Q 37.3125 6.203125 41.140625 7.25 
Q 44.96875 8.296875 48.78125 10.40625 
L 48.78125 2.09375 
Q 45.015625 0.34375 40.984375 -0.53125 
Q 36.96875 -1.421875 32.421875 -1.421875 
Q 20.0625 -1.421875 12.78125 6.34375 
Q 5.515625 14.109375 5.515625 27.296875 
Q 5.515625 40.671875 12.859375 48.328125 
Q 20.21875 56 33.015625 56 
Q 37.15625 56 41.109375 55.140625 
Q 45.0625 54.296875 48.78125 52.59375 
z
" id="DejaVuSans-99"/>
      <path d="M 44.28125 53.078125 
L 44.28125 44.578125 
Q 40.484375 46.53125 36.375 47.5 
Q 32.28125 48.484375 27.875 48.484375 
Q 21.1875 48.484375 17.84375 46.4375 
Q 14.5 44.390625 14.5 40.28125 
Q 14.5 37.15625 16.890625 35.375 
Q 19.28125 33.59375 26.515625 31.984375 
L 29.59375 31.296875 
Q 39.15625 29.25 43.1875 25.515625 
Q 47.21875 21.78125 47.21875 15.09375 
Q 47.21875 7.46875 41.1875 3.015625 
Q 35.15625 -1.421875 24.609375 -1.421875 
Q 20.21875 -1.421875 15.453125 -0.5625 
Q 10.6875 0.296875 5.421875 2 
L 5.421875 11.28125 
Q 10.40625 8.6875 15.234375 7.390625 
Q 20.0625 6.109375 24.8125 6.109375 
Q 31.15625 6.109375 34.5625 8.28125 
Q 37.984375 10.453125 37.984375 14.40625 
Q 37.984375 18.0625 35.515625 20.015625 
Q 33.0625 21.96875 24.703125 23.78125 
L 21.578125 24.515625 
Q 13.234375 26.265625 9.515625 29.90625 
Q 5.8125 33.546875 5.8125 39.890625 
Q 5.8125 47.609375 11.28125 51.796875 
Q 16.75 56 26.8125 56 
Q 31.78125 56 36.171875 55.265625 
Q 40.578125 54.546875 44.28125 53.078125 
z
" id="DejaVuSans-115"/>
      <path d="M 45.40625 27.984375 
Q 45.40625 37.75 41.375 43.109375 
Q 37.359375 48.484375 30.078125 48.484375 
Q 22.859375 48.484375 18.828125 43.109375 
Q 14.796875 37.75 14.796875 27.984375 
Q 14.796875 18.265625 18.828125 12.890625 
Q 22.859375 7.515625 30.078125 7.515625 
Q 37.359375 7.515625 41.375 12.890625 
Q 45.40625 18.265625 45.40625 27.984375 
z
M 54.390625 6.78125 
Q 54.390625 -7.171875 48.1875 -13.984375 
Q 42 -20.796875 29.203125 -20.796875 
Q 24.46875 -20.796875 20.265625 -20.09375 
Q 16.0625 -19.390625 12.109375 -17.921875 
L 12.109375 -9.1875 
Q 16.0625 -11.328125 19.921875 -12.34375 
Q 23.78125 -13.375 27.78125 -13.375 
Q 36.625 -13.375 41.015625 -8.765625 
Q 45.40625 -4.15625 45.40625 5.171875 
L 45.40625 9.625 
Q 42.625 4.78125 38.28125 2.390625 
Q 33.9375 0 27.875 0 
Q 17.828125 0 11.671875 7.65625 
Q 5.515625 15.328125 5.515625 27.984375 
Q 5.515625 40.671875 11.671875 48.328125 
Q 17.828125 56 27.875 56 
Q 33.9375 56 38.28125 53.609375 
Q 42.625 51.21875 45.40625 46.390625 
L 45.40625 54.6875 
L 54.390625 54.6875 
z
" id="DejaVuSans-103"/>
      <path d="M 9.421875 75.984375 
L 18.40625 75.984375 
L 18.40625 0 
L 9.421875 0 
z
" id="DejaVuSans-108"/>
      <path d="M 10.6875 12.40625 
L 21 12.40625 
L 21 0 
L 10.6875 0 
z
" id="DejaVuSans-46"/>
      <path d="M 9.8125 72.90625 
L 19.671875 72.90625 
L 19.671875 0 
L 9.8125 0 
z
" id="DejaVuSans-73"/>
      <path d="M 11.71875 12.40625 
L 22.015625 12.40625 
L 22.015625 0 
L 11.71875 0 
z
M 11.71875 51.703125 
L 22.015625 51.703125 
L 22.015625 39.3125 
L 11.71875 39.3125 
z
" id="DejaVuSans-58"/>
     </defs>
     <use xlink:href="#DejaVuSans-71"/>
     <use x="77.490234" xlink:href="#DejaVuSans-114"/>
     <use x="118.603516" xlink:href="#DejaVuSans-97"/>
     <use x="179.882812" xlink:href="#DejaVuSans-102"/>
     <use x="215.087891" xlink:href="#DejaVuSans-105"/>
     <use x="242.871094" xlink:href="#DejaVuSans-99"/>
     <use x="297.851562" xlink:href="#DejaVuSans-111"/>
     <use x="359.033203" xlink:href="#DejaVuSans-32"/>
     <use x="390.820312" xlink:href="#DejaVuSans-102"/>
     <use x="426.025391" xlink:href="#DejaVuSans-111"/>
     <use x="487.207031" xlink:href="#DejaVuSans-110"/>
     <use x="550.585938" xlink:href="#DejaVuSans-100"/>
     <use x="614.0625" xlink:href="#DejaVuSans-111"/>
     <use x="675.244141" xlink:href="#DejaVuSans-115"/>
     <use x="727.34375" xlink:href="#DejaVuSans-32"/>
     <use x="759.130859" xlink:href="#DejaVuSans-100"/>
     <use x="822.607422" xlink:href="#DejaVuSans-111"/>
     <use x="883.789062" xlink:href="#DejaVuSans-99"/>
     <use x="938.769531" xlink:href="#DejaVuSans-101"/>
     <use x="1000.292969" xlink:href="#DejaVuSans-110"/>
     <use x="1063.671875" xlink:href="#DejaVuSans-97"/>
     <use x="1124.951172" xlink:href="#DejaVuSans-115"/>
     <use x="1177.050781" xlink:href="#DejaVuSans-32"/>
     <use x="1208.837891" xlink:href="#DejaVuSans-109"/>
     <use x="1306.25" xlink:href="#DejaVuSans-97"/>
     <use x="1367.529297" xlink:href="#DejaVuSans-114"/>
     <use x="1408.642578" xlink:href="#DejaVuSans-116"/>
     <use x="1447.851562" xlink:href="#DejaVuSans-105"/>
     <use x="1475.634766" xlink:href="#DejaVuSans-110"/>
     <use x="1539.013672" xlink:href="#DejaVuSans-32"/>
     <use x="1570.800781" xlink:href="#DejaVuSans-103"/>
     <use x="1634.277344" xlink:href="#DejaVuSans-97"/>
     <use x="1695.556641" xlink:href="#DejaVuSans-108"/>
     <use x="1723.339844" xlink:href="#DejaVuSans-97"/>
     <use x="1784.619141" xlink:href="#DejaVuSans-32"/>
     <use x="1816.40625" xlink:href="#DejaVuSans-70"/>
     <use x="1857.800781" xlink:href="#DejaVuSans-46"/>
     <use x="1889.587891" xlink:href="#DejaVuSans-73"/>
     <use x="1919.080078" xlink:href="#DejaVuSans-58"/>
     <use x="1952.771484" xlink:href="#DejaVuSans-32"/>
     <use x="1984.558594" xlink:href="#DejaVuSans-36"/>
     <use x="2048.181641" xlink:href="#DejaVuSans-49"/>
     <use x="2111.804688" xlink:href="#DejaVuSans-53"/>
     <use x="2175.427734" xlink:href="#DejaVuSans-48"/>
     <use x="2239.050781" xlink:href="#DejaVuSans-48"/>
     <use x="2302.673828" xlink:href="#DejaVuSans-48"/>
     <use x="2366.296875" xlink:href="#DejaVuSans-48"/>
     <use x="2429.919922" xlink:href="#DejaVuSans-46"/>
     <use x="2461.707031" xlink:href="#DejaVuSans-48"/>
    </g>
   </g>
   <g id="legend_1">
    <g id="patch_7">
     <path d="M 324.295 249.418625 
L 407.72 249.418625 
Q 409.72 249.418625 409.72 247.418625 
L 409.72 101.637375 
Q 409.72 99.637375 407.72 99.637375 
L 324.295 99.637375 
Q 322.295 99.637375 322.295 101.637375 
L 322.295 247.418625 
Q 322.295 249.418625 324.295 249.418625 
z
" style="fill:#ffffff;opacity:0.8;stroke:#cccccc;stroke-linejoin:miter;"/>
    </g>
    <g id="line2d_28">
     <path d="M 326.295 107.735813 
L 346.295 107.735813 
" style="fill:none;stroke:#1f77b4;stroke-linecap:square;stroke-width:1.5;"/>
    </g>
    <g id="line2d_29"/>
    <g id="text_21">
     <!-- Fondos 1 -->
     <g transform="translate(354.295 111.235813)scale(0.1 -0.1)">
      <use xlink:href="#DejaVuSans-70"/>
      <use x="53.894531" xlink:href="#DejaVuSans-111"/>
      <use x="115.076172" xlink:href="#DejaVuSans-110"/>
      <use x="178.455078" xlink:href="#DejaVuSans-100"/>
      <use x="241.931641" xlink:href="#DejaVuSans-111"/>
      <use x="303.113281" xlink:href="#DejaVuSans-115"/>
      <use x="355.212891" xlink:href="#DejaVuSans-32"/>
      <use x="387" xlink:href="#DejaVuSans-49"/>
     </g>
    </g>
    <g id="line2d_30">
     <path d="M 326.295 122.413938 
L 346.295 122.413938 
" style="fill:none;stroke:#ff7f0e;stroke-linecap:square;stroke-width:1.5;"/>
    </g>
    <g id="line2d_31"/>
    <g id="text_22">
     <!-- Fondos 2 -->
     <g transform="translate(354.295 125.913938)scale(0.1 -0.1)">
      <use xlink:href="#DejaVuSans-70"/>
      <use x="53.894531" xlink:href="#DejaVuSans-111"/>
      <use x="115.076172" xlink:href="#DejaVuSans-110"/>
      <use x="178.455078" xlink:href="#DejaVuSans-100"/>
      <use x="241.931641" xlink:href="#DejaVuSans-111"/>
      <use x="303.113281" xlink:href="#DejaVuSans-115"/>
      <use x="355.212891" xlink:href="#DejaVuSans-32"/>
      <use x="387" xlink:href="#DejaVuSans-50"/>
     </g>
    </g>
    <g id="line2d_32">
     <path d="M 326.295 137.092063 
L 346.295 137.092063 
" style="fill:none;stroke:#2ca02c;stroke-linecap:square;stroke-width:1.5;"/>
    </g>
    <g id="line2d_33"/>
    <g id="text_23">
     <!-- Fondos 3 -->
     <g transform="translate(354.295 140.592063)scale(0.1 -0.1)">
      <use xlink:href="#DejaVuSans-70"/>
      <use x="53.894531" xlink:href="#DejaVuSans-111"/>
      <use x="115.076172" xlink:href="#DejaVuSans-110"/>
      <use x="178.455078" xlink:href="#DejaVuSans-100"/>
      <use x="241.931641" xlink:href="#DejaVuSans-111"/>
      <use x="303.113281" xlink:href="#DejaVuSans-115"/>
      <use x="355.212891" xlink:href="#DejaVuSans-32"/>
      <use x="387" xlink:href="#DejaVuSans-51"/>
     </g>
    </g>
    <g id="line2d_34">
     <path d="M 326.295 151.770188 
L 346.295 151.770188 
" style="fill:none;stroke:#d62728;stroke-linecap:square;stroke-width:1.5;"/>
    </g>
    <g id="line2d_35"/>
    <g id="text_24">
     <!-- Fondos 4 -->
     <g transform="translate(354.295 155.270188)scale(0.1 -0.1)">
      <defs>
       <path d="M 37.796875 64.3125 
L 12.890625 25.390625 
L 37.796875 25.390625 
z
M 35.203125 72.90625 
L 47.609375 72.90625 
L 47.609375 25.390625 
L 58.015625 25.390625 
L 58.015625 17.1875 
L 47.609375 17.1875 
L 47.609375 0 
L 37.796875 0 
L 37.796875 17.1875 
L 4.890625 17.1875 
L 4.890625 26.703125 
z
" id="DejaVuSans-52"/>
      </defs>
      <use xlink:href="#DejaVuSans-70"/>
      <use x="53.894531" xlink:href="#DejaVuSans-111"/>
      <use x="115.076172" xlink:href="#DejaVuSans-110"/>
      <use x="178.455078" xlink:href="#DejaVuSans-100"/>
      <use x="241.931641" xlink:href="#DejaVuSans-111"/>
      <use x="303.113281" xlink:href="#DejaVuSans-115"/>
      <use x="355.212891" xlink:href="#DejaVuSans-32"/>
      <use x="387" xlink:href="#DejaVuSans-52"/>
     </g>
    </g>
    <g id="line2d_36">
     <path d="M 326.295 166.448313 
L 346.295 166.448313 
" style="fill:none;stroke:#9467bd;stroke-linecap:square;stroke-width:1.5;"/>
    </g>
    <g id="line2d_37"/>
    <g id="text_25">
     <!-- Fondos 5 -->
     <g transform="translate(354.295 169.948313)scale(0.1 -0.1)">
      <use xlink:href="#DejaVuSans-70"/>
      <use x="53.894531" xlink:href="#DejaVuSans-111"/>
      <use x="115.076172" xlink:href="#DejaVuSans-110"/>
      <use x="178.455078" xlink:href="#DejaVuSans-100"/>
      <use x="241.931641" xlink:href="#DejaVuSans-111"/>
      <use x="303.113281" xlink:href="#DejaVuSans-115"/>
      <use x="355.212891" xlink:href="#DejaVuSans-32"/>
      <use x="387" xlink:href="#DejaVuSans-53"/>
     </g>
    </g>
    <g id="line2d_38">
     <path d="M 326.295 181.126438 
L 346.295 181.126438 
" style="fill:none;stroke:#8c564b;stroke-linecap:square;stroke-width:1.5;"/>
    </g>
    <g id="line2d_39"/>
    <g id="text_26">
     <!-- Fondos 6 -->
     <g transform="translate(354.295 184.626438)scale(0.1 -0.1)">
      <defs>
       <path d="M 33.015625 40.375 
Q 26.375 40.375 22.484375 35.828125 
Q 18.609375 31.296875 18.609375 23.390625 
Q 18.609375 15.53125 22.484375 10.953125 
Q 26.375 6.390625 33.015625 6.390625 
Q 39.65625 6.390625 43.53125 10.953125 
Q 47.40625 15.53125 47.40625 23.390625 
Q 47.40625 31.296875 43.53125 35.828125 
Q 39.65625 40.375 33.015625 40.375 
z
M 52.59375 71.296875 
L 52.59375 62.3125 
Q 48.875 64.0625 45.09375 64.984375 
Q 41.3125 65.921875 37.59375 65.921875 
Q 27.828125 65.921875 22.671875 59.328125 
Q 17.53125 52.734375 16.796875 39.40625 
Q 19.671875 43.65625 24.015625 45.921875 
Q 28.375 48.1875 33.59375 48.1875 
Q 44.578125 48.1875 50.953125 41.515625 
Q 57.328125 34.859375 57.328125 23.390625 
Q 57.328125 12.15625 50.6875 5.359375 
Q 44.046875 -1.421875 33.015625 -1.421875 
Q 20.359375 -1.421875 13.671875 8.265625 
Q 6.984375 17.96875 6.984375 36.375 
Q 6.984375 53.65625 15.1875 63.9375 
Q 23.390625 74.21875 37.203125 74.21875 
Q 40.921875 74.21875 44.703125 73.484375 
Q 48.484375 72.75 52.59375 71.296875 
z
" id="DejaVuSans-54"/>
      </defs>
      <use xlink:href="#DejaVuSans-70"/>
      <use x="53.894531" xlink:href="#DejaVuSans-111"/>
      <use x="115.076172" xlink:href="#DejaVuSans-110"/>
      <use x="178.455078" xlink:href="#DejaVuSans-100"/>
      <use x="241.931641" xlink:href="#DejaVuSans-111"/>
      <use x="303.113281" xlink:href="#DejaVuSans-115"/>
      <use x="355.212891" xlink:href="#DejaVuSans-32"/>
      <use x="387" xlink:href="#DejaVuSans-54"/>
     </g>
    </g>
    <g id="line2d_40">
     <path d="M 326.295 195.804563 
L 346.295 195.804563 
" style="fill:none;stroke:#e377c2;stroke-linecap:square;stroke-width:1.5;"/>
    </g>
    <g id="line2d_41"/>
    <g id="text_27">
     <!-- Fondos 7 -->
     <g transform="translate(354.295 199.304563)scale(0.1 -0.1)">
      <use xlink:href="#DejaVuSans-70"/>
      <use x="53.894531" xlink:href="#DejaVuSans-111"/>
      <use x="115.076172" xlink:href="#DejaVuSans-110"/>
      <use x="178.455078" xlink:href="#DejaVuSans-100"/>
      <use x="241.931641" xlink:href="#DejaVuSans-111"/>
      <use x="303.113281" xlink:href="#DejaVuSans-115"/>
      <use x="355.212891" xlink:href="#DejaVuSans-32"/>
      <use x="387" xlink:href="#DejaVuSans-55"/>
     </g>
    </g>
    <g id="line2d_42">
     <path d="M 326.295 210.482687 
L 346.295 210.482687 
" style="fill:none;stroke:#7f7f7f;stroke-linecap:square;stroke-width:1.5;"/>
    </g>
    <g id="line2d_43"/>
    <g id="text_28">
     <!-- Fondos 8 -->
     <g transform="translate(354.295 213.982687)scale(0.1 -0.1)">
      <defs>
       <path d="M 31.78125 34.625 
Q 24.75 34.625 20.71875 30.859375 
Q 16.703125 27.09375 16.703125 20.515625 
Q 16.703125 13.921875 20.71875 10.15625 
Q 24.75 6.390625 31.78125 6.390625 
Q 38.8125 6.390625 42.859375 10.171875 
Q 46.921875 13.96875 46.921875 20.515625 
Q 46.921875 27.09375 42.890625 30.859375 
Q 38.875 34.625 31.78125 34.625 
z
M 21.921875 38.8125 
Q 15.578125 40.375 12.03125 44.71875 
Q 8.5 49.078125 8.5 55.328125 
Q 8.5 64.0625 14.71875 69.140625 
Q 20.953125 74.21875 31.78125 74.21875 
Q 42.671875 74.21875 48.875 69.140625 
Q 55.078125 64.0625 55.078125 55.328125 
Q 55.078125 49.078125 51.53125 44.71875 
Q 48 40.375 41.703125 38.8125 
Q 48.828125 37.15625 52.796875 32.3125 
Q 56.78125 27.484375 56.78125 20.515625 
Q 56.78125 9.90625 50.3125 4.234375 
Q 43.84375 -1.421875 31.78125 -1.421875 
Q 19.734375 -1.421875 13.25 4.234375 
Q 6.78125 9.90625 6.78125 20.515625 
Q 6.78125 27.484375 10.78125 32.3125 
Q 14.796875 37.15625 21.921875 38.8125 
z
M 18.3125 54.390625 
Q 18.3125 48.734375 21.84375 45.5625 
Q 25.390625 42.390625 31.78125 42.390625 
Q 38.140625 42.390625 41.71875 45.5625 
Q 45.3125 48.734375 45.3125 54.390625 
Q 45.3125 60.0625 41.71875 63.234375 
Q 38.140625 66.40625 31.78125 66.40625 
Q 25.390625 66.40625 21.84375 63.234375 
Q 18.3125 60.0625 18.3125 54.390625 
z
" id="DejaVuSans-56"/>
      </defs>
      <use xlink:href="#DejaVuSans-70"/>
      <use x="53.894531" xlink:href="#DejaVuSans-111"/>
      <use x="115.076172" xlink:href="#DejaVuSans-110"/>
      <use x="178.455078" xlink:href="#DejaVuSans-100"/>
      <use x="241.931641" xlink:href="#DejaVuSans-111"/>
      <use x="303.113281" xlink:href="#DejaVuSans-115"/>
      <use x="355.212891" xlink:href="#DejaVuSans-32"/>
      <use x="387" xlink:href="#DejaVuSans-56"/>
     </g>
    </g>
    <g id="line2d_44">
     <path d="M 326.295 225.160813 
L 346.295 225.160813 
" style="fill:none;stroke:#bcbd22;stroke-linecap:square;stroke-width:1.5;"/>
    </g>
    <g id="line2d_45"/>
    <g id="text_29">
     <!-- Fondos 9 -->
     <g transform="translate(354.295 228.660813)scale(0.1 -0.1)">
      <defs>
       <path d="M 10.984375 1.515625 
L 10.984375 10.5 
Q 14.703125 8.734375 18.5 7.8125 
Q 22.3125 6.890625 25.984375 6.890625 
Q 35.75 6.890625 40.890625 13.453125 
Q 46.046875 20.015625 46.78125 33.40625 
Q 43.953125 29.203125 39.59375 26.953125 
Q 35.25 24.703125 29.984375 24.703125 
Q 19.046875 24.703125 12.671875 31.3125 
Q 6.296875 37.9375 6.296875 49.421875 
Q 6.296875 60.640625 12.9375 67.421875 
Q 19.578125 74.21875 30.609375 74.21875 
Q 43.265625 74.21875 49.921875 64.515625 
Q 56.59375 54.828125 56.59375 36.375 
Q 56.59375 19.140625 48.40625 8.859375 
Q 40.234375 -1.421875 26.421875 -1.421875 
Q 22.703125 -1.421875 18.890625 -0.6875 
Q 15.09375 0.046875 10.984375 1.515625 
z
M 30.609375 32.421875 
Q 37.25 32.421875 41.125 36.953125 
Q 45.015625 41.5 45.015625 49.421875 
Q 45.015625 57.28125 41.125 61.84375 
Q 37.25 66.40625 30.609375 66.40625 
Q 23.96875 66.40625 20.09375 61.84375 
Q 16.21875 57.28125 16.21875 49.421875 
Q 16.21875 41.5 20.09375 36.953125 
Q 23.96875 32.421875 30.609375 32.421875 
z
" id="DejaVuSans-57"/>
      </defs>
      <use xlink:href="#DejaVuSans-70"/>
      <use x="53.894531" xlink:href="#DejaVuSans-111"/>
      <use x="115.076172" xlink:href="#DejaVuSans-110"/>
      <use x="178.455078" xlink:href="#DejaVuSans-100"/>
      <use x="241.931641" xlink:href="#DejaVuSans-111"/>
      <use x="303.113281" xlink:href="#DejaVuSans-115"/>
      <use x="355.212891" xlink:href="#DejaVuSans-32"/>
      <use x="387" xlink:href="#DejaVuSans-57"/>
     </g>
    </g>
    <g id="line2d_46">
     <path d="M 326.295 239.838937 
L 346.295 239.838937 
" style="fill:none;stroke:#17becf;stroke-linecap:square;stroke-width:1.5;"/>
    </g>
    <g id="line2d_47"/>
    <g id="text_30">
     <!-- Fondos 10 -->
     <g transform="translate(354.295 243.338937)scale(0.1 -0.1)">
      <use xlink:href="#DejaVuSans-70"/>
      <use x="53.894531" xlink:href="#DejaVuSans-111"/>
      <use x="115.076172" xlink:href="#DejaVuSans-110"/>
      <use x="178.455078" xlink:href="#DejaVuSans-100"/>
      <use x="241.931641" xlink:href="#DejaVuSans-111"/>
      <use x="303.113281" xlink:href="#DejaVuSans-115"/>
      <use x="355.212891" xlink:href="#DejaVuSans-32"/>
      <use x="387" xlink:href="#DejaVuSans-49"/>
      <use x="450.623047" xlink:href="#DejaVuSans-48"/>
     </g>
    </g>
   </g>
  </g>
 </g>
 <defs>
  <clipPath id="p9cea77d86f">
   <rect height="266.112" width="357.12" x="57.6" y="41.472"/>
  </clipPath>
 </defs>
</svg>
