<?xml version="1.0" encoding="utf-8" standalone="no"?>
<!DOCTYPE svg PUBLIC "-//W3C//DTD SVG 1.1//EN"
  "http://www.w3.org/Graphics/SVG/1.1/DTD/svg11.dtd">
<!-- Created with matplotlib (http://matplotlib.org/) -->
<svg height="345.6pt" version="1.1" viewBox="0 0 460.8 345.6" width="460.8pt" xmlns="http://www.w3.org/2000/svg" xmlns:xlink="http://www.w3.org/1999/xlink">
 <defs>
  <style type="text/css">
*{stroke-linecap:butt;stroke-linejoin:round;}
  </style>
 </defs>
 <g id="figure_1">
  <g id="patch_1">
   <path d="M 0 345.6 
L 460.8 345.6 
L 460.8 0 
L 0 0 
z
" style="fill:#ffffff;"/>
  </g>
  <g id="axes_1">
   <g id="patch_2">
    <path d="M 57.6 307.584 
L 414.72 307.584 
L 414.72 41.472 
L 57.6 41.472 
z
" style="fill:#ffffff;"/>
   </g>
   <g id="matplotlib.axis_1">
    <g id="xtick_1">
     <g id="line2d_1">
      <defs>
       <path d="M 0 0 
L 0 3.5 
" id="me0662c664b" style="stroke:#000000;stroke-width:0.8;"/>
      </defs>
      <g>
       <use style="stroke:#000000;stroke-width:0.8;" x="57.528562" xlink:href="#me0662c664b" y="307.584"/>
      </g>
     </g>
     <g id="text_1">
      <!-- 0 -->
      <defs>
       <path d="M 31.78125 66.40625 
Q 24.171875 66.40625 20.328125 58.90625 
Q 16.5 51.421875 16.5 36.375 
Q 16.5 21.390625 20.328125 13.890625 
Q 24.171875 6.390625 31.78125 6.390625 
Q 39.453125 6.390625 43.28125 13.890625 
Q 47.125 21.390625 47.125 36.375 
Q 47.125 51.421875 43.28125 58.90625 
Q 39.453125 66.40625 31.78125 66.40625 
z
M 31.78125 74.21875 
Q 44.046875 74.21875 50.515625 64.515625 
Q 56.984375 54.828125 56.984375 36.375 
Q 56.984375 17.96875 50.515625 8.265625 
Q 44.046875 -1.421875 31.78125 -1.421875 
Q 19.53125 -1.421875 13.0625 8.265625 
Q 6.59375 17.96875 6.59375 36.375 
Q 6.59375 54.828125 13.0625 64.515625 
Q 19.53125 74.21875 31.78125 74.21875 
z
" id="DejaVuSans-30"/>
      </defs>
      <g transform="translate(54.347312 322.182437)scale(0.1 -0.1)">
       <use xlink:href="#DejaVuSans-30"/>
      </g>
     </g>
    </g>
    <g id="xtick_2">
     <g id="line2d_2">
      <g>
       <use style="stroke:#000000;stroke-width:0.8;" x="128.966849" xlink:href="#me0662c664b" y="307.584"/>
      </g>
     </g>
     <g id="text_2">
      <!-- 1000 -->
      <defs>
       <path d="M 12.40625 8.296875 
L 28.515625 8.296875 
L 28.515625 63.921875 
L 10.984375 60.40625 
L 10.984375 69.390625 
L 28.421875 72.90625 
L 38.28125 72.90625 
L 38.28125 8.296875 
L 54.390625 8.296875 
L 54.390625 0 
L 12.40625 0 
z
" id="DejaVuSans-31"/>
      </defs>
      <g transform="translate(116.241849 322.182437)scale(0.1 -0.1)">
       <use xlink:href="#DejaVuSans-31"/>
       <use x="63.623047" xlink:href="#DejaVuSans-30"/>
       <use x="127.246094" xlink:href="#DejaVuSans-30"/>
       <use x="190.869141" xlink:href="#DejaVuSans-30"/>
      </g>
     </g>
    </g>
    <g id="xtick_3">
     <g id="line2d_3">
      <g>
       <use style="stroke:#000000;stroke-width:0.8;" x="200.405137" xlink:href="#me0662c664b" y="307.584"/>
      </g>
     </g>
     <g id="text_3">
      <!-- 2000 -->
      <defs>
       <path d="M 19.1875 8.296875 
L 53.609375 8.296875 
L 53.609375 0 
L 7.328125 0 
L 7.328125 8.296875 
Q 12.9375 14.109375 22.625 23.890625 
Q 32.328125 33.6875 34.8125 36.53125 
Q 39.546875 41.84375 41.421875 45.53125 
Q 43.3125 49.21875 43.3125 52.78125 
Q 43.3125 58.59375 39.234375 62.25 
Q 35.15625 65.921875 28.609375 65.921875 
Q 23.96875 65.921875 18.8125 64.3125 
Q 13.671875 62.703125 7.8125 59.421875 
L 7.8125 69.390625 
Q 13.765625 71.78125 18.9375 73 
Q 24.125 74.21875 28.421875 74.21875 
Q 39.75 74.21875 46.484375 68.546875 
Q 53.21875 62.890625 53.21875 53.421875 
Q 53.21875 48.921875 51.53125 44.890625 
Q 49.859375 40.875 45.40625 35.40625 
Q 44.1875 33.984375 37.640625 27.21875 
Q 31.109375 20.453125 19.1875 8.296875 
z
" id="DejaVuSans-32"/>
      </defs>
      <g transform="translate(187.680137 322.182437)scale(0.1 -0.1)">
       <use xlink:href="#DejaVuSans-32"/>
       <use x="63.623047" xlink:href="#DejaVuSans-30"/>
       <use x="127.246094" xlink:href="#DejaVuSans-30"/>
       <use x="190.869141" xlink:href="#DejaVuSans-30"/>
      </g>
     </g>
    </g>
    <g id="xtick_4">
     <g id="line2d_4">
      <g>
       <use style="stroke:#000000;stroke-width:0.8;" x="271.843425" xlink:href="#me0662c664b" y="307.584"/>
      </g>
     </g>
     <g id="text_4">
      <!-- 3000 -->
      <defs>
       <path d="M 40.578125 39.3125 
Q 47.65625 37.796875 51.625 33 
Q 55.609375 28.21875 55.609375 21.1875 
Q 55.609375 10.40625 48.1875 4.484375 
Q 40.765625 -1.421875 27.09375 -1.421875 
Q 22.515625 -1.421875 17.65625 -0.515625 
Q 12.796875 0.390625 7.625 2.203125 
L 7.625 11.71875 
Q 11.71875 9.328125 16.59375 8.109375 
Q 21.484375 6.890625 26.8125 6.890625 
Q 36.078125 6.890625 40.9375 10.546875 
Q 45.796875 14.203125 45.796875 21.1875 
Q 45.796875 27.640625 41.28125 31.265625 
Q 36.765625 34.90625 28.71875 34.90625 
L 20.21875 34.90625 
L 20.21875 43.015625 
L 29.109375 43.015625 
Q 36.375 43.015625 40.234375 45.921875 
Q 44.09375 48.828125 44.09375 54.296875 
Q 44.09375 59.90625 40.109375 62.90625 
Q 36.140625 65.921875 28.71875 65.921875 
Q 24.65625 65.921875 20.015625 65.03125 
Q 15.375 64.15625 9.8125 62.3125 
L 9.8125 71.09375 
Q 15.4375 72.65625 20.34375 73.4375 
Q 25.25 74.21875 29.59375 74.21875 
Q 40.828125 74.21875 47.359375 69.109375 
Q 53.90625 64.015625 53.90625 55.328125 
Q 53.90625 49.265625 50.4375 45.09375 
Q 46.96875 40.921875 40.578125 39.3125 
z
" id="DejaVuSans-33"/>
      </defs>
      <g transform="translate(259.118425 322.182437)scale(0.1 -0.1)">
       <use xlink:href="#DejaVuSans-33"/>
       <use x="63.623047" xlink:href="#DejaVuSans-30"/>
       <use x="127.246094" xlink:href="#DejaVuSans-30"/>
       <use x="190.869141" xlink:href="#DejaVuSans-30"/>
      </g>
     </g>
    </g>
    <g id="xtick_5">
     <g id="line2d_5">
      <g>
       <use style="stroke:#000000;stroke-width:0.8;" x="343.281712" xlink:href="#me0662c664b" y="307.584"/>
      </g>
     </g>
     <g id="text_5">
      <!-- 4000 -->
      <defs>
       <path d="M 37.796875 64.3125 
L 12.890625 25.390625 
L 37.796875 25.390625 
z
M 35.203125 72.90625 
L 47.609375 72.90625 
L 47.609375 25.390625 
L 58.015625 25.390625 
L 58.015625 17.1875 
L 47.609375 17.1875 
L 47.609375 0 
L 37.796875 0 
L 37.796875 17.1875 
L 4.890625 17.1875 
L 4.890625 26.703125 
z
" id="DejaVuSans-34"/>
      </defs>
      <g transform="translate(330.556712 322.182437)scale(0.1 -0.1)">
       <use xlink:href="#DejaVuSans-34"/>
       <use x="63.623047" xlink:href="#DejaVuSans-30"/>
       <use x="127.246094" xlink:href="#DejaVuSans-30"/>
       <use x="190.869141" xlink:href="#DejaVuSans-30"/>
      </g>
     </g>
    </g>
    <g id="xtick_6">
     <g id="line2d_6">
      <g>
       <use style="stroke:#000000;stroke-width:0.8;" x="414.72" xlink:href="#me0662c664b" y="307.584"/>
      </g>
     </g>
     <g id="text_6">
      <!-- 5000 -->
      <defs>
       <path d="M 10.796875 72.90625 
L 49.515625 72.90625 
L 49.515625 64.59375 
L 19.828125 64.59375 
L 19.828125 46.734375 
Q 21.96875 47.46875 24.109375 47.828125 
Q 26.265625 48.1875 28.421875 48.1875 
Q 40.625 48.1875 47.75 41.5 
Q 54.890625 34.8125 54.890625 23.390625 
Q 54.890625 11.625 47.5625 5.09375 
Q 40.234375 -1.421875 26.90625 -1.421875 
Q 22.3125 -1.421875 17.546875 -0.640625 
Q 12.796875 0.140625 7.71875 1.703125 
L 7.71875 11.625 
Q 12.109375 9.234375 16.796875 8.0625 
Q 21.484375 6.890625 26.703125 6.890625 
Q 35.15625 6.890625 40.078125 11.328125 
Q 45.015625 15.765625 45.015625 23.390625 
Q 45.015625 31 40.078125 35.4375 
Q 35.15625 39.890625 26.703125 39.890625 
Q 22.75 39.890625 18.8125 39.015625 
Q 14.890625 38.140625 10.796875 36.28125 
z
" id="DejaVuSans-35"/>
      </defs>
      <g transform="translate(401.995 322.182437)scale(0.1 -0.1)">
       <use xlink:href="#DejaVuSans-35"/>
       <use x="63.623047" xlink:href="#DejaVuSans-30"/>
       <use x="127.246094" xlink:href="#DejaVuSans-30"/>
       <use x="190.869141" xlink:href="#DejaVuSans-30"/>
      </g>
     </g>
    </g>
    <g id="text_7">
     <!-- Tiradas -->
     <defs>
      <path d="M -0.296875 72.90625 
L 61.375 72.90625 
L 61.375 64.59375 
L 35.5 64.59375 
L 35.5 0 
L 25.59375 0 
L 25.59375 64.59375 
L -0.296875 64.59375 
z
" id="DejaVuSans-54"/>
      <path d="M 9.421875 54.6875 
L 18.40625 54.6875 
L 18.40625 0 
L 9.421875 0 
z
M 9.421875 75.984375 
L 18.40625 75.984375 
L 18.40625 64.59375 
L 9.421875 64.59375 
z
" id="DejaVuSans-69"/>
      <path d="M 41.109375 46.296875 
Q 39.59375 47.171875 37.8125 47.578125 
Q 36.03125 48 33.890625 48 
Q 26.265625 48 22.1875 43.046875 
Q 18.109375 38.09375 18.109375 28.8125 
L 18.109375 0 
L 9.078125 0 
L 9.078125 54.6875 
L 18.109375 54.6875 
L 18.109375 46.1875 
Q 20.953125 51.171875 25.484375 53.578125 
Q 30.03125 56 36.53125 56 
Q 37.453125 56 38.578125 55.875 
Q 39.703125 55.765625 41.0625 55.515625 
z
" id="DejaVuSans-72"/>
      <path d="M 34.28125 27.484375 
Q 23.390625 27.484375 19.1875 25 
Q 14.984375 22.515625 14.984375 16.5 
Q 14.984375 11.71875 18.140625 8.90625 
Q 21.296875 6.109375 26.703125 6.109375 
Q 34.1875 6.109375 38.703125 11.40625 
Q 43.21875 16.703125 43.21875 25.484375 
L 43.21875 27.484375 
z
M 52.203125 31.203125 
L 52.203125 0 
L 43.21875 0 
L 43.21875 8.296875 
Q 40.140625 3.328125 35.546875 0.953125 
Q 30.953125 -1.421875 24.3125 -1.421875 
Q 15.921875 -1.421875 10.953125 3.296875 
Q 6 8.015625 6 15.921875 
Q 6 25.140625 12.171875 29.828125 
Q 18.359375 34.515625 30.609375 34.515625 
L 43.21875 34.515625 
L 43.21875 35.40625 
Q 43.21875 41.609375 39.140625 45 
Q 35.0625 48.390625 27.6875 48.390625 
Q 23 48.390625 18.546875 47.265625 
Q 14.109375 46.140625 10.015625 43.890625 
L 10.015625 52.203125 
Q 14.9375 54.109375 19.578125 55.046875 
Q 24.21875 56 28.609375 56 
Q 40.484375 56 46.34375 49.84375 
Q 52.203125 43.703125 52.203125 31.203125 
z
" id="DejaVuSans-61"/>
      <path d="M 45.40625 46.390625 
L 45.40625 75.984375 
L 54.390625 75.984375 
L 54.390625 0 
L 45.40625 0 
L 45.40625 8.203125 
Q 42.578125 3.328125 38.25 0.953125 
Q 33.9375 -1.421875 27.875 -1.421875 
Q 17.96875 -1.421875 11.734375 6.484375 
Q 5.515625 14.40625 5.515625 27.296875 
Q 5.515625 40.1875 11.734375 48.09375 
Q 17.96875 56 27.875 56 
Q 33.9375 56 38.25 53.625 
Q 42.578125 51.265625 45.40625 46.390625 
z
M 14.796875 27.296875 
Q 14.796875 17.390625 18.875 11.75 
Q 22.953125 6.109375 30.078125 6.109375 
Q 37.203125 6.109375 41.296875 11.75 
Q 45.40625 17.390625 45.40625 27.296875 
Q 45.40625 37.203125 41.296875 42.84375 
Q 37.203125 48.484375 30.078125 48.484375 
Q 22.953125 48.484375 18.875 42.84375 
Q 14.796875 37.203125 14.796875 27.296875 
z
" id="DejaVuSans-64"/>
      <path d="M 44.28125 53.078125 
L 44.28125 44.578125 
Q 40.484375 46.53125 36.375 47.5 
Q 32.28125 48.484375 27.875 48.484375 
Q 21.1875 48.484375 17.84375 46.4375 
Q 14.5 44.390625 14.5 40.28125 
Q 14.5 37.15625 16.890625 35.375 
Q 19.28125 33.59375 26.515625 31.984375 
L 29.59375 31.296875 
Q 39.15625 29.25 43.1875 25.515625 
Q 47.21875 21.78125 47.21875 15.09375 
Q 47.21875 7.46875 41.1875 3.015625 
Q 35.15625 -1.421875 24.609375 -1.421875 
Q 20.21875 -1.421875 15.453125 -0.5625 
Q 10.6875 0.296875 5.421875 2 
L 5.421875 11.28125 
Q 10.40625 8.6875 15.234375 7.390625 
Q 20.0625 6.109375 24.8125 6.109375 
Q 31.15625 6.109375 34.5625 8.28125 
Q 37.984375 10.453125 37.984375 14.40625 
Q 37.984375 18.0625 35.515625 20.015625 
Q 33.0625 21.96875 24.703125 23.78125 
L 21.578125 24.515625 
Q 13.234375 26.265625 9.515625 29.90625 
Q 5.8125 33.546875 5.8125 39.890625 
Q 5.8125 47.609375 11.28125 51.796875 
Q 16.75 56 26.8125 56 
Q 31.78125 56 36.171875 55.265625 
Q 40.578125 54.546875 44.28125 53.078125 
z
" id="DejaVuSans-73"/>
     </defs>
     <g transform="translate(217.756875 335.860562)scale(0.1 -0.1)">
      <use xlink:href="#DejaVuSans-54"/>
      <use x="61.037109" xlink:href="#DejaVuSans-69"/>
      <use x="88.820312" xlink:href="#DejaVuSans-72"/>
      <use x="129.933594" xlink:href="#DejaVuSans-61"/>
      <use x="191.212891" xlink:href="#DejaVuSans-64"/>
      <use x="254.689453" xlink:href="#DejaVuSans-61"/>
      <use x="315.96875" xlink:href="#DejaVuSans-73"/>
     </g>
    </g>
   </g>
   <g id="matplotlib.axis_2">
    <g id="ytick_1">
     <g id="line2d_7">
      <defs>
       <path d="M 0 0 
L -3.5 0 
" id="med2db89fea" style="stroke:#000000;stroke-width:0.8;"/>
      </defs>
      <g>
       <use style="stroke:#000000;stroke-width:0.8;" x="57.6" xlink:href="#med2db89fea" y="295.488"/>
      </g>
     </g>
     <g id="text_8">
      <!-- 0 -->
      <g transform="translate(44.2375 299.287219)scale(0.1 -0.1)">
       <use xlink:href="#DejaVuSans-30"/>
      </g>
     </g>
    </g>
    <g id="ytick_2">
     <g id="line2d_8">
      <g>
       <use style="stroke:#000000;stroke-width:0.8;" x="57.6" xlink:href="#med2db89fea" y="259.440318"/>
      </g>
     </g>
     <g id="text_9">
      <!-- 20 -->
      <g transform="translate(37.875 263.239537)scale(0.1 -0.1)">
       <use xlink:href="#DejaVuSans-32"/>
       <use x="63.623047" xlink:href="#DejaVuSans-30"/>
      </g>
     </g>
    </g>
    <g id="ytick_3">
     <g id="line2d_9">
      <g>
       <use style="stroke:#000000;stroke-width:0.8;" x="57.6" xlink:href="#med2db89fea" y="223.392636"/>
      </g>
     </g>
     <g id="text_10">
      <!-- 40 -->
      <g transform="translate(37.875 227.191855)scale(0.1 -0.1)">
       <use xlink:href="#DejaVuSans-34"/>
       <use x="63.623047" xlink:href="#DejaVuSans-30"/>
      </g>
     </g>
    </g>
    <g id="ytick_4">
     <g id="line2d_10">
      <g>
       <use style="stroke:#000000;stroke-width:0.8;" x="57.6" xlink:href="#med2db89fea" y="187.344954"/>
      </g>
     </g>
     <g id="text_11">
      <!-- 60 -->
      <defs>
       <path d="M 33.015625 40.375 
Q 26.375 40.375 22.484375 35.828125 
Q 18.609375 31.296875 18.609375 23.390625 
Q 18.609375 15.53125 22.484375 10.953125 
Q 26.375 6.390625 33.015625 6.390625 
Q 39.65625 6.390625 43.53125 10.953125 
Q 47.40625 15.53125 47.40625 23.390625 
Q 47.40625 31.296875 43.53125 35.828125 
Q 39.65625 40.375 33.015625 40.375 
z
M 52.59375 71.296875 
L 52.59375 62.3125 
Q 48.875 64.0625 45.09375 64.984375 
Q 41.3125 65.921875 37.59375 65.921875 
Q 27.828125 65.921875 22.671875 59.328125 
Q 17.53125 52.734375 16.796875 39.40625 
Q 19.671875 43.65625 24.015625 45.921875 
Q 28.375 48.1875 33.59375 48.1875 
Q 44.578125 48.1875 50.953125 41.515625 
Q 57.328125 34.859375 57.328125 23.390625 
Q 57.328125 12.15625 50.6875 5.359375 
Q 44.046875 -1.421875 33.015625 -1.421875 
Q 20.359375 -1.421875 13.671875 8.265625 
Q 6.984375 17.96875 6.984375 36.375 
Q 6.984375 53.65625 15.1875 63.9375 
Q 23.390625 74.21875 37.203125 74.21875 
Q 40.921875 74.21875 44.703125 73.484375 
Q 48.484375 72.75 52.59375 71.296875 
z
" id="DejaVuSans-36"/>
      </defs>
      <g transform="translate(37.875 191.144172)scale(0.1 -0.1)">
       <use xlink:href="#DejaVuSans-36"/>
       <use x="63.623047" xlink:href="#DejaVuSans-30"/>
      </g>
     </g>
    </g>
    <g id="ytick_5">
     <g id="line2d_11">
      <g>
       <use style="stroke:#000000;stroke-width:0.8;" x="57.6" xlink:href="#med2db89fea" y="151.297272"/>
      </g>
     </g>
     <g id="text_12">
      <!-- 80 -->
      <defs>
       <path d="M 31.78125 34.625 
Q 24.75 34.625 20.71875 30.859375 
Q 16.703125 27.09375 16.703125 20.515625 
Q 16.703125 13.921875 20.71875 10.15625 
Q 24.75 6.390625 31.78125 6.390625 
Q 38.8125 6.390625 42.859375 10.171875 
Q 46.921875 13.96875 46.921875 20.515625 
Q 46.921875 27.09375 42.890625 30.859375 
Q 38.875 34.625 31.78125 34.625 
z
M 21.921875 38.8125 
Q 15.578125 40.375 12.03125 44.71875 
Q 8.5 49.078125 8.5 55.328125 
Q 8.5 64.0625 14.71875 69.140625 
Q 20.953125 74.21875 31.78125 74.21875 
Q 42.671875 74.21875 48.875 69.140625 
Q 55.078125 64.0625 55.078125 55.328125 
Q 55.078125 49.078125 51.53125 44.71875 
Q 48 40.375 41.703125 38.8125 
Q 48.828125 37.15625 52.796875 32.3125 
Q 56.78125 27.484375 56.78125 20.515625 
Q 56.78125 9.90625 50.3125 4.234375 
Q 43.84375 -1.421875 31.78125 -1.421875 
Q 19.734375 -1.421875 13.25 4.234375 
Q 6.78125 9.90625 6.78125 20.515625 
Q 6.78125 27.484375 10.78125 32.3125 
Q 14.796875 37.15625 21.921875 38.8125 
z
M 18.3125 54.390625 
Q 18.3125 48.734375 21.84375 45.5625 
Q 25.390625 42.390625 31.78125 42.390625 
Q 38.140625 42.390625 41.71875 45.5625 
Q 45.3125 48.734375 45.3125 54.390625 
Q 45.3125 60.0625 41.71875 63.234375 
Q 38.140625 66.40625 31.78125 66.40625 
Q 25.390625 66.40625 21.84375 63.234375 
Q 18.3125 60.0625 18.3125 54.390625 
z
" id="DejaVuSans-38"/>
      </defs>
      <g transform="translate(37.875 155.09649)scale(0.1 -0.1)">
       <use xlink:href="#DejaVuSans-38"/>
       <use x="63.623047" xlink:href="#DejaVuSans-30"/>
      </g>
     </g>
    </g>
    <g id="ytick_6">
     <g id="line2d_12">
      <g>
       <use style="stroke:#000000;stroke-width:0.8;" x="57.6" xlink:href="#med2db89fea" y="115.249589"/>
      </g>
     </g>
     <g id="text_13">
      <!-- 100 -->
      <g transform="translate(31.5125 119.048808)scale(0.1 -0.1)">
       <use xlink:href="#DejaVuSans-31"/>
       <use x="63.623047" xlink:href="#DejaVuSans-30"/>
       <use x="127.246094" xlink:href="#DejaVuSans-30"/>
      </g>
     </g>
    </g>
    <g id="ytick_7">
     <g id="line2d_13">
      <g>
       <use style="stroke:#000000;stroke-width:0.8;" x="57.6" xlink:href="#med2db89fea" y="79.201907"/>
      </g>
     </g>
     <g id="text_14">
      <!-- 120 -->
      <g transform="translate(31.5125 83.001126)scale(0.1 -0.1)">
       <use xlink:href="#DejaVuSans-31"/>
       <use x="63.623047" xlink:href="#DejaVuSans-32"/>
       <use x="127.246094" xlink:href="#DejaVuSans-30"/>
      </g>
     </g>
    </g>
    <g id="ytick_8">
     <g id="line2d_14">
      <g>
       <use style="stroke:#000000;stroke-width:0.8;" x="57.6" xlink:href="#med2db89fea" y="43.154225"/>
      </g>
     </g>
     <g id="text_15">
      <!-- 140 -->
      <g transform="translate(31.5125 46.953444)scale(0.1 -0.1)">
       <use xlink:href="#DejaVuSans-31"/>
       <use x="63.623047" xlink:href="#DejaVuSans-34"/>
       <use x="127.246094" xlink:href="#DejaVuSans-30"/>
      </g>
     </g>
    </g>
    <g id="text_16">
     <!-- Valores -->
     <defs>
      <path d="M 28.609375 0 
L 0.78125 72.90625 
L 11.078125 72.90625 
L 34.1875 11.53125 
L 57.328125 72.90625 
L 67.578125 72.90625 
L 39.796875 0 
z
" id="DejaVuSans-56"/>
      <path d="M 9.421875 75.984375 
L 18.40625 75.984375 
L 18.40625 0 
L 9.421875 0 
z
" id="DejaVuSans-6c"/>
      <path d="M 30.609375 48.390625 
Q 23.390625 48.390625 19.1875 42.75 
Q 14.984375 37.109375 14.984375 27.296875 
Q 14.984375 17.484375 19.15625 11.84375 
Q 23.34375 6.203125 30.609375 6.203125 
Q 37.796875 6.203125 41.984375 11.859375 
Q 46.1875 17.53125 46.1875 27.296875 
Q 46.1875 37.015625 41.984375 42.703125 
Q 37.796875 48.390625 30.609375 48.390625 
z
M 30.609375 56 
Q 42.328125 56 49.015625 48.375 
Q 55.71875 40.765625 55.71875 27.296875 
Q 55.71875 13.875 49.015625 6.21875 
Q 42.328125 -1.421875 30.609375 -1.421875 
Q 18.84375 -1.421875 12.171875 6.21875 
Q 5.515625 13.875 5.515625 27.296875 
Q 5.515625 40.765625 12.171875 48.375 
Q 18.84375 56 30.609375 56 
z
" id="DejaVuSans-6f"/>
      <path d="M 56.203125 29.59375 
L 56.203125 25.203125 
L 14.890625 25.203125 
Q 15.484375 15.921875 20.484375 11.0625 
Q 25.484375 6.203125 34.421875 6.203125 
Q 39.59375 6.203125 44.453125 7.46875 
Q 49.3125 8.734375 54.109375 11.28125 
L 54.109375 2.78125 
Q 49.265625 0.734375 44.1875 -0.34375 
Q 39.109375 -1.421875 33.890625 -1.421875 
Q 20.796875 -1.421875 13.15625 6.1875 
Q 5.515625 13.8125 5.515625 26.8125 
Q 5.515625 40.234375 12.765625 48.109375 
Q 20.015625 56 32.328125 56 
Q 43.359375 56 49.78125 48.890625 
Q 56.203125 41.796875 56.203125 29.59375 
z
M 47.21875 32.234375 
Q 47.125 39.59375 43.09375 43.984375 
Q 39.0625 48.390625 32.421875 48.390625 
Q 24.90625 48.390625 20.390625 44.140625 
Q 15.875 39.890625 15.1875 32.171875 
z
" id="DejaVuSans-65"/>
     </defs>
     <g transform="translate(25.432812 193.1905)rotate(-90)scale(0.1 -0.1)">
      <use xlink:href="#DejaVuSans-56"/>
      <use x="68.298828" xlink:href="#DejaVuSans-61"/>
      <use x="129.578125" xlink:href="#DejaVuSans-6c"/>
      <use x="157.361328" xlink:href="#DejaVuSans-6f"/>
      <use x="218.542969" xlink:href="#DejaVuSans-72"/>
      <use x="259.625" xlink:href="#DejaVuSans-65"/>
      <use x="321.148438" xlink:href="#DejaVuSans-73"/>
     </g>
    </g>
   </g>
   <g id="line2d_15">
    <path clip-path="url(#p0a189a8c07)" d="M 57.6 100.980715 
L 414.72 100.980715 
L 414.72 100.980715 
" style="fill:none;stroke:#1f77b4;stroke-linecap:square;stroke-width:1.5;"/>
   </g>
   <g id="line2d_16">
    <path clip-path="url(#p0a189a8c07)" d="M 57.6 295.488 
L 57.671438 250.428397 
L 57.742877 53.568 
L 57.814315 100.49257 
L 57.885753 135.436291 
L 57.957191 113.046675 
L 58.100068 148.621858 
L 58.314383 95.468051 
L 58.385821 102.082172 
L 58.457259 115.676189 
L 58.528698 89.455266 
L 58.600136 103.185632 
L 58.671574 108.779312 
L 58.743013 91.974512 
L 58.814451 92.441642 
L 58.885889 102.258444 
L 58.957327 90.146885 
L 59.028766 93.522891 
L 59.171642 90.23427 
L 59.600272 126.436801 
L 59.67171 132.013764 
L 60.171778 95.993439 
L 60.243217 99.427553 
L 60.314655 90.035172 
L 60.386093 92.742318 
L 60.457532 96.719665 
L 60.671846 80.482941 
L 60.814723 76.547735 
L 61.029038 88.600428 
L 61.100476 81.421724 
L 61.314791 88.630256 
L 61.529106 72.001567 
L 61.671982 69.439351 
L 61.814859 76.432744 
L 61.886297 75.919737 
L 61.957736 77.932174 
L 62.100612 71.042335 
L 62.17205 74.088682 
L 62.314927 70.779807 
L 62.386365 73.880898 
L 62.457804 71.491898 
L 62.529242 74.684544 
L 62.672118 69.447685 
L 62.814995 74.029104 
L 62.886433 69.75389 
L 63.02931 73.62239 
L 63.100748 72.053695 
L 63.386501 82.040046 
L 63.600816 75.276826 
L 63.886569 78.578889 
L 64.029446 82.070138 
L 64.529514 67.909419 
L 64.600952 67.550867 
L 64.815267 65.58528 
L 64.958144 63.196416 
L 65.172458 68.848864 
L 65.243897 68.055837 
L 65.315335 69.984733 
L 65.386773 68.818983 
L 65.458212 70.060231 
L 65.601088 68.2281 
L 65.886841 74.213586 
L 66.101156 78.145635 
L 66.244033 80.517851 
L 66.315471 78.077279 
L 66.458348 80.60644 
L 66.886977 70.613144 
L 66.958416 71.679974 
L 67.029854 70.415476 
L 67.244169 73.054253 
L 67.315607 70.268251 
L 67.672799 77.328729 
L 67.815675 76.056427 
L 67.887113 77.568489 
L 68.101428 73.320543 
L 68.244305 75.031511 
L 68.315743 74.81614 
L 68.387181 73.895312 
L 69.244441 83.510045 
L 69.315879 83.709026 
L 69.387317 81.511596 
L 69.458756 82.077036 
L 69.673071 85.105245 
L 69.744509 83.378068 
L 69.815947 84.380959 
L 69.887385 82.721281 
L 70.030262 84.793329 
L 70.316015 80.856404 
L 70.387453 80.788228 
L 70.53033 78.850398 
L 70.601768 79.753672 
L 70.673207 78.638875 
L 70.744645 79.368111 
L 70.816083 77.976926 
L 70.887522 78.395682 
L 70.95896 79.477538 
L 71.030398 78.694206 
L 71.101836 79.803784 
L 71.173275 78.161019 
L 71.316151 79.363521 
L 71.38759 79.109576 
L 71.459028 78.39023 
L 71.673343 74.838698 
L 71.744781 74.883941 
L 71.816219 75.74534 
L 71.887658 74.874954 
L 72.030534 75.583143 
L 72.101972 75.226623 
L 72.173411 73.238021 
L 72.244849 73.705392 
L 72.387726 75.40267 
L 72.459164 74.853425 
L 72.673479 76.651885 
L 72.887794 74.805065 
L 73.102108 77.203371 
L 73.316423 75.386644 
L 73.530738 77.868259 
L 73.673615 77.684088 
L 73.745053 78.49675 
L 73.816491 77.841105 
L 74.102244 80.110098 
L 74.173683 80.288603 
L 74.245121 80.245892 
L 74.387998 78.293628 
L 74.530874 79.646617 
L 74.888066 74.217536 
L 74.959504 75.000048 
L 75.030942 74.643775 
L 75.173819 72.213706 
L 75.245257 72.861796 
L 75.316695 71.938068 
L 75.388134 72.832022 
L 75.459572 72.07013 
L 75.745325 74.514073 
L 75.816763 74.35811 
L 75.888202 74.211261 
L 75.95964 73.296096 
L 76.245393 75.065146 
L 76.316831 74.939443 
L 76.38827 75.774672 
L 76.459708 75.306448 
L 76.602585 76.789273 
L 76.674023 75.843165 
L 76.959776 78.016973 
L 77.031214 78.135795 
L 77.102653 78.899773 
L 77.174091 78.388004 
L 77.245529 79.073311 
L 77.459844 76.744547 
L 77.531282 76.425592 
L 77.959912 80.132031 
L 78.03135 79.663745 
L 78.174227 80.691748 
L 78.245665 80.028539 
L 78.531418 81.832104 
L 78.602857 81.678044 
L 78.674295 82.250507 
L 78.745733 82.230339 
L 78.817171 81.587848 
L 78.88861 81.82094 
L 79.031486 83.22862 
L 79.174363 82.099221 
L 79.245801 82.203176 
L 79.317239 82.692284 
L 79.388678 81.87611 
L 79.460116 82.196784 
L 79.745869 84.309951 
L 79.817307 83.852456 
L 79.960184 84.6048 
L 80.031622 84.456858 
L 80.103061 83.834 
L 80.317375 85.541398 
L 80.460252 84.27785 
L 80.53169 84.911601 
L 80.603129 84.471284 
L 80.674567 85.117362 
L 80.817443 84.325904 
L 81.031758 85.359896 
L 81.103197 84.437577 
L 81.174635 85.030484 
L 81.246073 84.254613 
L 81.317512 84.882532 
L 81.38895 84.288445 
L 81.460388 84.728469 
L 81.603265 84.171497 
L 81.674703 84.790727 
L 81.746141 84.641729 
L 81.81758 84.925334 
L 81.889018 84.778338 
L 82.174771 81.750246 
L 82.317648 82.715455 
L 82.389086 82.429542 
L 82.460524 82.400536 
L 82.603401 83.530842 
L 82.817716 82.243607 
L 82.960592 83.076501 
L 83.103469 81.684875 
L 83.174907 82.018181 
L 83.88929 85.77884 
L 83.960728 85.734977 
L 84.175043 86.799931 
L 84.246481 85.832056 
L 84.31792 86.282069 
L 84.532234 87.338798 
L 84.675111 85.934898 
L 85.103741 88.469834 
L 85.175179 88.177544 
L 85.246617 88.625777 
L 85.389494 86.963547 
L 85.460932 87.17342 
L 85.746685 88.993939 
L 85.818124 88.406231 
L 85.961 86.957243 
L 86.032438 87.073861 
L 86.175315 87.023645 
L 86.38963 88.131547 
L 86.461068 88.642587 
L 86.603945 87.389775 
L 86.675383 87.410213 
L 86.961136 88.522861 
L 87.032575 88.454531 
L 87.104013 88.765955 
L 87.246889 87.09617 
L 87.461204 87.992145 
L 87.604081 88.667686 
L 87.675519 88.001247 
L 87.818396 88.95125 
L 87.889834 88.883402 
L 87.961272 88.801791 
L 88.032711 88.131176 
L 88.104149 88.439234 
L 88.532779 87.465377 
L 88.604217 86.814679 
L 88.675655 86.839664 
L 88.747093 86.563076 
L 88.818532 85.783544 
L 88.88997 86.085722 
L 89.175723 87.825696 
L 89.247161 87.049002 
L 89.3186 87.289403 
L 89.390038 86.909112 
L 89.604353 87.687769 
L 89.675791 87.522994 
L 89.747229 87.623732 
L 89.818668 86.867121 
L 89.890106 87.318077 
L 89.961544 87.059963 
L 90.032983 87.002502 
L 90.175859 85.85054 
L 90.390174 86.328215 
L 90.533051 85.081121 
L 90.604489 85.321331 
L 90.675927 85.354204 
L 90.890242 84.626754 
L 91.104557 85.593688 
L 91.247433 86.388661 
L 91.39031 85.858621 
L 91.461748 85.961696 
L 91.676063 86.673214 
L 91.747502 86.324451 
L 91.961816 87.214651 
L 92.033255 87.059158 
L 92.104693 87.37632 
L 92.390446 86.153276 
L 92.461884 86.507351 
L 92.604761 86.023321 
L 92.676199 86.051993 
L 92.890514 86.587132 
L 92.961952 86.615298 
L 93.319144 87.941367 
L 93.46202 87.656726 
L 93.533459 87.861839 
L 93.676335 87.352691 
L 93.747774 87.3648 
L 93.819212 87.22791 
L 94.176403 88.4655 
L 94.390718 87.165713 
L 94.462156 86.626255 
L 94.533595 86.921547 
L 94.605033 86.859924 
L 94.962224 88.357453 
L 95.033663 88.22278 
L 95.247978 88.845093 
L 95.533731 89.945581 
L 95.605169 89.164979 
L 95.676607 89.55032 
L 95.890922 88.929515 
L 95.96236 88.939996 
L 96.033799 88.516302 
L 96.105237 88.858316 
L 96.176675 88.333488 
L 96.533867 89.59203 
L 96.676743 89.123014 
L 96.748182 89.14112 
L 96.891058 88.514574 
L 97.033935 89.055106 
L 97.105373 88.924332 
L 97.319688 89.544761 
L 97.391126 89.131193 
L 97.534003 89.859475 
L 97.676879 88.73563 
L 97.748318 88.87448 
L 97.819756 88.949188 
L 97.891194 88.344451 
L 97.962633 88.611622 
L 98.105509 88.76143 
L 98.176947 89.117929 
L 98.248386 88.395653 
L 98.319824 88.663079 
L 98.534139 89.32962 
L 98.677015 88.716104 
L 98.89133 89.644274 
L 99.034207 88.871694 
L 99.177083 89.442114 
L 99.391398 88.98079 
L 99.462837 89.237958 
L 99.677151 88.437073 
L 99.74859 88.661383 
L 99.891466 88.48402 
L 99.962905 88.831357 
L 100.034343 88.532629 
L 100.462973 90.193905 
L 100.605849 89.923557 
L 100.677287 90.093902 
L 100.891602 89.112156 
L 100.963041 89.388705 
L 101.105917 88.176138 
L 101.177355 88.294537 
L 101.248794 88.5032 
L 101.320232 88.1479 
L 101.39167 88.430403 
L 101.463109 88.220495 
L 101.534547 88.338622 
L 101.8203 89.468201 
L 101.963177 89.07017 
L 102.177491 89.546976 
L 102.24893 89.25674 
L 102.320368 89.385713 
L 102.391806 89.705942 
L 102.534683 89.068037 
L 102.67756 89.65406 
L 102.748998 89.617607 
L 102.820436 89.325689 
L 102.891874 89.350641 
L 103.034751 89.997449 
L 103.106189 89.662111 
L 103.391942 90.538363 
L 103.534819 89.894445 
L 103.963449 91.318327 
L 104.106325 91.100583 
L 104.177764 91.177542 
L 104.392078 91.611496 
L 104.677832 91.08086 
L 104.74927 91.313883 
L 104.820708 90.862581 
L 104.892146 91.063202 
L 105.106461 91.575287 
L 105.320776 90.271661 
L 105.392214 90.548375 
L 105.463653 90.378401 
L 105.606529 90.927398 
L 105.677968 90.39451 
L 105.749406 90.690898 
L 105.820844 90.690773 
L 105.892282 90.497685 
L 105.963721 90.553676 
L 106.106597 90.887191 
L 106.249474 89.797007 
L 106.320912 89.900957 
L 106.463789 89.818621 
L 106.535227 90.034041 
L 106.749542 89.016626 
L 106.892418 89.343939 
L 106.963857 89.634544 
L 107.106733 89.087724 
L 107.178172 89.188031 
L 107.24961 89.241023 
L 107.463925 89.680887 
L 107.535363 89.859147 
L 107.606801 89.69832 
L 108.249746 91.118419 
L 108.321184 90.563579 
L 108.392623 90.609368 
L 108.464061 90.896583 
L 108.606937 90.366849 
L 108.678376 90.503122 
L 108.749814 90.168736 
L 108.821252 90.342255 
L 109.107005 91.009217 
L 109.32132 90.344967 
L 109.392759 90.412183 
L 109.464197 90.255853 
L 109.821388 90.884214 
L 109.892827 90.767237 
L 109.964265 90.861244 
L 110.107141 91.325281 
L 110.17858 90.781472 
L 110.250018 91.057685 
L 110.392895 91.552135 
L 110.464333 91.330629 
L 110.964401 92.435677 
L 111.178716 91.896817 
L 111.250154 92.166181 
L 111.321592 91.915755 
L 111.393031 92.178552 
L 111.464469 92.089103 
L 111.750222 92.740264 
L 111.82166 93.003389 
L 111.893099 92.854862 
L 112.035975 92.727629 
L 112.107413 92.975242 
L 112.321728 92.599016 
L 112.393167 92.683439 
L 112.464605 92.943484 
L 112.607481 92.493027 
L 112.67892 92.436204 
L 112.893235 91.727247 
L 112.964673 91.98959 
L 113.036111 91.899958 
L 113.178988 91.601276 
L 113.321864 91.723309 
L 113.464741 91.970842 
L 113.607618 91.383605 
L 113.679056 91.505306 
L 113.750494 91.160652 
L 113.821932 91.379126 
L 113.893371 91.23896 
L 113.964809 91.379205 
L 114.036247 91.040281 
L 114.107686 91.29528 
L 114.179124 91.269333 
L 114.250562 90.778851 
L 114.322 91.002562 
L 114.393439 91.181852 
L 114.536315 90.896711 
L 114.679192 91.362032 
L 115.036383 90.661513 
L 115.107822 90.776886 
L 115.465013 89.923462 
L 115.965081 90.919672 
L 116.107958 90.586491 
L 116.250834 90.879763 
L 116.322272 90.625223 
L 116.393711 90.702663 
L 116.465149 90.89975 
L 116.536587 90.529739 
L 116.965217 91.716872 
L 117.036655 91.691357 
L 117.108094 91.460791 
L 117.322408 91.699522 
L 117.536723 91.133567 
L 117.608162 91.30348 
L 117.6796 90.939951 
L 117.751038 91.100926 
L 117.822476 91.163465 
L 117.893915 91.398102 
L 118.036791 90.737925 
L 118.179668 91.088334 
L 118.251106 91.318419 
L 118.393983 90.801592 
L 118.465421 90.971716 
L 118.536859 91.010981 
L 118.679736 90.534484 
L 118.822613 90.632823 
L 118.894051 90.502617 
L 119.036927 89.797729 
L 119.322681 90.250895 
L 119.536995 89.730244 
L 119.608434 89.956977 
L 119.679872 89.650208 
L 119.75131 89.831061 
L 119.822749 89.940474 
L 119.894187 89.700503 
L 119.965625 89.934525 
L 120.17994 89.491757 
L 120.251378 89.209352 
L 120.322817 89.308351 
L 120.394255 89.533367 
L 120.465693 89.185374 
L 120.537131 89.371192 
L 120.751446 89.533059 
L 120.965761 88.942147 
L 121.251514 89.522241 
L 121.322953 89.584168 
L 121.394391 89.466897 
L 121.537267 89.778844 
L 121.608706 89.419559 
L 121.680144 89.452771 
L 121.751582 89.674852 
L 121.965897 88.771288 
L 122.037335 88.832447 
L 122.25165 89.402488 
L 122.323089 89.044661 
L 122.394527 89.219456 
L 122.537403 89.473525 
L 122.823157 90.009946 
L 122.894595 90.187954 
L 122.966033 89.834585 
L 123.10891 90.065316 
L 123.180348 89.963555 
L 123.53754 90.723939 
L 123.751854 90.317093 
L 123.966169 90.661675 
L 124.037608 90.685162 
L 124.180484 90.980679 
L 124.323361 90.54488 
L 124.394799 90.761511 
L 124.466237 90.431087 
L 124.609114 90.762214 
L 124.680552 90.699274 
L 124.894867 90.106942 
L 124.966305 90.089075 
L 125.037744 90.29954 
L 125.109182 90.199746 
L 125.18062 90.147929 
L 125.466373 90.755679 
L 125.537812 90.432509 
L 125.680688 90.859658 
L 125.752126 90.641207 
L 125.823565 90.730874 
L 125.966441 90.945215 
L 126.03788 90.670375 
L 126.180756 90.876688 
L 126.323633 90.612111 
L 126.395071 90.755051 
L 126.537948 91.054503 
L 126.680824 91.285435 
L 127.038016 90.443707 
L 127.109454 90.501498 
L 127.180892 90.395791 
L 127.25233 90.454275 
L 127.323769 90.619113 
L 127.395207 90.46452 
L 127.538084 90.608379 
L 127.68096 90.610042 
L 127.895275 91.199955 
L 128.10959 90.611184 
L 128.181028 90.669342 
L 128.53822 91.377801 
L 128.609658 91.27853 
L 128.752535 91.06795 
L 128.823973 91.226418 
L 128.895411 90.973165 
L 129.109726 91.373301 
L 129.181164 91.269116 
L 129.466917 91.734348 
L 129.538356 91.591318 
L 129.681232 91.874816 
L 129.752671 91.614445 
L 129.824109 91.669012 
L 129.895547 91.689715 
L 129.966985 91.311059 
L 130.038424 91.510615 
L 130.1813 91.795086 
L 130.395615 90.962843 
L 130.681368 91.606528 
L 130.752807 91.234842 
L 130.824245 91.405908 
L 130.967121 91.683594 
L 131.03856 91.85367 
L 131.252875 91.19235 
L 131.538628 91.634511 
L 131.610066 91.441105 
L 131.752943 91.645552 
L 131.967257 91.14927 
L 132.610202 92.209796 
L 132.753079 92.003536 
L 133.038832 92.330864 
L 133.253147 91.57841 
L 133.324585 91.688397 
L 133.467461 91.443025 
L 133.610338 91.781937 
L 133.681776 91.688338 
L 133.824653 91.82538 
L 134.038968 91.266796 
L 134.324721 91.929605 
L 134.967666 91.187801 
L 135.110542 91.218541 
L 135.18198 91.167105 
L 135.396295 91.550743 
L 135.467734 91.414335 
L 135.539172 91.601215 
L 135.61061 91.46408 
L 135.896363 91.895967 
L 136.110678 92.329842 
L 136.182116 92.09547 
L 136.539308 92.784975 
L 136.610746 92.863953 
L 136.682184 92.727994 
L 136.753623 92.884927 
L 136.825061 92.598058 
L 136.896499 92.780677 
L 137.253691 92.306807 
L 137.396567 92.503446 
L 137.468006 92.411753 
L 137.68232 92.746007 
L 137.753759 92.824351 
L 137.825197 92.732896 
L 138.11095 93.373631 
L 138.396703 92.820605 
L 138.468142 92.993231 
L 138.53958 92.90419 
L 138.611018 92.981895 
L 138.682456 92.704024 
L 138.896771 93.141431 
L 139.039648 93.16488 
L 139.325401 93.294226 
L 139.539716 92.617618 
L 139.754031 92.925623 
L 139.825469 92.651213 
L 140.039784 92.920436 
L 140.254099 93.164289 
L 140.468414 92.624848 
L 140.539852 92.494926 
L 140.61129 92.57024 
L 140.825605 92.860645 
L 140.897043 92.812446 
L 141.111358 93.051185 
L 141.539988 92.154593 
L 141.897179 92.632277 
L 142.040056 92.094602 
L 142.111494 92.227885 
L 142.325809 92.409682 
L 142.397247 92.506023 
L 142.611562 91.928658 
L 142.897315 92.338086 
L 142.968754 92.32397 
L 143.254507 92.785655 
L 143.54026 92.670432 
L 143.897451 93.390294 
L 144.111766 93.008432 
L 144.254643 93.248742 
L 144.468958 92.817119 
L 144.611834 93.085085 
L 144.683273 92.922333 
L 145.040464 93.368168 
L 145.111902 93.241176 
L 145.254779 93.544395 
L 145.540532 93.006341 
L 145.61197 93.147643 
L 145.826285 92.692539 
L 146.0406 92.982047 
L 146.112038 92.820227 
L 146.183477 92.867293 
L 146.254915 92.979224 
L 146.397792 92.736835 
L 146.612106 93.148044 
L 146.683545 93.068849 
L 146.754983 93.058925 
L 146.826421 93.186096 
L 146.969298 92.761711 
L 147.469366 93.516167 
L 147.612242 93.258391 
L 147.683681 93.34649 
L 147.755119 93.261662 
L 147.826557 93.052592 
L 148.183749 93.592719 
L 148.326625 93.5521 
L 148.612378 93.923276 
L 148.755255 93.918621 
L 148.826693 93.83959 
L 148.898132 93.587981 
L 148.96957 93.732753 
L 149.112446 93.448238 
L 149.183885 93.151418 
L 149.255323 93.286287 
L 149.326761 93.408898 
L 149.469638 93.092991 
L 149.541076 92.799509 
L 149.612515 92.865939 
L 149.683953 92.97181 
L 149.826829 92.567967 
L 149.898268 92.711951 
L 150.041144 92.786494 
L 150.184021 92.893878 
L 150.255459 92.602713 
L 150.326897 92.668828 
L 150.398336 92.658849 
L 150.612651 92.242311 
L 150.826965 91.880054 
L 151.184157 92.472659 
L 151.398472 92.387464 
L 151.46991 92.530168 
L 151.684225 92.046774 
L 151.89854 92.308425 
L 152.112855 92.648033 
L 152.327169 92.963842 
L 152.398608 92.848667 
L 153.255867 93.981157 
L 153.470182 93.547448 
L 153.54162 93.648193 
L 153.684497 93.805376 
L 153.755935 93.953949 
L 153.898812 93.604161 
L 153.97025 93.689614 
L 154.041688 93.826386 
L 154.184565 93.696913 
L 154.256003 93.79661 
L 154.327441 93.717856 
L 154.541756 93.858892 
L 154.613195 93.813384 
L 154.82751 94.120723 
L 154.898948 94.042565 
L 155.256139 94.611487 
L 155.399016 94.683877 
L 155.541892 94.953742 
L 155.613331 94.807137 
L 155.684769 94.921389 
L 155.756207 94.775587 
L 155.827646 94.858932 
L 155.899084 94.992113 
L 156.113399 94.578368 
L 156.184837 94.306178 
L 156.256275 94.429658 
L 156.327714 94.391062 
L 156.542028 94.757161 
L 156.613467 94.574265 
L 156.684905 94.706323 
L 156.756343 94.563977 
L 156.827782 94.659741 
L 156.89922 94.743036 
L 157.042096 94.671059 
L 157.113535 94.77064 
L 157.184973 94.629308 
L 157.256411 94.693638 
L 157.470726 94.928826 
L 157.542164 94.707472 
L 157.613603 94.844691 
L 157.685041 94.957902 
L 157.899356 94.366462 
L 157.970794 94.410097 
L 158.256547 94.70369 
L 158.327986 94.5511 
L 158.399424 94.627491 
L 158.470862 94.591659 
L 158.5423 94.729571 
L 158.756615 94.358878 
L 158.97093 93.960352 
L 159.185245 94.014825 
L 159.256683 94.107475 
L 159.328122 93.933634 
L 159.39956 94.074915 
L 159.470998 93.81706 
L 159.542436 93.90929 
L 159.82819 94.192224 
L 159.971066 94.011261 
L 160.185381 94.272147 
L 160.328258 94.1874 
L 160.756887 93.939548 
L 161.114079 94.359095 
L 161.399832 94.594701 
L 161.47127 94.42321 
L 161.757023 93.823839 
L 162.114215 94.243279 
L 162.185653 94.058935 
L 162.257091 94.120918 
L 162.471406 94.177077 
L 162.542845 93.909885 
L 162.614283 94.046892 
L 162.685721 94.039664 
L 162.971474 94.455613 
L 163.042913 94.190072 
L 163.114351 94.268853 
L 163.185789 94.347606 
L 163.328666 94.148281 
L 163.400104 94.073977 
L 163.97161 94.96253 
L 164.043049 94.782345 
L 164.114487 94.684583 
L 164.185925 94.814897 
L 164.328802 94.477599 
L 164.471678 94.656286 
L 164.614555 94.622892 
L 164.685993 94.744947 
L 164.757431 94.576842 
L 164.82887 94.698701 
L 164.900308 94.634364 
L 165.114623 94.151543 
L 165.328938 94.159743 
L 165.471814 94.052484 
L 165.757568 94.362095 
L 165.829006 94.157052 
L 165.900444 94.190324 
L 165.971882 94.17553 
L 166.043321 94.303949 
L 166.329074 93.950559 
L 166.686265 94.418101 
L 166.757704 94.17362 
L 166.829142 94.274017 
L 166.90058 94.210971 
L 167.114895 94.475522 
L 167.186333 94.381298 
L 167.257772 94.467782 
L 167.472086 94.770245 
L 167.829278 95.122032 
L 168.043593 94.650558 
L 168.115031 94.778716 
L 168.257908 94.482581 
L 168.400784 94.582277 
L 168.472222 94.694389 
L 168.686537 94.275559 
L 168.900852 94.479856 
L 168.97229 94.343936 
L 169.043729 94.46331 
L 169.115167 94.253424 
L 169.186605 94.382155 
L 169.258044 94.491151 
L 169.329482 94.291697 
L 169.40092 94.329726 
L 169.472358 94.322477 
L 169.543797 94.197271 
L 169.615235 94.282081 
L 169.686673 94.339547 
L 169.758112 94.214929 
L 169.82955 94.303951 
L 169.972426 94.429815 
L 170.043865 94.415033 
L 170.329618 94.698689 
L 170.472494 94.457681 
L 170.615371 94.680012 
L 170.758248 94.465172 
L 171.258316 94.939671 
L 171.401192 94.941065 
L 171.544069 94.818216 
L 171.829822 95.231529 
L 171.90126 95.064684 
L 171.972699 95.030517 
L 172.044137 95.155556 
L 172.115575 94.989167 
L 172.187013 95.043965 
L 172.615643 95.585477 
L 172.75852 95.3872 
L 172.901396 95.097989 
L 172.972835 95.130009 
L 173.187149 95.199944 
L 173.330026 95.011185 
L 173.401464 95.116374 
L 173.472903 95.050271 
L 173.544341 94.891909 
L 173.615779 94.976384 
L 173.687217 94.938191 
L 173.830094 95.14287 
L 173.901532 95.047145 
L 174.115847 95.297793 
L 174.330162 94.929804 
L 174.544477 95.168763 
L 174.758792 94.729616 
L 175.044545 94.944172 
L 175.25886 94.388626 
L 175.401736 94.472619 
L 175.544613 94.44571 
L 175.758928 94.078222 
L 176.116119 94.021323 
L 176.258996 94.19445 
L 176.401872 93.930525 
L 176.544749 94.029415 
L 176.830502 93.476952 
L 177.044817 93.204452 
L 177.116255 93.27313 
L 177.473447 93.584792 
L 177.687762 93.484675 
L 177.830638 93.669688 
L 177.973515 93.39497 
L 178.044953 93.461857 
L 178.116391 93.57742 
L 178.18783 93.390055 
L 178.259268 93.505571 
L 178.402144 93.61439 
L 178.687898 93.167262 
L 179.116527 93.692612 
L 179.259404 93.861847 
L 179.40228 93.719071 
L 179.759472 93.663 
L 180.045225 93.667702 
L 180.25954 93.855681 
L 180.330978 93.63269 
L 180.402416 93.71247 
L 180.473855 93.724765 
L 180.545293 93.539349 
L 180.616731 93.571917 
L 181.116799 94.196271 
L 181.188238 93.975781 
L 181.259676 94.088053 
L 181.331114 94.153016 
L 181.473991 94.036315 
L 182.116935 94.644355 
L 182.402689 94.362845 
L 182.75988 94.805659 
L 183.117071 94.266342 
L 183.545701 94.845325 
L 183.617139 94.700333 
L 183.760016 94.538558 
L 184.045769 94.649435 
L 184.188646 94.481703 
L 184.474399 94.774792 
L 184.617275 94.731782 
L 185.117343 95.224094 
L 185.331658 95.212912 
L 185.545973 94.993828 
L 185.831726 95.207211 
L 186.046041 95.067332 
L 186.188918 95.264669 
L 186.403233 94.975785 
L 186.546109 95.11416 
L 186.688986 94.950387 
L 187.260492 95.617267 
L 187.33193 95.562631 
L 187.546245 95.745219 
L 187.76056 95.143784 
L 187.831998 95.22788 
L 188.046313 95.274135 
L 188.18919 95.049195 
L 188.474943 95.178026 
L 188.61782 94.915058 
L 188.689258 95.024297 
L 188.760696 95.013212 
L 189.046449 95.245358 
L 189.332202 95.377995 
L 189.403641 95.168126 
L 189.475079 95.260586 
L 189.546517 95.252005 
L 189.617956 95.080509 
L 189.689394 95.163879 
L 189.83227 95.12649 
L 190.046585 95.306774 
L 190.118024 95.098008 
L 190.189462 95.171596 
L 190.546653 94.822506 
L 190.760968 94.958845 
L 190.832406 94.817677 
L 190.903845 94.890882 
L 190.975283 94.88067 
L 191.046721 94.984005 
L 191.189598 94.792215 
L 191.332474 94.886728 
L 191.546789 94.542668 
L 191.618228 94.486076 
L 191.689666 94.280549 
L 191.761104 94.378762 
L 191.903981 94.591557 
L 192.118296 94.128953 
L 192.332611 94.245789 
L 192.546925 94.08716 
L 192.618364 93.948838 
L 192.689802 94.008402 
L 192.832679 94.160575 
L 192.904117 93.959608 
L 192.975555 94.064886 
L 193.261308 93.631575 
L 193.547061 93.893005 
L 193.904253 93.364189 
L 194.190006 93.750059 
L 194.475759 93.414787 
L 194.832951 93.641398 
L 194.975827 93.679435 
L 195.547333 92.893868 
L 195.833087 93.244282 
L 195.904525 93.110192 
L 196.11884 93.30143 
L 196.261716 93.329556 
L 196.476031 93.351665 
L 196.547469 93.422057 
L 196.618908 93.258783 
L 196.690346 93.35897 
L 196.761784 93.454246 
L 196.833223 93.350518 
L 196.904661 93.454124 
L 196.976099 93.402297 
L 197.047538 93.350683 
L 197.261852 93.036144 
L 197.333291 93.095158 
L 197.547606 92.837863 
L 197.833359 93.108363 
L 198.119112 92.569887 
L 198.333427 92.568533 
L 198.61918 92.88898 
L 198.762056 92.509993 
L 198.833495 92.536971 
L 198.976371 92.589517 
L 199.04781 92.691222 
L 199.119248 92.564121 
L 199.190686 92.65278 
L 199.476439 92.360053 
L 199.547878 92.446925 
L 199.619316 92.290558 
L 199.690754 92.361327 
L 200.190822 92.771119 
L 200.333699 92.535905 
L 200.976643 92.789304 
L 201.11952 92.465937 
L 201.190958 92.562935 
L 201.405273 92.805089 
L 201.762464 93.127408 
L 202.191094 92.800565 
L 202.262533 92.899518 
L 202.333971 92.846791 
L 202.834039 93.069711 
L 202.976915 92.909288 
L 203.334107 93.118459 
L 203.476983 92.908065 
L 203.61986 92.94195 
L 203.691298 92.844728 
L 203.834175 92.952244 
L 203.977051 92.773248 
L 204.191366 93.047657 
L 204.334243 92.889726 
L 204.405681 92.957783 
L 204.619996 92.73076 
L 204.834311 92.838952 
L 204.977187 92.559572 
L 205.048626 92.649387 
L 205.191502 92.511937 
L 205.334379 92.649991 
L 205.477255 92.519873 
L 205.620132 92.632542 
L 205.69157 92.505524 
L 205.763009 92.603341 
L 205.905885 92.648794 
L 206.048762 92.423463 
L 206.1202 92.466443 
L 206.263077 92.479467 
L 206.54883 92.458231 
L 206.763145 92.596186 
L 207.048898 92.352466 
L 207.191774 92.358211 
L 207.548966 92.364505 
L 207.691842 92.260757 
L 208.049034 92.411274 
L 208.406225 91.84676 
L 208.977732 92.052715 
L 209.120608 91.900098 
L 209.4778 91.887275 
L 209.692114 91.983487 
L 209.763553 92.065257 
L 209.977868 91.868495 
L 210.120744 91.997371 
L 210.335059 91.720462 
L 210.477936 91.558707 
L 210.620812 91.740255 
L 210.835127 91.50993 
L 210.978004 91.507178 
L 211.12088 91.434635 
L 211.263757 91.501682 
L 211.406633 91.356778 
L 211.54951 91.194134 
L 211.763825 91.422403 
L 211.97814 91.258289 
L 212.406769 91.652005 
L 212.621084 91.631417 
L 212.763961 91.444379 
L 213.121152 91.720027 
L 213.264029 91.638851 
L 213.406905 91.633836 
L 213.549782 91.562231 
L 213.764097 91.569122 
L 213.906973 91.560579 
L 213.978412 91.624883 
L 214.04985 91.534999 
L 214.264165 91.693137 
L 214.335603 91.66609 
L 214.407041 91.495476 
L 214.47848 91.534675 
L 214.692795 91.482256 
L 214.764233 91.546346 
L 214.835671 91.376578 
L 214.907109 91.438801 
L 214.978548 91.530398 
L 215.264301 91.236118 
L 215.335739 91.245266 
L 215.478616 91.0475 
L 215.621492 91.192849 
L 215.764369 91.005293 
L 216.478752 91.302604 
L 216.621628 91.169676 
L 217.050258 91.426508 
L 217.264573 91.217164 
L 217.478888 91.344773 
L 217.693203 91.126467 
L 217.978956 90.803268 
L 218.264709 90.968022 
L 218.336147 90.823106 
L 218.407586 90.912919 
L 218.550462 90.803514 
L 218.836215 91.027266 
L 218.907654 90.917224 
L 218.979092 91.007724 
L 219.05053 91.091686 
L 219.121968 90.999233 
L 219.193407 91.089578 
L 219.47916 90.721698 
L 219.693475 90.727426 
L 219.764913 90.80394 
L 219.836351 90.641269 
L 219.90779 90.710336 
L 220.122104 90.396574 
L 220.193543 90.456649 
L 220.479296 90.538872 
L 220.765049 90.32704 
L 220.836487 90.157579 
L 220.907926 90.243794 
L 221.12224 90.283003 
L 221.336555 90.478552 
L 221.622308 90.244866 
L 221.693747 90.257795 
L 221.836623 90.121059 
L 221.908062 90.173524 
L 221.9795 90.058623 
L 222.050938 90.111027 
L 222.265253 90.246027 
L 222.551006 89.951657 
L 222.622444 89.960873 
L 222.765321 89.818674 
L 223.265389 89.872488 
L 223.408266 90.020084 
L 223.622581 89.674749 
L 223.694019 89.736437 
L 223.908334 89.550151 
L 224.05121 89.707314 
L 224.122649 89.619025 
L 224.194087 89.699799 
L 224.336963 89.708787 
L 224.551278 89.63897 
L 224.694155 89.444554 
L 224.765593 89.493811 
L 225.408538 90.16875 
L 225.479976 90.180782 
L 225.551414 90.044312 
L 225.622853 90.111831 
L 226.051482 89.871067 
L 226.265797 90.108457 
L 226.480112 89.939353 
L 226.622989 90.03416 
L 226.765865 90.176226 
L 226.908742 89.969605 
L 227.194495 90.132058 
L 227.337371 90.244796 
L 227.480248 90.091956 
L 227.694563 90.139666 
L 227.908878 89.958522 
L 228.051754 89.946568 
L 228.123193 89.841459 
L 228.194631 89.909343 
L 228.408946 90.02411 
L 228.623261 89.918813 
L 228.837576 89.745685 
L 229.980588 89.871017 
L 230.194903 89.87953 
L 230.33778 89.977087 
L 230.623533 90.18423 
L 230.766409 89.955602 
L 230.837848 90.014931 
L 231.052162 90.217343 
L 231.123601 90.065635 
L 231.195039 90.104575 
L 231.337916 90.129196 
L 231.480792 89.934737 
L 231.623669 89.998874 
L 231.766545 89.939979 
L 232.052298 89.946765 
L 232.266613 90.067035 
L 233.052434 90.438302 
L 233.123873 90.330418 
L 233.195311 90.396607 
L 233.409626 90.62604 
L 233.552503 90.42518 
L 233.623941 90.483243 
L 233.695379 90.358676 
L 233.766817 90.434597 
L 233.909694 90.480092 
L 234.266885 90.7243 
L 234.4812 90.512557 
L 234.624077 90.36408 
L 234.90983 90.46284 
L 235.052707 90.359594 
L 235.195583 90.097868 
L 235.409898 90.187656 
L 235.624213 89.984941 
L 235.695651 89.879296 
L 235.767089 89.944561 
L 236.052843 89.940496 
L 236.124281 89.817996 
L 236.195719 89.893072 
L 236.481472 89.843997 
L 236.624349 89.906144 
L 236.695787 89.759277 
L 236.767225 89.83884 
L 237.124417 89.518545 
L 237.695923 90.06174 
L 237.767361 89.93997 
L 237.8388 90.021394 
L 238.481744 89.796412 
L 238.696059 89.526968 
L 238.981812 89.728417 
L 239.124689 89.674262 
L 239.696195 89.850605 
L 240.553455 90.388021 
L 240.696331 90.409363 
L 241.053523 90.552308 
L 241.267838 90.298541 
L 241.696467 90.618365 
L 241.910782 90.440568 
L 242.482288 90.622187 
L 242.696603 90.570224 
L 243.125233 90.811453 
L 243.410986 90.587649 
L 243.482424 90.656007 
L 243.553863 90.537825 
L 243.625301 90.600161 
L 244.482561 90.018147 
L 244.553999 90.086343 
L 244.839752 89.770983 
L 244.91119 89.768314 
L 245.196943 89.431092 
L 245.33982 89.418767 
L 245.482697 89.400856 
L 245.911326 89.707592 
L 246.125641 89.583383 
L 246.411394 89.743523 
L 246.482833 89.622193 
L 246.554271 89.683585 
L 246.840024 89.83425 
L 247.125777 89.641159 
L 247.197215 89.543138 
L 247.268654 89.610243 
L 247.768722 89.859782 
L 247.84016 89.719777 
L 247.911598 89.786634 
L 248.054475 89.806247 
L 248.411666 89.879692 
L 248.625981 89.789661 
L 249.768994 90.246008 
L 249.91187 90.352113 
L 249.983309 90.254944 
L 250.054747 90.331092 
L 250.554815 90.452185 
L 250.626253 90.337328 
L 250.697692 90.397142 
L 251.126321 90.149564 
L 251.340636 90.299272 
L 251.412074 90.371948 
L 251.554951 90.276404 
L 251.626389 90.270286 
L 251.840704 90.035616 
L 252.269334 90.155588 
L 252.483649 90.162976 
L 252.626525 90.159012 
L 253.055155 90.038676 
L 253.340908 90.089882 
L 253.483785 90.044754 
L 253.6981 90.167216 
L 253.912414 90.018596 
L 254.483921 90.387208 
L 254.983989 90.072629 
L 255.555495 90.260081 
L 255.984125 90.042398 
L 256.341316 90.314034 
L 256.627069 89.855725 
L 256.698508 89.913118 
L 256.841384 89.902493 
L 256.912823 89.970216 
L 257.055699 89.900203 
L 257.198576 89.995231 
L 257.341452 89.924767 
L 257.484329 89.975832 
L 257.698644 89.874902 
L 257.84152 89.997527 
L 258.127273 89.749445 
L 258.27015 89.728892 
L 258.770218 89.583193 
L 259.055971 89.739726 
L 259.198848 89.761742 
L 259.413163 89.82436 
L 259.556039 89.928823 
L 259.698916 89.761024 
L 259.984669 89.850348 
L 260.056107 89.73861 
L 260.127546 89.808562 
L 260.413299 89.82085 
L 260.556175 89.820264 
L 260.984805 90.151676 
L 261.127682 90.039709 
L 261.484873 90.216784 
L 261.556311 90.126838 
L 261.62775 90.196221 
L 262.485009 90.670356 
L 262.770762 90.796279 
L 262.8422 90.707254 
L 262.913639 90.768544 
L 263.27083 90.911271 
L 263.485145 90.620768 
L 263.69946 90.730684 
L 263.842336 90.804538 
L 264.413843 90.629119 
L 264.699596 90.792035 
L 265.271102 90.475444 
L 265.699732 90.603614 
L 266.056923 90.447682 
L 266.128362 90.495459 
L 266.271238 90.373722 
L 266.485553 90.465369 
L 266.62843 90.478518 
L 266.914183 90.496248 
L 267.057059 90.418513 
L 267.128498 90.488407 
L 267.271374 90.350611 
L 267.557127 90.470496 
L 267.842881 90.331187 
L 268.057195 90.17932 
L 268.200072 90.164442 
L 268.27151 90.076696 
L 268.342949 90.146303 
L 268.557263 90.160088 
L 268.628702 90.190899 
L 268.843017 90.025174 
L 269.271646 89.810271 
L 269.557399 89.997855 
L 269.771714 89.816682 
L 270.200344 89.675569 
L 270.271782 89.549381 
L 270.343221 89.615995 
L 270.77185 89.195584 
L 270.843289 89.249316 
L 271.057604 89.12015 
L 271.271918 89.173852 
L 271.343357 89.212831 
L 271.414795 89.108859 
L 271.486233 89.163069 
L 271.914863 89.403565 
L 272.843561 89.596328 
L 273.057876 89.466726 
L 273.27219 89.518223 
L 273.486505 89.44998 
L 273.70082 89.429442 
L 273.915135 89.269757 
L 274.200888 89.072619 
L 274.343765 89.075981 
L 274.486641 89.035836 
L 274.915271 89.286122 
L 275.272462 88.926419 
L 275.415339 89.005617 
L 275.486777 88.920745 
L 275.558216 88.988425 
L 275.701092 88.958705 
L 275.915407 88.979377 
L 276.20116 89.065818 
L 276.344037 89.085623 
L 276.486913 89.089161 
L 276.772667 89.012502 
L 276.986981 89.157658 
L 277.201296 89.025186 
L 277.558488 89.078708 
L 277.844241 89.225512 
L 277.987117 89.225548 
L 279.273007 89.64016 
L 279.344445 89.559071 
L 279.415883 89.625369 
L 279.630198 89.573475 
L 279.915951 89.818058 
L 279.987389 89.715314 
L 280.058828 89.780706 
L 280.416019 89.965607 
L 280.773211 90.072331 
L 280.916087 89.960087 
L 281.058964 90.030393 
L 281.20184 89.968006 
L 281.559032 90.1385 
L 281.987662 90.146873 
L 282.0591 90.184823 
L 282.130538 90.086267 
L 282.201976 90.141964 
L 282.416291 90.19862 
L 282.630606 90.134585 
L 283.059236 90.013274 
L 283.273551 89.926473 
L 283.630742 90.118529 
L 283.845057 90.016214 
L 284.345125 90.238083 
L 285.130946 90.246922 
L 285.345261 90.033187 
L 285.559576 90.088075 
L 285.773891 89.924639 
L 286.059644 89.962474 
L 286.345397 90.078313 
L 286.488274 90.050638 
L 286.988342 89.923017 
L 287.202657 89.70082 
L 287.48841 89.817924 
L 287.702725 89.57036 
L 287.917039 89.716968 
L 288.131354 89.490109 
L 288.917175 89.614921 
L 289.631558 89.539772 
L 289.774435 89.525742 
L 289.917311 89.508637 
L 290.131626 89.543857 
L 290.988886 89.683451 
L 291.131762 89.61407 
L 291.488954 89.617898 
L 291.560392 89.666253 
L 291.63183 89.553489 
L 291.703269 89.611803 
L 291.846145 89.641168 
L 292.06046 89.731254 
L 292.703405 89.591098 
L 292.846281 89.617253 
L 292.989158 89.708198 
L 293.203473 89.526749 
L 293.560664 89.708 
L 293.703541 89.74153 
L 293.846417 89.741144 
L 294.417924 89.967581 
L 294.5608 89.954099 
L 295.203745 90.020239 
L 295.346621 89.889377 
L 295.41806 89.792207 
L 295.489498 89.848652 
L 295.632374 89.839068 
L 295.775251 89.786278 
L 297.132579 89.772724 
L 297.204017 89.829534 
L 297.346893 89.784826 
L 297.561208 89.760664 
L 297.775523 89.799918 
L 297.989838 89.827514 
L 298.275591 90.012684 
L 298.561344 89.911816 
L 298.989974 90.018058 
L 299.132851 89.798862 
L 299.204289 89.845665 
L 299.347165 89.801772 
L 299.847233 89.770635 
L 300.204425 89.965687 
L 300.490178 89.599494 
L 300.704493 89.572087 
L 300.847369 89.513956 
L 301.133123 89.540348 
L 301.347437 89.526848 
L 301.847506 89.685998 
L 302.06182 89.423116 
L 302.133259 89.478269 
L 302.347574 89.518783 
L 302.633327 89.346157 
L 302.847642 89.401791 
L 303.061956 89.304308 
L 303.490586 89.470352 
L 303.562024 89.377088 
L 303.633463 89.436912 
L 304.062092 89.672605 
L 304.276407 89.596742 
L 304.490722 89.649181 
L 304.776475 89.646956 
L 304.919352 89.628928 
L 305.990926 89.61876 
L 306.419556 89.456962 
L 306.633871 89.43936 
L 306.848186 89.508652 
L 307.062501 89.640824 
L 307.133939 89.534035 
L 307.205377 89.59296 
L 307.348254 89.585016 
L 307.49113 89.612396 
L 308.34839 89.941121 
L 308.562705 89.874801 
L 308.848458 89.884877 
L 309.134211 89.632843 
L 309.562841 89.869966 
L 309.777155 89.788294 
L 309.99147 89.803091 
L 310.4201 89.927565 
L 310.991606 90.025232 
L 311.277359 89.903801 
L 311.420236 89.902193 
L 311.563113 89.901605 
L 311.777427 89.818861 
L 312.420372 90.195996 
L 312.563249 90.164757 
L 312.777564 90.075017 
L 312.92044 90.053617 
L 313.706261 90.228201 
L 314.134891 90.392579 
L 314.420644 90.350985 
L 314.920712 90.541503 
L 315.135027 90.334362 
L 315.42078 90.397307 
L 315.706533 90.337082 
L 315.992286 90.481339 
L 316.206601 90.462694 
L 316.706669 90.71508 
L 316.778108 90.611808 
L 316.849546 90.667679 
L 317.063861 90.715962 
L 317.421052 90.552359 
L 318.063997 90.562944 
L 318.206873 90.543122 
L 318.992695 90.365989 
L 319.207009 90.413327 
L 319.707077 90.122731 
L 319.921392 90.222668 
L 320.135707 90.071716 
L 320.42146 90.178926 
L 320.921528 90.237481 
L 321.350158 90.465949 
L 321.778788 90.293735 
L 322.064541 90.40942 
L 322.207417 90.393591 
L 322.421732 90.43149 
L 322.564609 90.414158 
L 322.850362 90.586927 
L 323.064677 90.496082 
L 323.35043 90.593922 
L 323.636183 90.698407 
L 323.77906 90.668246 
L 323.921936 90.704654 
L 324.064813 90.70158 
L 324.279128 90.774934 
L 324.422004 90.743741 
L 325.279264 90.88967 
L 325.493579 90.942775 
L 325.707894 91.023987 
L 325.922208 91.050213 
L 326.136523 91.071673 
L 326.350838 91.059345 
L 326.422276 90.957932 
L 326.493715 91.010282 
L 326.636591 91.01121 
L 326.779468 90.984985 
L 326.922344 90.985025 
L 327.136659 90.863269 
L 327.779604 90.813051 
L 328.136795 90.928326 
L 328.35111 90.962649 
L 328.636863 90.820485 
L 329.422685 90.601073 
L 329.708438 90.700677 
L 329.922753 90.606454 
L 331.065765 91.043098 
L 331.137203 90.943074 
L 331.208642 90.996465 
L 331.422957 90.928819 
L 331.637271 90.949081 
L 331.780148 90.920465 
L 332.065901 90.998796 
L 332.637407 91.134793 
L 333.708982 91.012707 
L 335.209186 91.550367 
L 335.423501 91.434382 
L 336.137884 91.291539 
L 336.780828 91.440848 
L 337.066581 91.376437 
L 337.209458 91.408361 
L 337.352334 91.423571 
L 337.923841 91.622174 
L 338.066717 91.579074 
L 338.638224 91.719698 
L 338.852539 91.721403 
L 338.995415 91.750968 
L 339.20973 91.882158 
L 339.352607 91.831995 
L 339.566921 91.79351 
L 340.281304 91.633981 
L 340.995687 91.778514 
L 341.495755 91.674247 
L 341.781508 91.761762 
L 341.995823 91.736727 
L 342.353015 91.720418 
L 342.710206 91.374164 
L 342.853083 91.387207 
L 343.067397 91.402827 
L 343.353151 91.332883 
L 343.638904 91.211711 
L 344.067534 91.288228 
L 345.06767 91.002067 
L 345.210546 91.016714 
L 345.424861 90.928283 
L 345.639176 90.905451 
L 345.710614 90.954204 
L 345.853491 90.910458 
L 346.567874 90.650113 
L 347.13938 90.921729 
L 347.282256 90.825537 
L 347.639448 90.93335 
L 347.710886 90.980009 
L 347.853763 90.933209 
L 348.353831 91.201666 
L 348.711022 91.08954 
L 349.353967 91.391611 
L 350.211226 91.605861 
L 350.496979 91.568088 
L 350.711294 91.472077 
L 351.139924 91.474704 
L 351.639992 91.642728 
L 351.782869 91.588 
L 351.854307 91.635565 
L 351.997183 91.532495 
L 352.14006 91.500076 
L 352.282937 91.507601 
L 352.425813 91.50803 
L 352.783005 91.567093 
L 352.997319 91.593339 
L 353.568826 91.525089 
L 353.783141 91.593571 
L 353.997455 91.482461 
L 354.354647 91.508512 
L 355.49766 91.699989 
L 355.711974 91.558455 
L 356.854987 91.580846 
L 357.069302 91.617466 
L 357.212178 91.588824 
L 357.497932 91.713693 
L 357.783685 91.782293 
L 357.926561 91.732144 
L 358.069438 91.751312 
L 358.212314 91.715626 
L 358.283753 91.748063 
L 358.426629 91.669117 
L 360.212587 92.102559 
L 361.855667 92.155599 
L 362.99868 92.005374 
L 363.355871 92.099363 
L 363.570186 92.029245 
L 363.927377 92.168033 
L 364.356007 91.85202 
L 365.213267 91.627543 
L 365.427582 91.621459 
L 365.784773 91.590108 
L 365.856211 91.633235 
L 366.070526 91.513175 
L 366.284841 91.444304 
L 366.499156 91.354709 
L 366.784909 91.476187 
L 366.927786 91.388543 
L 367.499292 91.53437 
L 367.713607 91.560325 
L 367.927922 91.580822 
L 368.213675 91.424209 
L 369.070934 91.21556 
L 369.428126 91.355062 
L 369.999632 91.306994 
L 370.142509 91.261914 
L 370.642577 91.240362 
L 370.999768 91.404064 
L 371.142645 91.31771 
L 371.285521 91.247756 
L 371.857027 91.021231 
L 372.142781 91.060199 
L 372.714287 91.005742 
L 373.142917 91.160091 
L 373.357231 91.166569 
L 375.000312 91.14687 
L 375.357504 91.242829 
L 375.857572 91.076747 
L 376.071886 91.072158 
L 376.214763 91.049556 
L 376.35764 90.989448 
L 376.571954 91.005473 
L 377.214899 91.024984 
L 377.500652 90.868523 
L 378.00072 90.700313 
L 378.215035 90.57787 
L 379.072294 90.386995 
L 379.215171 90.371121 
L 379.429486 90.291548 
L 379.786677 90.234777 
L 379.929554 90.247048 
L 380.215307 90.189969 
L 381.001128 90.147432 
L 381.215443 90.213254 
L 381.35832 90.163128 
L 381.501196 90.139385 
L 381.644073 90.121714 
L 381.929826 90.168548 
L 382.287017 90.064206 
L 382.429894 90.006005 
L 382.715647 89.975676 
L 382.929962 89.927065 
L 383.072839 89.960652 
L 383.572907 89.764628 
L 384.215851 89.942733 
L 384.358728 89.883684 
L 384.930234 90.12278 
L 385.073111 90.122744 
L 385.287425 90.173555 
L 385.50174 90.109815 
L 386.287562 89.970704 
L 386.573315 90.073572 
L 387.216259 89.723103 
L 387.644889 89.831441 
L 388.716463 89.611142 
L 389.002216 89.602595 
L 389.216531 89.563193 
L 389.502284 89.599317 
L 389.716599 89.628105 
L 389.859476 89.60196 
L 390.859612 89.501404 
L 391.145365 89.529302 
L 391.288242 89.519314 
L 391.573995 89.58843 
L 391.931186 89.575354 
L 392.359816 89.651354 
L 392.574131 89.548111 
L 393.288514 89.424713 
L 393.43139 89.406863 
L 393.717143 89.437538 
L 394.002897 89.380754 
L 394.28865 89.360964 
L 394.431526 89.281337 
L 394.574403 89.279713 
L 394.788718 89.184371 
L 395.074471 89.217458 
L 395.288786 89.111816 
L 395.431662 89.175123 
L 395.645977 89.068429 
L 395.788854 89.068619 
L 396.217483 88.973006 
L 396.931866 89.163699 
L 397.146181 89.047896 
L 397.789126 89.137009 
L 398.003441 89.15277 
L 398.217756 89.048137 
L 398.574947 88.924681 
L 399.28933 89.155253 
L 399.646521 89.056091 
L 399.789398 89.021062 
L 400.789534 89.030958 
L 400.93241 88.995241 
L 401.146725 89.064598 
L 401.432478 88.921232 
L 401.646793 88.947062 
L 401.932547 88.945051 
L 402.432615 88.880022 
L 402.646929 88.816442 
L 403.004121 88.892289 
L 403.432751 88.808521 
L 404.004257 88.939172 
L 404.790078 88.831804 
L 404.932955 88.853593 
L 405.147269 88.715164 
L 405.290146 88.679189 
L 405.433023 88.633776 
L 406.504597 88.760032 
L 406.718912 88.686312 
L 407.861924 88.659435 
L 408.147678 88.7427 
L 408.719184 88.864569 
L 408.933499 88.779498 
L 409.076375 88.722102 
L 409.433567 88.732534 
L 409.933635 88.843681 
L 410.076511 88.819924 
L 411.433839 88.839545 
L 411.576715 88.830254 
L 411.719592 88.811773 
L 412.505413 88.780508 
L 412.791166 88.764344 
L 413.219796 88.89641 
L 413.505549 88.937819 
L 414.362809 88.926323 
L 414.72 88.747542 
L 414.72 88.747542 
" style="fill:none;stroke:#ff7f0e;stroke-linecap:square;stroke-width:1.5;"/>
   </g>
   <g id="patch_3">
    <path d="M 57.6 307.584 
L 57.6 41.472 
" style="fill:none;stroke:#000000;stroke-linecap:square;stroke-linejoin:miter;stroke-width:0.8;"/>
   </g>
   <g id="patch_4">
    <path d="M 414.72 307.584 
L 414.72 41.472 
" style="fill:none;stroke:#000000;stroke-linecap:square;stroke-linejoin:miter;stroke-width:0.8;"/>
   </g>
   <g id="patch_5">
    <path d="M 57.6 307.584 
L 414.72 307.584 
" style="fill:none;stroke:#000000;stroke-linecap:square;stroke-linejoin:miter;stroke-width:0.8;"/>
   </g>
   <g id="patch_6">
    <path d="M 57.6 41.472 
L 414.72 41.472 
" style="fill:none;stroke:#000000;stroke-linecap:square;stroke-linejoin:miter;stroke-width:0.8;"/>
   </g>
   <g id="text_17">
    <!-- Grafico valores varianza esperados vs valores varianza obtenidos -->
    <defs>
     <path d="M 59.515625 10.40625 
L 59.515625 29.984375 
L 43.40625 29.984375 
L 43.40625 38.09375 
L 69.28125 38.09375 
L 69.28125 6.78125 
Q 63.578125 2.734375 56.6875 0.65625 
Q 49.8125 -1.421875 42 -1.421875 
Q 24.90625 -1.421875 15.25 8.5625 
Q 5.609375 18.5625 5.609375 36.375 
Q 5.609375 54.25 15.25 64.234375 
Q 24.90625 74.21875 42 74.21875 
Q 49.125 74.21875 55.546875 72.453125 
Q 61.96875 70.703125 67.390625 67.28125 
L 67.390625 56.78125 
Q 61.921875 61.421875 55.765625 63.765625 
Q 49.609375 66.109375 42.828125 66.109375 
Q 29.4375 66.109375 22.71875 58.640625 
Q 16.015625 51.171875 16.015625 36.375 
Q 16.015625 21.625 22.71875 14.15625 
Q 29.4375 6.6875 42.828125 6.6875 
Q 48.046875 6.6875 52.140625 7.59375 
Q 56.25 8.5 59.515625 10.40625 
z
" id="DejaVuSans-47"/>
     <path d="M 37.109375 75.984375 
L 37.109375 68.5 
L 28.515625 68.5 
Q 23.6875 68.5 21.796875 66.546875 
Q 19.921875 64.59375 19.921875 59.515625 
L 19.921875 54.6875 
L 34.71875 54.6875 
L 34.71875 47.703125 
L 19.921875 47.703125 
L 19.921875 0 
L 10.890625 0 
L 10.890625 47.703125 
L 2.296875 47.703125 
L 2.296875 54.6875 
L 10.890625 54.6875 
L 10.890625 58.5 
Q 10.890625 67.625 15.140625 71.796875 
Q 19.390625 75.984375 28.609375 75.984375 
z
" id="DejaVuSans-66"/>
     <path d="M 48.78125 52.59375 
L 48.78125 44.1875 
Q 44.96875 46.296875 41.140625 47.34375 
Q 37.3125 48.390625 33.40625 48.390625 
Q 24.65625 48.390625 19.8125 42.84375 
Q 14.984375 37.3125 14.984375 27.296875 
Q 14.984375 17.28125 19.8125 11.734375 
Q 24.65625 6.203125 33.40625 6.203125 
Q 37.3125 6.203125 41.140625 7.25 
Q 44.96875 8.296875 48.78125 10.40625 
L 48.78125 2.09375 
Q 45.015625 0.34375 40.984375 -0.53125 
Q 36.96875 -1.421875 32.421875 -1.421875 
Q 20.0625 -1.421875 12.78125 6.34375 
Q 5.515625 14.109375 5.515625 27.296875 
Q 5.515625 40.671875 12.859375 48.328125 
Q 20.21875 56 33.015625 56 
Q 37.15625 56 41.109375 55.140625 
Q 45.0625 54.296875 48.78125 52.59375 
z
" id="DejaVuSans-63"/>
     <path id="DejaVuSans-20"/>
     <path d="M 2.984375 54.6875 
L 12.5 54.6875 
L 29.59375 8.796875 
L 46.6875 54.6875 
L 56.203125 54.6875 
L 35.6875 0 
L 23.484375 0 
z
" id="DejaVuSans-76"/>
     <path d="M 54.890625 33.015625 
L 54.890625 0 
L 45.90625 0 
L 45.90625 32.71875 
Q 45.90625 40.484375 42.875 44.328125 
Q 39.84375 48.1875 33.796875 48.1875 
Q 26.515625 48.1875 22.3125 43.546875 
Q 18.109375 38.921875 18.109375 30.90625 
L 18.109375 0 
L 9.078125 0 
L 9.078125 54.6875 
L 18.109375 54.6875 
L 18.109375 46.1875 
Q 21.34375 51.125 25.703125 53.5625 
Q 30.078125 56 35.796875 56 
Q 45.21875 56 50.046875 50.171875 
Q 54.890625 44.34375 54.890625 33.015625 
z
" id="DejaVuSans-6e"/>
     <path d="M 5.515625 54.6875 
L 48.1875 54.6875 
L 48.1875 46.484375 
L 14.40625 7.171875 
L 48.1875 7.171875 
L 48.1875 0 
L 4.296875 0 
L 4.296875 8.203125 
L 38.09375 47.515625 
L 5.515625 47.515625 
z
" id="DejaVuSans-7a"/>
     <path d="M 18.109375 8.203125 
L 18.109375 -20.796875 
L 9.078125 -20.796875 
L 9.078125 54.6875 
L 18.109375 54.6875 
L 18.109375 46.390625 
Q 20.953125 51.265625 25.265625 53.625 
Q 29.59375 56 35.59375 56 
Q 45.5625 56 51.78125 48.09375 
Q 58.015625 40.1875 58.015625 27.296875 
Q 58.015625 14.40625 51.78125 6.484375 
Q 45.5625 -1.421875 35.59375 -1.421875 
Q 29.59375 -1.421875 25.265625 0.953125 
Q 20.953125 3.328125 18.109375 8.203125 
z
M 48.6875 27.296875 
Q 48.6875 37.203125 44.609375 42.84375 
Q 40.53125 48.484375 33.40625 48.484375 
Q 26.265625 48.484375 22.1875 42.84375 
Q 18.109375 37.203125 18.109375 27.296875 
Q 18.109375 17.390625 22.1875 11.75 
Q 26.265625 6.109375 33.40625 6.109375 
Q 40.53125 6.109375 44.609375 11.75 
Q 48.6875 17.390625 48.6875 27.296875 
z
" id="DejaVuSans-70"/>
     <path d="M 48.6875 27.296875 
Q 48.6875 37.203125 44.609375 42.84375 
Q 40.53125 48.484375 33.40625 48.484375 
Q 26.265625 48.484375 22.1875 42.84375 
Q 18.109375 37.203125 18.109375 27.296875 
Q 18.109375 17.390625 22.1875 11.75 
Q 26.265625 6.109375 33.40625 6.109375 
Q 40.53125 6.109375 44.609375 11.75 
Q 48.6875 17.390625 48.6875 27.296875 
z
M 18.109375 46.390625 
Q 20.953125 51.265625 25.265625 53.625 
Q 29.59375 56 35.59375 56 
Q 45.5625 56 51.78125 48.09375 
Q 58.015625 40.1875 58.015625 27.296875 
Q 58.015625 14.40625 51.78125 6.484375 
Q 45.5625 -1.421875 35.59375 -1.421875 
Q 29.59375 -1.421875 25.265625 0.953125 
Q 20.953125 3.328125 18.109375 8.203125 
L 18.109375 0 
L 9.078125 0 
L 9.078125 75.984375 
L 18.109375 75.984375 
z
" id="DejaVuSans-62"/>
     <path d="M 18.3125 70.21875 
L 18.3125 54.6875 
L 36.8125 54.6875 
L 36.8125 47.703125 
L 18.3125 47.703125 
L 18.3125 18.015625 
Q 18.3125 11.328125 20.140625 9.421875 
Q 21.96875 7.515625 27.59375 7.515625 
L 36.8125 7.515625 
L 36.8125 0 
L 27.59375 0 
Q 17.1875 0 13.234375 3.875 
Q 9.28125 7.765625 9.28125 18.015625 
L 9.28125 47.703125 
L 2.6875 47.703125 
L 2.6875 54.6875 
L 9.28125 54.6875 
L 9.28125 70.21875 
z
" id="DejaVuSans-74"/>
    </defs>
    <g transform="translate(38.895 35.472)scale(0.12 -0.12)">
     <use xlink:href="#DejaVuSans-47"/>
     <use x="77.490234" xlink:href="#DejaVuSans-72"/>
     <use x="118.603516" xlink:href="#DejaVuSans-61"/>
     <use x="179.882812" xlink:href="#DejaVuSans-66"/>
     <use x="215.087891" xlink:href="#DejaVuSans-69"/>
     <use x="242.871094" xlink:href="#DejaVuSans-63"/>
     <use x="297.851562" xlink:href="#DejaVuSans-6f"/>
     <use x="359.033203" xlink:href="#DejaVuSans-20"/>
     <use x="390.820312" xlink:href="#DejaVuSans-76"/>
     <use x="450" xlink:href="#DejaVuSans-61"/>
     <use x="511.279297" xlink:href="#DejaVuSans-6c"/>
     <use x="539.0625" xlink:href="#DejaVuSans-6f"/>
     <use x="600.244141" xlink:href="#DejaVuSans-72"/>
     <use x="641.326172" xlink:href="#DejaVuSans-65"/>
     <use x="702.849609" xlink:href="#DejaVuSans-73"/>
     <use x="754.949219" xlink:href="#DejaVuSans-20"/>
     <use x="786.736328" xlink:href="#DejaVuSans-76"/>
     <use x="845.916016" xlink:href="#DejaVuSans-61"/>
     <use x="907.195312" xlink:href="#DejaVuSans-72"/>
     <use x="948.308594" xlink:href="#DejaVuSans-69"/>
     <use x="976.091797" xlink:href="#DejaVuSans-61"/>
     <use x="1037.371094" xlink:href="#DejaVuSans-6e"/>
     <use x="1100.75" xlink:href="#DejaVuSans-7a"/>
     <use x="1153.240234" xlink:href="#DejaVuSans-61"/>
     <use x="1214.519531" xlink:href="#DejaVuSans-20"/>
     <use x="1246.306641" xlink:href="#DejaVuSans-65"/>
     <use x="1307.830078" xlink:href="#DejaVuSans-73"/>
     <use x="1359.929688" xlink:href="#DejaVuSans-70"/>
     <use x="1423.40625" xlink:href="#DejaVuSans-65"/>
     <use x="1484.929688" xlink:href="#DejaVuSans-72"/>
     <use x="1526.042969" xlink:href="#DejaVuSans-61"/>
     <use x="1587.322266" xlink:href="#DejaVuSans-64"/>
     <use x="1650.798828" xlink:href="#DejaVuSans-6f"/>
     <use x="1711.980469" xlink:href="#DejaVuSans-73"/>
     <use x="1764.080078" xlink:href="#DejaVuSans-20"/>
     <use x="1795.867188" xlink:href="#DejaVuSans-76"/>
     <use x="1855.046875" xlink:href="#DejaVuSans-73"/>
     <use x="1907.146484" xlink:href="#DejaVuSans-20"/>
     <use x="1938.933594" xlink:href="#DejaVuSans-76"/>
     <use x="1998.113281" xlink:href="#DejaVuSans-61"/>
     <use x="2059.392578" xlink:href="#DejaVuSans-6c"/>
     <use x="2087.175781" xlink:href="#DejaVuSans-6f"/>
     <use x="2148.357422" xlink:href="#DejaVuSans-72"/>
     <use x="2189.439453" xlink:href="#DejaVuSans-65"/>
     <use x="2250.962891" xlink:href="#DejaVuSans-73"/>
     <use x="2303.0625" xlink:href="#DejaVuSans-20"/>
     <use x="2334.849609" xlink:href="#DejaVuSans-76"/>
     <use x="2394.029297" xlink:href="#DejaVuSans-61"/>
     <use x="2455.308594" xlink:href="#DejaVuSans-72"/>
     <use x="2496.421875" xlink:href="#DejaVuSans-69"/>
     <use x="2524.205078" xlink:href="#DejaVuSans-61"/>
     <use x="2585.484375" xlink:href="#DejaVuSans-6e"/>
     <use x="2648.863281" xlink:href="#DejaVuSans-7a"/>
     <use x="2701.353516" xlink:href="#DejaVuSans-61"/>
     <use x="2762.632812" xlink:href="#DejaVuSans-20"/>
     <use x="2794.419922" xlink:href="#DejaVuSans-6f"/>
     <use x="2855.601562" xlink:href="#DejaVuSans-62"/>
     <use x="2919.078125" xlink:href="#DejaVuSans-74"/>
     <use x="2958.287109" xlink:href="#DejaVuSans-65"/>
     <use x="3019.810547" xlink:href="#DejaVuSans-6e"/>
     <use x="3083.189453" xlink:href="#DejaVuSans-69"/>
     <use x="3110.972656" xlink:href="#DejaVuSans-64"/>
     <use x="3174.449219" xlink:href="#DejaVuSans-6f"/>
     <use x="3235.630859" xlink:href="#DejaVuSans-73"/>
    </g>
   </g>
   <g id="legend_1">
    <g id="patch_7">
     <path d="M 254.049688 78.82825 
L 407.72 78.82825 
Q 409.72 78.82825 409.72 76.82825 
L 409.72 48.472 
Q 409.72 46.472 407.72 46.472 
L 254.049688 46.472 
Q 252.049688 46.472 252.049688 48.472 
L 252.049688 76.82825 
Q 252.049688 78.82825 254.049688 78.82825 
z
" style="fill:#ffffff;opacity:0.8;stroke:#cccccc;stroke-linejoin:miter;"/>
    </g>
    <g id="line2d_17">
     <path d="M 256.049688 54.570437 
L 276.049688 54.570437 
" style="fill:none;stroke:#1f77b4;stroke-linecap:square;stroke-width:1.5;"/>
    </g>
    <g id="line2d_18"/>
    <g id="text_18">
     <!-- Valor varianza esperado -->
     <g transform="translate(284.049688 58.070437)scale(0.1 -0.1)">
      <use xlink:href="#DejaVuSans-56"/>
      <use x="68.298828" xlink:href="#DejaVuSans-61"/>
      <use x="129.578125" xlink:href="#DejaVuSans-6c"/>
      <use x="157.361328" xlink:href="#DejaVuSans-6f"/>
      <use x="218.542969" xlink:href="#DejaVuSans-72"/>
      <use x="259.65625" xlink:href="#DejaVuSans-20"/>
      <use x="291.443359" xlink:href="#DejaVuSans-76"/>
      <use x="350.623047" xlink:href="#DejaVuSans-61"/>
      <use x="411.902344" xlink:href="#DejaVuSans-72"/>
      <use x="453.015625" xlink:href="#DejaVuSans-69"/>
      <use x="480.798828" xlink:href="#DejaVuSans-61"/>
      <use x="542.078125" xlink:href="#DejaVuSans-6e"/>
      <use x="605.457031" xlink:href="#DejaVuSans-7a"/>
      <use x="657.947266" xlink:href="#DejaVuSans-61"/>
      <use x="719.226562" xlink:href="#DejaVuSans-20"/>
      <use x="751.013672" xlink:href="#DejaVuSans-65"/>
      <use x="812.537109" xlink:href="#DejaVuSans-73"/>
      <use x="864.636719" xlink:href="#DejaVuSans-70"/>
      <use x="928.113281" xlink:href="#DejaVuSans-65"/>
      <use x="989.636719" xlink:href="#DejaVuSans-72"/>
      <use x="1030.75" xlink:href="#DejaVuSans-61"/>
      <use x="1092.029297" xlink:href="#DejaVuSans-64"/>
      <use x="1155.505859" xlink:href="#DejaVuSans-6f"/>
     </g>
    </g>
    <g id="line2d_19">
     <path d="M 256.049688 69.248562 
L 276.049688 69.248562 
" style="fill:none;stroke:#ff7f0e;stroke-linecap:square;stroke-width:1.5;"/>
    </g>
    <g id="line2d_20"/>
    <g id="text_19">
     <!-- Valor varianza obtenido -->
     <g transform="translate(284.049688 72.748562)scale(0.1 -0.1)">
      <use xlink:href="#DejaVuSans-56"/>
      <use x="68.298828" xlink:href="#DejaVuSans-61"/>
      <use x="129.578125" xlink:href="#DejaVuSans-6c"/>
      <use x="157.361328" xlink:href="#DejaVuSans-6f"/>
      <use x="218.542969" xlink:href="#DejaVuSans-72"/>
      <use x="259.65625" xlink:href="#DejaVuSans-20"/>
      <use x="291.443359" xlink:href="#DejaVuSans-76"/>
      <use x="350.623047" xlink:href="#DejaVuSans-61"/>
      <use x="411.902344" xlink:href="#DejaVuSans-72"/>
      <use x="453.015625" xlink:href="#DejaVuSans-69"/>
      <use x="480.798828" xlink:href="#DejaVuSans-61"/>
      <use x="542.078125" xlink:href="#DejaVuSans-6e"/>
      <use x="605.457031" xlink:href="#DejaVuSans-7a"/>
      <use x="657.947266" xlink:href="#DejaVuSans-61"/>
      <use x="719.226562" xlink:href="#DejaVuSans-20"/>
      <use x="751.013672" xlink:href="#DejaVuSans-6f"/>
      <use x="812.195312" xlink:href="#DejaVuSans-62"/>
      <use x="875.671875" xlink:href="#DejaVuSans-74"/>
      <use x="914.880859" xlink:href="#DejaVuSans-65"/>
      <use x="976.404297" xlink:href="#DejaVuSans-6e"/>
      <use x="1039.783203" xlink:href="#DejaVuSans-69"/>
      <use x="1067.566406" xlink:href="#DejaVuSans-64"/>
      <use x="1131.042969" xlink:href="#DejaVuSans-6f"/>
     </g>
    </g>
   </g>
  </g>
 </g>
 <defs>
  <clipPath id="p0a189a8c07">
   <rect height="266.112" width="357.12" x="57.6" y="41.472"/>
  </clipPath>
 </defs>
</svg>
