<?xml version="1.0" encoding="utf-8" standalone="no"?>
<!DOCTYPE svg PUBLIC "-//W3C//DTD SVG 1.1//EN"
  "http://www.w3.org/Graphics/SVG/1.1/DTD/svg11.dtd">
<!-- Created with matplotlib (http://matplotlib.org/) -->
<svg height="345.6pt" version="1.1" viewBox="0 0 460.8 345.6" width="460.8pt" xmlns="http://www.w3.org/2000/svg" xmlns:xlink="http://www.w3.org/1999/xlink">
 <defs>
  <style type="text/css">
*{stroke-linecap:butt;stroke-linejoin:round;}
  </style>
 </defs>
 <g id="figure_1">
  <g id="patch_1">
   <path d="M 0 345.6 
L 460.8 345.6 
L 460.8 0 
L 0 0 
z
" style="fill:#ffffff;"/>
  </g>
  <g id="axes_1">
   <g id="patch_2">
    <path d="M 57.6 307.584 
L 414.72 307.584 
L 414.72 41.472 
L 57.6 41.472 
z
" style="fill:#ffffff;"/>
   </g>
   <g id="matplotlib.axis_1">
    <g id="xtick_1">
     <g id="line2d_1">
      <defs>
       <path d="M 0 0 
L 0 3.5 
" id="m6d03339378" style="stroke:#000000;stroke-width:0.8;"/>
      </defs>
      <g>
       <use style="stroke:#000000;stroke-width:0.8;" x="128.451463" xlink:href="#m6d03339378" y="307.584"/>
      </g>
     </g>
     <g id="text_1">
      <!-- 100 -->
      <defs>
       <path d="M 12.40625 8.296875 
L 28.515625 8.296875 
L 28.515625 63.921875 
L 10.984375 60.40625 
L 10.984375 69.390625 
L 28.421875 72.90625 
L 38.28125 72.90625 
L 38.28125 8.296875 
L 54.390625 8.296875 
L 54.390625 0 
L 12.40625 0 
z
" id="DejaVuSans-31"/>
       <path d="M 31.78125 66.40625 
Q 24.171875 66.40625 20.328125 58.90625 
Q 16.5 51.421875 16.5 36.375 
Q 16.5 21.390625 20.328125 13.890625 
Q 24.171875 6.390625 31.78125 6.390625 
Q 39.453125 6.390625 43.28125 13.890625 
Q 47.125 21.390625 47.125 36.375 
Q 47.125 51.421875 43.28125 58.90625 
Q 39.453125 66.40625 31.78125 66.40625 
z
M 31.78125 74.21875 
Q 44.046875 74.21875 50.515625 64.515625 
Q 56.984375 54.828125 56.984375 36.375 
Q 56.984375 17.96875 50.515625 8.265625 
Q 44.046875 -1.421875 31.78125 -1.421875 
Q 19.53125 -1.421875 13.0625 8.265625 
Q 6.59375 17.96875 6.59375 36.375 
Q 6.59375 54.828125 13.0625 64.515625 
Q 19.53125 74.21875 31.78125 74.21875 
z
" id="DejaVuSans-30"/>
      </defs>
      <g transform="translate(118.907713 322.182437)scale(0.1 -0.1)">
       <use xlink:href="#DejaVuSans-31"/>
       <use x="63.623047" xlink:href="#DejaVuSans-30"/>
       <use x="127.246094" xlink:href="#DejaVuSans-30"/>
      </g>
     </g>
    </g>
    <g id="xtick_2">
     <g id="line2d_2">
      <g>
       <use style="stroke:#000000;stroke-width:0.8;" x="200.018597" xlink:href="#m6d03339378" y="307.584"/>
      </g>
     </g>
     <g id="text_2">
      <!-- 200 -->
      <defs>
       <path d="M 19.1875 8.296875 
L 53.609375 8.296875 
L 53.609375 0 
L 7.328125 0 
L 7.328125 8.296875 
Q 12.9375 14.109375 22.625 23.890625 
Q 32.328125 33.6875 34.8125 36.53125 
Q 39.546875 41.84375 41.421875 45.53125 
Q 43.3125 49.21875 43.3125 52.78125 
Q 43.3125 58.59375 39.234375 62.25 
Q 35.15625 65.921875 28.609375 65.921875 
Q 23.96875 65.921875 18.8125 64.3125 
Q 13.671875 62.703125 7.8125 59.421875 
L 7.8125 69.390625 
Q 13.765625 71.78125 18.9375 73 
Q 24.125 74.21875 28.421875 74.21875 
Q 39.75 74.21875 46.484375 68.546875 
Q 53.21875 62.890625 53.21875 53.421875 
Q 53.21875 48.921875 51.53125 44.890625 
Q 49.859375 40.875 45.40625 35.40625 
Q 44.1875 33.984375 37.640625 27.21875 
Q 31.109375 20.453125 19.1875 8.296875 
z
" id="DejaVuSans-32"/>
      </defs>
      <g transform="translate(190.474847 322.182437)scale(0.1 -0.1)">
       <use xlink:href="#DejaVuSans-32"/>
       <use x="63.623047" xlink:href="#DejaVuSans-30"/>
       <use x="127.246094" xlink:href="#DejaVuSans-30"/>
      </g>
     </g>
    </g>
    <g id="xtick_3">
     <g id="line2d_3">
      <g>
       <use style="stroke:#000000;stroke-width:0.8;" x="271.585731" xlink:href="#m6d03339378" y="307.584"/>
      </g>
     </g>
     <g id="text_3">
      <!-- 300 -->
      <defs>
       <path d="M 40.578125 39.3125 
Q 47.65625 37.796875 51.625 33 
Q 55.609375 28.21875 55.609375 21.1875 
Q 55.609375 10.40625 48.1875 4.484375 
Q 40.765625 -1.421875 27.09375 -1.421875 
Q 22.515625 -1.421875 17.65625 -0.515625 
Q 12.796875 0.390625 7.625 2.203125 
L 7.625 11.71875 
Q 11.71875 9.328125 16.59375 8.109375 
Q 21.484375 6.890625 26.8125 6.890625 
Q 36.078125 6.890625 40.9375 10.546875 
Q 45.796875 14.203125 45.796875 21.1875 
Q 45.796875 27.640625 41.28125 31.265625 
Q 36.765625 34.90625 28.71875 34.90625 
L 20.21875 34.90625 
L 20.21875 43.015625 
L 29.109375 43.015625 
Q 36.375 43.015625 40.234375 45.921875 
Q 44.09375 48.828125 44.09375 54.296875 
Q 44.09375 59.90625 40.109375 62.90625 
Q 36.140625 65.921875 28.71875 65.921875 
Q 24.65625 65.921875 20.015625 65.03125 
Q 15.375 64.15625 9.8125 62.3125 
L 9.8125 71.09375 
Q 15.4375 72.65625 20.34375 73.4375 
Q 25.25 74.21875 29.59375 74.21875 
Q 40.828125 74.21875 47.359375 69.109375 
Q 53.90625 64.015625 53.90625 55.328125 
Q 53.90625 49.265625 50.4375 45.09375 
Q 46.96875 40.921875 40.578125 39.3125 
z
" id="DejaVuSans-33"/>
      </defs>
      <g transform="translate(262.041981 322.182437)scale(0.1 -0.1)">
       <use xlink:href="#DejaVuSans-33"/>
       <use x="63.623047" xlink:href="#DejaVuSans-30"/>
       <use x="127.246094" xlink:href="#DejaVuSans-30"/>
      </g>
     </g>
    </g>
    <g id="xtick_4">
     <g id="line2d_4">
      <g>
       <use style="stroke:#000000;stroke-width:0.8;" x="343.152866" xlink:href="#m6d03339378" y="307.584"/>
      </g>
     </g>
     <g id="text_4">
      <!-- 400 -->
      <defs>
       <path d="M 37.796875 64.3125 
L 12.890625 25.390625 
L 37.796875 25.390625 
z
M 35.203125 72.90625 
L 47.609375 72.90625 
L 47.609375 25.390625 
L 58.015625 25.390625 
L 58.015625 17.1875 
L 47.609375 17.1875 
L 47.609375 0 
L 37.796875 0 
L 37.796875 17.1875 
L 4.890625 17.1875 
L 4.890625 26.703125 
z
" id="DejaVuSans-34"/>
      </defs>
      <g transform="translate(333.609116 322.182437)scale(0.1 -0.1)">
       <use xlink:href="#DejaVuSans-34"/>
       <use x="63.623047" xlink:href="#DejaVuSans-30"/>
       <use x="127.246094" xlink:href="#DejaVuSans-30"/>
      </g>
     </g>
    </g>
    <g id="xtick_5">
     <g id="line2d_5">
      <g>
       <use style="stroke:#000000;stroke-width:0.8;" x="414.72" xlink:href="#m6d03339378" y="307.584"/>
      </g>
     </g>
     <g id="text_5">
      <!-- 500 -->
      <defs>
       <path d="M 10.796875 72.90625 
L 49.515625 72.90625 
L 49.515625 64.59375 
L 19.828125 64.59375 
L 19.828125 46.734375 
Q 21.96875 47.46875 24.109375 47.828125 
Q 26.265625 48.1875 28.421875 48.1875 
Q 40.625 48.1875 47.75 41.5 
Q 54.890625 34.8125 54.890625 23.390625 
Q 54.890625 11.625 47.5625 5.09375 
Q 40.234375 -1.421875 26.90625 -1.421875 
Q 22.3125 -1.421875 17.546875 -0.640625 
Q 12.796875 0.140625 7.71875 1.703125 
L 7.71875 11.625 
Q 12.109375 9.234375 16.796875 8.0625 
Q 21.484375 6.890625 26.703125 6.890625 
Q 35.15625 6.890625 40.078125 11.328125 
Q 45.015625 15.765625 45.015625 23.390625 
Q 45.015625 31 40.078125 35.4375 
Q 35.15625 39.890625 26.703125 39.890625 
Q 22.75 39.890625 18.8125 39.015625 
Q 14.890625 38.140625 10.796875 36.28125 
z
" id="DejaVuSans-35"/>
      </defs>
      <g transform="translate(405.17625 322.182437)scale(0.1 -0.1)">
       <use xlink:href="#DejaVuSans-35"/>
       <use x="63.623047" xlink:href="#DejaVuSans-30"/>
       <use x="127.246094" xlink:href="#DejaVuSans-30"/>
      </g>
     </g>
    </g>
    <g id="text_6">
     <!-- Tiradas -->
     <defs>
      <path d="M -0.296875 72.90625 
L 61.375 72.90625 
L 61.375 64.59375 
L 35.5 64.59375 
L 35.5 0 
L 25.59375 0 
L 25.59375 64.59375 
L -0.296875 64.59375 
z
" id="DejaVuSans-54"/>
      <path d="M 9.421875 54.6875 
L 18.40625 54.6875 
L 18.40625 0 
L 9.421875 0 
z
M 9.421875 75.984375 
L 18.40625 75.984375 
L 18.40625 64.59375 
L 9.421875 64.59375 
z
" id="DejaVuSans-69"/>
      <path d="M 41.109375 46.296875 
Q 39.59375 47.171875 37.8125 47.578125 
Q 36.03125 48 33.890625 48 
Q 26.265625 48 22.1875 43.046875 
Q 18.109375 38.09375 18.109375 28.8125 
L 18.109375 0 
L 9.078125 0 
L 9.078125 54.6875 
L 18.109375 54.6875 
L 18.109375 46.1875 
Q 20.953125 51.171875 25.484375 53.578125 
Q 30.03125 56 36.53125 56 
Q 37.453125 56 38.578125 55.875 
Q 39.703125 55.765625 41.0625 55.515625 
z
" id="DejaVuSans-72"/>
      <path d="M 34.28125 27.484375 
Q 23.390625 27.484375 19.1875 25 
Q 14.984375 22.515625 14.984375 16.5 
Q 14.984375 11.71875 18.140625 8.90625 
Q 21.296875 6.109375 26.703125 6.109375 
Q 34.1875 6.109375 38.703125 11.40625 
Q 43.21875 16.703125 43.21875 25.484375 
L 43.21875 27.484375 
z
M 52.203125 31.203125 
L 52.203125 0 
L 43.21875 0 
L 43.21875 8.296875 
Q 40.140625 3.328125 35.546875 0.953125 
Q 30.953125 -1.421875 24.3125 -1.421875 
Q 15.921875 -1.421875 10.953125 3.296875 
Q 6 8.015625 6 15.921875 
Q 6 25.140625 12.171875 29.828125 
Q 18.359375 34.515625 30.609375 34.515625 
L 43.21875 34.515625 
L 43.21875 35.40625 
Q 43.21875 41.609375 39.140625 45 
Q 35.0625 48.390625 27.6875 48.390625 
Q 23 48.390625 18.546875 47.265625 
Q 14.109375 46.140625 10.015625 43.890625 
L 10.015625 52.203125 
Q 14.9375 54.109375 19.578125 55.046875 
Q 24.21875 56 28.609375 56 
Q 40.484375 56 46.34375 49.84375 
Q 52.203125 43.703125 52.203125 31.203125 
z
" id="DejaVuSans-61"/>
      <path d="M 45.40625 46.390625 
L 45.40625 75.984375 
L 54.390625 75.984375 
L 54.390625 0 
L 45.40625 0 
L 45.40625 8.203125 
Q 42.578125 3.328125 38.25 0.953125 
Q 33.9375 -1.421875 27.875 -1.421875 
Q 17.96875 -1.421875 11.734375 6.484375 
Q 5.515625 14.40625 5.515625 27.296875 
Q 5.515625 40.1875 11.734375 48.09375 
Q 17.96875 56 27.875 56 
Q 33.9375 56 38.25 53.625 
Q 42.578125 51.265625 45.40625 46.390625 
z
M 14.796875 27.296875 
Q 14.796875 17.390625 18.875 11.75 
Q 22.953125 6.109375 30.078125 6.109375 
Q 37.203125 6.109375 41.296875 11.75 
Q 45.40625 17.390625 45.40625 27.296875 
Q 45.40625 37.203125 41.296875 42.84375 
Q 37.203125 48.484375 30.078125 48.484375 
Q 22.953125 48.484375 18.875 42.84375 
Q 14.796875 37.203125 14.796875 27.296875 
z
" id="DejaVuSans-64"/>
      <path d="M 44.28125 53.078125 
L 44.28125 44.578125 
Q 40.484375 46.53125 36.375 47.5 
Q 32.28125 48.484375 27.875 48.484375 
Q 21.1875 48.484375 17.84375 46.4375 
Q 14.5 44.390625 14.5 40.28125 
Q 14.5 37.15625 16.890625 35.375 
Q 19.28125 33.59375 26.515625 31.984375 
L 29.59375 31.296875 
Q 39.15625 29.25 43.1875 25.515625 
Q 47.21875 21.78125 47.21875 15.09375 
Q 47.21875 7.46875 41.1875 3.015625 
Q 35.15625 -1.421875 24.609375 -1.421875 
Q 20.21875 -1.421875 15.453125 -0.5625 
Q 10.6875 0.296875 5.421875 2 
L 5.421875 11.28125 
Q 10.40625 8.6875 15.234375 7.390625 
Q 20.0625 6.109375 24.8125 6.109375 
Q 31.15625 6.109375 34.5625 8.28125 
Q 37.984375 10.453125 37.984375 14.40625 
Q 37.984375 18.0625 35.515625 20.015625 
Q 33.0625 21.96875 24.703125 23.78125 
L 21.578125 24.515625 
Q 13.234375 26.265625 9.515625 29.90625 
Q 5.8125 33.546875 5.8125 39.890625 
Q 5.8125 47.609375 11.28125 51.796875 
Q 16.75 56 26.8125 56 
Q 31.78125 56 36.171875 55.265625 
Q 40.578125 54.546875 44.28125 53.078125 
z
" id="DejaVuSans-73"/>
     </defs>
     <g transform="translate(217.756875 335.860562)scale(0.1 -0.1)">
      <use xlink:href="#DejaVuSans-54"/>
      <use x="61.037109" xlink:href="#DejaVuSans-69"/>
      <use x="88.820312" xlink:href="#DejaVuSans-72"/>
      <use x="129.933594" xlink:href="#DejaVuSans-61"/>
      <use x="191.212891" xlink:href="#DejaVuSans-64"/>
      <use x="254.689453" xlink:href="#DejaVuSans-61"/>
      <use x="315.96875" xlink:href="#DejaVuSans-73"/>
     </g>
    </g>
   </g>
   <g id="matplotlib.axis_2">
    <g id="ytick_1">
     <g id="line2d_6">
      <defs>
       <path d="M 0 0 
L -3.5 0 
" id="meecc81a3d3" style="stroke:#000000;stroke-width:0.8;"/>
      </defs>
      <g>
       <use style="stroke:#000000;stroke-width:0.8;" x="57.6" xlink:href="#meecc81a3d3" y="295.488"/>
      </g>
     </g>
     <g id="text_7">
      <!-- 0 -->
      <g transform="translate(44.2375 299.287219)scale(0.1 -0.1)">
       <use xlink:href="#DejaVuSans-30"/>
      </g>
     </g>
    </g>
    <g id="ytick_2">
     <g id="line2d_7">
      <g>
       <use style="stroke:#000000;stroke-width:0.8;" x="57.6" xlink:href="#meecc81a3d3" y="254.179017"/>
      </g>
     </g>
     <g id="text_8">
      <!-- 2 -->
      <g transform="translate(44.2375 257.978236)scale(0.1 -0.1)">
       <use xlink:href="#DejaVuSans-32"/>
      </g>
     </g>
    </g>
    <g id="ytick_3">
     <g id="line2d_8">
      <g>
       <use style="stroke:#000000;stroke-width:0.8;" x="57.6" xlink:href="#meecc81a3d3" y="212.870035"/>
      </g>
     </g>
     <g id="text_9">
      <!-- 4 -->
      <g transform="translate(44.2375 216.669254)scale(0.1 -0.1)">
       <use xlink:href="#DejaVuSans-34"/>
      </g>
     </g>
    </g>
    <g id="ytick_4">
     <g id="line2d_9">
      <g>
       <use style="stroke:#000000;stroke-width:0.8;" x="57.6" xlink:href="#meecc81a3d3" y="171.561052"/>
      </g>
     </g>
     <g id="text_10">
      <!-- 6 -->
      <defs>
       <path d="M 33.015625 40.375 
Q 26.375 40.375 22.484375 35.828125 
Q 18.609375 31.296875 18.609375 23.390625 
Q 18.609375 15.53125 22.484375 10.953125 
Q 26.375 6.390625 33.015625 6.390625 
Q 39.65625 6.390625 43.53125 10.953125 
Q 47.40625 15.53125 47.40625 23.390625 
Q 47.40625 31.296875 43.53125 35.828125 
Q 39.65625 40.375 33.015625 40.375 
z
M 52.59375 71.296875 
L 52.59375 62.3125 
Q 48.875 64.0625 45.09375 64.984375 
Q 41.3125 65.921875 37.59375 65.921875 
Q 27.828125 65.921875 22.671875 59.328125 
Q 17.53125 52.734375 16.796875 39.40625 
Q 19.671875 43.65625 24.015625 45.921875 
Q 28.375 48.1875 33.59375 48.1875 
Q 44.578125 48.1875 50.953125 41.515625 
Q 57.328125 34.859375 57.328125 23.390625 
Q 57.328125 12.15625 50.6875 5.359375 
Q 44.046875 -1.421875 33.015625 -1.421875 
Q 20.359375 -1.421875 13.671875 8.265625 
Q 6.984375 17.96875 6.984375 36.375 
Q 6.984375 53.65625 15.1875 63.9375 
Q 23.390625 74.21875 37.203125 74.21875 
Q 40.921875 74.21875 44.703125 73.484375 
Q 48.484375 72.75 52.59375 71.296875 
z
" id="DejaVuSans-36"/>
      </defs>
      <g transform="translate(44.2375 175.360271)scale(0.1 -0.1)">
       <use xlink:href="#DejaVuSans-36"/>
      </g>
     </g>
    </g>
    <g id="ytick_5">
     <g id="line2d_10">
      <g>
       <use style="stroke:#000000;stroke-width:0.8;" x="57.6" xlink:href="#meecc81a3d3" y="130.25207"/>
      </g>
     </g>
     <g id="text_11">
      <!-- 8 -->
      <defs>
       <path d="M 31.78125 34.625 
Q 24.75 34.625 20.71875 30.859375 
Q 16.703125 27.09375 16.703125 20.515625 
Q 16.703125 13.921875 20.71875 10.15625 
Q 24.75 6.390625 31.78125 6.390625 
Q 38.8125 6.390625 42.859375 10.171875 
Q 46.921875 13.96875 46.921875 20.515625 
Q 46.921875 27.09375 42.890625 30.859375 
Q 38.875 34.625 31.78125 34.625 
z
M 21.921875 38.8125 
Q 15.578125 40.375 12.03125 44.71875 
Q 8.5 49.078125 8.5 55.328125 
Q 8.5 64.0625 14.71875 69.140625 
Q 20.953125 74.21875 31.78125 74.21875 
Q 42.671875 74.21875 48.875 69.140625 
Q 55.078125 64.0625 55.078125 55.328125 
Q 55.078125 49.078125 51.53125 44.71875 
Q 48 40.375 41.703125 38.8125 
Q 48.828125 37.15625 52.796875 32.3125 
Q 56.78125 27.484375 56.78125 20.515625 
Q 56.78125 9.90625 50.3125 4.234375 
Q 43.84375 -1.421875 31.78125 -1.421875 
Q 19.734375 -1.421875 13.25 4.234375 
Q 6.78125 9.90625 6.78125 20.515625 
Q 6.78125 27.484375 10.78125 32.3125 
Q 14.796875 37.15625 21.921875 38.8125 
z
M 18.3125 54.390625 
Q 18.3125 48.734375 21.84375 45.5625 
Q 25.390625 42.390625 31.78125 42.390625 
Q 38.140625 42.390625 41.71875 45.5625 
Q 45.3125 48.734375 45.3125 54.390625 
Q 45.3125 60.0625 41.71875 63.234375 
Q 38.140625 66.40625 31.78125 66.40625 
Q 25.390625 66.40625 21.84375 63.234375 
Q 18.3125 60.0625 18.3125 54.390625 
z
" id="DejaVuSans-38"/>
      </defs>
      <g transform="translate(44.2375 134.051288)scale(0.1 -0.1)">
       <use xlink:href="#DejaVuSans-38"/>
      </g>
     </g>
    </g>
    <g id="ytick_6">
     <g id="line2d_11">
      <g>
       <use style="stroke:#000000;stroke-width:0.8;" x="57.6" xlink:href="#meecc81a3d3" y="88.943087"/>
      </g>
     </g>
     <g id="text_12">
      <!-- 10 -->
      <g transform="translate(37.875 92.742306)scale(0.1 -0.1)">
       <use xlink:href="#DejaVuSans-31"/>
       <use x="63.623047" xlink:href="#DejaVuSans-30"/>
      </g>
     </g>
    </g>
    <g id="ytick_7">
     <g id="line2d_12">
      <g>
       <use style="stroke:#000000;stroke-width:0.8;" x="57.6" xlink:href="#meecc81a3d3" y="47.634105"/>
      </g>
     </g>
     <g id="text_13">
      <!-- 12 -->
      <g transform="translate(37.875 51.433323)scale(0.1 -0.1)">
       <use xlink:href="#DejaVuSans-31"/>
       <use x="63.623047" xlink:href="#DejaVuSans-32"/>
      </g>
     </g>
    </g>
    <g id="text_14">
     <!-- Valores -->
     <defs>
      <path d="M 28.609375 0 
L 0.78125 72.90625 
L 11.078125 72.90625 
L 34.1875 11.53125 
L 57.328125 72.90625 
L 67.578125 72.90625 
L 39.796875 0 
z
" id="DejaVuSans-56"/>
      <path d="M 9.421875 75.984375 
L 18.40625 75.984375 
L 18.40625 0 
L 9.421875 0 
z
" id="DejaVuSans-6c"/>
      <path d="M 30.609375 48.390625 
Q 23.390625 48.390625 19.1875 42.75 
Q 14.984375 37.109375 14.984375 27.296875 
Q 14.984375 17.484375 19.15625 11.84375 
Q 23.34375 6.203125 30.609375 6.203125 
Q 37.796875 6.203125 41.984375 11.859375 
Q 46.1875 17.53125 46.1875 27.296875 
Q 46.1875 37.015625 41.984375 42.703125 
Q 37.796875 48.390625 30.609375 48.390625 
z
M 30.609375 56 
Q 42.328125 56 49.015625 48.375 
Q 55.71875 40.765625 55.71875 27.296875 
Q 55.71875 13.875 49.015625 6.21875 
Q 42.328125 -1.421875 30.609375 -1.421875 
Q 18.84375 -1.421875 12.171875 6.21875 
Q 5.515625 13.875 5.515625 27.296875 
Q 5.515625 40.765625 12.171875 48.375 
Q 18.84375 56 30.609375 56 
z
" id="DejaVuSans-6f"/>
      <path d="M 56.203125 29.59375 
L 56.203125 25.203125 
L 14.890625 25.203125 
Q 15.484375 15.921875 20.484375 11.0625 
Q 25.484375 6.203125 34.421875 6.203125 
Q 39.59375 6.203125 44.453125 7.46875 
Q 49.3125 8.734375 54.109375 11.28125 
L 54.109375 2.78125 
Q 49.265625 0.734375 44.1875 -0.34375 
Q 39.109375 -1.421875 33.890625 -1.421875 
Q 20.796875 -1.421875 13.15625 6.1875 
Q 5.515625 13.8125 5.515625 26.8125 
Q 5.515625 40.234375 12.765625 48.109375 
Q 20.015625 56 32.328125 56 
Q 43.359375 56 49.78125 48.890625 
Q 56.203125 41.796875 56.203125 29.59375 
z
M 47.21875 32.234375 
Q 47.125 39.59375 43.09375 43.984375 
Q 39.0625 48.390625 32.421875 48.390625 
Q 24.90625 48.390625 20.390625 44.140625 
Q 15.875 39.890625 15.1875 32.171875 
z
" id="DejaVuSans-65"/>
     </defs>
     <g transform="translate(31.795312 193.1905)rotate(-90)scale(0.1 -0.1)">
      <use xlink:href="#DejaVuSans-56"/>
      <use x="68.298828" xlink:href="#DejaVuSans-61"/>
      <use x="129.578125" xlink:href="#DejaVuSans-6c"/>
      <use x="157.361328" xlink:href="#DejaVuSans-6f"/>
      <use x="218.542969" xlink:href="#DejaVuSans-72"/>
      <use x="259.625" xlink:href="#DejaVuSans-65"/>
      <use x="321.148438" xlink:href="#DejaVuSans-73"/>
     </g>
    </g>
   </g>
   <g id="line2d_13">
    <path clip-path="url(#p048d427ab6)" d="M 57.6 80.923058 
L 414.72 80.923058 
L 414.72 80.923058 
" style="fill:none;stroke:#1f77b4;stroke-linecap:square;stroke-width:1.5;"/>
   </g>
   <g id="line2d_14">
    <path clip-path="url(#p048d427ab6)" d="M 57.6 295.488 
L 58.315671 223.197281 
L 59.031343 96.660582 
L 59.747014 53.568 
L 60.462685 79.019471 
L 61.178357 87.086787 
L 61.894028 71.161602 
L 62.609699 84.995147 
L 63.325371 91.715628 
L 64.041042 91.18595 
L 64.756713 94.409489 
L 65.472385 85.620626 
L 66.903727 99.564508 
L 67.619399 80.328512 
L 68.33507 86.796014 
L 69.050741 90.435027 
L 69.766413 87.897074 
L 70.482084 83.906666 
L 71.197756 81.25054 
L 71.913427 84.889436 
L 72.629098 87.825901 
L 73.34477 79.033182 
L 74.060441 82.588116 
L 74.776112 84.51918 
L 76.207455 89.868806 
L 76.923126 92.639437 
L 77.638798 93.839331 
L 78.354469 96.951645 
L 79.07014 90.856201 
L 79.785812 93.974353 
L 80.501483 87.33718 
L 81.217154 88.627971 
L 81.932826 85.636178 
L 83.364168 90.231031 
L 84.07984 88.439497 
L 84.795511 84.815411 
L 85.511182 87.277435 
L 86.942525 79.112086 
L 88.373868 74.653333 
L 89.089539 75.980046 
L 89.80521 76.372628 
L 90.520882 77.278109 
L 91.236553 76.578066 
L 92.667896 79.792998 
L 93.383567 75.745174 
L 94.099238 72.768649 
L 94.81491 71.58627 
L 95.530581 71.31295 
L 96.961924 75.150924 
L 97.677595 76.11112 
L 98.393267 77.307611 
L 99.108938 73.551334 
L 99.824609 72.442073 
L 100.540281 74.274241 
L 101.255952 73.261678 
L 101.971623 71.51933 
L 103.402966 74.724079 
L 104.118637 73.59832 
L 104.834309 75.217956 
L 105.54998 76.091896 
L 106.265651 77.441954 
L 106.981323 76.352248 
L 107.696994 76.879731 
L 108.412665 77.843886 
L 109.128337 79.265422 
L 110.559679 78.25878 
L 111.275351 79.372019 
L 111.991022 78.933957 
L 112.706693 79.7285 
L 113.422365 80.765088 
L 114.138036 81.487759 
L 114.853707 81.331528 
L 115.569379 80.325209 
L 116.28505 81.361028 
L 117.000721 81.821566 
L 117.716393 82.694879 
L 118.432064 80.493186 
L 119.147735 80.133997 
L 119.863407 79.547029 
L 121.294749 75.26608 
L 122.010421 75.339951 
L 122.726092 75.823664 
L 123.441764 76.009647 
L 124.157435 76.845205 
L 124.873106 76.446243 
L 125.588778 76.420799 
L 126.304449 77.109557 
L 127.02012 75.886883 
L 127.735792 76.25182 
L 128.451463 77.323866 
L 129.882806 78.52435 
L 130.598477 78.566364 
L 131.314148 78.42569 
L 132.02982 79.461624 
L 132.745491 79.870614 
L 133.461162 78.804425 
L 134.176834 79.217818 
L 134.892505 80.203328 
L 135.608176 80.742931 
L 137.039519 82.301591 
L 137.75519 82.811075 
L 138.470862 82.693793 
L 139.186533 81.444463 
L 139.902204 81.384834 
L 140.617876 82.118789 
L 141.333547 82.115526 
L 142.049218 82.82963 
L 142.76489 81.420973 
L 144.196232 82.8496 
L 144.911904 82.824931 
L 145.627575 83.354623 
L 147.058918 84.669322 
L 147.774589 84.820171 
L 148.490261 84.727134 
L 149.205932 84.873505 
L 149.921603 85.57364 
L 150.637275 84.589672 
L 151.352946 83.925059 
L 152.068617 84.001865 
L 152.784289 82.809291 
L 153.49996 82.316752 
L 154.215631 83.093342 
L 154.931303 83.130066 
L 155.646974 83.025169 
L 156.362645 83.53871 
L 157.078317 82.717481 
L 157.793988 82.870804 
L 158.509659 82.076651 
L 159.225331 82.226779 
L 159.941002 82.163159 
L 160.656673 80.858381 
L 161.372345 81.026416 
L 162.803687 82.450847 
L 163.519359 82.024022 
L 164.23503 82.31297 
L 164.950701 81.323327 
L 165.666373 81.704956 
L 166.382044 81.134534 
L 167.097715 81.176713 
L 167.813387 81.348352 
L 168.529058 82.02984 
L 169.244729 82.403476 
L 169.960401 81.64696 
L 170.676072 80.306622 
L 171.391743 80.572708 
L 172.107415 79.876601 
L 173.538758 80.994008 
L 174.254429 80.271991 
L 174.9701 78.988347 
L 175.685772 79.641397 
L 177.117114 78.34392 
L 177.832786 78.957663 
L 178.548457 77.980224 
L 179.264128 78.18943 
L 180.695471 76.361357 
L 181.411142 76.99 
L 182.126814 76.297594 
L 182.842485 76.860209 
L 183.558156 77.232577 
L 184.273828 77.816421 
L 184.989499 77.306909 
L 185.70517 77.102362 
L 186.420842 77.706292 
L 187.136513 78.161334 
L 187.852184 78.755809 
L 188.567856 78.010105 
L 189.999198 79.068343 
L 190.71487 78.424899 
L 191.430541 77.955435 
L 192.146212 76.883163 
L 192.861884 77.385701 
L 193.577555 76.846368 
L 194.293226 76.520663 
L 195.008898 76.070275 
L 195.724569 75.386954 
L 196.44024 75.944328 
L 197.155912 76.083278 
L 197.871583 76.527178 
L 198.587255 76.783831 
L 200.018597 77.721086 
L 200.734269 77.470972 
L 201.44994 77.595285 
L 202.165611 77.84297 
L 202.881283 77.111235 
L 203.596954 76.549674 
L 205.028297 76.923958 
L 205.743968 75.958018 
L 206.459639 76.26961 
L 207.175311 76.709315 
L 208.606653 74.866914 
L 209.322325 74.799523 
L 210.037996 75.291322 
L 210.753667 75.383013 
L 211.469339 75.764411 
L 212.18501 75.439761 
L 212.900681 75.447221 
L 213.616353 75.766546 
L 214.332024 75.94262 
L 215.047695 76.305267 
L 215.763367 76.223394 
L 216.479038 76.704876 
L 217.194709 76.02326 
L 217.910381 75.020024 
L 218.626052 74.355619 
L 219.341723 74.05765 
L 220.057395 73.407834 
L 220.773066 72.444517 
L 221.488737 72.843873 
L 222.204409 72.950396 
L 222.92008 73.40489 
L 223.635752 73.586189 
L 224.351423 73.939288 
L 225.067094 73.173595 
L 225.782766 72.811378 
L 226.498437 72.630866 
L 227.214108 72.749602 
L 227.92978 72.669626 
L 228.645451 73.058957 
L 229.361122 72.917712 
L 230.076794 73.371547 
L 230.792465 73.620311 
L 231.508136 73.486446 
L 232.223808 73.899983 
L 232.939479 74.169458 
L 233.65515 74.165142 
L 234.370822 74.435438 
L 235.086493 73.926369 
L 235.802164 74.215248 
L 236.517836 73.7161 
L 237.949178 74.255392 
L 239.380521 73.307268 
L 240.096192 73.162883 
L 240.811864 73.26725 
L 241.527535 73.618328 
L 242.243206 73.629299 
L 243.674549 74.437361 
L 244.39022 74.588052 
L 245.105892 74.900188 
L 245.821563 75.049049 
L 246.537234 75.35301 
L 247.252906 75.369137 
L 247.968577 75.710696 
L 248.684248 74.875723 
L 249.39992 75.264077 
L 250.115591 74.581891 
L 250.831263 74.14719 
L 251.546934 74.554006 
L 252.262605 74.128909 
L 252.978277 74.46853 
L 254.409619 73.432256 
L 255.125291 73.26343 
L 255.840962 72.574862 
L 256.556633 72.972881 
L 257.272305 73.166602 
L 257.987976 73.172671 
L 258.703647 72.83828 
L 259.419319 72.695313 
L 260.850661 73.405601 
L 262.282004 73.046267 
L 262.997675 73.426102 
L 263.713347 73.674202 
L 264.429018 73.251918 
L 265.144689 73.627222 
L 265.860361 73.403877 
L 266.576032 73.349796 
L 267.291703 73.545823 
L 268.007375 73.881308 
L 269.438717 74.160259 
L 270.154389 73.644463 
L 272.301403 73.557748 
L 273.017074 73.906901 
L 273.732745 73.313465 
L 274.448417 73.508775 
L 275.164088 73.537656 
L 275.87976 72.853597 
L 276.595431 73.183879 
L 277.311102 73.080732 
L 278.742445 73.799125 
L 279.458116 73.949044 
L 280.173788 73.325667 
L 280.889459 73.474269 
L 281.60513 72.927353 
L 282.320802 73.25595 
L 283.036473 73.084641 
L 285.183487 71.541991 
L 285.899158 71.790625 
L 286.61483 71.198631 
L 287.330501 71.537911 
L 288.046172 71.289215 
L 288.761844 71.633539 
L 289.477515 71.826855 
L 290.908858 72.498083 
L 292.3402 71.497412 
L 293.055872 71.477821 
L 293.771543 71.590906 
L 294.487214 71.117594 
L 295.918557 71.592313 
L 298.065571 71.334014 
L 298.781242 70.868388 
L 299.496914 71.012283 
L 300.212585 70.883603 
L 300.928257 71.204225 
L 301.643928 71.183626 
L 302.359599 70.728829 
L 303.075271 70.574276 
L 304.506613 71.19037 
L 305.222285 71.107462 
L 306.653627 71.321342 
L 307.369299 70.877462 
L 308.08497 71.193398 
L 308.800641 70.71081 
L 309.516313 70.956793 
L 310.947655 71.259258 
L 311.663327 71.069091 
L 312.378998 71.355203 
L 313.094669 70.87897 
L 313.810341 70.98811 
L 314.526012 71.286946 
L 315.241683 71.265999 
L 315.957355 70.745919 
L 317.388697 70.892421 
L 318.104369 71.187143 
L 318.82004 71.003304 
L 319.535711 71.086729 
L 320.251383 71.3787 
L 320.967054 71.327229 
L 321.682725 71.387925 
L 323.114068 71.985541 
L 323.829739 71.486837 
L 324.545411 71.441898 
L 326.692425 72.15459 
L 328.123768 72.615779 
L 328.839439 72.371853 
L 329.55511 72.650257 
L 330.270782 72.671257 
L 330.986453 72.890102 
L 331.702124 72.592504 
L 332.417796 72.441803 
L 333.133467 72.469029 
L 333.849138 72.357368 
L 335.280481 72.906689 
L 335.996152 72.425454 
L 336.711824 72.483726 
L 337.427495 72.096103 
L 338.143166 71.558616 
L 339.574509 72.111692 
L 340.29018 71.749492 
L 341.005852 71.775758 
L 342.437194 72.269772 
L 344.584208 72.748482 
L 345.29988 72.236905 
L 346.015551 71.968782 
L 348.162565 71.896885 
L 351.025251 72.373915 
L 351.740922 72.206363 
L 353.172265 72.640743 
L 353.887936 72.892476 
L 354.603607 73.023683 
L 355.319279 72.726294 
L 356.03495 72.305029 
L 357.466293 72.67192 
L 358.181964 72.766366 
L 358.897635 73.014596 
L 359.613307 72.916588 
L 360.328978 72.573211 
L 362.475992 73.316339 
L 363.191663 73.159182 
L 363.907335 73.296648 
L 364.623006 73.550985 
L 366.054349 72.573099 
L 366.77002 72.473802 
L 367.485691 72.215539 
L 368.201363 72.305357 
L 368.917034 72.531382 
L 369.632705 72.434357 
L 370.348377 72.592181 
L 371.064048 72.613201 
L 371.779719 72.866385 
L 373.211062 73.155823 
L 373.926733 72.732185 
L 374.642405 72.954725 
L 375.358076 72.628806 
L 376.073747 72.878544 
L 377.50509 72.535406 
L 378.936433 72.006932 
L 379.652104 71.758221 
L 380.367776 71.37603 
L 381.083447 71.424651 
L 381.799118 71.613062 
L 382.51479 71.571746 
L 383.230461 71.693678 
L 384.661804 71.478604 
L 386.093146 71.544465 
L 387.524489 71.741735 
L 388.24016 71.982404 
L 388.955832 71.861641 
L 391.102846 72.510023 
L 391.818517 72.362939 
L 393.24986 71.592983 
L 393.965531 71.573611 
L 394.681202 71.341869 
L 396.112545 71.714469 
L 396.828216 71.758791 
L 398.259559 72.172181 
L 399.690902 72.110745 
L 401.122244 72.533484 
L 402.553587 71.886868 
L 404.700601 71.460489 
L 406.131944 71.810814 
L 406.847615 71.666119 
L 410.425972 72.476342 
L 411.141643 72.067175 
L 411.857315 72.246481 
L 413.288657 72.349661 
L 414.004329 72.570808 
L 414.72 72.596872 
L 414.72 72.596872 
" style="fill:none;stroke:#ff7f0e;stroke-linecap:square;stroke-width:1.5;"/>
   </g>
   <g id="patch_3">
    <path d="M 57.6 307.584 
L 57.6 41.472 
" style="fill:none;stroke:#000000;stroke-linecap:square;stroke-linejoin:miter;stroke-width:0.8;"/>
   </g>
   <g id="patch_4">
    <path d="M 414.72 307.584 
L 414.72 41.472 
" style="fill:none;stroke:#000000;stroke-linecap:square;stroke-linejoin:miter;stroke-width:0.8;"/>
   </g>
   <g id="patch_5">
    <path d="M 57.6 307.584 
L 414.72 307.584 
" style="fill:none;stroke:#000000;stroke-linecap:square;stroke-linejoin:miter;stroke-width:0.8;"/>
   </g>
   <g id="patch_6">
    <path d="M 57.6 41.472 
L 414.72 41.472 
" style="fill:none;stroke:#000000;stroke-linecap:square;stroke-linejoin:miter;stroke-width:0.8;"/>
   </g>
   <g id="text_15">
    <!-- Grafico valores desvio estandar esperados vs obtenidos -->
    <defs>
     <path d="M 59.515625 10.40625 
L 59.515625 29.984375 
L 43.40625 29.984375 
L 43.40625 38.09375 
L 69.28125 38.09375 
L 69.28125 6.78125 
Q 63.578125 2.734375 56.6875 0.65625 
Q 49.8125 -1.421875 42 -1.421875 
Q 24.90625 -1.421875 15.25 8.5625 
Q 5.609375 18.5625 5.609375 36.375 
Q 5.609375 54.25 15.25 64.234375 
Q 24.90625 74.21875 42 74.21875 
Q 49.125 74.21875 55.546875 72.453125 
Q 61.96875 70.703125 67.390625 67.28125 
L 67.390625 56.78125 
Q 61.921875 61.421875 55.765625 63.765625 
Q 49.609375 66.109375 42.828125 66.109375 
Q 29.4375 66.109375 22.71875 58.640625 
Q 16.015625 51.171875 16.015625 36.375 
Q 16.015625 21.625 22.71875 14.15625 
Q 29.4375 6.6875 42.828125 6.6875 
Q 48.046875 6.6875 52.140625 7.59375 
Q 56.25 8.5 59.515625 10.40625 
z
" id="DejaVuSans-47"/>
     <path d="M 37.109375 75.984375 
L 37.109375 68.5 
L 28.515625 68.5 
Q 23.6875 68.5 21.796875 66.546875 
Q 19.921875 64.59375 19.921875 59.515625 
L 19.921875 54.6875 
L 34.71875 54.6875 
L 34.71875 47.703125 
L 19.921875 47.703125 
L 19.921875 0 
L 10.890625 0 
L 10.890625 47.703125 
L 2.296875 47.703125 
L 2.296875 54.6875 
L 10.890625 54.6875 
L 10.890625 58.5 
Q 10.890625 67.625 15.140625 71.796875 
Q 19.390625 75.984375 28.609375 75.984375 
z
" id="DejaVuSans-66"/>
     <path d="M 48.78125 52.59375 
L 48.78125 44.1875 
Q 44.96875 46.296875 41.140625 47.34375 
Q 37.3125 48.390625 33.40625 48.390625 
Q 24.65625 48.390625 19.8125 42.84375 
Q 14.984375 37.3125 14.984375 27.296875 
Q 14.984375 17.28125 19.8125 11.734375 
Q 24.65625 6.203125 33.40625 6.203125 
Q 37.3125 6.203125 41.140625 7.25 
Q 44.96875 8.296875 48.78125 10.40625 
L 48.78125 2.09375 
Q 45.015625 0.34375 40.984375 -0.53125 
Q 36.96875 -1.421875 32.421875 -1.421875 
Q 20.0625 -1.421875 12.78125 6.34375 
Q 5.515625 14.109375 5.515625 27.296875 
Q 5.515625 40.671875 12.859375 48.328125 
Q 20.21875 56 33.015625 56 
Q 37.15625 56 41.109375 55.140625 
Q 45.0625 54.296875 48.78125 52.59375 
z
" id="DejaVuSans-63"/>
     <path id="DejaVuSans-20"/>
     <path d="M 2.984375 54.6875 
L 12.5 54.6875 
L 29.59375 8.796875 
L 46.6875 54.6875 
L 56.203125 54.6875 
L 35.6875 0 
L 23.484375 0 
z
" id="DejaVuSans-76"/>
     <path d="M 18.3125 70.21875 
L 18.3125 54.6875 
L 36.8125 54.6875 
L 36.8125 47.703125 
L 18.3125 47.703125 
L 18.3125 18.015625 
Q 18.3125 11.328125 20.140625 9.421875 
Q 21.96875 7.515625 27.59375 7.515625 
L 36.8125 7.515625 
L 36.8125 0 
L 27.59375 0 
Q 17.1875 0 13.234375 3.875 
Q 9.28125 7.765625 9.28125 18.015625 
L 9.28125 47.703125 
L 2.6875 47.703125 
L 2.6875 54.6875 
L 9.28125 54.6875 
L 9.28125 70.21875 
z
" id="DejaVuSans-74"/>
     <path d="M 54.890625 33.015625 
L 54.890625 0 
L 45.90625 0 
L 45.90625 32.71875 
Q 45.90625 40.484375 42.875 44.328125 
Q 39.84375 48.1875 33.796875 48.1875 
Q 26.515625 48.1875 22.3125 43.546875 
Q 18.109375 38.921875 18.109375 30.90625 
L 18.109375 0 
L 9.078125 0 
L 9.078125 54.6875 
L 18.109375 54.6875 
L 18.109375 46.1875 
Q 21.34375 51.125 25.703125 53.5625 
Q 30.078125 56 35.796875 56 
Q 45.21875 56 50.046875 50.171875 
Q 54.890625 44.34375 54.890625 33.015625 
z
" id="DejaVuSans-6e"/>
     <path d="M 18.109375 8.203125 
L 18.109375 -20.796875 
L 9.078125 -20.796875 
L 9.078125 54.6875 
L 18.109375 54.6875 
L 18.109375 46.390625 
Q 20.953125 51.265625 25.265625 53.625 
Q 29.59375 56 35.59375 56 
Q 45.5625 56 51.78125 48.09375 
Q 58.015625 40.1875 58.015625 27.296875 
Q 58.015625 14.40625 51.78125 6.484375 
Q 45.5625 -1.421875 35.59375 -1.421875 
Q 29.59375 -1.421875 25.265625 0.953125 
Q 20.953125 3.328125 18.109375 8.203125 
z
M 48.6875 27.296875 
Q 48.6875 37.203125 44.609375 42.84375 
Q 40.53125 48.484375 33.40625 48.484375 
Q 26.265625 48.484375 22.1875 42.84375 
Q 18.109375 37.203125 18.109375 27.296875 
Q 18.109375 17.390625 22.1875 11.75 
Q 26.265625 6.109375 33.40625 6.109375 
Q 40.53125 6.109375 44.609375 11.75 
Q 48.6875 17.390625 48.6875 27.296875 
z
" id="DejaVuSans-70"/>
     <path d="M 48.6875 27.296875 
Q 48.6875 37.203125 44.609375 42.84375 
Q 40.53125 48.484375 33.40625 48.484375 
Q 26.265625 48.484375 22.1875 42.84375 
Q 18.109375 37.203125 18.109375 27.296875 
Q 18.109375 17.390625 22.1875 11.75 
Q 26.265625 6.109375 33.40625 6.109375 
Q 40.53125 6.109375 44.609375 11.75 
Q 48.6875 17.390625 48.6875 27.296875 
z
M 18.109375 46.390625 
Q 20.953125 51.265625 25.265625 53.625 
Q 29.59375 56 35.59375 56 
Q 45.5625 56 51.78125 48.09375 
Q 58.015625 40.1875 58.015625 27.296875 
Q 58.015625 14.40625 51.78125 6.484375 
Q 45.5625 -1.421875 35.59375 -1.421875 
Q 29.59375 -1.421875 25.265625 0.953125 
Q 20.953125 3.328125 18.109375 8.203125 
L 18.109375 0 
L 9.078125 0 
L 9.078125 75.984375 
L 18.109375 75.984375 
z
" id="DejaVuSans-62"/>
    </defs>
    <g transform="translate(67.866563 35.472)scale(0.12 -0.12)">
     <use xlink:href="#DejaVuSans-47"/>
     <use x="77.490234" xlink:href="#DejaVuSans-72"/>
     <use x="118.603516" xlink:href="#DejaVuSans-61"/>
     <use x="179.882812" xlink:href="#DejaVuSans-66"/>
     <use x="215.087891" xlink:href="#DejaVuSans-69"/>
     <use x="242.871094" xlink:href="#DejaVuSans-63"/>
     <use x="297.851562" xlink:href="#DejaVuSans-6f"/>
     <use x="359.033203" xlink:href="#DejaVuSans-20"/>
     <use x="390.820312" xlink:href="#DejaVuSans-76"/>
     <use x="450" xlink:href="#DejaVuSans-61"/>
     <use x="511.279297" xlink:href="#DejaVuSans-6c"/>
     <use x="539.0625" xlink:href="#DejaVuSans-6f"/>
     <use x="600.244141" xlink:href="#DejaVuSans-72"/>
     <use x="641.326172" xlink:href="#DejaVuSans-65"/>
     <use x="702.849609" xlink:href="#DejaVuSans-73"/>
     <use x="754.949219" xlink:href="#DejaVuSans-20"/>
     <use x="786.736328" xlink:href="#DejaVuSans-64"/>
     <use x="850.212891" xlink:href="#DejaVuSans-65"/>
     <use x="911.736328" xlink:href="#DejaVuSans-73"/>
     <use x="963.835938" xlink:href="#DejaVuSans-76"/>
     <use x="1023.015625" xlink:href="#DejaVuSans-69"/>
     <use x="1050.798828" xlink:href="#DejaVuSans-6f"/>
     <use x="1111.980469" xlink:href="#DejaVuSans-20"/>
     <use x="1143.767578" xlink:href="#DejaVuSans-65"/>
     <use x="1205.291016" xlink:href="#DejaVuSans-73"/>
     <use x="1257.390625" xlink:href="#DejaVuSans-74"/>
     <use x="1296.599609" xlink:href="#DejaVuSans-61"/>
     <use x="1357.878906" xlink:href="#DejaVuSans-6e"/>
     <use x="1421.257812" xlink:href="#DejaVuSans-64"/>
     <use x="1484.734375" xlink:href="#DejaVuSans-61"/>
     <use x="1546.013672" xlink:href="#DejaVuSans-72"/>
     <use x="1587.126953" xlink:href="#DejaVuSans-20"/>
     <use x="1618.914062" xlink:href="#DejaVuSans-65"/>
     <use x="1680.4375" xlink:href="#DejaVuSans-73"/>
     <use x="1732.537109" xlink:href="#DejaVuSans-70"/>
     <use x="1796.013672" xlink:href="#DejaVuSans-65"/>
     <use x="1857.537109" xlink:href="#DejaVuSans-72"/>
     <use x="1898.650391" xlink:href="#DejaVuSans-61"/>
     <use x="1959.929688" xlink:href="#DejaVuSans-64"/>
     <use x="2023.40625" xlink:href="#DejaVuSans-6f"/>
     <use x="2084.587891" xlink:href="#DejaVuSans-73"/>
     <use x="2136.6875" xlink:href="#DejaVuSans-20"/>
     <use x="2168.474609" xlink:href="#DejaVuSans-76"/>
     <use x="2227.654297" xlink:href="#DejaVuSans-73"/>
     <use x="2279.753906" xlink:href="#DejaVuSans-20"/>
     <use x="2311.541016" xlink:href="#DejaVuSans-6f"/>
     <use x="2372.722656" xlink:href="#DejaVuSans-62"/>
     <use x="2436.199219" xlink:href="#DejaVuSans-74"/>
     <use x="2475.408203" xlink:href="#DejaVuSans-65"/>
     <use x="2536.931641" xlink:href="#DejaVuSans-6e"/>
     <use x="2600.310547" xlink:href="#DejaVuSans-69"/>
     <use x="2628.09375" xlink:href="#DejaVuSans-64"/>
     <use x="2691.570312" xlink:href="#DejaVuSans-6f"/>
     <use x="2752.751953" xlink:href="#DejaVuSans-73"/>
    </g>
   </g>
   <g id="legend_1">
    <g id="patch_7">
     <path d="M 64.6 302.584 
L 208.01875 302.584 
Q 210.01875 302.584 210.01875 300.584 
L 210.01875 272.22775 
Q 210.01875 270.22775 208.01875 270.22775 
L 64.6 270.22775 
Q 62.6 270.22775 62.6 272.22775 
L 62.6 300.584 
Q 62.6 302.584 64.6 302.584 
z
" style="fill:#ffffff;opacity:0.8;stroke:#cccccc;stroke-linejoin:miter;"/>
    </g>
    <g id="line2d_15">
     <path d="M 66.6 278.326187 
L 86.6 278.326187 
" style="fill:none;stroke:#1f77b4;stroke-linecap:square;stroke-width:1.5;"/>
    </g>
    <g id="line2d_16"/>
    <g id="text_16">
     <!-- Valor desvio esperado -->
     <g transform="translate(94.6 281.826187)scale(0.1 -0.1)">
      <use xlink:href="#DejaVuSans-56"/>
      <use x="68.298828" xlink:href="#DejaVuSans-61"/>
      <use x="129.578125" xlink:href="#DejaVuSans-6c"/>
      <use x="157.361328" xlink:href="#DejaVuSans-6f"/>
      <use x="218.542969" xlink:href="#DejaVuSans-72"/>
      <use x="259.65625" xlink:href="#DejaVuSans-20"/>
      <use x="291.443359" xlink:href="#DejaVuSans-64"/>
      <use x="354.919922" xlink:href="#DejaVuSans-65"/>
      <use x="416.443359" xlink:href="#DejaVuSans-73"/>
      <use x="468.542969" xlink:href="#DejaVuSans-76"/>
      <use x="527.722656" xlink:href="#DejaVuSans-69"/>
      <use x="555.505859" xlink:href="#DejaVuSans-6f"/>
      <use x="616.6875" xlink:href="#DejaVuSans-20"/>
      <use x="648.474609" xlink:href="#DejaVuSans-65"/>
      <use x="709.998047" xlink:href="#DejaVuSans-73"/>
      <use x="762.097656" xlink:href="#DejaVuSans-70"/>
      <use x="825.574219" xlink:href="#DejaVuSans-65"/>
      <use x="887.097656" xlink:href="#DejaVuSans-72"/>
      <use x="928.210938" xlink:href="#DejaVuSans-61"/>
      <use x="989.490234" xlink:href="#DejaVuSans-64"/>
      <use x="1052.966797" xlink:href="#DejaVuSans-6f"/>
     </g>
    </g>
    <g id="line2d_17">
     <path d="M 66.6 293.004312 
L 86.6 293.004312 
" style="fill:none;stroke:#ff7f0e;stroke-linecap:square;stroke-width:1.5;"/>
    </g>
    <g id="line2d_18"/>
    <g id="text_17">
     <!-- Valor desvio obtenido -->
     <g transform="translate(94.6 296.504312)scale(0.1 -0.1)">
      <use xlink:href="#DejaVuSans-56"/>
      <use x="68.298828" xlink:href="#DejaVuSans-61"/>
      <use x="129.578125" xlink:href="#DejaVuSans-6c"/>
      <use x="157.361328" xlink:href="#DejaVuSans-6f"/>
      <use x="218.542969" xlink:href="#DejaVuSans-72"/>
      <use x="259.65625" xlink:href="#DejaVuSans-20"/>
      <use x="291.443359" xlink:href="#DejaVuSans-64"/>
      <use x="354.919922" xlink:href="#DejaVuSans-65"/>
      <use x="416.443359" xlink:href="#DejaVuSans-73"/>
      <use x="468.542969" xlink:href="#DejaVuSans-76"/>
      <use x="527.722656" xlink:href="#DejaVuSans-69"/>
      <use x="555.505859" xlink:href="#DejaVuSans-6f"/>
      <use x="616.6875" xlink:href="#DejaVuSans-20"/>
      <use x="648.474609" xlink:href="#DejaVuSans-6f"/>
      <use x="709.65625" xlink:href="#DejaVuSans-62"/>
      <use x="773.132812" xlink:href="#DejaVuSans-74"/>
      <use x="812.341797" xlink:href="#DejaVuSans-65"/>
      <use x="873.865234" xlink:href="#DejaVuSans-6e"/>
      <use x="937.244141" xlink:href="#DejaVuSans-69"/>
      <use x="965.027344" xlink:href="#DejaVuSans-64"/>
      <use x="1028.503906" xlink:href="#DejaVuSans-6f"/>
     </g>
    </g>
   </g>
  </g>
 </g>
 <defs>
  <clipPath id="p048d427ab6">
   <rect height="266.112" width="357.12" x="57.6" y="41.472"/>
  </clipPath>
 </defs>
</svg>
