<?xml version="1.0" encoding="utf-8" standalone="no"?>
<!DOCTYPE svg PUBLIC "-//W3C//DTD SVG 1.1//EN"
  "http://www.w3.org/Graphics/SVG/1.1/DTD/svg11.dtd">
<!-- Created with matplotlib (http://matplotlib.org/) -->
<svg height="345.6pt" version="1.1" viewBox="0 0 460.8 345.6" width="460.8pt" xmlns="http://www.w3.org/2000/svg" xmlns:xlink="http://www.w3.org/1999/xlink">
 <defs>
  <style type="text/css">
*{stroke-linecap:butt;stroke-linejoin:round;}
  </style>
 </defs>
 <g id="figure_1">
  <g id="patch_1">
   <path d="M 0 345.6 
L 460.8 345.6 
L 460.8 0 
L 0 0 
z
" style="fill:#ffffff;"/>
  </g>
  <g id="axes_1">
   <g id="patch_2">
    <path d="M 57.6 307.584 
L 414.72 307.584 
L 414.72 41.472 
L 57.6 41.472 
z
" style="fill:#ffffff;"/>
   </g>
   <g id="matplotlib.axis_1">
    <g id="xtick_1">
     <g id="line2d_1">
      <defs>
       <path d="M 0 0 
L 0 3.5 
" id="m43925d8d66" style="stroke:#000000;stroke-width:0.8;"/>
      </defs>
      <g>
       <use style="stroke:#000000;stroke-width:0.8;" x="128.451463" xlink:href="#m43925d8d66" y="307.584"/>
      </g>
     </g>
     <g id="text_1">
      <!-- 100 -->
      <defs>
       <path d="M 12.40625 8.296875 
L 28.515625 8.296875 
L 28.515625 63.921875 
L 10.984375 60.40625 
L 10.984375 69.390625 
L 28.421875 72.90625 
L 38.28125 72.90625 
L 38.28125 8.296875 
L 54.390625 8.296875 
L 54.390625 0 
L 12.40625 0 
z
" id="DejaVuSans-31"/>
       <path d="M 31.78125 66.40625 
Q 24.171875 66.40625 20.328125 58.90625 
Q 16.5 51.421875 16.5 36.375 
Q 16.5 21.390625 20.328125 13.890625 
Q 24.171875 6.390625 31.78125 6.390625 
Q 39.453125 6.390625 43.28125 13.890625 
Q 47.125 21.390625 47.125 36.375 
Q 47.125 51.421875 43.28125 58.90625 
Q 39.453125 66.40625 31.78125 66.40625 
z
M 31.78125 74.21875 
Q 44.046875 74.21875 50.515625 64.515625 
Q 56.984375 54.828125 56.984375 36.375 
Q 56.984375 17.96875 50.515625 8.265625 
Q 44.046875 -1.421875 31.78125 -1.421875 
Q 19.53125 -1.421875 13.0625 8.265625 
Q 6.59375 17.96875 6.59375 36.375 
Q 6.59375 54.828125 13.0625 64.515625 
Q 19.53125 74.21875 31.78125 74.21875 
z
" id="DejaVuSans-30"/>
      </defs>
      <g transform="translate(118.907713 322.182437)scale(0.1 -0.1)">
       <use xlink:href="#DejaVuSans-31"/>
       <use x="63.623047" xlink:href="#DejaVuSans-30"/>
       <use x="127.246094" xlink:href="#DejaVuSans-30"/>
      </g>
     </g>
    </g>
    <g id="xtick_2">
     <g id="line2d_2">
      <g>
       <use style="stroke:#000000;stroke-width:0.8;" x="200.018597" xlink:href="#m43925d8d66" y="307.584"/>
      </g>
     </g>
     <g id="text_2">
      <!-- 200 -->
      <defs>
       <path d="M 19.1875 8.296875 
L 53.609375 8.296875 
L 53.609375 0 
L 7.328125 0 
L 7.328125 8.296875 
Q 12.9375 14.109375 22.625 23.890625 
Q 32.328125 33.6875 34.8125 36.53125 
Q 39.546875 41.84375 41.421875 45.53125 
Q 43.3125 49.21875 43.3125 52.78125 
Q 43.3125 58.59375 39.234375 62.25 
Q 35.15625 65.921875 28.609375 65.921875 
Q 23.96875 65.921875 18.8125 64.3125 
Q 13.671875 62.703125 7.8125 59.421875 
L 7.8125 69.390625 
Q 13.765625 71.78125 18.9375 73 
Q 24.125 74.21875 28.421875 74.21875 
Q 39.75 74.21875 46.484375 68.546875 
Q 53.21875 62.890625 53.21875 53.421875 
Q 53.21875 48.921875 51.53125 44.890625 
Q 49.859375 40.875 45.40625 35.40625 
Q 44.1875 33.984375 37.640625 27.21875 
Q 31.109375 20.453125 19.1875 8.296875 
z
" id="DejaVuSans-32"/>
      </defs>
      <g transform="translate(190.474847 322.182437)scale(0.1 -0.1)">
       <use xlink:href="#DejaVuSans-32"/>
       <use x="63.623047" xlink:href="#DejaVuSans-30"/>
       <use x="127.246094" xlink:href="#DejaVuSans-30"/>
      </g>
     </g>
    </g>
    <g id="xtick_3">
     <g id="line2d_3">
      <g>
       <use style="stroke:#000000;stroke-width:0.8;" x="271.585731" xlink:href="#m43925d8d66" y="307.584"/>
      </g>
     </g>
     <g id="text_3">
      <!-- 300 -->
      <defs>
       <path d="M 40.578125 39.3125 
Q 47.65625 37.796875 51.625 33 
Q 55.609375 28.21875 55.609375 21.1875 
Q 55.609375 10.40625 48.1875 4.484375 
Q 40.765625 -1.421875 27.09375 -1.421875 
Q 22.515625 -1.421875 17.65625 -0.515625 
Q 12.796875 0.390625 7.625 2.203125 
L 7.625 11.71875 
Q 11.71875 9.328125 16.59375 8.109375 
Q 21.484375 6.890625 26.8125 6.890625 
Q 36.078125 6.890625 40.9375 10.546875 
Q 45.796875 14.203125 45.796875 21.1875 
Q 45.796875 27.640625 41.28125 31.265625 
Q 36.765625 34.90625 28.71875 34.90625 
L 20.21875 34.90625 
L 20.21875 43.015625 
L 29.109375 43.015625 
Q 36.375 43.015625 40.234375 45.921875 
Q 44.09375 48.828125 44.09375 54.296875 
Q 44.09375 59.90625 40.109375 62.90625 
Q 36.140625 65.921875 28.71875 65.921875 
Q 24.65625 65.921875 20.015625 65.03125 
Q 15.375 64.15625 9.8125 62.3125 
L 9.8125 71.09375 
Q 15.4375 72.65625 20.34375 73.4375 
Q 25.25 74.21875 29.59375 74.21875 
Q 40.828125 74.21875 47.359375 69.109375 
Q 53.90625 64.015625 53.90625 55.328125 
Q 53.90625 49.265625 50.4375 45.09375 
Q 46.96875 40.921875 40.578125 39.3125 
z
" id="DejaVuSans-33"/>
      </defs>
      <g transform="translate(262.041981 322.182437)scale(0.1 -0.1)">
       <use xlink:href="#DejaVuSans-33"/>
       <use x="63.623047" xlink:href="#DejaVuSans-30"/>
       <use x="127.246094" xlink:href="#DejaVuSans-30"/>
      </g>
     </g>
    </g>
    <g id="xtick_4">
     <g id="line2d_4">
      <g>
       <use style="stroke:#000000;stroke-width:0.8;" x="343.152866" xlink:href="#m43925d8d66" y="307.584"/>
      </g>
     </g>
     <g id="text_4">
      <!-- 400 -->
      <defs>
       <path d="M 37.796875 64.3125 
L 12.890625 25.390625 
L 37.796875 25.390625 
z
M 35.203125 72.90625 
L 47.609375 72.90625 
L 47.609375 25.390625 
L 58.015625 25.390625 
L 58.015625 17.1875 
L 47.609375 17.1875 
L 47.609375 0 
L 37.796875 0 
L 37.796875 17.1875 
L 4.890625 17.1875 
L 4.890625 26.703125 
z
" id="DejaVuSans-34"/>
      </defs>
      <g transform="translate(333.609116 322.182437)scale(0.1 -0.1)">
       <use xlink:href="#DejaVuSans-34"/>
       <use x="63.623047" xlink:href="#DejaVuSans-30"/>
       <use x="127.246094" xlink:href="#DejaVuSans-30"/>
      </g>
     </g>
    </g>
    <g id="xtick_5">
     <g id="line2d_5">
      <g>
       <use style="stroke:#000000;stroke-width:0.8;" x="414.72" xlink:href="#m43925d8d66" y="307.584"/>
      </g>
     </g>
     <g id="text_5">
      <!-- 500 -->
      <defs>
       <path d="M 10.796875 72.90625 
L 49.515625 72.90625 
L 49.515625 64.59375 
L 19.828125 64.59375 
L 19.828125 46.734375 
Q 21.96875 47.46875 24.109375 47.828125 
Q 26.265625 48.1875 28.421875 48.1875 
Q 40.625 48.1875 47.75 41.5 
Q 54.890625 34.8125 54.890625 23.390625 
Q 54.890625 11.625 47.5625 5.09375 
Q 40.234375 -1.421875 26.90625 -1.421875 
Q 22.3125 -1.421875 17.546875 -0.640625 
Q 12.796875 0.140625 7.71875 1.703125 
L 7.71875 11.625 
Q 12.109375 9.234375 16.796875 8.0625 
Q 21.484375 6.890625 26.703125 6.890625 
Q 35.15625 6.890625 40.078125 11.328125 
Q 45.015625 15.765625 45.015625 23.390625 
Q 45.015625 31 40.078125 35.4375 
Q 35.15625 39.890625 26.703125 39.890625 
Q 22.75 39.890625 18.8125 39.015625 
Q 14.890625 38.140625 10.796875 36.28125 
z
" id="DejaVuSans-35"/>
      </defs>
      <g transform="translate(405.17625 322.182437)scale(0.1 -0.1)">
       <use xlink:href="#DejaVuSans-35"/>
       <use x="63.623047" xlink:href="#DejaVuSans-30"/>
       <use x="127.246094" xlink:href="#DejaVuSans-30"/>
      </g>
     </g>
    </g>
    <g id="text_6">
     <!-- Tiradas -->
     <defs>
      <path d="M -0.296875 72.90625 
L 61.375 72.90625 
L 61.375 64.59375 
L 35.5 64.59375 
L 35.5 0 
L 25.59375 0 
L 25.59375 64.59375 
L -0.296875 64.59375 
z
" id="DejaVuSans-54"/>
      <path d="M 9.421875 54.6875 
L 18.40625 54.6875 
L 18.40625 0 
L 9.421875 0 
z
M 9.421875 75.984375 
L 18.40625 75.984375 
L 18.40625 64.59375 
L 9.421875 64.59375 
z
" id="DejaVuSans-69"/>
      <path d="M 41.109375 46.296875 
Q 39.59375 47.171875 37.8125 47.578125 
Q 36.03125 48 33.890625 48 
Q 26.265625 48 22.1875 43.046875 
Q 18.109375 38.09375 18.109375 28.8125 
L 18.109375 0 
L 9.078125 0 
L 9.078125 54.6875 
L 18.109375 54.6875 
L 18.109375 46.1875 
Q 20.953125 51.171875 25.484375 53.578125 
Q 30.03125 56 36.53125 56 
Q 37.453125 56 38.578125 55.875 
Q 39.703125 55.765625 41.0625 55.515625 
z
" id="DejaVuSans-72"/>
      <path d="M 34.28125 27.484375 
Q 23.390625 27.484375 19.1875 25 
Q 14.984375 22.515625 14.984375 16.5 
Q 14.984375 11.71875 18.140625 8.90625 
Q 21.296875 6.109375 26.703125 6.109375 
Q 34.1875 6.109375 38.703125 11.40625 
Q 43.21875 16.703125 43.21875 25.484375 
L 43.21875 27.484375 
z
M 52.203125 31.203125 
L 52.203125 0 
L 43.21875 0 
L 43.21875 8.296875 
Q 40.140625 3.328125 35.546875 0.953125 
Q 30.953125 -1.421875 24.3125 -1.421875 
Q 15.921875 -1.421875 10.953125 3.296875 
Q 6 8.015625 6 15.921875 
Q 6 25.140625 12.171875 29.828125 
Q 18.359375 34.515625 30.609375 34.515625 
L 43.21875 34.515625 
L 43.21875 35.40625 
Q 43.21875 41.609375 39.140625 45 
Q 35.0625 48.390625 27.6875 48.390625 
Q 23 48.390625 18.546875 47.265625 
Q 14.109375 46.140625 10.015625 43.890625 
L 10.015625 52.203125 
Q 14.9375 54.109375 19.578125 55.046875 
Q 24.21875 56 28.609375 56 
Q 40.484375 56 46.34375 49.84375 
Q 52.203125 43.703125 52.203125 31.203125 
z
" id="DejaVuSans-61"/>
      <path d="M 45.40625 46.390625 
L 45.40625 75.984375 
L 54.390625 75.984375 
L 54.390625 0 
L 45.40625 0 
L 45.40625 8.203125 
Q 42.578125 3.328125 38.25 0.953125 
Q 33.9375 -1.421875 27.875 -1.421875 
Q 17.96875 -1.421875 11.734375 6.484375 
Q 5.515625 14.40625 5.515625 27.296875 
Q 5.515625 40.1875 11.734375 48.09375 
Q 17.96875 56 27.875 56 
Q 33.9375 56 38.25 53.625 
Q 42.578125 51.265625 45.40625 46.390625 
z
M 14.796875 27.296875 
Q 14.796875 17.390625 18.875 11.75 
Q 22.953125 6.109375 30.078125 6.109375 
Q 37.203125 6.109375 41.296875 11.75 
Q 45.40625 17.390625 45.40625 27.296875 
Q 45.40625 37.203125 41.296875 42.84375 
Q 37.203125 48.484375 30.078125 48.484375 
Q 22.953125 48.484375 18.875 42.84375 
Q 14.796875 37.203125 14.796875 27.296875 
z
" id="DejaVuSans-64"/>
      <path d="M 44.28125 53.078125 
L 44.28125 44.578125 
Q 40.484375 46.53125 36.375 47.5 
Q 32.28125 48.484375 27.875 48.484375 
Q 21.1875 48.484375 17.84375 46.4375 
Q 14.5 44.390625 14.5 40.28125 
Q 14.5 37.15625 16.890625 35.375 
Q 19.28125 33.59375 26.515625 31.984375 
L 29.59375 31.296875 
Q 39.15625 29.25 43.1875 25.515625 
Q 47.21875 21.78125 47.21875 15.09375 
Q 47.21875 7.46875 41.1875 3.015625 
Q 35.15625 -1.421875 24.609375 -1.421875 
Q 20.21875 -1.421875 15.453125 -0.5625 
Q 10.6875 0.296875 5.421875 2 
L 5.421875 11.28125 
Q 10.40625 8.6875 15.234375 7.390625 
Q 20.0625 6.109375 24.8125 6.109375 
Q 31.15625 6.109375 34.5625 8.28125 
Q 37.984375 10.453125 37.984375 14.40625 
Q 37.984375 18.0625 35.515625 20.015625 
Q 33.0625 21.96875 24.703125 23.78125 
L 21.578125 24.515625 
Q 13.234375 26.265625 9.515625 29.90625 
Q 5.8125 33.546875 5.8125 39.890625 
Q 5.8125 47.609375 11.28125 51.796875 
Q 16.75 56 26.8125 56 
Q 31.78125 56 36.171875 55.265625 
Q 40.578125 54.546875 44.28125 53.078125 
z
" id="DejaVuSans-73"/>
     </defs>
     <g transform="translate(217.756875 335.860562)scale(0.1 -0.1)">
      <use xlink:href="#DejaVuSans-54"/>
      <use x="61.037109" xlink:href="#DejaVuSans-69"/>
      <use x="88.820312" xlink:href="#DejaVuSans-72"/>
      <use x="129.933594" xlink:href="#DejaVuSans-61"/>
      <use x="191.212891" xlink:href="#DejaVuSans-64"/>
      <use x="254.689453" xlink:href="#DejaVuSans-61"/>
      <use x="315.96875" xlink:href="#DejaVuSans-73"/>
     </g>
    </g>
   </g>
   <g id="matplotlib.axis_2">
    <g id="ytick_1">
     <g id="line2d_6">
      <defs>
       <path d="M 0 0 
L -3.5 0 
" id="md89238ce1a" style="stroke:#000000;stroke-width:0.8;"/>
      </defs>
      <g>
       <use style="stroke:#000000;stroke-width:0.8;" x="57.6" xlink:href="#md89238ce1a" y="295.488"/>
      </g>
     </g>
     <g id="text_7">
      <!-- 0 -->
      <g transform="translate(44.2375 299.287219)scale(0.1 -0.1)">
       <use xlink:href="#DejaVuSans-30"/>
      </g>
     </g>
    </g>
    <g id="ytick_2">
     <g id="line2d_7">
      <g>
       <use style="stroke:#000000;stroke-width:0.8;" x="57.6" xlink:href="#md89238ce1a" y="260.219481"/>
      </g>
     </g>
     <g id="text_8">
      <!-- 20 -->
      <g transform="translate(37.875 264.018699)scale(0.1 -0.1)">
       <use xlink:href="#DejaVuSans-32"/>
       <use x="63.623047" xlink:href="#DejaVuSans-30"/>
      </g>
     </g>
    </g>
    <g id="ytick_3">
     <g id="line2d_8">
      <g>
       <use style="stroke:#000000;stroke-width:0.8;" x="57.6" xlink:href="#md89238ce1a" y="224.950961"/>
      </g>
     </g>
     <g id="text_9">
      <!-- 40 -->
      <g transform="translate(37.875 228.75018)scale(0.1 -0.1)">
       <use xlink:href="#DejaVuSans-34"/>
       <use x="63.623047" xlink:href="#DejaVuSans-30"/>
      </g>
     </g>
    </g>
    <g id="ytick_4">
     <g id="line2d_9">
      <g>
       <use style="stroke:#000000;stroke-width:0.8;" x="57.6" xlink:href="#md89238ce1a" y="189.682442"/>
      </g>
     </g>
     <g id="text_10">
      <!-- 60 -->
      <defs>
       <path d="M 33.015625 40.375 
Q 26.375 40.375 22.484375 35.828125 
Q 18.609375 31.296875 18.609375 23.390625 
Q 18.609375 15.53125 22.484375 10.953125 
Q 26.375 6.390625 33.015625 6.390625 
Q 39.65625 6.390625 43.53125 10.953125 
Q 47.40625 15.53125 47.40625 23.390625 
Q 47.40625 31.296875 43.53125 35.828125 
Q 39.65625 40.375 33.015625 40.375 
z
M 52.59375 71.296875 
L 52.59375 62.3125 
Q 48.875 64.0625 45.09375 64.984375 
Q 41.3125 65.921875 37.59375 65.921875 
Q 27.828125 65.921875 22.671875 59.328125 
Q 17.53125 52.734375 16.796875 39.40625 
Q 19.671875 43.65625 24.015625 45.921875 
Q 28.375 48.1875 33.59375 48.1875 
Q 44.578125 48.1875 50.953125 41.515625 
Q 57.328125 34.859375 57.328125 23.390625 
Q 57.328125 12.15625 50.6875 5.359375 
Q 44.046875 -1.421875 33.015625 -1.421875 
Q 20.359375 -1.421875 13.671875 8.265625 
Q 6.984375 17.96875 6.984375 36.375 
Q 6.984375 53.65625 15.1875 63.9375 
Q 23.390625 74.21875 37.203125 74.21875 
Q 40.921875 74.21875 44.703125 73.484375 
Q 48.484375 72.75 52.59375 71.296875 
z
" id="DejaVuSans-36"/>
      </defs>
      <g transform="translate(37.875 193.481661)scale(0.1 -0.1)">
       <use xlink:href="#DejaVuSans-36"/>
       <use x="63.623047" xlink:href="#DejaVuSans-30"/>
      </g>
     </g>
    </g>
    <g id="ytick_5">
     <g id="line2d_10">
      <g>
       <use style="stroke:#000000;stroke-width:0.8;" x="57.6" xlink:href="#md89238ce1a" y="154.413923"/>
      </g>
     </g>
     <g id="text_11">
      <!-- 80 -->
      <defs>
       <path d="M 31.78125 34.625 
Q 24.75 34.625 20.71875 30.859375 
Q 16.703125 27.09375 16.703125 20.515625 
Q 16.703125 13.921875 20.71875 10.15625 
Q 24.75 6.390625 31.78125 6.390625 
Q 38.8125 6.390625 42.859375 10.171875 
Q 46.921875 13.96875 46.921875 20.515625 
Q 46.921875 27.09375 42.890625 30.859375 
Q 38.875 34.625 31.78125 34.625 
z
M 21.921875 38.8125 
Q 15.578125 40.375 12.03125 44.71875 
Q 8.5 49.078125 8.5 55.328125 
Q 8.5 64.0625 14.71875 69.140625 
Q 20.953125 74.21875 31.78125 74.21875 
Q 42.671875 74.21875 48.875 69.140625 
Q 55.078125 64.0625 55.078125 55.328125 
Q 55.078125 49.078125 51.53125 44.71875 
Q 48 40.375 41.703125 38.8125 
Q 48.828125 37.15625 52.796875 32.3125 
Q 56.78125 27.484375 56.78125 20.515625 
Q 56.78125 9.90625 50.3125 4.234375 
Q 43.84375 -1.421875 31.78125 -1.421875 
Q 19.734375 -1.421875 13.25 4.234375 
Q 6.78125 9.90625 6.78125 20.515625 
Q 6.78125 27.484375 10.78125 32.3125 
Q 14.796875 37.15625 21.921875 38.8125 
z
M 18.3125 54.390625 
Q 18.3125 48.734375 21.84375 45.5625 
Q 25.390625 42.390625 31.78125 42.390625 
Q 38.140625 42.390625 41.71875 45.5625 
Q 45.3125 48.734375 45.3125 54.390625 
Q 45.3125 60.0625 41.71875 63.234375 
Q 38.140625 66.40625 31.78125 66.40625 
Q 25.390625 66.40625 21.84375 63.234375 
Q 18.3125 60.0625 18.3125 54.390625 
z
" id="DejaVuSans-38"/>
      </defs>
      <g transform="translate(37.875 158.213141)scale(0.1 -0.1)">
       <use xlink:href="#DejaVuSans-38"/>
       <use x="63.623047" xlink:href="#DejaVuSans-30"/>
      </g>
     </g>
    </g>
    <g id="ytick_6">
     <g id="line2d_11">
      <g>
       <use style="stroke:#000000;stroke-width:0.8;" x="57.6" xlink:href="#md89238ce1a" y="119.145403"/>
      </g>
     </g>
     <g id="text_12">
      <!-- 100 -->
      <g transform="translate(31.5125 122.944622)scale(0.1 -0.1)">
       <use xlink:href="#DejaVuSans-31"/>
       <use x="63.623047" xlink:href="#DejaVuSans-30"/>
       <use x="127.246094" xlink:href="#DejaVuSans-30"/>
      </g>
     </g>
    </g>
    <g id="ytick_7">
     <g id="line2d_12">
      <g>
       <use style="stroke:#000000;stroke-width:0.8;" x="57.6" xlink:href="#md89238ce1a" y="83.876884"/>
      </g>
     </g>
     <g id="text_13">
      <!-- 120 -->
      <g transform="translate(31.5125 87.676103)scale(0.1 -0.1)">
       <use xlink:href="#DejaVuSans-31"/>
       <use x="63.623047" xlink:href="#DejaVuSans-32"/>
       <use x="127.246094" xlink:href="#DejaVuSans-30"/>
      </g>
     </g>
    </g>
    <g id="ytick_8">
     <g id="line2d_13">
      <g>
       <use style="stroke:#000000;stroke-width:0.8;" x="57.6" xlink:href="#md89238ce1a" y="48.608364"/>
      </g>
     </g>
     <g id="text_14">
      <!-- 140 -->
      <g transform="translate(31.5125 52.407583)scale(0.1 -0.1)">
       <use xlink:href="#DejaVuSans-31"/>
       <use x="63.623047" xlink:href="#DejaVuSans-34"/>
       <use x="127.246094" xlink:href="#DejaVuSans-30"/>
      </g>
     </g>
    </g>
    <g id="text_15">
     <!-- Valores -->
     <defs>
      <path d="M 28.609375 0 
L 0.78125 72.90625 
L 11.078125 72.90625 
L 34.1875 11.53125 
L 57.328125 72.90625 
L 67.578125 72.90625 
L 39.796875 0 
z
" id="DejaVuSans-56"/>
      <path d="M 9.421875 75.984375 
L 18.40625 75.984375 
L 18.40625 0 
L 9.421875 0 
z
" id="DejaVuSans-6c"/>
      <path d="M 30.609375 48.390625 
Q 23.390625 48.390625 19.1875 42.75 
Q 14.984375 37.109375 14.984375 27.296875 
Q 14.984375 17.484375 19.15625 11.84375 
Q 23.34375 6.203125 30.609375 6.203125 
Q 37.796875 6.203125 41.984375 11.859375 
Q 46.1875 17.53125 46.1875 27.296875 
Q 46.1875 37.015625 41.984375 42.703125 
Q 37.796875 48.390625 30.609375 48.390625 
z
M 30.609375 56 
Q 42.328125 56 49.015625 48.375 
Q 55.71875 40.765625 55.71875 27.296875 
Q 55.71875 13.875 49.015625 6.21875 
Q 42.328125 -1.421875 30.609375 -1.421875 
Q 18.84375 -1.421875 12.171875 6.21875 
Q 5.515625 13.875 5.515625 27.296875 
Q 5.515625 40.765625 12.171875 48.375 
Q 18.84375 56 30.609375 56 
z
" id="DejaVuSans-6f"/>
      <path d="M 56.203125 29.59375 
L 56.203125 25.203125 
L 14.890625 25.203125 
Q 15.484375 15.921875 20.484375 11.0625 
Q 25.484375 6.203125 34.421875 6.203125 
Q 39.59375 6.203125 44.453125 7.46875 
Q 49.3125 8.734375 54.109375 11.28125 
L 54.109375 2.78125 
Q 49.265625 0.734375 44.1875 -0.34375 
Q 39.109375 -1.421875 33.890625 -1.421875 
Q 20.796875 -1.421875 13.15625 6.1875 
Q 5.515625 13.8125 5.515625 26.8125 
Q 5.515625 40.234375 12.765625 48.109375 
Q 20.015625 56 32.328125 56 
Q 43.359375 56 49.78125 48.890625 
Q 56.203125 41.796875 56.203125 29.59375 
z
M 47.21875 32.234375 
Q 47.125 39.59375 43.09375 43.984375 
Q 39.0625 48.390625 32.421875 48.390625 
Q 24.90625 48.390625 20.390625 44.140625 
Q 15.875 39.890625 15.1875 32.171875 
z
" id="DejaVuSans-65"/>
     </defs>
     <g transform="translate(25.432812 193.1905)rotate(-90)scale(0.1 -0.1)">
      <use xlink:href="#DejaVuSans-56"/>
      <use x="68.298828" xlink:href="#DejaVuSans-61"/>
      <use x="129.578125" xlink:href="#DejaVuSans-6c"/>
      <use x="157.361328" xlink:href="#DejaVuSans-6f"/>
      <use x="218.542969" xlink:href="#DejaVuSans-72"/>
      <use x="259.625" xlink:href="#DejaVuSans-65"/>
      <use x="321.148438" xlink:href="#DejaVuSans-73"/>
     </g>
    </g>
   </g>
   <g id="line2d_14">
    <path clip-path="url(#p12434d55aa)" d="M 57.6 105.184948 
L 414.72 105.184948 
L 414.72 105.184948 
" style="fill:none;stroke:#1f77b4;stroke-linecap:square;stroke-width:1.5;"/>
   </g>
   <g id="line2d_15">
    <path clip-path="url(#p12434d55aa)" d="M 57.6 295.488 
L 58.315671 273.886032 
L 59.031343 132.077194 
L 59.747014 53.568 
L 60.462685 101.793292 
L 61.178357 115.96144 
L 61.894028 87.475712 
L 62.609699 112.339681 
L 63.325371 123.847872 
L 64.041042 122.954403 
L 64.756713 128.356025 
L 65.472385 113.426515 
L 66.903727 136.815651 
L 67.619399 104.128851 
L 68.33507 115.460118 
L 69.050741 121.68376 
L 69.766413 117.354764 
L 70.482084 110.440625 
L 71.197756 105.765409 
L 71.913427 112.155678 
L 72.629098 117.232596 
L 73.34477 101.817826 
L 74.060441 108.127052 
L 74.776112 111.510474 
L 76.207455 120.722569 
L 76.923126 125.400617 
L 77.638798 127.406876 
L 78.354469 132.555278 
L 79.07014 122.397007 
L 79.785812 127.631891 
L 80.501483 116.39258 
L 81.217154 118.606918 
L 81.932826 113.453496 
L 83.364168 121.337771 
L 84.07984 118.284451 
L 84.795511 112.026774 
L 85.511182 116.289755 
L 86.942525 101.958998 
L 88.373868 93.900904 
L 89.089539 96.315786 
L 89.80521 97.027575 
L 90.520882 98.664436 
L 91.236553 97.399544 
L 92.667896 103.175112 
L 93.383567 95.889333 
L 94.099238 90.445385 
L 94.81491 88.262535 
L 95.530581 87.7563 
L 96.961924 94.808325 
L 97.677595 96.553577 
L 98.393267 98.717655 
L 99.108938 91.883983 
L 99.824609 89.843632 
L 100.540281 93.208208 
L 101.255952 91.352177 
L 101.971623 88.138608 
L 103.402966 94.030044 
L 104.118637 91.970183 
L 104.834309 94.93041 
L 105.54998 96.518711 
L 106.265651 98.959898 
L 106.981323 96.990655 
L 107.696994 97.945112 
L 108.412665 99.683766 
L 109.128337 102.233192 
L 110.559679 100.429576 
L 111.275351 102.423692 
L 111.991022 101.640225 
L 112.706693 103.060083 
L 113.422365 104.904629 
L 114.138036 106.185324 
L 114.853707 105.908823 
L 115.569379 104.122976 
L 116.28505 105.961049 
L 117.000721 106.77543 
L 117.716393 108.314917 
L 118.432064 104.421655 
L 119.147735 103.782699 
L 119.863407 102.736251 
L 121.294749 95.018035 
L 122.010421 95.152503 
L 122.726092 96.031897 
L 123.441764 96.3695 
L 124.157435 97.882709 
L 124.873106 97.160904 
L 125.588778 97.114825 
L 126.304449 98.360254 
L 127.02012 96.146686 
L 127.735792 96.808674 
L 128.451463 98.746973 
L 129.882806 100.906216 
L 130.598477 100.981567 
L 131.314148 100.72921 
L 132.02982 102.583754 
L 132.745491 103.313492 
L 133.461162 101.408255 
L 134.176834 102.148087 
L 134.892505 103.906114 
L 135.608176 104.865296 
L 137.039519 107.622404 
L 137.75519 108.519274 
L 138.470862 108.313007 
L 139.186533 106.108718 
L 139.902204 106.003188 
L 140.617876 107.300086 
L 141.333547 107.29433 
L 142.049218 108.551897 
L 142.76489 106.06715 
L 144.196232 108.587003 
L 144.911904 108.543634 
L 145.627575 109.473741 
L 147.058918 111.772248 
L 147.774589 112.035065 
L 148.490261 111.872993 
L 149.205932 112.127941 
L 149.921603 113.344984 
L 150.637275 111.6334 
L 151.352946 110.472797 
L 152.068617 110.607108 
L 152.784289 108.516136 
L 153.49996 107.649124 
L 154.215631 109.015238 
L 154.931303 109.079716 
L 155.646974 108.895513 
L 156.362645 109.796444 
L 157.078317 108.354676 
L 157.793988 108.624276 
L 158.509659 107.225749 
L 159.225331 107.490528 
L 159.941002 107.378345 
L 160.656673 105.070203 
L 161.372345 105.368245 
L 162.803687 107.885368 
L 163.519359 107.132883 
L 164.23503 107.642458 
L 164.950701 105.894302 
L 165.666373 106.569392 
L 166.382044 105.559889 
L 167.097715 105.634628 
L 167.813387 105.938609 
L 168.529058 107.14315 
L 169.244729 107.801929 
L 169.960401 106.466876 
L 170.676072 104.089912 
L 171.391743 104.562973 
L 172.107415 103.324164 
L 173.538758 105.310783 
L 174.254429 104.0283 
L 174.9701 101.737587 
L 175.685772 102.904683 
L 177.117114 100.582446 
L 177.832786 101.682664 
L 178.548457 99.929003 
L 179.264128 100.305011 
L 180.695471 97.007157 
L 181.411142 98.144349 
L 182.126814 96.89163 
L 182.842485 97.909829 
L 183.558156 98.582288 
L 184.273828 99.634345 
L 184.989499 98.716388 
L 185.70517 98.347263 
L 186.420842 99.436113 
L 187.136513 100.254535 
L 187.852184 101.321158 
L 188.567856 99.98273 
L 189.999198 101.880741 
L 190.71487 100.727791 
L 191.430541 99.884425 
L 192.146212 97.951315 
L 192.861884 98.858482 
L 193.577555 97.884812 
L 194.293226 97.295645 
L 195.008898 96.479493 
L 195.724569 95.23804 
L 196.44024 96.250963 
L 197.155912 96.50308 
L 197.871583 97.307438 
L 198.587255 97.771757 
L 199.302926 98.72037 
L 200.018597 99.462748 
L 200.734269 99.012204 
L 201.44994 99.236201 
L 202.165611 99.682117 
L 202.881283 98.363282 
L 203.596954 97.348157 
L 204.312625 97.601155 
L 205.028297 98.025034 
L 205.743968 96.27581 
L 206.459639 96.840917 
L 207.175311 97.637005 
L 208.606653 94.290647 
L 209.322325 94.167714 
L 210.037996 95.063988 
L 210.753667 95.230867 
L 211.469339 95.924278 
L 212.18501 95.334116 
L 212.900681 95.347687 
L 213.616353 95.928156 
L 214.332024 96.247864 
L 215.047695 96.905533 
L 215.763367 96.75715 
L 216.479038 97.628975 
L 217.194709 96.3942 
L 217.910381 94.569811 
L 218.626052 93.357007 
L 219.341723 92.811908 
L 220.057395 91.620605 
L 220.773066 89.848139 
L 221.488737 90.583869 
L 222.204409 90.779893 
L 222.92008 91.6152 
L 223.635752 91.94793 
L 224.351423 92.595176 
L 225.067094 91.19032 
L 225.782766 90.524052 
L 226.498437 90.191612 
L 227.214108 90.410314 
L 227.92978 90.263017 
L 228.645451 90.979572 
L 229.361122 90.719757 
L 230.076794 91.553978 
L 230.792465 92.010521 
L 231.508136 91.764909 
L 232.223808 92.523179 
L 232.939479 93.016533 
L 233.65515 93.008638 
L 234.370822 93.5029 
L 235.086493 92.571514 
L 235.802164 93.100307 
L 236.517836 92.186183 
L 237.233507 92.772988 
L 237.949178 93.173736 
L 239.380521 91.435927 
L 240.096192 91.170632 
L 240.811864 91.362413 
L 241.527535 92.006886 
L 242.243206 92.027008 
L 243.674549 93.506415 
L 244.39022 93.781705 
L 245.105892 94.351332 
L 245.821563 94.62271 
L 246.537234 95.17627 
L 247.252906 95.205617 
L 247.968577 95.826693 
L 248.684248 94.306715 
L 249.39992 95.014388 
L 250.115591 93.770453 
L 250.831263 92.975788 
L 251.546934 93.719525 
L 252.262605 92.942335 
L 252.978277 93.563372 
L 254.409619 91.665441 
L 255.125291 91.355397 
L 255.840962 90.088417 
L 256.556633 90.821259 
L 257.272305 91.177467 
L 257.987976 91.188622 
L 258.703647 90.573574 
L 259.419319 90.310331 
L 260.850661 91.616506 
L 261.566333 91.195244 
L 262.282004 90.956236 
L 262.997675 91.654144 
L 263.713347 92.109358 
L 264.429018 91.334247 
L 265.144689 92.023199 
L 265.860361 91.61334 
L 266.576032 91.514035 
L 267.291703 91.873872 
L 268.007375 92.488968 
L 268.723046 92.643314 
L 269.438717 92.999703 
L 270.154389 92.05482 
L 271.585731 91.877449 
L 272.301403 91.895751 
L 273.017074 92.535854 
L 273.732745 91.447309 
L 274.448417 91.805889 
L 275.164088 91.858886 
L 275.87976 90.601767 
L 276.595431 91.209221 
L 277.311102 91.01961 
L 278.742445 92.338374 
L 279.458116 92.613045 
L 280.173788 91.46972 
L 280.889459 91.74256 
L 281.60513 90.737497 
L 282.320802 91.341654 
L 283.036473 91.026798 
L 285.183487 88.180564 
L 285.899158 88.640631 
L 286.61483 87.544377 
L 287.330501 88.173011 
L 288.046172 87.712309 
L 288.761844 88.350022 
L 289.477515 88.707628 
L 290.908858 89.946899 
L 292.3402 88.098021 
L 293.055872 88.061741 
L 293.771543 88.271116 
L 294.487214 87.394089 
L 295.202886 87.925246 
L 295.918557 88.27372 
L 296.634228 88.15898 
L 297.3499 88.230029 
L 298.065571 87.795336 
L 298.781242 86.931576 
L 299.496914 87.1987 
L 300.212585 86.959828 
L 300.928257 87.554751 
L 301.643928 87.516554 
L 302.359599 86.672339 
L 303.075271 86.38506 
L 304.506613 87.529059 
L 305.222285 87.375295 
L 305.937956 87.662402 
L 306.653627 87.771852 
L 307.369299 86.948426 
L 308.08497 87.534675 
L 308.800641 86.638855 
L 309.516313 87.09571 
L 310.231984 87.298577 
L 310.947655 87.656779 
L 311.663327 87.30411 
L 312.378998 87.834599 
L 313.094669 86.951225 
L 313.810341 87.153837 
L 314.526012 87.708104 
L 315.241683 87.669276 
L 315.957355 86.704093 
L 317.388697 86.976202 
L 318.104369 87.523076 
L 318.82004 87.182037 
L 319.535711 87.336833 
L 320.251383 87.878136 
L 320.967054 87.782761 
L 321.682725 87.895228 
L 323.114068 89.000942 
L 323.829739 88.078438 
L 324.545411 87.995209 
L 325.976754 89.018892 
L 327.408096 89.652868 
L 328.123768 90.163815 
L 328.839439 89.714129 
L 329.55511 90.227336 
L 330.270782 90.266022 
L 330.986453 90.668951 
L 331.702124 90.120928 
L 332.417796 89.843135 
L 333.133467 89.893334 
L 333.849138 89.687409 
L 335.280481 90.699475 
L 335.996152 89.812986 
L 336.711824 89.920431 
L 337.427495 89.205181 
L 338.143166 88.211343 
L 339.574509 89.233969 
L 340.29018 88.564554 
L 341.005852 88.613135 
L 342.437194 89.525793 
L 343.152866 89.807109 
L 343.868537 89.943075 
L 344.584208 90.408251 
L 345.29988 89.465136 
L 346.015551 88.969973 
L 348.162565 88.837096 
L 348.878236 89.080221 
L 349.593908 89.508892 
L 350.309579 89.413171 
L 351.025251 89.717932 
L 351.740922 89.408762 
L 352.456593 89.714926 
L 353.887936 90.673321 
L 354.603607 90.914702 
L 355.319279 90.367391 
L 356.03495 89.590851 
L 356.750621 90.025114 
L 358.181964 90.441181 
L 358.897635 90.89799 
L 359.613307 90.71769 
L 360.328978 90.085374 
L 362.475992 91.452587 
L 363.191663 91.163829 
L 363.907335 91.416418 
L 364.623006 91.883343 
L 366.054349 90.085169 
L 366.77002 89.902135 
L 367.485691 89.425699 
L 368.201363 89.591456 
L 368.917034 90.008281 
L 369.632705 89.829403 
L 370.348377 90.120333 
L 371.064048 90.159065 
L 371.779719 90.625304 
L 373.211062 91.157655 
L 373.926733 90.378239 
L 374.642405 90.787858 
L 375.358076 90.187816 
L 376.073747 90.647682 
L 376.789419 90.405855 
L 378.220762 89.631047 
L 380.367776 87.873188 
L 381.083447 87.963264 
L 381.799118 88.312125 
L 382.51479 88.235649 
L 383.230461 88.461303 
L 384.661804 88.063192 
L 385.377475 88.2259 
L 386.093146 88.185143 
L 386.808818 88.304081 
L 387.524489 88.550206 
L 388.24016 88.995145 
L 388.955832 88.771944 
L 391.102846 89.96891 
L 391.818517 89.697685 
L 393.24986 88.274959 
L 393.965531 88.239102 
L 394.681202 87.809891 
L 396.112545 88.499767 
L 396.828216 88.581755 
L 398.259559 89.34566 
L 399.690902 89.232222 
L 401.122244 90.012156 
L 402.553587 88.81858 
L 403.98493 88.141222 
L 404.700601 88.029643 
L 405.416273 88.438672 
L 406.131944 88.677966 
L 406.847615 88.410312 
L 408.994629 89.457489 
L 409.710301 89.506288 
L 410.425972 89.906817 
L 411.141643 89.151753 
L 411.857315 89.482809 
L 412.572986 89.477906 
L 413.288657 89.673193 
L 414.004329 90.080946 
L 414.72 90.128977 
L 414.72 90.128977 
" style="fill:none;stroke:#ff7f0e;stroke-linecap:square;stroke-width:1.5;"/>
   </g>
   <g id="patch_3">
    <path d="M 57.6 307.584 
L 57.6 41.472 
" style="fill:none;stroke:#000000;stroke-linecap:square;stroke-linejoin:miter;stroke-width:0.8;"/>
   </g>
   <g id="patch_4">
    <path d="M 414.72 307.584 
L 414.72 41.472 
" style="fill:none;stroke:#000000;stroke-linecap:square;stroke-linejoin:miter;stroke-width:0.8;"/>
   </g>
   <g id="patch_5">
    <path d="M 57.6 307.584 
L 414.72 307.584 
" style="fill:none;stroke:#000000;stroke-linecap:square;stroke-linejoin:miter;stroke-width:0.8;"/>
   </g>
   <g id="patch_6">
    <path d="M 57.6 41.472 
L 414.72 41.472 
" style="fill:none;stroke:#000000;stroke-linecap:square;stroke-linejoin:miter;stroke-width:0.8;"/>
   </g>
   <g id="text_16">
    <!-- Grafico valores varianza esperados vs valores varianza obtenidos -->
    <defs>
     <path d="M 59.515625 10.40625 
L 59.515625 29.984375 
L 43.40625 29.984375 
L 43.40625 38.09375 
L 69.28125 38.09375 
L 69.28125 6.78125 
Q 63.578125 2.734375 56.6875 0.65625 
Q 49.8125 -1.421875 42 -1.421875 
Q 24.90625 -1.421875 15.25 8.5625 
Q 5.609375 18.5625 5.609375 36.375 
Q 5.609375 54.25 15.25 64.234375 
Q 24.90625 74.21875 42 74.21875 
Q 49.125 74.21875 55.546875 72.453125 
Q 61.96875 70.703125 67.390625 67.28125 
L 67.390625 56.78125 
Q 61.921875 61.421875 55.765625 63.765625 
Q 49.609375 66.109375 42.828125 66.109375 
Q 29.4375 66.109375 22.71875 58.640625 
Q 16.015625 51.171875 16.015625 36.375 
Q 16.015625 21.625 22.71875 14.15625 
Q 29.4375 6.6875 42.828125 6.6875 
Q 48.046875 6.6875 52.140625 7.59375 
Q 56.25 8.5 59.515625 10.40625 
z
" id="DejaVuSans-47"/>
     <path d="M 37.109375 75.984375 
L 37.109375 68.5 
L 28.515625 68.5 
Q 23.6875 68.5 21.796875 66.546875 
Q 19.921875 64.59375 19.921875 59.515625 
L 19.921875 54.6875 
L 34.71875 54.6875 
L 34.71875 47.703125 
L 19.921875 47.703125 
L 19.921875 0 
L 10.890625 0 
L 10.890625 47.703125 
L 2.296875 47.703125 
L 2.296875 54.6875 
L 10.890625 54.6875 
L 10.890625 58.5 
Q 10.890625 67.625 15.140625 71.796875 
Q 19.390625 75.984375 28.609375 75.984375 
z
" id="DejaVuSans-66"/>
     <path d="M 48.78125 52.59375 
L 48.78125 44.1875 
Q 44.96875 46.296875 41.140625 47.34375 
Q 37.3125 48.390625 33.40625 48.390625 
Q 24.65625 48.390625 19.8125 42.84375 
Q 14.984375 37.3125 14.984375 27.296875 
Q 14.984375 17.28125 19.8125 11.734375 
Q 24.65625 6.203125 33.40625 6.203125 
Q 37.3125 6.203125 41.140625 7.25 
Q 44.96875 8.296875 48.78125 10.40625 
L 48.78125 2.09375 
Q 45.015625 0.34375 40.984375 -0.53125 
Q 36.96875 -1.421875 32.421875 -1.421875 
Q 20.0625 -1.421875 12.78125 6.34375 
Q 5.515625 14.109375 5.515625 27.296875 
Q 5.515625 40.671875 12.859375 48.328125 
Q 20.21875 56 33.015625 56 
Q 37.15625 56 41.109375 55.140625 
Q 45.0625 54.296875 48.78125 52.59375 
z
" id="DejaVuSans-63"/>
     <path id="DejaVuSans-20"/>
     <path d="M 2.984375 54.6875 
L 12.5 54.6875 
L 29.59375 8.796875 
L 46.6875 54.6875 
L 56.203125 54.6875 
L 35.6875 0 
L 23.484375 0 
z
" id="DejaVuSans-76"/>
     <path d="M 54.890625 33.015625 
L 54.890625 0 
L 45.90625 0 
L 45.90625 32.71875 
Q 45.90625 40.484375 42.875 44.328125 
Q 39.84375 48.1875 33.796875 48.1875 
Q 26.515625 48.1875 22.3125 43.546875 
Q 18.109375 38.921875 18.109375 30.90625 
L 18.109375 0 
L 9.078125 0 
L 9.078125 54.6875 
L 18.109375 54.6875 
L 18.109375 46.1875 
Q 21.34375 51.125 25.703125 53.5625 
Q 30.078125 56 35.796875 56 
Q 45.21875 56 50.046875 50.171875 
Q 54.890625 44.34375 54.890625 33.015625 
z
" id="DejaVuSans-6e"/>
     <path d="M 5.515625 54.6875 
L 48.1875 54.6875 
L 48.1875 46.484375 
L 14.40625 7.171875 
L 48.1875 7.171875 
L 48.1875 0 
L 4.296875 0 
L 4.296875 8.203125 
L 38.09375 47.515625 
L 5.515625 47.515625 
z
" id="DejaVuSans-7a"/>
     <path d="M 18.109375 8.203125 
L 18.109375 -20.796875 
L 9.078125 -20.796875 
L 9.078125 54.6875 
L 18.109375 54.6875 
L 18.109375 46.390625 
Q 20.953125 51.265625 25.265625 53.625 
Q 29.59375 56 35.59375 56 
Q 45.5625 56 51.78125 48.09375 
Q 58.015625 40.1875 58.015625 27.296875 
Q 58.015625 14.40625 51.78125 6.484375 
Q 45.5625 -1.421875 35.59375 -1.421875 
Q 29.59375 -1.421875 25.265625 0.953125 
Q 20.953125 3.328125 18.109375 8.203125 
z
M 48.6875 27.296875 
Q 48.6875 37.203125 44.609375 42.84375 
Q 40.53125 48.484375 33.40625 48.484375 
Q 26.265625 48.484375 22.1875 42.84375 
Q 18.109375 37.203125 18.109375 27.296875 
Q 18.109375 17.390625 22.1875 11.75 
Q 26.265625 6.109375 33.40625 6.109375 
Q 40.53125 6.109375 44.609375 11.75 
Q 48.6875 17.390625 48.6875 27.296875 
z
" id="DejaVuSans-70"/>
     <path d="M 48.6875 27.296875 
Q 48.6875 37.203125 44.609375 42.84375 
Q 40.53125 48.484375 33.40625 48.484375 
Q 26.265625 48.484375 22.1875 42.84375 
Q 18.109375 37.203125 18.109375 27.296875 
Q 18.109375 17.390625 22.1875 11.75 
Q 26.265625 6.109375 33.40625 6.109375 
Q 40.53125 6.109375 44.609375 11.75 
Q 48.6875 17.390625 48.6875 27.296875 
z
M 18.109375 46.390625 
Q 20.953125 51.265625 25.265625 53.625 
Q 29.59375 56 35.59375 56 
Q 45.5625 56 51.78125 48.09375 
Q 58.015625 40.1875 58.015625 27.296875 
Q 58.015625 14.40625 51.78125 6.484375 
Q 45.5625 -1.421875 35.59375 -1.421875 
Q 29.59375 -1.421875 25.265625 0.953125 
Q 20.953125 3.328125 18.109375 8.203125 
L 18.109375 0 
L 9.078125 0 
L 9.078125 75.984375 
L 18.109375 75.984375 
z
" id="DejaVuSans-62"/>
     <path d="M 18.3125 70.21875 
L 18.3125 54.6875 
L 36.8125 54.6875 
L 36.8125 47.703125 
L 18.3125 47.703125 
L 18.3125 18.015625 
Q 18.3125 11.328125 20.140625 9.421875 
Q 21.96875 7.515625 27.59375 7.515625 
L 36.8125 7.515625 
L 36.8125 0 
L 27.59375 0 
Q 17.1875 0 13.234375 3.875 
Q 9.28125 7.765625 9.28125 18.015625 
L 9.28125 47.703125 
L 2.6875 47.703125 
L 2.6875 54.6875 
L 9.28125 54.6875 
L 9.28125 70.21875 
z
" id="DejaVuSans-74"/>
    </defs>
    <g transform="translate(38.895 35.472)scale(0.12 -0.12)">
     <use xlink:href="#DejaVuSans-47"/>
     <use x="77.490234" xlink:href="#DejaVuSans-72"/>
     <use x="118.603516" xlink:href="#DejaVuSans-61"/>
     <use x="179.882812" xlink:href="#DejaVuSans-66"/>
     <use x="215.087891" xlink:href="#DejaVuSans-69"/>
     <use x="242.871094" xlink:href="#DejaVuSans-63"/>
     <use x="297.851562" xlink:href="#DejaVuSans-6f"/>
     <use x="359.033203" xlink:href="#DejaVuSans-20"/>
     <use x="390.820312" xlink:href="#DejaVuSans-76"/>
     <use x="450" xlink:href="#DejaVuSans-61"/>
     <use x="511.279297" xlink:href="#DejaVuSans-6c"/>
     <use x="539.0625" xlink:href="#DejaVuSans-6f"/>
     <use x="600.244141" xlink:href="#DejaVuSans-72"/>
     <use x="641.326172" xlink:href="#DejaVuSans-65"/>
     <use x="702.849609" xlink:href="#DejaVuSans-73"/>
     <use x="754.949219" xlink:href="#DejaVuSans-20"/>
     <use x="786.736328" xlink:href="#DejaVuSans-76"/>
     <use x="845.916016" xlink:href="#DejaVuSans-61"/>
     <use x="907.195312" xlink:href="#DejaVuSans-72"/>
     <use x="948.308594" xlink:href="#DejaVuSans-69"/>
     <use x="976.091797" xlink:href="#DejaVuSans-61"/>
     <use x="1037.371094" xlink:href="#DejaVuSans-6e"/>
     <use x="1100.75" xlink:href="#DejaVuSans-7a"/>
     <use x="1153.240234" xlink:href="#DejaVuSans-61"/>
     <use x="1214.519531" xlink:href="#DejaVuSans-20"/>
     <use x="1246.306641" xlink:href="#DejaVuSans-65"/>
     <use x="1307.830078" xlink:href="#DejaVuSans-73"/>
     <use x="1359.929688" xlink:href="#DejaVuSans-70"/>
     <use x="1423.40625" xlink:href="#DejaVuSans-65"/>
     <use x="1484.929688" xlink:href="#DejaVuSans-72"/>
     <use x="1526.042969" xlink:href="#DejaVuSans-61"/>
     <use x="1587.322266" xlink:href="#DejaVuSans-64"/>
     <use x="1650.798828" xlink:href="#DejaVuSans-6f"/>
     <use x="1711.980469" xlink:href="#DejaVuSans-73"/>
     <use x="1764.080078" xlink:href="#DejaVuSans-20"/>
     <use x="1795.867188" xlink:href="#DejaVuSans-76"/>
     <use x="1855.046875" xlink:href="#DejaVuSans-73"/>
     <use x="1907.146484" xlink:href="#DejaVuSans-20"/>
     <use x="1938.933594" xlink:href="#DejaVuSans-76"/>
     <use x="1998.113281" xlink:href="#DejaVuSans-61"/>
     <use x="2059.392578" xlink:href="#DejaVuSans-6c"/>
     <use x="2087.175781" xlink:href="#DejaVuSans-6f"/>
     <use x="2148.357422" xlink:href="#DejaVuSans-72"/>
     <use x="2189.439453" xlink:href="#DejaVuSans-65"/>
     <use x="2250.962891" xlink:href="#DejaVuSans-73"/>
     <use x="2303.0625" xlink:href="#DejaVuSans-20"/>
     <use x="2334.849609" xlink:href="#DejaVuSans-76"/>
     <use x="2394.029297" xlink:href="#DejaVuSans-61"/>
     <use x="2455.308594" xlink:href="#DejaVuSans-72"/>
     <use x="2496.421875" xlink:href="#DejaVuSans-69"/>
     <use x="2524.205078" xlink:href="#DejaVuSans-61"/>
     <use x="2585.484375" xlink:href="#DejaVuSans-6e"/>
     <use x="2648.863281" xlink:href="#DejaVuSans-7a"/>
     <use x="2701.353516" xlink:href="#DejaVuSans-61"/>
     <use x="2762.632812" xlink:href="#DejaVuSans-20"/>
     <use x="2794.419922" xlink:href="#DejaVuSans-6f"/>
     <use x="2855.601562" xlink:href="#DejaVuSans-62"/>
     <use x="2919.078125" xlink:href="#DejaVuSans-74"/>
     <use x="2958.287109" xlink:href="#DejaVuSans-65"/>
     <use x="3019.810547" xlink:href="#DejaVuSans-6e"/>
     <use x="3083.189453" xlink:href="#DejaVuSans-69"/>
     <use x="3110.972656" xlink:href="#DejaVuSans-64"/>
     <use x="3174.449219" xlink:href="#DejaVuSans-6f"/>
     <use x="3235.630859" xlink:href="#DejaVuSans-73"/>
    </g>
   </g>
   <g id="legend_1">
    <g id="patch_7">
     <path d="M 254.049688 78.82825 
L 407.72 78.82825 
Q 409.72 78.82825 409.72 76.82825 
L 409.72 48.472 
Q 409.72 46.472 407.72 46.472 
L 254.049688 46.472 
Q 252.049688 46.472 252.049688 48.472 
L 252.049688 76.82825 
Q 252.049688 78.82825 254.049688 78.82825 
z
" style="fill:#ffffff;opacity:0.8;stroke:#cccccc;stroke-linejoin:miter;"/>
    </g>
    <g id="line2d_16">
     <path d="M 256.049688 54.570437 
L 276.049688 54.570437 
" style="fill:none;stroke:#1f77b4;stroke-linecap:square;stroke-width:1.5;"/>
    </g>
    <g id="line2d_17"/>
    <g id="text_17">
     <!-- Valor varianza esperado -->
     <g transform="translate(284.049688 58.070437)scale(0.1 -0.1)">
      <use xlink:href="#DejaVuSans-56"/>
      <use x="68.298828" xlink:href="#DejaVuSans-61"/>
      <use x="129.578125" xlink:href="#DejaVuSans-6c"/>
      <use x="157.361328" xlink:href="#DejaVuSans-6f"/>
      <use x="218.542969" xlink:href="#DejaVuSans-72"/>
      <use x="259.65625" xlink:href="#DejaVuSans-20"/>
      <use x="291.443359" xlink:href="#DejaVuSans-76"/>
      <use x="350.623047" xlink:href="#DejaVuSans-61"/>
      <use x="411.902344" xlink:href="#DejaVuSans-72"/>
      <use x="453.015625" xlink:href="#DejaVuSans-69"/>
      <use x="480.798828" xlink:href="#DejaVuSans-61"/>
      <use x="542.078125" xlink:href="#DejaVuSans-6e"/>
      <use x="605.457031" xlink:href="#DejaVuSans-7a"/>
      <use x="657.947266" xlink:href="#DejaVuSans-61"/>
      <use x="719.226562" xlink:href="#DejaVuSans-20"/>
      <use x="751.013672" xlink:href="#DejaVuSans-65"/>
      <use x="812.537109" xlink:href="#DejaVuSans-73"/>
      <use x="864.636719" xlink:href="#DejaVuSans-70"/>
      <use x="928.113281" xlink:href="#DejaVuSans-65"/>
      <use x="989.636719" xlink:href="#DejaVuSans-72"/>
      <use x="1030.75" xlink:href="#DejaVuSans-61"/>
      <use x="1092.029297" xlink:href="#DejaVuSans-64"/>
      <use x="1155.505859" xlink:href="#DejaVuSans-6f"/>
     </g>
    </g>
    <g id="line2d_18">
     <path d="M 256.049688 69.248562 
L 276.049688 69.248562 
" style="fill:none;stroke:#ff7f0e;stroke-linecap:square;stroke-width:1.5;"/>
    </g>
    <g id="line2d_19"/>
    <g id="text_18">
     <!-- Valor varianza obtenido -->
     <g transform="translate(284.049688 72.748562)scale(0.1 -0.1)">
      <use xlink:href="#DejaVuSans-56"/>
      <use x="68.298828" xlink:href="#DejaVuSans-61"/>
      <use x="129.578125" xlink:href="#DejaVuSans-6c"/>
      <use x="157.361328" xlink:href="#DejaVuSans-6f"/>
      <use x="218.542969" xlink:href="#DejaVuSans-72"/>
      <use x="259.65625" xlink:href="#DejaVuSans-20"/>
      <use x="291.443359" xlink:href="#DejaVuSans-76"/>
      <use x="350.623047" xlink:href="#DejaVuSans-61"/>
      <use x="411.902344" xlink:href="#DejaVuSans-72"/>
      <use x="453.015625" xlink:href="#DejaVuSans-69"/>
      <use x="480.798828" xlink:href="#DejaVuSans-61"/>
      <use x="542.078125" xlink:href="#DejaVuSans-6e"/>
      <use x="605.457031" xlink:href="#DejaVuSans-7a"/>
      <use x="657.947266" xlink:href="#DejaVuSans-61"/>
      <use x="719.226562" xlink:href="#DejaVuSans-20"/>
      <use x="751.013672" xlink:href="#DejaVuSans-6f"/>
      <use x="812.195312" xlink:href="#DejaVuSans-62"/>
      <use x="875.671875" xlink:href="#DejaVuSans-74"/>
      <use x="914.880859" xlink:href="#DejaVuSans-65"/>
      <use x="976.404297" xlink:href="#DejaVuSans-6e"/>
      <use x="1039.783203" xlink:href="#DejaVuSans-69"/>
      <use x="1067.566406" xlink:href="#DejaVuSans-64"/>
      <use x="1131.042969" xlink:href="#DejaVuSans-6f"/>
     </g>
    </g>
   </g>
  </g>
 </g>
 <defs>
  <clipPath id="p12434d55aa">
   <rect height="266.112" width="357.12" x="57.6" y="41.472"/>
  </clipPath>
 </defs>
</svg>
