<?xml version="1.0" encoding="utf-8" standalone="no"?>
<!DOCTYPE svg PUBLIC "-//W3C//DTD SVG 1.1//EN"
  "http://www.w3.org/Graphics/SVG/1.1/DTD/svg11.dtd">
<!-- Created with matplotlib (http://matplotlib.org/) -->
<svg height="345.6pt" version="1.1" viewBox="0 0 460.8 345.6" width="460.8pt" xmlns="http://www.w3.org/2000/svg" xmlns:xlink="http://www.w3.org/1999/xlink">
 <defs>
  <style type="text/css">
*{stroke-linecap:butt;stroke-linejoin:round;}
  </style>
 </defs>
 <g id="figure_1">
  <g id="patch_1">
   <path d="M 0 345.6 
L 460.8 345.6 
L 460.8 0 
L 0 0 
z
" style="fill:#ffffff;"/>
  </g>
  <g id="axes_1">
   <g id="patch_2">
    <path d="M 57.6 307.584 
L 414.72 307.584 
L 414.72 41.472 
L 57.6 41.472 
z
" style="fill:#ffffff;"/>
   </g>
   <g id="PathCollection_1">
    <defs>
     <path d="M 0 2.236068 
C 0.593012 2.236068 1.161816 2.000462 1.581139 1.581139 
C 2.000462 1.161816 2.236068 0.593012 2.236068 0 
C 2.236068 -0.593012 2.000462 -1.161816 1.581139 -1.581139 
C 1.161816 -2.000462 0.593012 -2.236068 0 -2.236068 
C -0.593012 -2.236068 -1.161816 -2.000462 -1.581139 -1.581139 
C -2.000462 -1.161816 -2.236068 -0.593012 -2.236068 0 
C -2.236068 0.593012 -2.000462 1.161816 -1.581139 1.581139 
C -1.161816 2.000462 -0.593012 2.236068 0 2.236068 
z
" id="m7aca6f1fb7" style="stroke:#ff0000;"/>
    </defs>
    <g clip-path="url(#pfc526050d4)">
     <use style="fill:#ff0000;stroke:#ff0000;" x="75.427029" xlink:href="#m7aca6f1fb7" y="261.887609"/>
     <use style="fill:#ff0000;stroke:#ff0000;" x="78.67416" xlink:href="#m7aca6f1fb7" y="261.887609"/>
     <use style="fill:#ff0000;stroke:#ff0000;" x="81.921291" xlink:href="#m7aca6f1fb7" y="261.887609"/>
     <use style="fill:#ff0000;stroke:#ff0000;" x="85.168421" xlink:href="#m7aca6f1fb7" y="261.887609"/>
     <use style="fill:#ff0000;stroke:#ff0000;" x="88.415552" xlink:href="#m7aca6f1fb7" y="261.887609"/>
     <use style="fill:#ff0000;stroke:#ff0000;" x="91.662683" xlink:href="#m7aca6f1fb7" y="261.887609"/>
     <use style="fill:#ff0000;stroke:#ff0000;" x="94.909813" xlink:href="#m7aca6f1fb7" y="261.887609"/>
     <use style="fill:#ff0000;stroke:#ff0000;" x="98.156944" xlink:href="#m7aca6f1fb7" y="261.887609"/>
     <use style="fill:#ff0000;stroke:#ff0000;" x="101.404075" xlink:href="#m7aca6f1fb7" y="261.887609"/>
     <use style="fill:#ff0000;stroke:#ff0000;" x="104.651206" xlink:href="#m7aca6f1fb7" y="261.887609"/>
     <use style="fill:#ff0000;stroke:#ff0000;" x="107.898336" xlink:href="#m7aca6f1fb7" y="261.887609"/>
     <use style="fill:#ff0000;stroke:#ff0000;" x="111.145467" xlink:href="#m7aca6f1fb7" y="261.887609"/>
     <use style="fill:#ff0000;stroke:#ff0000;" x="114.392598" xlink:href="#m7aca6f1fb7" y="261.887609"/>
     <use style="fill:#ff0000;stroke:#ff0000;" x="117.639728" xlink:href="#m7aca6f1fb7" y="261.887609"/>
     <use style="fill:#ff0000;stroke:#ff0000;" x="120.886859" xlink:href="#m7aca6f1fb7" y="261.887609"/>
     <use style="fill:#ff0000;stroke:#ff0000;" x="124.13399" xlink:href="#m7aca6f1fb7" y="261.887609"/>
     <use style="fill:#ff0000;stroke:#ff0000;" x="127.381121" xlink:href="#m7aca6f1fb7" y="261.887609"/>
     <use style="fill:#ff0000;stroke:#ff0000;" x="130.628251" xlink:href="#m7aca6f1fb7" y="261.887609"/>
     <use style="fill:#ff0000;stroke:#ff0000;" x="133.875382" xlink:href="#m7aca6f1fb7" y="261.887609"/>
     <use style="fill:#ff0000;stroke:#ff0000;" x="137.122513" xlink:href="#m7aca6f1fb7" y="261.887609"/>
     <use style="fill:#ff0000;stroke:#ff0000;" x="140.369644" xlink:href="#m7aca6f1fb7" y="261.887609"/>
     <use style="fill:#ff0000;stroke:#ff0000;" x="143.616774" xlink:href="#m7aca6f1fb7" y="261.887609"/>
     <use style="fill:#ff0000;stroke:#ff0000;" x="146.863905" xlink:href="#m7aca6f1fb7" y="261.887609"/>
     <use style="fill:#ff0000;stroke:#ff0000;" x="150.111036" xlink:href="#m7aca6f1fb7" y="261.887609"/>
     <use style="fill:#ff0000;stroke:#ff0000;" x="153.358166" xlink:href="#m7aca6f1fb7" y="261.887609"/>
     <use style="fill:#ff0000;stroke:#ff0000;" x="156.605297" xlink:href="#m7aca6f1fb7" y="261.887609"/>
     <use style="fill:#ff0000;stroke:#ff0000;" x="159.852428" xlink:href="#m7aca6f1fb7" y="261.887609"/>
     <use style="fill:#ff0000;stroke:#ff0000;" x="163.099559" xlink:href="#m7aca6f1fb7" y="261.887609"/>
     <use style="fill:#ff0000;stroke:#ff0000;" x="166.346689" xlink:href="#m7aca6f1fb7" y="261.887609"/>
     <use style="fill:#ff0000;stroke:#ff0000;" x="169.59382" xlink:href="#m7aca6f1fb7" y="261.887609"/>
     <use style="fill:#ff0000;stroke:#ff0000;" x="172.840951" xlink:href="#m7aca6f1fb7" y="261.887609"/>
     <use style="fill:#ff0000;stroke:#ff0000;" x="176.088082" xlink:href="#m7aca6f1fb7" y="261.887609"/>
     <use style="fill:#ff0000;stroke:#ff0000;" x="179.335212" xlink:href="#m7aca6f1fb7" y="261.887609"/>
     <use style="fill:#ff0000;stroke:#ff0000;" x="182.582343" xlink:href="#m7aca6f1fb7" y="261.887609"/>
     <use style="fill:#ff0000;stroke:#ff0000;" x="185.829474" xlink:href="#m7aca6f1fb7" y="261.887609"/>
     <use style="fill:#ff0000;stroke:#ff0000;" x="189.076604" xlink:href="#m7aca6f1fb7" y="261.887609"/>
     <use style="fill:#ff0000;stroke:#ff0000;" x="192.323735" xlink:href="#m7aca6f1fb7" y="261.887609"/>
     <use style="fill:#ff0000;stroke:#ff0000;" x="195.570866" xlink:href="#m7aca6f1fb7" y="261.887609"/>
     <use style="fill:#ff0000;stroke:#ff0000;" x="198.817997" xlink:href="#m7aca6f1fb7" y="261.887609"/>
     <use style="fill:#ff0000;stroke:#ff0000;" x="202.065127" xlink:href="#m7aca6f1fb7" y="261.887609"/>
     <use style="fill:#ff0000;stroke:#ff0000;" x="205.312258" xlink:href="#m7aca6f1fb7" y="261.887609"/>
     <use style="fill:#ff0000;stroke:#ff0000;" x="208.559389" xlink:href="#m7aca6f1fb7" y="261.887609"/>
     <use style="fill:#ff0000;stroke:#ff0000;" x="211.80652" xlink:href="#m7aca6f1fb7" y="261.887609"/>
     <use style="fill:#ff0000;stroke:#ff0000;" x="215.05365" xlink:href="#m7aca6f1fb7" y="261.887609"/>
     <use style="fill:#ff0000;stroke:#ff0000;" x="218.300781" xlink:href="#m7aca6f1fb7" y="261.887609"/>
     <use style="fill:#ff0000;stroke:#ff0000;" x="221.547912" xlink:href="#m7aca6f1fb7" y="261.887609"/>
     <use style="fill:#ff0000;stroke:#ff0000;" x="224.795042" xlink:href="#m7aca6f1fb7" y="261.887609"/>
     <use style="fill:#ff0000;stroke:#ff0000;" x="228.042173" xlink:href="#m7aca6f1fb7" y="261.887609"/>
     <use style="fill:#ff0000;stroke:#ff0000;" x="231.289304" xlink:href="#m7aca6f1fb7" y="261.887609"/>
     <use style="fill:#ff0000;stroke:#ff0000;" x="234.536435" xlink:href="#m7aca6f1fb7" y="261.887609"/>
     <use style="fill:#ff0000;stroke:#ff0000;" x="237.783565" xlink:href="#m7aca6f1fb7" y="261.887609"/>
     <use style="fill:#ff0000;stroke:#ff0000;" x="241.030696" xlink:href="#m7aca6f1fb7" y="261.887609"/>
     <use style="fill:#ff0000;stroke:#ff0000;" x="244.277827" xlink:href="#m7aca6f1fb7" y="261.887609"/>
     <use style="fill:#ff0000;stroke:#ff0000;" x="247.524958" xlink:href="#m7aca6f1fb7" y="261.887609"/>
     <use style="fill:#ff0000;stroke:#ff0000;" x="250.772088" xlink:href="#m7aca6f1fb7" y="261.887609"/>
     <use style="fill:#ff0000;stroke:#ff0000;" x="254.019219" xlink:href="#m7aca6f1fb7" y="261.887609"/>
     <use style="fill:#ff0000;stroke:#ff0000;" x="257.26635" xlink:href="#m7aca6f1fb7" y="261.887609"/>
     <use style="fill:#ff0000;stroke:#ff0000;" x="260.51348" xlink:href="#m7aca6f1fb7" y="261.887609"/>
     <use style="fill:#ff0000;stroke:#ff0000;" x="263.760611" xlink:href="#m7aca6f1fb7" y="261.887609"/>
     <use style="fill:#ff0000;stroke:#ff0000;" x="267.007742" xlink:href="#m7aca6f1fb7" y="261.887609"/>
     <use style="fill:#ff0000;stroke:#ff0000;" x="270.254873" xlink:href="#m7aca6f1fb7" y="261.887609"/>
     <use style="fill:#ff0000;stroke:#ff0000;" x="273.502003" xlink:href="#m7aca6f1fb7" y="261.887609"/>
     <use style="fill:#ff0000;stroke:#ff0000;" x="276.749134" xlink:href="#m7aca6f1fb7" y="261.887609"/>
     <use style="fill:#ff0000;stroke:#ff0000;" x="279.996265" xlink:href="#m7aca6f1fb7" y="261.887609"/>
     <use style="fill:#ff0000;stroke:#ff0000;" x="283.243396" xlink:href="#m7aca6f1fb7" y="261.887609"/>
     <use style="fill:#ff0000;stroke:#ff0000;" x="286.490526" xlink:href="#m7aca6f1fb7" y="261.887609"/>
     <use style="fill:#ff0000;stroke:#ff0000;" x="289.737657" xlink:href="#m7aca6f1fb7" y="261.887609"/>
     <use style="fill:#ff0000;stroke:#ff0000;" x="292.984788" xlink:href="#m7aca6f1fb7" y="261.887609"/>
     <use style="fill:#ff0000;stroke:#ff0000;" x="296.231918" xlink:href="#m7aca6f1fb7" y="261.887609"/>
     <use style="fill:#ff0000;stroke:#ff0000;" x="299.479049" xlink:href="#m7aca6f1fb7" y="261.887609"/>
     <use style="fill:#ff0000;stroke:#ff0000;" x="302.72618" xlink:href="#m7aca6f1fb7" y="261.887609"/>
     <use style="fill:#ff0000;stroke:#ff0000;" x="305.973311" xlink:href="#m7aca6f1fb7" y="261.887609"/>
     <use style="fill:#ff0000;stroke:#ff0000;" x="309.220441" xlink:href="#m7aca6f1fb7" y="261.887609"/>
     <use style="fill:#ff0000;stroke:#ff0000;" x="312.467572" xlink:href="#m7aca6f1fb7" y="261.887609"/>
     <use style="fill:#ff0000;stroke:#ff0000;" x="315.714703" xlink:href="#m7aca6f1fb7" y="261.887609"/>
     <use style="fill:#ff0000;stroke:#ff0000;" x="318.961834" xlink:href="#m7aca6f1fb7" y="261.887609"/>
     <use style="fill:#ff0000;stroke:#ff0000;" x="322.208964" xlink:href="#m7aca6f1fb7" y="261.887609"/>
     <use style="fill:#ff0000;stroke:#ff0000;" x="325.456095" xlink:href="#m7aca6f1fb7" y="261.887609"/>
     <use style="fill:#ff0000;stroke:#ff0000;" x="328.703226" xlink:href="#m7aca6f1fb7" y="261.887609"/>
     <use style="fill:#ff0000;stroke:#ff0000;" x="331.950356" xlink:href="#m7aca6f1fb7" y="261.887609"/>
     <use style="fill:#ff0000;stroke:#ff0000;" x="335.197487" xlink:href="#m7aca6f1fb7" y="261.887609"/>
     <use style="fill:#ff0000;stroke:#ff0000;" x="338.444618" xlink:href="#m7aca6f1fb7" y="261.887609"/>
     <use style="fill:#ff0000;stroke:#ff0000;" x="341.691749" xlink:href="#m7aca6f1fb7" y="261.887609"/>
     <use style="fill:#ff0000;stroke:#ff0000;" x="344.938879" xlink:href="#m7aca6f1fb7" y="261.887609"/>
     <use style="fill:#ff0000;stroke:#ff0000;" x="348.18601" xlink:href="#m7aca6f1fb7" y="261.887609"/>
     <use style="fill:#ff0000;stroke:#ff0000;" x="351.433141" xlink:href="#m7aca6f1fb7" y="261.887609"/>
     <use style="fill:#ff0000;stroke:#ff0000;" x="354.680272" xlink:href="#m7aca6f1fb7" y="261.887609"/>
     <use style="fill:#ff0000;stroke:#ff0000;" x="357.927402" xlink:href="#m7aca6f1fb7" y="261.887609"/>
     <use style="fill:#ff0000;stroke:#ff0000;" x="361.174533" xlink:href="#m7aca6f1fb7" y="261.887609"/>
     <use style="fill:#ff0000;stroke:#ff0000;" x="364.421664" xlink:href="#m7aca6f1fb7" y="261.887609"/>
     <use style="fill:#ff0000;stroke:#ff0000;" x="367.668794" xlink:href="#m7aca6f1fb7" y="261.887609"/>
     <use style="fill:#ff0000;stroke:#ff0000;" x="370.915925" xlink:href="#m7aca6f1fb7" y="261.887609"/>
     <use style="fill:#ff0000;stroke:#ff0000;" x="374.163056" xlink:href="#m7aca6f1fb7" y="261.887609"/>
     <use style="fill:#ff0000;stroke:#ff0000;" x="377.410187" xlink:href="#m7aca6f1fb7" y="261.887609"/>
     <use style="fill:#ff0000;stroke:#ff0000;" x="380.657317" xlink:href="#m7aca6f1fb7" y="261.887609"/>
     <use style="fill:#ff0000;stroke:#ff0000;" x="383.904448" xlink:href="#m7aca6f1fb7" y="261.887609"/>
     <use style="fill:#ff0000;stroke:#ff0000;" x="387.151579" xlink:href="#m7aca6f1fb7" y="261.887609"/>
     <use style="fill:#ff0000;stroke:#ff0000;" x="390.398709" xlink:href="#m7aca6f1fb7" y="261.887609"/>
     <use style="fill:#ff0000;stroke:#ff0000;" x="393.64584" xlink:href="#m7aca6f1fb7" y="261.887609"/>
     <use style="fill:#ff0000;stroke:#ff0000;" x="396.892971" xlink:href="#m7aca6f1fb7" y="261.887609"/>
    </g>
   </g>
   <g id="PathCollection_2">
    <defs>
     <path d="M 0 2.236068 
C 0.593012 2.236068 1.161816 2.000462 1.581139 1.581139 
C 2.000462 1.161816 2.236068 0.593012 2.236068 0 
C 2.236068 -0.593012 2.000462 -1.161816 1.581139 -1.581139 
C 1.161816 -2.000462 0.593012 -2.236068 0 -2.236068 
C -0.593012 -2.236068 -1.161816 -2.000462 -1.581139 -1.581139 
C -2.000462 -1.161816 -2.236068 -0.593012 -2.236068 0 
C -2.236068 0.593012 -2.000462 1.161816 -1.581139 1.581139 
C -1.161816 2.000462 -0.593012 2.236068 0 2.236068 
z
" id="m5515614e38" style="stroke:#008000;"/>
    </defs>
    <g clip-path="url(#pfc526050d4)">
     <use style="fill:#008000;stroke:#008000;" x="75.427029" xlink:href="#m5515614e38" y="140.92815"/>
     <use style="fill:#008000;stroke:#008000;" x="78.67416" xlink:href="#m5515614e38" y="80.448421"/>
     <use style="fill:#008000;stroke:#008000;" x="81.921291" xlink:href="#m5515614e38" y="114.048271"/>
     <use style="fill:#008000;stroke:#008000;" x="85.168421" xlink:href="#m5515614e38" y="147.64812"/>
     <use style="fill:#008000;stroke:#008000;" x="88.415552" xlink:href="#m5515614e38" y="288.767489"/>
     <use style="fill:#008000;stroke:#008000;" x="91.662683" xlink:href="#m5515614e38" y="60.288511"/>
     <use style="fill:#008000;stroke:#008000;" x="94.909813" xlink:href="#m5515614e38" y="167.80803"/>
     <use style="fill:#008000;stroke:#008000;" x="98.156944" xlink:href="#m5515614e38" y="181.24797"/>
     <use style="fill:#008000;stroke:#008000;" x="101.404075" xlink:href="#m5515614e38" y="134.20818"/>
     <use style="fill:#008000;stroke:#008000;" x="104.651206" xlink:href="#m5515614e38" y="80.448421"/>
     <use style="fill:#008000;stroke:#008000;" x="107.898336" xlink:href="#m5515614e38" y="187.96794"/>
     <use style="fill:#008000;stroke:#008000;" x="111.145467" xlink:href="#m5515614e38" y="73.728451"/>
     <use style="fill:#008000;stroke:#008000;" x="114.392598" xlink:href="#m5515614e38" y="275.327549"/>
     <use style="fill:#008000;stroke:#008000;" x="117.639728" xlink:href="#m5515614e38" y="67.008481"/>
     <use style="fill:#008000;stroke:#008000;" x="120.886859" xlink:href="#m5515614e38" y="181.24797"/>
     <use style="fill:#008000;stroke:#008000;" x="124.13399" xlink:href="#m5515614e38" y="187.96794"/>
     <use style="fill:#008000;stroke:#008000;" x="127.381121" xlink:href="#m5515614e38" y="288.767489"/>
     <use style="fill:#008000;stroke:#008000;" x="130.628251" xlink:href="#m5515614e38" y="214.84782"/>
     <use style="fill:#008000;stroke:#008000;" x="133.875382" xlink:href="#m5515614e38" y="275.327549"/>
     <use style="fill:#008000;stroke:#008000;" x="137.122513" xlink:href="#m5515614e38" y="107.328301"/>
     <use style="fill:#008000;stroke:#008000;" x="140.369644" xlink:href="#m5515614e38" y="140.92815"/>
     <use style="fill:#008000;stroke:#008000;" x="143.616774" xlink:href="#m5515614e38" y="73.728451"/>
     <use style="fill:#008000;stroke:#008000;" x="146.863905" xlink:href="#m5515614e38" y="80.448421"/>
     <use style="fill:#008000;stroke:#008000;" x="150.111036" xlink:href="#m5515614e38" y="114.048271"/>
     <use style="fill:#008000;stroke:#008000;" x="153.358166" xlink:href="#m5515614e38" y="282.047519"/>
     <use style="fill:#008000;stroke:#008000;" x="156.605297" xlink:href="#m5515614e38" y="120.76824"/>
     <use style="fill:#008000;stroke:#008000;" x="159.852428" xlink:href="#m5515614e38" y="201.40788"/>
     <use style="fill:#008000;stroke:#008000;" x="163.099559" xlink:href="#m5515614e38" y="241.727699"/>
     <use style="fill:#008000;stroke:#008000;" x="166.346689" xlink:href="#m5515614e38" y="288.767489"/>
     <use style="fill:#008000;stroke:#008000;" x="169.59382" xlink:href="#m5515614e38" y="282.047519"/>
     <use style="fill:#008000;stroke:#008000;" x="172.840951" xlink:href="#m5515614e38" y="53.568541"/>
     <use style="fill:#008000;stroke:#008000;" x="176.088082" xlink:href="#m5515614e38" y="241.727699"/>
     <use style="fill:#008000;stroke:#008000;" x="179.335212" xlink:href="#m5515614e38" y="107.328301"/>
     <use style="fill:#008000;stroke:#008000;" x="182.582343" xlink:href="#m5515614e38" y="235.007729"/>
     <use style="fill:#008000;stroke:#008000;" x="185.829474" xlink:href="#m5515614e38" y="194.68791"/>
     <use style="fill:#008000;stroke:#008000;" x="189.076604" xlink:href="#m5515614e38" y="127.48821"/>
     <use style="fill:#008000;stroke:#008000;" x="192.323735" xlink:href="#m5515614e38" y="134.20818"/>
     <use style="fill:#008000;stroke:#008000;" x="195.570866" xlink:href="#m5515614e38" y="93.888361"/>
     <use style="fill:#008000;stroke:#008000;" x="198.817997" xlink:href="#m5515614e38" y="107.328301"/>
     <use style="fill:#008000;stroke:#008000;" x="202.065127" xlink:href="#m5515614e38" y="140.92815"/>
     <use style="fill:#008000;stroke:#008000;" x="205.312258" xlink:href="#m5515614e38" y="255.167639"/>
     <use style="fill:#008000;stroke:#008000;" x="208.559389" xlink:href="#m5515614e38" y="214.84782"/>
     <use style="fill:#008000;stroke:#008000;" x="211.80652" xlink:href="#m5515614e38" y="154.36809"/>
     <use style="fill:#008000;stroke:#008000;" x="215.05365" xlink:href="#m5515614e38" y="275.327549"/>
     <use style="fill:#008000;stroke:#008000;" x="218.300781" xlink:href="#m5515614e38" y="73.728451"/>
     <use style="fill:#008000;stroke:#008000;" x="221.547912" xlink:href="#m5515614e38" y="181.24797"/>
     <use style="fill:#008000;stroke:#008000;" x="224.795042" xlink:href="#m5515614e38" y="282.047519"/>
     <use style="fill:#008000;stroke:#008000;" x="228.042173" xlink:href="#m5515614e38" y="208.12785"/>
     <use style="fill:#008000;stroke:#008000;" x="231.289304" xlink:href="#m5515614e38" y="100.608331"/>
     <use style="fill:#008000;stroke:#008000;" x="234.536435" xlink:href="#m5515614e38" y="87.168391"/>
     <use style="fill:#008000;stroke:#008000;" x="237.783565" xlink:href="#m5515614e38" y="295.487459"/>
     <use style="fill:#008000;stroke:#008000;" x="241.030696" xlink:href="#m5515614e38" y="295.487459"/>
     <use style="fill:#008000;stroke:#008000;" x="244.277827" xlink:href="#m5515614e38" y="140.92815"/>
     <use style="fill:#008000;stroke:#008000;" x="247.524958" xlink:href="#m5515614e38" y="167.80803"/>
     <use style="fill:#008000;stroke:#008000;" x="250.772088" xlink:href="#m5515614e38" y="147.64812"/>
     <use style="fill:#008000;stroke:#008000;" x="254.019219" xlink:href="#m5515614e38" y="114.048271"/>
     <use style="fill:#008000;stroke:#008000;" x="257.26635" xlink:href="#m5515614e38" y="127.48821"/>
     <use style="fill:#008000;stroke:#008000;" x="260.51348" xlink:href="#m5515614e38" y="282.047519"/>
     <use style="fill:#008000;stroke:#008000;" x="263.760611" xlink:href="#m5515614e38" y="235.007729"/>
     <use style="fill:#008000;stroke:#008000;" x="267.007742" xlink:href="#m5515614e38" y="60.288511"/>
     <use style="fill:#008000;stroke:#008000;" x="270.254873" xlink:href="#m5515614e38" y="214.84782"/>
     <use style="fill:#008000;stroke:#008000;" x="273.502003" xlink:href="#m5515614e38" y="100.608331"/>
     <use style="fill:#008000;stroke:#008000;" x="276.749134" xlink:href="#m5515614e38" y="114.048271"/>
     <use style="fill:#008000;stroke:#008000;" x="279.996265" xlink:href="#m5515614e38" y="194.68791"/>
     <use style="fill:#008000;stroke:#008000;" x="283.243396" xlink:href="#m5515614e38" y="67.008481"/>
     <use style="fill:#008000;stroke:#008000;" x="286.490526" xlink:href="#m5515614e38" y="174.528"/>
     <use style="fill:#008000;stroke:#008000;" x="289.737657" xlink:href="#m5515614e38" y="214.84782"/>
     <use style="fill:#008000;stroke:#008000;" x="292.984788" xlink:href="#m5515614e38" y="248.447669"/>
     <use style="fill:#008000;stroke:#008000;" x="296.231918" xlink:href="#m5515614e38" y="154.36809"/>
     <use style="fill:#008000;stroke:#008000;" x="299.479049" xlink:href="#m5515614e38" y="194.68791"/>
     <use style="fill:#008000;stroke:#008000;" x="302.72618" xlink:href="#m5515614e38" y="107.328301"/>
     <use style="fill:#008000;stroke:#008000;" x="305.973311" xlink:href="#m5515614e38" y="154.36809"/>
     <use style="fill:#008000;stroke:#008000;" x="309.220441" xlink:href="#m5515614e38" y="134.20818"/>
     <use style="fill:#008000;stroke:#008000;" x="312.467572" xlink:href="#m5515614e38" y="73.728451"/>
     <use style="fill:#008000;stroke:#008000;" x="315.714703" xlink:href="#m5515614e38" y="140.92815"/>
     <use style="fill:#008000;stroke:#008000;" x="318.961834" xlink:href="#m5515614e38" y="120.76824"/>
     <use style="fill:#008000;stroke:#008000;" x="322.208964" xlink:href="#m5515614e38" y="201.40788"/>
     <use style="fill:#008000;stroke:#008000;" x="325.456095" xlink:href="#m5515614e38" y="248.447669"/>
     <use style="fill:#008000;stroke:#008000;" x="328.703226" xlink:href="#m5515614e38" y="67.008481"/>
     <use style="fill:#008000;stroke:#008000;" x="331.950356" xlink:href="#m5515614e38" y="134.20818"/>
     <use style="fill:#008000;stroke:#008000;" x="335.197487" xlink:href="#m5515614e38" y="228.28776"/>
     <use style="fill:#008000;stroke:#008000;" x="338.444618" xlink:href="#m5515614e38" y="194.68791"/>
     <use style="fill:#008000;stroke:#008000;" x="341.691749" xlink:href="#m5515614e38" y="134.20818"/>
     <use style="fill:#008000;stroke:#008000;" x="344.938879" xlink:href="#m5515614e38" y="208.12785"/>
     <use style="fill:#008000;stroke:#008000;" x="348.18601" xlink:href="#m5515614e38" y="268.607579"/>
     <use style="fill:#008000;stroke:#008000;" x="351.433141" xlink:href="#m5515614e38" y="275.327549"/>
     <use style="fill:#008000;stroke:#008000;" x="354.680272" xlink:href="#m5515614e38" y="161.08806"/>
     <use style="fill:#008000;stroke:#008000;" x="357.927402" xlink:href="#m5515614e38" y="174.528"/>
     <use style="fill:#008000;stroke:#008000;" x="361.174533" xlink:href="#m5515614e38" y="194.68791"/>
     <use style="fill:#008000;stroke:#008000;" x="364.421664" xlink:href="#m5515614e38" y="107.328301"/>
     <use style="fill:#008000;stroke:#008000;" x="367.668794" xlink:href="#m5515614e38" y="174.528"/>
     <use style="fill:#008000;stroke:#008000;" x="370.915925" xlink:href="#m5515614e38" y="235.007729"/>
     <use style="fill:#008000;stroke:#008000;" x="374.163056" xlink:href="#m5515614e38" y="181.24797"/>
     <use style="fill:#008000;stroke:#008000;" x="377.410187" xlink:href="#m5515614e38" y="167.80803"/>
     <use style="fill:#008000;stroke:#008000;" x="380.657317" xlink:href="#m5515614e38" y="87.168391"/>
     <use style="fill:#008000;stroke:#008000;" x="383.904448" xlink:href="#m5515614e38" y="87.168391"/>
     <use style="fill:#008000;stroke:#008000;" x="387.151579" xlink:href="#m5515614e38" y="295.487459"/>
     <use style="fill:#008000;stroke:#008000;" x="390.398709" xlink:href="#m5515614e38" y="228.28776"/>
     <use style="fill:#008000;stroke:#008000;" x="393.64584" xlink:href="#m5515614e38" y="275.327549"/>
     <use style="fill:#008000;stroke:#008000;" x="396.892971" xlink:href="#m5515614e38" y="53.568541"/>
    </g>
   </g>
   <g id="matplotlib.axis_1">
    <g id="xtick_1">
     <g id="line2d_1">
      <defs>
       <path d="M 0 0 
L 0 3.5 
" id="m6f9de56bd5" style="stroke:#000000;stroke-width:0.8;"/>
      </defs>
      <g>
       <use style="stroke:#000000;stroke-width:0.8;" x="72.179898" xlink:href="#m6f9de56bd5" y="307.584"/>
      </g>
     </g>
     <g id="text_1">
      <!-- 0 -->
      <defs>
       <path d="M 31.78125 66.40625 
Q 24.171875 66.40625 20.328125 58.90625 
Q 16.5 51.421875 16.5 36.375 
Q 16.5 21.390625 20.328125 13.890625 
Q 24.171875 6.390625 31.78125 6.390625 
Q 39.453125 6.390625 43.28125 13.890625 
Q 47.125 21.390625 47.125 36.375 
Q 47.125 51.421875 43.28125 58.90625 
Q 39.453125 66.40625 31.78125 66.40625 
z
M 31.78125 74.21875 
Q 44.046875 74.21875 50.515625 64.515625 
Q 56.984375 54.828125 56.984375 36.375 
Q 56.984375 17.96875 50.515625 8.265625 
Q 44.046875 -1.421875 31.78125 -1.421875 
Q 19.53125 -1.421875 13.0625 8.265625 
Q 6.59375 17.96875 6.59375 36.375 
Q 6.59375 54.828125 13.0625 64.515625 
Q 19.53125 74.21875 31.78125 74.21875 
z
" id="DejaVuSans-30"/>
      </defs>
      <g transform="translate(68.998648 322.182437)scale(0.1 -0.1)">
       <use xlink:href="#DejaVuSans-30"/>
      </g>
     </g>
    </g>
    <g id="xtick_2">
     <g id="line2d_2">
      <g>
       <use style="stroke:#000000;stroke-width:0.8;" x="137.122513" xlink:href="#m6f9de56bd5" y="307.584"/>
      </g>
     </g>
     <g id="text_2">
      <!-- 20 -->
      <defs>
       <path d="M 19.1875 8.296875 
L 53.609375 8.296875 
L 53.609375 0 
L 7.328125 0 
L 7.328125 8.296875 
Q 12.9375 14.109375 22.625 23.890625 
Q 32.328125 33.6875 34.8125 36.53125 
Q 39.546875 41.84375 41.421875 45.53125 
Q 43.3125 49.21875 43.3125 52.78125 
Q 43.3125 58.59375 39.234375 62.25 
Q 35.15625 65.921875 28.609375 65.921875 
Q 23.96875 65.921875 18.8125 64.3125 
Q 13.671875 62.703125 7.8125 59.421875 
L 7.8125 69.390625 
Q 13.765625 71.78125 18.9375 73 
Q 24.125 74.21875 28.421875 74.21875 
Q 39.75 74.21875 46.484375 68.546875 
Q 53.21875 62.890625 53.21875 53.421875 
Q 53.21875 48.921875 51.53125 44.890625 
Q 49.859375 40.875 45.40625 35.40625 
Q 44.1875 33.984375 37.640625 27.21875 
Q 31.109375 20.453125 19.1875 8.296875 
z
" id="DejaVuSans-32"/>
      </defs>
      <g transform="translate(130.760013 322.182437)scale(0.1 -0.1)">
       <use xlink:href="#DejaVuSans-32"/>
       <use x="63.623047" xlink:href="#DejaVuSans-30"/>
      </g>
     </g>
    </g>
    <g id="xtick_3">
     <g id="line2d_3">
      <g>
       <use style="stroke:#000000;stroke-width:0.8;" x="202.065127" xlink:href="#m6f9de56bd5" y="307.584"/>
      </g>
     </g>
     <g id="text_3">
      <!-- 40 -->
      <defs>
       <path d="M 37.796875 64.3125 
L 12.890625 25.390625 
L 37.796875 25.390625 
z
M 35.203125 72.90625 
L 47.609375 72.90625 
L 47.609375 25.390625 
L 58.015625 25.390625 
L 58.015625 17.1875 
L 47.609375 17.1875 
L 47.609375 0 
L 37.796875 0 
L 37.796875 17.1875 
L 4.890625 17.1875 
L 4.890625 26.703125 
z
" id="DejaVuSans-34"/>
      </defs>
      <g transform="translate(195.702627 322.182437)scale(0.1 -0.1)">
       <use xlink:href="#DejaVuSans-34"/>
       <use x="63.623047" xlink:href="#DejaVuSans-30"/>
      </g>
     </g>
    </g>
    <g id="xtick_4">
     <g id="line2d_4">
      <g>
       <use style="stroke:#000000;stroke-width:0.8;" x="267.007742" xlink:href="#m6f9de56bd5" y="307.584"/>
      </g>
     </g>
     <g id="text_4">
      <!-- 60 -->
      <defs>
       <path d="M 33.015625 40.375 
Q 26.375 40.375 22.484375 35.828125 
Q 18.609375 31.296875 18.609375 23.390625 
Q 18.609375 15.53125 22.484375 10.953125 
Q 26.375 6.390625 33.015625 6.390625 
Q 39.65625 6.390625 43.53125 10.953125 
Q 47.40625 15.53125 47.40625 23.390625 
Q 47.40625 31.296875 43.53125 35.828125 
Q 39.65625 40.375 33.015625 40.375 
z
M 52.59375 71.296875 
L 52.59375 62.3125 
Q 48.875 64.0625 45.09375 64.984375 
Q 41.3125 65.921875 37.59375 65.921875 
Q 27.828125 65.921875 22.671875 59.328125 
Q 17.53125 52.734375 16.796875 39.40625 
Q 19.671875 43.65625 24.015625 45.921875 
Q 28.375 48.1875 33.59375 48.1875 
Q 44.578125 48.1875 50.953125 41.515625 
Q 57.328125 34.859375 57.328125 23.390625 
Q 57.328125 12.15625 50.6875 5.359375 
Q 44.046875 -1.421875 33.015625 -1.421875 
Q 20.359375 -1.421875 13.671875 8.265625 
Q 6.984375 17.96875 6.984375 36.375 
Q 6.984375 53.65625 15.1875 63.9375 
Q 23.390625 74.21875 37.203125 74.21875 
Q 40.921875 74.21875 44.703125 73.484375 
Q 48.484375 72.75 52.59375 71.296875 
z
" id="DejaVuSans-36"/>
      </defs>
      <g transform="translate(260.645242 322.182437)scale(0.1 -0.1)">
       <use xlink:href="#DejaVuSans-36"/>
       <use x="63.623047" xlink:href="#DejaVuSans-30"/>
      </g>
     </g>
    </g>
    <g id="xtick_5">
     <g id="line2d_5">
      <g>
       <use style="stroke:#000000;stroke-width:0.8;" x="331.950356" xlink:href="#m6f9de56bd5" y="307.584"/>
      </g>
     </g>
     <g id="text_5">
      <!-- 80 -->
      <defs>
       <path d="M 31.78125 34.625 
Q 24.75 34.625 20.71875 30.859375 
Q 16.703125 27.09375 16.703125 20.515625 
Q 16.703125 13.921875 20.71875 10.15625 
Q 24.75 6.390625 31.78125 6.390625 
Q 38.8125 6.390625 42.859375 10.171875 
Q 46.921875 13.96875 46.921875 20.515625 
Q 46.921875 27.09375 42.890625 30.859375 
Q 38.875 34.625 31.78125 34.625 
z
M 21.921875 38.8125 
Q 15.578125 40.375 12.03125 44.71875 
Q 8.5 49.078125 8.5 55.328125 
Q 8.5 64.0625 14.71875 69.140625 
Q 20.953125 74.21875 31.78125 74.21875 
Q 42.671875 74.21875 48.875 69.140625 
Q 55.078125 64.0625 55.078125 55.328125 
Q 55.078125 49.078125 51.53125 44.71875 
Q 48 40.375 41.703125 38.8125 
Q 48.828125 37.15625 52.796875 32.3125 
Q 56.78125 27.484375 56.78125 20.515625 
Q 56.78125 9.90625 50.3125 4.234375 
Q 43.84375 -1.421875 31.78125 -1.421875 
Q 19.734375 -1.421875 13.25 4.234375 
Q 6.78125 9.90625 6.78125 20.515625 
Q 6.78125 27.484375 10.78125 32.3125 
Q 14.796875 37.15625 21.921875 38.8125 
z
M 18.3125 54.390625 
Q 18.3125 48.734375 21.84375 45.5625 
Q 25.390625 42.390625 31.78125 42.390625 
Q 38.140625 42.390625 41.71875 45.5625 
Q 45.3125 48.734375 45.3125 54.390625 
Q 45.3125 60.0625 41.71875 63.234375 
Q 38.140625 66.40625 31.78125 66.40625 
Q 25.390625 66.40625 21.84375 63.234375 
Q 18.3125 60.0625 18.3125 54.390625 
z
" id="DejaVuSans-38"/>
      </defs>
      <g transform="translate(325.587856 322.182437)scale(0.1 -0.1)">
       <use xlink:href="#DejaVuSans-38"/>
       <use x="63.623047" xlink:href="#DejaVuSans-30"/>
      </g>
     </g>
    </g>
    <g id="xtick_6">
     <g id="line2d_6">
      <g>
       <use style="stroke:#000000;stroke-width:0.8;" x="396.892971" xlink:href="#m6f9de56bd5" y="307.584"/>
      </g>
     </g>
     <g id="text_6">
      <!-- 100 -->
      <defs>
       <path d="M 12.40625 8.296875 
L 28.515625 8.296875 
L 28.515625 63.921875 
L 10.984375 60.40625 
L 10.984375 69.390625 
L 28.421875 72.90625 
L 38.28125 72.90625 
L 38.28125 8.296875 
L 54.390625 8.296875 
L 54.390625 0 
L 12.40625 0 
z
" id="DejaVuSans-31"/>
      </defs>
      <g transform="translate(387.349221 322.182437)scale(0.1 -0.1)">
       <use xlink:href="#DejaVuSans-31"/>
       <use x="63.623047" xlink:href="#DejaVuSans-30"/>
       <use x="127.246094" xlink:href="#DejaVuSans-30"/>
      </g>
     </g>
    </g>
    <g id="text_7">
     <!-- Tiradas -->
     <defs>
      <path d="M -0.296875 72.90625 
L 61.375 72.90625 
L 61.375 64.59375 
L 35.5 64.59375 
L 35.5 0 
L 25.59375 0 
L 25.59375 64.59375 
L -0.296875 64.59375 
z
" id="DejaVuSans-54"/>
      <path d="M 9.421875 54.6875 
L 18.40625 54.6875 
L 18.40625 0 
L 9.421875 0 
z
M 9.421875 75.984375 
L 18.40625 75.984375 
L 18.40625 64.59375 
L 9.421875 64.59375 
z
" id="DejaVuSans-69"/>
      <path d="M 41.109375 46.296875 
Q 39.59375 47.171875 37.8125 47.578125 
Q 36.03125 48 33.890625 48 
Q 26.265625 48 22.1875 43.046875 
Q 18.109375 38.09375 18.109375 28.8125 
L 18.109375 0 
L 9.078125 0 
L 9.078125 54.6875 
L 18.109375 54.6875 
L 18.109375 46.1875 
Q 20.953125 51.171875 25.484375 53.578125 
Q 30.03125 56 36.53125 56 
Q 37.453125 56 38.578125 55.875 
Q 39.703125 55.765625 41.0625 55.515625 
z
" id="DejaVuSans-72"/>
      <path d="M 34.28125 27.484375 
Q 23.390625 27.484375 19.1875 25 
Q 14.984375 22.515625 14.984375 16.5 
Q 14.984375 11.71875 18.140625 8.90625 
Q 21.296875 6.109375 26.703125 6.109375 
Q 34.1875 6.109375 38.703125 11.40625 
Q 43.21875 16.703125 43.21875 25.484375 
L 43.21875 27.484375 
z
M 52.203125 31.203125 
L 52.203125 0 
L 43.21875 0 
L 43.21875 8.296875 
Q 40.140625 3.328125 35.546875 0.953125 
Q 30.953125 -1.421875 24.3125 -1.421875 
Q 15.921875 -1.421875 10.953125 3.296875 
Q 6 8.015625 6 15.921875 
Q 6 25.140625 12.171875 29.828125 
Q 18.359375 34.515625 30.609375 34.515625 
L 43.21875 34.515625 
L 43.21875 35.40625 
Q 43.21875 41.609375 39.140625 45 
Q 35.0625 48.390625 27.6875 48.390625 
Q 23 48.390625 18.546875 47.265625 
Q 14.109375 46.140625 10.015625 43.890625 
L 10.015625 52.203125 
Q 14.9375 54.109375 19.578125 55.046875 
Q 24.21875 56 28.609375 56 
Q 40.484375 56 46.34375 49.84375 
Q 52.203125 43.703125 52.203125 31.203125 
z
" id="DejaVuSans-61"/>
      <path d="M 45.40625 46.390625 
L 45.40625 75.984375 
L 54.390625 75.984375 
L 54.390625 0 
L 45.40625 0 
L 45.40625 8.203125 
Q 42.578125 3.328125 38.25 0.953125 
Q 33.9375 -1.421875 27.875 -1.421875 
Q 17.96875 -1.421875 11.734375 6.484375 
Q 5.515625 14.40625 5.515625 27.296875 
Q 5.515625 40.1875 11.734375 48.09375 
Q 17.96875 56 27.875 56 
Q 33.9375 56 38.25 53.625 
Q 42.578125 51.265625 45.40625 46.390625 
z
M 14.796875 27.296875 
Q 14.796875 17.390625 18.875 11.75 
Q 22.953125 6.109375 30.078125 6.109375 
Q 37.203125 6.109375 41.296875 11.75 
Q 45.40625 17.390625 45.40625 27.296875 
Q 45.40625 37.203125 41.296875 42.84375 
Q 37.203125 48.484375 30.078125 48.484375 
Q 22.953125 48.484375 18.875 42.84375 
Q 14.796875 37.203125 14.796875 27.296875 
z
" id="DejaVuSans-64"/>
      <path d="M 44.28125 53.078125 
L 44.28125 44.578125 
Q 40.484375 46.53125 36.375 47.5 
Q 32.28125 48.484375 27.875 48.484375 
Q 21.1875 48.484375 17.84375 46.4375 
Q 14.5 44.390625 14.5 40.28125 
Q 14.5 37.15625 16.890625 35.375 
Q 19.28125 33.59375 26.515625 31.984375 
L 29.59375 31.296875 
Q 39.15625 29.25 43.1875 25.515625 
Q 47.21875 21.78125 47.21875 15.09375 
Q 47.21875 7.46875 41.1875 3.015625 
Q 35.15625 -1.421875 24.609375 -1.421875 
Q 20.21875 -1.421875 15.453125 -0.5625 
Q 10.6875 0.296875 5.421875 2 
L 5.421875 11.28125 
Q 10.40625 8.6875 15.234375 7.390625 
Q 20.0625 6.109375 24.8125 6.109375 
Q 31.15625 6.109375 34.5625 8.28125 
Q 37.984375 10.453125 37.984375 14.40625 
Q 37.984375 18.0625 35.515625 20.015625 
Q 33.0625 21.96875 24.703125 23.78125 
L 21.578125 24.515625 
Q 13.234375 26.265625 9.515625 29.90625 
Q 5.8125 33.546875 5.8125 39.890625 
Q 5.8125 47.609375 11.28125 51.796875 
Q 16.75 56 26.8125 56 
Q 31.78125 56 36.171875 55.265625 
Q 40.578125 54.546875 44.28125 53.078125 
z
" id="DejaVuSans-73"/>
     </defs>
     <g transform="translate(217.756875 335.860562)scale(0.1 -0.1)">
      <use xlink:href="#DejaVuSans-54"/>
      <use x="61.037109" xlink:href="#DejaVuSans-69"/>
      <use x="88.820312" xlink:href="#DejaVuSans-72"/>
      <use x="129.933594" xlink:href="#DejaVuSans-61"/>
      <use x="191.212891" xlink:href="#DejaVuSans-64"/>
      <use x="254.689453" xlink:href="#DejaVuSans-61"/>
      <use x="315.96875" xlink:href="#DejaVuSans-73"/>
     </g>
    </g>
   </g>
   <g id="matplotlib.axis_2">
    <g id="ytick_1">
     <g id="line2d_7">
      <defs>
       <path d="M 0 0 
L -3.5 0 
" id="mcd1bfda9f6" style="stroke:#000000;stroke-width:0.8;"/>
      </defs>
      <g>
       <use style="stroke:#000000;stroke-width:0.8;" x="57.6" xlink:href="#mcd1bfda9f6" y="295.487459"/>
      </g>
     </g>
     <g id="text_8">
      <!-- 0 -->
      <g transform="translate(44.2375 299.286678)scale(0.1 -0.1)">
       <use xlink:href="#DejaVuSans-30"/>
      </g>
     </g>
    </g>
    <g id="ytick_2">
     <g id="line2d_8">
      <g>
       <use style="stroke:#000000;stroke-width:0.8;" x="57.6" xlink:href="#mcd1bfda9f6" y="261.887609"/>
      </g>
     </g>
     <g id="text_9">
      <!-- 5 -->
      <defs>
       <path d="M 10.796875 72.90625 
L 49.515625 72.90625 
L 49.515625 64.59375 
L 19.828125 64.59375 
L 19.828125 46.734375 
Q 21.96875 47.46875 24.109375 47.828125 
Q 26.265625 48.1875 28.421875 48.1875 
Q 40.625 48.1875 47.75 41.5 
Q 54.890625 34.8125 54.890625 23.390625 
Q 54.890625 11.625 47.5625 5.09375 
Q 40.234375 -1.421875 26.90625 -1.421875 
Q 22.3125 -1.421875 17.546875 -0.640625 
Q 12.796875 0.140625 7.71875 1.703125 
L 7.71875 11.625 
Q 12.109375 9.234375 16.796875 8.0625 
Q 21.484375 6.890625 26.703125 6.890625 
Q 35.15625 6.890625 40.078125 11.328125 
Q 45.015625 15.765625 45.015625 23.390625 
Q 45.015625 31 40.078125 35.4375 
Q 35.15625 39.890625 26.703125 39.890625 
Q 22.75 39.890625 18.8125 39.015625 
Q 14.890625 38.140625 10.796875 36.28125 
z
" id="DejaVuSans-35"/>
      </defs>
      <g transform="translate(44.2375 265.686828)scale(0.1 -0.1)">
       <use xlink:href="#DejaVuSans-35"/>
      </g>
     </g>
    </g>
    <g id="ytick_3">
     <g id="line2d_9">
      <g>
       <use style="stroke:#000000;stroke-width:0.8;" x="57.6" xlink:href="#mcd1bfda9f6" y="228.28776"/>
      </g>
     </g>
     <g id="text_10">
      <!-- 10 -->
      <g transform="translate(37.875 232.086978)scale(0.1 -0.1)">
       <use xlink:href="#DejaVuSans-31"/>
       <use x="63.623047" xlink:href="#DejaVuSans-30"/>
      </g>
     </g>
    </g>
    <g id="ytick_4">
     <g id="line2d_10">
      <g>
       <use style="stroke:#000000;stroke-width:0.8;" x="57.6" xlink:href="#mcd1bfda9f6" y="194.68791"/>
      </g>
     </g>
     <g id="text_11">
      <!-- 15 -->
      <g transform="translate(37.875 198.487129)scale(0.1 -0.1)">
       <use xlink:href="#DejaVuSans-31"/>
       <use x="63.623047" xlink:href="#DejaVuSans-35"/>
      </g>
     </g>
    </g>
    <g id="ytick_5">
     <g id="line2d_11">
      <g>
       <use style="stroke:#000000;stroke-width:0.8;" x="57.6" xlink:href="#mcd1bfda9f6" y="161.08806"/>
      </g>
     </g>
     <g id="text_12">
      <!-- 20 -->
      <g transform="translate(37.875 164.887279)scale(0.1 -0.1)">
       <use xlink:href="#DejaVuSans-32"/>
       <use x="63.623047" xlink:href="#DejaVuSans-30"/>
      </g>
     </g>
    </g>
    <g id="ytick_6">
     <g id="line2d_12">
      <g>
       <use style="stroke:#000000;stroke-width:0.8;" x="57.6" xlink:href="#mcd1bfda9f6" y="127.48821"/>
      </g>
     </g>
     <g id="text_13">
      <!-- 25 -->
      <g transform="translate(37.875 131.287429)scale(0.1 -0.1)">
       <use xlink:href="#DejaVuSans-32"/>
       <use x="63.623047" xlink:href="#DejaVuSans-35"/>
      </g>
     </g>
    </g>
    <g id="ytick_7">
     <g id="line2d_13">
      <g>
       <use style="stroke:#000000;stroke-width:0.8;" x="57.6" xlink:href="#mcd1bfda9f6" y="93.888361"/>
      </g>
     </g>
     <g id="text_14">
      <!-- 30 -->
      <defs>
       <path d="M 40.578125 39.3125 
Q 47.65625 37.796875 51.625 33 
Q 55.609375 28.21875 55.609375 21.1875 
Q 55.609375 10.40625 48.1875 4.484375 
Q 40.765625 -1.421875 27.09375 -1.421875 
Q 22.515625 -1.421875 17.65625 -0.515625 
Q 12.796875 0.390625 7.625 2.203125 
L 7.625 11.71875 
Q 11.71875 9.328125 16.59375 8.109375 
Q 21.484375 6.890625 26.8125 6.890625 
Q 36.078125 6.890625 40.9375 10.546875 
Q 45.796875 14.203125 45.796875 21.1875 
Q 45.796875 27.640625 41.28125 31.265625 
Q 36.765625 34.90625 28.71875 34.90625 
L 20.21875 34.90625 
L 20.21875 43.015625 
L 29.109375 43.015625 
Q 36.375 43.015625 40.234375 45.921875 
Q 44.09375 48.828125 44.09375 54.296875 
Q 44.09375 59.90625 40.109375 62.90625 
Q 36.140625 65.921875 28.71875 65.921875 
Q 24.65625 65.921875 20.015625 65.03125 
Q 15.375 64.15625 9.8125 62.3125 
L 9.8125 71.09375 
Q 15.4375 72.65625 20.34375 73.4375 
Q 25.25 74.21875 29.59375 74.21875 
Q 40.828125 74.21875 47.359375 69.109375 
Q 53.90625 64.015625 53.90625 55.328125 
Q 53.90625 49.265625 50.4375 45.09375 
Q 46.96875 40.921875 40.578125 39.3125 
z
" id="DejaVuSans-33"/>
      </defs>
      <g transform="translate(37.875 97.687579)scale(0.1 -0.1)">
       <use xlink:href="#DejaVuSans-33"/>
       <use x="63.623047" xlink:href="#DejaVuSans-30"/>
      </g>
     </g>
    </g>
    <g id="ytick_8">
     <g id="line2d_14">
      <g>
       <use style="stroke:#000000;stroke-width:0.8;" x="57.6" xlink:href="#mcd1bfda9f6" y="60.288511"/>
      </g>
     </g>
     <g id="text_15">
      <!-- 35 -->
      <g transform="translate(37.875 64.08773)scale(0.1 -0.1)">
       <use xlink:href="#DejaVuSans-33"/>
       <use x="63.623047" xlink:href="#DejaVuSans-35"/>
      </g>
     </g>
    </g>
    <g id="text_16">
     <!-- Valores -->
     <defs>
      <path d="M 28.609375 0 
L 0.78125 72.90625 
L 11.078125 72.90625 
L 34.1875 11.53125 
L 57.328125 72.90625 
L 67.578125 72.90625 
L 39.796875 0 
z
" id="DejaVuSans-56"/>
      <path d="M 9.421875 75.984375 
L 18.40625 75.984375 
L 18.40625 0 
L 9.421875 0 
z
" id="DejaVuSans-6c"/>
      <path d="M 30.609375 48.390625 
Q 23.390625 48.390625 19.1875 42.75 
Q 14.984375 37.109375 14.984375 27.296875 
Q 14.984375 17.484375 19.15625 11.84375 
Q 23.34375 6.203125 30.609375 6.203125 
Q 37.796875 6.203125 41.984375 11.859375 
Q 46.1875 17.53125 46.1875 27.296875 
Q 46.1875 37.015625 41.984375 42.703125 
Q 37.796875 48.390625 30.609375 48.390625 
z
M 30.609375 56 
Q 42.328125 56 49.015625 48.375 
Q 55.71875 40.765625 55.71875 27.296875 
Q 55.71875 13.875 49.015625 6.21875 
Q 42.328125 -1.421875 30.609375 -1.421875 
Q 18.84375 -1.421875 12.171875 6.21875 
Q 5.515625 13.875 5.515625 27.296875 
Q 5.515625 40.765625 12.171875 48.375 
Q 18.84375 56 30.609375 56 
z
" id="DejaVuSans-6f"/>
      <path d="M 56.203125 29.59375 
L 56.203125 25.203125 
L 14.890625 25.203125 
Q 15.484375 15.921875 20.484375 11.0625 
Q 25.484375 6.203125 34.421875 6.203125 
Q 39.59375 6.203125 44.453125 7.46875 
Q 49.3125 8.734375 54.109375 11.28125 
L 54.109375 2.78125 
Q 49.265625 0.734375 44.1875 -0.34375 
Q 39.109375 -1.421875 33.890625 -1.421875 
Q 20.796875 -1.421875 13.15625 6.1875 
Q 5.515625 13.8125 5.515625 26.8125 
Q 5.515625 40.234375 12.765625 48.109375 
Q 20.015625 56 32.328125 56 
Q 43.359375 56 49.78125 48.890625 
Q 56.203125 41.796875 56.203125 29.59375 
z
M 47.21875 32.234375 
Q 47.125 39.59375 43.09375 43.984375 
Q 39.0625 48.390625 32.421875 48.390625 
Q 24.90625 48.390625 20.390625 44.140625 
Q 15.875 39.890625 15.1875 32.171875 
z
" id="DejaVuSans-65"/>
     </defs>
     <g transform="translate(31.795312 193.1905)rotate(-90)scale(0.1 -0.1)">
      <use xlink:href="#DejaVuSans-56"/>
      <use x="68.298828" xlink:href="#DejaVuSans-61"/>
      <use x="129.578125" xlink:href="#DejaVuSans-6c"/>
      <use x="157.361328" xlink:href="#DejaVuSans-6f"/>
      <use x="218.542969" xlink:href="#DejaVuSans-72"/>
      <use x="259.625" xlink:href="#DejaVuSans-65"/>
      <use x="321.148438" xlink:href="#DejaVuSans-73"/>
     </g>
    </g>
   </g>
   <g id="patch_3">
    <path d="M 57.6 307.584 
L 57.6 41.472 
" style="fill:none;stroke:#000000;stroke-linecap:square;stroke-linejoin:miter;stroke-width:0.8;"/>
   </g>
   <g id="patch_4">
    <path d="M 414.72 307.584 
L 414.72 41.472 
" style="fill:none;stroke:#000000;stroke-linecap:square;stroke-linejoin:miter;stroke-width:0.8;"/>
   </g>
   <g id="patch_5">
    <path d="M 57.6 307.584 
L 414.72 307.584 
" style="fill:none;stroke:#000000;stroke-linecap:square;stroke-linejoin:miter;stroke-width:0.8;"/>
   </g>
   <g id="patch_6">
    <path d="M 57.6 41.472 
L 414.72 41.472 
" style="fill:none;stroke:#000000;stroke-linecap:square;stroke-linejoin:miter;stroke-width:0.8;"/>
   </g>
   <g id="text_17">
    <!-- Grafico resultados deseados vs obtenidos -->
    <defs>
     <path d="M 59.515625 10.40625 
L 59.515625 29.984375 
L 43.40625 29.984375 
L 43.40625 38.09375 
L 69.28125 38.09375 
L 69.28125 6.78125 
Q 63.578125 2.734375 56.6875 0.65625 
Q 49.8125 -1.421875 42 -1.421875 
Q 24.90625 -1.421875 15.25 8.5625 
Q 5.609375 18.5625 5.609375 36.375 
Q 5.609375 54.25 15.25 64.234375 
Q 24.90625 74.21875 42 74.21875 
Q 49.125 74.21875 55.546875 72.453125 
Q 61.96875 70.703125 67.390625 67.28125 
L 67.390625 56.78125 
Q 61.921875 61.421875 55.765625 63.765625 
Q 49.609375 66.109375 42.828125 66.109375 
Q 29.4375 66.109375 22.71875 58.640625 
Q 16.015625 51.171875 16.015625 36.375 
Q 16.015625 21.625 22.71875 14.15625 
Q 29.4375 6.6875 42.828125 6.6875 
Q 48.046875 6.6875 52.140625 7.59375 
Q 56.25 8.5 59.515625 10.40625 
z
" id="DejaVuSans-47"/>
     <path d="M 37.109375 75.984375 
L 37.109375 68.5 
L 28.515625 68.5 
Q 23.6875 68.5 21.796875 66.546875 
Q 19.921875 64.59375 19.921875 59.515625 
L 19.921875 54.6875 
L 34.71875 54.6875 
L 34.71875 47.703125 
L 19.921875 47.703125 
L 19.921875 0 
L 10.890625 0 
L 10.890625 47.703125 
L 2.296875 47.703125 
L 2.296875 54.6875 
L 10.890625 54.6875 
L 10.890625 58.5 
Q 10.890625 67.625 15.140625 71.796875 
Q 19.390625 75.984375 28.609375 75.984375 
z
" id="DejaVuSans-66"/>
     <path d="M 48.78125 52.59375 
L 48.78125 44.1875 
Q 44.96875 46.296875 41.140625 47.34375 
Q 37.3125 48.390625 33.40625 48.390625 
Q 24.65625 48.390625 19.8125 42.84375 
Q 14.984375 37.3125 14.984375 27.296875 
Q 14.984375 17.28125 19.8125 11.734375 
Q 24.65625 6.203125 33.40625 6.203125 
Q 37.3125 6.203125 41.140625 7.25 
Q 44.96875 8.296875 48.78125 10.40625 
L 48.78125 2.09375 
Q 45.015625 0.34375 40.984375 -0.53125 
Q 36.96875 -1.421875 32.421875 -1.421875 
Q 20.0625 -1.421875 12.78125 6.34375 
Q 5.515625 14.109375 5.515625 27.296875 
Q 5.515625 40.671875 12.859375 48.328125 
Q 20.21875 56 33.015625 56 
Q 37.15625 56 41.109375 55.140625 
Q 45.0625 54.296875 48.78125 52.59375 
z
" id="DejaVuSans-63"/>
     <path id="DejaVuSans-20"/>
     <path d="M 8.5 21.578125 
L 8.5 54.6875 
L 17.484375 54.6875 
L 17.484375 21.921875 
Q 17.484375 14.15625 20.5 10.265625 
Q 23.53125 6.390625 29.59375 6.390625 
Q 36.859375 6.390625 41.078125 11.03125 
Q 45.3125 15.671875 45.3125 23.6875 
L 45.3125 54.6875 
L 54.296875 54.6875 
L 54.296875 0 
L 45.3125 0 
L 45.3125 8.40625 
Q 42.046875 3.421875 37.71875 1 
Q 33.40625 -1.421875 27.6875 -1.421875 
Q 18.265625 -1.421875 13.375 4.4375 
Q 8.5 10.296875 8.5 21.578125 
z
M 31.109375 56 
z
" id="DejaVuSans-75"/>
     <path d="M 18.3125 70.21875 
L 18.3125 54.6875 
L 36.8125 54.6875 
L 36.8125 47.703125 
L 18.3125 47.703125 
L 18.3125 18.015625 
Q 18.3125 11.328125 20.140625 9.421875 
Q 21.96875 7.515625 27.59375 7.515625 
L 36.8125 7.515625 
L 36.8125 0 
L 27.59375 0 
Q 17.1875 0 13.234375 3.875 
Q 9.28125 7.765625 9.28125 18.015625 
L 9.28125 47.703125 
L 2.6875 47.703125 
L 2.6875 54.6875 
L 9.28125 54.6875 
L 9.28125 70.21875 
z
" id="DejaVuSans-74"/>
     <path d="M 2.984375 54.6875 
L 12.5 54.6875 
L 29.59375 8.796875 
L 46.6875 54.6875 
L 56.203125 54.6875 
L 35.6875 0 
L 23.484375 0 
z
" id="DejaVuSans-76"/>
     <path d="M 48.6875 27.296875 
Q 48.6875 37.203125 44.609375 42.84375 
Q 40.53125 48.484375 33.40625 48.484375 
Q 26.265625 48.484375 22.1875 42.84375 
Q 18.109375 37.203125 18.109375 27.296875 
Q 18.109375 17.390625 22.1875 11.75 
Q 26.265625 6.109375 33.40625 6.109375 
Q 40.53125 6.109375 44.609375 11.75 
Q 48.6875 17.390625 48.6875 27.296875 
z
M 18.109375 46.390625 
Q 20.953125 51.265625 25.265625 53.625 
Q 29.59375 56 35.59375 56 
Q 45.5625 56 51.78125 48.09375 
Q 58.015625 40.1875 58.015625 27.296875 
Q 58.015625 14.40625 51.78125 6.484375 
Q 45.5625 -1.421875 35.59375 -1.421875 
Q 29.59375 -1.421875 25.265625 0.953125 
Q 20.953125 3.328125 18.109375 8.203125 
L 18.109375 0 
L 9.078125 0 
L 9.078125 75.984375 
L 18.109375 75.984375 
z
" id="DejaVuSans-62"/>
     <path d="M 54.890625 33.015625 
L 54.890625 0 
L 45.90625 0 
L 45.90625 32.71875 
Q 45.90625 40.484375 42.875 44.328125 
Q 39.84375 48.1875 33.796875 48.1875 
Q 26.515625 48.1875 22.3125 43.546875 
Q 18.109375 38.921875 18.109375 30.90625 
L 18.109375 0 
L 9.078125 0 
L 9.078125 54.6875 
L 18.109375 54.6875 
L 18.109375 46.1875 
Q 21.34375 51.125 25.703125 53.5625 
Q 30.078125 56 35.796875 56 
Q 45.21875 56 50.046875 50.171875 
Q 54.890625 44.34375 54.890625 33.015625 
z
" id="DejaVuSans-6e"/>
    </defs>
    <g transform="translate(110.72625 35.472)scale(0.12 -0.12)">
     <use xlink:href="#DejaVuSans-47"/>
     <use x="77.490234" xlink:href="#DejaVuSans-72"/>
     <use x="118.603516" xlink:href="#DejaVuSans-61"/>
     <use x="179.882812" xlink:href="#DejaVuSans-66"/>
     <use x="215.087891" xlink:href="#DejaVuSans-69"/>
     <use x="242.871094" xlink:href="#DejaVuSans-63"/>
     <use x="297.851562" xlink:href="#DejaVuSans-6f"/>
     <use x="359.033203" xlink:href="#DejaVuSans-20"/>
     <use x="390.820312" xlink:href="#DejaVuSans-72"/>
     <use x="431.902344" xlink:href="#DejaVuSans-65"/>
     <use x="493.425781" xlink:href="#DejaVuSans-73"/>
     <use x="545.525391" xlink:href="#DejaVuSans-75"/>
     <use x="608.904297" xlink:href="#DejaVuSans-6c"/>
     <use x="636.6875" xlink:href="#DejaVuSans-74"/>
     <use x="675.896484" xlink:href="#DejaVuSans-61"/>
     <use x="737.175781" xlink:href="#DejaVuSans-64"/>
     <use x="800.652344" xlink:href="#DejaVuSans-6f"/>
     <use x="861.833984" xlink:href="#DejaVuSans-73"/>
     <use x="913.933594" xlink:href="#DejaVuSans-20"/>
     <use x="945.720703" xlink:href="#DejaVuSans-64"/>
     <use x="1009.197266" xlink:href="#DejaVuSans-65"/>
     <use x="1070.720703" xlink:href="#DejaVuSans-73"/>
     <use x="1122.820312" xlink:href="#DejaVuSans-65"/>
     <use x="1184.34375" xlink:href="#DejaVuSans-61"/>
     <use x="1245.623047" xlink:href="#DejaVuSans-64"/>
     <use x="1309.099609" xlink:href="#DejaVuSans-6f"/>
     <use x="1370.28125" xlink:href="#DejaVuSans-73"/>
     <use x="1422.380859" xlink:href="#DejaVuSans-20"/>
     <use x="1454.167969" xlink:href="#DejaVuSans-76"/>
     <use x="1513.347656" xlink:href="#DejaVuSans-73"/>
     <use x="1565.447266" xlink:href="#DejaVuSans-20"/>
     <use x="1597.234375" xlink:href="#DejaVuSans-6f"/>
     <use x="1658.416016" xlink:href="#DejaVuSans-62"/>
     <use x="1721.892578" xlink:href="#DejaVuSans-74"/>
     <use x="1761.101562" xlink:href="#DejaVuSans-65"/>
     <use x="1822.625" xlink:href="#DejaVuSans-6e"/>
     <use x="1886.003906" xlink:href="#DejaVuSans-69"/>
     <use x="1913.787109" xlink:href="#DejaVuSans-64"/>
     <use x="1977.263672" xlink:href="#DejaVuSans-6f"/>
     <use x="2038.445312" xlink:href="#DejaVuSans-73"/>
    </g>
   </g>
   <g id="legend_1">
    <g id="patch_7">
     <path d="M 278.4825 302.584 
L 407.72 302.584 
Q 409.72 302.584 409.72 300.584 
L 409.72 272.22775 
Q 409.72 270.22775 407.72 270.22775 
L 278.4825 270.22775 
Q 276.4825 270.22775 276.4825 272.22775 
L 276.4825 300.584 
Q 276.4825 302.584 278.4825 302.584 
z
" style="fill:#ffffff;opacity:0.8;stroke:#cccccc;stroke-linejoin:miter;"/>
    </g>
    <g id="PathCollection_3">
     <g>
      <use style="fill:#ff0000;stroke:#ff0000;" x="290.4825" xlink:href="#m7aca6f1fb7" y="279.201187"/>
     </g>
    </g>
    <g id="text_18">
     <!-- Resultado deseado -->
     <defs>
      <path d="M 44.390625 34.1875 
Q 47.5625 33.109375 50.5625 29.59375 
Q 53.5625 26.078125 56.59375 19.921875 
L 66.609375 0 
L 56 0 
L 46.6875 18.703125 
Q 43.0625 26.03125 39.671875 28.421875 
Q 36.28125 30.8125 30.421875 30.8125 
L 19.671875 30.8125 
L 19.671875 0 
L 9.8125 0 
L 9.8125 72.90625 
L 32.078125 72.90625 
Q 44.578125 72.90625 50.734375 67.671875 
Q 56.890625 62.453125 56.890625 51.90625 
Q 56.890625 45.015625 53.6875 40.46875 
Q 50.484375 35.9375 44.390625 34.1875 
z
M 19.671875 64.796875 
L 19.671875 38.921875 
L 32.078125 38.921875 
Q 39.203125 38.921875 42.84375 42.21875 
Q 46.484375 45.515625 46.484375 51.90625 
Q 46.484375 58.296875 42.84375 61.546875 
Q 39.203125 64.796875 32.078125 64.796875 
z
" id="DejaVuSans-52"/>
     </defs>
     <g transform="translate(308.4825 281.826187)scale(0.1 -0.1)">
      <use xlink:href="#DejaVuSans-52"/>
      <use x="69.419922" xlink:href="#DejaVuSans-65"/>
      <use x="130.943359" xlink:href="#DejaVuSans-73"/>
      <use x="183.042969" xlink:href="#DejaVuSans-75"/>
      <use x="246.421875" xlink:href="#DejaVuSans-6c"/>
      <use x="274.205078" xlink:href="#DejaVuSans-74"/>
      <use x="313.414062" xlink:href="#DejaVuSans-61"/>
      <use x="374.693359" xlink:href="#DejaVuSans-64"/>
      <use x="438.169922" xlink:href="#DejaVuSans-6f"/>
      <use x="499.351562" xlink:href="#DejaVuSans-20"/>
      <use x="531.138672" xlink:href="#DejaVuSans-64"/>
      <use x="594.615234" xlink:href="#DejaVuSans-65"/>
      <use x="656.138672" xlink:href="#DejaVuSans-73"/>
      <use x="708.238281" xlink:href="#DejaVuSans-65"/>
      <use x="769.761719" xlink:href="#DejaVuSans-61"/>
      <use x="831.041016" xlink:href="#DejaVuSans-64"/>
      <use x="894.517578" xlink:href="#DejaVuSans-6f"/>
     </g>
    </g>
    <g id="PathCollection_4">
     <g>
      <use style="fill:#008000;stroke:#008000;" x="290.4825" xlink:href="#m5515614e38" y="293.879312"/>
     </g>
    </g>
    <g id="text_19">
     <!-- Resultado obtenido -->
     <g transform="translate(308.4825 296.504312)scale(0.1 -0.1)">
      <use xlink:href="#DejaVuSans-52"/>
      <use x="69.419922" xlink:href="#DejaVuSans-65"/>
      <use x="130.943359" xlink:href="#DejaVuSans-73"/>
      <use x="183.042969" xlink:href="#DejaVuSans-75"/>
      <use x="246.421875" xlink:href="#DejaVuSans-6c"/>
      <use x="274.205078" xlink:href="#DejaVuSans-74"/>
      <use x="313.414062" xlink:href="#DejaVuSans-61"/>
      <use x="374.693359" xlink:href="#DejaVuSans-64"/>
      <use x="438.169922" xlink:href="#DejaVuSans-6f"/>
      <use x="499.351562" xlink:href="#DejaVuSans-20"/>
      <use x="531.138672" xlink:href="#DejaVuSans-6f"/>
      <use x="592.320312" xlink:href="#DejaVuSans-62"/>
      <use x="655.796875" xlink:href="#DejaVuSans-74"/>
      <use x="695.005859" xlink:href="#DejaVuSans-65"/>
      <use x="756.529297" xlink:href="#DejaVuSans-6e"/>
      <use x="819.908203" xlink:href="#DejaVuSans-69"/>
      <use x="847.691406" xlink:href="#DejaVuSans-64"/>
      <use x="911.167969" xlink:href="#DejaVuSans-6f"/>
     </g>
    </g>
   </g>
  </g>
 </g>
 <defs>
  <clipPath id="pfc526050d4">
   <rect height="266.112" width="357.12" x="57.6" y="41.472"/>
  </clipPath>
 </defs>
</svg>
