<?xml version="1.0" encoding="utf-8" standalone="no"?>
<!DOCTYPE svg PUBLIC "-//W3C//DTD SVG 1.1//EN"
  "http://www.w3.org/Graphics/SVG/1.1/DTD/svg11.dtd">
<!-- Created with matplotlib (http://matplotlib.org/) -->
<svg height="345.6pt" version="1.1" viewBox="0 0 460.8 345.6" width="460.8pt" xmlns="http://www.w3.org/2000/svg" xmlns:xlink="http://www.w3.org/1999/xlink">
 <defs>
  <style type="text/css">
*{stroke-linecap:butt;stroke-linejoin:round;}
  </style>
 </defs>
 <g id="figure_1">
  <g id="patch_1">
   <path d="M 0 345.6 
L 460.8 345.6 
L 460.8 0 
L 0 0 
z
" style="fill:#ffffff;"/>
  </g>
  <g id="axes_1">
   <g id="patch_2">
    <path d="M 57.6 307.584 
L 414.72 307.584 
L 414.72 41.472 
L 57.6 41.472 
z
" style="fill:#ffffff;"/>
   </g>
   <g id="matplotlib.axis_1">
    <g id="xtick_1">
     <g id="line2d_1">
      <defs>
       <path d="M 0 0 
L 0 3.5 
" id="mc527c27c2d" style="stroke:#000000;stroke-width:0.8;"/>
      </defs>
      <g>
       <use style="stroke:#000000;stroke-width:0.8;" x="128.451463" xlink:href="#mc527c27c2d" y="307.584"/>
      </g>
     </g>
     <g id="text_1">
      <!-- 100 -->
      <defs>
       <path d="M 12.40625 8.296875 
L 28.515625 8.296875 
L 28.515625 63.921875 
L 10.984375 60.40625 
L 10.984375 69.390625 
L 28.421875 72.90625 
L 38.28125 72.90625 
L 38.28125 8.296875 
L 54.390625 8.296875 
L 54.390625 0 
L 12.40625 0 
z
" id="DejaVuSans-31"/>
       <path d="M 31.78125 66.40625 
Q 24.171875 66.40625 20.328125 58.90625 
Q 16.5 51.421875 16.5 36.375 
Q 16.5 21.390625 20.328125 13.890625 
Q 24.171875 6.390625 31.78125 6.390625 
Q 39.453125 6.390625 43.28125 13.890625 
Q 47.125 21.390625 47.125 36.375 
Q 47.125 51.421875 43.28125 58.90625 
Q 39.453125 66.40625 31.78125 66.40625 
z
M 31.78125 74.21875 
Q 44.046875 74.21875 50.515625 64.515625 
Q 56.984375 54.828125 56.984375 36.375 
Q 56.984375 17.96875 50.515625 8.265625 
Q 44.046875 -1.421875 31.78125 -1.421875 
Q 19.53125 -1.421875 13.0625 8.265625 
Q 6.59375 17.96875 6.59375 36.375 
Q 6.59375 54.828125 13.0625 64.515625 
Q 19.53125 74.21875 31.78125 74.21875 
z
" id="DejaVuSans-30"/>
      </defs>
      <g transform="translate(118.907713 322.182437)scale(0.1 -0.1)">
       <use xlink:href="#DejaVuSans-31"/>
       <use x="63.623047" xlink:href="#DejaVuSans-30"/>
       <use x="127.246094" xlink:href="#DejaVuSans-30"/>
      </g>
     </g>
    </g>
    <g id="xtick_2">
     <g id="line2d_2">
      <g>
       <use style="stroke:#000000;stroke-width:0.8;" x="200.018597" xlink:href="#mc527c27c2d" y="307.584"/>
      </g>
     </g>
     <g id="text_2">
      <!-- 200 -->
      <defs>
       <path d="M 19.1875 8.296875 
L 53.609375 8.296875 
L 53.609375 0 
L 7.328125 0 
L 7.328125 8.296875 
Q 12.9375 14.109375 22.625 23.890625 
Q 32.328125 33.6875 34.8125 36.53125 
Q 39.546875 41.84375 41.421875 45.53125 
Q 43.3125 49.21875 43.3125 52.78125 
Q 43.3125 58.59375 39.234375 62.25 
Q 35.15625 65.921875 28.609375 65.921875 
Q 23.96875 65.921875 18.8125 64.3125 
Q 13.671875 62.703125 7.8125 59.421875 
L 7.8125 69.390625 
Q 13.765625 71.78125 18.9375 73 
Q 24.125 74.21875 28.421875 74.21875 
Q 39.75 74.21875 46.484375 68.546875 
Q 53.21875 62.890625 53.21875 53.421875 
Q 53.21875 48.921875 51.53125 44.890625 
Q 49.859375 40.875 45.40625 35.40625 
Q 44.1875 33.984375 37.640625 27.21875 
Q 31.109375 20.453125 19.1875 8.296875 
z
" id="DejaVuSans-32"/>
      </defs>
      <g transform="translate(190.474847 322.182437)scale(0.1 -0.1)">
       <use xlink:href="#DejaVuSans-32"/>
       <use x="63.623047" xlink:href="#DejaVuSans-30"/>
       <use x="127.246094" xlink:href="#DejaVuSans-30"/>
      </g>
     </g>
    </g>
    <g id="xtick_3">
     <g id="line2d_3">
      <g>
       <use style="stroke:#000000;stroke-width:0.8;" x="271.585731" xlink:href="#mc527c27c2d" y="307.584"/>
      </g>
     </g>
     <g id="text_3">
      <!-- 300 -->
      <defs>
       <path d="M 40.578125 39.3125 
Q 47.65625 37.796875 51.625 33 
Q 55.609375 28.21875 55.609375 21.1875 
Q 55.609375 10.40625 48.1875 4.484375 
Q 40.765625 -1.421875 27.09375 -1.421875 
Q 22.515625 -1.421875 17.65625 -0.515625 
Q 12.796875 0.390625 7.625 2.203125 
L 7.625 11.71875 
Q 11.71875 9.328125 16.59375 8.109375 
Q 21.484375 6.890625 26.8125 6.890625 
Q 36.078125 6.890625 40.9375 10.546875 
Q 45.796875 14.203125 45.796875 21.1875 
Q 45.796875 27.640625 41.28125 31.265625 
Q 36.765625 34.90625 28.71875 34.90625 
L 20.21875 34.90625 
L 20.21875 43.015625 
L 29.109375 43.015625 
Q 36.375 43.015625 40.234375 45.921875 
Q 44.09375 48.828125 44.09375 54.296875 
Q 44.09375 59.90625 40.109375 62.90625 
Q 36.140625 65.921875 28.71875 65.921875 
Q 24.65625 65.921875 20.015625 65.03125 
Q 15.375 64.15625 9.8125 62.3125 
L 9.8125 71.09375 
Q 15.4375 72.65625 20.34375 73.4375 
Q 25.25 74.21875 29.59375 74.21875 
Q 40.828125 74.21875 47.359375 69.109375 
Q 53.90625 64.015625 53.90625 55.328125 
Q 53.90625 49.265625 50.4375 45.09375 
Q 46.96875 40.921875 40.578125 39.3125 
z
" id="DejaVuSans-33"/>
      </defs>
      <g transform="translate(262.041981 322.182437)scale(0.1 -0.1)">
       <use xlink:href="#DejaVuSans-33"/>
       <use x="63.623047" xlink:href="#DejaVuSans-30"/>
       <use x="127.246094" xlink:href="#DejaVuSans-30"/>
      </g>
     </g>
    </g>
    <g id="xtick_4">
     <g id="line2d_4">
      <g>
       <use style="stroke:#000000;stroke-width:0.8;" x="343.152866" xlink:href="#mc527c27c2d" y="307.584"/>
      </g>
     </g>
     <g id="text_4">
      <!-- 400 -->
      <defs>
       <path d="M 37.796875 64.3125 
L 12.890625 25.390625 
L 37.796875 25.390625 
z
M 35.203125 72.90625 
L 47.609375 72.90625 
L 47.609375 25.390625 
L 58.015625 25.390625 
L 58.015625 17.1875 
L 47.609375 17.1875 
L 47.609375 0 
L 37.796875 0 
L 37.796875 17.1875 
L 4.890625 17.1875 
L 4.890625 26.703125 
z
" id="DejaVuSans-34"/>
      </defs>
      <g transform="translate(333.609116 322.182437)scale(0.1 -0.1)">
       <use xlink:href="#DejaVuSans-34"/>
       <use x="63.623047" xlink:href="#DejaVuSans-30"/>
       <use x="127.246094" xlink:href="#DejaVuSans-30"/>
      </g>
     </g>
    </g>
    <g id="xtick_5">
     <g id="line2d_5">
      <g>
       <use style="stroke:#000000;stroke-width:0.8;" x="414.72" xlink:href="#mc527c27c2d" y="307.584"/>
      </g>
     </g>
     <g id="text_5">
      <!-- 500 -->
      <defs>
       <path d="M 10.796875 72.90625 
L 49.515625 72.90625 
L 49.515625 64.59375 
L 19.828125 64.59375 
L 19.828125 46.734375 
Q 21.96875 47.46875 24.109375 47.828125 
Q 26.265625 48.1875 28.421875 48.1875 
Q 40.625 48.1875 47.75 41.5 
Q 54.890625 34.8125 54.890625 23.390625 
Q 54.890625 11.625 47.5625 5.09375 
Q 40.234375 -1.421875 26.90625 -1.421875 
Q 22.3125 -1.421875 17.546875 -0.640625 
Q 12.796875 0.140625 7.71875 1.703125 
L 7.71875 11.625 
Q 12.109375 9.234375 16.796875 8.0625 
Q 21.484375 6.890625 26.703125 6.890625 
Q 35.15625 6.890625 40.078125 11.328125 
Q 45.015625 15.765625 45.015625 23.390625 
Q 45.015625 31 40.078125 35.4375 
Q 35.15625 39.890625 26.703125 39.890625 
Q 22.75 39.890625 18.8125 39.015625 
Q 14.890625 38.140625 10.796875 36.28125 
z
" id="DejaVuSans-35"/>
      </defs>
      <g transform="translate(405.17625 322.182437)scale(0.1 -0.1)">
       <use xlink:href="#DejaVuSans-35"/>
       <use x="63.623047" xlink:href="#DejaVuSans-30"/>
       <use x="127.246094" xlink:href="#DejaVuSans-30"/>
      </g>
     </g>
    </g>
    <g id="text_6">
     <!-- Tiradas -->
     <defs>
      <path d="M -0.296875 72.90625 
L 61.375 72.90625 
L 61.375 64.59375 
L 35.5 64.59375 
L 35.5 0 
L 25.59375 0 
L 25.59375 64.59375 
L -0.296875 64.59375 
z
" id="DejaVuSans-54"/>
      <path d="M 9.421875 54.6875 
L 18.40625 54.6875 
L 18.40625 0 
L 9.421875 0 
z
M 9.421875 75.984375 
L 18.40625 75.984375 
L 18.40625 64.59375 
L 9.421875 64.59375 
z
" id="DejaVuSans-69"/>
      <path d="M 41.109375 46.296875 
Q 39.59375 47.171875 37.8125 47.578125 
Q 36.03125 48 33.890625 48 
Q 26.265625 48 22.1875 43.046875 
Q 18.109375 38.09375 18.109375 28.8125 
L 18.109375 0 
L 9.078125 0 
L 9.078125 54.6875 
L 18.109375 54.6875 
L 18.109375 46.1875 
Q 20.953125 51.171875 25.484375 53.578125 
Q 30.03125 56 36.53125 56 
Q 37.453125 56 38.578125 55.875 
Q 39.703125 55.765625 41.0625 55.515625 
z
" id="DejaVuSans-72"/>
      <path d="M 34.28125 27.484375 
Q 23.390625 27.484375 19.1875 25 
Q 14.984375 22.515625 14.984375 16.5 
Q 14.984375 11.71875 18.140625 8.90625 
Q 21.296875 6.109375 26.703125 6.109375 
Q 34.1875 6.109375 38.703125 11.40625 
Q 43.21875 16.703125 43.21875 25.484375 
L 43.21875 27.484375 
z
M 52.203125 31.203125 
L 52.203125 0 
L 43.21875 0 
L 43.21875 8.296875 
Q 40.140625 3.328125 35.546875 0.953125 
Q 30.953125 -1.421875 24.3125 -1.421875 
Q 15.921875 -1.421875 10.953125 3.296875 
Q 6 8.015625 6 15.921875 
Q 6 25.140625 12.171875 29.828125 
Q 18.359375 34.515625 30.609375 34.515625 
L 43.21875 34.515625 
L 43.21875 35.40625 
Q 43.21875 41.609375 39.140625 45 
Q 35.0625 48.390625 27.6875 48.390625 
Q 23 48.390625 18.546875 47.265625 
Q 14.109375 46.140625 10.015625 43.890625 
L 10.015625 52.203125 
Q 14.9375 54.109375 19.578125 55.046875 
Q 24.21875 56 28.609375 56 
Q 40.484375 56 46.34375 49.84375 
Q 52.203125 43.703125 52.203125 31.203125 
z
" id="DejaVuSans-61"/>
      <path d="M 45.40625 46.390625 
L 45.40625 75.984375 
L 54.390625 75.984375 
L 54.390625 0 
L 45.40625 0 
L 45.40625 8.203125 
Q 42.578125 3.328125 38.25 0.953125 
Q 33.9375 -1.421875 27.875 -1.421875 
Q 17.96875 -1.421875 11.734375 6.484375 
Q 5.515625 14.40625 5.515625 27.296875 
Q 5.515625 40.1875 11.734375 48.09375 
Q 17.96875 56 27.875 56 
Q 33.9375 56 38.25 53.625 
Q 42.578125 51.265625 45.40625 46.390625 
z
M 14.796875 27.296875 
Q 14.796875 17.390625 18.875 11.75 
Q 22.953125 6.109375 30.078125 6.109375 
Q 37.203125 6.109375 41.296875 11.75 
Q 45.40625 17.390625 45.40625 27.296875 
Q 45.40625 37.203125 41.296875 42.84375 
Q 37.203125 48.484375 30.078125 48.484375 
Q 22.953125 48.484375 18.875 42.84375 
Q 14.796875 37.203125 14.796875 27.296875 
z
" id="DejaVuSans-64"/>
      <path d="M 44.28125 53.078125 
L 44.28125 44.578125 
Q 40.484375 46.53125 36.375 47.5 
Q 32.28125 48.484375 27.875 48.484375 
Q 21.1875 48.484375 17.84375 46.4375 
Q 14.5 44.390625 14.5 40.28125 
Q 14.5 37.15625 16.890625 35.375 
Q 19.28125 33.59375 26.515625 31.984375 
L 29.59375 31.296875 
Q 39.15625 29.25 43.1875 25.515625 
Q 47.21875 21.78125 47.21875 15.09375 
Q 47.21875 7.46875 41.1875 3.015625 
Q 35.15625 -1.421875 24.609375 -1.421875 
Q 20.21875 -1.421875 15.453125 -0.5625 
Q 10.6875 0.296875 5.421875 2 
L 5.421875 11.28125 
Q 10.40625 8.6875 15.234375 7.390625 
Q 20.0625 6.109375 24.8125 6.109375 
Q 31.15625 6.109375 34.5625 8.28125 
Q 37.984375 10.453125 37.984375 14.40625 
Q 37.984375 18.0625 35.515625 20.015625 
Q 33.0625 21.96875 24.703125 23.78125 
L 21.578125 24.515625 
Q 13.234375 26.265625 9.515625 29.90625 
Q 5.8125 33.546875 5.8125 39.890625 
Q 5.8125 47.609375 11.28125 51.796875 
Q 16.75 56 26.8125 56 
Q 31.78125 56 36.171875 55.265625 
Q 40.578125 54.546875 44.28125 53.078125 
z
" id="DejaVuSans-73"/>
     </defs>
     <g transform="translate(217.756875 335.860562)scale(0.1 -0.1)">
      <use xlink:href="#DejaVuSans-54"/>
      <use x="61.037109" xlink:href="#DejaVuSans-69"/>
      <use x="88.820312" xlink:href="#DejaVuSans-72"/>
      <use x="129.933594" xlink:href="#DejaVuSans-61"/>
      <use x="191.212891" xlink:href="#DejaVuSans-64"/>
      <use x="254.689453" xlink:href="#DejaVuSans-61"/>
      <use x="315.96875" xlink:href="#DejaVuSans-73"/>
     </g>
    </g>
   </g>
   <g id="matplotlib.axis_2">
    <g id="ytick_1">
     <g id="line2d_6">
      <defs>
       <path d="M 0 0 
L -3.5 0 
" id="ma5dd976233" style="stroke:#000000;stroke-width:0.8;"/>
      </defs>
      <g>
       <use style="stroke:#000000;stroke-width:0.8;" x="57.6" xlink:href="#ma5dd976233" y="295.488"/>
      </g>
     </g>
     <g id="text_7">
      <!-- 0 -->
      <g transform="translate(44.2375 299.287219)scale(0.1 -0.1)">
       <use xlink:href="#DejaVuSans-30"/>
      </g>
     </g>
    </g>
    <g id="ytick_2">
     <g id="line2d_7">
      <g>
       <use style="stroke:#000000;stroke-width:0.8;" x="57.6" xlink:href="#ma5dd976233" y="261.698445"/>
      </g>
     </g>
     <g id="text_8">
      <!-- 2 -->
      <g transform="translate(44.2375 265.497664)scale(0.1 -0.1)">
       <use xlink:href="#DejaVuSans-32"/>
      </g>
     </g>
    </g>
    <g id="ytick_3">
     <g id="line2d_8">
      <g>
       <use style="stroke:#000000;stroke-width:0.8;" x="57.6" xlink:href="#ma5dd976233" y="227.90889"/>
      </g>
     </g>
     <g id="text_9">
      <!-- 4 -->
      <g transform="translate(44.2375 231.708109)scale(0.1 -0.1)">
       <use xlink:href="#DejaVuSans-34"/>
      </g>
     </g>
    </g>
    <g id="ytick_4">
     <g id="line2d_9">
      <g>
       <use style="stroke:#000000;stroke-width:0.8;" x="57.6" xlink:href="#ma5dd976233" y="194.119335"/>
      </g>
     </g>
     <g id="text_10">
      <!-- 6 -->
      <defs>
       <path d="M 33.015625 40.375 
Q 26.375 40.375 22.484375 35.828125 
Q 18.609375 31.296875 18.609375 23.390625 
Q 18.609375 15.53125 22.484375 10.953125 
Q 26.375 6.390625 33.015625 6.390625 
Q 39.65625 6.390625 43.53125 10.953125 
Q 47.40625 15.53125 47.40625 23.390625 
Q 47.40625 31.296875 43.53125 35.828125 
Q 39.65625 40.375 33.015625 40.375 
z
M 52.59375 71.296875 
L 52.59375 62.3125 
Q 48.875 64.0625 45.09375 64.984375 
Q 41.3125 65.921875 37.59375 65.921875 
Q 27.828125 65.921875 22.671875 59.328125 
Q 17.53125 52.734375 16.796875 39.40625 
Q 19.671875 43.65625 24.015625 45.921875 
Q 28.375 48.1875 33.59375 48.1875 
Q 44.578125 48.1875 50.953125 41.515625 
Q 57.328125 34.859375 57.328125 23.390625 
Q 57.328125 12.15625 50.6875 5.359375 
Q 44.046875 -1.421875 33.015625 -1.421875 
Q 20.359375 -1.421875 13.671875 8.265625 
Q 6.984375 17.96875 6.984375 36.375 
Q 6.984375 53.65625 15.1875 63.9375 
Q 23.390625 74.21875 37.203125 74.21875 
Q 40.921875 74.21875 44.703125 73.484375 
Q 48.484375 72.75 52.59375 71.296875 
z
" id="DejaVuSans-36"/>
      </defs>
      <g transform="translate(44.2375 197.918554)scale(0.1 -0.1)">
       <use xlink:href="#DejaVuSans-36"/>
      </g>
     </g>
    </g>
    <g id="ytick_5">
     <g id="line2d_10">
      <g>
       <use style="stroke:#000000;stroke-width:0.8;" x="57.6" xlink:href="#ma5dd976233" y="160.32978"/>
      </g>
     </g>
     <g id="text_11">
      <!-- 8 -->
      <defs>
       <path d="M 31.78125 34.625 
Q 24.75 34.625 20.71875 30.859375 
Q 16.703125 27.09375 16.703125 20.515625 
Q 16.703125 13.921875 20.71875 10.15625 
Q 24.75 6.390625 31.78125 6.390625 
Q 38.8125 6.390625 42.859375 10.171875 
Q 46.921875 13.96875 46.921875 20.515625 
Q 46.921875 27.09375 42.890625 30.859375 
Q 38.875 34.625 31.78125 34.625 
z
M 21.921875 38.8125 
Q 15.578125 40.375 12.03125 44.71875 
Q 8.5 49.078125 8.5 55.328125 
Q 8.5 64.0625 14.71875 69.140625 
Q 20.953125 74.21875 31.78125 74.21875 
Q 42.671875 74.21875 48.875 69.140625 
Q 55.078125 64.0625 55.078125 55.328125 
Q 55.078125 49.078125 51.53125 44.71875 
Q 48 40.375 41.703125 38.8125 
Q 48.828125 37.15625 52.796875 32.3125 
Q 56.78125 27.484375 56.78125 20.515625 
Q 56.78125 9.90625 50.3125 4.234375 
Q 43.84375 -1.421875 31.78125 -1.421875 
Q 19.734375 -1.421875 13.25 4.234375 
Q 6.78125 9.90625 6.78125 20.515625 
Q 6.78125 27.484375 10.78125 32.3125 
Q 14.796875 37.15625 21.921875 38.8125 
z
M 18.3125 54.390625 
Q 18.3125 48.734375 21.84375 45.5625 
Q 25.390625 42.390625 31.78125 42.390625 
Q 38.140625 42.390625 41.71875 45.5625 
Q 45.3125 48.734375 45.3125 54.390625 
Q 45.3125 60.0625 41.71875 63.234375 
Q 38.140625 66.40625 31.78125 66.40625 
Q 25.390625 66.40625 21.84375 63.234375 
Q 18.3125 60.0625 18.3125 54.390625 
z
" id="DejaVuSans-38"/>
      </defs>
      <g transform="translate(44.2375 164.128999)scale(0.1 -0.1)">
       <use xlink:href="#DejaVuSans-38"/>
      </g>
     </g>
    </g>
    <g id="ytick_6">
     <g id="line2d_11">
      <g>
       <use style="stroke:#000000;stroke-width:0.8;" x="57.6" xlink:href="#ma5dd976233" y="126.540225"/>
      </g>
     </g>
     <g id="text_12">
      <!-- 10 -->
      <g transform="translate(37.875 130.339444)scale(0.1 -0.1)">
       <use xlink:href="#DejaVuSans-31"/>
       <use x="63.623047" xlink:href="#DejaVuSans-30"/>
      </g>
     </g>
    </g>
    <g id="ytick_7">
     <g id="line2d_12">
      <g>
       <use style="stroke:#000000;stroke-width:0.8;" x="57.6" xlink:href="#ma5dd976233" y="92.75067"/>
      </g>
     </g>
     <g id="text_13">
      <!-- 12 -->
      <g transform="translate(37.875 96.549888)scale(0.1 -0.1)">
       <use xlink:href="#DejaVuSans-31"/>
       <use x="63.623047" xlink:href="#DejaVuSans-32"/>
      </g>
     </g>
    </g>
    <g id="ytick_8">
     <g id="line2d_13">
      <g>
       <use style="stroke:#000000;stroke-width:0.8;" x="57.6" xlink:href="#ma5dd976233" y="58.961115"/>
      </g>
     </g>
     <g id="text_14">
      <!-- 14 -->
      <g transform="translate(37.875 62.760333)scale(0.1 -0.1)">
       <use xlink:href="#DejaVuSans-31"/>
       <use x="63.623047" xlink:href="#DejaVuSans-34"/>
      </g>
     </g>
    </g>
    <g id="text_15">
     <!-- Valor del desvio estandar -->
     <defs>
      <path d="M 28.609375 0 
L 0.78125 72.90625 
L 11.078125 72.90625 
L 34.1875 11.53125 
L 57.328125 72.90625 
L 67.578125 72.90625 
L 39.796875 0 
z
" id="DejaVuSans-56"/>
      <path d="M 9.421875 75.984375 
L 18.40625 75.984375 
L 18.40625 0 
L 9.421875 0 
z
" id="DejaVuSans-6c"/>
      <path d="M 30.609375 48.390625 
Q 23.390625 48.390625 19.1875 42.75 
Q 14.984375 37.109375 14.984375 27.296875 
Q 14.984375 17.484375 19.15625 11.84375 
Q 23.34375 6.203125 30.609375 6.203125 
Q 37.796875 6.203125 41.984375 11.859375 
Q 46.1875 17.53125 46.1875 27.296875 
Q 46.1875 37.015625 41.984375 42.703125 
Q 37.796875 48.390625 30.609375 48.390625 
z
M 30.609375 56 
Q 42.328125 56 49.015625 48.375 
Q 55.71875 40.765625 55.71875 27.296875 
Q 55.71875 13.875 49.015625 6.21875 
Q 42.328125 -1.421875 30.609375 -1.421875 
Q 18.84375 -1.421875 12.171875 6.21875 
Q 5.515625 13.875 5.515625 27.296875 
Q 5.515625 40.765625 12.171875 48.375 
Q 18.84375 56 30.609375 56 
z
" id="DejaVuSans-6f"/>
      <path id="DejaVuSans-20"/>
      <path d="M 56.203125 29.59375 
L 56.203125 25.203125 
L 14.890625 25.203125 
Q 15.484375 15.921875 20.484375 11.0625 
Q 25.484375 6.203125 34.421875 6.203125 
Q 39.59375 6.203125 44.453125 7.46875 
Q 49.3125 8.734375 54.109375 11.28125 
L 54.109375 2.78125 
Q 49.265625 0.734375 44.1875 -0.34375 
Q 39.109375 -1.421875 33.890625 -1.421875 
Q 20.796875 -1.421875 13.15625 6.1875 
Q 5.515625 13.8125 5.515625 26.8125 
Q 5.515625 40.234375 12.765625 48.109375 
Q 20.015625 56 32.328125 56 
Q 43.359375 56 49.78125 48.890625 
Q 56.203125 41.796875 56.203125 29.59375 
z
M 47.21875 32.234375 
Q 47.125 39.59375 43.09375 43.984375 
Q 39.0625 48.390625 32.421875 48.390625 
Q 24.90625 48.390625 20.390625 44.140625 
Q 15.875 39.890625 15.1875 32.171875 
z
" id="DejaVuSans-65"/>
      <path d="M 2.984375 54.6875 
L 12.5 54.6875 
L 29.59375 8.796875 
L 46.6875 54.6875 
L 56.203125 54.6875 
L 35.6875 0 
L 23.484375 0 
z
" id="DejaVuSans-76"/>
      <path d="M 18.3125 70.21875 
L 18.3125 54.6875 
L 36.8125 54.6875 
L 36.8125 47.703125 
L 18.3125 47.703125 
L 18.3125 18.015625 
Q 18.3125 11.328125 20.140625 9.421875 
Q 21.96875 7.515625 27.59375 7.515625 
L 36.8125 7.515625 
L 36.8125 0 
L 27.59375 0 
Q 17.1875 0 13.234375 3.875 
Q 9.28125 7.765625 9.28125 18.015625 
L 9.28125 47.703125 
L 2.6875 47.703125 
L 2.6875 54.6875 
L 9.28125 54.6875 
L 9.28125 70.21875 
z
" id="DejaVuSans-74"/>
      <path d="M 54.890625 33.015625 
L 54.890625 0 
L 45.90625 0 
L 45.90625 32.71875 
Q 45.90625 40.484375 42.875 44.328125 
Q 39.84375 48.1875 33.796875 48.1875 
Q 26.515625 48.1875 22.3125 43.546875 
Q 18.109375 38.921875 18.109375 30.90625 
L 18.109375 0 
L 9.078125 0 
L 9.078125 54.6875 
L 18.109375 54.6875 
L 18.109375 46.1875 
Q 21.34375 51.125 25.703125 53.5625 
Q 30.078125 56 35.796875 56 
Q 45.21875 56 50.046875 50.171875 
Q 54.890625 44.34375 54.890625 33.015625 
z
" id="DejaVuSans-6e"/>
     </defs>
     <g transform="translate(31.795312 238.349094)rotate(-90)scale(0.1 -0.1)">
      <use xlink:href="#DejaVuSans-56"/>
      <use x="68.298828" xlink:href="#DejaVuSans-61"/>
      <use x="129.578125" xlink:href="#DejaVuSans-6c"/>
      <use x="157.361328" xlink:href="#DejaVuSans-6f"/>
      <use x="218.542969" xlink:href="#DejaVuSans-72"/>
      <use x="259.65625" xlink:href="#DejaVuSans-20"/>
      <use x="291.443359" xlink:href="#DejaVuSans-64"/>
      <use x="354.919922" xlink:href="#DejaVuSans-65"/>
      <use x="416.443359" xlink:href="#DejaVuSans-6c"/>
      <use x="444.226562" xlink:href="#DejaVuSans-20"/>
      <use x="476.013672" xlink:href="#DejaVuSans-64"/>
      <use x="539.490234" xlink:href="#DejaVuSans-65"/>
      <use x="601.013672" xlink:href="#DejaVuSans-73"/>
      <use x="653.113281" xlink:href="#DejaVuSans-76"/>
      <use x="712.292969" xlink:href="#DejaVuSans-69"/>
      <use x="740.076172" xlink:href="#DejaVuSans-6f"/>
      <use x="801.257812" xlink:href="#DejaVuSans-20"/>
      <use x="833.044922" xlink:href="#DejaVuSans-65"/>
      <use x="894.568359" xlink:href="#DejaVuSans-73"/>
      <use x="946.667969" xlink:href="#DejaVuSans-74"/>
      <use x="985.876953" xlink:href="#DejaVuSans-61"/>
      <use x="1047.15625" xlink:href="#DejaVuSans-6e"/>
      <use x="1110.535156" xlink:href="#DejaVuSans-64"/>
      <use x="1174.011719" xlink:href="#DejaVuSans-61"/>
      <use x="1235.291016" xlink:href="#DejaVuSans-72"/>
     </g>
    </g>
   </g>
   <g id="line2d_14">
    <path clip-path="url(#pe16e768d05)" d="M 57.6 295.488 
L 58.315671 185.671946 
L 59.031343 203.639506 
L 59.747014 111.575329 
L 60.462685 86.811849 
L 61.178357 94.459078 
L 61.894028 99.292314 
L 62.609699 111.878705 
L 63.325371 121.161126 
L 64.041042 102.680168 
L 64.756713 111.219737 
L 65.472385 99.329843 
L 66.188056 105.204444 
L 67.619399 118.201031 
L 68.33507 121.087905 
L 69.050741 126.096516 
L 69.766413 129.271198 
L 70.482084 133.590314 
L 71.913427 126.169024 
L 72.629098 120.139193 
L 73.34477 118.437256 
L 74.060441 122.144921 
L 74.776112 124.391359 
L 76.923126 132.539439 
L 77.638798 133.969743 
L 78.354469 132.331133 
L 79.07014 134.723431 
L 79.785812 128.612814 
L 81.217154 133.246353 
L 81.932826 129.866414 
L 82.648497 132.153613 
L 83.364168 132.024714 
L 84.07984 134.157828 
L 84.795511 133.629019 
L 85.511182 134.766023 
L 86.942525 136.195907 
L 87.658196 131.774725 
L 88.373868 131.607866 
L 89.089539 132.751541 
L 89.80521 134.345113 
L 90.520882 130.72904 
L 91.236553 131.506016 
L 91.952224 131.724073 
L 92.667896 128.481095 
L 93.383567 129.808542 
L 94.81491 124.68947 
L 95.530581 125.67424 
L 96.246253 123.777548 
L 96.961924 124.404169 
L 97.677595 125.649733 
L 98.393267 126.45261 
L 99.108938 127.884145 
L 99.824609 128.318846 
L 100.540281 127.762377 
L 101.255952 128.688141 
L 101.971623 127.941376 
L 102.687295 128.820068 
L 103.402966 127.686963 
L 104.118637 125.494711 
L 104.834309 126.274724 
L 105.54998 127.346698 
L 106.265651 125.183726 
L 106.981323 125.546528 
L 107.696994 126.067992 
L 108.412665 127.014263 
L 109.128337 126.400787 
L 109.844008 125.421978 
L 110.559679 126.230246 
L 111.275351 126.529256 
L 111.991022 124.683989 
L 112.706693 125.152329 
L 113.422365 122.625419 
L 114.138036 123.651755 
L 115.569379 120.90204 
L 116.28505 119.668011 
L 117.000721 119.789446 
L 117.716393 119.294181 
L 118.432064 119.634155 
L 119.147735 119.420511 
L 119.863407 118.537205 
L 120.579078 118.192019 
L 121.294749 118.624114 
L 122.010421 118.07382 
L 122.726092 117.985271 
L 123.441764 118.233558 
L 124.157435 117.747276 
L 124.873106 118.291044 
L 125.588778 119.211297 
L 126.304449 119.800395 
L 127.735792 117.125743 
L 129.167134 118.868861 
L 129.882806 119.4342 
L 130.598477 120.285085 
L 132.02982 118.47169 
L 132.745491 119.02323 
L 133.461162 118.184087 
L 134.176834 117.901743 
L 136.323848 119.120324 
L 137.039519 118.25973 
L 137.75519 118.343916 
L 138.470862 119.122451 
L 139.186533 119.307705 
L 139.902204 120.008336 
L 140.617876 119.912559 
L 141.333547 119.670338 
L 142.049218 120.404936 
L 142.76489 119.170807 
L 143.480561 118.214219 
L 144.196232 118.431959 
L 144.911904 117.542365 
L 145.627575 117.999151 
L 146.343246 118.229656 
L 147.058918 118.860905 
L 147.774589 118.066314 
L 150.637275 120.277895 
L 151.352946 119.844224 
L 152.784289 120.556141 
L 154.215631 121.792969 
L 154.931303 121.03325 
L 155.646974 121.507021 
L 157.078317 122.648437 
L 157.793988 121.97792 
L 158.509659 122.572095 
L 159.225331 122.245817 
L 159.941002 122.619208 
L 160.656673 123.206771 
L 161.372345 122.115726 
L 162.088016 122.419671 
L 162.803687 121.384961 
L 163.519359 121.1833 
L 164.23503 119.830117 
L 164.950701 120.335853 
L 165.666373 119.042275 
L 167.097715 117.669476 
L 167.813387 117.421772 
L 168.529058 117.054957 
L 169.244729 117.254832 
L 169.960401 117.155478 
L 170.676072 117.511439 
L 171.391743 116.341887 
L 172.823086 117.339583 
L 173.538758 117.240085 
L 174.254429 117.72712 
L 174.9701 116.802514 
L 175.685772 117.011139 
L 176.401443 117.438761 
L 177.117114 117.686285 
L 178.548457 116.748933 
L 179.264128 116.526444 
L 180.695471 117.323679 
L 181.411142 117.835056 
L 182.126814 118.010269 
L 183.558156 117.496539 
L 184.989499 115.983185 
L 185.70517 116.02922 
L 186.420842 116.305256 
L 187.136513 116.265594 
L 187.852184 116.543766 
L 188.567856 117.030682 
L 189.283527 116.115579 
L 189.999198 116.257319 
L 190.71487 115.89462 
L 191.430541 116.222546 
L 192.146212 116.424812 
L 192.861884 116.746895 
L 193.577555 116.707285 
L 194.293226 116.96978 
L 195.008898 117.43286 
L 195.724569 117.194511 
L 196.44024 116.324553 
L 197.155912 116.296903 
L 197.871583 115.318628 
L 198.587255 114.970978 
L 199.302926 114.770038 
L 200.018597 114.36125 
L 200.734269 114.806069 
L 201.44994 114.668166 
L 202.165611 114.912971 
L 202.881283 114.582043 
L 203.596954 114.986975 
L 204.312625 114.771443 
L 205.743968 115.157032 
L 206.459639 114.747495 
L 207.890982 115.429663 
L 208.606653 114.769319 
L 209.322325 114.894993 
L 210.753667 113.862521 
L 211.469339 113.563068 
L 212.18501 113.807951 
L 212.900681 113.870915 
L 213.616353 113.494543 
L 215.047695 114.232442 
L 216.479038 114.910832 
L 217.194709 115.263937 
L 217.910381 115.179233 
L 220.057395 115.973376 
L 221.488737 116.250712 
L 222.204409 116.345182 
L 222.92008 116.221759 
L 223.635752 116.604431 
L 224.351423 116.42694 
L 225.067094 115.966892 
L 225.782766 115.755721 
L 226.498437 115.981888 
L 227.214108 115.369834 
L 227.92978 115.746937 
L 228.645451 114.956204 
L 229.361122 115.108031 
L 230.076794 114.949342 
L 232.939479 115.169331 
L 234.370822 115.83681 
L 235.086493 115.207951 
L 235.802164 114.986474 
L 237.949178 115.82716 
L 238.66485 115.221149 
L 240.096192 115.856818 
L 240.811864 115.725486 
L 242.243206 116.350799 
L 242.958878 116.057349 
L 243.674549 115.584821 
L 244.39022 115.911915 
L 245.105892 115.866745 
L 245.821563 115.677558 
L 246.537234 115.762167 
L 248.684248 116.673467 
L 249.39992 116.230116 
L 250.831263 116.748985 
L 251.546934 116.489586 
L 252.262605 116.79369 
L 252.978277 116.539359 
L 253.693948 116.795172 
L 254.409619 116.710988 
L 255.125291 116.991315 
L 255.840962 117.088559 
L 256.556633 117.394778 
L 257.272305 117.379332 
L 258.703647 117.861034 
L 259.419319 118.003519 
L 260.13499 117.989569 
L 260.850661 118.30102 
L 261.566333 118.288318 
L 263.713347 118.912625 
L 264.429018 118.86018 
L 265.144689 118.196919 
L 266.576032 118.415165 
L 268.723046 118.117382 
L 269.438717 117.977811 
L 270.154389 117.695066 
L 270.87006 117.187445 
L 271.585731 117.145406 
L 272.301403 116.976068 
L 273.017074 116.614356 
L 273.732745 116.901857 
L 274.448417 116.547681 
L 280.173788 118.341818 
L 280.889459 117.733979 
L 281.60513 117.829213 
L 282.320802 118.106136 
L 283.036473 117.986334 
L 283.752144 118.03919 
L 285.183487 116.963437 
L 286.61483 117.26391 
L 287.330501 117.540343 
L 288.046172 117.678115 
L 290.908858 118.641449 
L 291.624529 118.247257 
L 293.055872 118.753219 
L 293.771543 118.747682 
L 294.487214 118.939191 
L 295.202886 118.987517 
L 295.918557 118.739907 
L 296.634228 118.629514 
L 297.3499 118.862533 
L 298.065571 118.811056 
L 298.781242 119.071799 
L 299.496914 119.120869 
L 300.212585 119.283342 
L 300.928257 119.164182 
L 302.359599 119.435343 
L 303.075271 119.268154 
L 303.790942 118.817023 
L 304.506613 119.021685 
L 305.222285 119.012069 
L 307.369299 119.696031 
L 308.08497 119.308701 
L 308.800641 119.082388 
L 309.516313 118.982461 
L 312.378998 119.597729 
L 313.810341 118.858534 
L 317.388697 119.959567 
L 318.104369 119.738032 
L 320.251383 119.612465 
L 320.967054 119.845485 
L 321.682725 119.882185 
L 322.398397 119.718053 
L 323.114068 119.953896 
L 323.829739 120.066688 
L 324.545411 120.296399 
L 325.261082 120.373766 
L 325.976754 120.267227 
L 326.692425 119.981994 
L 328.839439 120.338792 
L 329.55511 119.914539 
L 330.270782 120.079579 
L 330.986453 119.585135 
L 332.417796 120.005265 
L 333.133467 119.786192 
L 334.56481 119.960518 
L 335.280481 119.547962 
L 335.996152 119.587967 
L 338.143166 120.204772 
L 338.858838 119.990228 
L 340.29018 120.392262 
L 341.005852 120.343617 
L 343.868537 121.147846 
L 344.584208 120.807732 
L 345.29988 120.600702 
L 346.015551 120.669577 
L 346.731222 120.464924 
L 347.446894 120.130518 
L 348.878236 120.512986 
L 349.593908 120.46156 
L 350.309579 120.53098 
L 351.740922 120.840471 
L 352.456593 120.635779 
L 354.603607 120.848834 
L 355.319279 120.525964 
L 356.03495 120.711971 
L 356.750621 120.394273 
L 357.466293 120.296237 
L 358.181964 120.421469 
L 358.897635 120.102158 
L 359.613307 120.009739 
L 361.044649 120.115335 
L 361.760321 119.970071 
L 362.475992 119.522986 
L 363.191663 119.384114 
L 363.907335 119.380282 
L 365.338677 119.616252 
L 366.054349 119.614693 
L 366.77002 119.79578 
L 368.201363 119.710309 
L 368.917034 119.398777 
L 371.064048 119.594818 
L 371.779719 119.631072 
L 372.495391 119.547747 
L 373.211062 119.300252 
L 373.926733 119.210243 
L 374.642405 119.304926 
L 376.789419 118.645356 
L 378.220762 118.862558 
L 379.652104 118.59324 
L 381.083447 118.925946 
L 382.51479 118.352002 
L 383.230461 118.534647 
L 383.946132 118.185104 
L 385.377475 118.212484 
L 386.093146 118.085875 
L 388.24016 118.145761 
L 390.387174 118.684987 
L 391.102846 118.683035 
L 393.965531 119.135533 
L 394.681202 119.012289 
L 395.396874 119.188816 
L 397.543888 119.317468 
L 398.97523 119.555116 
L 400.406573 119.780738 
L 401.122244 119.439872 
L 401.837916 119.396865 
L 402.553587 119.483203 
L 403.269259 119.260648 
L 404.700601 119.59928 
L 405.416273 119.328416 
L 407.563287 119.790568 
L 408.278958 119.848891 
L 409.710301 120.155721 
L 410.425972 120.15052 
L 411.141643 119.88205 
L 414.72 120.464697 
L 414.72 120.464697 
" style="fill:none;stroke:#1f77b4;stroke-linecap:square;stroke-width:1.5;"/>
   </g>
   <g id="line2d_15">
    <path clip-path="url(#pe16e768d05)" d="M 57.6 295.488 
L 58.315671 227.90889 
L 59.031343 227.441209 
L 59.747014 105.656548 
L 60.462685 53.568 
L 61.894028 84.306729 
L 62.609699 87.634597 
L 63.325371 96.841828 
L 64.041042 93.314613 
L 65.472385 109.118233 
L 66.188056 111.651108 
L 66.903727 100.977068 
L 67.619399 106.870842 
L 68.33507 110.369807 
L 69.050741 106.178197 
L 69.766413 97.614998 
L 70.482084 99.391938 
L 71.197756 98.687409 
L 71.913427 97.025825 
L 73.34477 105.228188 
L 74.060441 109.146154 
L 74.776112 111.5983 
L 76.207455 109.438039 
L 76.923126 108.71917 
L 77.638798 109.915017 
L 78.354469 112.86109 
L 79.07014 111.388489 
L 79.785812 112.756006 
L 80.501483 113.757736 
L 83.364168 122.888508 
L 84.07984 117.739403 
L 85.511182 121.96457 
L 86.226854 116.037347 
L 86.942525 117.872689 
L 87.658196 119.047528 
L 88.373868 120.917828 
L 89.089539 116.649491 
L 89.80521 113.912689 
L 90.520882 115.393632 
L 91.236553 113.057865 
L 91.952224 111.785043 
L 92.667896 113.265782 
L 93.383567 113.892727 
L 94.099238 114.270915 
L 94.81491 115.952055 
L 95.530581 116.813977 
L 96.246253 118.342011 
L 96.961924 119.478439 
L 97.677595 117.215526 
L 99.108938 120.033322 
L 99.824609 120.779017 
L 100.540281 122.197317 
L 101.255952 121.10818 
L 101.971623 122.119602 
L 102.687295 118.612327 
L 104.118637 118.059041 
L 104.834309 118.556588 
L 105.54998 118.86021 
L 106.265651 119.592663 
L 106.981323 119.881635 
L 107.696994 121.015498 
L 108.412665 118.602597 
L 109.128337 119.246707 
L 109.844008 118.915122 
L 110.559679 120.017265 
L 111.275351 120.874872 
L 111.991022 119.73309 
L 112.706693 120.861341 
L 113.422365 119.215079 
L 114.138036 118.422994 
L 114.853707 117.189492 
L 115.569379 118.204503 
L 116.28505 117.592807 
L 117.716393 119.308532 
L 118.432064 117.358698 
L 119.147735 117.84368 
L 119.863407 116.657913 
L 120.579078 115.817922 
L 122.010421 117.471207 
L 124.157435 118.681355 
L 124.873106 116.966638 
L 125.588778 116.146787 
L 126.304449 116.606176 
L 127.02012 116.790908 
L 127.735792 116.797526 
L 128.451463 117.596743 
L 129.167134 118.029616 
L 129.882806 118.198651 
L 130.598477 117.827486 
L 131.314148 117.839004 
L 132.02982 117.116262 
L 133.461162 118.610369 
L 134.176834 118.580186 
L 134.892505 119.071859 
L 135.608176 117.401106 
L 136.323848 116.207585 
L 137.039519 116.86218 
L 137.75519 116.562504 
L 138.470862 117.346166 
L 139.186533 117.064473 
L 139.902204 115.560338 
L 140.617876 114.797618 
L 142.049218 116.268907 
L 142.76489 116.360916 
L 143.480561 114.96523 
L 144.196232 115.386917 
L 145.627575 116.65835 
L 146.343246 115.545044 
L 147.774589 116.351508 
L 148.490261 115.686242 
L 149.921603 116.945285 
L 151.352946 117.204114 
L 152.068617 116.196691 
L 152.784289 116.697416 
L 153.49996 117.013119 
L 154.215631 117.669684 
L 154.931303 116.567873 
L 156.362645 117.795957 
L 157.078317 117.579716 
L 157.793988 117.766824 
L 158.509659 117.6106 
L 159.225331 117.752624 
L 159.941002 118.343531 
L 160.656673 118.618999 
L 161.372345 118.591016 
L 163.519359 120.189556 
L 164.23503 120.557864 
L 164.950701 120.452605 
L 165.666373 121.021391 
L 167.097715 121.24693 
L 168.529058 122.308708 
L 169.244729 122.070343 
L 170.676072 120.779626 
L 171.391743 120.952294 
L 172.107415 121.464163 
L 172.823086 120.787565 
L 173.538758 120.879182 
L 174.254429 121.14146 
L 176.401443 122.603055 
L 177.117114 122.658535 
L 177.832786 121.486738 
L 179.9798 122.922907 
L 181.411142 123.85599 
L 182.126814 123.05662 
L 182.842485 123.025051 
L 183.558156 123.371955 
L 184.273828 122.739239 
L 184.989499 123.080428 
L 185.70517 122.595155 
L 186.420842 122.578012 
L 187.136513 122.856011 
L 187.852184 122.373684 
L 188.567856 122.593769 
L 189.283527 123.052244 
L 189.999198 122.460527 
L 190.71487 122.01834 
L 192.146212 122.602658 
L 194.293226 123.896377 
L 195.008898 123.788773 
L 195.724569 123.309656 
L 196.44024 123.740386 
L 197.155912 123.395757 
L 197.871583 123.184112 
L 200.018597 124.379369 
L 200.734269 124.674624 
L 202.165611 124.230374 
L 202.881283 123.557597 
L 203.596954 123.51764 
L 204.312625 123.636892 
L 205.028297 122.955473 
L 205.743968 123.147843 
L 206.459639 123.207143 
L 207.175311 123.502417 
L 207.890982 122.698087 
L 209.322325 123.280086 
L 210.037996 122.624411 
L 210.753667 122.223276 
L 211.469339 122.624106 
L 212.900681 123.003109 
L 213.616353 122.228686 
L 215.047695 122.898332 
L 215.763367 122.02421 
L 216.479038 122.263458 
L 217.194709 122.177714 
L 217.910381 121.472768 
L 218.626052 121.126405 
L 219.341723 120.919486 
L 220.057395 120.852532 
L 220.773066 121.113486 
L 221.488737 121.492831 
L 222.204409 121.570223 
L 223.635752 122.219949 
L 224.351423 121.562582 
L 225.067094 121.654764 
L 225.782766 120.914446 
L 226.498437 120.993693 
L 227.214108 120.499651 
L 227.92978 120.735197 
L 229.361122 119.937011 
L 230.076794 120.210363 
L 230.792465 120.29148 
L 231.508136 119.677604 
L 232.223808 119.822887 
L 232.939479 120.180293 
L 234.370822 120.460554 
L 235.086493 120.694598 
L 236.517836 120.742994 
L 237.949178 121.159399 
L 238.66485 121.500033 
L 239.380521 121.44932 
L 240.096192 120.974662 
L 242.958878 122.25517 
L 243.674549 122.267982 
L 244.39022 122.598867 
L 245.105892 122.479913 
L 245.821563 122.190726 
L 246.537234 122.32092 
L 247.252906 121.761206 
L 248.684248 122.223728 
L 250.115591 122.21179 
L 250.831263 121.955019 
L 251.546934 121.378473 
L 252.978277 121.076493 
L 253.693948 121.240737 
L 254.409619 120.718315 
L 255.125291 121.024718 
L 255.840962 120.41309 
L 256.556633 120.256445 
L 257.272305 119.946166 
L 259.419319 120.632799 
L 260.13499 120.485738 
L 260.850661 120.774313 
L 261.566333 120.400845 
L 262.282004 119.749391 
L 264.429018 120.478257 
L 265.860361 120.837932 
L 267.291703 121.42507 
L 268.723046 121.44527 
L 269.438717 121.657497 
L 270.87006 120.681496 
L 272.301403 121.12674 
L 273.017074 121.10551 
L 273.732745 121.248901 
L 274.448417 121.060519 
L 276.595431 121.83687 
L 277.311102 121.914434 
L 278.742445 122.406997 
L 279.458116 122.030759 
L 280.889459 122.219162 
L 281.60513 121.62466 
L 282.320802 121.5142 
L 283.036473 121.768771 
L 284.467816 122.08276 
L 285.899158 122.596069 
L 286.61483 122.649726 
L 288.046172 123.180426 
L 289.477515 122.738397 
L 290.193186 122.990998 
L 290.908858 122.991249 
L 291.624529 122.62598 
L 292.3402 122.696622 
L 293.055872 122.519484 
L 293.771543 122.492191 
L 294.487214 122.098446 
L 295.202886 122.122495 
L 295.918557 121.734588 
L 297.3499 122.188011 
L 298.065571 122.161387 
L 298.781242 121.853908 
L 299.496914 121.90561 
L 300.212585 121.823364 
L 302.359599 122.468635 
L 303.790942 121.932671 
L 304.506613 122.089272 
L 305.222285 121.921539 
L 305.937956 121.386973 
L 307.369299 121.152232 
L 308.08497 120.664401 
L 309.516313 120.628255 
L 310.947655 121.079573 
L 311.663327 120.715181 
L 313.810341 120.398785 
L 315.957355 121.012463 
L 316.673026 120.696319 
L 318.104369 120.566481 
L 319.535711 120.949607 
L 320.251383 120.644015 
L 322.398397 121.057202 
L 323.114068 120.701931 
L 324.545411 120.929951 
L 326.692425 121.446067 
L 327.408096 121.4477 
L 328.123768 121.035574 
L 329.55511 121.468913 
L 330.270782 120.988517 
L 331.702124 121.35343 
L 332.417796 121.569722 
L 333.133467 121.096095 
L 333.849138 121.023573 
L 334.56481 121.11875 
L 335.280481 120.941417 
L 335.996152 121.094991 
L 337.427495 120.189223 
L 338.143166 119.897755 
L 338.858838 119.859842 
L 340.29018 120.07232 
L 341.005852 119.718696 
L 342.437194 120.06173 
L 343.868537 120.335461 
L 344.584208 120.018922 
L 346.015551 119.639324 
L 346.731222 119.335243 
L 347.446894 119.221528 
L 348.162565 119.233916 
L 348.878236 119.420176 
L 349.593908 119.240928 
L 350.309579 119.425885 
L 351.025251 119.397556 
L 353.172265 119.828171 
L 355.319279 119.051913 
L 358.181964 119.560917 
L 358.897635 119.455743 
L 359.613307 119.127126 
L 361.044649 119.403123 
L 361.760321 119.56809 
L 362.475992 119.329423 
L 363.191663 119.509221 
L 363.907335 119.249164 
L 366.054349 119.600884 
L 367.485691 119.322331 
L 368.201363 119.08847 
L 371.779719 118.617247 
L 373.926733 119.161998 
L 374.642405 118.916664 
L 375.358076 119.036394 
L 376.789419 118.570982 
L 379.652104 118.823892 
L 380.367776 118.581614 
L 381.083447 118.621035 
L 381.799118 118.531803 
L 382.51479 118.675273 
L 383.230461 118.504996 
L 383.946132 118.472663 
L 384.661804 118.665854 
L 385.377475 118.672199 
L 386.093146 118.845627 
L 386.808818 118.453666 
L 387.524489 118.462894 
L 390.387174 118.998534 
L 391.102846 119.053555 
L 392.534188 118.489786 
L 393.24986 118.499587 
L 393.965531 118.239903 
L 395.396874 118.542747 
L 398.259559 118.980432 
L 401.122244 119.68138 
L 401.837916 119.528209 
L 404.700601 120.115094 
L 406.847615 120.581497 
L 407.563287 120.475877 
L 411.857315 121.080304 
L 413.288657 120.687763 
L 414.004329 120.6281 
L 414.72 120.743723 
L 414.72 120.743723 
" style="fill:none;stroke:#ff7f0e;stroke-linecap:square;stroke-width:1.5;"/>
   </g>
   <g id="line2d_16">
    <path clip-path="url(#pe16e768d05)" d="M 57.6 295.488 
L 58.315671 253.251056 
L 59.031343 89.491767 
L 59.747014 73.754102 
L 60.462685 79.922291 
L 61.178357 96.202022 
L 61.894028 98.167295 
L 63.325371 119.351248 
L 64.041042 96.151103 
L 64.756713 94.750204 
L 65.472385 95.175215 
L 66.188056 101.765015 
L 66.903727 102.178691 
L 67.619399 108.709207 
L 68.33507 107.738371 
L 69.050741 108.67807 
L 69.766413 108.8602 
L 70.482084 104.722211 
L 71.197756 108.399792 
L 71.913427 110.275149 
L 72.629098 114.481037 
L 73.34477 117.328371 
L 74.060441 111.273797 
L 74.776112 107.537871 
L 75.491784 109.868239 
L 76.207455 109.654928 
L 76.923126 106.141431 
L 77.638798 108.926377 
L 78.354469 108.882482 
L 79.785812 114.610415 
L 80.501483 110.741005 
L 81.217154 109.398487 
L 81.932826 111.973898 
L 82.648497 111.928342 
L 83.364168 111.369398 
L 84.07984 113.052116 
L 84.795511 111.020311 
L 85.511182 113.212709 
L 86.226854 114.099542 
L 87.658196 117.855535 
L 89.089539 121.600732 
L 89.80521 120.799247 
L 90.520882 121.863108 
L 91.236553 118.450759 
L 91.952224 119.047771 
L 92.667896 119.067688 
L 93.383567 120.368561 
L 95.530581 125.250518 
L 96.246253 126.804604 
L 96.961924 124.620568 
L 97.677595 124.210057 
L 98.393267 121.475146 
L 99.824609 123.831554 
L 100.540281 121.396625 
L 101.255952 120.366066 
L 102.687295 122.837429 
L 103.402966 123.277939 
L 104.118637 122.58696 
L 104.834309 123.806635 
L 105.54998 123.727803 
L 106.265651 124.094505 
L 107.696994 125.545087 
L 108.412665 126.050777 
L 109.128337 124.841219 
L 109.844008 124.454518 
L 110.559679 125.570469 
L 111.275351 124.099253 
L 111.991022 124.192016 
L 112.706693 124.094248 
L 113.422365 125.05516 
L 114.138036 125.19872 
L 114.853707 123.194399 
L 115.569379 122.322322 
L 116.28505 121.779213 
L 117.000721 122.126135 
L 118.432064 124.032275 
L 119.147735 124.638905 
L 119.863407 123.29123 
L 120.579078 123.029042 
L 121.294749 123.153908 
L 122.010421 123.599591 
L 122.726092 122.689077 
L 123.441764 123.278316 
L 124.157435 123.61367 
L 124.873106 123.666256 
L 125.588778 124.41326 
L 126.304449 124.041986 
L 127.735792 125.074303 
L 128.451463 125.236669 
L 129.167134 126.047565 
L 129.882806 124.235671 
L 130.598477 125.004397 
L 131.314148 123.986646 
L 132.02982 123.861816 
L 132.745491 122.72352 
L 133.461162 121.247608 
L 134.176834 121.281681 
L 134.892505 121.00036 
L 135.608176 120.337332 
L 136.323848 120.859607 
L 137.039519 119.305353 
L 137.75519 120.076891 
L 138.470862 120.11609 
L 139.186533 120.819773 
L 139.902204 121.019102 
L 141.333547 122.378171 
L 142.049218 123.106915 
L 142.76489 122.863441 
L 143.480561 121.445672 
L 144.196232 122.147525 
L 144.911904 121.234062 
L 145.627575 120.559736 
L 146.343246 119.523832 
L 147.774589 120.75 
L 149.205932 120.796319 
L 151.352946 121.26068 
L 152.068617 121.619107 
L 152.784289 121.669906 
L 154.215631 121.060996 
L 155.646974 122.181964 
L 156.362645 122.531071 
L 157.793988 123.595764 
L 158.509659 123.973227 
L 159.225331 122.751737 
L 160.656673 123.791678 
L 162.088016 123.589912 
L 162.803687 124.051337 
L 163.519359 123.599548 
L 164.23503 123.864814 
L 165.666373 124.984598 
L 166.382044 124.562377 
L 167.097715 123.310117 
L 167.813387 123.74472 
L 168.529058 123.144984 
L 169.244729 123.205422 
L 169.960401 122.670006 
L 170.676072 122.664159 
L 171.391743 122.012415 
L 172.107415 122.510808 
L 172.823086 122.212281 
L 173.538758 122.741809 
L 174.254429 122.578193 
L 174.9701 122.88118 
L 176.401443 123.788198 
L 177.117114 122.635599 
L 178.548457 122.77541 
L 179.264128 122.506499 
L 180.695471 122.732597 
L 181.411142 122.220203 
L 182.126814 121.857642 
L 182.842485 121.2417 
L 183.558156 121.532211 
L 184.273828 121.423952 
L 184.989499 120.838146 
L 185.70517 121.05314 
L 187.136513 121.928565 
L 187.852184 120.84564 
L 189.999198 121.366702 
L 190.71487 121.270192 
L 191.430541 120.525514 
L 193.577555 121.4787 
L 195.008898 122.263329 
L 195.724569 121.383042 
L 196.44024 121.380975 
L 197.155912 120.720536 
L 197.871583 120.81359 
L 199.302926 121.534307 
L 200.018597 121.492317 
L 200.734269 121.923361 
L 201.44994 121.793686 
L 202.881283 122.274196 
L 203.596954 122.143603 
L 204.312625 121.751752 
L 205.743968 119.982378 
L 206.459639 119.599303 
L 207.175311 118.680795 
L 207.890982 118.761659 
L 208.606653 117.866166 
L 209.322325 117.377917 
L 210.037996 117.582309 
L 210.753667 117.921004 
L 211.469339 117.998935 
L 212.18501 117.837194 
L 212.900681 118.095409 
L 213.616353 117.819596 
L 214.332024 117.341261 
L 215.047695 117.347496 
L 216.479038 116.073003 
L 217.194709 116.158797 
L 217.910381 116.556449 
L 218.626052 116.692231 
L 219.341723 117.017534 
L 220.057395 117.017607 
L 220.773066 117.399449 
L 221.488737 116.846734 
L 222.204409 116.915779 
L 222.92008 117.194711 
L 223.635752 117.202963 
L 224.351423 117.561536 
L 225.067094 117.496296 
L 225.782766 117.150481 
L 226.498437 117.280433 
L 227.214108 116.85272 
L 227.92978 116.980955 
L 228.645451 116.561706 
L 230.076794 117.160433 
L 230.792465 116.536284 
L 231.508136 116.677664 
L 232.223808 116.699258 
L 232.939479 116.97396 
L 233.65515 116.809186 
L 235.086493 117.433932 
L 235.802164 117.420943 
L 236.517836 117.759272 
L 237.233507 117.116801 
L 237.949178 117.042036 
L 238.66485 116.724978 
L 239.380521 116.231604 
L 241.527535 117.104704 
L 242.243206 116.975453 
L 242.958878 117.03405 
L 243.674549 117.311435 
L 244.39022 117.25472 
L 245.821563 117.827184 
L 246.537234 118.127784 
L 247.252906 117.817707 
L 247.968577 117.749896 
L 248.684248 117.363224 
L 250.115591 117.934829 
L 251.546934 116.880822 
L 253.693948 116.54904 
L 254.409619 116.866993 
L 255.125291 116.74013 
L 255.840962 116.856914 
L 257.272305 117.453702 
L 257.987976 116.907163 
L 259.419319 116.25484 
L 260.13499 116.263506 
L 262.282004 117.194539 
L 262.997675 116.843327 
L 264.429018 116.379215 
L 265.860361 116.610925 
L 266.576032 116.546962 
L 268.007375 115.671391 
L 270.154389 116.299232 
L 270.87006 115.783767 
L 271.585731 115.793961 
L 272.301403 115.608755 
L 274.448417 114.696291 
L 275.164088 114.939906 
L 275.87976 114.951848 
L 278.026774 115.714578 
L 278.742445 115.66914 
L 280.173788 116.135722 
L 280.889459 115.963961 
L 281.60513 116.19671 
L 282.320802 115.717506 
L 283.036473 115.554689 
L 284.467816 115.986921 
L 285.183487 116.001842 
L 286.61483 116.418369 
L 287.330501 116.617915 
L 288.046172 116.152183 
L 288.761844 116.428901 
L 289.477515 116.520107 
L 290.193186 116.118565 
L 290.908858 116.322323 
L 291.624529 116.004941 
L 292.3402 115.833882 
L 293.055872 116.058313 
L 293.771543 115.67393 
L 294.487214 115.772742 
L 295.918557 116.267652 
L 296.634228 116.219924 
L 297.3499 116.353808 
L 298.065571 115.811874 
L 299.496914 116.139856 
L 300.212585 115.609161 
L 300.928257 115.659382 
L 301.643928 115.87418 
L 302.359599 115.503531 
L 303.075271 115.557527 
L 303.790942 115.458801 
L 305.222285 115.607503 
L 306.653627 116.012056 
L 308.08497 116.225915 
L 308.800641 116.413864 
L 309.516313 116.373592 
L 311.663327 116.921678 
L 312.378998 116.818729 
L 313.094669 116.390537 
L 313.810341 116.299069 
L 314.526012 116.519103 
L 315.241683 116.518821 
L 317.388697 117.030626 
L 319.535711 116.328669 
L 320.251383 116.484848 
L 320.967054 116.343857 
L 321.682725 116.538741 
L 322.398397 116.505247 
L 323.114068 116.309487 
L 325.261082 116.566523 
L 327.408096 116.320861 
L 328.839439 116.764037 
L 329.55511 116.777041 
L 330.986453 117.137534 
L 331.702124 116.717007 
L 333.133467 117.158585 
L 333.849138 117.169921 
L 334.56481 117.318656 
L 335.280481 117.214487 
L 336.711824 117.638069 
L 337.427495 117.504797 
L 338.143166 117.194271 
L 339.574509 117.311531 
L 342.437194 117.956447 
L 345.29988 118.318767 
L 346.015551 117.949087 
L 346.731222 117.842427 
L 347.446894 117.436431 
L 348.162565 117.468273 
L 349.593908 117.865212 
L 350.309579 117.856191 
L 351.025251 117.650034 
L 353.172265 117.698874 
L 354.603607 118.109391 
L 355.319279 117.847843 
L 356.03495 117.855404 
L 356.750621 117.72836 
L 357.466293 117.905106 
L 358.897635 117.160827 
L 359.613307 117.309759 
L 361.760321 116.832531 
L 362.475992 116.931581 
L 363.907335 116.378552 
L 364.623006 116.586628 
L 365.338677 116.462176 
L 366.054349 116.611257 
L 366.77002 116.437162 
L 368.201363 116.763582 
L 368.917034 116.688633 
L 369.632705 116.79483 
L 370.348377 116.625216 
L 372.495391 117.053429 
L 373.926733 116.612251 
L 374.642405 116.808151 
L 375.358076 116.669385 
L 376.073747 116.700497 
L 377.50509 115.944739 
L 378.936433 116.190798 
L 380.367776 116.267613 
L 381.799118 116.640624 
L 382.51479 116.703359 
L 383.230461 116.886515 
L 383.946132 116.561209 
L 384.661804 116.536891 
L 386.808818 117.012409 
L 387.524489 116.694804 
L 388.955832 117.054068 
L 389.671503 116.917914 
L 390.387174 117.079335 
L 391.818517 116.899108 
L 392.534188 116.834364 
L 393.24986 116.488818 
L 395.396874 116.875792 
L 396.112545 116.921082 
L 396.828216 116.612314 
L 397.543888 116.786883 
L 400.406573 116.093328 
L 402.553587 116.431632 
L 403.269259 116.243566 
L 403.98493 115.839699 
L 404.700601 115.942869 
L 405.416273 115.543453 
L 406.131944 115.457967 
L 406.847615 115.628775 
L 408.278958 115.753024 
L 411.141643 116.108779 
L 413.288657 116.593102 
L 414.72 116.04617 
L 414.72 116.04617 
" style="fill:none;stroke:#2ca02c;stroke-linecap:square;stroke-width:1.5;"/>
   </g>
   <g id="line2d_17">
    <path clip-path="url(#pe16e768d05)" d="M 57.6 295.488 
L 58.315671 278.593222 
L 59.031343 222.494218 
L 59.747014 198.803216 
L 60.462685 154.378675 
L 61.178357 128.808083 
L 61.894028 120.377424 
L 62.609699 130.83162 
L 63.325371 139.21765 
L 64.756713 138.406285 
L 65.472385 144.777125 
L 66.188056 147.379404 
L 66.903727 150.85675 
L 67.619399 151.751047 
L 68.33507 149.881535 
L 69.050741 149.5839 
L 69.766413 136.900915 
L 71.197756 144.956101 
L 71.913427 148.559128 
L 72.629098 146.54439 
L 73.34477 143.316171 
L 74.060441 144.540571 
L 74.776112 143.869632 
L 75.491784 128.621151 
L 76.207455 130.46299 
L 76.923126 131.59484 
L 77.638798 134.382123 
L 78.354469 132.5558 
L 79.07014 133.508651 
L 79.785812 134.076686 
L 80.501483 136.538549 
L 81.217154 137.359673 
L 81.932826 139.127881 
L 82.648497 141.26977 
L 83.364168 138.809617 
L 84.795511 142.549583 
L 85.511182 137.743334 
L 86.226854 139.650102 
L 86.942525 139.827686 
L 87.658196 137.378339 
L 89.089539 139.685583 
L 90.520882 133.592155 
L 92.667896 134.597197 
L 93.383567 133.505366 
L 94.099238 131.472275 
L 94.81491 131.263283 
L 95.530581 132.781907 
L 96.246253 132.104072 
L 96.961924 132.695914 
L 97.677595 129.471408 
L 98.393267 127.93184 
L 99.108938 129.224626 
L 99.824609 129.922293 
L 100.540281 131.148919 
L 101.255952 131.812899 
L 101.971623 132.79809 
L 102.687295 132.511273 
L 103.402966 133.219429 
L 104.118637 134.452048 
L 104.834309 132.853043 
L 105.54998 133.798408 
L 106.265651 132.363369 
L 106.981323 133.434673 
L 107.696994 131.914669 
L 108.412665 132.390431 
L 109.128337 133.288004 
L 109.844008 131.117004 
L 110.559679 126.984729 
L 111.991022 128.690764 
L 112.706693 127.537863 
L 113.422365 128.497946 
L 114.138036 128.886009 
L 114.853707 129.866169 
L 115.569379 128.897797 
L 116.28505 129.789048 
L 117.000721 130.449021 
L 117.716393 130.836672 
L 119.863407 122.646328 
L 120.579078 120.723042 
L 121.294749 119.568552 
L 122.010421 120.074554 
L 122.726092 117.934077 
L 123.441764 116.800523 
L 124.157435 117.701845 
L 124.873106 117.342615 
L 125.588778 117.213073 
L 126.304449 117.499422 
L 127.02012 116.517277 
L 127.735792 114.807705 
L 128.451463 114.773575 
L 129.167134 115.664936 
L 129.882806 115.073384 
L 130.598477 115.544063 
L 132.02982 117.082156 
L 132.745491 117.913637 
L 133.461162 118.297455 
L 134.176834 119.116328 
L 134.892505 118.806779 
L 135.608176 118.991379 
L 136.323848 119.515351 
L 137.039519 118.879146 
L 141.333547 122.46683 
L 142.049218 121.841247 
L 142.76489 122.461731 
L 143.480561 122.055097 
L 145.627575 123.769202 
L 146.343246 122.039082 
L 147.058918 121.276055 
L 148.490261 122.61583 
L 149.921603 123.589119 
L 150.637275 124.037588 
L 151.352946 122.366391 
L 152.068617 122.637768 
L 152.784289 123.047902 
L 153.49996 121.685867 
L 154.215631 121.15467 
L 154.931303 121.568877 
L 155.646974 121.474288 
L 156.362645 121.110633 
L 157.078317 121.441667 
L 158.509659 122.595633 
L 159.225331 123.059482 
L 159.941002 121.998273 
L 160.656673 121.500591 
L 162.088016 122.579029 
L 162.803687 122.730032 
L 163.519359 122.616977 
L 164.23503 122.98744 
L 165.666373 123.12959 
L 166.382044 121.949794 
L 169.244729 124.005117 
L 170.676072 125.012958 
L 171.391743 124.926593 
L 172.107415 124.562697 
L 172.823086 125.06895 
L 173.538758 123.568427 
L 174.254429 124.069304 
L 174.9701 123.582336 
L 175.685772 124.095038 
L 176.401443 123.648177 
L 177.117114 123.775778 
L 178.548457 124.750643 
L 179.264128 125.061577 
L 179.9798 125.054105 
L 180.695471 124.621953 
L 181.411142 124.744555 
L 182.126814 124.126984 
L 182.842485 122.770298 
L 183.558156 122.43866 
L 184.273828 122.345334 
L 184.989499 122.524781 
L 185.70517 122.896457 
L 186.420842 122.810104 
L 187.136513 121.670208 
L 187.852184 121.292766 
L 188.567856 121.20553 
L 189.283527 120.282598 
L 189.999198 119.934761 
L 190.71487 120.151907 
L 191.430541 120.610372 
L 192.146212 120.157251 
L 192.861884 119.455738 
L 193.577555 119.456144 
L 194.293226 119.866838 
L 195.008898 119.848482 
L 195.724569 120.178845 
L 196.44024 119.512945 
L 197.155912 119.399601 
L 197.871583 119.846525 
L 199.302926 120.515673 
L 200.734269 121.386271 
L 201.44994 121.378543 
L 202.165611 120.73168 
L 202.881283 120.558325 
L 203.596954 120.525647 
L 204.312625 120.821769 
L 205.743968 120.094454 
L 206.459639 120.237644 
L 207.175311 120.64775 
L 207.890982 120.894521 
L 208.606653 120.614226 
L 209.322325 121.024693 
L 210.037996 120.940804 
L 210.753667 121.17763 
L 211.469339 121.579968 
L 212.18501 121.829201 
L 212.900681 121.799318 
L 215.047695 122.691731 
L 215.763367 122.314979 
L 216.479038 122.448648 
L 217.194709 122.368309 
L 218.626052 122.578579 
L 219.341723 122.940503 
L 220.057395 123.006555 
L 221.488737 123.729169 
L 222.92008 124.038839 
L 223.635752 124.131738 
L 224.351423 123.618908 
L 225.067094 123.719033 
L 225.782766 123.607098 
L 226.498437 123.924753 
L 227.214108 123.562486 
L 228.645451 123.438989 
L 229.361122 123.772341 
L 230.076794 123.976874 
L 230.792465 123.717931 
L 231.508136 124.046266 
L 232.223808 124.012519 
L 232.939479 124.317549 
L 233.65515 124.059624 
L 234.370822 124.396543 
L 235.086493 124.230216 
L 235.802164 123.690046 
L 236.517836 123.882095 
L 237.233507 123.939823 
L 237.949178 123.068867 
L 238.66485 123.360709 
L 239.380521 123.385714 
L 240.811864 123.912173 
L 241.527535 124.048295 
L 242.243206 124.354598 
L 243.674549 124.620267 
L 244.39022 124.581376 
L 245.105892 124.889538 
L 245.821563 124.566348 
L 246.537234 123.726795 
L 247.252906 124.004585 
L 247.968577 123.96346 
L 250.831263 124.695576 
L 251.546934 123.995948 
L 252.262605 124.308091 
L 252.978277 124.096625 
L 253.693948 124.169208 
L 254.409619 124.037061 
L 255.125291 124.150757 
L 255.840962 124.446532 
L 256.556633 124.165008 
L 257.272305 124.281255 
L 257.987976 124.1623 
L 258.703647 124.466324 
L 259.419319 123.927227 
L 260.13499 123.726136 
L 260.850661 123.292124 
L 262.282004 123.697128 
L 262.997675 123.888483 
L 263.713347 123.62986 
L 264.429018 123.207785 
L 265.860361 123.434613 
L 266.576032 123.435748 
L 267.291703 123.554981 
L 268.007375 122.817067 
L 270.87006 123.700068 
L 273.017074 123.365339 
L 274.448417 123.922775 
L 275.164088 123.49772 
L 275.87976 123.556302 
L 277.311102 123.949119 
L 278.026774 124.224192 
L 279.458116 124.601154 
L 280.173788 124.832339 
L 280.889459 124.583604 
L 281.60513 124.593351 
L 282.320802 124.862601 
L 283.036473 124.818273 
L 283.752144 125.065841 
L 285.899158 123.915817 
L 286.61483 123.871559 
L 287.330501 124.098084 
L 288.046172 124.1522 
L 289.477515 124.674704 
L 290.193186 124.1126 
L 293.055872 125.057877 
L 293.771543 124.414126 
L 294.487214 124.605637 
L 295.202886 124.12944 
L 295.918557 124.384027 
L 297.3499 124.299573 
L 298.065571 124.495484 
L 298.781242 124.458987 
L 300.212585 124.811335 
L 301.643928 125.250465 
L 303.790942 124.320172 
L 305.222285 124.536406 
L 305.937956 124.116087 
L 306.653627 124.36148 
L 307.369299 124.04601 
L 308.08497 123.96715 
L 309.516313 124.427892 
L 310.231984 124.23054 
L 310.947655 123.744868 
L 311.663327 123.566983 
L 312.378998 123.635568 
L 313.094669 123.395668 
L 313.810341 123.323569 
L 314.526012 122.930251 
L 316.673026 123.24608 
L 317.388697 122.869695 
L 318.104369 122.982734 
L 318.82004 122.963799 
L 319.535711 123.172962 
L 320.967054 122.267493 
L 321.682725 122.213332 
L 322.398397 122.431587 
L 323.114068 121.897591 
L 323.829739 121.968449 
L 324.545411 121.607849 
L 326.692425 121.985104 
L 327.408096 121.616787 
L 328.839439 121.937557 
L 329.55511 121.96985 
L 332.417796 122.692848 
L 333.133467 122.183412 
L 333.849138 121.961384 
L 334.56481 121.540981 
L 335.280481 121.327558 
L 338.858838 121.769965 
L 339.574509 121.424008 
L 340.29018 121.639138 
L 341.005852 121.631453 
L 342.437194 122.026253 
L 343.152866 121.925281 
L 343.868537 121.435879 
L 345.29988 121.227233 
L 346.731222 121.074272 
L 348.878236 121.433356 
L 349.593908 121.032762 
L 351.740922 121.377123 
L 352.456593 121.280016 
L 353.172265 120.811088 
L 353.887936 120.804412 
L 354.603607 121.010017 
L 355.319279 120.808323 
L 356.750621 121.143006 
L 357.466293 120.818514 
L 358.897635 121.220373 
L 360.328978 121.348392 
L 361.044649 121.030241 
L 361.760321 121.223572 
L 362.475992 121.028293 
L 363.191663 121.018433 
L 365.338677 121.562775 
L 366.77002 121.66336 
L 368.917034 122.179435 
L 369.632705 121.933667 
L 370.348377 121.918788 
L 371.064048 122.057101 
L 371.779719 122.043474 
L 372.495391 121.798925 
L 373.211062 121.832814 
L 374.642405 122.115083 
L 376.789419 122.538482 
L 379.652104 122.995161 
L 381.083447 123.146355 
L 382.51479 123.118979 
L 383.230461 122.864399 
L 383.946132 123.041 
L 384.661804 122.952518 
L 386.093146 123.288909 
L 387.524489 123.054995 
L 388.955832 123.376155 
L 391.102846 123.470457 
L 391.818517 123.225584 
L 393.965531 123.60071 
L 394.681202 123.415501 
L 395.396874 123.59321 
L 396.828216 123.670857 
L 397.543888 123.531304 
L 398.97523 123.668086 
L 399.690902 123.374782 
L 400.406573 123.519169 
L 401.122244 123.109539 
L 402.553587 123.362905 
L 403.98493 123.301605 
L 405.416273 122.496721 
L 406.131944 122.315672 
L 406.847615 122.399288 
L 408.278958 121.79221 
L 408.994629 121.713699 
L 409.710301 121.792551 
L 410.425972 121.452244 
L 411.857315 121.438533 
L 412.572986 121.27242 
L 413.288657 121.225227 
L 414.72 121.552183 
L 414.72 121.552183 
" style="fill:none;stroke:#d62728;stroke-linecap:square;stroke-width:1.5;"/>
   </g>
   <g id="line2d_18">
    <path clip-path="url(#pe16e768d05)" d="M 57.6 295.488 
L 58.315671 101.198058 
L 59.031343 136.800955 
L 59.747014 80.120999 
L 60.462685 93.484103 
L 61.178357 94.242271 
L 61.894028 108.504867 
L 63.325371 84.622646 
L 64.041042 93.625454 
L 64.756713 99.868569 
L 66.188056 115.119865 
L 66.903727 117.175763 
L 67.619399 115.347448 
L 68.33507 120.424275 
L 69.050741 121.449119 
L 69.766413 126.352609 
L 70.482084 130.173528 
L 71.197756 125.405748 
L 71.913427 129.50462 
L 72.629098 130.224645 
L 73.34477 127.167358 
L 74.776112 133.698473 
L 75.491784 136.050013 
L 76.207455 125.67107 
L 76.923126 128.604343 
L 77.638798 128.634416 
L 78.354469 127.221142 
L 79.07014 129.541489 
L 79.785812 127.188221 
L 80.501483 124.431071 
L 81.217154 126.885488 
L 81.932826 123.489472 
L 82.648497 121.06261 
L 83.364168 122.578334 
L 84.795511 127.044154 
L 85.511182 126.21584 
L 86.226854 128.284943 
L 86.942525 128.13378 
L 87.658196 128.560674 
L 88.373868 128.423899 
L 89.089539 129.402798 
L 91.236553 134.409748 
L 91.952224 134.412479 
L 92.667896 131.908859 
L 93.383567 132.935929 
L 94.099238 132.919996 
L 94.81491 128.89508 
L 95.530581 129.2394 
L 96.246253 130.755345 
L 96.961924 129.809666 
L 97.677595 129.953132 
L 98.393267 125.723325 
L 99.108938 126.133996 
L 99.824609 127.458794 
L 100.540281 127.854786 
L 101.255952 128.774526 
L 101.971623 127.635187 
L 103.402966 130.019792 
L 104.118637 129.79362 
L 104.834309 129.373506 
L 105.54998 129.161456 
L 106.265651 127.769667 
L 106.981323 127.611787 
L 107.696994 127.938549 
L 108.412665 128.953495 
L 109.844008 125.857299 
L 110.559679 125.655602 
L 111.275351 124.266424 
L 111.991022 122.292285 
L 114.138036 125.422662 
L 114.853707 124.793852 
L 115.569379 122.708236 
L 116.28505 122.652487 
L 117.000721 123.682512 
L 117.716393 121.377629 
L 119.147735 123.143628 
L 119.863407 121.844339 
L 120.579078 122.764716 
L 121.294749 123.449327 
L 122.010421 120.612607 
L 122.726092 120.231933 
L 123.441764 121.135151 
L 124.873106 122.430263 
L 125.588778 122.488669 
L 127.02012 123.943201 
L 127.735792 123.454734 
L 128.451463 124.079762 
L 129.167134 123.813128 
L 129.882806 122.700765 
L 130.598477 123.212827 
L 132.02982 124.461584 
L 132.745491 123.81707 
L 133.461162 124.463315 
L 134.176834 123.865818 
L 134.892505 123.627622 
L 135.608176 123.739567 
L 136.323848 124.299972 
L 137.75519 124.724489 
L 139.186533 126.12657 
L 139.902204 125.913608 
L 140.617876 126.322901 
L 142.049218 127.612241 
L 144.196232 129.384657 
L 144.911904 129.544773 
L 145.627575 129.14847 
L 146.343246 129.767045 
L 147.058918 127.625547 
L 147.774589 128.16979 
L 148.490261 128.308301 
L 149.921603 129.545788 
L 151.352946 130.164636 
L 152.068617 130.107362 
L 152.784289 129.675793 
L 153.49996 128.181123 
L 154.215631 128.382978 
L 154.931303 128.777034 
L 155.646974 127.577955 
L 156.362645 126.991857 
L 157.793988 125.490251 
L 158.509659 125.87138 
L 159.225331 124.980225 
L 159.941002 125.087891 
L 160.656673 123.632032 
L 161.372345 124.203785 
L 162.088016 123.304066 
L 163.519359 124.376277 
L 164.23503 123.990372 
L 164.950701 123.339704 
L 165.666373 121.990557 
L 166.382044 121.069662 
L 167.097715 119.615209 
L 168.529058 120.418779 
L 169.244729 119.023926 
L 169.960401 119.582594 
L 170.676072 119.192037 
L 171.391743 118.037032 
L 172.823086 116.19844 
L 173.538758 116.062431 
L 174.254429 116.286731 
L 176.401443 114.218257 
L 177.117114 114.703748 
L 178.548457 115.264812 
L 179.9798 114.932094 
L 180.695471 114.408709 
L 182.842485 115.911933 
L 183.558156 115.673384 
L 184.989499 113.476629 
L 186.420842 113.871134 
L 187.136513 114.150151 
L 187.852184 114.631145 
L 188.567856 114.049435 
L 189.283527 113.90865 
L 189.999198 113.205009 
L 192.146212 114.44196 
L 192.861884 114.91659 
L 194.293226 113.577769 
L 195.008898 113.900695 
L 196.44024 113.941445 
L 197.155912 114.211248 
L 197.871583 114.105611 
L 198.587255 113.40454 
L 199.302926 113.302012 
L 200.018597 112.618441 
L 200.734269 113.073906 
L 201.44994 112.872219 
L 202.165611 111.934984 
L 202.881283 112.385412 
L 203.596954 111.986687 
L 205.028297 112.818748 
L 205.743968 112.894461 
L 207.890982 114.103406 
L 208.606653 113.610719 
L 210.037996 114.098188 
L 210.753667 114.102194 
L 211.469339 113.776818 
L 212.18501 113.242244 
L 212.900681 113.037493 
L 213.616353 112.639752 
L 214.332024 112.697301 
L 215.047695 112.939805 
L 215.763367 112.841566 
L 216.479038 112.466617 
L 217.194709 112.460919 
L 217.910381 112.202758 
L 218.626052 112.179685 
L 219.341723 111.995012 
L 220.057395 112.315157 
L 220.773066 112.150769 
L 222.92008 110.752321 
L 224.351423 110.943789 
L 225.067094 111.33403 
L 225.782766 111.567596 
L 227.214108 112.32626 
L 227.92978 112.440086 
L 228.645451 112.738484 
L 229.361122 112.480801 
L 230.076794 112.537474 
L 230.792465 111.765436 
L 231.508136 111.693782 
L 232.939479 112.239508 
L 233.65515 112.093647 
L 234.370822 112.100395 
L 235.086493 112.346584 
L 235.802164 112.247695 
L 236.517836 112.602957 
L 237.233507 112.806077 
L 238.66485 111.898663 
L 239.380521 111.721655 
L 240.096192 111.875111 
L 240.811864 111.73994 
L 241.527535 111.397619 
L 242.243206 110.912633 
L 244.39022 111.928262 
L 245.105892 111.550789 
L 245.821563 111.643226 
L 246.537234 111.950718 
L 250.115591 112.378644 
L 250.831263 112.638635 
L 251.546934 112.224977 
L 252.262605 112.372378 
L 253.693948 112.028267 
L 254.409619 112.122572 
L 255.125291 111.75271 
L 255.840962 112.054352 
L 256.556633 111.739737 
L 257.272305 112.064396 
L 258.703647 112.159175 
L 259.419319 111.796265 
L 260.13499 112.118301 
L 260.850661 111.76318 
L 261.566333 112.024282 
L 262.997675 111.976651 
L 263.713347 111.82562 
L 264.429018 112.133625 
L 265.860361 112.116297 
L 267.291703 112.658707 
L 268.007375 112.694004 
L 268.723046 112.981943 
L 269.438717 112.961259 
L 270.154389 112.61019 
L 270.87006 112.092052 
L 271.585731 112.390074 
L 273.732745 111.279687 
L 274.448417 111.159927 
L 275.164088 110.882228 
L 275.87976 111.174934 
L 276.595431 110.670126 
L 277.311102 110.619621 
L 278.742445 109.692529 
L 280.889459 110.485619 
L 281.60513 110.00279 
L 282.320802 110.289827 
L 283.036473 110.090161 
L 284.467816 110.48359 
L 285.183487 110.542262 
L 285.899158 110.073176 
L 286.61483 110.034242 
L 287.330501 110.30539 
L 288.046172 110.384771 
L 288.761844 110.086396 
L 290.193186 110.501286 
L 290.908858 110.055227 
L 294.487214 111.155288 
L 295.202886 111.173707 
L 295.918557 111.43566 
L 296.634228 110.918447 
L 298.065571 111.300282 
L 298.781242 111.321966 
L 300.928257 111.757836 
L 301.643928 111.340682 
L 302.359599 111.353909 
L 303.075271 111.615892 
L 303.790942 111.684491 
L 304.506613 111.196041 
L 305.222285 111.157608 
L 306.653627 111.49068 
L 308.08497 111.786812 
L 308.800641 111.637775 
L 309.516313 111.735623 
L 310.231984 111.463863 
L 310.947655 111.718045 
L 311.663327 111.307508 
L 312.378998 111.279779 
L 313.810341 111.702987 
L 317.388697 112.243827 
L 318.82004 111.855325 
L 320.967054 112.299925 
L 321.682725 112.26655 
L 323.114068 112.41807 
L 323.829739 112.282881 
L 324.545411 112.027441 
L 325.261082 111.637511 
L 325.976754 111.695076 
L 326.692425 111.926167 
L 327.408096 111.795666 
L 328.123768 112.024905 
L 328.839439 112.083528 
L 330.270782 112.471684 
L 330.986453 112.562462 
L 331.702124 112.375829 
L 333.849138 112.768713 
L 334.56481 112.692209 
L 336.711824 113.291723 
L 337.427495 113.523927 
L 338.143166 113.207878 
L 338.858838 113.378287 
L 339.574509 113.000843 
L 340.29018 113.227031 
L 341.005852 112.922189 
L 341.721523 112.797512 
L 342.437194 112.988573 
L 343.868537 113.113471 
L 346.015551 113.705936 
L 346.731222 113.334003 
L 348.878236 113.93791 
L 349.593908 113.947581 
L 350.309579 113.51511 
L 351.025251 113.654904 
L 353.172265 113.462296 
L 356.03495 113.532011 
L 357.466293 113.177069 
L 358.181964 113.05197 
L 358.897635 112.63833 
L 359.613307 112.748649 
L 360.328978 112.519092 
L 361.760321 112.85634 
L 362.475992 112.509722 
L 363.191663 112.342107 
L 363.907335 112.390324 
L 365.338677 112.728953 
L 366.054349 112.656555 
L 366.77002 112.251325 
L 367.485691 112.300017 
L 368.201363 112.231292 
L 368.917034 112.387087 
L 370.348377 112.157342 
L 371.064048 112.365679 
L 371.779719 112.145263 
L 372.495391 112.227067 
L 373.211062 111.892754 
L 374.642405 111.948546 
L 379.652104 112.817392 
L 381.083447 112.761297 
L 382.51479 112.714241 
L 384.661804 112.208448 
L 385.377475 112.04288 
L 386.808818 112.428601 
L 387.524489 112.435706 
L 388.955832 112.721455 
L 389.671503 112.86538 
L 390.387174 112.554575 
L 391.102846 112.393664 
L 392.534188 112.338732 
L 393.24986 112.500883 
L 393.965531 112.133614 
L 395.396874 112.51192 
L 396.112545 112.52027 
L 396.828216 112.712683 
L 398.97523 112.69355 
L 399.690902 112.44439 
L 401.122244 112.765242 
L 401.837916 112.663497 
L 402.553587 112.852603 
L 403.269259 112.867233 
L 403.98493 112.624655 
L 404.700601 112.692561 
L 405.416273 112.503073 
L 406.847615 112.814974 
L 407.563287 112.674159 
L 408.278958 112.384992 
L 408.994629 112.519339 
L 409.710301 112.20986 
L 411.141643 112.568528 
L 411.857315 112.430549 
L 414.004329 112.733791 
L 414.72 112.624048 
L 414.72 112.624048 
" style="fill:none;stroke:#9467bd;stroke-linecap:square;stroke-width:1.5;"/>
   </g>
   <g id="line2d_19">
    <path clip-path="url(#pe16e768d05)" d="M 57.6 119.980072 
L 414.72 119.980072 
L 414.72 119.980072 
" style="fill:none;stroke:#8c564b;stroke-linecap:square;stroke-width:1.5;"/>
   </g>
   <g id="patch_3">
    <path d="M 57.6 307.584 
L 57.6 41.472 
" style="fill:none;stroke:#000000;stroke-linecap:square;stroke-linejoin:miter;stroke-width:0.8;"/>
   </g>
   <g id="patch_4">
    <path d="M 414.72 307.584 
L 414.72 41.472 
" style="fill:none;stroke:#000000;stroke-linecap:square;stroke-linejoin:miter;stroke-width:0.8;"/>
   </g>
   <g id="patch_5">
    <path d="M 57.6 307.584 
L 414.72 307.584 
" style="fill:none;stroke:#000000;stroke-linecap:square;stroke-linejoin:miter;stroke-width:0.8;"/>
   </g>
   <g id="patch_6">
    <path d="M 57.6 41.472 
L 414.72 41.472 
" style="fill:none;stroke:#000000;stroke-linecap:square;stroke-linejoin:miter;stroke-width:0.8;"/>
   </g>
   <g id="text_16">
    <!-- Grafico valores desvio estandar esperados vs obtenidos -->
    <defs>
     <path d="M 59.515625 10.40625 
L 59.515625 29.984375 
L 43.40625 29.984375 
L 43.40625 38.09375 
L 69.28125 38.09375 
L 69.28125 6.78125 
Q 63.578125 2.734375 56.6875 0.65625 
Q 49.8125 -1.421875 42 -1.421875 
Q 24.90625 -1.421875 15.25 8.5625 
Q 5.609375 18.5625 5.609375 36.375 
Q 5.609375 54.25 15.25 64.234375 
Q 24.90625 74.21875 42 74.21875 
Q 49.125 74.21875 55.546875 72.453125 
Q 61.96875 70.703125 67.390625 67.28125 
L 67.390625 56.78125 
Q 61.921875 61.421875 55.765625 63.765625 
Q 49.609375 66.109375 42.828125 66.109375 
Q 29.4375 66.109375 22.71875 58.640625 
Q 16.015625 51.171875 16.015625 36.375 
Q 16.015625 21.625 22.71875 14.15625 
Q 29.4375 6.6875 42.828125 6.6875 
Q 48.046875 6.6875 52.140625 7.59375 
Q 56.25 8.5 59.515625 10.40625 
z
" id="DejaVuSans-47"/>
     <path d="M 37.109375 75.984375 
L 37.109375 68.5 
L 28.515625 68.5 
Q 23.6875 68.5 21.796875 66.546875 
Q 19.921875 64.59375 19.921875 59.515625 
L 19.921875 54.6875 
L 34.71875 54.6875 
L 34.71875 47.703125 
L 19.921875 47.703125 
L 19.921875 0 
L 10.890625 0 
L 10.890625 47.703125 
L 2.296875 47.703125 
L 2.296875 54.6875 
L 10.890625 54.6875 
L 10.890625 58.5 
Q 10.890625 67.625 15.140625 71.796875 
Q 19.390625 75.984375 28.609375 75.984375 
z
" id="DejaVuSans-66"/>
     <path d="M 48.78125 52.59375 
L 48.78125 44.1875 
Q 44.96875 46.296875 41.140625 47.34375 
Q 37.3125 48.390625 33.40625 48.390625 
Q 24.65625 48.390625 19.8125 42.84375 
Q 14.984375 37.3125 14.984375 27.296875 
Q 14.984375 17.28125 19.8125 11.734375 
Q 24.65625 6.203125 33.40625 6.203125 
Q 37.3125 6.203125 41.140625 7.25 
Q 44.96875 8.296875 48.78125 10.40625 
L 48.78125 2.09375 
Q 45.015625 0.34375 40.984375 -0.53125 
Q 36.96875 -1.421875 32.421875 -1.421875 
Q 20.0625 -1.421875 12.78125 6.34375 
Q 5.515625 14.109375 5.515625 27.296875 
Q 5.515625 40.671875 12.859375 48.328125 
Q 20.21875 56 33.015625 56 
Q 37.15625 56 41.109375 55.140625 
Q 45.0625 54.296875 48.78125 52.59375 
z
" id="DejaVuSans-63"/>
     <path d="M 18.109375 8.203125 
L 18.109375 -20.796875 
L 9.078125 -20.796875 
L 9.078125 54.6875 
L 18.109375 54.6875 
L 18.109375 46.390625 
Q 20.953125 51.265625 25.265625 53.625 
Q 29.59375 56 35.59375 56 
Q 45.5625 56 51.78125 48.09375 
Q 58.015625 40.1875 58.015625 27.296875 
Q 58.015625 14.40625 51.78125 6.484375 
Q 45.5625 -1.421875 35.59375 -1.421875 
Q 29.59375 -1.421875 25.265625 0.953125 
Q 20.953125 3.328125 18.109375 8.203125 
z
M 48.6875 27.296875 
Q 48.6875 37.203125 44.609375 42.84375 
Q 40.53125 48.484375 33.40625 48.484375 
Q 26.265625 48.484375 22.1875 42.84375 
Q 18.109375 37.203125 18.109375 27.296875 
Q 18.109375 17.390625 22.1875 11.75 
Q 26.265625 6.109375 33.40625 6.109375 
Q 40.53125 6.109375 44.609375 11.75 
Q 48.6875 17.390625 48.6875 27.296875 
z
" id="DejaVuSans-70"/>
     <path d="M 48.6875 27.296875 
Q 48.6875 37.203125 44.609375 42.84375 
Q 40.53125 48.484375 33.40625 48.484375 
Q 26.265625 48.484375 22.1875 42.84375 
Q 18.109375 37.203125 18.109375 27.296875 
Q 18.109375 17.390625 22.1875 11.75 
Q 26.265625 6.109375 33.40625 6.109375 
Q 40.53125 6.109375 44.609375 11.75 
Q 48.6875 17.390625 48.6875 27.296875 
z
M 18.109375 46.390625 
Q 20.953125 51.265625 25.265625 53.625 
Q 29.59375 56 35.59375 56 
Q 45.5625 56 51.78125 48.09375 
Q 58.015625 40.1875 58.015625 27.296875 
Q 58.015625 14.40625 51.78125 6.484375 
Q 45.5625 -1.421875 35.59375 -1.421875 
Q 29.59375 -1.421875 25.265625 0.953125 
Q 20.953125 3.328125 18.109375 8.203125 
L 18.109375 0 
L 9.078125 0 
L 9.078125 75.984375 
L 18.109375 75.984375 
z
" id="DejaVuSans-62"/>
    </defs>
    <g transform="translate(67.866563 35.472)scale(0.12 -0.12)">
     <use xlink:href="#DejaVuSans-47"/>
     <use x="77.490234" xlink:href="#DejaVuSans-72"/>
     <use x="118.603516" xlink:href="#DejaVuSans-61"/>
     <use x="179.882812" xlink:href="#DejaVuSans-66"/>
     <use x="215.087891" xlink:href="#DejaVuSans-69"/>
     <use x="242.871094" xlink:href="#DejaVuSans-63"/>
     <use x="297.851562" xlink:href="#DejaVuSans-6f"/>
     <use x="359.033203" xlink:href="#DejaVuSans-20"/>
     <use x="390.820312" xlink:href="#DejaVuSans-76"/>
     <use x="450" xlink:href="#DejaVuSans-61"/>
     <use x="511.279297" xlink:href="#DejaVuSans-6c"/>
     <use x="539.0625" xlink:href="#DejaVuSans-6f"/>
     <use x="600.244141" xlink:href="#DejaVuSans-72"/>
     <use x="641.326172" xlink:href="#DejaVuSans-65"/>
     <use x="702.849609" xlink:href="#DejaVuSans-73"/>
     <use x="754.949219" xlink:href="#DejaVuSans-20"/>
     <use x="786.736328" xlink:href="#DejaVuSans-64"/>
     <use x="850.212891" xlink:href="#DejaVuSans-65"/>
     <use x="911.736328" xlink:href="#DejaVuSans-73"/>
     <use x="963.835938" xlink:href="#DejaVuSans-76"/>
     <use x="1023.015625" xlink:href="#DejaVuSans-69"/>
     <use x="1050.798828" xlink:href="#DejaVuSans-6f"/>
     <use x="1111.980469" xlink:href="#DejaVuSans-20"/>
     <use x="1143.767578" xlink:href="#DejaVuSans-65"/>
     <use x="1205.291016" xlink:href="#DejaVuSans-73"/>
     <use x="1257.390625" xlink:href="#DejaVuSans-74"/>
     <use x="1296.599609" xlink:href="#DejaVuSans-61"/>
     <use x="1357.878906" xlink:href="#DejaVuSans-6e"/>
     <use x="1421.257812" xlink:href="#DejaVuSans-64"/>
     <use x="1484.734375" xlink:href="#DejaVuSans-61"/>
     <use x="1546.013672" xlink:href="#DejaVuSans-72"/>
     <use x="1587.126953" xlink:href="#DejaVuSans-20"/>
     <use x="1618.914062" xlink:href="#DejaVuSans-65"/>
     <use x="1680.4375" xlink:href="#DejaVuSans-73"/>
     <use x="1732.537109" xlink:href="#DejaVuSans-70"/>
     <use x="1796.013672" xlink:href="#DejaVuSans-65"/>
     <use x="1857.537109" xlink:href="#DejaVuSans-72"/>
     <use x="1898.650391" xlink:href="#DejaVuSans-61"/>
     <use x="1959.929688" xlink:href="#DejaVuSans-64"/>
     <use x="2023.40625" xlink:href="#DejaVuSans-6f"/>
     <use x="2084.587891" xlink:href="#DejaVuSans-73"/>
     <use x="2136.6875" xlink:href="#DejaVuSans-20"/>
     <use x="2168.474609" xlink:href="#DejaVuSans-76"/>
     <use x="2227.654297" xlink:href="#DejaVuSans-73"/>
     <use x="2279.753906" xlink:href="#DejaVuSans-20"/>
     <use x="2311.541016" xlink:href="#DejaVuSans-6f"/>
     <use x="2372.722656" xlink:href="#DejaVuSans-62"/>
     <use x="2436.199219" xlink:href="#DejaVuSans-74"/>
     <use x="2475.408203" xlink:href="#DejaVuSans-65"/>
     <use x="2536.931641" xlink:href="#DejaVuSans-6e"/>
     <use x="2600.310547" xlink:href="#DejaVuSans-69"/>
     <use x="2628.09375" xlink:href="#DejaVuSans-64"/>
     <use x="2691.570312" xlink:href="#DejaVuSans-6f"/>
     <use x="2752.751953" xlink:href="#DejaVuSans-73"/>
    </g>
   </g>
   <g id="legend_1">
    <g id="patch_7">
     <path d="M 64.6 302.584 
L 215.1125 302.584 
Q 217.1125 302.584 217.1125 300.584 
L 217.1125 213.51525 
Q 217.1125 211.51525 215.1125 211.51525 
L 64.6 211.51525 
Q 62.6 211.51525 62.6 213.51525 
L 62.6 300.584 
Q 62.6 302.584 64.6 302.584 
z
" style="fill:#ffffff;opacity:0.8;stroke:#cccccc;stroke-linejoin:miter;"/>
    </g>
    <g id="line2d_20">
     <path d="M 66.6 219.613687 
L 86.6 219.613687 
" style="fill:none;stroke:#1f77b4;stroke-linecap:square;stroke-width:1.5;"/>
    </g>
    <g id="line2d_21"/>
    <g id="text_17">
     <!-- Valor desvio 1 obtenido -->
     <g transform="translate(94.6 223.113687)scale(0.1 -0.1)">
      <use xlink:href="#DejaVuSans-56"/>
      <use x="68.298828" xlink:href="#DejaVuSans-61"/>
      <use x="129.578125" xlink:href="#DejaVuSans-6c"/>
      <use x="157.361328" xlink:href="#DejaVuSans-6f"/>
      <use x="218.542969" xlink:href="#DejaVuSans-72"/>
      <use x="259.65625" xlink:href="#DejaVuSans-20"/>
      <use x="291.443359" xlink:href="#DejaVuSans-64"/>
      <use x="354.919922" xlink:href="#DejaVuSans-65"/>
      <use x="416.443359" xlink:href="#DejaVuSans-73"/>
      <use x="468.542969" xlink:href="#DejaVuSans-76"/>
      <use x="527.722656" xlink:href="#DejaVuSans-69"/>
      <use x="555.505859" xlink:href="#DejaVuSans-6f"/>
      <use x="616.6875" xlink:href="#DejaVuSans-20"/>
      <use x="648.474609" xlink:href="#DejaVuSans-31"/>
      <use x="712.097656" xlink:href="#DejaVuSans-20"/>
      <use x="743.884766" xlink:href="#DejaVuSans-6f"/>
      <use x="805.066406" xlink:href="#DejaVuSans-62"/>
      <use x="868.542969" xlink:href="#DejaVuSans-74"/>
      <use x="907.751953" xlink:href="#DejaVuSans-65"/>
      <use x="969.275391" xlink:href="#DejaVuSans-6e"/>
      <use x="1032.654297" xlink:href="#DejaVuSans-69"/>
      <use x="1060.4375" xlink:href="#DejaVuSans-64"/>
      <use x="1123.914062" xlink:href="#DejaVuSans-6f"/>
     </g>
    </g>
    <g id="line2d_22">
     <path d="M 66.6 234.291812 
L 86.6 234.291812 
" style="fill:none;stroke:#ff7f0e;stroke-linecap:square;stroke-width:1.5;"/>
    </g>
    <g id="line2d_23"/>
    <g id="text_18">
     <!-- Valor desvio 2 obtenido -->
     <g transform="translate(94.6 237.791812)scale(0.1 -0.1)">
      <use xlink:href="#DejaVuSans-56"/>
      <use x="68.298828" xlink:href="#DejaVuSans-61"/>
      <use x="129.578125" xlink:href="#DejaVuSans-6c"/>
      <use x="157.361328" xlink:href="#DejaVuSans-6f"/>
      <use x="218.542969" xlink:href="#DejaVuSans-72"/>
      <use x="259.65625" xlink:href="#DejaVuSans-20"/>
      <use x="291.443359" xlink:href="#DejaVuSans-64"/>
      <use x="354.919922" xlink:href="#DejaVuSans-65"/>
      <use x="416.443359" xlink:href="#DejaVuSans-73"/>
      <use x="468.542969" xlink:href="#DejaVuSans-76"/>
      <use x="527.722656" xlink:href="#DejaVuSans-69"/>
      <use x="555.505859" xlink:href="#DejaVuSans-6f"/>
      <use x="616.6875" xlink:href="#DejaVuSans-20"/>
      <use x="648.474609" xlink:href="#DejaVuSans-32"/>
      <use x="712.097656" xlink:href="#DejaVuSans-20"/>
      <use x="743.884766" xlink:href="#DejaVuSans-6f"/>
      <use x="805.066406" xlink:href="#DejaVuSans-62"/>
      <use x="868.542969" xlink:href="#DejaVuSans-74"/>
      <use x="907.751953" xlink:href="#DejaVuSans-65"/>
      <use x="969.275391" xlink:href="#DejaVuSans-6e"/>
      <use x="1032.654297" xlink:href="#DejaVuSans-69"/>
      <use x="1060.4375" xlink:href="#DejaVuSans-64"/>
      <use x="1123.914062" xlink:href="#DejaVuSans-6f"/>
     </g>
    </g>
    <g id="line2d_24">
     <path d="M 66.6 248.969937 
L 86.6 248.969937 
" style="fill:none;stroke:#2ca02c;stroke-linecap:square;stroke-width:1.5;"/>
    </g>
    <g id="line2d_25"/>
    <g id="text_19">
     <!-- Valor desvio 3 obtenido -->
     <g transform="translate(94.6 252.469937)scale(0.1 -0.1)">
      <use xlink:href="#DejaVuSans-56"/>
      <use x="68.298828" xlink:href="#DejaVuSans-61"/>
      <use x="129.578125" xlink:href="#DejaVuSans-6c"/>
      <use x="157.361328" xlink:href="#DejaVuSans-6f"/>
      <use x="218.542969" xlink:href="#DejaVuSans-72"/>
      <use x="259.65625" xlink:href="#DejaVuSans-20"/>
      <use x="291.443359" xlink:href="#DejaVuSans-64"/>
      <use x="354.919922" xlink:href="#DejaVuSans-65"/>
      <use x="416.443359" xlink:href="#DejaVuSans-73"/>
      <use x="468.542969" xlink:href="#DejaVuSans-76"/>
      <use x="527.722656" xlink:href="#DejaVuSans-69"/>
      <use x="555.505859" xlink:href="#DejaVuSans-6f"/>
      <use x="616.6875" xlink:href="#DejaVuSans-20"/>
      <use x="648.474609" xlink:href="#DejaVuSans-33"/>
      <use x="712.097656" xlink:href="#DejaVuSans-20"/>
      <use x="743.884766" xlink:href="#DejaVuSans-6f"/>
      <use x="805.066406" xlink:href="#DejaVuSans-62"/>
      <use x="868.542969" xlink:href="#DejaVuSans-74"/>
      <use x="907.751953" xlink:href="#DejaVuSans-65"/>
      <use x="969.275391" xlink:href="#DejaVuSans-6e"/>
      <use x="1032.654297" xlink:href="#DejaVuSans-69"/>
      <use x="1060.4375" xlink:href="#DejaVuSans-64"/>
      <use x="1123.914062" xlink:href="#DejaVuSans-6f"/>
     </g>
    </g>
    <g id="line2d_26">
     <path d="M 66.6 263.648062 
L 86.6 263.648062 
" style="fill:none;stroke:#d62728;stroke-linecap:square;stroke-width:1.5;"/>
    </g>
    <g id="line2d_27"/>
    <g id="text_20">
     <!-- Valor desvio 4 obtenido -->
     <g transform="translate(94.6 267.148062)scale(0.1 -0.1)">
      <use xlink:href="#DejaVuSans-56"/>
      <use x="68.298828" xlink:href="#DejaVuSans-61"/>
      <use x="129.578125" xlink:href="#DejaVuSans-6c"/>
      <use x="157.361328" xlink:href="#DejaVuSans-6f"/>
      <use x="218.542969" xlink:href="#DejaVuSans-72"/>
      <use x="259.65625" xlink:href="#DejaVuSans-20"/>
      <use x="291.443359" xlink:href="#DejaVuSans-64"/>
      <use x="354.919922" xlink:href="#DejaVuSans-65"/>
      <use x="416.443359" xlink:href="#DejaVuSans-73"/>
      <use x="468.542969" xlink:href="#DejaVuSans-76"/>
      <use x="527.722656" xlink:href="#DejaVuSans-69"/>
      <use x="555.505859" xlink:href="#DejaVuSans-6f"/>
      <use x="616.6875" xlink:href="#DejaVuSans-20"/>
      <use x="648.474609" xlink:href="#DejaVuSans-34"/>
      <use x="712.097656" xlink:href="#DejaVuSans-20"/>
      <use x="743.884766" xlink:href="#DejaVuSans-6f"/>
      <use x="805.066406" xlink:href="#DejaVuSans-62"/>
      <use x="868.542969" xlink:href="#DejaVuSans-74"/>
      <use x="907.751953" xlink:href="#DejaVuSans-65"/>
      <use x="969.275391" xlink:href="#DejaVuSans-6e"/>
      <use x="1032.654297" xlink:href="#DejaVuSans-69"/>
      <use x="1060.4375" xlink:href="#DejaVuSans-64"/>
      <use x="1123.914062" xlink:href="#DejaVuSans-6f"/>
     </g>
    </g>
    <g id="line2d_28">
     <path d="M 66.6 278.326188 
L 86.6 278.326188 
" style="fill:none;stroke:#9467bd;stroke-linecap:square;stroke-width:1.5;"/>
    </g>
    <g id="line2d_29"/>
    <g id="text_21">
     <!-- Valor desvio 5 obtenido -->
     <g transform="translate(94.6 281.826188)scale(0.1 -0.1)">
      <use xlink:href="#DejaVuSans-56"/>
      <use x="68.298828" xlink:href="#DejaVuSans-61"/>
      <use x="129.578125" xlink:href="#DejaVuSans-6c"/>
      <use x="157.361328" xlink:href="#DejaVuSans-6f"/>
      <use x="218.542969" xlink:href="#DejaVuSans-72"/>
      <use x="259.65625" xlink:href="#DejaVuSans-20"/>
      <use x="291.443359" xlink:href="#DejaVuSans-64"/>
      <use x="354.919922" xlink:href="#DejaVuSans-65"/>
      <use x="416.443359" xlink:href="#DejaVuSans-73"/>
      <use x="468.542969" xlink:href="#DejaVuSans-76"/>
      <use x="527.722656" xlink:href="#DejaVuSans-69"/>
      <use x="555.505859" xlink:href="#DejaVuSans-6f"/>
      <use x="616.6875" xlink:href="#DejaVuSans-20"/>
      <use x="648.474609" xlink:href="#DejaVuSans-35"/>
      <use x="712.097656" xlink:href="#DejaVuSans-20"/>
      <use x="743.884766" xlink:href="#DejaVuSans-6f"/>
      <use x="805.066406" xlink:href="#DejaVuSans-62"/>
      <use x="868.542969" xlink:href="#DejaVuSans-74"/>
      <use x="907.751953" xlink:href="#DejaVuSans-65"/>
      <use x="969.275391" xlink:href="#DejaVuSans-6e"/>
      <use x="1032.654297" xlink:href="#DejaVuSans-69"/>
      <use x="1060.4375" xlink:href="#DejaVuSans-64"/>
      <use x="1123.914062" xlink:href="#DejaVuSans-6f"/>
     </g>
    </g>
    <g id="line2d_30">
     <path d="M 66.6 293.004312 
L 86.6 293.004312 
" style="fill:none;stroke:#8c564b;stroke-linecap:square;stroke-width:1.5;"/>
    </g>
    <g id="line2d_31"/>
    <g id="text_22">
     <!-- Valor desvio esperado -->
     <g transform="translate(94.6 296.504312)scale(0.1 -0.1)">
      <use xlink:href="#DejaVuSans-56"/>
      <use x="68.298828" xlink:href="#DejaVuSans-61"/>
      <use x="129.578125" xlink:href="#DejaVuSans-6c"/>
      <use x="157.361328" xlink:href="#DejaVuSans-6f"/>
      <use x="218.542969" xlink:href="#DejaVuSans-72"/>
      <use x="259.65625" xlink:href="#DejaVuSans-20"/>
      <use x="291.443359" xlink:href="#DejaVuSans-64"/>
      <use x="354.919922" xlink:href="#DejaVuSans-65"/>
      <use x="416.443359" xlink:href="#DejaVuSans-73"/>
      <use x="468.542969" xlink:href="#DejaVuSans-76"/>
      <use x="527.722656" xlink:href="#DejaVuSans-69"/>
      <use x="555.505859" xlink:href="#DejaVuSans-6f"/>
      <use x="616.6875" xlink:href="#DejaVuSans-20"/>
      <use x="648.474609" xlink:href="#DejaVuSans-65"/>
      <use x="709.998047" xlink:href="#DejaVuSans-73"/>
      <use x="762.097656" xlink:href="#DejaVuSans-70"/>
      <use x="825.574219" xlink:href="#DejaVuSans-65"/>
      <use x="887.097656" xlink:href="#DejaVuSans-72"/>
      <use x="928.210938" xlink:href="#DejaVuSans-61"/>
      <use x="989.490234" xlink:href="#DejaVuSans-64"/>
      <use x="1052.966797" xlink:href="#DejaVuSans-6f"/>
     </g>
    </g>
   </g>
  </g>
 </g>
 <defs>
  <clipPath id="pe16e768d05">
   <rect height="266.112" width="357.12" x="57.6" y="41.472"/>
  </clipPath>
 </defs>
</svg>
