<?xml version="1.0" encoding="utf-8" standalone="no"?>
<!DOCTYPE svg PUBLIC "-//W3C//DTD SVG 1.1//EN"
  "http://www.w3.org/Graphics/SVG/1.1/DTD/svg11.dtd">
<!-- Created with matplotlib (http://matplotlib.org/) -->
<svg height="345.6pt" version="1.1" viewBox="0 0 460.8 345.6" width="460.8pt" xmlns="http://www.w3.org/2000/svg" xmlns:xlink="http://www.w3.org/1999/xlink">
 <defs>
  <style type="text/css">
*{stroke-linecap:butt;stroke-linejoin:round;}
  </style>
 </defs>
 <g id="figure_1">
  <g id="patch_1">
   <path d="M 0 345.6 
L 460.8 345.6 
L 460.8 0 
L 0 0 
z
" style="fill:#ffffff;"/>
  </g>
  <g id="axes_1">
   <g id="patch_2">
    <path d="M 57.6 307.584 
L 414.72 307.584 
L 414.72 41.472 
L 57.6 41.472 
z
" style="fill:#ffffff;"/>
   </g>
   <g id="matplotlib.axis_1">
    <g id="xtick_1">
     <g id="line2d_1">
      <defs>
       <path d="M 0 0 
L 0 3.5 
" id="m04495f127f" style="stroke:#000000;stroke-width:0.8;"/>
      </defs>
      <g>
       <use style="stroke:#000000;stroke-width:0.8;" x="57.361761" xlink:href="#m04495f127f" y="307.584"/>
      </g>
     </g>
     <g id="text_1">
      <!-- 0 -->
      <defs>
       <path d="M 31.78125 66.40625 
Q 24.171875 66.40625 20.328125 58.90625 
Q 16.5 51.421875 16.5 36.375 
Q 16.5 21.390625 20.328125 13.890625 
Q 24.171875 6.390625 31.78125 6.390625 
Q 39.453125 6.390625 43.28125 13.890625 
Q 47.125 21.390625 47.125 36.375 
Q 47.125 51.421875 43.28125 58.90625 
Q 39.453125 66.40625 31.78125 66.40625 
z
M 31.78125 74.21875 
Q 44.046875 74.21875 50.515625 64.515625 
Q 56.984375 54.828125 56.984375 36.375 
Q 56.984375 17.96875 50.515625 8.265625 
Q 44.046875 -1.421875 31.78125 -1.421875 
Q 19.53125 -1.421875 13.0625 8.265625 
Q 6.59375 17.96875 6.59375 36.375 
Q 6.59375 54.828125 13.0625 64.515625 
Q 19.53125 74.21875 31.78125 74.21875 
z
" id="DejaVuSans-30"/>
      </defs>
      <g transform="translate(54.180511 322.182437)scale(0.1 -0.1)">
       <use xlink:href="#DejaVuSans-30"/>
      </g>
     </g>
    </g>
    <g id="xtick_2">
     <g id="line2d_2">
      <g>
       <use style="stroke:#000000;stroke-width:0.8;" x="105.009526" xlink:href="#m04495f127f" y="307.584"/>
      </g>
     </g>
     <g id="text_2">
      <!-- 200 -->
      <defs>
       <path d="M 19.1875 8.296875 
L 53.609375 8.296875 
L 53.609375 0 
L 7.328125 0 
L 7.328125 8.296875 
Q 12.9375 14.109375 22.625 23.890625 
Q 32.328125 33.6875 34.8125 36.53125 
Q 39.546875 41.84375 41.421875 45.53125 
Q 43.3125 49.21875 43.3125 52.78125 
Q 43.3125 58.59375 39.234375 62.25 
Q 35.15625 65.921875 28.609375 65.921875 
Q 23.96875 65.921875 18.8125 64.3125 
Q 13.671875 62.703125 7.8125 59.421875 
L 7.8125 69.390625 
Q 13.765625 71.78125 18.9375 73 
Q 24.125 74.21875 28.421875 74.21875 
Q 39.75 74.21875 46.484375 68.546875 
Q 53.21875 62.890625 53.21875 53.421875 
Q 53.21875 48.921875 51.53125 44.890625 
Q 49.859375 40.875 45.40625 35.40625 
Q 44.1875 33.984375 37.640625 27.21875 
Q 31.109375 20.453125 19.1875 8.296875 
z
" id="DejaVuSans-32"/>
      </defs>
      <g transform="translate(95.465776 322.182437)scale(0.1 -0.1)">
       <use xlink:href="#DejaVuSans-32"/>
       <use x="63.623047" xlink:href="#DejaVuSans-30"/>
       <use x="127.246094" xlink:href="#DejaVuSans-30"/>
      </g>
     </g>
    </g>
    <g id="xtick_3">
     <g id="line2d_3">
      <g>
       <use style="stroke:#000000;stroke-width:0.8;" x="152.657292" xlink:href="#m04495f127f" y="307.584"/>
      </g>
     </g>
     <g id="text_3">
      <!-- 400 -->
      <defs>
       <path d="M 37.796875 64.3125 
L 12.890625 25.390625 
L 37.796875 25.390625 
z
M 35.203125 72.90625 
L 47.609375 72.90625 
L 47.609375 25.390625 
L 58.015625 25.390625 
L 58.015625 17.1875 
L 47.609375 17.1875 
L 47.609375 0 
L 37.796875 0 
L 37.796875 17.1875 
L 4.890625 17.1875 
L 4.890625 26.703125 
z
" id="DejaVuSans-34"/>
      </defs>
      <g transform="translate(143.113542 322.182437)scale(0.1 -0.1)">
       <use xlink:href="#DejaVuSans-34"/>
       <use x="63.623047" xlink:href="#DejaVuSans-30"/>
       <use x="127.246094" xlink:href="#DejaVuSans-30"/>
      </g>
     </g>
    </g>
    <g id="xtick_4">
     <g id="line2d_4">
      <g>
       <use style="stroke:#000000;stroke-width:0.8;" x="200.305057" xlink:href="#m04495f127f" y="307.584"/>
      </g>
     </g>
     <g id="text_4">
      <!-- 600 -->
      <defs>
       <path d="M 33.015625 40.375 
Q 26.375 40.375 22.484375 35.828125 
Q 18.609375 31.296875 18.609375 23.390625 
Q 18.609375 15.53125 22.484375 10.953125 
Q 26.375 6.390625 33.015625 6.390625 
Q 39.65625 6.390625 43.53125 10.953125 
Q 47.40625 15.53125 47.40625 23.390625 
Q 47.40625 31.296875 43.53125 35.828125 
Q 39.65625 40.375 33.015625 40.375 
z
M 52.59375 71.296875 
L 52.59375 62.3125 
Q 48.875 64.0625 45.09375 64.984375 
Q 41.3125 65.921875 37.59375 65.921875 
Q 27.828125 65.921875 22.671875 59.328125 
Q 17.53125 52.734375 16.796875 39.40625 
Q 19.671875 43.65625 24.015625 45.921875 
Q 28.375 48.1875 33.59375 48.1875 
Q 44.578125 48.1875 50.953125 41.515625 
Q 57.328125 34.859375 57.328125 23.390625 
Q 57.328125 12.15625 50.6875 5.359375 
Q 44.046875 -1.421875 33.015625 -1.421875 
Q 20.359375 -1.421875 13.671875 8.265625 
Q 6.984375 17.96875 6.984375 36.375 
Q 6.984375 53.65625 15.1875 63.9375 
Q 23.390625 74.21875 37.203125 74.21875 
Q 40.921875 74.21875 44.703125 73.484375 
Q 48.484375 72.75 52.59375 71.296875 
z
" id="DejaVuSans-36"/>
      </defs>
      <g transform="translate(190.761307 322.182437)scale(0.1 -0.1)">
       <use xlink:href="#DejaVuSans-36"/>
       <use x="63.623047" xlink:href="#DejaVuSans-30"/>
       <use x="127.246094" xlink:href="#DejaVuSans-30"/>
      </g>
     </g>
    </g>
    <g id="xtick_5">
     <g id="line2d_5">
      <g>
       <use style="stroke:#000000;stroke-width:0.8;" x="247.952822" xlink:href="#m04495f127f" y="307.584"/>
      </g>
     </g>
     <g id="text_5">
      <!-- 800 -->
      <defs>
       <path d="M 31.78125 34.625 
Q 24.75 34.625 20.71875 30.859375 
Q 16.703125 27.09375 16.703125 20.515625 
Q 16.703125 13.921875 20.71875 10.15625 
Q 24.75 6.390625 31.78125 6.390625 
Q 38.8125 6.390625 42.859375 10.171875 
Q 46.921875 13.96875 46.921875 20.515625 
Q 46.921875 27.09375 42.890625 30.859375 
Q 38.875 34.625 31.78125 34.625 
z
M 21.921875 38.8125 
Q 15.578125 40.375 12.03125 44.71875 
Q 8.5 49.078125 8.5 55.328125 
Q 8.5 64.0625 14.71875 69.140625 
Q 20.953125 74.21875 31.78125 74.21875 
Q 42.671875 74.21875 48.875 69.140625 
Q 55.078125 64.0625 55.078125 55.328125 
Q 55.078125 49.078125 51.53125 44.71875 
Q 48 40.375 41.703125 38.8125 
Q 48.828125 37.15625 52.796875 32.3125 
Q 56.78125 27.484375 56.78125 20.515625 
Q 56.78125 9.90625 50.3125 4.234375 
Q 43.84375 -1.421875 31.78125 -1.421875 
Q 19.734375 -1.421875 13.25 4.234375 
Q 6.78125 9.90625 6.78125 20.515625 
Q 6.78125 27.484375 10.78125 32.3125 
Q 14.796875 37.15625 21.921875 38.8125 
z
M 18.3125 54.390625 
Q 18.3125 48.734375 21.84375 45.5625 
Q 25.390625 42.390625 31.78125 42.390625 
Q 38.140625 42.390625 41.71875 45.5625 
Q 45.3125 48.734375 45.3125 54.390625 
Q 45.3125 60.0625 41.71875 63.234375 
Q 38.140625 66.40625 31.78125 66.40625 
Q 25.390625 66.40625 21.84375 63.234375 
Q 18.3125 60.0625 18.3125 54.390625 
z
" id="DejaVuSans-38"/>
      </defs>
      <g transform="translate(238.409072 322.182437)scale(0.1 -0.1)">
       <use xlink:href="#DejaVuSans-38"/>
       <use x="63.623047" xlink:href="#DejaVuSans-30"/>
       <use x="127.246094" xlink:href="#DejaVuSans-30"/>
      </g>
     </g>
    </g>
    <g id="xtick_6">
     <g id="line2d_6">
      <g>
       <use style="stroke:#000000;stroke-width:0.8;" x="295.600587" xlink:href="#m04495f127f" y="307.584"/>
      </g>
     </g>
     <g id="text_6">
      <!-- 1000 -->
      <defs>
       <path d="M 12.40625 8.296875 
L 28.515625 8.296875 
L 28.515625 63.921875 
L 10.984375 60.40625 
L 10.984375 69.390625 
L 28.421875 72.90625 
L 38.28125 72.90625 
L 38.28125 8.296875 
L 54.390625 8.296875 
L 54.390625 0 
L 12.40625 0 
z
" id="DejaVuSans-31"/>
      </defs>
      <g transform="translate(282.875587 322.182437)scale(0.1 -0.1)">
       <use xlink:href="#DejaVuSans-31"/>
       <use x="63.623047" xlink:href="#DejaVuSans-30"/>
       <use x="127.246094" xlink:href="#DejaVuSans-30"/>
       <use x="190.869141" xlink:href="#DejaVuSans-30"/>
      </g>
     </g>
    </g>
    <g id="xtick_7">
     <g id="line2d_7">
      <g>
       <use style="stroke:#000000;stroke-width:0.8;" x="343.248352" xlink:href="#m04495f127f" y="307.584"/>
      </g>
     </g>
     <g id="text_7">
      <!-- 1200 -->
      <g transform="translate(330.523352 322.182437)scale(0.1 -0.1)">
       <use xlink:href="#DejaVuSans-31"/>
       <use x="63.623047" xlink:href="#DejaVuSans-32"/>
       <use x="127.246094" xlink:href="#DejaVuSans-30"/>
       <use x="190.869141" xlink:href="#DejaVuSans-30"/>
      </g>
     </g>
    </g>
    <g id="xtick_8">
     <g id="line2d_8">
      <g>
       <use style="stroke:#000000;stroke-width:0.8;" x="390.896117" xlink:href="#m04495f127f" y="307.584"/>
      </g>
     </g>
     <g id="text_8">
      <!-- 1400 -->
      <g transform="translate(378.171117 322.182437)scale(0.1 -0.1)">
       <use xlink:href="#DejaVuSans-31"/>
       <use x="63.623047" xlink:href="#DejaVuSans-34"/>
       <use x="127.246094" xlink:href="#DejaVuSans-30"/>
       <use x="190.869141" xlink:href="#DejaVuSans-30"/>
      </g>
     </g>
    </g>
    <g id="text_9">
     <!-- Tiradas -->
     <defs>
      <path d="M -0.296875 72.90625 
L 61.375 72.90625 
L 61.375 64.59375 
L 35.5 64.59375 
L 35.5 0 
L 25.59375 0 
L 25.59375 64.59375 
L -0.296875 64.59375 
z
" id="DejaVuSans-54"/>
      <path d="M 9.421875 54.6875 
L 18.40625 54.6875 
L 18.40625 0 
L 9.421875 0 
z
M 9.421875 75.984375 
L 18.40625 75.984375 
L 18.40625 64.59375 
L 9.421875 64.59375 
z
" id="DejaVuSans-69"/>
      <path d="M 41.109375 46.296875 
Q 39.59375 47.171875 37.8125 47.578125 
Q 36.03125 48 33.890625 48 
Q 26.265625 48 22.1875 43.046875 
Q 18.109375 38.09375 18.109375 28.8125 
L 18.109375 0 
L 9.078125 0 
L 9.078125 54.6875 
L 18.109375 54.6875 
L 18.109375 46.1875 
Q 20.953125 51.171875 25.484375 53.578125 
Q 30.03125 56 36.53125 56 
Q 37.453125 56 38.578125 55.875 
Q 39.703125 55.765625 41.0625 55.515625 
z
" id="DejaVuSans-72"/>
      <path d="M 34.28125 27.484375 
Q 23.390625 27.484375 19.1875 25 
Q 14.984375 22.515625 14.984375 16.5 
Q 14.984375 11.71875 18.140625 8.90625 
Q 21.296875 6.109375 26.703125 6.109375 
Q 34.1875 6.109375 38.703125 11.40625 
Q 43.21875 16.703125 43.21875 25.484375 
L 43.21875 27.484375 
z
M 52.203125 31.203125 
L 52.203125 0 
L 43.21875 0 
L 43.21875 8.296875 
Q 40.140625 3.328125 35.546875 0.953125 
Q 30.953125 -1.421875 24.3125 -1.421875 
Q 15.921875 -1.421875 10.953125 3.296875 
Q 6 8.015625 6 15.921875 
Q 6 25.140625 12.171875 29.828125 
Q 18.359375 34.515625 30.609375 34.515625 
L 43.21875 34.515625 
L 43.21875 35.40625 
Q 43.21875 41.609375 39.140625 45 
Q 35.0625 48.390625 27.6875 48.390625 
Q 23 48.390625 18.546875 47.265625 
Q 14.109375 46.140625 10.015625 43.890625 
L 10.015625 52.203125 
Q 14.9375 54.109375 19.578125 55.046875 
Q 24.21875 56 28.609375 56 
Q 40.484375 56 46.34375 49.84375 
Q 52.203125 43.703125 52.203125 31.203125 
z
" id="DejaVuSans-61"/>
      <path d="M 45.40625 46.390625 
L 45.40625 75.984375 
L 54.390625 75.984375 
L 54.390625 0 
L 45.40625 0 
L 45.40625 8.203125 
Q 42.578125 3.328125 38.25 0.953125 
Q 33.9375 -1.421875 27.875 -1.421875 
Q 17.96875 -1.421875 11.734375 6.484375 
Q 5.515625 14.40625 5.515625 27.296875 
Q 5.515625 40.1875 11.734375 48.09375 
Q 17.96875 56 27.875 56 
Q 33.9375 56 38.25 53.625 
Q 42.578125 51.265625 45.40625 46.390625 
z
M 14.796875 27.296875 
Q 14.796875 17.390625 18.875 11.75 
Q 22.953125 6.109375 30.078125 6.109375 
Q 37.203125 6.109375 41.296875 11.75 
Q 45.40625 17.390625 45.40625 27.296875 
Q 45.40625 37.203125 41.296875 42.84375 
Q 37.203125 48.484375 30.078125 48.484375 
Q 22.953125 48.484375 18.875 42.84375 
Q 14.796875 37.203125 14.796875 27.296875 
z
" id="DejaVuSans-64"/>
      <path d="M 44.28125 53.078125 
L 44.28125 44.578125 
Q 40.484375 46.53125 36.375 47.5 
Q 32.28125 48.484375 27.875 48.484375 
Q 21.1875 48.484375 17.84375 46.4375 
Q 14.5 44.390625 14.5 40.28125 
Q 14.5 37.15625 16.890625 35.375 
Q 19.28125 33.59375 26.515625 31.984375 
L 29.59375 31.296875 
Q 39.15625 29.25 43.1875 25.515625 
Q 47.21875 21.78125 47.21875 15.09375 
Q 47.21875 7.46875 41.1875 3.015625 
Q 35.15625 -1.421875 24.609375 -1.421875 
Q 20.21875 -1.421875 15.453125 -0.5625 
Q 10.6875 0.296875 5.421875 2 
L 5.421875 11.28125 
Q 10.40625 8.6875 15.234375 7.390625 
Q 20.0625 6.109375 24.8125 6.109375 
Q 31.15625 6.109375 34.5625 8.28125 
Q 37.984375 10.453125 37.984375 14.40625 
Q 37.984375 18.0625 35.515625 20.015625 
Q 33.0625 21.96875 24.703125 23.78125 
L 21.578125 24.515625 
Q 13.234375 26.265625 9.515625 29.90625 
Q 5.8125 33.546875 5.8125 39.890625 
Q 5.8125 47.609375 11.28125 51.796875 
Q 16.75 56 26.8125 56 
Q 31.78125 56 36.171875 55.265625 
Q 40.578125 54.546875 44.28125 53.078125 
z
" id="DejaVuSans-73"/>
     </defs>
     <g transform="translate(217.756875 335.860562)scale(0.1 -0.1)">
      <use xlink:href="#DejaVuSans-54"/>
      <use x="61.037109" xlink:href="#DejaVuSans-69"/>
      <use x="88.820312" xlink:href="#DejaVuSans-72"/>
      <use x="129.933594" xlink:href="#DejaVuSans-61"/>
      <use x="191.212891" xlink:href="#DejaVuSans-64"/>
      <use x="254.689453" xlink:href="#DejaVuSans-61"/>
      <use x="315.96875" xlink:href="#DejaVuSans-73"/>
     </g>
    </g>
   </g>
   <g id="matplotlib.axis_2">
    <g id="ytick_1">
     <g id="line2d_9">
      <defs>
       <path d="M 0 0 
L -3.5 0 
" id="mcc1d6459cc" style="stroke:#000000;stroke-width:0.8;"/>
      </defs>
      <g>
       <use style="stroke:#000000;stroke-width:0.8;" x="57.6" xlink:href="#mcc1d6459cc" y="295.488"/>
      </g>
     </g>
     <g id="text_10">
      <!-- 0 -->
      <g transform="translate(44.2375 299.287219)scale(0.1 -0.1)">
       <use xlink:href="#DejaVuSans-30"/>
      </g>
     </g>
    </g>
    <g id="ytick_2">
     <g id="line2d_10">
      <g>
       <use style="stroke:#000000;stroke-width:0.8;" x="57.6" xlink:href="#mcc1d6459cc" y="261.146044"/>
      </g>
     </g>
     <g id="text_11">
      <!-- 20 -->
      <g transform="translate(37.875 264.945263)scale(0.1 -0.1)">
       <use xlink:href="#DejaVuSans-32"/>
       <use x="63.623047" xlink:href="#DejaVuSans-30"/>
      </g>
     </g>
    </g>
    <g id="ytick_3">
     <g id="line2d_11">
      <g>
       <use style="stroke:#000000;stroke-width:0.8;" x="57.6" xlink:href="#mcc1d6459cc" y="226.804088"/>
      </g>
     </g>
     <g id="text_12">
      <!-- 40 -->
      <g transform="translate(37.875 230.603307)scale(0.1 -0.1)">
       <use xlink:href="#DejaVuSans-34"/>
       <use x="63.623047" xlink:href="#DejaVuSans-30"/>
      </g>
     </g>
    </g>
    <g id="ytick_4">
     <g id="line2d_12">
      <g>
       <use style="stroke:#000000;stroke-width:0.8;" x="57.6" xlink:href="#mcc1d6459cc" y="192.462132"/>
      </g>
     </g>
     <g id="text_13">
      <!-- 60 -->
      <g transform="translate(37.875 196.261351)scale(0.1 -0.1)">
       <use xlink:href="#DejaVuSans-36"/>
       <use x="63.623047" xlink:href="#DejaVuSans-30"/>
      </g>
     </g>
    </g>
    <g id="ytick_5">
     <g id="line2d_13">
      <g>
       <use style="stroke:#000000;stroke-width:0.8;" x="57.6" xlink:href="#mcc1d6459cc" y="158.120177"/>
      </g>
     </g>
     <g id="text_14">
      <!-- 80 -->
      <g transform="translate(37.875 161.919395)scale(0.1 -0.1)">
       <use xlink:href="#DejaVuSans-38"/>
       <use x="63.623047" xlink:href="#DejaVuSans-30"/>
      </g>
     </g>
    </g>
    <g id="ytick_6">
     <g id="line2d_14">
      <g>
       <use style="stroke:#000000;stroke-width:0.8;" x="57.6" xlink:href="#mcc1d6459cc" y="123.778221"/>
      </g>
     </g>
     <g id="text_15">
      <!-- 100 -->
      <g transform="translate(31.5125 127.57744)scale(0.1 -0.1)">
       <use xlink:href="#DejaVuSans-31"/>
       <use x="63.623047" xlink:href="#DejaVuSans-30"/>
       <use x="127.246094" xlink:href="#DejaVuSans-30"/>
      </g>
     </g>
    </g>
    <g id="ytick_7">
     <g id="line2d_15">
      <g>
       <use style="stroke:#000000;stroke-width:0.8;" x="57.6" xlink:href="#mcc1d6459cc" y="89.436265"/>
      </g>
     </g>
     <g id="text_16">
      <!-- 120 -->
      <g transform="translate(31.5125 93.235484)scale(0.1 -0.1)">
       <use xlink:href="#DejaVuSans-31"/>
       <use x="63.623047" xlink:href="#DejaVuSans-32"/>
       <use x="127.246094" xlink:href="#DejaVuSans-30"/>
      </g>
     </g>
    </g>
    <g id="ytick_8">
     <g id="line2d_16">
      <g>
       <use style="stroke:#000000;stroke-width:0.8;" x="57.6" xlink:href="#mcc1d6459cc" y="55.094309"/>
      </g>
     </g>
     <g id="text_17">
      <!-- 140 -->
      <g transform="translate(31.5125 58.893528)scale(0.1 -0.1)">
       <use xlink:href="#DejaVuSans-31"/>
       <use x="63.623047" xlink:href="#DejaVuSans-34"/>
       <use x="127.246094" xlink:href="#DejaVuSans-30"/>
      </g>
     </g>
    </g>
    <g id="text_18">
     <!-- Valores -->
     <defs>
      <path d="M 28.609375 0 
L 0.78125 72.90625 
L 11.078125 72.90625 
L 34.1875 11.53125 
L 57.328125 72.90625 
L 67.578125 72.90625 
L 39.796875 0 
z
" id="DejaVuSans-56"/>
      <path d="M 9.421875 75.984375 
L 18.40625 75.984375 
L 18.40625 0 
L 9.421875 0 
z
" id="DejaVuSans-6c"/>
      <path d="M 30.609375 48.390625 
Q 23.390625 48.390625 19.1875 42.75 
Q 14.984375 37.109375 14.984375 27.296875 
Q 14.984375 17.484375 19.15625 11.84375 
Q 23.34375 6.203125 30.609375 6.203125 
Q 37.796875 6.203125 41.984375 11.859375 
Q 46.1875 17.53125 46.1875 27.296875 
Q 46.1875 37.015625 41.984375 42.703125 
Q 37.796875 48.390625 30.609375 48.390625 
z
M 30.609375 56 
Q 42.328125 56 49.015625 48.375 
Q 55.71875 40.765625 55.71875 27.296875 
Q 55.71875 13.875 49.015625 6.21875 
Q 42.328125 -1.421875 30.609375 -1.421875 
Q 18.84375 -1.421875 12.171875 6.21875 
Q 5.515625 13.875 5.515625 27.296875 
Q 5.515625 40.765625 12.171875 48.375 
Q 18.84375 56 30.609375 56 
z
" id="DejaVuSans-6f"/>
      <path d="M 56.203125 29.59375 
L 56.203125 25.203125 
L 14.890625 25.203125 
Q 15.484375 15.921875 20.484375 11.0625 
Q 25.484375 6.203125 34.421875 6.203125 
Q 39.59375 6.203125 44.453125 7.46875 
Q 49.3125 8.734375 54.109375 11.28125 
L 54.109375 2.78125 
Q 49.265625 0.734375 44.1875 -0.34375 
Q 39.109375 -1.421875 33.890625 -1.421875 
Q 20.796875 -1.421875 13.15625 6.1875 
Q 5.515625 13.8125 5.515625 26.8125 
Q 5.515625 40.234375 12.765625 48.109375 
Q 20.015625 56 32.328125 56 
Q 43.359375 56 49.78125 48.890625 
Q 56.203125 41.796875 56.203125 29.59375 
z
M 47.21875 32.234375 
Q 47.125 39.59375 43.09375 43.984375 
Q 39.0625 48.390625 32.421875 48.390625 
Q 24.90625 48.390625 20.390625 44.140625 
Q 15.875 39.890625 15.1875 32.171875 
z
" id="DejaVuSans-65"/>
     </defs>
     <g transform="translate(25.432812 193.1905)rotate(-90)scale(0.1 -0.1)">
      <use xlink:href="#DejaVuSans-56"/>
      <use x="68.298828" xlink:href="#DejaVuSans-61"/>
      <use x="129.578125" xlink:href="#DejaVuSans-6c"/>
      <use x="157.361328" xlink:href="#DejaVuSans-6f"/>
      <use x="218.542969" xlink:href="#DejaVuSans-72"/>
      <use x="259.625" xlink:href="#DejaVuSans-65"/>
      <use x="321.148438" xlink:href="#DejaVuSans-73"/>
     </g>
    </g>
   </g>
   <g id="line2d_17">
    <path clip-path="url(#p6e0dae917e)" d="M 57.6 110.18453 
L 414.72 110.18453 
L 414.72 110.18453 
" style="fill:none;stroke:#1f77b4;stroke-linecap:square;stroke-width:1.5;"/>
   </g>
   <g id="line2d_18">
    <path clip-path="url(#p6e0dae917e)" d="M 57.6 295.488 
L 57.838239 295.058726 
L 58.076478 118.817716 
L 58.314716 66.255445 
L 58.552955 89.848368 
L 58.791194 53.568 
L 59.029433 69.81229 
L 59.267672 97.833946 
L 59.744149 128.86083 
L 59.982388 83.78829 
L 60.220627 93.597842 
L 60.697105 120.230136 
L 60.935344 110.758804 
L 61.65006 138.612038 
L 61.888299 143.251346 
L 62.126538 123.971394 
L 62.364777 127.46161 
L 62.603015 123.235419 
L 62.841254 112.547298 
L 63.317732 126.866249 
L 63.555971 131.581363 
L 63.794209 128.946002 
L 64.032448 134.880222 
L 64.270687 135.297681 
L 64.508926 131.087334 
L 64.747165 132.333334 
L 64.985404 130.460481 
L 65.461881 138.523575 
L 65.70012 128.608522 
L 65.938359 132.857905 
L 66.176598 134.221286 
L 66.414837 132.157991 
L 66.653075 120.29661 
L 66.891314 118.493852 
L 67.129553 120.893578 
L 67.367792 119.603259 
L 67.606031 120.24373 
L 67.84427 123.671789 
L 68.082508 124.281903 
L 68.558986 118.237491 
L 69.035464 124.350348 
L 69.273702 125.096265 
L 69.75018 114.708211 
L 69.988419 118.06638 
L 70.226658 119.705119 
L 70.464897 115.88468 
L 71.179613 124.421367 
L 71.417852 124.557599 
L 71.656091 127.029259 
L 71.89433 125.53362 
L 72.132568 126.163128 
L 72.370807 127.660618 
L 72.609046 126.823806 
L 72.847285 128.397519 
L 73.085524 125.785049 
L 73.323763 118.265453 
L 73.80024 114.985353 
L 74.038479 113.265377 
L 74.276718 110.364352 
L 74.514957 109.588647 
L 74.753195 111.718904 
L 74.991434 112.420792 
L 75.229673 110.620215 
L 75.467912 105.438332 
L 75.706151 107.175458 
L 76.182628 103.418465 
L 76.420867 103.984644 
L 76.659106 104.945367 
L 76.897345 102.668439 
L 77.135584 104.886406 
L 77.373823 104.603232 
L 77.8503 108.687448 
L 78.088539 108.453877 
L 78.326778 110.414836 
L 78.803256 109.256237 
L 79.041494 107.444953 
L 79.279733 108.526603 
L 79.517972 105.778176 
L 79.756211 100.54396 
L 79.99445 98.668448 
L 80.232688 93.875082 
L 80.470927 93.234356 
L 80.709166 95.267496 
L 80.947405 94.2454 
L 81.185644 96.234083 
L 81.423883 96.106704 
L 81.662121 97.802578 
L 81.90036 93.700442 
L 82.615077 98.579092 
L 83.091554 94.024172 
L 83.329793 91.816298 
L 84.282748 97.38502 
L 84.520987 95.401449 
L 84.759226 95.763235 
L 84.997465 97.311869 
L 85.235704 94.998613 
L 85.473943 96.604075 
L 85.712181 96.977139 
L 85.95042 96.433558 
L 86.426898 91.836326 
L 86.903376 93.608067 
L 87.141614 92.98541 
L 87.379853 92.050632 
L 87.618092 93.478349 
L 87.856331 93.273325 
L 88.09457 91.251904 
L 89.047525 96.816029 
L 89.285764 97.347767 
L 89.524003 95.412425 
L 90.00048 98.140777 
L 90.238719 98.910057 
L 90.476958 97.28616 
L 90.715197 96.837307 
L 91.191674 97.998251 
L 91.429913 97.613577 
L 91.906391 99.846165 
L 92.14463 97.410427 
L 93.097585 101.301487 
L 93.335824 102.061049 
L 93.574063 103.333059 
L 93.812302 103.292611 
L 94.05054 104.23092 
L 94.288779 102.735643 
L 94.765257 104.63762 
L 95.003496 104.181337 
L 95.479973 104.634995 
L 95.718212 105.349941 
L 95.956451 105.159709 
L 96.19469 103.542719 
L 96.432929 103.908828 
L 96.671167 102.508031 
L 96.909406 102.567552 
L 97.147645 101.634192 
L 98.1006 105.084105 
L 98.338839 106.025261 
L 98.815317 102.825953 
L 99.053556 103.765355 
L 99.291795 103.875718 
L 99.530033 104.948845 
L 99.768272 104.143725 
L 100.24475 105.898993 
L 100.482989 104.266065 
L 100.721227 105.103927 
L 101.197705 101.652531 
L 101.674183 103.518045 
L 102.15066 101.979717 
L 102.388899 102.992401 
L 102.865377 100.221678 
L 103.103616 100.215823 
L 103.341855 101.061398 
L 103.580093 101.455402 
L 103.818332 99.526884 
L 104.533049 102.154457 
L 104.771288 100.390986 
L 105.486004 102.568545 
L 105.724243 102.54486 
L 105.962482 103.486503 
L 106.20072 103.638676 
L 106.677198 105.100329 
L 106.915437 106.014768 
L 107.153676 106.354401 
L 107.391915 105.593961 
L 107.630153 106.493544 
L 107.868392 105.623572 
L 108.106631 106.404381 
L 108.34487 105.164717 
L 108.821348 106.802154 
L 109.059586 106.676453 
L 109.297825 107.531478 
L 109.536064 106.345602 
L 109.774303 105.870062 
L 110.012542 106.660752 
L 110.489019 107.483177 
L 110.727258 106.132112 
L 110.965497 106.031858 
L 111.441975 104.517695 
L 111.680213 104.864777 
L 111.918452 104.802491 
L 112.156691 104.579023 
L 112.39493 105.405297 
L 112.633169 103.796574 
L 112.871408 104.610831 
L 113.109646 104.843702 
L 113.347885 104.791612 
L 113.824363 105.830209 
L 114.062602 104.974024 
L 114.777318 107.164403 
L 115.015557 106.543648 
L 115.253796 105.038013 
L 115.492035 104.819686 
L 115.730274 105.245007 
L 115.968512 105.311787 
L 116.44499 106.241204 
L 116.921468 107.170011 
L 117.397945 108.44407 
L 117.636184 108.491171 
L 117.874423 109.123857 
L 118.112662 109.171231 
L 118.589139 110.35585 
L 118.827378 109.968384 
L 119.065617 110.247139 
L 119.303856 109.995107 
L 119.542095 108.825473 
L 119.780334 108.99413 
L 120.018572 109.648216 
L 120.256811 108.228774 
L 121.209767 110.755517 
L 121.924483 112.031365 
L 122.162722 112.549524 
L 122.400961 111.997155 
L 122.877438 112.229424 
L 123.115677 110.850757 
L 123.592155 111.816636 
L 123.830394 111.846177 
L 124.068632 112.016889 
L 124.306871 112.648324 
L 124.54511 111.56954 
L 124.783349 111.850449 
L 125.021588 111.92027 
L 125.498065 112.976581 
L 125.736304 113.209634 
L 125.974543 113.22541 
L 126.212782 112.721329 
L 126.451021 111.879305 
L 126.68926 111.764883 
L 126.927498 112.365192 
L 127.165737 112.635976 
L 127.403976 112.647718 
L 127.642215 113.248806 
L 127.880454 111.947304 
L 128.118692 112.368005 
L 128.356931 111.086887 
L 128.833409 110.913343 
L 129.071648 111.434054 
L 129.309887 111.479068 
L 129.548125 112.037304 
L 129.786364 111.838524 
L 130.024603 110.985773 
L 130.501081 111.555161 
L 130.73932 110.737878 
L 130.977558 110.413664 
L 131.215797 110.985413 
L 131.692275 111.544605 
L 131.930514 112.107515 
L 132.168753 110.949134 
L 133.121708 112.963989 
L 133.359947 112.743917 
L 133.598185 112.962919 
L 133.836424 113.525227 
L 134.074663 112.351797 
L 134.312902 112.391777 
L 134.551141 112.874823 
L 134.78938 112.556261 
L 135.027618 112.980245 
L 135.265857 112.526203 
L 135.742335 113.627798 
L 135.980574 113.448813 
L 136.457051 114.325039 
L 136.69529 114.438884 
L 136.933529 114.903789 
L 137.171768 114.156047 
L 138.124723 116.028099 
L 138.601201 113.992029 
L 138.83944 114.214889 
L 139.077678 114.262163 
L 139.554156 112.601887 
L 139.792395 112.508451 
L 140.030634 111.579581 
L 140.507111 110.813534 
L 140.74535 109.765245 
L 141.460067 111.246627 
L 141.698306 110.350066 
L 141.936544 110.184856 
L 142.174783 110.699536 
L 142.413022 110.290228 
L 142.651261 110.431846 
L 143.365977 111.820344 
L 143.604216 111.666224 
L 144.318933 112.80091 
L 144.557171 112.359551 
L 144.79541 111.643149 
L 145.033649 112.138919 
L 145.271888 112.331482 
L 145.510127 111.476965 
L 145.748366 111.304976 
L 145.986604 111.339995 
L 146.224843 111.815864 
L 146.93956 109.621492 
L 147.177799 109.745689 
L 147.654276 110.681222 
L 147.892515 110.714733 
L 148.130754 110.048607 
L 148.368993 109.995453 
L 148.607231 109.611839 
L 148.84547 109.659163 
L 149.321948 110.542879 
L 149.560187 110.258791 
L 149.798426 110.459854 
L 151.227859 113.003929 
L 151.466097 113.194185 
L 151.704336 112.694785 
L 151.942575 112.952276 
L 152.180814 112.701269 
L 152.419053 112.746347 
L 152.89553 112.621127 
L 153.848486 113.932689 
L 154.086724 113.273002 
L 154.563202 113.955576 
L 154.801441 114.048263 
L 155.277919 114.916597 
L 155.516157 114.769942 
L 155.754396 115.049752 
L 155.992635 114.904836 
L 156.230874 115.087637 
L 156.469113 115.041001 
L 157.183829 116.181681 
L 157.422068 115.250796 
L 157.660307 115.255384 
L 157.898546 115.473316 
L 158.136785 115.423116 
L 158.375023 115.145243 
L 158.851501 115.763092 
L 159.08974 116.165201 
L 159.327979 115.664384 
L 159.566217 115.880901 
L 160.042695 114.27293 
L 160.280934 114.659267 
L 160.519173 114.049334 
L 160.757412 113.906394 
L 161.233889 112.614384 
L 161.948606 113.657322 
L 162.186845 113.284908 
L 162.425083 113.438587 
L 162.663322 113.368221 
L 162.901561 113.539734 
L 163.1398 113.282616 
L 163.616278 113.855894 
L 163.854516 113.70182 
L 164.092755 114.091287 
L 164.569233 114.409048 
L 164.807472 114.345862 
L 165.04571 114.687043 
L 165.283949 113.866767 
L 165.522188 114.030328 
L 165.760427 113.7828 
L 165.998666 113.327687 
L 166.236905 113.348411 
L 166.475143 113.651916 
L 166.713382 112.970124 
L 167.18986 113.761945 
L 167.666338 113.727004 
L 167.904576 114.10456 
L 168.142815 114.193158 
L 168.381054 113.858881 
L 168.619293 113.719851 
L 169.095771 112.966518 
L 169.334009 113.351854 
L 169.572248 112.698748 
L 169.810487 112.861142 
L 170.286965 112.7354 
L 171.001681 113.868879 
L 171.23992 113.100867 
L 171.478159 113.29915 
L 171.716398 112.889078 
L 171.954636 112.742086 
L 172.192875 112.82469 
L 172.907592 113.748793 
L 173.145831 113.116092 
L 173.384069 112.883245 
L 173.860547 112.044414 
L 174.098786 112.188519 
L 174.337025 112.471135 
L 174.575264 111.703639 
L 174.813502 111.953405 
L 175.051741 111.314999 
L 175.28998 111.673608 
L 175.528219 111.370162 
L 175.766458 111.39164 
L 176.242935 111.919315 
L 176.481174 111.796045 
L 176.719413 111.046805 
L 176.957652 111.384024 
L 177.195891 111.472117 
L 177.434129 111.172117 
L 177.672368 111.522953 
L 177.910607 111.401879 
L 178.148846 111.108254 
L 178.863562 112.0325 
L 179.34004 111.859567 
L 179.578279 112.217477 
L 179.816518 111.81289 
L 180.292995 112.473742 
L 180.531234 112.502007 
L 181.484189 113.542941 
L 181.960667 114.149908 
L 182.198906 113.752176 
L 182.437145 113.768523 
L 182.675384 113.642276 
L 182.913622 113.256546 
L 183.3901 113.862802 
L 183.628339 113.736017 
L 183.866578 114.074899 
L 184.343055 113.659995 
L 184.581294 113.794027 
L 185.057772 112.720937 
L 185.296011 112.429711 
L 185.534249 112.381622 
L 185.772488 112.099916 
L 186.010727 112.238741 
L 186.487205 111.482966 
L 186.963682 111.804606 
L 187.44016 111.643841 
L 188.154877 112.369551 
L 188.631354 112.280072 
L 188.869593 112.501133 
L 189.107832 112.383013 
L 189.346071 112.463729 
L 190.060787 113.325237 
L 190.299026 113.405459 
L 190.537265 113.294254 
L 190.775504 113.590487 
L 191.013742 113.404598 
L 191.251981 113.682239 
L 191.49022 113.57465 
L 191.728459 112.898286 
L 191.966698 113.221425 
L 192.204937 113.183473 
L 192.443175 113.459408 
L 192.681414 113.47061 
L 192.919653 113.638401 
L 193.157892 113.456481 
L 193.396131 113.703663 
L 193.63437 113.650627 
L 193.872608 113.010003 
L 194.349086 112.983831 
L 194.587325 112.728508 
L 194.825564 112.812992 
L 195.778519 112.118156 
L 196.016758 111.465221 
L 196.254997 111.492577 
L 196.969713 112.146383 
L 197.207952 111.525083 
L 197.446191 111.407592 
L 197.922668 110.248215 
L 198.160907 110.5616 
L 198.399146 110.316952 
L 198.875624 110.695465 
L 199.352101 110.015006 
L 199.59034 109.82857 
L 199.828579 110.03112 
L 200.066818 109.769719 
L 200.305057 109.727114 
L 200.543296 109.387279 
L 200.781534 109.623559 
L 201.019773 109.519012 
L 201.258012 109.815891 
L 201.496251 109.564793 
L 202.210967 109.576792 
L 202.687445 108.553682 
L 204.831594 110.26515 
L 205.308072 109.531867 
L 205.78455 109.948596 
L 206.022789 109.912145 
L 206.499266 110.327566 
L 206.737505 110.620264 
L 206.975744 110.58576 
L 208.166938 111.583861 
L 208.405177 111.258571 
L 208.643416 111.482851 
L 209.119893 111.076287 
L 209.83461 111.633041 
L 210.072849 111.53191 
L 211.025804 112.419253 
L 211.74052 113.043747 
L 212.216998 113.126996 
L 212.455237 112.961624 
L 212.693476 113.073863 
L 212.931714 112.505003 
L 213.169953 112.614761 
L 213.88467 113.332108 
L 214.361147 113.464144 
L 214.599386 113.728662 
L 215.075864 113.201098 
L 215.314103 113.450805 
L 215.552342 113.419256 
L 215.79058 113.522399 
L 216.267058 113.114027 
L 216.505297 112.803177 
L 216.981775 112.728282 
L 217.220013 112.504094 
L 217.696491 112.723685 
L 217.93473 112.48882 
L 218.649446 113.018225 
L 218.887685 112.916716 
L 219.602402 111.440439 
L 220.317118 111.884907 
L 220.793596 112.285182 
L 221.270073 111.55081 
L 222.461268 112.539865 
L 222.937745 112.477046 
L 223.652462 112.958081 
L 223.8907 112.437168 
L 224.128939 112.230174 
L 224.605417 112.38268 
L 224.843656 112.282179 
L 225.081895 112.500509 
L 225.320133 112.29299 
L 225.558372 112.390689 
L 225.796611 112.291633 
L 226.273089 112.770446 
L 226.511328 112.878581 
L 226.749566 112.603643 
L 226.987805 112.712915 
L 227.226044 112.414907 
L 227.464283 112.511354 
L 227.702522 112.164779 
L 228.417238 112.740824 
L 228.893716 113.021252 
L 229.131955 112.752026 
L 229.608432 113.126774 
L 229.846671 112.990229 
L 230.08491 113.059264 
L 230.323149 112.832718 
L 231.752582 113.467293 
L 231.990821 113.704758 
L 232.229059 113.437337 
L 232.467298 112.914644 
L 232.943776 113.300766 
L 233.182015 113.102314 
L 233.420254 112.742042 
L 234.373209 113.464996 
L 234.611448 113.33047 
L 234.849686 112.894755 
L 235.802642 113.666945 
L 236.040881 113.26007 
L 236.279119 113.282108 
L 236.517358 113.418456 
L 236.755597 112.938121 
L 237.232075 113.260446 
L 237.708552 113.54786 
L 238.18503 112.752212 
L 238.423269 112.991434 
L 238.661508 113.017724 
L 239.614463 113.876066 
L 239.852702 113.942408 
L 240.090941 114.178931 
L 240.329179 113.86306 
L 241.043896 114.190578 
L 241.282135 114.413633 
L 241.520374 114.479986 
L 241.758612 114.430345 
L 241.996851 114.652292 
L 242.473329 114.752374 
L 242.711568 114.794413 
L 243.188045 115.19252 
L 243.426284 115.1222 
L 244.141001 115.744522 
L 244.855717 115.650414 
L 245.093956 115.673861 
L 245.332195 115.88606 
L 245.570434 115.817036 
L 245.808672 115.881225 
L 246.28515 116.249754 
L 246.523389 116.145969 
L 246.761628 115.723232 
L 246.999867 115.925399 
L 247.238105 115.904817 
L 247.714583 116.298776 
L 247.952822 116.14233 
L 248.191061 116.350682 
L 248.4293 116.300595 
L 249.144016 116.873088 
L 249.382255 116.823271 
L 250.096971 117.410786 
L 250.33521 117.136502 
L 250.811688 117.269977 
L 251.049927 117.459659 
L 251.288165 117.280804 
L 251.764643 116.534423 
L 252.241121 116.961336 
L 252.47936 116.658942 
L 252.717598 116.861269 
L 252.955837 116.526655 
L 253.194076 116.52565 
L 253.432315 116.721411 
L 253.670554 116.598546 
L 253.908793 116.123929 
L 254.147031 116.260858 
L 255.099987 116.273 
L 255.338225 115.974394 
L 255.576464 116.174378 
L 256.052942 115.884638 
L 256.52942 116.261953 
L 256.767658 116.26276 
L 257.005897 116.086379 
L 257.244136 116.24477 
L 257.482375 115.881995 
L 257.720614 115.838767 
L 257.958853 116.05085 
L 258.197091 115.661195 
L 258.43533 115.572371 
L 258.673569 115.614462 
L 258.911808 115.493024 
L 259.150047 115.60119 
L 259.388286 115.513771 
L 260.341241 115.748495 
L 260.57948 115.390184 
L 260.817718 115.554741 
L 261.055957 115.513447 
L 261.294196 115.601469 
L 261.770674 115.058807 
L 262.008913 115.099884 
L 262.723629 114.472682 
L 262.961868 114.386485 
L 263.200107 113.939359 
L 263.676584 113.768902 
L 263.914823 113.700228 
L 264.391301 113.124566 
L 264.62954 113.232269 
L 264.867779 112.884528 
L 265.344256 113.237417 
L 265.820734 113.128346 
L 266.058973 113.333673 
L 266.297211 113.221171 
L 267.726644 113.892694 
L 267.964883 113.452846 
L 268.203122 113.433155 
L 268.441361 113.216224 
L 268.917839 112.598489 
L 269.156077 112.803218 
L 269.870794 111.982682 
L 270.58551 112.17408 
L 270.823749 112.017065 
L 271.300227 112.371584 
L 271.538466 112.161098 
L 272.014943 111.528019 
L 272.253182 111.530982 
L 272.491421 111.729011 
L 272.72966 111.598109 
L 273.206137 111.984065 
L 273.682615 111.384645 
L 274.873809 112.34487 
L 275.112048 112.36824 
L 275.350287 112.236846 
L 275.588526 112.384617 
L 275.826765 112.386687 
L 276.065003 112.063004 
L 276.303242 112.188861 
L 276.541481 112.17379 
L 276.77972 112.36306 
L 277.494436 112.389204 
L 277.732675 112.06851 
L 277.970914 112.265664 
L 278.68563 111.516326 
L 278.923869 111.617323 
L 279.162108 111.559922 
L 279.876825 111.868331 
L 280.115063 111.609056 
L 280.353302 111.593997 
L 280.591541 111.445073 
L 281.306258 111.830603 
L 281.544496 111.631484 
L 282.020974 111.574549 
L 282.73569 110.836549 
L 282.973929 111.018528 
L 283.212168 110.98113 
L 283.450407 111.175378 
L 283.688646 111.122685 
L 283.926885 110.752955 
L 284.165123 110.841332 
L 284.641601 110.569777 
L 285.118079 109.978561 
L 285.594556 110.037577 
L 285.832795 110.173873 
L 286.071034 109.99863 
L 286.309273 109.635078 
L 286.547512 109.789885 
L 286.785751 109.562209 
L 287.023989 109.631048 
L 287.738706 110.137139 
L 288.215183 110.424834 
L 288.453422 110.063367 
L 288.691661 109.971479 
L 289.406378 110.440548 
L 290.121094 110.881749 
L 290.359333 110.756573 
L 290.597572 110.476019 
L 290.835811 110.53379 
L 291.074049 110.133085 
L 291.788766 109.78014 
L 292.265243 109.956313 
L 292.503482 109.679585 
L 292.741721 109.835018 
L 293.218199 109.046799 
L 293.456438 109.234784 
L 293.694676 108.963466 
L 294.171154 109.269509 
L 294.409393 109.258757 
L 294.885871 108.977148 
L 295.362348 109.235821 
L 295.600587 109.421147 
L 295.838826 109.235007 
L 296.077065 109.373148 
L 296.315304 109.378129 
L 296.553542 109.0542 
L 297.03002 109.083262 
L 297.268259 108.7903 
L 297.506498 108.951765 
L 297.744736 108.880773 
L 297.982975 109.00949 
L 298.697692 108.219158 
L 299.174169 108.300098 
L 299.412408 108.4835 
L 299.888886 108.279112 
L 300.365364 108.495879 
L 300.603602 108.449417 
L 300.841841 108.128838 
L 301.318319 108.31284 
L 301.556558 108.133315 
L 302.033035 108.4283 
L 302.509513 107.863228 
L 302.747752 107.818775 
L 303.224229 108.159587 
L 303.462468 107.896964 
L 304.653662 108.13702 
L 304.891901 107.978594 
L 305.368379 108.194552 
L 305.606618 108.249624 
L 306.321334 107.897433 
L 307.27429 108.490035 
L 307.512528 108.121888 
L 307.750767 108.202572 
L 307.989006 107.948677 
L 308.227245 108.015639 
L 308.465484 107.949201 
L 308.703722 108.109893 
L 308.941961 107.910183 
L 309.418439 108.154251 
L 309.656678 108.314222 
L 309.894917 108.183912 
L 310.133155 108.297441 
L 310.371394 108.250177 
L 310.847872 108.494653 
L 311.32435 108.379742 
L 311.562588 108.554187 
L 311.800827 108.560576 
L 312.277305 108.813705 
L 312.515544 108.785903 
L 313.23026 108.131943 
L 314.659693 108.970555 
L 314.897932 108.883915 
L 315.136171 109.027978 
L 315.612648 109.001919 
L 316.089126 109.221828 
L 316.327365 109.193394 
L 316.803843 109.446956 
L 317.042081 109.175763 
L 317.518559 109.502694 
L 317.995037 109.52381 
L 318.709753 109.590576 
L 318.947992 109.294731 
L 319.186231 109.456329 
L 319.42447 109.133341 
L 319.900947 109.338182 
L 320.377425 109.279728 
L 320.615664 109.426103 
L 321.092141 108.88798 
L 321.33038 109.044746 
L 321.806858 108.730015 
L 322.759813 108.96857 
L 323.236291 108.65098 
L 323.712769 108.17309 
L 323.951007 108.340414 
L 324.189246 108.278982 
L 324.665724 108.458284 
L 325.618679 108.992865 
L 326.095157 109.2138 
L 326.333396 109.167379 
L 327.286351 109.722668 
L 328.001067 109.439127 
L 328.239306 109.411941 
L 328.477545 109.525361 
L 329.192262 109.482745 
L 329.668739 109.734833 
L 329.906978 109.722439 
L 330.383456 109.442237 
L 331.098172 109.733092 
L 331.336411 109.650004 
L 331.57465 109.790007 
L 332.051127 109.246988 
L 332.527605 109.498331 
L 332.765844 109.166788 
L 333.004083 109.250961 
L 333.242322 109.069782 
L 333.957038 109.096037 
L 334.195277 108.819837 
L 334.671755 109.024622 
L 335.148232 109.014653 
L 335.386471 109.134888 
L 335.62471 108.879003 
L 336.101187 109.082232 
L 336.577665 109.222172 
L 337.054143 109.45234 
L 338.007098 109.946317 
L 338.483576 109.647502 
L 339.198292 108.97719 
L 339.436531 108.954555 
L 340.151247 109.155743 
L 340.389486 108.853011 
L 340.627725 109.005178 
L 340.865964 108.886426 
L 341.818919 109.217169 
L 342.057158 108.966304 
L 342.295397 109.03459 
L 342.533636 108.916962 
L 342.771875 109.006487 
L 343.010113 108.848852 
L 343.248352 109.004316 
L 343.486591 108.736071 
L 343.963069 108.969367 
L 344.201308 108.95793 
L 344.439546 109.08756 
L 344.677785 108.994213 
L 345.154263 109.214312 
L 345.392502 109.220877 
L 345.868979 108.825432 
L 346.107218 108.770094 
L 346.583696 108.977309 
L 346.821935 109.125944 
L 347.298412 109.0682 
L 347.77489 108.807083 
L 348.013129 108.960073 
L 348.251368 108.650494 
L 348.489606 108.737018 
L 348.727845 108.657356 
L 349.204323 108.283691 
L 349.442562 108.084502 
L 349.680801 108.072801 
L 350.633756 108.547013 
L 350.871995 108.492994 
L 351.110233 108.644624 
L 351.82495 108.71068 
L 352.063189 108.419649 
L 352.539666 108.682712 
L 352.777905 108.425706 
L 353.492622 108.72268 
L 353.730861 108.634479 
L 353.969099 108.784537 
L 354.207338 108.731609 
L 354.683816 108.91306 
L 355.398532 109.310513 
L 355.636771 109.05663 
L 356.113249 109.240004 
L 356.351488 108.951915 
L 356.827965 109.179921 
L 357.542682 108.574655 
L 357.780921 108.498684 
L 358.019159 108.642318 
L 358.257398 108.649611 
L 358.495637 108.34943 
L 358.733876 108.262732 
L 358.972115 108.399552 
L 359.686831 108.466076 
L 359.92507 108.260949 
L 360.401548 108.451896 
L 360.878025 108.323994 
L 361.592742 108.64777 
L 362.307458 108.903228 
L 363.022175 109.021556 
L 363.260414 109.16208 
L 363.498652 109.149204 
L 364.213369 109.517511 
L 364.689847 109.473191 
L 364.928085 109.421896 
L 365.404563 109.101154 
L 365.881041 109.307863 
L 366.11928 109.157251 
L 366.595757 109.420509 
L 366.833996 109.301202 
L 367.786951 109.739248 
L 368.263429 109.607518 
L 369.216384 109.238886 
L 370.16934 109.027755 
L 370.407578 108.979711 
L 370.645817 109.073757 
L 371.360534 108.594192 
L 371.598773 108.688426 
L 371.837011 108.573873 
L 373.266444 108.825435 
L 373.504683 108.778713 
L 373.742922 108.919306 
L 373.981161 108.904305 
L 374.457638 108.604131 
L 374.934116 108.861337 
L 375.172355 108.846665 
L 375.410594 108.617028 
L 376.12531 108.864974 
L 376.363549 108.63128 
L 377.792982 108.873938 
L 378.031221 108.683631 
L 378.745937 109.061689 
L 379.222415 109.129496 
L 379.460654 108.854181 
L 381.604803 109.751713 
L 382.557759 109.37802 
L 382.795997 109.468524 
L 383.034236 109.35753 
L 384.940147 109.609785 
L 385.178386 109.426889 
L 385.416624 109.436331 
L 385.654863 109.559873 
L 385.893102 109.543229 
L 386.607819 109.772482 
L 387.560774 109.963065 
L 387.799013 110.09199 
L 388.037252 109.984111 
L 388.513729 110.041371 
L 389.228446 110.23178 
L 389.466684 110.353903 
L 389.704923 110.336597 
L 389.943162 110.467908 
L 390.41964 110.279639 
L 391.134356 110.38908 
L 391.372595 110.168829 
L 391.610834 110.151683 
L 392.087312 110.349955 
L 392.802028 110.359639 
L 393.040267 110.342989 
L 393.278506 110.079233 
L 393.516744 110.035375 
L 393.754983 110.136378 
L 393.993222 109.994583 
L 394.4697 110.011555 
L 394.707939 109.87048 
L 395.660894 110.319517 
L 395.899133 110.177188 
L 396.137372 110.306335 
L 396.37561 110.04508 
L 396.852088 110.01434 
L 397.090327 109.874349 
L 397.566805 110.025362 
L 397.805043 110.096662 
L 398.281521 109.913188 
L 398.51976 110.012487 
L 398.757999 109.968787 
L 399.234476 110.13084 
L 399.710954 110.210621 
L 400.42567 110.044619 
L 400.663909 109.867174 
L 400.902148 109.937208 
L 401.140387 109.68129 
L 401.855103 109.875522 
L 402.331581 109.63064 
L 402.808059 109.236514 
L 403.522775 109.561615 
L 403.999253 109.623391 
L 404.47573 109.311533 
L 404.952208 109.419057 
L 405.428686 108.912179 
L 405.905163 109.068273 
L 406.143402 108.995962 
L 406.381641 109.122187 
L 406.61988 108.951277 
L 407.096358 109.099804 
L 407.572835 108.709509 
L 408.049313 108.889096 
L 408.287552 108.75464 
L 409.002268 109.086275 
L 409.478746 108.992584 
L 410.431701 109.350222 
L 410.66994 109.418766 
L 411.622895 108.749348 
L 412.099373 108.880185 
L 412.575851 108.908421 
L 412.814089 108.839428 
L 413.052328 108.964444 
L 413.290567 108.864799 
L 414.005284 109.098988 
L 414.72 109.405071 
L 414.72 109.405071 
" style="fill:none;stroke:#ff7f0e;stroke-linecap:square;stroke-width:1.5;"/>
   </g>
   <g id="patch_3">
    <path d="M 57.6 307.584 
L 57.6 41.472 
" style="fill:none;stroke:#000000;stroke-linecap:square;stroke-linejoin:miter;stroke-width:0.8;"/>
   </g>
   <g id="patch_4">
    <path d="M 414.72 307.584 
L 414.72 41.472 
" style="fill:none;stroke:#000000;stroke-linecap:square;stroke-linejoin:miter;stroke-width:0.8;"/>
   </g>
   <g id="patch_5">
    <path d="M 57.6 307.584 
L 414.72 307.584 
" style="fill:none;stroke:#000000;stroke-linecap:square;stroke-linejoin:miter;stroke-width:0.8;"/>
   </g>
   <g id="patch_6">
    <path d="M 57.6 41.472 
L 414.72 41.472 
" style="fill:none;stroke:#000000;stroke-linecap:square;stroke-linejoin:miter;stroke-width:0.8;"/>
   </g>
   <g id="text_19">
    <!-- Grafico valores varianza esperados vs valores varianza obtenidos -->
    <defs>
     <path d="M 59.515625 10.40625 
L 59.515625 29.984375 
L 43.40625 29.984375 
L 43.40625 38.09375 
L 69.28125 38.09375 
L 69.28125 6.78125 
Q 63.578125 2.734375 56.6875 0.65625 
Q 49.8125 -1.421875 42 -1.421875 
Q 24.90625 -1.421875 15.25 8.5625 
Q 5.609375 18.5625 5.609375 36.375 
Q 5.609375 54.25 15.25 64.234375 
Q 24.90625 74.21875 42 74.21875 
Q 49.125 74.21875 55.546875 72.453125 
Q 61.96875 70.703125 67.390625 67.28125 
L 67.390625 56.78125 
Q 61.921875 61.421875 55.765625 63.765625 
Q 49.609375 66.109375 42.828125 66.109375 
Q 29.4375 66.109375 22.71875 58.640625 
Q 16.015625 51.171875 16.015625 36.375 
Q 16.015625 21.625 22.71875 14.15625 
Q 29.4375 6.6875 42.828125 6.6875 
Q 48.046875 6.6875 52.140625 7.59375 
Q 56.25 8.5 59.515625 10.40625 
z
" id="DejaVuSans-47"/>
     <path d="M 37.109375 75.984375 
L 37.109375 68.5 
L 28.515625 68.5 
Q 23.6875 68.5 21.796875 66.546875 
Q 19.921875 64.59375 19.921875 59.515625 
L 19.921875 54.6875 
L 34.71875 54.6875 
L 34.71875 47.703125 
L 19.921875 47.703125 
L 19.921875 0 
L 10.890625 0 
L 10.890625 47.703125 
L 2.296875 47.703125 
L 2.296875 54.6875 
L 10.890625 54.6875 
L 10.890625 58.5 
Q 10.890625 67.625 15.140625 71.796875 
Q 19.390625 75.984375 28.609375 75.984375 
z
" id="DejaVuSans-66"/>
     <path d="M 48.78125 52.59375 
L 48.78125 44.1875 
Q 44.96875 46.296875 41.140625 47.34375 
Q 37.3125 48.390625 33.40625 48.390625 
Q 24.65625 48.390625 19.8125 42.84375 
Q 14.984375 37.3125 14.984375 27.296875 
Q 14.984375 17.28125 19.8125 11.734375 
Q 24.65625 6.203125 33.40625 6.203125 
Q 37.3125 6.203125 41.140625 7.25 
Q 44.96875 8.296875 48.78125 10.40625 
L 48.78125 2.09375 
Q 45.015625 0.34375 40.984375 -0.53125 
Q 36.96875 -1.421875 32.421875 -1.421875 
Q 20.0625 -1.421875 12.78125 6.34375 
Q 5.515625 14.109375 5.515625 27.296875 
Q 5.515625 40.671875 12.859375 48.328125 
Q 20.21875 56 33.015625 56 
Q 37.15625 56 41.109375 55.140625 
Q 45.0625 54.296875 48.78125 52.59375 
z
" id="DejaVuSans-63"/>
     <path id="DejaVuSans-20"/>
     <path d="M 2.984375 54.6875 
L 12.5 54.6875 
L 29.59375 8.796875 
L 46.6875 54.6875 
L 56.203125 54.6875 
L 35.6875 0 
L 23.484375 0 
z
" id="DejaVuSans-76"/>
     <path d="M 54.890625 33.015625 
L 54.890625 0 
L 45.90625 0 
L 45.90625 32.71875 
Q 45.90625 40.484375 42.875 44.328125 
Q 39.84375 48.1875 33.796875 48.1875 
Q 26.515625 48.1875 22.3125 43.546875 
Q 18.109375 38.921875 18.109375 30.90625 
L 18.109375 0 
L 9.078125 0 
L 9.078125 54.6875 
L 18.109375 54.6875 
L 18.109375 46.1875 
Q 21.34375 51.125 25.703125 53.5625 
Q 30.078125 56 35.796875 56 
Q 45.21875 56 50.046875 50.171875 
Q 54.890625 44.34375 54.890625 33.015625 
z
" id="DejaVuSans-6e"/>
     <path d="M 5.515625 54.6875 
L 48.1875 54.6875 
L 48.1875 46.484375 
L 14.40625 7.171875 
L 48.1875 7.171875 
L 48.1875 0 
L 4.296875 0 
L 4.296875 8.203125 
L 38.09375 47.515625 
L 5.515625 47.515625 
z
" id="DejaVuSans-7a"/>
     <path d="M 18.109375 8.203125 
L 18.109375 -20.796875 
L 9.078125 -20.796875 
L 9.078125 54.6875 
L 18.109375 54.6875 
L 18.109375 46.390625 
Q 20.953125 51.265625 25.265625 53.625 
Q 29.59375 56 35.59375 56 
Q 45.5625 56 51.78125 48.09375 
Q 58.015625 40.1875 58.015625 27.296875 
Q 58.015625 14.40625 51.78125 6.484375 
Q 45.5625 -1.421875 35.59375 -1.421875 
Q 29.59375 -1.421875 25.265625 0.953125 
Q 20.953125 3.328125 18.109375 8.203125 
z
M 48.6875 27.296875 
Q 48.6875 37.203125 44.609375 42.84375 
Q 40.53125 48.484375 33.40625 48.484375 
Q 26.265625 48.484375 22.1875 42.84375 
Q 18.109375 37.203125 18.109375 27.296875 
Q 18.109375 17.390625 22.1875 11.75 
Q 26.265625 6.109375 33.40625 6.109375 
Q 40.53125 6.109375 44.609375 11.75 
Q 48.6875 17.390625 48.6875 27.296875 
z
" id="DejaVuSans-70"/>
     <path d="M 48.6875 27.296875 
Q 48.6875 37.203125 44.609375 42.84375 
Q 40.53125 48.484375 33.40625 48.484375 
Q 26.265625 48.484375 22.1875 42.84375 
Q 18.109375 37.203125 18.109375 27.296875 
Q 18.109375 17.390625 22.1875 11.75 
Q 26.265625 6.109375 33.40625 6.109375 
Q 40.53125 6.109375 44.609375 11.75 
Q 48.6875 17.390625 48.6875 27.296875 
z
M 18.109375 46.390625 
Q 20.953125 51.265625 25.265625 53.625 
Q 29.59375 56 35.59375 56 
Q 45.5625 56 51.78125 48.09375 
Q 58.015625 40.1875 58.015625 27.296875 
Q 58.015625 14.40625 51.78125 6.484375 
Q 45.5625 -1.421875 35.59375 -1.421875 
Q 29.59375 -1.421875 25.265625 0.953125 
Q 20.953125 3.328125 18.109375 8.203125 
L 18.109375 0 
L 9.078125 0 
L 9.078125 75.984375 
L 18.109375 75.984375 
z
" id="DejaVuSans-62"/>
     <path d="M 18.3125 70.21875 
L 18.3125 54.6875 
L 36.8125 54.6875 
L 36.8125 47.703125 
L 18.3125 47.703125 
L 18.3125 18.015625 
Q 18.3125 11.328125 20.140625 9.421875 
Q 21.96875 7.515625 27.59375 7.515625 
L 36.8125 7.515625 
L 36.8125 0 
L 27.59375 0 
Q 17.1875 0 13.234375 3.875 
Q 9.28125 7.765625 9.28125 18.015625 
L 9.28125 47.703125 
L 2.6875 47.703125 
L 2.6875 54.6875 
L 9.28125 54.6875 
L 9.28125 70.21875 
z
" id="DejaVuSans-74"/>
    </defs>
    <g transform="translate(38.895 35.472)scale(0.12 -0.12)">
     <use xlink:href="#DejaVuSans-47"/>
     <use x="77.490234" xlink:href="#DejaVuSans-72"/>
     <use x="118.603516" xlink:href="#DejaVuSans-61"/>
     <use x="179.882812" xlink:href="#DejaVuSans-66"/>
     <use x="215.087891" xlink:href="#DejaVuSans-69"/>
     <use x="242.871094" xlink:href="#DejaVuSans-63"/>
     <use x="297.851562" xlink:href="#DejaVuSans-6f"/>
     <use x="359.033203" xlink:href="#DejaVuSans-20"/>
     <use x="390.820312" xlink:href="#DejaVuSans-76"/>
     <use x="450" xlink:href="#DejaVuSans-61"/>
     <use x="511.279297" xlink:href="#DejaVuSans-6c"/>
     <use x="539.0625" xlink:href="#DejaVuSans-6f"/>
     <use x="600.244141" xlink:href="#DejaVuSans-72"/>
     <use x="641.326172" xlink:href="#DejaVuSans-65"/>
     <use x="702.849609" xlink:href="#DejaVuSans-73"/>
     <use x="754.949219" xlink:href="#DejaVuSans-20"/>
     <use x="786.736328" xlink:href="#DejaVuSans-76"/>
     <use x="845.916016" xlink:href="#DejaVuSans-61"/>
     <use x="907.195312" xlink:href="#DejaVuSans-72"/>
     <use x="948.308594" xlink:href="#DejaVuSans-69"/>
     <use x="976.091797" xlink:href="#DejaVuSans-61"/>
     <use x="1037.371094" xlink:href="#DejaVuSans-6e"/>
     <use x="1100.75" xlink:href="#DejaVuSans-7a"/>
     <use x="1153.240234" xlink:href="#DejaVuSans-61"/>
     <use x="1214.519531" xlink:href="#DejaVuSans-20"/>
     <use x="1246.306641" xlink:href="#DejaVuSans-65"/>
     <use x="1307.830078" xlink:href="#DejaVuSans-73"/>
     <use x="1359.929688" xlink:href="#DejaVuSans-70"/>
     <use x="1423.40625" xlink:href="#DejaVuSans-65"/>
     <use x="1484.929688" xlink:href="#DejaVuSans-72"/>
     <use x="1526.042969" xlink:href="#DejaVuSans-61"/>
     <use x="1587.322266" xlink:href="#DejaVuSans-64"/>
     <use x="1650.798828" xlink:href="#DejaVuSans-6f"/>
     <use x="1711.980469" xlink:href="#DejaVuSans-73"/>
     <use x="1764.080078" xlink:href="#DejaVuSans-20"/>
     <use x="1795.867188" xlink:href="#DejaVuSans-76"/>
     <use x="1855.046875" xlink:href="#DejaVuSans-73"/>
     <use x="1907.146484" xlink:href="#DejaVuSans-20"/>
     <use x="1938.933594" xlink:href="#DejaVuSans-76"/>
     <use x="1998.113281" xlink:href="#DejaVuSans-61"/>
     <use x="2059.392578" xlink:href="#DejaVuSans-6c"/>
     <use x="2087.175781" xlink:href="#DejaVuSans-6f"/>
     <use x="2148.357422" xlink:href="#DejaVuSans-72"/>
     <use x="2189.439453" xlink:href="#DejaVuSans-65"/>
     <use x="2250.962891" xlink:href="#DejaVuSans-73"/>
     <use x="2303.0625" xlink:href="#DejaVuSans-20"/>
     <use x="2334.849609" xlink:href="#DejaVuSans-76"/>
     <use x="2394.029297" xlink:href="#DejaVuSans-61"/>
     <use x="2455.308594" xlink:href="#DejaVuSans-72"/>
     <use x="2496.421875" xlink:href="#DejaVuSans-69"/>
     <use x="2524.205078" xlink:href="#DejaVuSans-61"/>
     <use x="2585.484375" xlink:href="#DejaVuSans-6e"/>
     <use x="2648.863281" xlink:href="#DejaVuSans-7a"/>
     <use x="2701.353516" xlink:href="#DejaVuSans-61"/>
     <use x="2762.632812" xlink:href="#DejaVuSans-20"/>
     <use x="2794.419922" xlink:href="#DejaVuSans-6f"/>
     <use x="2855.601562" xlink:href="#DejaVuSans-62"/>
     <use x="2919.078125" xlink:href="#DejaVuSans-74"/>
     <use x="2958.287109" xlink:href="#DejaVuSans-65"/>
     <use x="3019.810547" xlink:href="#DejaVuSans-6e"/>
     <use x="3083.189453" xlink:href="#DejaVuSans-69"/>
     <use x="3110.972656" xlink:href="#DejaVuSans-64"/>
     <use x="3174.449219" xlink:href="#DejaVuSans-6f"/>
     <use x="3235.630859" xlink:href="#DejaVuSans-73"/>
    </g>
   </g>
   <g id="legend_1">
    <g id="patch_7">
     <path d="M 254.049688 78.82825 
L 407.72 78.82825 
Q 409.72 78.82825 409.72 76.82825 
L 409.72 48.472 
Q 409.72 46.472 407.72 46.472 
L 254.049688 46.472 
Q 252.049688 46.472 252.049688 48.472 
L 252.049688 76.82825 
Q 252.049688 78.82825 254.049688 78.82825 
z
" style="fill:#ffffff;opacity:0.8;stroke:#cccccc;stroke-linejoin:miter;"/>
    </g>
    <g id="line2d_19">
     <path d="M 256.049688 54.570437 
L 276.049688 54.570437 
" style="fill:none;stroke:#1f77b4;stroke-linecap:square;stroke-width:1.5;"/>
    </g>
    <g id="line2d_20"/>
    <g id="text_20">
     <!-- Valor varianza esperado -->
     <g transform="translate(284.049688 58.070437)scale(0.1 -0.1)">
      <use xlink:href="#DejaVuSans-56"/>
      <use x="68.298828" xlink:href="#DejaVuSans-61"/>
      <use x="129.578125" xlink:href="#DejaVuSans-6c"/>
      <use x="157.361328" xlink:href="#DejaVuSans-6f"/>
      <use x="218.542969" xlink:href="#DejaVuSans-72"/>
      <use x="259.65625" xlink:href="#DejaVuSans-20"/>
      <use x="291.443359" xlink:href="#DejaVuSans-76"/>
      <use x="350.623047" xlink:href="#DejaVuSans-61"/>
      <use x="411.902344" xlink:href="#DejaVuSans-72"/>
      <use x="453.015625" xlink:href="#DejaVuSans-69"/>
      <use x="480.798828" xlink:href="#DejaVuSans-61"/>
      <use x="542.078125" xlink:href="#DejaVuSans-6e"/>
      <use x="605.457031" xlink:href="#DejaVuSans-7a"/>
      <use x="657.947266" xlink:href="#DejaVuSans-61"/>
      <use x="719.226562" xlink:href="#DejaVuSans-20"/>
      <use x="751.013672" xlink:href="#DejaVuSans-65"/>
      <use x="812.537109" xlink:href="#DejaVuSans-73"/>
      <use x="864.636719" xlink:href="#DejaVuSans-70"/>
      <use x="928.113281" xlink:href="#DejaVuSans-65"/>
      <use x="989.636719" xlink:href="#DejaVuSans-72"/>
      <use x="1030.75" xlink:href="#DejaVuSans-61"/>
      <use x="1092.029297" xlink:href="#DejaVuSans-64"/>
      <use x="1155.505859" xlink:href="#DejaVuSans-6f"/>
     </g>
    </g>
    <g id="line2d_21">
     <path d="M 256.049688 69.248562 
L 276.049688 69.248562 
" style="fill:none;stroke:#ff7f0e;stroke-linecap:square;stroke-width:1.5;"/>
    </g>
    <g id="line2d_22"/>
    <g id="text_21">
     <!-- Valor varianza obtenido -->
     <g transform="translate(284.049688 72.748562)scale(0.1 -0.1)">
      <use xlink:href="#DejaVuSans-56"/>
      <use x="68.298828" xlink:href="#DejaVuSans-61"/>
      <use x="129.578125" xlink:href="#DejaVuSans-6c"/>
      <use x="157.361328" xlink:href="#DejaVuSans-6f"/>
      <use x="218.542969" xlink:href="#DejaVuSans-72"/>
      <use x="259.65625" xlink:href="#DejaVuSans-20"/>
      <use x="291.443359" xlink:href="#DejaVuSans-76"/>
      <use x="350.623047" xlink:href="#DejaVuSans-61"/>
      <use x="411.902344" xlink:href="#DejaVuSans-72"/>
      <use x="453.015625" xlink:href="#DejaVuSans-69"/>
      <use x="480.798828" xlink:href="#DejaVuSans-61"/>
      <use x="542.078125" xlink:href="#DejaVuSans-6e"/>
      <use x="605.457031" xlink:href="#DejaVuSans-7a"/>
      <use x="657.947266" xlink:href="#DejaVuSans-61"/>
      <use x="719.226562" xlink:href="#DejaVuSans-20"/>
      <use x="751.013672" xlink:href="#DejaVuSans-6f"/>
      <use x="812.195312" xlink:href="#DejaVuSans-62"/>
      <use x="875.671875" xlink:href="#DejaVuSans-74"/>
      <use x="914.880859" xlink:href="#DejaVuSans-65"/>
      <use x="976.404297" xlink:href="#DejaVuSans-6e"/>
      <use x="1039.783203" xlink:href="#DejaVuSans-69"/>
      <use x="1067.566406" xlink:href="#DejaVuSans-64"/>
      <use x="1131.042969" xlink:href="#DejaVuSans-6f"/>
     </g>
    </g>
   </g>
  </g>
 </g>
 <defs>
  <clipPath id="p6e0dae917e">
   <rect height="266.112" width="357.12" x="57.6" y="41.472"/>
  </clipPath>
 </defs>
</svg>
