<?xml version="1.0" encoding="utf-8" standalone="no"?>
<!DOCTYPE svg PUBLIC "-//W3C//DTD SVG 1.1//EN"
  "http://www.w3.org/Graphics/SVG/1.1/DTD/svg11.dtd">
<!-- Created with matplotlib (http://matplotlib.org/) -->
<svg height="345.6pt" version="1.1" viewBox="0 0 460.8 345.6" width="460.8pt" xmlns="http://www.w3.org/2000/svg" xmlns:xlink="http://www.w3.org/1999/xlink">
 <defs>
  <style type="text/css">
*{stroke-linecap:butt;stroke-linejoin:round;}
  </style>
 </defs>
 <g id="figure_1">
  <g id="patch_1">
   <path d="M 0 345.6 
L 460.8 345.6 
L 460.8 0 
L 0 0 
z
" style="fill:#ffffff;"/>
  </g>
  <g id="axes_1">
   <g id="patch_2">
    <path d="M 57.6 307.584 
L 414.72 307.584 
L 414.72 41.472 
L 57.6 41.472 
z
" style="fill:#ffffff;"/>
   </g>
   <g id="matplotlib.axis_1">
    <g id="xtick_1">
     <g id="line2d_1">
      <defs>
       <path d="M 0 0 
L 0 3.5 
" id="m8f6ca9e29f" style="stroke:#000000;stroke-width:0.8;"/>
      </defs>
      <g>
       <use style="stroke:#000000;stroke-width:0.8;" x="128.451463" xlink:href="#m8f6ca9e29f" y="307.584"/>
      </g>
     </g>
     <g id="text_1">
      <!-- 100 -->
      <defs>
       <path d="M 12.40625 8.296875 
L 28.515625 8.296875 
L 28.515625 63.921875 
L 10.984375 60.40625 
L 10.984375 69.390625 
L 28.421875 72.90625 
L 38.28125 72.90625 
L 38.28125 8.296875 
L 54.390625 8.296875 
L 54.390625 0 
L 12.40625 0 
z
" id="DejaVuSans-31"/>
       <path d="M 31.78125 66.40625 
Q 24.171875 66.40625 20.328125 58.90625 
Q 16.5 51.421875 16.5 36.375 
Q 16.5 21.390625 20.328125 13.890625 
Q 24.171875 6.390625 31.78125 6.390625 
Q 39.453125 6.390625 43.28125 13.890625 
Q 47.125 21.390625 47.125 36.375 
Q 47.125 51.421875 43.28125 58.90625 
Q 39.453125 66.40625 31.78125 66.40625 
z
M 31.78125 74.21875 
Q 44.046875 74.21875 50.515625 64.515625 
Q 56.984375 54.828125 56.984375 36.375 
Q 56.984375 17.96875 50.515625 8.265625 
Q 44.046875 -1.421875 31.78125 -1.421875 
Q 19.53125 -1.421875 13.0625 8.265625 
Q 6.59375 17.96875 6.59375 36.375 
Q 6.59375 54.828125 13.0625 64.515625 
Q 19.53125 74.21875 31.78125 74.21875 
z
" id="DejaVuSans-30"/>
      </defs>
      <g transform="translate(118.907713 322.182437)scale(0.1 -0.1)">
       <use xlink:href="#DejaVuSans-31"/>
       <use x="63.623047" xlink:href="#DejaVuSans-30"/>
       <use x="127.246094" xlink:href="#DejaVuSans-30"/>
      </g>
     </g>
    </g>
    <g id="xtick_2">
     <g id="line2d_2">
      <g>
       <use style="stroke:#000000;stroke-width:0.8;" x="200.018597" xlink:href="#m8f6ca9e29f" y="307.584"/>
      </g>
     </g>
     <g id="text_2">
      <!-- 200 -->
      <defs>
       <path d="M 19.1875 8.296875 
L 53.609375 8.296875 
L 53.609375 0 
L 7.328125 0 
L 7.328125 8.296875 
Q 12.9375 14.109375 22.625 23.890625 
Q 32.328125 33.6875 34.8125 36.53125 
Q 39.546875 41.84375 41.421875 45.53125 
Q 43.3125 49.21875 43.3125 52.78125 
Q 43.3125 58.59375 39.234375 62.25 
Q 35.15625 65.921875 28.609375 65.921875 
Q 23.96875 65.921875 18.8125 64.3125 
Q 13.671875 62.703125 7.8125 59.421875 
L 7.8125 69.390625 
Q 13.765625 71.78125 18.9375 73 
Q 24.125 74.21875 28.421875 74.21875 
Q 39.75 74.21875 46.484375 68.546875 
Q 53.21875 62.890625 53.21875 53.421875 
Q 53.21875 48.921875 51.53125 44.890625 
Q 49.859375 40.875 45.40625 35.40625 
Q 44.1875 33.984375 37.640625 27.21875 
Q 31.109375 20.453125 19.1875 8.296875 
z
" id="DejaVuSans-32"/>
      </defs>
      <g transform="translate(190.474847 322.182437)scale(0.1 -0.1)">
       <use xlink:href="#DejaVuSans-32"/>
       <use x="63.623047" xlink:href="#DejaVuSans-30"/>
       <use x="127.246094" xlink:href="#DejaVuSans-30"/>
      </g>
     </g>
    </g>
    <g id="xtick_3">
     <g id="line2d_3">
      <g>
       <use style="stroke:#000000;stroke-width:0.8;" x="271.585731" xlink:href="#m8f6ca9e29f" y="307.584"/>
      </g>
     </g>
     <g id="text_3">
      <!-- 300 -->
      <defs>
       <path d="M 40.578125 39.3125 
Q 47.65625 37.796875 51.625 33 
Q 55.609375 28.21875 55.609375 21.1875 
Q 55.609375 10.40625 48.1875 4.484375 
Q 40.765625 -1.421875 27.09375 -1.421875 
Q 22.515625 -1.421875 17.65625 -0.515625 
Q 12.796875 0.390625 7.625 2.203125 
L 7.625 11.71875 
Q 11.71875 9.328125 16.59375 8.109375 
Q 21.484375 6.890625 26.8125 6.890625 
Q 36.078125 6.890625 40.9375 10.546875 
Q 45.796875 14.203125 45.796875 21.1875 
Q 45.796875 27.640625 41.28125 31.265625 
Q 36.765625 34.90625 28.71875 34.90625 
L 20.21875 34.90625 
L 20.21875 43.015625 
L 29.109375 43.015625 
Q 36.375 43.015625 40.234375 45.921875 
Q 44.09375 48.828125 44.09375 54.296875 
Q 44.09375 59.90625 40.109375 62.90625 
Q 36.140625 65.921875 28.71875 65.921875 
Q 24.65625 65.921875 20.015625 65.03125 
Q 15.375 64.15625 9.8125 62.3125 
L 9.8125 71.09375 
Q 15.4375 72.65625 20.34375 73.4375 
Q 25.25 74.21875 29.59375 74.21875 
Q 40.828125 74.21875 47.359375 69.109375 
Q 53.90625 64.015625 53.90625 55.328125 
Q 53.90625 49.265625 50.4375 45.09375 
Q 46.96875 40.921875 40.578125 39.3125 
z
" id="DejaVuSans-33"/>
      </defs>
      <g transform="translate(262.041981 322.182437)scale(0.1 -0.1)">
       <use xlink:href="#DejaVuSans-33"/>
       <use x="63.623047" xlink:href="#DejaVuSans-30"/>
       <use x="127.246094" xlink:href="#DejaVuSans-30"/>
      </g>
     </g>
    </g>
    <g id="xtick_4">
     <g id="line2d_4">
      <g>
       <use style="stroke:#000000;stroke-width:0.8;" x="343.152866" xlink:href="#m8f6ca9e29f" y="307.584"/>
      </g>
     </g>
     <g id="text_4">
      <!-- 400 -->
      <defs>
       <path d="M 37.796875 64.3125 
L 12.890625 25.390625 
L 37.796875 25.390625 
z
M 35.203125 72.90625 
L 47.609375 72.90625 
L 47.609375 25.390625 
L 58.015625 25.390625 
L 58.015625 17.1875 
L 47.609375 17.1875 
L 47.609375 0 
L 37.796875 0 
L 37.796875 17.1875 
L 4.890625 17.1875 
L 4.890625 26.703125 
z
" id="DejaVuSans-34"/>
      </defs>
      <g transform="translate(333.609116 322.182437)scale(0.1 -0.1)">
       <use xlink:href="#DejaVuSans-34"/>
       <use x="63.623047" xlink:href="#DejaVuSans-30"/>
       <use x="127.246094" xlink:href="#DejaVuSans-30"/>
      </g>
     </g>
    </g>
    <g id="xtick_5">
     <g id="line2d_5">
      <g>
       <use style="stroke:#000000;stroke-width:0.8;" x="414.72" xlink:href="#m8f6ca9e29f" y="307.584"/>
      </g>
     </g>
     <g id="text_5">
      <!-- 500 -->
      <defs>
       <path d="M 10.796875 72.90625 
L 49.515625 72.90625 
L 49.515625 64.59375 
L 19.828125 64.59375 
L 19.828125 46.734375 
Q 21.96875 47.46875 24.109375 47.828125 
Q 26.265625 48.1875 28.421875 48.1875 
Q 40.625 48.1875 47.75 41.5 
Q 54.890625 34.8125 54.890625 23.390625 
Q 54.890625 11.625 47.5625 5.09375 
Q 40.234375 -1.421875 26.90625 -1.421875 
Q 22.3125 -1.421875 17.546875 -0.640625 
Q 12.796875 0.140625 7.71875 1.703125 
L 7.71875 11.625 
Q 12.109375 9.234375 16.796875 8.0625 
Q 21.484375 6.890625 26.703125 6.890625 
Q 35.15625 6.890625 40.078125 11.328125 
Q 45.015625 15.765625 45.015625 23.390625 
Q 45.015625 31 40.078125 35.4375 
Q 35.15625 39.890625 26.703125 39.890625 
Q 22.75 39.890625 18.8125 39.015625 
Q 14.890625 38.140625 10.796875 36.28125 
z
" id="DejaVuSans-35"/>
      </defs>
      <g transform="translate(405.17625 322.182437)scale(0.1 -0.1)">
       <use xlink:href="#DejaVuSans-35"/>
       <use x="63.623047" xlink:href="#DejaVuSans-30"/>
       <use x="127.246094" xlink:href="#DejaVuSans-30"/>
      </g>
     </g>
    </g>
    <g id="text_6">
     <!-- Tiradas -->
     <defs>
      <path d="M -0.296875 72.90625 
L 61.375 72.90625 
L 61.375 64.59375 
L 35.5 64.59375 
L 35.5 0 
L 25.59375 0 
L 25.59375 64.59375 
L -0.296875 64.59375 
z
" id="DejaVuSans-54"/>
      <path d="M 9.421875 54.6875 
L 18.40625 54.6875 
L 18.40625 0 
L 9.421875 0 
z
M 9.421875 75.984375 
L 18.40625 75.984375 
L 18.40625 64.59375 
L 9.421875 64.59375 
z
" id="DejaVuSans-69"/>
      <path d="M 41.109375 46.296875 
Q 39.59375 47.171875 37.8125 47.578125 
Q 36.03125 48 33.890625 48 
Q 26.265625 48 22.1875 43.046875 
Q 18.109375 38.09375 18.109375 28.8125 
L 18.109375 0 
L 9.078125 0 
L 9.078125 54.6875 
L 18.109375 54.6875 
L 18.109375 46.1875 
Q 20.953125 51.171875 25.484375 53.578125 
Q 30.03125 56 36.53125 56 
Q 37.453125 56 38.578125 55.875 
Q 39.703125 55.765625 41.0625 55.515625 
z
" id="DejaVuSans-72"/>
      <path d="M 34.28125 27.484375 
Q 23.390625 27.484375 19.1875 25 
Q 14.984375 22.515625 14.984375 16.5 
Q 14.984375 11.71875 18.140625 8.90625 
Q 21.296875 6.109375 26.703125 6.109375 
Q 34.1875 6.109375 38.703125 11.40625 
Q 43.21875 16.703125 43.21875 25.484375 
L 43.21875 27.484375 
z
M 52.203125 31.203125 
L 52.203125 0 
L 43.21875 0 
L 43.21875 8.296875 
Q 40.140625 3.328125 35.546875 0.953125 
Q 30.953125 -1.421875 24.3125 -1.421875 
Q 15.921875 -1.421875 10.953125 3.296875 
Q 6 8.015625 6 15.921875 
Q 6 25.140625 12.171875 29.828125 
Q 18.359375 34.515625 30.609375 34.515625 
L 43.21875 34.515625 
L 43.21875 35.40625 
Q 43.21875 41.609375 39.140625 45 
Q 35.0625 48.390625 27.6875 48.390625 
Q 23 48.390625 18.546875 47.265625 
Q 14.109375 46.140625 10.015625 43.890625 
L 10.015625 52.203125 
Q 14.9375 54.109375 19.578125 55.046875 
Q 24.21875 56 28.609375 56 
Q 40.484375 56 46.34375 49.84375 
Q 52.203125 43.703125 52.203125 31.203125 
z
" id="DejaVuSans-61"/>
      <path d="M 45.40625 46.390625 
L 45.40625 75.984375 
L 54.390625 75.984375 
L 54.390625 0 
L 45.40625 0 
L 45.40625 8.203125 
Q 42.578125 3.328125 38.25 0.953125 
Q 33.9375 -1.421875 27.875 -1.421875 
Q 17.96875 -1.421875 11.734375 6.484375 
Q 5.515625 14.40625 5.515625 27.296875 
Q 5.515625 40.1875 11.734375 48.09375 
Q 17.96875 56 27.875 56 
Q 33.9375 56 38.25 53.625 
Q 42.578125 51.265625 45.40625 46.390625 
z
M 14.796875 27.296875 
Q 14.796875 17.390625 18.875 11.75 
Q 22.953125 6.109375 30.078125 6.109375 
Q 37.203125 6.109375 41.296875 11.75 
Q 45.40625 17.390625 45.40625 27.296875 
Q 45.40625 37.203125 41.296875 42.84375 
Q 37.203125 48.484375 30.078125 48.484375 
Q 22.953125 48.484375 18.875 42.84375 
Q 14.796875 37.203125 14.796875 27.296875 
z
" id="DejaVuSans-64"/>
      <path d="M 44.28125 53.078125 
L 44.28125 44.578125 
Q 40.484375 46.53125 36.375 47.5 
Q 32.28125 48.484375 27.875 48.484375 
Q 21.1875 48.484375 17.84375 46.4375 
Q 14.5 44.390625 14.5 40.28125 
Q 14.5 37.15625 16.890625 35.375 
Q 19.28125 33.59375 26.515625 31.984375 
L 29.59375 31.296875 
Q 39.15625 29.25 43.1875 25.515625 
Q 47.21875 21.78125 47.21875 15.09375 
Q 47.21875 7.46875 41.1875 3.015625 
Q 35.15625 -1.421875 24.609375 -1.421875 
Q 20.21875 -1.421875 15.453125 -0.5625 
Q 10.6875 0.296875 5.421875 2 
L 5.421875 11.28125 
Q 10.40625 8.6875 15.234375 7.390625 
Q 20.0625 6.109375 24.8125 6.109375 
Q 31.15625 6.109375 34.5625 8.28125 
Q 37.984375 10.453125 37.984375 14.40625 
Q 37.984375 18.0625 35.515625 20.015625 
Q 33.0625 21.96875 24.703125 23.78125 
L 21.578125 24.515625 
Q 13.234375 26.265625 9.515625 29.90625 
Q 5.8125 33.546875 5.8125 39.890625 
Q 5.8125 47.609375 11.28125 51.796875 
Q 16.75 56 26.8125 56 
Q 31.78125 56 36.171875 55.265625 
Q 40.578125 54.546875 44.28125 53.078125 
z
" id="DejaVuSans-73"/>
     </defs>
     <g transform="translate(217.756875 335.860562)scale(0.1 -0.1)">
      <use xlink:href="#DejaVuSans-54"/>
      <use x="61.037109" xlink:href="#DejaVuSans-69"/>
      <use x="88.820312" xlink:href="#DejaVuSans-72"/>
      <use x="129.933594" xlink:href="#DejaVuSans-61"/>
      <use x="191.212891" xlink:href="#DejaVuSans-64"/>
      <use x="254.689453" xlink:href="#DejaVuSans-61"/>
      <use x="315.96875" xlink:href="#DejaVuSans-73"/>
     </g>
    </g>
   </g>
   <g id="matplotlib.axis_2">
    <g id="ytick_1">
     <g id="line2d_6">
      <defs>
       <path d="M 0 0 
L -3.5 0 
" id="me0c11e191e" style="stroke:#000000;stroke-width:0.8;"/>
      </defs>
      <g>
       <use style="stroke:#000000;stroke-width:0.8;" x="57.6" xlink:href="#me0c11e191e" y="295.488"/>
      </g>
     </g>
     <g id="text_7">
      <!-- 17 -->
      <defs>
       <path d="M 8.203125 72.90625 
L 55.078125 72.90625 
L 55.078125 68.703125 
L 28.609375 0 
L 18.3125 0 
L 43.21875 64.59375 
L 8.203125 64.59375 
z
" id="DejaVuSans-37"/>
      </defs>
      <g transform="translate(37.875 299.287219)scale(0.1 -0.1)">
       <use xlink:href="#DejaVuSans-31"/>
       <use x="63.623047" xlink:href="#DejaVuSans-37"/>
      </g>
     </g>
    </g>
    <g id="ytick_2">
     <g id="line2d_7">
      <g>
       <use style="stroke:#000000;stroke-width:0.8;" x="57.6" xlink:href="#me0c11e191e" y="258.269538"/>
      </g>
     </g>
     <g id="text_8">
      <!-- 18 -->
      <defs>
       <path d="M 31.78125 34.625 
Q 24.75 34.625 20.71875 30.859375 
Q 16.703125 27.09375 16.703125 20.515625 
Q 16.703125 13.921875 20.71875 10.15625 
Q 24.75 6.390625 31.78125 6.390625 
Q 38.8125 6.390625 42.859375 10.171875 
Q 46.921875 13.96875 46.921875 20.515625 
Q 46.921875 27.09375 42.890625 30.859375 
Q 38.875 34.625 31.78125 34.625 
z
M 21.921875 38.8125 
Q 15.578125 40.375 12.03125 44.71875 
Q 8.5 49.078125 8.5 55.328125 
Q 8.5 64.0625 14.71875 69.140625 
Q 20.953125 74.21875 31.78125 74.21875 
Q 42.671875 74.21875 48.875 69.140625 
Q 55.078125 64.0625 55.078125 55.328125 
Q 55.078125 49.078125 51.53125 44.71875 
Q 48 40.375 41.703125 38.8125 
Q 48.828125 37.15625 52.796875 32.3125 
Q 56.78125 27.484375 56.78125 20.515625 
Q 56.78125 9.90625 50.3125 4.234375 
Q 43.84375 -1.421875 31.78125 -1.421875 
Q 19.734375 -1.421875 13.25 4.234375 
Q 6.78125 9.90625 6.78125 20.515625 
Q 6.78125 27.484375 10.78125 32.3125 
Q 14.796875 37.15625 21.921875 38.8125 
z
M 18.3125 54.390625 
Q 18.3125 48.734375 21.84375 45.5625 
Q 25.390625 42.390625 31.78125 42.390625 
Q 38.140625 42.390625 41.71875 45.5625 
Q 45.3125 48.734375 45.3125 54.390625 
Q 45.3125 60.0625 41.71875 63.234375 
Q 38.140625 66.40625 31.78125 66.40625 
Q 25.390625 66.40625 21.84375 63.234375 
Q 18.3125 60.0625 18.3125 54.390625 
z
" id="DejaVuSans-38"/>
      </defs>
      <g transform="translate(37.875 262.068757)scale(0.1 -0.1)">
       <use xlink:href="#DejaVuSans-31"/>
       <use x="63.623047" xlink:href="#DejaVuSans-38"/>
      </g>
     </g>
    </g>
    <g id="ytick_3">
     <g id="line2d_8">
      <g>
       <use style="stroke:#000000;stroke-width:0.8;" x="57.6" xlink:href="#me0c11e191e" y="221.051077"/>
      </g>
     </g>
     <g id="text_9">
      <!-- 19 -->
      <defs>
       <path d="M 10.984375 1.515625 
L 10.984375 10.5 
Q 14.703125 8.734375 18.5 7.8125 
Q 22.3125 6.890625 25.984375 6.890625 
Q 35.75 6.890625 40.890625 13.453125 
Q 46.046875 20.015625 46.78125 33.40625 
Q 43.953125 29.203125 39.59375 26.953125 
Q 35.25 24.703125 29.984375 24.703125 
Q 19.046875 24.703125 12.671875 31.3125 
Q 6.296875 37.9375 6.296875 49.421875 
Q 6.296875 60.640625 12.9375 67.421875 
Q 19.578125 74.21875 30.609375 74.21875 
Q 43.265625 74.21875 49.921875 64.515625 
Q 56.59375 54.828125 56.59375 36.375 
Q 56.59375 19.140625 48.40625 8.859375 
Q 40.234375 -1.421875 26.421875 -1.421875 
Q 22.703125 -1.421875 18.890625 -0.6875 
Q 15.09375 0.046875 10.984375 1.515625 
z
M 30.609375 32.421875 
Q 37.25 32.421875 41.125 36.953125 
Q 45.015625 41.5 45.015625 49.421875 
Q 45.015625 57.28125 41.125 61.84375 
Q 37.25 66.40625 30.609375 66.40625 
Q 23.96875 66.40625 20.09375 61.84375 
Q 16.21875 57.28125 16.21875 49.421875 
Q 16.21875 41.5 20.09375 36.953125 
Q 23.96875 32.421875 30.609375 32.421875 
z
" id="DejaVuSans-39"/>
      </defs>
      <g transform="translate(37.875 224.850296)scale(0.1 -0.1)">
       <use xlink:href="#DejaVuSans-31"/>
       <use x="63.623047" xlink:href="#DejaVuSans-39"/>
      </g>
     </g>
    </g>
    <g id="ytick_4">
     <g id="line2d_9">
      <g>
       <use style="stroke:#000000;stroke-width:0.8;" x="57.6" xlink:href="#me0c11e191e" y="183.832615"/>
      </g>
     </g>
     <g id="text_10">
      <!-- 20 -->
      <g transform="translate(37.875 187.631834)scale(0.1 -0.1)">
       <use xlink:href="#DejaVuSans-32"/>
       <use x="63.623047" xlink:href="#DejaVuSans-30"/>
      </g>
     </g>
    </g>
    <g id="ytick_5">
     <g id="line2d_10">
      <g>
       <use style="stroke:#000000;stroke-width:0.8;" x="57.6" xlink:href="#me0c11e191e" y="146.614154"/>
      </g>
     </g>
     <g id="text_11">
      <!-- 21 -->
      <g transform="translate(37.875 150.413373)scale(0.1 -0.1)">
       <use xlink:href="#DejaVuSans-32"/>
       <use x="63.623047" xlink:href="#DejaVuSans-31"/>
      </g>
     </g>
    </g>
    <g id="ytick_6">
     <g id="line2d_11">
      <g>
       <use style="stroke:#000000;stroke-width:0.8;" x="57.6" xlink:href="#me0c11e191e" y="109.395692"/>
      </g>
     </g>
     <g id="text_12">
      <!-- 22 -->
      <g transform="translate(37.875 113.194911)scale(0.1 -0.1)">
       <use xlink:href="#DejaVuSans-32"/>
       <use x="63.623047" xlink:href="#DejaVuSans-32"/>
      </g>
     </g>
    </g>
    <g id="ytick_7">
     <g id="line2d_12">
      <g>
       <use style="stroke:#000000;stroke-width:0.8;" x="57.6" xlink:href="#me0c11e191e" y="72.177231"/>
      </g>
     </g>
     <g id="text_13">
      <!-- 23 -->
      <g transform="translate(37.875 75.97645)scale(0.1 -0.1)">
       <use xlink:href="#DejaVuSans-32"/>
       <use x="63.623047" xlink:href="#DejaVuSans-33"/>
      </g>
     </g>
    </g>
    <g id="text_14">
     <!-- Valores -->
     <defs>
      <path d="M 28.609375 0 
L 0.78125 72.90625 
L 11.078125 72.90625 
L 34.1875 11.53125 
L 57.328125 72.90625 
L 67.578125 72.90625 
L 39.796875 0 
z
" id="DejaVuSans-56"/>
      <path d="M 9.421875 75.984375 
L 18.40625 75.984375 
L 18.40625 0 
L 9.421875 0 
z
" id="DejaVuSans-6c"/>
      <path d="M 30.609375 48.390625 
Q 23.390625 48.390625 19.1875 42.75 
Q 14.984375 37.109375 14.984375 27.296875 
Q 14.984375 17.484375 19.15625 11.84375 
Q 23.34375 6.203125 30.609375 6.203125 
Q 37.796875 6.203125 41.984375 11.859375 
Q 46.1875 17.53125 46.1875 27.296875 
Q 46.1875 37.015625 41.984375 42.703125 
Q 37.796875 48.390625 30.609375 48.390625 
z
M 30.609375 56 
Q 42.328125 56 49.015625 48.375 
Q 55.71875 40.765625 55.71875 27.296875 
Q 55.71875 13.875 49.015625 6.21875 
Q 42.328125 -1.421875 30.609375 -1.421875 
Q 18.84375 -1.421875 12.171875 6.21875 
Q 5.515625 13.875 5.515625 27.296875 
Q 5.515625 40.765625 12.171875 48.375 
Q 18.84375 56 30.609375 56 
z
" id="DejaVuSans-6f"/>
      <path d="M 56.203125 29.59375 
L 56.203125 25.203125 
L 14.890625 25.203125 
Q 15.484375 15.921875 20.484375 11.0625 
Q 25.484375 6.203125 34.421875 6.203125 
Q 39.59375 6.203125 44.453125 7.46875 
Q 49.3125 8.734375 54.109375 11.28125 
L 54.109375 2.78125 
Q 49.265625 0.734375 44.1875 -0.34375 
Q 39.109375 -1.421875 33.890625 -1.421875 
Q 20.796875 -1.421875 13.15625 6.1875 
Q 5.515625 13.8125 5.515625 26.8125 
Q 5.515625 40.234375 12.765625 48.109375 
Q 20.015625 56 32.328125 56 
Q 43.359375 56 49.78125 48.890625 
Q 56.203125 41.796875 56.203125 29.59375 
z
M 47.21875 32.234375 
Q 47.125 39.59375 43.09375 43.984375 
Q 39.0625 48.390625 32.421875 48.390625 
Q 24.90625 48.390625 20.390625 44.140625 
Q 15.875 39.890625 15.1875 32.171875 
z
" id="DejaVuSans-65"/>
     </defs>
     <g transform="translate(31.795312 193.1905)rotate(-90)scale(0.1 -0.1)">
      <use xlink:href="#DejaVuSans-56"/>
      <use x="68.298828" xlink:href="#DejaVuSans-61"/>
      <use x="129.578125" xlink:href="#DejaVuSans-6c"/>
      <use x="157.361328" xlink:href="#DejaVuSans-6f"/>
      <use x="218.542969" xlink:href="#DejaVuSans-72"/>
      <use x="259.625" xlink:href="#DejaVuSans-65"/>
      <use x="321.148438" xlink:href="#DejaVuSans-73"/>
     </g>
    </g>
   </g>
   <g id="line2d_13">
    <path clip-path="url(#p1385aaa5b7)" d="M 57.6 239.660308 
L 414.72 239.660308 
L 414.72 239.660308 
" style="fill:none;stroke:#1f77b4;stroke-linecap:square;stroke-width:1.5;"/>
   </g>
   <g id="line2d_14">
    <path clip-path="url(#p1385aaa5b7)" d="M 57.6 183.832615 
L 58.315671 53.568 
L 59.031343 295.488 
L 59.747014 118.700308 
L 60.462685 124.283077 
L 61.178357 177.629538 
L 61.894028 93.444923 
L 62.609699 104.743385 
L 63.325371 134.208 
L 64.041042 94.508308 
L 64.756713 122.929678 
L 65.472385 168.324923 
L 66.188056 155.20303 
L 66.903727 151.931077 
L 67.619399 201.201231 
L 68.33507 195.463385 
L 69.050741 210.104471 
L 71.197756 286.183385 
L 71.913427 275.992615 
L 72.629098 287.029259 
L 73.34477 258.269538 
L 74.060441 250.515692 
L 74.776112 238.915938 
L 75.491784 248.249183 
L 76.923126 262.257231 
L 77.638798 251.852562 
L 78.354469 248.344615 
L 79.07014 228.25465 
L 79.785812 230.355692 
L 80.501483 250.374713 
L 81.217154 241.849629 
L 81.932826 257.206154 
L 82.648497 262.404923 
L 83.364168 258.269538 
L 84.07984 245.536907 
L 84.795511 230.594272 
L 85.511182 233.147077 
L 86.226854 218.327775 
L 86.942525 233.457231 
L 87.658196 246.1519 
L 88.373868 233.739189 
L 89.089539 227.667692 
L 89.80521 235.614823 
L 90.520882 228.969899 
L 91.236553 219.500308 
L 91.952224 214.974593 
L 92.667896 218.817969 
L 94.099238 243.954746 
L 94.81491 234.393544 
L 95.530581 242.417231 
L 96.246253 244.735552 
L 96.961924 244.977231 
L 97.677595 239.986785 
L 98.393267 235.810122 
L 99.108938 247.545575 
L 99.824609 239.04 
L 100.540281 238.7451 
L 101.971623 255.906462 
L 102.687295 254.198769 
L 103.402966 255.979172 
L 104.118637 248.119049 
L 104.834309 247.15955 
L 105.54998 251.154244 
L 106.265651 253.414957 
L 106.981323 246.040615 
L 107.696994 241.495021 
L 108.412665 244.829538 
L 109.128337 246.033332 
L 110.559679 258.269538 
L 111.275351 255.820955 
L 111.991022 261.653035 
L 112.706693 264.949775 
L 113.422365 262.509616 
L 114.138036 259.2 
L 114.853707 254.134154 
L 115.569379 247.830214 
L 116.28505 245.713913 
L 117.000721 249.408 
L 117.716393 246.885068 
L 118.432064 254.374583 
L 119.863407 243.889678 
L 120.579078 236.52392 
L 121.294749 243.795692 
L 122.010421 248.044686 
L 122.726092 251.392214 
L 123.441764 247.464179 
L 124.157435 245.203483 
L 124.873106 250.0423 
L 125.588778 245.863385 
L 126.304449 243.305415 
L 127.02012 249.154813 
L 127.735792 245.863385 
L 128.451463 245.243077 
L 129.167134 247.951549 
L 129.882806 245.498498 
L 131.314148 253.259361 
L 132.02982 253.307077 
L 132.745491 256.162833 
L 133.461162 261.400063 
L 134.176834 258.614154 
L 134.892505 258.952446 
L 135.608176 256.57779 
L 136.323848 258.269538 
L 137.039519 256.940308 
L 137.75519 259.257639 
L 138.470862 262.840227 
L 139.186533 267.978702 
L 139.902204 271.42434 
L 140.617876 272.902438 
L 141.333547 269.624323 
L 142.049218 271.092706 
L 142.76489 276.258462 
L 143.480561 274.87943 
L 144.196232 276.268631 
L 144.911904 273.096405 
L 145.627575 271.17594 
L 146.343246 269.881698 
L 147.058918 268.312615 
L 147.774589 265.596007 
L 148.490261 268.737231 
L 149.205932 266.059449 
L 149.921603 267.14471 
L 150.637275 262.815305 
L 151.352946 266.72828 
L 152.068617 269.463061 
L 152.784289 264.935532 
L 153.49996 261.302154 
L 154.215631 261.00619 
L 155.646974 255.302849 
L 156.362645 253.71764 
L 157.078317 249.762462 
L 157.793988 252.198442 
L 158.509659 248.309668 
L 159.225331 250.721739 
L 159.941002 247.931077 
L 160.656673 252.36592 
L 161.372345 254.700645 
L 162.088016 254.724923 
L 162.803687 255.251825 
L 163.519359 258.519327 
L 164.23503 260.502646 
L 164.950701 256.544179 
L 165.666373 258.269538 
L 166.382044 261.675149 
L 167.813387 257.068943 
L 168.529058 256.838059 
L 169.244729 255.187755 
L 169.960401 258.740658 
L 170.676072 262.951106 
L 171.391743 261.060923 
L 172.107415 264.511144 
L 173.538758 262.607887 
L 174.254429 259.177306 
L 174.9701 255.111608 
L 175.685772 255.130632 
L 177.117114 248.521846 
L 177.832786 249.01998 
L 178.548457 245.352543 
L 179.264128 243.469215 
L 180.695471 236.325706 
L 181.411142 236.45182 
L 182.126814 233.173662 
L 182.842485 232.470378 
L 183.558156 233.877778 
L 184.273828 233.387533 
L 185.70517 227.874462 
L 186.420842 227.836763 
L 187.136513 226.776994 
L 187.852184 226.745705 
L 188.567856 229.951144 
L 189.283527 230.506578 
L 189.999198 231.256139 
L 191.430541 225.406429 
L 192.146212 228.928 
L 192.861884 229.670089 
L 193.577555 232.547879 
L 195.008898 227.222014 
L 195.724569 230.259768 
L 196.44024 230.02168 
L 197.155912 228.266901 
L 197.871583 229.174904 
L 198.587255 230.63765 
L 199.302926 230.215422 
L 200.018597 229.239138 
L 200.734269 231.605566 
L 201.44994 229.895068 
L 202.165611 231.318239 
L 203.596954 225.589914 
L 204.312625 223.941831 
L 205.028297 225.366261 
L 205.743968 228.566343 
L 206.459639 229.776936 
L 207.175311 229.026462 
L 208.606653 235.271338 
L 209.322325 233.282496 
L 210.037996 232.877504 
L 210.753667 234.553589 
L 211.469339 233.629538 
L 212.18501 235.972764 
L 212.900681 237.782312 
L 213.616353 236.68623 
L 214.332024 238.137734 
L 215.047695 239.070875 
L 215.763367 237.145547 
L 216.479038 237.407172 
L 217.194709 234.675692 
L 217.910381 237.758031 
L 218.626052 235.049171 
L 219.341723 237.282917 
L 220.057395 234.599903 
L 220.773066 237.628732 
L 221.488737 238.365753 
L 222.204409 239.901986 
L 222.92008 240.302005 
L 223.635752 241.657006 
L 224.351423 242.523266 
L 225.067094 245.282671 
L 225.782766 247.545575 
L 226.498437 245.549305 
L 227.214108 247.010172 
L 227.92978 245.188573 
L 228.645451 245.863385 
L 229.361122 247.768064 
L 230.076794 247.965254 
L 230.792465 249.079795 
L 231.508136 250.947874 
L 232.223808 251.433495 
L 232.939479 250.402221 
L 233.65515 248.776571 
L 234.370822 247.764328 
L 235.086493 245.414969 
L 235.802164 246.359631 
L 236.517836 244.034589 
L 237.233507 243.204923 
L 237.949178 242.087599 
L 239.380521 237.543964 
L 240.096192 235.734923 
L 240.811864 234.374417 
L 241.527535 235.044064 
L 242.243206 236.570744 
L 242.958878 236.081609 
L 243.674549 236.024021 
L 244.39022 237.245369 
L 245.105892 236.476219 
L 245.821563 237.686601 
L 246.537234 238.466508 
L 247.252906 237.001846 
L 247.968577 236.384525 
L 248.684248 238.965933 
L 249.39992 238.622618 
L 250.831263 234.098139 
L 251.546934 234.050172 
L 252.262605 231.957586 
L 252.978277 231.374446 
L 254.409619 226.984455 
L 255.125291 228.70975 
L 255.840962 231.092029 
L 256.556633 231.189439 
L 257.272305 232.216615 
L 257.987976 233.633831 
L 259.419319 237.227299 
L 260.13499 236.646137 
L 260.850661 236.460826 
L 261.566333 238.228828 
L 262.282004 236.612803 
L 262.997675 236.429538 
L 263.713347 235.603624 
L 264.429018 237.606875 
L 265.144689 237.422084 
L 266.576032 240.612999 
L 267.291703 241.559209 
L 268.007375 241.111197 
L 268.723046 242.300807 
L 269.438717 243.231776 
L 270.154389 241.159038 
L 271.585731 244.002462 
L 272.301403 242.689717 
L 273.017074 242.987786 
L 273.732745 245.126385 
L 274.448417 246.026623 
L 275.164088 247.287042 
L 275.87976 249.512253 
L 276.595431 249.904477 
L 277.311102 251.381706 
L 278.742445 251.426144 
L 279.458116 252.405536 
L 280.173788 250.277112 
L 280.889459 251.253918 
L 281.60513 253.291273 
L 282.320802 252.952615 
L 283.036473 254.50058 
L 283.752144 252.516527 
L 284.467816 254.524284 
L 285.183487 252.552596 
L 285.899158 251.872615 
L 286.61483 249.805527 
L 287.330501 249.600642 
L 288.046172 251.240665 
L 288.761844 251.147487 
L 289.477515 251.97103 
L 290.193186 251.762016 
L 290.908858 251.895735 
L 291.624529 253.844173 
L 292.3402 251.934481 
L 293.055872 253.194294 
L 293.771543 252.197644 
L 294.487214 250.310169 
L 295.202886 250.781139 
L 295.918557 251.583587 
L 296.634228 250.270347 
L 297.3499 251.401846 
L 298.065571 252.968393 
L 298.781242 251.112142 
L 299.496914 252.011567 
L 300.212585 250.606914 
L 300.928257 250.411095 
L 301.643928 251.631158 
L 302.359599 249.805865 
L 303.075271 251.23698 
L 303.790942 250.933726 
L 304.506613 251.170063 
L 305.222285 252.477616 
L 305.937956 251.638663 
L 306.653627 250.591231 
L 307.369299 248.805415 
L 308.08497 248.938414 
L 308.800641 250.762406 
L 309.516313 251.310846 
L 310.231984 250.384271 
L 310.947655 249.672598 
L 311.663327 248.233099 
L 312.378998 248.573973 
L 313.094669 250.368413 
L 313.810341 249.457368 
L 314.526012 249.688615 
L 315.241683 250.846466 
L 315.957355 249.01633 
L 316.673026 249.964592 
L 317.388697 248.964923 
L 318.104369 249.194352 
L 318.82004 247.795491 
L 319.535711 248.736744 
L 320.251383 248.964923 
L 321.682725 246.802229 
L 322.398397 246.933457 
L 323.114068 246.863881 
L 323.829739 245.098394 
L 324.545411 243.939436 
L 325.976754 244.510586 
L 326.692425 245.238141 
L 327.408096 244.583385 
L 328.123768 244.324891 
L 328.839439 242.892437 
L 329.55511 243.12817 
L 330.270782 244.142112 
L 330.986453 244.664879 
L 332.417796 247.44235 
L 333.133467 248.434608 
L 333.849138 247.209789 
L 335.280481 246.788265 
L 335.996152 245.099929 
L 336.711824 244.181732 
L 337.427495 242.603604 
L 338.143166 244.348129 
L 338.858838 244.572389 
L 339.574509 244.512841 
L 340.29018 246.051357 
L 341.005852 247.019626 
L 341.721523 247.047892 
L 342.437194 247.542413 
L 343.152866 248.220554 
L 343.868537 249.080941 
L 344.584208 249.381548 
L 345.29988 251.065965 
L 346.015551 252.465669 
L 346.731222 253.490872 
L 348.162565 251.4111 
L 348.878236 250.698136 
L 349.593908 251.080642 
L 350.309579 250.008856 
L 351.025251 249.395063 
L 351.740922 248.151898 
L 352.456593 247.545575 
L 353.172265 247.481579 
L 353.887936 247.238525 
L 354.603607 246.549302 
L 355.319279 245.149361 
L 356.03495 246.694419 
L 356.750621 246.366737 
L 358.181964 244.920399 
L 358.897635 244.687446 
L 359.613307 243.575725 
L 360.328978 245.014851 
L 361.044649 245.308757 
L 361.760321 245.339181 
L 362.475992 245.107975 
L 363.191663 243.9213 
L 363.907335 244.56204 
L 364.623006 244.680472 
L 366.054349 247.844923 
L 366.77002 246.751585 
L 367.485691 248.064476 
L 368.201363 247.317899 
L 368.917034 247.001564 
L 369.632705 245.920163 
L 370.348377 245.353543 
L 371.064048 246.230765 
L 371.779719 246.258126 
L 372.495391 245.610198 
L 373.211062 246.144067 
L 373.926733 244.659176 
L 374.642405 244.354528 
L 375.358076 245.72399 
L 376.073747 245.752119 
L 376.789419 246.862538 
L 378.220762 244.426592 
L 380.367776 248.470873 
L 381.083447 247.670904 
L 381.799118 248.104144 
L 382.51479 247.144899 
L 383.230461 246.51634 
L 383.946132 245.483327 
L 384.661804 246.567664 
L 385.377475 245.863385 
L 386.808818 247.531891 
L 387.524489 248.119049 
L 388.24016 248.060587 
L 388.955832 249.125347 
L 389.671503 249.225052 
L 390.387174 248.765253 
L 391.102846 248.785605 
L 391.818517 247.692497 
L 392.534188 246.286622 
L 393.24986 247.658318 
L 393.965531 248.550068 
L 394.681202 249.75345 
L 395.396874 249.378024 
L 396.112545 249.789383 
L 396.828216 249.023689 
L 398.259559 248.438247 
L 398.97523 247.52446 
L 399.690902 248.401596 
L 400.406573 248.267077 
L 401.122244 248.597381 
L 402.553587 251.180308 
L 403.269259 252.271522 
L 403.98493 251.132803 
L 404.700601 252.066462 
L 405.416273 252.232047 
L 406.131944 252.77829 
L 406.847615 251.72396 
L 407.563287 252.117099 
L 408.278958 251.750623 
L 408.994629 251.990814 
L 409.710301 252.758488 
L 410.425972 252.920326 
L 411.141643 254.284531 
L 411.857315 253.91738 
L 412.572986 253.102388 
L 413.288657 252.514877 
L 414.004329 252.600995 
L 414.72 253.356702 
L 414.72 253.356702 
" style="fill:none;stroke:#ff7f0e;stroke-linecap:square;stroke-width:1.5;"/>
   </g>
   <g id="patch_3">
    <path d="M 57.6 307.584 
L 57.6 41.472 
" style="fill:none;stroke:#000000;stroke-linecap:square;stroke-linejoin:miter;stroke-width:0.8;"/>
   </g>
   <g id="patch_4">
    <path d="M 414.72 307.584 
L 414.72 41.472 
" style="fill:none;stroke:#000000;stroke-linecap:square;stroke-linejoin:miter;stroke-width:0.8;"/>
   </g>
   <g id="patch_5">
    <path d="M 57.6 307.584 
L 414.72 307.584 
" style="fill:none;stroke:#000000;stroke-linecap:square;stroke-linejoin:miter;stroke-width:0.8;"/>
   </g>
   <g id="patch_6">
    <path d="M 57.6 41.472 
L 414.72 41.472 
" style="fill:none;stroke:#000000;stroke-linecap:square;stroke-linejoin:miter;stroke-width:0.8;"/>
   </g>
   <g id="text_15">
    <!-- Grafico valores promedio esperados vs valores promedio obtenidos -->
    <defs>
     <path d="M 59.515625 10.40625 
L 59.515625 29.984375 
L 43.40625 29.984375 
L 43.40625 38.09375 
L 69.28125 38.09375 
L 69.28125 6.78125 
Q 63.578125 2.734375 56.6875 0.65625 
Q 49.8125 -1.421875 42 -1.421875 
Q 24.90625 -1.421875 15.25 8.5625 
Q 5.609375 18.5625 5.609375 36.375 
Q 5.609375 54.25 15.25 64.234375 
Q 24.90625 74.21875 42 74.21875 
Q 49.125 74.21875 55.546875 72.453125 
Q 61.96875 70.703125 67.390625 67.28125 
L 67.390625 56.78125 
Q 61.921875 61.421875 55.765625 63.765625 
Q 49.609375 66.109375 42.828125 66.109375 
Q 29.4375 66.109375 22.71875 58.640625 
Q 16.015625 51.171875 16.015625 36.375 
Q 16.015625 21.625 22.71875 14.15625 
Q 29.4375 6.6875 42.828125 6.6875 
Q 48.046875 6.6875 52.140625 7.59375 
Q 56.25 8.5 59.515625 10.40625 
z
" id="DejaVuSans-47"/>
     <path d="M 37.109375 75.984375 
L 37.109375 68.5 
L 28.515625 68.5 
Q 23.6875 68.5 21.796875 66.546875 
Q 19.921875 64.59375 19.921875 59.515625 
L 19.921875 54.6875 
L 34.71875 54.6875 
L 34.71875 47.703125 
L 19.921875 47.703125 
L 19.921875 0 
L 10.890625 0 
L 10.890625 47.703125 
L 2.296875 47.703125 
L 2.296875 54.6875 
L 10.890625 54.6875 
L 10.890625 58.5 
Q 10.890625 67.625 15.140625 71.796875 
Q 19.390625 75.984375 28.609375 75.984375 
z
" id="DejaVuSans-66"/>
     <path d="M 48.78125 52.59375 
L 48.78125 44.1875 
Q 44.96875 46.296875 41.140625 47.34375 
Q 37.3125 48.390625 33.40625 48.390625 
Q 24.65625 48.390625 19.8125 42.84375 
Q 14.984375 37.3125 14.984375 27.296875 
Q 14.984375 17.28125 19.8125 11.734375 
Q 24.65625 6.203125 33.40625 6.203125 
Q 37.3125 6.203125 41.140625 7.25 
Q 44.96875 8.296875 48.78125 10.40625 
L 48.78125 2.09375 
Q 45.015625 0.34375 40.984375 -0.53125 
Q 36.96875 -1.421875 32.421875 -1.421875 
Q 20.0625 -1.421875 12.78125 6.34375 
Q 5.515625 14.109375 5.515625 27.296875 
Q 5.515625 40.671875 12.859375 48.328125 
Q 20.21875 56 33.015625 56 
Q 37.15625 56 41.109375 55.140625 
Q 45.0625 54.296875 48.78125 52.59375 
z
" id="DejaVuSans-63"/>
     <path id="DejaVuSans-20"/>
     <path d="M 2.984375 54.6875 
L 12.5 54.6875 
L 29.59375 8.796875 
L 46.6875 54.6875 
L 56.203125 54.6875 
L 35.6875 0 
L 23.484375 0 
z
" id="DejaVuSans-76"/>
     <path d="M 18.109375 8.203125 
L 18.109375 -20.796875 
L 9.078125 -20.796875 
L 9.078125 54.6875 
L 18.109375 54.6875 
L 18.109375 46.390625 
Q 20.953125 51.265625 25.265625 53.625 
Q 29.59375 56 35.59375 56 
Q 45.5625 56 51.78125 48.09375 
Q 58.015625 40.1875 58.015625 27.296875 
Q 58.015625 14.40625 51.78125 6.484375 
Q 45.5625 -1.421875 35.59375 -1.421875 
Q 29.59375 -1.421875 25.265625 0.953125 
Q 20.953125 3.328125 18.109375 8.203125 
z
M 48.6875 27.296875 
Q 48.6875 37.203125 44.609375 42.84375 
Q 40.53125 48.484375 33.40625 48.484375 
Q 26.265625 48.484375 22.1875 42.84375 
Q 18.109375 37.203125 18.109375 27.296875 
Q 18.109375 17.390625 22.1875 11.75 
Q 26.265625 6.109375 33.40625 6.109375 
Q 40.53125 6.109375 44.609375 11.75 
Q 48.6875 17.390625 48.6875 27.296875 
z
" id="DejaVuSans-70"/>
     <path d="M 52 44.1875 
Q 55.375 50.25 60.0625 53.125 
Q 64.75 56 71.09375 56 
Q 79.640625 56 84.28125 50.015625 
Q 88.921875 44.046875 88.921875 33.015625 
L 88.921875 0 
L 79.890625 0 
L 79.890625 32.71875 
Q 79.890625 40.578125 77.09375 44.375 
Q 74.3125 48.1875 68.609375 48.1875 
Q 61.625 48.1875 57.5625 43.546875 
Q 53.515625 38.921875 53.515625 30.90625 
L 53.515625 0 
L 44.484375 0 
L 44.484375 32.71875 
Q 44.484375 40.625 41.703125 44.40625 
Q 38.921875 48.1875 33.109375 48.1875 
Q 26.21875 48.1875 22.15625 43.53125 
Q 18.109375 38.875 18.109375 30.90625 
L 18.109375 0 
L 9.078125 0 
L 9.078125 54.6875 
L 18.109375 54.6875 
L 18.109375 46.1875 
Q 21.1875 51.21875 25.484375 53.609375 
Q 29.78125 56 35.6875 56 
Q 41.65625 56 45.828125 52.96875 
Q 50 49.953125 52 44.1875 
z
" id="DejaVuSans-6d"/>
     <path d="M 48.6875 27.296875 
Q 48.6875 37.203125 44.609375 42.84375 
Q 40.53125 48.484375 33.40625 48.484375 
Q 26.265625 48.484375 22.1875 42.84375 
Q 18.109375 37.203125 18.109375 27.296875 
Q 18.109375 17.390625 22.1875 11.75 
Q 26.265625 6.109375 33.40625 6.109375 
Q 40.53125 6.109375 44.609375 11.75 
Q 48.6875 17.390625 48.6875 27.296875 
z
M 18.109375 46.390625 
Q 20.953125 51.265625 25.265625 53.625 
Q 29.59375 56 35.59375 56 
Q 45.5625 56 51.78125 48.09375 
Q 58.015625 40.1875 58.015625 27.296875 
Q 58.015625 14.40625 51.78125 6.484375 
Q 45.5625 -1.421875 35.59375 -1.421875 
Q 29.59375 -1.421875 25.265625 0.953125 
Q 20.953125 3.328125 18.109375 8.203125 
L 18.109375 0 
L 9.078125 0 
L 9.078125 75.984375 
L 18.109375 75.984375 
z
" id="DejaVuSans-62"/>
     <path d="M 18.3125 70.21875 
L 18.3125 54.6875 
L 36.8125 54.6875 
L 36.8125 47.703125 
L 18.3125 47.703125 
L 18.3125 18.015625 
Q 18.3125 11.328125 20.140625 9.421875 
Q 21.96875 7.515625 27.59375 7.515625 
L 36.8125 7.515625 
L 36.8125 0 
L 27.59375 0 
Q 17.1875 0 13.234375 3.875 
Q 9.28125 7.765625 9.28125 18.015625 
L 9.28125 47.703125 
L 2.6875 47.703125 
L 2.6875 54.6875 
L 9.28125 54.6875 
L 9.28125 70.21875 
z
" id="DejaVuSans-74"/>
     <path d="M 54.890625 33.015625 
L 54.890625 0 
L 45.90625 0 
L 45.90625 32.71875 
Q 45.90625 40.484375 42.875 44.328125 
Q 39.84375 48.1875 33.796875 48.1875 
Q 26.515625 48.1875 22.3125 43.546875 
Q 18.109375 38.921875 18.109375 30.90625 
L 18.109375 0 
L 9.078125 0 
L 9.078125 54.6875 
L 18.109375 54.6875 
L 18.109375 46.1875 
Q 21.34375 51.125 25.703125 53.5625 
Q 30.078125 56 35.796875 56 
Q 45.21875 56 50.046875 50.171875 
Q 54.890625 44.34375 54.890625 33.015625 
z
" id="DejaVuSans-6e"/>
    </defs>
    <g transform="translate(32.971875 35.472)scale(0.12 -0.12)">
     <use xlink:href="#DejaVuSans-47"/>
     <use x="77.490234" xlink:href="#DejaVuSans-72"/>
     <use x="118.603516" xlink:href="#DejaVuSans-61"/>
     <use x="179.882812" xlink:href="#DejaVuSans-66"/>
     <use x="215.087891" xlink:href="#DejaVuSans-69"/>
     <use x="242.871094" xlink:href="#DejaVuSans-63"/>
     <use x="297.851562" xlink:href="#DejaVuSans-6f"/>
     <use x="359.033203" xlink:href="#DejaVuSans-20"/>
     <use x="390.820312" xlink:href="#DejaVuSans-76"/>
     <use x="450" xlink:href="#DejaVuSans-61"/>
     <use x="511.279297" xlink:href="#DejaVuSans-6c"/>
     <use x="539.0625" xlink:href="#DejaVuSans-6f"/>
     <use x="600.244141" xlink:href="#DejaVuSans-72"/>
     <use x="641.326172" xlink:href="#DejaVuSans-65"/>
     <use x="702.849609" xlink:href="#DejaVuSans-73"/>
     <use x="754.949219" xlink:href="#DejaVuSans-20"/>
     <use x="786.736328" xlink:href="#DejaVuSans-70"/>
     <use x="850.212891" xlink:href="#DejaVuSans-72"/>
     <use x="891.294922" xlink:href="#DejaVuSans-6f"/>
     <use x="952.476562" xlink:href="#DejaVuSans-6d"/>
     <use x="1049.888672" xlink:href="#DejaVuSans-65"/>
     <use x="1111.412109" xlink:href="#DejaVuSans-64"/>
     <use x="1174.888672" xlink:href="#DejaVuSans-69"/>
     <use x="1202.671875" xlink:href="#DejaVuSans-6f"/>
     <use x="1263.853516" xlink:href="#DejaVuSans-20"/>
     <use x="1295.640625" xlink:href="#DejaVuSans-65"/>
     <use x="1357.164062" xlink:href="#DejaVuSans-73"/>
     <use x="1409.263672" xlink:href="#DejaVuSans-70"/>
     <use x="1472.740234" xlink:href="#DejaVuSans-65"/>
     <use x="1534.263672" xlink:href="#DejaVuSans-72"/>
     <use x="1575.376953" xlink:href="#DejaVuSans-61"/>
     <use x="1636.65625" xlink:href="#DejaVuSans-64"/>
     <use x="1700.132812" xlink:href="#DejaVuSans-6f"/>
     <use x="1761.314453" xlink:href="#DejaVuSans-73"/>
     <use x="1813.414062" xlink:href="#DejaVuSans-20"/>
     <use x="1845.201172" xlink:href="#DejaVuSans-76"/>
     <use x="1904.380859" xlink:href="#DejaVuSans-73"/>
     <use x="1956.480469" xlink:href="#DejaVuSans-20"/>
     <use x="1988.267578" xlink:href="#DejaVuSans-76"/>
     <use x="2047.447266" xlink:href="#DejaVuSans-61"/>
     <use x="2108.726562" xlink:href="#DejaVuSans-6c"/>
     <use x="2136.509766" xlink:href="#DejaVuSans-6f"/>
     <use x="2197.691406" xlink:href="#DejaVuSans-72"/>
     <use x="2238.773438" xlink:href="#DejaVuSans-65"/>
     <use x="2300.296875" xlink:href="#DejaVuSans-73"/>
     <use x="2352.396484" xlink:href="#DejaVuSans-20"/>
     <use x="2384.183594" xlink:href="#DejaVuSans-70"/>
     <use x="2447.660156" xlink:href="#DejaVuSans-72"/>
     <use x="2488.742188" xlink:href="#DejaVuSans-6f"/>
     <use x="2549.923828" xlink:href="#DejaVuSans-6d"/>
     <use x="2647.335938" xlink:href="#DejaVuSans-65"/>
     <use x="2708.859375" xlink:href="#DejaVuSans-64"/>
     <use x="2772.335938" xlink:href="#DejaVuSans-69"/>
     <use x="2800.119141" xlink:href="#DejaVuSans-6f"/>
     <use x="2861.300781" xlink:href="#DejaVuSans-20"/>
     <use x="2893.087891" xlink:href="#DejaVuSans-6f"/>
     <use x="2954.269531" xlink:href="#DejaVuSans-62"/>
     <use x="3017.746094" xlink:href="#DejaVuSans-74"/>
     <use x="3056.955078" xlink:href="#DejaVuSans-65"/>
     <use x="3118.478516" xlink:href="#DejaVuSans-6e"/>
     <use x="3181.857422" xlink:href="#DejaVuSans-69"/>
     <use x="3209.640625" xlink:href="#DejaVuSans-64"/>
     <use x="3273.117188" xlink:href="#DejaVuSans-6f"/>
     <use x="3334.298828" xlink:href="#DejaVuSans-73"/>
    </g>
   </g>
   <g id="legend_1">
    <g id="patch_7">
     <path d="M 249.11375 78.82825 
L 407.72 78.82825 
Q 409.72 78.82825 409.72 76.82825 
L 409.72 48.472 
Q 409.72 46.472 407.72 46.472 
L 249.11375 46.472 
Q 247.11375 46.472 247.11375 48.472 
L 247.11375 76.82825 
Q 247.11375 78.82825 249.11375 78.82825 
z
" style="fill:#ffffff;opacity:0.8;stroke:#cccccc;stroke-linejoin:miter;"/>
    </g>
    <g id="line2d_15">
     <path d="M 251.11375 54.570437 
L 271.11375 54.570437 
" style="fill:none;stroke:#1f77b4;stroke-linecap:square;stroke-width:1.5;"/>
    </g>
    <g id="line2d_16"/>
    <g id="text_16">
     <!-- Valor promedio esperado -->
     <g transform="translate(279.11375 58.070437)scale(0.1 -0.1)">
      <use xlink:href="#DejaVuSans-56"/>
      <use x="68.298828" xlink:href="#DejaVuSans-61"/>
      <use x="129.578125" xlink:href="#DejaVuSans-6c"/>
      <use x="157.361328" xlink:href="#DejaVuSans-6f"/>
      <use x="218.542969" xlink:href="#DejaVuSans-72"/>
      <use x="259.65625" xlink:href="#DejaVuSans-20"/>
      <use x="291.443359" xlink:href="#DejaVuSans-70"/>
      <use x="354.919922" xlink:href="#DejaVuSans-72"/>
      <use x="396.001953" xlink:href="#DejaVuSans-6f"/>
      <use x="457.183594" xlink:href="#DejaVuSans-6d"/>
      <use x="554.595703" xlink:href="#DejaVuSans-65"/>
      <use x="616.119141" xlink:href="#DejaVuSans-64"/>
      <use x="679.595703" xlink:href="#DejaVuSans-69"/>
      <use x="707.378906" xlink:href="#DejaVuSans-6f"/>
      <use x="768.560547" xlink:href="#DejaVuSans-20"/>
      <use x="800.347656" xlink:href="#DejaVuSans-65"/>
      <use x="861.871094" xlink:href="#DejaVuSans-73"/>
      <use x="913.970703" xlink:href="#DejaVuSans-70"/>
      <use x="977.447266" xlink:href="#DejaVuSans-65"/>
      <use x="1038.970703" xlink:href="#DejaVuSans-72"/>
      <use x="1080.083984" xlink:href="#DejaVuSans-61"/>
      <use x="1141.363281" xlink:href="#DejaVuSans-64"/>
      <use x="1204.839844" xlink:href="#DejaVuSans-6f"/>
     </g>
    </g>
    <g id="line2d_17">
     <path d="M 251.11375 69.248562 
L 271.11375 69.248562 
" style="fill:none;stroke:#ff7f0e;stroke-linecap:square;stroke-width:1.5;"/>
    </g>
    <g id="line2d_18"/>
    <g id="text_17">
     <!-- Valor promedio obtenido -->
     <g transform="translate(279.11375 72.748562)scale(0.1 -0.1)">
      <use xlink:href="#DejaVuSans-56"/>
      <use x="68.298828" xlink:href="#DejaVuSans-61"/>
      <use x="129.578125" xlink:href="#DejaVuSans-6c"/>
      <use x="157.361328" xlink:href="#DejaVuSans-6f"/>
      <use x="218.542969" xlink:href="#DejaVuSans-72"/>
      <use x="259.65625" xlink:href="#DejaVuSans-20"/>
      <use x="291.443359" xlink:href="#DejaVuSans-70"/>
      <use x="354.919922" xlink:href="#DejaVuSans-72"/>
      <use x="396.001953" xlink:href="#DejaVuSans-6f"/>
      <use x="457.183594" xlink:href="#DejaVuSans-6d"/>
      <use x="554.595703" xlink:href="#DejaVuSans-65"/>
      <use x="616.119141" xlink:href="#DejaVuSans-64"/>
      <use x="679.595703" xlink:href="#DejaVuSans-69"/>
      <use x="707.378906" xlink:href="#DejaVuSans-6f"/>
      <use x="768.560547" xlink:href="#DejaVuSans-20"/>
      <use x="800.347656" xlink:href="#DejaVuSans-6f"/>
      <use x="861.529297" xlink:href="#DejaVuSans-62"/>
      <use x="925.005859" xlink:href="#DejaVuSans-74"/>
      <use x="964.214844" xlink:href="#DejaVuSans-65"/>
      <use x="1025.738281" xlink:href="#DejaVuSans-6e"/>
      <use x="1089.117188" xlink:href="#DejaVuSans-69"/>
      <use x="1116.900391" xlink:href="#DejaVuSans-64"/>
      <use x="1180.376953" xlink:href="#DejaVuSans-6f"/>
     </g>
    </g>
   </g>
  </g>
 </g>
 <defs>
  <clipPath id="p1385aaa5b7">
   <rect height="266.112" width="357.12" x="57.6" y="41.472"/>
  </clipPath>
 </defs>
</svg>
