<?xml version="1.0" encoding="utf-8" standalone="no"?>
<!DOCTYPE svg PUBLIC "-//W3C//DTD SVG 1.1//EN"
  "http://www.w3.org/Graphics/SVG/1.1/DTD/svg11.dtd">
<!-- Created with matplotlib (http://matplotlib.org/) -->
<svg height="345.6pt" version="1.1" viewBox="0 0 460.8 345.6" width="460.8pt" xmlns="http://www.w3.org/2000/svg" xmlns:xlink="http://www.w3.org/1999/xlink">
 <defs>
  <style type="text/css">
*{stroke-linecap:butt;stroke-linejoin:round;}
  </style>
 </defs>
 <g id="figure_1">
  <g id="patch_1">
   <path d="M 0 345.6 
L 460.8 345.6 
L 460.8 0 
L 0 0 
z
" style="fill:#ffffff;"/>
  </g>
  <g id="axes_1">
   <g id="patch_2">
    <path d="M 57.6 307.584 
L 414.72 307.584 
L 414.72 41.472 
L 57.6 41.472 
z
" style="fill:#ffffff;"/>
   </g>
   <g id="matplotlib.axis_1">
    <g id="xtick_1">
     <g id="line2d_1">
      <defs>
       <path d="M 0 0 
L 0 3.5 
" id="m2b3747e6d1" style="stroke:#000000;stroke-width:0.8;"/>
      </defs>
      <g>
       <use style="stroke:#000000;stroke-width:0.8;" x="128.451463" xlink:href="#m2b3747e6d1" y="307.584"/>
      </g>
     </g>
     <g id="text_1">
      <!-- 100 -->
      <defs>
       <path d="M 12.40625 8.296875 
L 28.515625 8.296875 
L 28.515625 63.921875 
L 10.984375 60.40625 
L 10.984375 69.390625 
L 28.421875 72.90625 
L 38.28125 72.90625 
L 38.28125 8.296875 
L 54.390625 8.296875 
L 54.390625 0 
L 12.40625 0 
z
" id="DejaVuSans-31"/>
       <path d="M 31.78125 66.40625 
Q 24.171875 66.40625 20.328125 58.90625 
Q 16.5 51.421875 16.5 36.375 
Q 16.5 21.390625 20.328125 13.890625 
Q 24.171875 6.390625 31.78125 6.390625 
Q 39.453125 6.390625 43.28125 13.890625 
Q 47.125 21.390625 47.125 36.375 
Q 47.125 51.421875 43.28125 58.90625 
Q 39.453125 66.40625 31.78125 66.40625 
z
M 31.78125 74.21875 
Q 44.046875 74.21875 50.515625 64.515625 
Q 56.984375 54.828125 56.984375 36.375 
Q 56.984375 17.96875 50.515625 8.265625 
Q 44.046875 -1.421875 31.78125 -1.421875 
Q 19.53125 -1.421875 13.0625 8.265625 
Q 6.59375 17.96875 6.59375 36.375 
Q 6.59375 54.828125 13.0625 64.515625 
Q 19.53125 74.21875 31.78125 74.21875 
z
" id="DejaVuSans-30"/>
      </defs>
      <g transform="translate(118.907713 322.182437)scale(0.1 -0.1)">
       <use xlink:href="#DejaVuSans-31"/>
       <use x="63.623047" xlink:href="#DejaVuSans-30"/>
       <use x="127.246094" xlink:href="#DejaVuSans-30"/>
      </g>
     </g>
    </g>
    <g id="xtick_2">
     <g id="line2d_2">
      <g>
       <use style="stroke:#000000;stroke-width:0.8;" x="200.018597" xlink:href="#m2b3747e6d1" y="307.584"/>
      </g>
     </g>
     <g id="text_2">
      <!-- 200 -->
      <defs>
       <path d="M 19.1875 8.296875 
L 53.609375 8.296875 
L 53.609375 0 
L 7.328125 0 
L 7.328125 8.296875 
Q 12.9375 14.109375 22.625 23.890625 
Q 32.328125 33.6875 34.8125 36.53125 
Q 39.546875 41.84375 41.421875 45.53125 
Q 43.3125 49.21875 43.3125 52.78125 
Q 43.3125 58.59375 39.234375 62.25 
Q 35.15625 65.921875 28.609375 65.921875 
Q 23.96875 65.921875 18.8125 64.3125 
Q 13.671875 62.703125 7.8125 59.421875 
L 7.8125 69.390625 
Q 13.765625 71.78125 18.9375 73 
Q 24.125 74.21875 28.421875 74.21875 
Q 39.75 74.21875 46.484375 68.546875 
Q 53.21875 62.890625 53.21875 53.421875 
Q 53.21875 48.921875 51.53125 44.890625 
Q 49.859375 40.875 45.40625 35.40625 
Q 44.1875 33.984375 37.640625 27.21875 
Q 31.109375 20.453125 19.1875 8.296875 
z
" id="DejaVuSans-32"/>
      </defs>
      <g transform="translate(190.474847 322.182437)scale(0.1 -0.1)">
       <use xlink:href="#DejaVuSans-32"/>
       <use x="63.623047" xlink:href="#DejaVuSans-30"/>
       <use x="127.246094" xlink:href="#DejaVuSans-30"/>
      </g>
     </g>
    </g>
    <g id="xtick_3">
     <g id="line2d_3">
      <g>
       <use style="stroke:#000000;stroke-width:0.8;" x="271.585731" xlink:href="#m2b3747e6d1" y="307.584"/>
      </g>
     </g>
     <g id="text_3">
      <!-- 300 -->
      <defs>
       <path d="M 40.578125 39.3125 
Q 47.65625 37.796875 51.625 33 
Q 55.609375 28.21875 55.609375 21.1875 
Q 55.609375 10.40625 48.1875 4.484375 
Q 40.765625 -1.421875 27.09375 -1.421875 
Q 22.515625 -1.421875 17.65625 -0.515625 
Q 12.796875 0.390625 7.625 2.203125 
L 7.625 11.71875 
Q 11.71875 9.328125 16.59375 8.109375 
Q 21.484375 6.890625 26.8125 6.890625 
Q 36.078125 6.890625 40.9375 10.546875 
Q 45.796875 14.203125 45.796875 21.1875 
Q 45.796875 27.640625 41.28125 31.265625 
Q 36.765625 34.90625 28.71875 34.90625 
L 20.21875 34.90625 
L 20.21875 43.015625 
L 29.109375 43.015625 
Q 36.375 43.015625 40.234375 45.921875 
Q 44.09375 48.828125 44.09375 54.296875 
Q 44.09375 59.90625 40.109375 62.90625 
Q 36.140625 65.921875 28.71875 65.921875 
Q 24.65625 65.921875 20.015625 65.03125 
Q 15.375 64.15625 9.8125 62.3125 
L 9.8125 71.09375 
Q 15.4375 72.65625 20.34375 73.4375 
Q 25.25 74.21875 29.59375 74.21875 
Q 40.828125 74.21875 47.359375 69.109375 
Q 53.90625 64.015625 53.90625 55.328125 
Q 53.90625 49.265625 50.4375 45.09375 
Q 46.96875 40.921875 40.578125 39.3125 
z
" id="DejaVuSans-33"/>
      </defs>
      <g transform="translate(262.041981 322.182437)scale(0.1 -0.1)">
       <use xlink:href="#DejaVuSans-33"/>
       <use x="63.623047" xlink:href="#DejaVuSans-30"/>
       <use x="127.246094" xlink:href="#DejaVuSans-30"/>
      </g>
     </g>
    </g>
    <g id="xtick_4">
     <g id="line2d_4">
      <g>
       <use style="stroke:#000000;stroke-width:0.8;" x="343.152866" xlink:href="#m2b3747e6d1" y="307.584"/>
      </g>
     </g>
     <g id="text_4">
      <!-- 400 -->
      <defs>
       <path d="M 37.796875 64.3125 
L 12.890625 25.390625 
L 37.796875 25.390625 
z
M 35.203125 72.90625 
L 47.609375 72.90625 
L 47.609375 25.390625 
L 58.015625 25.390625 
L 58.015625 17.1875 
L 47.609375 17.1875 
L 47.609375 0 
L 37.796875 0 
L 37.796875 17.1875 
L 4.890625 17.1875 
L 4.890625 26.703125 
z
" id="DejaVuSans-34"/>
      </defs>
      <g transform="translate(333.609116 322.182437)scale(0.1 -0.1)">
       <use xlink:href="#DejaVuSans-34"/>
       <use x="63.623047" xlink:href="#DejaVuSans-30"/>
       <use x="127.246094" xlink:href="#DejaVuSans-30"/>
      </g>
     </g>
    </g>
    <g id="xtick_5">
     <g id="line2d_5">
      <g>
       <use style="stroke:#000000;stroke-width:0.8;" x="414.72" xlink:href="#m2b3747e6d1" y="307.584"/>
      </g>
     </g>
     <g id="text_5">
      <!-- 500 -->
      <defs>
       <path d="M 10.796875 72.90625 
L 49.515625 72.90625 
L 49.515625 64.59375 
L 19.828125 64.59375 
L 19.828125 46.734375 
Q 21.96875 47.46875 24.109375 47.828125 
Q 26.265625 48.1875 28.421875 48.1875 
Q 40.625 48.1875 47.75 41.5 
Q 54.890625 34.8125 54.890625 23.390625 
Q 54.890625 11.625 47.5625 5.09375 
Q 40.234375 -1.421875 26.90625 -1.421875 
Q 22.3125 -1.421875 17.546875 -0.640625 
Q 12.796875 0.140625 7.71875 1.703125 
L 7.71875 11.625 
Q 12.109375 9.234375 16.796875 8.0625 
Q 21.484375 6.890625 26.703125 6.890625 
Q 35.15625 6.890625 40.078125 11.328125 
Q 45.015625 15.765625 45.015625 23.390625 
Q 45.015625 31 40.078125 35.4375 
Q 35.15625 39.890625 26.703125 39.890625 
Q 22.75 39.890625 18.8125 39.015625 
Q 14.890625 38.140625 10.796875 36.28125 
z
" id="DejaVuSans-35"/>
      </defs>
      <g transform="translate(405.17625 322.182437)scale(0.1 -0.1)">
       <use xlink:href="#DejaVuSans-35"/>
       <use x="63.623047" xlink:href="#DejaVuSans-30"/>
       <use x="127.246094" xlink:href="#DejaVuSans-30"/>
      </g>
     </g>
    </g>
    <g id="text_6">
     <!-- Tiradas -->
     <defs>
      <path d="M -0.296875 72.90625 
L 61.375 72.90625 
L 61.375 64.59375 
L 35.5 64.59375 
L 35.5 0 
L 25.59375 0 
L 25.59375 64.59375 
L -0.296875 64.59375 
z
" id="DejaVuSans-54"/>
      <path d="M 9.421875 54.6875 
L 18.40625 54.6875 
L 18.40625 0 
L 9.421875 0 
z
M 9.421875 75.984375 
L 18.40625 75.984375 
L 18.40625 64.59375 
L 9.421875 64.59375 
z
" id="DejaVuSans-69"/>
      <path d="M 41.109375 46.296875 
Q 39.59375 47.171875 37.8125 47.578125 
Q 36.03125 48 33.890625 48 
Q 26.265625 48 22.1875 43.046875 
Q 18.109375 38.09375 18.109375 28.8125 
L 18.109375 0 
L 9.078125 0 
L 9.078125 54.6875 
L 18.109375 54.6875 
L 18.109375 46.1875 
Q 20.953125 51.171875 25.484375 53.578125 
Q 30.03125 56 36.53125 56 
Q 37.453125 56 38.578125 55.875 
Q 39.703125 55.765625 41.0625 55.515625 
z
" id="DejaVuSans-72"/>
      <path d="M 34.28125 27.484375 
Q 23.390625 27.484375 19.1875 25 
Q 14.984375 22.515625 14.984375 16.5 
Q 14.984375 11.71875 18.140625 8.90625 
Q 21.296875 6.109375 26.703125 6.109375 
Q 34.1875 6.109375 38.703125 11.40625 
Q 43.21875 16.703125 43.21875 25.484375 
L 43.21875 27.484375 
z
M 52.203125 31.203125 
L 52.203125 0 
L 43.21875 0 
L 43.21875 8.296875 
Q 40.140625 3.328125 35.546875 0.953125 
Q 30.953125 -1.421875 24.3125 -1.421875 
Q 15.921875 -1.421875 10.953125 3.296875 
Q 6 8.015625 6 15.921875 
Q 6 25.140625 12.171875 29.828125 
Q 18.359375 34.515625 30.609375 34.515625 
L 43.21875 34.515625 
L 43.21875 35.40625 
Q 43.21875 41.609375 39.140625 45 
Q 35.0625 48.390625 27.6875 48.390625 
Q 23 48.390625 18.546875 47.265625 
Q 14.109375 46.140625 10.015625 43.890625 
L 10.015625 52.203125 
Q 14.9375 54.109375 19.578125 55.046875 
Q 24.21875 56 28.609375 56 
Q 40.484375 56 46.34375 49.84375 
Q 52.203125 43.703125 52.203125 31.203125 
z
" id="DejaVuSans-61"/>
      <path d="M 45.40625 46.390625 
L 45.40625 75.984375 
L 54.390625 75.984375 
L 54.390625 0 
L 45.40625 0 
L 45.40625 8.203125 
Q 42.578125 3.328125 38.25 0.953125 
Q 33.9375 -1.421875 27.875 -1.421875 
Q 17.96875 -1.421875 11.734375 6.484375 
Q 5.515625 14.40625 5.515625 27.296875 
Q 5.515625 40.1875 11.734375 48.09375 
Q 17.96875 56 27.875 56 
Q 33.9375 56 38.25 53.625 
Q 42.578125 51.265625 45.40625 46.390625 
z
M 14.796875 27.296875 
Q 14.796875 17.390625 18.875 11.75 
Q 22.953125 6.109375 30.078125 6.109375 
Q 37.203125 6.109375 41.296875 11.75 
Q 45.40625 17.390625 45.40625 27.296875 
Q 45.40625 37.203125 41.296875 42.84375 
Q 37.203125 48.484375 30.078125 48.484375 
Q 22.953125 48.484375 18.875 42.84375 
Q 14.796875 37.203125 14.796875 27.296875 
z
" id="DejaVuSans-64"/>
      <path d="M 44.28125 53.078125 
L 44.28125 44.578125 
Q 40.484375 46.53125 36.375 47.5 
Q 32.28125 48.484375 27.875 48.484375 
Q 21.1875 48.484375 17.84375 46.4375 
Q 14.5 44.390625 14.5 40.28125 
Q 14.5 37.15625 16.890625 35.375 
Q 19.28125 33.59375 26.515625 31.984375 
L 29.59375 31.296875 
Q 39.15625 29.25 43.1875 25.515625 
Q 47.21875 21.78125 47.21875 15.09375 
Q 47.21875 7.46875 41.1875 3.015625 
Q 35.15625 -1.421875 24.609375 -1.421875 
Q 20.21875 -1.421875 15.453125 -0.5625 
Q 10.6875 0.296875 5.421875 2 
L 5.421875 11.28125 
Q 10.40625 8.6875 15.234375 7.390625 
Q 20.0625 6.109375 24.8125 6.109375 
Q 31.15625 6.109375 34.5625 8.28125 
Q 37.984375 10.453125 37.984375 14.40625 
Q 37.984375 18.0625 35.515625 20.015625 
Q 33.0625 21.96875 24.703125 23.78125 
L 21.578125 24.515625 
Q 13.234375 26.265625 9.515625 29.90625 
Q 5.8125 33.546875 5.8125 39.890625 
Q 5.8125 47.609375 11.28125 51.796875 
Q 16.75 56 26.8125 56 
Q 31.78125 56 36.171875 55.265625 
Q 40.578125 54.546875 44.28125 53.078125 
z
" id="DejaVuSans-73"/>
     </defs>
     <g transform="translate(217.756875 335.860562)scale(0.1 -0.1)">
      <use xlink:href="#DejaVuSans-54"/>
      <use x="61.037109" xlink:href="#DejaVuSans-69"/>
      <use x="88.820312" xlink:href="#DejaVuSans-72"/>
      <use x="129.933594" xlink:href="#DejaVuSans-61"/>
      <use x="191.212891" xlink:href="#DejaVuSans-64"/>
      <use x="254.689453" xlink:href="#DejaVuSans-61"/>
      <use x="315.96875" xlink:href="#DejaVuSans-73"/>
     </g>
    </g>
   </g>
   <g id="matplotlib.axis_2">
    <g id="ytick_1">
     <g id="line2d_6">
      <defs>
       <path d="M 0 0 
L -3.5 0 
" id="mb8b672e949" style="stroke:#000000;stroke-width:0.8;"/>
      </defs>
      <g>
       <use style="stroke:#000000;stroke-width:0.8;" x="57.6" xlink:href="#mb8b672e949" y="295.488"/>
      </g>
     </g>
     <g id="text_7">
      <!-- 0.000 -->
      <defs>
       <path d="M 10.6875 12.40625 
L 21 12.40625 
L 21 0 
L 10.6875 0 
z
" id="DejaVuSans-2e"/>
      </defs>
      <g transform="translate(21.971875 299.287219)scale(0.1 -0.1)">
       <use xlink:href="#DejaVuSans-30"/>
       <use x="63.623047" xlink:href="#DejaVuSans-2e"/>
       <use x="95.410156" xlink:href="#DejaVuSans-30"/>
       <use x="159.033203" xlink:href="#DejaVuSans-30"/>
       <use x="222.65625" xlink:href="#DejaVuSans-30"/>
      </g>
     </g>
    </g>
    <g id="ytick_2">
     <g id="line2d_7">
      <g>
       <use style="stroke:#000000;stroke-width:0.8;" x="57.6" xlink:href="#mb8b672e949" y="259.2"/>
      </g>
     </g>
     <g id="text_8">
      <!-- 0.025 -->
      <g transform="translate(21.971875 262.999219)scale(0.1 -0.1)">
       <use xlink:href="#DejaVuSans-30"/>
       <use x="63.623047" xlink:href="#DejaVuSans-2e"/>
       <use x="95.410156" xlink:href="#DejaVuSans-30"/>
       <use x="159.033203" xlink:href="#DejaVuSans-32"/>
       <use x="222.65625" xlink:href="#DejaVuSans-35"/>
      </g>
     </g>
    </g>
    <g id="ytick_3">
     <g id="line2d_8">
      <g>
       <use style="stroke:#000000;stroke-width:0.8;" x="57.6" xlink:href="#mb8b672e949" y="222.912"/>
      </g>
     </g>
     <g id="text_9">
      <!-- 0.050 -->
      <g transform="translate(21.971875 226.711219)scale(0.1 -0.1)">
       <use xlink:href="#DejaVuSans-30"/>
       <use x="63.623047" xlink:href="#DejaVuSans-2e"/>
       <use x="95.410156" xlink:href="#DejaVuSans-30"/>
       <use x="159.033203" xlink:href="#DejaVuSans-35"/>
       <use x="222.65625" xlink:href="#DejaVuSans-30"/>
      </g>
     </g>
    </g>
    <g id="ytick_4">
     <g id="line2d_9">
      <g>
       <use style="stroke:#000000;stroke-width:0.8;" x="57.6" xlink:href="#mb8b672e949" y="186.624"/>
      </g>
     </g>
     <g id="text_10">
      <!-- 0.075 -->
      <defs>
       <path d="M 8.203125 72.90625 
L 55.078125 72.90625 
L 55.078125 68.703125 
L 28.609375 0 
L 18.3125 0 
L 43.21875 64.59375 
L 8.203125 64.59375 
z
" id="DejaVuSans-37"/>
      </defs>
      <g transform="translate(21.971875 190.423219)scale(0.1 -0.1)">
       <use xlink:href="#DejaVuSans-30"/>
       <use x="63.623047" xlink:href="#DejaVuSans-2e"/>
       <use x="95.410156" xlink:href="#DejaVuSans-30"/>
       <use x="159.033203" xlink:href="#DejaVuSans-37"/>
       <use x="222.65625" xlink:href="#DejaVuSans-35"/>
      </g>
     </g>
    </g>
    <g id="ytick_5">
     <g id="line2d_10">
      <g>
       <use style="stroke:#000000;stroke-width:0.8;" x="57.6" xlink:href="#mb8b672e949" y="150.336"/>
      </g>
     </g>
     <g id="text_11">
      <!-- 0.100 -->
      <g transform="translate(21.971875 154.135219)scale(0.1 -0.1)">
       <use xlink:href="#DejaVuSans-30"/>
       <use x="63.623047" xlink:href="#DejaVuSans-2e"/>
       <use x="95.410156" xlink:href="#DejaVuSans-31"/>
       <use x="159.033203" xlink:href="#DejaVuSans-30"/>
       <use x="222.65625" xlink:href="#DejaVuSans-30"/>
      </g>
     </g>
    </g>
    <g id="ytick_6">
     <g id="line2d_11">
      <g>
       <use style="stroke:#000000;stroke-width:0.8;" x="57.6" xlink:href="#mb8b672e949" y="114.048"/>
      </g>
     </g>
     <g id="text_12">
      <!-- 0.125 -->
      <g transform="translate(21.971875 117.847219)scale(0.1 -0.1)">
       <use xlink:href="#DejaVuSans-30"/>
       <use x="63.623047" xlink:href="#DejaVuSans-2e"/>
       <use x="95.410156" xlink:href="#DejaVuSans-31"/>
       <use x="159.033203" xlink:href="#DejaVuSans-32"/>
       <use x="222.65625" xlink:href="#DejaVuSans-35"/>
      </g>
     </g>
    </g>
    <g id="ytick_7">
     <g id="line2d_12">
      <g>
       <use style="stroke:#000000;stroke-width:0.8;" x="57.6" xlink:href="#mb8b672e949" y="77.76"/>
      </g>
     </g>
     <g id="text_13">
      <!-- 0.150 -->
      <g transform="translate(21.971875 81.559219)scale(0.1 -0.1)">
       <use xlink:href="#DejaVuSans-30"/>
       <use x="63.623047" xlink:href="#DejaVuSans-2e"/>
       <use x="95.410156" xlink:href="#DejaVuSans-31"/>
       <use x="159.033203" xlink:href="#DejaVuSans-35"/>
       <use x="222.65625" xlink:href="#DejaVuSans-30"/>
      </g>
     </g>
    </g>
    <g id="ytick_8">
     <g id="line2d_13">
      <g>
       <use style="stroke:#000000;stroke-width:0.8;" x="57.6" xlink:href="#mb8b672e949" y="41.472"/>
      </g>
     </g>
     <g id="text_14">
      <!-- 0.175 -->
      <g transform="translate(21.971875 45.271219)scale(0.1 -0.1)">
       <use xlink:href="#DejaVuSans-30"/>
       <use x="63.623047" xlink:href="#DejaVuSans-2e"/>
       <use x="95.410156" xlink:href="#DejaVuSans-31"/>
       <use x="159.033203" xlink:href="#DejaVuSans-37"/>
       <use x="222.65625" xlink:href="#DejaVuSans-35"/>
      </g>
     </g>
    </g>
    <g id="text_15">
     <!-- Frecuencias relativas -->
     <defs>
      <path d="M 9.8125 72.90625 
L 51.703125 72.90625 
L 51.703125 64.59375 
L 19.671875 64.59375 
L 19.671875 43.109375 
L 48.578125 43.109375 
L 48.578125 34.8125 
L 19.671875 34.8125 
L 19.671875 0 
L 9.8125 0 
z
" id="DejaVuSans-46"/>
      <path d="M 56.203125 29.59375 
L 56.203125 25.203125 
L 14.890625 25.203125 
Q 15.484375 15.921875 20.484375 11.0625 
Q 25.484375 6.203125 34.421875 6.203125 
Q 39.59375 6.203125 44.453125 7.46875 
Q 49.3125 8.734375 54.109375 11.28125 
L 54.109375 2.78125 
Q 49.265625 0.734375 44.1875 -0.34375 
Q 39.109375 -1.421875 33.890625 -1.421875 
Q 20.796875 -1.421875 13.15625 6.1875 
Q 5.515625 13.8125 5.515625 26.8125 
Q 5.515625 40.234375 12.765625 48.109375 
Q 20.015625 56 32.328125 56 
Q 43.359375 56 49.78125 48.890625 
Q 56.203125 41.796875 56.203125 29.59375 
z
M 47.21875 32.234375 
Q 47.125 39.59375 43.09375 43.984375 
Q 39.0625 48.390625 32.421875 48.390625 
Q 24.90625 48.390625 20.390625 44.140625 
Q 15.875 39.890625 15.1875 32.171875 
z
" id="DejaVuSans-65"/>
      <path d="M 48.78125 52.59375 
L 48.78125 44.1875 
Q 44.96875 46.296875 41.140625 47.34375 
Q 37.3125 48.390625 33.40625 48.390625 
Q 24.65625 48.390625 19.8125 42.84375 
Q 14.984375 37.3125 14.984375 27.296875 
Q 14.984375 17.28125 19.8125 11.734375 
Q 24.65625 6.203125 33.40625 6.203125 
Q 37.3125 6.203125 41.140625 7.25 
Q 44.96875 8.296875 48.78125 10.40625 
L 48.78125 2.09375 
Q 45.015625 0.34375 40.984375 -0.53125 
Q 36.96875 -1.421875 32.421875 -1.421875 
Q 20.0625 -1.421875 12.78125 6.34375 
Q 5.515625 14.109375 5.515625 27.296875 
Q 5.515625 40.671875 12.859375 48.328125 
Q 20.21875 56 33.015625 56 
Q 37.15625 56 41.109375 55.140625 
Q 45.0625 54.296875 48.78125 52.59375 
z
" id="DejaVuSans-63"/>
      <path d="M 8.5 21.578125 
L 8.5 54.6875 
L 17.484375 54.6875 
L 17.484375 21.921875 
Q 17.484375 14.15625 20.5 10.265625 
Q 23.53125 6.390625 29.59375 6.390625 
Q 36.859375 6.390625 41.078125 11.03125 
Q 45.3125 15.671875 45.3125 23.6875 
L 45.3125 54.6875 
L 54.296875 54.6875 
L 54.296875 0 
L 45.3125 0 
L 45.3125 8.40625 
Q 42.046875 3.421875 37.71875 1 
Q 33.40625 -1.421875 27.6875 -1.421875 
Q 18.265625 -1.421875 13.375 4.4375 
Q 8.5 10.296875 8.5 21.578125 
z
M 31.109375 56 
z
" id="DejaVuSans-75"/>
      <path d="M 54.890625 33.015625 
L 54.890625 0 
L 45.90625 0 
L 45.90625 32.71875 
Q 45.90625 40.484375 42.875 44.328125 
Q 39.84375 48.1875 33.796875 48.1875 
Q 26.515625 48.1875 22.3125 43.546875 
Q 18.109375 38.921875 18.109375 30.90625 
L 18.109375 0 
L 9.078125 0 
L 9.078125 54.6875 
L 18.109375 54.6875 
L 18.109375 46.1875 
Q 21.34375 51.125 25.703125 53.5625 
Q 30.078125 56 35.796875 56 
Q 45.21875 56 50.046875 50.171875 
Q 54.890625 44.34375 54.890625 33.015625 
z
" id="DejaVuSans-6e"/>
      <path id="DejaVuSans-20"/>
      <path d="M 9.421875 75.984375 
L 18.40625 75.984375 
L 18.40625 0 
L 9.421875 0 
z
" id="DejaVuSans-6c"/>
      <path d="M 18.3125 70.21875 
L 18.3125 54.6875 
L 36.8125 54.6875 
L 36.8125 47.703125 
L 18.3125 47.703125 
L 18.3125 18.015625 
Q 18.3125 11.328125 20.140625 9.421875 
Q 21.96875 7.515625 27.59375 7.515625 
L 36.8125 7.515625 
L 36.8125 0 
L 27.59375 0 
Q 17.1875 0 13.234375 3.875 
Q 9.28125 7.765625 9.28125 18.015625 
L 9.28125 47.703125 
L 2.6875 47.703125 
L 2.6875 54.6875 
L 9.28125 54.6875 
L 9.28125 70.21875 
z
" id="DejaVuSans-74"/>
      <path d="M 2.984375 54.6875 
L 12.5 54.6875 
L 29.59375 8.796875 
L 46.6875 54.6875 
L 56.203125 54.6875 
L 35.6875 0 
L 23.484375 0 
z
" id="DejaVuSans-76"/>
     </defs>
     <g transform="translate(15.892187 227.649094)rotate(-90)scale(0.1 -0.1)">
      <use xlink:href="#DejaVuSans-46"/>
      <use x="57.410156" xlink:href="#DejaVuSans-72"/>
      <use x="98.492188" xlink:href="#DejaVuSans-65"/>
      <use x="160.015625" xlink:href="#DejaVuSans-63"/>
      <use x="214.996094" xlink:href="#DejaVuSans-75"/>
      <use x="278.375" xlink:href="#DejaVuSans-65"/>
      <use x="339.898438" xlink:href="#DejaVuSans-6e"/>
      <use x="403.277344" xlink:href="#DejaVuSans-63"/>
      <use x="458.257812" xlink:href="#DejaVuSans-69"/>
      <use x="486.041016" xlink:href="#DejaVuSans-61"/>
      <use x="547.320312" xlink:href="#DejaVuSans-73"/>
      <use x="599.419922" xlink:href="#DejaVuSans-20"/>
      <use x="631.207031" xlink:href="#DejaVuSans-72"/>
      <use x="672.289062" xlink:href="#DejaVuSans-65"/>
      <use x="733.8125" xlink:href="#DejaVuSans-6c"/>
      <use x="761.595703" xlink:href="#DejaVuSans-61"/>
      <use x="822.875" xlink:href="#DejaVuSans-74"/>
      <use x="862.083984" xlink:href="#DejaVuSans-69"/>
      <use x="889.867188" xlink:href="#DejaVuSans-76"/>
      <use x="949.046875" xlink:href="#DejaVuSans-61"/>
      <use x="1010.326172" xlink:href="#DejaVuSans-73"/>
     </g>
    </g>
   </g>
   <g id="line2d_14">
    <path clip-path="url(#pb6c4392431)" d="M 57.6 295.488 
L 77.638798 295.488 
L 78.354469 247.104 
L 79.785812 250.128 
L 81.932826 254.016 
L 84.07984 257.290105 
L 86.226854 260.085073 
L 88.373868 262.498909 
L 90.520882 264.604596 
L 92.667896 266.4576 
L 95.530581 268.608 
L 98.393267 270.461793 
L 101.255952 272.076387 
L 104.834309 273.823522 
L 108.412665 275.328 
L 112.706693 276.878769 
L 117.716393 278.411294 
L 118.432064 278.60986 
L 119.147735 262.119724 
L 122.010421 263.586462 
L 122.726092 248.155826 
L 126.304449 250.595629 
L 129.882806 252.796235 
L 134.176834 255.168 
L 138.470862 257.290105 
L 139.902204 257.94869 
L 140.617876 245.863385 
L 144.911904 248.284098 
L 149.921603 250.825846 
L 154.931303 253.107854 
L 160.656673 255.446069 
L 166.382044 257.539765 
L 172.823086 259.648 
L 179.9798 261.731721 
L 187.136513 263.586462 
L 195.008898 265.404684 
L 196.44024 265.713231 
L 197.155912 258.459429 
L 205.028297 260.42713 
L 213.616353 262.348274 
L 222.92008 264.205241 
L 231.508136 265.743738 
L 232.223808 259.940571 
L 242.243206 261.862054 
L 253.693948 263.818473 
L 256.556633 264.272516 
L 257.272305 259.2 
L 259.419319 259.584678 
L 260.13499 254.600113 
L 260.850661 254.743579 
L 261.566333 249.810797 
L 272.301403 252.08707 
L 283.752144 254.277653 
L 293.055872 255.901091 
L 293.771543 251.635432 
L 304.506613 253.536555 
L 305.222285 249.474398 
L 318.104369 251.743562 
L 331.702124 253.908 
L 346.731222 256.064 
L 362.475992 258.095213 
L 365.338677 258.442246 
L 366.054349 255.168 
L 367.485691 255.353806 
L 368.201363 252.109241 
L 384.661804 254.287651 
L 390.387174 254.994953 
L 391.102846 251.973482 
L 408.278958 254.100464 
L 409.710301 254.268365 
L 410.425972 251.413506 
L 414.004329 251.855134 
L 414.72 249.03936 
L 414.72 249.03936 
" style="fill:none;stroke:#1f77b4;stroke-linecap:square;stroke-width:1.5;"/>
   </g>
   <g id="line2d_15">
    <path clip-path="url(#pb6c4392431)" d="M 57.6 295.488 
L 74.776112 295.488 
L 75.491784 239.660308 
L 76.923126 243.648 
L 78.354469 247.104 
L 79.07014 201.841548 
L 80.501483 207.517091 
L 81.932826 212.544 
L 84.07984 219.092211 
L 86.226854 224.682146 
L 88.373868 229.509818 
L 90.520882 233.721191 
L 92.667896 237.4272 
L 94.81491 240.71366 
L 96.961924 243.648 
L 99.108938 246.283932 
L 101.971623 249.408 
L 103.402966 250.825846 
L 104.118637 229.509818 
L 106.981323 233.28 
L 109.844008 236.642595 
L 112.706693 239.660308 
L 115.569379 242.38361 
L 119.147735 245.435586 
L 122.726092 248.155826 
L 126.304449 250.595629 
L 127.02012 251.053714 
L 127.735792 236.840727 
L 130.598477 239.118291 
L 131.314148 225.703385 
L 134.892505 228.904514 
L 138.470862 231.824842 
L 142.049218 234.499765 
L 142.76489 222.912 
L 147.058918 226.368 
L 150.637275 229.006168 
L 151.352946 218.513455 
L 155.646974 221.860174 
L 159.941002 224.928 
L 164.23503 227.7504 
L 165.666373 228.641684 
L 166.382044 219.591529 
L 171.391743 222.912 
L 172.823086 223.808 
L 173.538758 215.342724 
L 178.548457 218.642824 
L 183.558156 221.681898 
L 189.283527 224.873514 
L 195.008898 227.800539 
L 200.734269 230.494567 
L 205.743968 232.681846 
L 206.459639 226.037282 
L 212.900681 228.904514 
L 220.057395 231.824842 
L 227.214108 234.499765 
L 235.086493 237.194024 
L 236.517836 226.092622 
L 244.39022 229.006168 
L 249.39992 230.736178 
L 250.115591 225.6 
L 257.987976 228.335829 
L 266.576032 231.086089 
L 268.007375 231.522712 
L 268.723046 226.835027 
L 278.026774 229.72334 
L 287.330501 232.378435 
L 294.487214 234.279325 
L 295.202886 230.104216 
L 305.222285 232.742179 
L 313.094669 234.670123 
L 313.810341 230.796301 
L 324.545411 233.390888 
L 335.996152 235.938462 
L 348.162565 238.425789 
L 361.760321 240.970817 
L 365.338677 241.603267 
L 366.054349 238.368 
L 380.367776 240.895434 
L 395.396874 243.319205 
L 411.857315 245.738323 
L 414.72 246.13632 
L 414.72 246.13632 
" style="fill:none;stroke:#ff7f0e;stroke-linecap:square;stroke-width:1.5;"/>
   </g>
   <g id="line2d_16">
    <path clip-path="url(#pb6c4392431)" d="M 57.6 295.488 
L 68.33507 295.488 
L 69.050741 210.104471 
L 70.482084 219.092211 
L 71.913427 226.368 
L 73.34477 232.378435 
L 74.776112 237.4272 
L 76.207455 241.728 
L 77.638798 245.435586 
L 79.07014 248.664774 
L 80.501483 251.502545 
L 82.648497 255.168 
L 84.795511 258.269538 
L 86.942525 260.928 
L 89.089539 263.232 
L 91.236553 265.248 
L 94.099238 267.574154 
L 96.961924 269.568 
L 99.824609 271.296 
L 103.402966 273.156923 
L 106.981323 274.752 
L 111.275351 276.389053 
L 111.991022 257.786182 
L 115.569379 260.085073 
L 119.147735 262.119724 
L 123.441764 264.272516 
L 124.157435 264.604596 
L 124.873106 249.650526 
L 128.451463 251.9424 
L 132.745491 254.407245 
L 137.039519 256.608 
L 142.049218 258.895059 
L 147.058918 260.928 
L 149.921603 261.991385 
L 150.637275 251.166779 
L 152.068617 251.833263 
L 152.784289 241.326806 
L 157.793988 244.01566 
L 162.803687 246.450162 
L 168.529058 248.964923 
L 169.244729 240.015898 
L 174.9701 242.705455 
L 177.832786 243.954746 
L 178.548457 235.719529 
L 184.273828 238.405753 
L 188.567856 240.26713 
L 189.283527 232.719568 
L 195.008898 235.321368 
L 197.155912 236.242286 
L 197.871583 229.174904 
L 204.312625 232.072078 
L 207.175311 233.28 
L 207.890982 226.695583 
L 210.753667 227.975442 
L 211.469339 221.568 
L 216.479038 223.888359 
L 217.194709 217.728 
L 223.635752 220.731605 
L 230.792465 223.808 
L 237.949178 226.641202 
L 245.821563 229.509818 
L 253.693948 232.148945 
L 262.282004 234.797268 
L 271.585731 237.4272 
L 281.60513 240.015898 
L 292.3402 242.545021 
L 300.212585 244.257882 
L 300.928257 240.15146 
L 302.359599 240.474122 
L 303.075271 236.414512 
L 303.790942 236.585739 
L 304.506613 232.560832 
L 306.653627 233.101754 
L 307.369299 229.1328 
L 318.104369 231.859726 
L 329.55511 234.53178 
L 341.721523 237.135437 
L 352.456593 239.25478 
L 353.172265 235.884522 
L 366.054349 238.368 
L 380.367776 240.895434 
L 395.396874 243.319205 
L 396.112545 240.366987 
L 411.857315 242.811871 
L 414.72 243.23328 
L 414.72 243.23328 
" style="fill:none;stroke:#2ca02c;stroke-linecap:square;stroke-width:1.5;"/>
   </g>
   <g id="line2d_17">
    <path clip-path="url(#pb6c4392431)" d="M 57.6 295.488 
L 99.108938 295.488 
L 99.824609 271.296 
L 100.540281 271.69259 
L 101.255952 248.664774 
L 104.118637 251.502545 
L 106.981323 254.016 
L 109.844008 256.25773 
L 113.422365 258.740658 
L 117.000721 260.928 
L 120.579078 262.869573 
L 121.294749 263.232 
L 122.010421 247.635692 
L 125.588778 250.128 
L 129.167134 252.373545 
L 133.461162 254.791178 
L 137.75519 256.952071 
L 142.76489 259.2 
L 147.774589 261.200126 
L 151.352946 262.498909 
L 152.068617 251.833263 
L 157.078317 254.016 
L 162.803687 256.25773 
L 168.529058 258.269538 
L 174.9701 260.299636 
L 182.126814 262.3104 
L 184.273828 262.869573 
L 184.989499 254.942749 
L 192.146212 257.088 
L 200.018597 259.2 
L 208.606653 261.254038 
L 217.194709 263.088 
L 218.626052 250.529416 
L 222.92008 251.692138 
L 223.635752 245.650403 
L 224.351423 245.863385 
L 225.067094 239.897872 
L 232.939479 242.38361 
L 241.527535 244.853581 
L 242.958878 245.243077 
L 243.674549 239.874207 
L 249.39992 241.528149 
L 250.115591 236.352 
L 252.978277 237.215299 
L 253.693948 232.148945 
L 262.282004 234.797268 
L 271.585731 237.4272 
L 281.60513 240.015898 
L 287.330501 241.394087 
L 288.046172 237.06769 
L 298.781242 239.660308 
L 310.231984 242.183593 
L 322.398397 244.626113 
L 335.280481 246.97962 
L 348.878236 249.238588 
L 359.613307 250.878638 
L 360.328978 247.560453 
L 375.358076 249.822202 
L 380.367776 250.529416 
L 381.083447 247.424424 
L 388.955832 248.563862 
L 390.387174 242.535554 
L 396.112545 243.429266 
L 396.828216 240.483032 
L 412.572986 242.917859 
L 414.72 243.23328 
L 414.72 243.23328 
" style="fill:none;stroke:#d62728;stroke-linecap:square;stroke-width:1.5;"/>
   </g>
   <g id="line2d_18">
    <path clip-path="url(#pb6c4392431)" d="M 57.6 295.488 
L 60.462685 295.488 
L 61.178357 53.568 
L 61.894028 88.128 
L 62.609699 114.048 
L 63.325371 134.208 
L 64.041042 150.336 
L 64.756713 163.531636 
L 66.188056 183.832615 
L 67.619399 198.72 
L 69.050741 210.104471 
L 70.482084 219.092211 
L 71.913427 226.368 
L 73.34477 232.378435 
L 74.776112 237.4272 
L 76.207455 241.728 
L 77.638798 245.435586 
L 79.07014 248.664774 
L 80.501483 251.502545 
L 82.648497 255.168 
L 84.795511 258.269538 
L 86.942525 260.928 
L 89.089539 263.232 
L 91.236553 265.248 
L 94.099238 267.574154 
L 96.961924 269.568 
L 99.824609 271.296 
L 103.402966 273.156923 
L 106.981323 274.752 
L 111.275351 276.389053 
L 115.569379 277.786537 
L 120.579078 279.178787 
L 126.304449 280.523876 
L 132.745491 281.794415 
L 139.902204 282.974897 
L 148.490261 284.148 
L 157.793988 285.193532 
L 169.244729 286.24265 
L 182.126814 287.1936 
L 197.871583 288.119878 
L 216.479038 288.978942 
L 227.214108 289.389176 
L 227.92978 283.341389 
L 245.105892 284.449825 
L 245.821563 278.993455 
L 246.537234 279.055698 
L 247.252906 273.660632 
L 253.693948 274.374982 
L 254.409619 269.192348 
L 257.987976 269.660242 
L 258.703647 264.604596 
L 271.585731 266.4576 
L 285.183487 268.186683 
L 287.330501 268.441043 
L 288.046172 264.03091 
L 302.359599 265.865143 
L 318.104369 267.65063 
L 322.398397 268.10083 
L 323.114068 264.272516 
L 325.261082 264.52224 
L 325.976754 260.74417 
L 341.721523 262.664683 
L 358.897635 264.531412 
L 366.77002 265.317838 
L 367.485691 262.042839 
L 386.093146 263.933217 
L 406.131944 265.743738 
L 414.72 266.4576 
L 414.72 266.4576 
" style="fill:none;stroke:#9467bd;stroke-linecap:square;stroke-width:1.5;"/>
   </g>
   <g id="line2d_19">
    <path clip-path="url(#pb6c4392431)" d="M 57.6 256.25773 
L 414.72 256.25773 
L 414.72 256.25773 
" style="fill:none;stroke:#8c564b;stroke-linecap:square;stroke-width:1.5;"/>
   </g>
   <g id="patch_3">
    <path d="M 57.6 307.584 
L 57.6 41.472 
" style="fill:none;stroke:#000000;stroke-linecap:square;stroke-linejoin:miter;stroke-width:0.8;"/>
   </g>
   <g id="patch_4">
    <path d="M 414.72 307.584 
L 414.72 41.472 
" style="fill:none;stroke:#000000;stroke-linecap:square;stroke-linejoin:miter;stroke-width:0.8;"/>
   </g>
   <g id="patch_5">
    <path d="M 57.6 307.584 
L 414.72 307.584 
" style="fill:none;stroke:#000000;stroke-linecap:square;stroke-linejoin:miter;stroke-width:0.8;"/>
   </g>
   <g id="patch_6">
    <path d="M 57.6 41.472 
L 414.72 41.472 
" style="fill:none;stroke:#000000;stroke-linecap:square;stroke-linejoin:miter;stroke-width:0.8;"/>
   </g>
   <g id="text_16">
    <!-- Grafico frecuencias relativas esperadas vs obtenidas -->
    <defs>
     <path d="M 59.515625 10.40625 
L 59.515625 29.984375 
L 43.40625 29.984375 
L 43.40625 38.09375 
L 69.28125 38.09375 
L 69.28125 6.78125 
Q 63.578125 2.734375 56.6875 0.65625 
Q 49.8125 -1.421875 42 -1.421875 
Q 24.90625 -1.421875 15.25 8.5625 
Q 5.609375 18.5625 5.609375 36.375 
Q 5.609375 54.25 15.25 64.234375 
Q 24.90625 74.21875 42 74.21875 
Q 49.125 74.21875 55.546875 72.453125 
Q 61.96875 70.703125 67.390625 67.28125 
L 67.390625 56.78125 
Q 61.921875 61.421875 55.765625 63.765625 
Q 49.609375 66.109375 42.828125 66.109375 
Q 29.4375 66.109375 22.71875 58.640625 
Q 16.015625 51.171875 16.015625 36.375 
Q 16.015625 21.625 22.71875 14.15625 
Q 29.4375 6.6875 42.828125 6.6875 
Q 48.046875 6.6875 52.140625 7.59375 
Q 56.25 8.5 59.515625 10.40625 
z
" id="DejaVuSans-47"/>
     <path d="M 37.109375 75.984375 
L 37.109375 68.5 
L 28.515625 68.5 
Q 23.6875 68.5 21.796875 66.546875 
Q 19.921875 64.59375 19.921875 59.515625 
L 19.921875 54.6875 
L 34.71875 54.6875 
L 34.71875 47.703125 
L 19.921875 47.703125 
L 19.921875 0 
L 10.890625 0 
L 10.890625 47.703125 
L 2.296875 47.703125 
L 2.296875 54.6875 
L 10.890625 54.6875 
L 10.890625 58.5 
Q 10.890625 67.625 15.140625 71.796875 
Q 19.390625 75.984375 28.609375 75.984375 
z
" id="DejaVuSans-66"/>
     <path d="M 30.609375 48.390625 
Q 23.390625 48.390625 19.1875 42.75 
Q 14.984375 37.109375 14.984375 27.296875 
Q 14.984375 17.484375 19.15625 11.84375 
Q 23.34375 6.203125 30.609375 6.203125 
Q 37.796875 6.203125 41.984375 11.859375 
Q 46.1875 17.53125 46.1875 27.296875 
Q 46.1875 37.015625 41.984375 42.703125 
Q 37.796875 48.390625 30.609375 48.390625 
z
M 30.609375 56 
Q 42.328125 56 49.015625 48.375 
Q 55.71875 40.765625 55.71875 27.296875 
Q 55.71875 13.875 49.015625 6.21875 
Q 42.328125 -1.421875 30.609375 -1.421875 
Q 18.84375 -1.421875 12.171875 6.21875 
Q 5.515625 13.875 5.515625 27.296875 
Q 5.515625 40.765625 12.171875 48.375 
Q 18.84375 56 30.609375 56 
z
" id="DejaVuSans-6f"/>
     <path d="M 18.109375 8.203125 
L 18.109375 -20.796875 
L 9.078125 -20.796875 
L 9.078125 54.6875 
L 18.109375 54.6875 
L 18.109375 46.390625 
Q 20.953125 51.265625 25.265625 53.625 
Q 29.59375 56 35.59375 56 
Q 45.5625 56 51.78125 48.09375 
Q 58.015625 40.1875 58.015625 27.296875 
Q 58.015625 14.40625 51.78125 6.484375 
Q 45.5625 -1.421875 35.59375 -1.421875 
Q 29.59375 -1.421875 25.265625 0.953125 
Q 20.953125 3.328125 18.109375 8.203125 
z
M 48.6875 27.296875 
Q 48.6875 37.203125 44.609375 42.84375 
Q 40.53125 48.484375 33.40625 48.484375 
Q 26.265625 48.484375 22.1875 42.84375 
Q 18.109375 37.203125 18.109375 27.296875 
Q 18.109375 17.390625 22.1875 11.75 
Q 26.265625 6.109375 33.40625 6.109375 
Q 40.53125 6.109375 44.609375 11.75 
Q 48.6875 17.390625 48.6875 27.296875 
z
" id="DejaVuSans-70"/>
     <path d="M 48.6875 27.296875 
Q 48.6875 37.203125 44.609375 42.84375 
Q 40.53125 48.484375 33.40625 48.484375 
Q 26.265625 48.484375 22.1875 42.84375 
Q 18.109375 37.203125 18.109375 27.296875 
Q 18.109375 17.390625 22.1875 11.75 
Q 26.265625 6.109375 33.40625 6.109375 
Q 40.53125 6.109375 44.609375 11.75 
Q 48.6875 17.390625 48.6875 27.296875 
z
M 18.109375 46.390625 
Q 20.953125 51.265625 25.265625 53.625 
Q 29.59375 56 35.59375 56 
Q 45.5625 56 51.78125 48.09375 
Q 58.015625 40.1875 58.015625 27.296875 
Q 58.015625 14.40625 51.78125 6.484375 
Q 45.5625 -1.421875 35.59375 -1.421875 
Q 29.59375 -1.421875 25.265625 0.953125 
Q 20.953125 3.328125 18.109375 8.203125 
L 18.109375 0 
L 9.078125 0 
L 9.078125 75.984375 
L 18.109375 75.984375 
z
" id="DejaVuSans-62"/>
    </defs>
    <g transform="translate(77.221875 35.472)scale(0.12 -0.12)">
     <use xlink:href="#DejaVuSans-47"/>
     <use x="77.490234" xlink:href="#DejaVuSans-72"/>
     <use x="118.603516" xlink:href="#DejaVuSans-61"/>
     <use x="179.882812" xlink:href="#DejaVuSans-66"/>
     <use x="215.087891" xlink:href="#DejaVuSans-69"/>
     <use x="242.871094" xlink:href="#DejaVuSans-63"/>
     <use x="297.851562" xlink:href="#DejaVuSans-6f"/>
     <use x="359.033203" xlink:href="#DejaVuSans-20"/>
     <use x="390.820312" xlink:href="#DejaVuSans-66"/>
     <use x="426.025391" xlink:href="#DejaVuSans-72"/>
     <use x="467.107422" xlink:href="#DejaVuSans-65"/>
     <use x="528.630859" xlink:href="#DejaVuSans-63"/>
     <use x="583.611328" xlink:href="#DejaVuSans-75"/>
     <use x="646.990234" xlink:href="#DejaVuSans-65"/>
     <use x="708.513672" xlink:href="#DejaVuSans-6e"/>
     <use x="771.892578" xlink:href="#DejaVuSans-63"/>
     <use x="826.873047" xlink:href="#DejaVuSans-69"/>
     <use x="854.65625" xlink:href="#DejaVuSans-61"/>
     <use x="915.935547" xlink:href="#DejaVuSans-73"/>
     <use x="968.035156" xlink:href="#DejaVuSans-20"/>
     <use x="999.822266" xlink:href="#DejaVuSans-72"/>
     <use x="1040.904297" xlink:href="#DejaVuSans-65"/>
     <use x="1102.427734" xlink:href="#DejaVuSans-6c"/>
     <use x="1130.210938" xlink:href="#DejaVuSans-61"/>
     <use x="1191.490234" xlink:href="#DejaVuSans-74"/>
     <use x="1230.699219" xlink:href="#DejaVuSans-69"/>
     <use x="1258.482422" xlink:href="#DejaVuSans-76"/>
     <use x="1317.662109" xlink:href="#DejaVuSans-61"/>
     <use x="1378.941406" xlink:href="#DejaVuSans-73"/>
     <use x="1431.041016" xlink:href="#DejaVuSans-20"/>
     <use x="1462.828125" xlink:href="#DejaVuSans-65"/>
     <use x="1524.351562" xlink:href="#DejaVuSans-73"/>
     <use x="1576.451172" xlink:href="#DejaVuSans-70"/>
     <use x="1639.927734" xlink:href="#DejaVuSans-65"/>
     <use x="1701.451172" xlink:href="#DejaVuSans-72"/>
     <use x="1742.564453" xlink:href="#DejaVuSans-61"/>
     <use x="1803.84375" xlink:href="#DejaVuSans-64"/>
     <use x="1867.320312" xlink:href="#DejaVuSans-61"/>
     <use x="1928.599609" xlink:href="#DejaVuSans-73"/>
     <use x="1980.699219" xlink:href="#DejaVuSans-20"/>
     <use x="2012.486328" xlink:href="#DejaVuSans-76"/>
     <use x="2071.666016" xlink:href="#DejaVuSans-73"/>
     <use x="2123.765625" xlink:href="#DejaVuSans-20"/>
     <use x="2155.552734" xlink:href="#DejaVuSans-6f"/>
     <use x="2216.734375" xlink:href="#DejaVuSans-62"/>
     <use x="2280.210938" xlink:href="#DejaVuSans-74"/>
     <use x="2319.419922" xlink:href="#DejaVuSans-65"/>
     <use x="2380.943359" xlink:href="#DejaVuSans-6e"/>
     <use x="2444.322266" xlink:href="#DejaVuSans-69"/>
     <use x="2472.105469" xlink:href="#DejaVuSans-64"/>
     <use x="2535.582031" xlink:href="#DejaVuSans-61"/>
     <use x="2596.861328" xlink:href="#DejaVuSans-73"/>
    </g>
   </g>
   <g id="legend_1">
    <g id="patch_7">
     <path d="M 223.045 137.54075 
L 407.72 137.54075 
Q 409.72 137.54075 409.72 135.54075 
L 409.72 48.472 
Q 409.72 46.472 407.72 46.472 
L 223.045 46.472 
Q 221.045 46.472 221.045 48.472 
L 221.045 135.54075 
Q 221.045 137.54075 223.045 137.54075 
z
" style="fill:#ffffff;opacity:0.8;stroke:#cccccc;stroke-linejoin:miter;"/>
    </g>
    <g id="line2d_20">
     <path d="M 225.045 54.570438 
L 245.045 54.570438 
" style="fill:none;stroke:#1f77b4;stroke-linecap:square;stroke-width:1.5;"/>
    </g>
    <g id="line2d_21"/>
    <g id="text_17">
     <!-- Frecuencia relativa 1 obtenida -->
     <g transform="translate(253.045 58.070438)scale(0.1 -0.1)">
      <use xlink:href="#DejaVuSans-46"/>
      <use x="57.410156" xlink:href="#DejaVuSans-72"/>
      <use x="98.492188" xlink:href="#DejaVuSans-65"/>
      <use x="160.015625" xlink:href="#DejaVuSans-63"/>
      <use x="214.996094" xlink:href="#DejaVuSans-75"/>
      <use x="278.375" xlink:href="#DejaVuSans-65"/>
      <use x="339.898438" xlink:href="#DejaVuSans-6e"/>
      <use x="403.277344" xlink:href="#DejaVuSans-63"/>
      <use x="458.257812" xlink:href="#DejaVuSans-69"/>
      <use x="486.041016" xlink:href="#DejaVuSans-61"/>
      <use x="547.320312" xlink:href="#DejaVuSans-20"/>
      <use x="579.107422" xlink:href="#DejaVuSans-72"/>
      <use x="620.189453" xlink:href="#DejaVuSans-65"/>
      <use x="681.712891" xlink:href="#DejaVuSans-6c"/>
      <use x="709.496094" xlink:href="#DejaVuSans-61"/>
      <use x="770.775391" xlink:href="#DejaVuSans-74"/>
      <use x="809.984375" xlink:href="#DejaVuSans-69"/>
      <use x="837.767578" xlink:href="#DejaVuSans-76"/>
      <use x="896.947266" xlink:href="#DejaVuSans-61"/>
      <use x="958.226562" xlink:href="#DejaVuSans-20"/>
      <use x="990.013672" xlink:href="#DejaVuSans-31"/>
      <use x="1053.636719" xlink:href="#DejaVuSans-20"/>
      <use x="1085.423828" xlink:href="#DejaVuSans-6f"/>
      <use x="1146.605469" xlink:href="#DejaVuSans-62"/>
      <use x="1210.082031" xlink:href="#DejaVuSans-74"/>
      <use x="1249.291016" xlink:href="#DejaVuSans-65"/>
      <use x="1310.814453" xlink:href="#DejaVuSans-6e"/>
      <use x="1374.193359" xlink:href="#DejaVuSans-69"/>
      <use x="1401.976562" xlink:href="#DejaVuSans-64"/>
      <use x="1465.453125" xlink:href="#DejaVuSans-61"/>
     </g>
    </g>
    <g id="line2d_22">
     <path d="M 225.045 69.248563 
L 245.045 69.248563 
" style="fill:none;stroke:#ff7f0e;stroke-linecap:square;stroke-width:1.5;"/>
    </g>
    <g id="line2d_23"/>
    <g id="text_18">
     <!-- Frecuencia relativa 2 obtenida -->
     <g transform="translate(253.045 72.748563)scale(0.1 -0.1)">
      <use xlink:href="#DejaVuSans-46"/>
      <use x="57.410156" xlink:href="#DejaVuSans-72"/>
      <use x="98.492188" xlink:href="#DejaVuSans-65"/>
      <use x="160.015625" xlink:href="#DejaVuSans-63"/>
      <use x="214.996094" xlink:href="#DejaVuSans-75"/>
      <use x="278.375" xlink:href="#DejaVuSans-65"/>
      <use x="339.898438" xlink:href="#DejaVuSans-6e"/>
      <use x="403.277344" xlink:href="#DejaVuSans-63"/>
      <use x="458.257812" xlink:href="#DejaVuSans-69"/>
      <use x="486.041016" xlink:href="#DejaVuSans-61"/>
      <use x="547.320312" xlink:href="#DejaVuSans-20"/>
      <use x="579.107422" xlink:href="#DejaVuSans-72"/>
      <use x="620.189453" xlink:href="#DejaVuSans-65"/>
      <use x="681.712891" xlink:href="#DejaVuSans-6c"/>
      <use x="709.496094" xlink:href="#DejaVuSans-61"/>
      <use x="770.775391" xlink:href="#DejaVuSans-74"/>
      <use x="809.984375" xlink:href="#DejaVuSans-69"/>
      <use x="837.767578" xlink:href="#DejaVuSans-76"/>
      <use x="896.947266" xlink:href="#DejaVuSans-61"/>
      <use x="958.226562" xlink:href="#DejaVuSans-20"/>
      <use x="990.013672" xlink:href="#DejaVuSans-32"/>
      <use x="1053.636719" xlink:href="#DejaVuSans-20"/>
      <use x="1085.423828" xlink:href="#DejaVuSans-6f"/>
      <use x="1146.605469" xlink:href="#DejaVuSans-62"/>
      <use x="1210.082031" xlink:href="#DejaVuSans-74"/>
      <use x="1249.291016" xlink:href="#DejaVuSans-65"/>
      <use x="1310.814453" xlink:href="#DejaVuSans-6e"/>
      <use x="1374.193359" xlink:href="#DejaVuSans-69"/>
      <use x="1401.976562" xlink:href="#DejaVuSans-64"/>
      <use x="1465.453125" xlink:href="#DejaVuSans-61"/>
     </g>
    </g>
    <g id="line2d_24">
     <path d="M 225.045 83.926688 
L 245.045 83.926688 
" style="fill:none;stroke:#2ca02c;stroke-linecap:square;stroke-width:1.5;"/>
    </g>
    <g id="line2d_25"/>
    <g id="text_19">
     <!-- Frecuencia relativa 3 obtenida -->
     <g transform="translate(253.045 87.426688)scale(0.1 -0.1)">
      <use xlink:href="#DejaVuSans-46"/>
      <use x="57.410156" xlink:href="#DejaVuSans-72"/>
      <use x="98.492188" xlink:href="#DejaVuSans-65"/>
      <use x="160.015625" xlink:href="#DejaVuSans-63"/>
      <use x="214.996094" xlink:href="#DejaVuSans-75"/>
      <use x="278.375" xlink:href="#DejaVuSans-65"/>
      <use x="339.898438" xlink:href="#DejaVuSans-6e"/>
      <use x="403.277344" xlink:href="#DejaVuSans-63"/>
      <use x="458.257812" xlink:href="#DejaVuSans-69"/>
      <use x="486.041016" xlink:href="#DejaVuSans-61"/>
      <use x="547.320312" xlink:href="#DejaVuSans-20"/>
      <use x="579.107422" xlink:href="#DejaVuSans-72"/>
      <use x="620.189453" xlink:href="#DejaVuSans-65"/>
      <use x="681.712891" xlink:href="#DejaVuSans-6c"/>
      <use x="709.496094" xlink:href="#DejaVuSans-61"/>
      <use x="770.775391" xlink:href="#DejaVuSans-74"/>
      <use x="809.984375" xlink:href="#DejaVuSans-69"/>
      <use x="837.767578" xlink:href="#DejaVuSans-76"/>
      <use x="896.947266" xlink:href="#DejaVuSans-61"/>
      <use x="958.226562" xlink:href="#DejaVuSans-20"/>
      <use x="990.013672" xlink:href="#DejaVuSans-33"/>
      <use x="1053.636719" xlink:href="#DejaVuSans-20"/>
      <use x="1085.423828" xlink:href="#DejaVuSans-6f"/>
      <use x="1146.605469" xlink:href="#DejaVuSans-62"/>
      <use x="1210.082031" xlink:href="#DejaVuSans-74"/>
      <use x="1249.291016" xlink:href="#DejaVuSans-65"/>
      <use x="1310.814453" xlink:href="#DejaVuSans-6e"/>
      <use x="1374.193359" xlink:href="#DejaVuSans-69"/>
      <use x="1401.976562" xlink:href="#DejaVuSans-64"/>
      <use x="1465.453125" xlink:href="#DejaVuSans-61"/>
     </g>
    </g>
    <g id="line2d_26">
     <path d="M 225.045 98.604813 
L 245.045 98.604813 
" style="fill:none;stroke:#d62728;stroke-linecap:square;stroke-width:1.5;"/>
    </g>
    <g id="line2d_27"/>
    <g id="text_20">
     <!-- Frecuencia relativa 4 obtenida -->
     <g transform="translate(253.045 102.104813)scale(0.1 -0.1)">
      <use xlink:href="#DejaVuSans-46"/>
      <use x="57.410156" xlink:href="#DejaVuSans-72"/>
      <use x="98.492188" xlink:href="#DejaVuSans-65"/>
      <use x="160.015625" xlink:href="#DejaVuSans-63"/>
      <use x="214.996094" xlink:href="#DejaVuSans-75"/>
      <use x="278.375" xlink:href="#DejaVuSans-65"/>
      <use x="339.898438" xlink:href="#DejaVuSans-6e"/>
      <use x="403.277344" xlink:href="#DejaVuSans-63"/>
      <use x="458.257812" xlink:href="#DejaVuSans-69"/>
      <use x="486.041016" xlink:href="#DejaVuSans-61"/>
      <use x="547.320312" xlink:href="#DejaVuSans-20"/>
      <use x="579.107422" xlink:href="#DejaVuSans-72"/>
      <use x="620.189453" xlink:href="#DejaVuSans-65"/>
      <use x="681.712891" xlink:href="#DejaVuSans-6c"/>
      <use x="709.496094" xlink:href="#DejaVuSans-61"/>
      <use x="770.775391" xlink:href="#DejaVuSans-74"/>
      <use x="809.984375" xlink:href="#DejaVuSans-69"/>
      <use x="837.767578" xlink:href="#DejaVuSans-76"/>
      <use x="896.947266" xlink:href="#DejaVuSans-61"/>
      <use x="958.226562" xlink:href="#DejaVuSans-20"/>
      <use x="990.013672" xlink:href="#DejaVuSans-34"/>
      <use x="1053.636719" xlink:href="#DejaVuSans-20"/>
      <use x="1085.423828" xlink:href="#DejaVuSans-6f"/>
      <use x="1146.605469" xlink:href="#DejaVuSans-62"/>
      <use x="1210.082031" xlink:href="#DejaVuSans-74"/>
      <use x="1249.291016" xlink:href="#DejaVuSans-65"/>
      <use x="1310.814453" xlink:href="#DejaVuSans-6e"/>
      <use x="1374.193359" xlink:href="#DejaVuSans-69"/>
      <use x="1401.976562" xlink:href="#DejaVuSans-64"/>
      <use x="1465.453125" xlink:href="#DejaVuSans-61"/>
     </g>
    </g>
    <g id="line2d_28">
     <path d="M 225.045 113.282938 
L 245.045 113.282938 
" style="fill:none;stroke:#9467bd;stroke-linecap:square;stroke-width:1.5;"/>
    </g>
    <g id="line2d_29"/>
    <g id="text_21">
     <!-- Frecuencia relativa 5 obtenida -->
     <g transform="translate(253.045 116.782938)scale(0.1 -0.1)">
      <use xlink:href="#DejaVuSans-46"/>
      <use x="57.410156" xlink:href="#DejaVuSans-72"/>
      <use x="98.492188" xlink:href="#DejaVuSans-65"/>
      <use x="160.015625" xlink:href="#DejaVuSans-63"/>
      <use x="214.996094" xlink:href="#DejaVuSans-75"/>
      <use x="278.375" xlink:href="#DejaVuSans-65"/>
      <use x="339.898438" xlink:href="#DejaVuSans-6e"/>
      <use x="403.277344" xlink:href="#DejaVuSans-63"/>
      <use x="458.257812" xlink:href="#DejaVuSans-69"/>
      <use x="486.041016" xlink:href="#DejaVuSans-61"/>
      <use x="547.320312" xlink:href="#DejaVuSans-20"/>
      <use x="579.107422" xlink:href="#DejaVuSans-72"/>
      <use x="620.189453" xlink:href="#DejaVuSans-65"/>
      <use x="681.712891" xlink:href="#DejaVuSans-6c"/>
      <use x="709.496094" xlink:href="#DejaVuSans-61"/>
      <use x="770.775391" xlink:href="#DejaVuSans-74"/>
      <use x="809.984375" xlink:href="#DejaVuSans-69"/>
      <use x="837.767578" xlink:href="#DejaVuSans-76"/>
      <use x="896.947266" xlink:href="#DejaVuSans-61"/>
      <use x="958.226562" xlink:href="#DejaVuSans-20"/>
      <use x="990.013672" xlink:href="#DejaVuSans-35"/>
      <use x="1053.636719" xlink:href="#DejaVuSans-20"/>
      <use x="1085.423828" xlink:href="#DejaVuSans-6f"/>
      <use x="1146.605469" xlink:href="#DejaVuSans-62"/>
      <use x="1210.082031" xlink:href="#DejaVuSans-74"/>
      <use x="1249.291016" xlink:href="#DejaVuSans-65"/>
      <use x="1310.814453" xlink:href="#DejaVuSans-6e"/>
      <use x="1374.193359" xlink:href="#DejaVuSans-69"/>
      <use x="1401.976562" xlink:href="#DejaVuSans-64"/>
      <use x="1465.453125" xlink:href="#DejaVuSans-61"/>
     </g>
    </g>
    <g id="line2d_30">
     <path d="M 225.045 127.961063 
L 245.045 127.961063 
" style="fill:none;stroke:#8c564b;stroke-linecap:square;stroke-width:1.5;"/>
    </g>
    <g id="line2d_31"/>
    <g id="text_22">
     <!-- Frecuencia relativa esperada -->
     <g transform="translate(253.045 131.461063)scale(0.1 -0.1)">
      <use xlink:href="#DejaVuSans-46"/>
      <use x="57.410156" xlink:href="#DejaVuSans-72"/>
      <use x="98.492188" xlink:href="#DejaVuSans-65"/>
      <use x="160.015625" xlink:href="#DejaVuSans-63"/>
      <use x="214.996094" xlink:href="#DejaVuSans-75"/>
      <use x="278.375" xlink:href="#DejaVuSans-65"/>
      <use x="339.898438" xlink:href="#DejaVuSans-6e"/>
      <use x="403.277344" xlink:href="#DejaVuSans-63"/>
      <use x="458.257812" xlink:href="#DejaVuSans-69"/>
      <use x="486.041016" xlink:href="#DejaVuSans-61"/>
      <use x="547.320312" xlink:href="#DejaVuSans-20"/>
      <use x="579.107422" xlink:href="#DejaVuSans-72"/>
      <use x="620.189453" xlink:href="#DejaVuSans-65"/>
      <use x="681.712891" xlink:href="#DejaVuSans-6c"/>
      <use x="709.496094" xlink:href="#DejaVuSans-61"/>
      <use x="770.775391" xlink:href="#DejaVuSans-74"/>
      <use x="809.984375" xlink:href="#DejaVuSans-69"/>
      <use x="837.767578" xlink:href="#DejaVuSans-76"/>
      <use x="896.947266" xlink:href="#DejaVuSans-61"/>
      <use x="958.226562" xlink:href="#DejaVuSans-20"/>
      <use x="990.013672" xlink:href="#DejaVuSans-65"/>
      <use x="1051.537109" xlink:href="#DejaVuSans-73"/>
      <use x="1103.636719" xlink:href="#DejaVuSans-70"/>
      <use x="1167.113281" xlink:href="#DejaVuSans-65"/>
      <use x="1228.636719" xlink:href="#DejaVuSans-72"/>
      <use x="1269.75" xlink:href="#DejaVuSans-61"/>
      <use x="1331.029297" xlink:href="#DejaVuSans-64"/>
      <use x="1394.505859" xlink:href="#DejaVuSans-61"/>
     </g>
    </g>
   </g>
  </g>
 </g>
 <defs>
  <clipPath id="pb6c4392431">
   <rect height="266.112" width="357.12" x="57.6" y="41.472"/>
  </clipPath>
 </defs>
</svg>
