<?xml version="1.0" encoding="utf-8" standalone="no"?>
<!DOCTYPE svg PUBLIC "-//W3C//DTD SVG 1.1//EN"
  "http://www.w3.org/Graphics/SVG/1.1/DTD/svg11.dtd">
<!-- Created with matplotlib (http://matplotlib.org/) -->
<svg height="345.6pt" version="1.1" viewBox="0 0 460.8 345.6" width="460.8pt" xmlns="http://www.w3.org/2000/svg" xmlns:xlink="http://www.w3.org/1999/xlink">
 <defs>
  <style type="text/css">
*{stroke-linecap:butt;stroke-linejoin:round;}
  </style>
 </defs>
 <g id="figure_1">
  <g id="patch_1">
   <path d="M 0 345.6 
L 460.8 345.6 
L 460.8 0 
L 0 0 
z
" style="fill:#ffffff;"/>
  </g>
  <g id="axes_1">
   <g id="patch_2">
    <path d="M 57.6 307.584 
L 414.72 307.584 
L 414.72 41.472 
L 57.6 41.472 
z
" style="fill:#ffffff;"/>
   </g>
   <g id="matplotlib.axis_1">
    <g id="xtick_1">
     <g id="line2d_1">
      <defs>
       <path d="M 0 0 
L 0 3.5 
" id="m084455ed82" style="stroke:#000000;stroke-width:0.8;"/>
      </defs>
      <g>
       <use style="stroke:#000000;stroke-width:0.8;" x="57.528562" xlink:href="#m084455ed82" y="307.584"/>
      </g>
     </g>
     <g id="text_1">
      <!-- 0 -->
      <defs>
       <path d="M 31.78125 66.40625 
Q 24.171875 66.40625 20.328125 58.90625 
Q 16.5 51.421875 16.5 36.375 
Q 16.5 21.390625 20.328125 13.890625 
Q 24.171875 6.390625 31.78125 6.390625 
Q 39.453125 6.390625 43.28125 13.890625 
Q 47.125 21.390625 47.125 36.375 
Q 47.125 51.421875 43.28125 58.90625 
Q 39.453125 66.40625 31.78125 66.40625 
z
M 31.78125 74.21875 
Q 44.046875 74.21875 50.515625 64.515625 
Q 56.984375 54.828125 56.984375 36.375 
Q 56.984375 17.96875 50.515625 8.265625 
Q 44.046875 -1.421875 31.78125 -1.421875 
Q 19.53125 -1.421875 13.0625 8.265625 
Q 6.59375 17.96875 6.59375 36.375 
Q 6.59375 54.828125 13.0625 64.515625 
Q 19.53125 74.21875 31.78125 74.21875 
z
" id="DejaVuSans-30"/>
      </defs>
      <g transform="translate(54.347312 322.182437)scale(0.1 -0.1)">
       <use xlink:href="#DejaVuSans-30"/>
      </g>
     </g>
    </g>
    <g id="xtick_2">
     <g id="line2d_2">
      <g>
       <use style="stroke:#000000;stroke-width:0.8;" x="128.966849" xlink:href="#m084455ed82" y="307.584"/>
      </g>
     </g>
     <g id="text_2">
      <!-- 1000 -->
      <defs>
       <path d="M 12.40625 8.296875 
L 28.515625 8.296875 
L 28.515625 63.921875 
L 10.984375 60.40625 
L 10.984375 69.390625 
L 28.421875 72.90625 
L 38.28125 72.90625 
L 38.28125 8.296875 
L 54.390625 8.296875 
L 54.390625 0 
L 12.40625 0 
z
" id="DejaVuSans-31"/>
      </defs>
      <g transform="translate(116.241849 322.182437)scale(0.1 -0.1)">
       <use xlink:href="#DejaVuSans-31"/>
       <use x="63.623047" xlink:href="#DejaVuSans-30"/>
       <use x="127.246094" xlink:href="#DejaVuSans-30"/>
       <use x="190.869141" xlink:href="#DejaVuSans-30"/>
      </g>
     </g>
    </g>
    <g id="xtick_3">
     <g id="line2d_3">
      <g>
       <use style="stroke:#000000;stroke-width:0.8;" x="200.405137" xlink:href="#m084455ed82" y="307.584"/>
      </g>
     </g>
     <g id="text_3">
      <!-- 2000 -->
      <defs>
       <path d="M 19.1875 8.296875 
L 53.609375 8.296875 
L 53.609375 0 
L 7.328125 0 
L 7.328125 8.296875 
Q 12.9375 14.109375 22.625 23.890625 
Q 32.328125 33.6875 34.8125 36.53125 
Q 39.546875 41.84375 41.421875 45.53125 
Q 43.3125 49.21875 43.3125 52.78125 
Q 43.3125 58.59375 39.234375 62.25 
Q 35.15625 65.921875 28.609375 65.921875 
Q 23.96875 65.921875 18.8125 64.3125 
Q 13.671875 62.703125 7.8125 59.421875 
L 7.8125 69.390625 
Q 13.765625 71.78125 18.9375 73 
Q 24.125 74.21875 28.421875 74.21875 
Q 39.75 74.21875 46.484375 68.546875 
Q 53.21875 62.890625 53.21875 53.421875 
Q 53.21875 48.921875 51.53125 44.890625 
Q 49.859375 40.875 45.40625 35.40625 
Q 44.1875 33.984375 37.640625 27.21875 
Q 31.109375 20.453125 19.1875 8.296875 
z
" id="DejaVuSans-32"/>
      </defs>
      <g transform="translate(187.680137 322.182437)scale(0.1 -0.1)">
       <use xlink:href="#DejaVuSans-32"/>
       <use x="63.623047" xlink:href="#DejaVuSans-30"/>
       <use x="127.246094" xlink:href="#DejaVuSans-30"/>
       <use x="190.869141" xlink:href="#DejaVuSans-30"/>
      </g>
     </g>
    </g>
    <g id="xtick_4">
     <g id="line2d_4">
      <g>
       <use style="stroke:#000000;stroke-width:0.8;" x="271.843425" xlink:href="#m084455ed82" y="307.584"/>
      </g>
     </g>
     <g id="text_4">
      <!-- 3000 -->
      <defs>
       <path d="M 40.578125 39.3125 
Q 47.65625 37.796875 51.625 33 
Q 55.609375 28.21875 55.609375 21.1875 
Q 55.609375 10.40625 48.1875 4.484375 
Q 40.765625 -1.421875 27.09375 -1.421875 
Q 22.515625 -1.421875 17.65625 -0.515625 
Q 12.796875 0.390625 7.625 2.203125 
L 7.625 11.71875 
Q 11.71875 9.328125 16.59375 8.109375 
Q 21.484375 6.890625 26.8125 6.890625 
Q 36.078125 6.890625 40.9375 10.546875 
Q 45.796875 14.203125 45.796875 21.1875 
Q 45.796875 27.640625 41.28125 31.265625 
Q 36.765625 34.90625 28.71875 34.90625 
L 20.21875 34.90625 
L 20.21875 43.015625 
L 29.109375 43.015625 
Q 36.375 43.015625 40.234375 45.921875 
Q 44.09375 48.828125 44.09375 54.296875 
Q 44.09375 59.90625 40.109375 62.90625 
Q 36.140625 65.921875 28.71875 65.921875 
Q 24.65625 65.921875 20.015625 65.03125 
Q 15.375 64.15625 9.8125 62.3125 
L 9.8125 71.09375 
Q 15.4375 72.65625 20.34375 73.4375 
Q 25.25 74.21875 29.59375 74.21875 
Q 40.828125 74.21875 47.359375 69.109375 
Q 53.90625 64.015625 53.90625 55.328125 
Q 53.90625 49.265625 50.4375 45.09375 
Q 46.96875 40.921875 40.578125 39.3125 
z
" id="DejaVuSans-33"/>
      </defs>
      <g transform="translate(259.118425 322.182437)scale(0.1 -0.1)">
       <use xlink:href="#DejaVuSans-33"/>
       <use x="63.623047" xlink:href="#DejaVuSans-30"/>
       <use x="127.246094" xlink:href="#DejaVuSans-30"/>
       <use x="190.869141" xlink:href="#DejaVuSans-30"/>
      </g>
     </g>
    </g>
    <g id="xtick_5">
     <g id="line2d_5">
      <g>
       <use style="stroke:#000000;stroke-width:0.8;" x="343.281712" xlink:href="#m084455ed82" y="307.584"/>
      </g>
     </g>
     <g id="text_5">
      <!-- 4000 -->
      <defs>
       <path d="M 37.796875 64.3125 
L 12.890625 25.390625 
L 37.796875 25.390625 
z
M 35.203125 72.90625 
L 47.609375 72.90625 
L 47.609375 25.390625 
L 58.015625 25.390625 
L 58.015625 17.1875 
L 47.609375 17.1875 
L 47.609375 0 
L 37.796875 0 
L 37.796875 17.1875 
L 4.890625 17.1875 
L 4.890625 26.703125 
z
" id="DejaVuSans-34"/>
      </defs>
      <g transform="translate(330.556712 322.182437)scale(0.1 -0.1)">
       <use xlink:href="#DejaVuSans-34"/>
       <use x="63.623047" xlink:href="#DejaVuSans-30"/>
       <use x="127.246094" xlink:href="#DejaVuSans-30"/>
       <use x="190.869141" xlink:href="#DejaVuSans-30"/>
      </g>
     </g>
    </g>
    <g id="xtick_6">
     <g id="line2d_6">
      <g>
       <use style="stroke:#000000;stroke-width:0.8;" x="414.72" xlink:href="#m084455ed82" y="307.584"/>
      </g>
     </g>
     <g id="text_6">
      <!-- 5000 -->
      <defs>
       <path d="M 10.796875 72.90625 
L 49.515625 72.90625 
L 49.515625 64.59375 
L 19.828125 64.59375 
L 19.828125 46.734375 
Q 21.96875 47.46875 24.109375 47.828125 
Q 26.265625 48.1875 28.421875 48.1875 
Q 40.625 48.1875 47.75 41.5 
Q 54.890625 34.8125 54.890625 23.390625 
Q 54.890625 11.625 47.5625 5.09375 
Q 40.234375 -1.421875 26.90625 -1.421875 
Q 22.3125 -1.421875 17.546875 -0.640625 
Q 12.796875 0.140625 7.71875 1.703125 
L 7.71875 11.625 
Q 12.109375 9.234375 16.796875 8.0625 
Q 21.484375 6.890625 26.703125 6.890625 
Q 35.15625 6.890625 40.078125 11.328125 
Q 45.015625 15.765625 45.015625 23.390625 
Q 45.015625 31 40.078125 35.4375 
Q 35.15625 39.890625 26.703125 39.890625 
Q 22.75 39.890625 18.8125 39.015625 
Q 14.890625 38.140625 10.796875 36.28125 
z
" id="DejaVuSans-35"/>
      </defs>
      <g transform="translate(401.995 322.182437)scale(0.1 -0.1)">
       <use xlink:href="#DejaVuSans-35"/>
       <use x="63.623047" xlink:href="#DejaVuSans-30"/>
       <use x="127.246094" xlink:href="#DejaVuSans-30"/>
       <use x="190.869141" xlink:href="#DejaVuSans-30"/>
      </g>
     </g>
    </g>
    <g id="text_7">
     <!-- Tiradas -->
     <defs>
      <path d="M -0.296875 72.90625 
L 61.375 72.90625 
L 61.375 64.59375 
L 35.5 64.59375 
L 35.5 0 
L 25.59375 0 
L 25.59375 64.59375 
L -0.296875 64.59375 
z
" id="DejaVuSans-54"/>
      <path d="M 9.421875 54.6875 
L 18.40625 54.6875 
L 18.40625 0 
L 9.421875 0 
z
M 9.421875 75.984375 
L 18.40625 75.984375 
L 18.40625 64.59375 
L 9.421875 64.59375 
z
" id="DejaVuSans-69"/>
      <path d="M 41.109375 46.296875 
Q 39.59375 47.171875 37.8125 47.578125 
Q 36.03125 48 33.890625 48 
Q 26.265625 48 22.1875 43.046875 
Q 18.109375 38.09375 18.109375 28.8125 
L 18.109375 0 
L 9.078125 0 
L 9.078125 54.6875 
L 18.109375 54.6875 
L 18.109375 46.1875 
Q 20.953125 51.171875 25.484375 53.578125 
Q 30.03125 56 36.53125 56 
Q 37.453125 56 38.578125 55.875 
Q 39.703125 55.765625 41.0625 55.515625 
z
" id="DejaVuSans-72"/>
      <path d="M 34.28125 27.484375 
Q 23.390625 27.484375 19.1875 25 
Q 14.984375 22.515625 14.984375 16.5 
Q 14.984375 11.71875 18.140625 8.90625 
Q 21.296875 6.109375 26.703125 6.109375 
Q 34.1875 6.109375 38.703125 11.40625 
Q 43.21875 16.703125 43.21875 25.484375 
L 43.21875 27.484375 
z
M 52.203125 31.203125 
L 52.203125 0 
L 43.21875 0 
L 43.21875 8.296875 
Q 40.140625 3.328125 35.546875 0.953125 
Q 30.953125 -1.421875 24.3125 -1.421875 
Q 15.921875 -1.421875 10.953125 3.296875 
Q 6 8.015625 6 15.921875 
Q 6 25.140625 12.171875 29.828125 
Q 18.359375 34.515625 30.609375 34.515625 
L 43.21875 34.515625 
L 43.21875 35.40625 
Q 43.21875 41.609375 39.140625 45 
Q 35.0625 48.390625 27.6875 48.390625 
Q 23 48.390625 18.546875 47.265625 
Q 14.109375 46.140625 10.015625 43.890625 
L 10.015625 52.203125 
Q 14.9375 54.109375 19.578125 55.046875 
Q 24.21875 56 28.609375 56 
Q 40.484375 56 46.34375 49.84375 
Q 52.203125 43.703125 52.203125 31.203125 
z
" id="DejaVuSans-61"/>
      <path d="M 45.40625 46.390625 
L 45.40625 75.984375 
L 54.390625 75.984375 
L 54.390625 0 
L 45.40625 0 
L 45.40625 8.203125 
Q 42.578125 3.328125 38.25 0.953125 
Q 33.9375 -1.421875 27.875 -1.421875 
Q 17.96875 -1.421875 11.734375 6.484375 
Q 5.515625 14.40625 5.515625 27.296875 
Q 5.515625 40.1875 11.734375 48.09375 
Q 17.96875 56 27.875 56 
Q 33.9375 56 38.25 53.625 
Q 42.578125 51.265625 45.40625 46.390625 
z
M 14.796875 27.296875 
Q 14.796875 17.390625 18.875 11.75 
Q 22.953125 6.109375 30.078125 6.109375 
Q 37.203125 6.109375 41.296875 11.75 
Q 45.40625 17.390625 45.40625 27.296875 
Q 45.40625 37.203125 41.296875 42.84375 
Q 37.203125 48.484375 30.078125 48.484375 
Q 22.953125 48.484375 18.875 42.84375 
Q 14.796875 37.203125 14.796875 27.296875 
z
" id="DejaVuSans-64"/>
      <path d="M 44.28125 53.078125 
L 44.28125 44.578125 
Q 40.484375 46.53125 36.375 47.5 
Q 32.28125 48.484375 27.875 48.484375 
Q 21.1875 48.484375 17.84375 46.4375 
Q 14.5 44.390625 14.5 40.28125 
Q 14.5 37.15625 16.890625 35.375 
Q 19.28125 33.59375 26.515625 31.984375 
L 29.59375 31.296875 
Q 39.15625 29.25 43.1875 25.515625 
Q 47.21875 21.78125 47.21875 15.09375 
Q 47.21875 7.46875 41.1875 3.015625 
Q 35.15625 -1.421875 24.609375 -1.421875 
Q 20.21875 -1.421875 15.453125 -0.5625 
Q 10.6875 0.296875 5.421875 2 
L 5.421875 11.28125 
Q 10.40625 8.6875 15.234375 7.390625 
Q 20.0625 6.109375 24.8125 6.109375 
Q 31.15625 6.109375 34.5625 8.28125 
Q 37.984375 10.453125 37.984375 14.40625 
Q 37.984375 18.0625 35.515625 20.015625 
Q 33.0625 21.96875 24.703125 23.78125 
L 21.578125 24.515625 
Q 13.234375 26.265625 9.515625 29.90625 
Q 5.8125 33.546875 5.8125 39.890625 
Q 5.8125 47.609375 11.28125 51.796875 
Q 16.75 56 26.8125 56 
Q 31.78125 56 36.171875 55.265625 
Q 40.578125 54.546875 44.28125 53.078125 
z
" id="DejaVuSans-73"/>
     </defs>
     <g transform="translate(217.756875 335.860562)scale(0.1 -0.1)">
      <use xlink:href="#DejaVuSans-54"/>
      <use x="61.037109" xlink:href="#DejaVuSans-69"/>
      <use x="88.820312" xlink:href="#DejaVuSans-72"/>
      <use x="129.933594" xlink:href="#DejaVuSans-61"/>
      <use x="191.212891" xlink:href="#DejaVuSans-64"/>
      <use x="254.689453" xlink:href="#DejaVuSans-61"/>
      <use x="315.96875" xlink:href="#DejaVuSans-73"/>
     </g>
    </g>
   </g>
   <g id="matplotlib.axis_2">
    <g id="ytick_1">
     <g id="line2d_7">
      <defs>
       <path d="M 0 0 
L -3.5 0 
" id="mdd3cd062d3" style="stroke:#000000;stroke-width:0.8;"/>
      </defs>
      <g>
       <use style="stroke:#000000;stroke-width:0.8;" x="57.6" xlink:href="#mdd3cd062d3" y="295.488"/>
      </g>
     </g>
     <g id="text_8">
      <!-- 0 -->
      <g transform="translate(44.2375 299.287219)scale(0.1 -0.1)">
       <use xlink:href="#DejaVuSans-30"/>
      </g>
     </g>
    </g>
    <g id="ytick_2">
     <g id="line2d_8">
      <g>
       <use style="stroke:#000000;stroke-width:0.8;" x="57.6" xlink:href="#mdd3cd062d3" y="253.725205"/>
      </g>
     </g>
     <g id="text_9">
      <!-- 2 -->
      <g transform="translate(44.2375 257.524424)scale(0.1 -0.1)">
       <use xlink:href="#DejaVuSans-32"/>
      </g>
     </g>
    </g>
    <g id="ytick_3">
     <g id="line2d_9">
      <g>
       <use style="stroke:#000000;stroke-width:0.8;" x="57.6" xlink:href="#mdd3cd062d3" y="211.96241"/>
      </g>
     </g>
     <g id="text_10">
      <!-- 4 -->
      <g transform="translate(44.2375 215.761629)scale(0.1 -0.1)">
       <use xlink:href="#DejaVuSans-34"/>
      </g>
     </g>
    </g>
    <g id="ytick_4">
     <g id="line2d_10">
      <g>
       <use style="stroke:#000000;stroke-width:0.8;" x="57.6" xlink:href="#mdd3cd062d3" y="170.199615"/>
      </g>
     </g>
     <g id="text_11">
      <!-- 6 -->
      <defs>
       <path d="M 33.015625 40.375 
Q 26.375 40.375 22.484375 35.828125 
Q 18.609375 31.296875 18.609375 23.390625 
Q 18.609375 15.53125 22.484375 10.953125 
Q 26.375 6.390625 33.015625 6.390625 
Q 39.65625 6.390625 43.53125 10.953125 
Q 47.40625 15.53125 47.40625 23.390625 
Q 47.40625 31.296875 43.53125 35.828125 
Q 39.65625 40.375 33.015625 40.375 
z
M 52.59375 71.296875 
L 52.59375 62.3125 
Q 48.875 64.0625 45.09375 64.984375 
Q 41.3125 65.921875 37.59375 65.921875 
Q 27.828125 65.921875 22.671875 59.328125 
Q 17.53125 52.734375 16.796875 39.40625 
Q 19.671875 43.65625 24.015625 45.921875 
Q 28.375 48.1875 33.59375 48.1875 
Q 44.578125 48.1875 50.953125 41.515625 
Q 57.328125 34.859375 57.328125 23.390625 
Q 57.328125 12.15625 50.6875 5.359375 
Q 44.046875 -1.421875 33.015625 -1.421875 
Q 20.359375 -1.421875 13.671875 8.265625 
Q 6.984375 17.96875 6.984375 36.375 
Q 6.984375 53.65625 15.1875 63.9375 
Q 23.390625 74.21875 37.203125 74.21875 
Q 40.921875 74.21875 44.703125 73.484375 
Q 48.484375 72.75 52.59375 71.296875 
z
" id="DejaVuSans-36"/>
      </defs>
      <g transform="translate(44.2375 173.998834)scale(0.1 -0.1)">
       <use xlink:href="#DejaVuSans-36"/>
      </g>
     </g>
    </g>
    <g id="ytick_5">
     <g id="line2d_11">
      <g>
       <use style="stroke:#000000;stroke-width:0.8;" x="57.6" xlink:href="#mdd3cd062d3" y="128.43682"/>
      </g>
     </g>
     <g id="text_12">
      <!-- 8 -->
      <defs>
       <path d="M 31.78125 34.625 
Q 24.75 34.625 20.71875 30.859375 
Q 16.703125 27.09375 16.703125 20.515625 
Q 16.703125 13.921875 20.71875 10.15625 
Q 24.75 6.390625 31.78125 6.390625 
Q 38.8125 6.390625 42.859375 10.171875 
Q 46.921875 13.96875 46.921875 20.515625 
Q 46.921875 27.09375 42.890625 30.859375 
Q 38.875 34.625 31.78125 34.625 
z
M 21.921875 38.8125 
Q 15.578125 40.375 12.03125 44.71875 
Q 8.5 49.078125 8.5 55.328125 
Q 8.5 64.0625 14.71875 69.140625 
Q 20.953125 74.21875 31.78125 74.21875 
Q 42.671875 74.21875 48.875 69.140625 
Q 55.078125 64.0625 55.078125 55.328125 
Q 55.078125 49.078125 51.53125 44.71875 
Q 48 40.375 41.703125 38.8125 
Q 48.828125 37.15625 52.796875 32.3125 
Q 56.78125 27.484375 56.78125 20.515625 
Q 56.78125 9.90625 50.3125 4.234375 
Q 43.84375 -1.421875 31.78125 -1.421875 
Q 19.734375 -1.421875 13.25 4.234375 
Q 6.78125 9.90625 6.78125 20.515625 
Q 6.78125 27.484375 10.78125 32.3125 
Q 14.796875 37.15625 21.921875 38.8125 
z
M 18.3125 54.390625 
Q 18.3125 48.734375 21.84375 45.5625 
Q 25.390625 42.390625 31.78125 42.390625 
Q 38.140625 42.390625 41.71875 45.5625 
Q 45.3125 48.734375 45.3125 54.390625 
Q 45.3125 60.0625 41.71875 63.234375 
Q 38.140625 66.40625 31.78125 66.40625 
Q 25.390625 66.40625 21.84375 63.234375 
Q 18.3125 60.0625 18.3125 54.390625 
z
" id="DejaVuSans-38"/>
      </defs>
      <g transform="translate(44.2375 132.236038)scale(0.1 -0.1)">
       <use xlink:href="#DejaVuSans-38"/>
      </g>
     </g>
    </g>
    <g id="ytick_6">
     <g id="line2d_12">
      <g>
       <use style="stroke:#000000;stroke-width:0.8;" x="57.6" xlink:href="#mdd3cd062d3" y="86.674025"/>
      </g>
     </g>
     <g id="text_13">
      <!-- 10 -->
      <g transform="translate(37.875 90.473243)scale(0.1 -0.1)">
       <use xlink:href="#DejaVuSans-31"/>
       <use x="63.623047" xlink:href="#DejaVuSans-30"/>
      </g>
     </g>
    </g>
    <g id="ytick_7">
     <g id="line2d_13">
      <g>
       <use style="stroke:#000000;stroke-width:0.8;" x="57.6" xlink:href="#mdd3cd062d3" y="44.91123"/>
      </g>
     </g>
     <g id="text_14">
      <!-- 12 -->
      <g transform="translate(37.875 48.710448)scale(0.1 -0.1)">
       <use xlink:href="#DejaVuSans-31"/>
       <use x="63.623047" xlink:href="#DejaVuSans-32"/>
      </g>
     </g>
    </g>
    <g id="text_15">
     <!-- Valores -->
     <defs>
      <path d="M 28.609375 0 
L 0.78125 72.90625 
L 11.078125 72.90625 
L 34.1875 11.53125 
L 57.328125 72.90625 
L 67.578125 72.90625 
L 39.796875 0 
z
" id="DejaVuSans-56"/>
      <path d="M 9.421875 75.984375 
L 18.40625 75.984375 
L 18.40625 0 
L 9.421875 0 
z
" id="DejaVuSans-6c"/>
      <path d="M 30.609375 48.390625 
Q 23.390625 48.390625 19.1875 42.75 
Q 14.984375 37.109375 14.984375 27.296875 
Q 14.984375 17.484375 19.15625 11.84375 
Q 23.34375 6.203125 30.609375 6.203125 
Q 37.796875 6.203125 41.984375 11.859375 
Q 46.1875 17.53125 46.1875 27.296875 
Q 46.1875 37.015625 41.984375 42.703125 
Q 37.796875 48.390625 30.609375 48.390625 
z
M 30.609375 56 
Q 42.328125 56 49.015625 48.375 
Q 55.71875 40.765625 55.71875 27.296875 
Q 55.71875 13.875 49.015625 6.21875 
Q 42.328125 -1.421875 30.609375 -1.421875 
Q 18.84375 -1.421875 12.171875 6.21875 
Q 5.515625 13.875 5.515625 27.296875 
Q 5.515625 40.765625 12.171875 48.375 
Q 18.84375 56 30.609375 56 
z
" id="DejaVuSans-6f"/>
      <path d="M 56.203125 29.59375 
L 56.203125 25.203125 
L 14.890625 25.203125 
Q 15.484375 15.921875 20.484375 11.0625 
Q 25.484375 6.203125 34.421875 6.203125 
Q 39.59375 6.203125 44.453125 7.46875 
Q 49.3125 8.734375 54.109375 11.28125 
L 54.109375 2.78125 
Q 49.265625 0.734375 44.1875 -0.34375 
Q 39.109375 -1.421875 33.890625 -1.421875 
Q 20.796875 -1.421875 13.15625 6.1875 
Q 5.515625 13.8125 5.515625 26.8125 
Q 5.515625 40.234375 12.765625 48.109375 
Q 20.015625 56 32.328125 56 
Q 43.359375 56 49.78125 48.890625 
Q 56.203125 41.796875 56.203125 29.59375 
z
M 47.21875 32.234375 
Q 47.125 39.59375 43.09375 43.984375 
Q 39.0625 48.390625 32.421875 48.390625 
Q 24.90625 48.390625 20.390625 44.140625 
Q 15.875 39.890625 15.1875 32.171875 
z
" id="DejaVuSans-65"/>
     </defs>
     <g transform="translate(31.795312 193.1905)rotate(-90)scale(0.1 -0.1)">
      <use xlink:href="#DejaVuSans-56"/>
      <use x="68.298828" xlink:href="#DejaVuSans-61"/>
      <use x="129.578125" xlink:href="#DejaVuSans-6c"/>
      <use x="157.361328" xlink:href="#DejaVuSans-6f"/>
      <use x="218.542969" xlink:href="#DejaVuSans-72"/>
      <use x="259.625" xlink:href="#DejaVuSans-65"/>
      <use x="321.148438" xlink:href="#DejaVuSans-73"/>
     </g>
    </g>
   </g>
   <g id="line2d_14">
    <path clip-path="url(#p327f81146c)" d="M 57.6 78.565889 
L 414.72 78.565889 
L 414.72 78.565889 
" style="fill:none;stroke:#1f77b4;stroke-linecap:square;stroke-width:1.5;"/>
   </g>
   <g id="line2d_15">
    <path clip-path="url(#p327f81146c)" d="M 57.6 295.488 
L 57.742877 53.568 
L 57.814315 78.29386 
L 57.885753 98.714757 
L 57.957191 85.401815 
L 58.100068 106.994347 
L 58.314383 75.513397 
L 58.385821 79.180955 
L 58.457259 86.921288 
L 58.528698 72.231558 
L 58.600136 79.798898 
L 58.671574 82.959024 
L 58.743013 73.600679 
L 58.814451 73.855478 
L 58.885889 79.279549 
L 58.957327 72.606591 
L 59.028766 74.446377 
L 59.171642 72.65402 
L 59.600272 93.258264 
L 59.67171 96.621997 
L 60.171778 75.802488 
L 60.243217 77.701537 
L 60.314655 72.545971 
L 60.386093 74.019638 
L 60.457532 76.202717 
L 60.671846 67.422167 
L 60.814723 65.344504 
L 61.029038 71.768887 
L 61.100476 67.920617 
L 61.171914 70.050185 
L 61.243353 70.172985 
L 61.314791 71.785015 
L 61.529106 62.967382 
L 61.671982 61.638285 
L 61.814859 65.284074 
L 61.886297 65.014674 
L 61.957736 66.073298 
L 62.100612 62.468912 
L 62.17205 64.055671 
L 62.314927 62.332674 
L 62.386365 63.947096 
L 62.457804 62.702397 
L 62.529242 64.367313 
L 62.672118 61.642596 
L 62.814995 64.024534 
L 62.886433 61.801039 
L 63.02931 63.812088 
L 63.100748 62.994501 
L 63.386501 68.249515 
L 63.600816 64.677499 
L 63.886569 66.414536 
L 64.029446 68.265534 
L 64.315199 63.052584 
L 64.386637 63.752702 
L 64.600952 60.663488 
L 64.815267 59.653172 
L 64.958144 58.431087 
L 65.172458 61.333052 
L 65.243897 60.923747 
L 65.315335 61.920557 
L 65.386773 61.317616 
L 65.458212 61.95966 
L 65.601088 61.012596 
L 65.95828 64.577564 
L 66.244033 67.440684 
L 66.315471 66.149818 
L 66.458348 67.487678 
L 66.886977 62.246226 
L 66.958416 62.800146 
L 67.029854 62.143737 
L 67.244169 63.515648 
L 67.315607 62.067432 
L 67.672799 65.755349 
L 67.815675 65.086424 
L 67.887113 65.881623 
L 68.101428 63.654544 
L 68.244305 64.548974 
L 68.315743 64.436196 
L 68.387181 63.954626 
L 69.244441 69.033354 
L 69.315879 69.139664 
L 69.387317 67.968393 
L 69.458756 68.269206 
L 69.673071 69.887034 
L 69.744509 68.96287 
L 69.815947 69.499028 
L 69.887385 68.612429 
L 70.030262 69.719856 
L 70.316015 67.620328 
L 70.387453 67.584141 
L 70.53033 66.557948 
L 70.601768 67.03571 
L 70.673207 66.446213 
L 70.744645 66.831656 
L 70.816083 66.096895 
L 70.887522 66.317815 
L 70.95896 66.889551 
L 71.030398 66.475436 
L 71.101836 67.062245 
L 71.173275 66.19399 
L 71.316151 66.829228 
L 71.38759 66.694931 
L 71.459028 66.314938 
L 71.673343 64.448005 
L 71.744781 64.471693 
L 71.816219 64.923163 
L 71.887658 64.466988 
L 72.030534 64.838086 
L 72.101972 64.651191 
L 72.173411 63.611492 
L 72.244849 63.855428 
L 72.387726 64.743459 
L 72.459164 64.455716 
L 72.673479 65.39925 
L 72.887794 64.430398 
L 73.102108 65.689355 
L 73.316423 64.735058 
L 73.530738 66.039601 
L 73.602176 65.974768 
L 73.673615 65.942531 
L 73.745053 66.371167 
L 73.816491 66.025286 
L 74.102244 67.224507 
L 74.245121 67.296478 
L 74.387998 66.263956 
L 74.530874 66.979034 
L 74.888066 64.123027 
L 74.959504 64.532495 
L 75.030942 64.345977 
L 75.173819 63.077765 
L 75.245257 63.415315 
L 75.316695 62.934351 
L 75.388134 63.399797 
L 75.459572 63.003052 
L 75.745325 64.278112 
L 75.816763 64.196532 
L 75.888202 64.119746 
L 75.95964 63.64179 
L 76.245393 64.566592 
L 76.316831 64.500756 
L 76.38827 64.938552 
L 76.459708 64.693024 
L 76.602585 65.471487 
L 76.674023 64.97449 
L 76.959776 66.118013 
L 77.031214 66.180683 
L 77.102653 66.584038 
L 77.174091 66.313763 
L 77.245529 66.675759 
L 77.459844 65.447968 
L 77.531282 65.280316 
L 77.959912 67.236131 
L 78.03135 66.988101 
L 78.174227 67.53294 
L 78.245665 67.181292 
L 78.531418 68.138854 
L 78.602857 68.056902 
L 78.745733 68.350832 
L 78.817171 68.008935 
L 78.88861 68.132914 
L 79.031486 68.883081 
L 79.174363 68.281016 
L 79.245801 68.336367 
L 79.317239 68.59697 
L 79.388678 68.162268 
L 79.460116 68.332963 
L 79.745869 69.461025 
L 79.817307 69.216325 
L 79.960184 69.61887 
L 80.031622 69.539657 
L 80.103061 69.206459 
L 80.317375 70.121006 
L 80.460252 69.443846 
L 80.53169 69.783232 
L 80.603129 69.54738 
L 80.674567 69.89353 
L 80.817443 69.469562 
L 81.031758 70.023611 
L 81.103197 69.529335 
L 81.174635 69.846953 
L 81.246073 69.431412 
L 81.317512 69.767654 
L 81.38895 69.449516 
L 81.460388 69.685109 
L 81.531826 69.541421 
L 81.603265 69.386942 
L 81.674703 69.718462 
L 81.746141 69.638648 
L 81.81758 69.790592 
L 81.889018 69.711824 
L 82.174771 68.095306 
L 82.317648 68.609323 
L 82.389086 68.45694 
L 82.460524 68.441486 
L 82.603401 69.044462 
L 82.674839 68.840733 
L 82.746277 68.713752 
L 82.817716 68.357897 
L 82.960592 68.801896 
L 83.103469 68.060535 
L 83.174907 68.237876 
L 83.88929 70.248483 
L 83.960728 70.224929 
L 84.175043 70.797507 
L 84.246481 70.277064 
L 84.31792 70.518894 
L 84.532234 71.087788 
L 84.675111 70.332306 
L 85.103741 71.698289 
L 85.175179 71.54036 
L 85.246617 71.782593 
L 85.389494 70.885605 
L 85.460932 70.998661 
L 85.746685 71.981751 
L 85.818124 71.663914 
L 86.103877 70.907235 
L 86.175315 70.917974 
L 86.38963 71.515517 
L 86.461068 71.791683 
L 86.675383 71.126287 
L 86.961136 71.726953 
L 87.032575 71.690018 
L 87.104013 71.858402 
L 87.246889 70.957041 
L 87.532643 71.610057 
L 87.604081 71.805255 
L 87.675519 71.445157 
L 87.818396 71.958649 
L 87.889834 71.921937 
L 87.961272 71.877786 
L 88.032711 71.515317 
L 88.104149 71.68175 
L 88.532779 71.156029 
L 88.675655 70.818898 
L 88.747093 70.670035 
L 88.818532 70.251009 
L 88.88997 70.413348 
L 89.175723 71.350398 
L 89.247161 70.931632 
L 89.3186 71.061165 
L 89.390038 70.856291 
L 89.604353 71.275975 
L 90.032983 70.906586 
L 90.175859 70.286991 
L 90.390174 70.543707 
L 90.533051 69.874099 
L 90.604489 70.002922 
L 90.675927 70.020557 
L 90.890242 69.630628 
L 91.104557 70.149073 
L 91.247433 70.576213 
L 91.39031 70.291332 
L 91.461748 70.346704 
L 91.676063 70.7293 
L 91.747502 70.541683 
L 91.961816 71.020879 
L 92.033255 70.937103 
L 92.104693 71.108015 
L 92.390446 70.449656 
L 92.461884 70.640055 
L 92.604761 70.379815 
L 92.676199 70.395222 
L 92.890514 70.682978 
L 92.961952 70.698133 
L 93.319144 71.412831 
L 93.46202 71.259229 
L 93.533459 71.369904 
L 93.676335 71.095277 
L 93.89065 71.165587 
L 94.176403 71.695946 
L 94.390718 70.994509 
L 94.462156 70.70403 
L 94.533595 70.862988 
L 94.605033 70.829806 
L 94.962224 71.637555 
L 95.033663 71.564794 
L 95.247978 71.901211 
L 95.533731 72.497368 
L 95.605169 72.074336 
L 95.676607 72.283064 
L 95.890922 71.946888 
L 95.96236 71.95256 
L 96.033799 71.723407 
L 96.105237 71.908365 
L 96.176675 71.624605 
L 96.533867 72.305669 
L 96.676743 72.051617 
L 96.748182 72.061419 
L 96.891058 71.722473 
L 97.176811 72.135217 
L 97.319688 72.280051 
L 97.391126 72.056045 
L 97.534003 72.450665 
L 97.676879 71.842 
L 97.748318 71.91711 
L 97.819756 71.957534 
L 97.891194 71.630529 
L 97.962633 71.77494 
L 98.105509 71.855955 
L 98.176947 72.048864 
L 98.248386 71.658197 
L 98.319824 71.802764 
L 98.534139 72.163494 
L 98.677015 71.831439 
L 98.89133 72.333985 
L 99.034207 71.915603 
L 99.177083 72.224432 
L 99.391398 71.974635 
L 99.462837 72.113851 
L 99.677151 71.680582 
L 99.74859 71.801847 
L 99.891466 71.705957 
L 99.962905 71.89378 
L 100.034343 71.732233 
L 100.462973 72.632111 
L 100.605849 72.485421 
L 100.677287 72.577838 
L 100.891602 72.045738 
L 100.963041 72.195498 
L 101.105917 71.539601 
L 101.177355 71.60356 
L 101.248794 71.716325 
L 101.320232 71.524349 
L 101.39167 71.676977 
L 101.463109 71.56356 
L 101.534547 71.627379 
L 101.8203 72.238566 
L 101.963177 72.023011 
L 102.177491 72.281252 
L 102.24893 72.124023 
L 102.320368 72.193877 
L 102.391806 72.367415 
L 102.534683 72.021856 
L 102.748998 72.319531 
L 102.891874 72.174879 
L 103.034751 72.525505 
L 103.106189 72.343654 
L 103.391942 72.819151 
L 103.534819 72.469631 
L 103.963449 73.243253 
L 104.106325 73.124775 
L 104.463517 73.290414 
L 104.534955 73.09163 
L 104.606393 73.249664 
L 104.677832 73.114046 
L 104.74927 73.240835 
L 104.820708 72.995345 
L 104.892146 73.104441 
L 105.106461 73.383152 
L 105.320776 72.674318 
L 105.606529 73.030587 
L 105.677968 72.74102 
L 105.749406 72.902028 
L 106.106597 73.008725 
L 106.249474 72.41679 
L 106.320912 72.473163 
L 106.463789 72.42851 
L 106.535227 72.545357 
L 106.749542 71.99403 
L 106.892418 72.171249 
L 106.963857 72.328711 
L 107.106733 72.032513 
L 107.178172 72.086817 
L 107.24961 72.115511 
L 107.463925 72.353832 
L 107.535363 72.450487 
L 107.606801 72.363283 
L 108.249746 73.134478 
L 108.321184 72.83285 
L 108.392623 72.857727 
L 108.464061 73.013832 
L 108.606937 72.725999 
L 108.678376 72.800008 
L 108.749814 72.61845 
L 108.821252 72.712645 
L 109.107005 73.075079 
L 109.32132 72.714118 
L 110.035703 73.138804 
L 110.107141 73.247038 
L 110.17858 72.951254 
L 110.250018 73.10144 
L 110.392895 73.370544 
L 110.464333 73.249949 
L 110.964401 73.852222 
L 111.178716 73.558329 
L 111.250154 73.705191 
L 111.321592 73.568651 
L 111.393031 73.711938 
L 111.464469 73.663157 
L 111.750222 74.018516 
L 111.82166 74.162274 
L 111.893099 74.081115 
L 112.035975 74.011615 
L 112.107413 74.146891 
L 112.178852 74.048702 
L 112.25029 74.057738 
L 112.321728 73.941384 
L 112.393167 73.987482 
L 112.464605 74.129537 
L 112.607481 73.883524 
L 112.67892 73.85251 
L 112.893235 73.465926 
L 112.964673 73.608899 
L 113.036111 73.560041 
L 113.250426 73.407146 
L 113.464741 73.598679 
L 113.750494 73.157453 
L 113.821932 73.276347 
L 113.893371 73.200061 
L 113.964809 73.27639 
L 114.036247 73.091974 
L 114.179124 73.21659 
L 114.250562 72.949829 
L 114.322 73.07146 
L 114.393439 73.168988 
L 114.536315 73.013901 
L 114.679192 73.267042 
L 114.75063 73.162105 
L 114.893507 72.889583 
L 114.964945 73.01779 
L 115.250698 72.647323 
L 115.322136 72.683578 
L 115.465013 72.48537 
L 115.536451 72.561153 
L 115.822204 72.866589 
L 115.965081 73.026386 
L 116.107958 72.845297 
L 116.250834 73.004687 
L 116.322272 72.866341 
L 116.393711 72.908422 
L 116.465149 73.015554 
L 116.536587 72.814467 
L 116.608026 72.939761 
L 116.965217 73.460274 
L 117.322408 73.450821 
L 117.536723 73.142718 
L 117.608162 73.235173 
L 117.6796 73.037412 
L 117.751038 73.124961 
L 117.893915 73.286677 
L 118.036791 72.927586 
L 118.251106 73.243304 
L 118.322545 73.155005 
L 118.393983 72.96219 
L 118.465421 73.054686 
L 118.608298 72.990116 
L 118.679736 72.817044 
L 118.751174 72.84905 
L 118.894051 72.799734 
L 119.036927 72.417181 
L 119.322681 72.663045 
L 119.536995 72.38059 
L 119.608434 72.50355 
L 119.679872 72.337202 
L 119.75131 72.435256 
L 119.822749 72.494598 
L 119.894187 72.364466 
L 119.965625 72.491371 
L 120.251378 72.098362 
L 120.394255 72.273877 
L 120.465693 72.085378 
L 120.537131 72.186011 
L 120.751446 72.27371 
L 120.965761 71.953723 
L 121.322953 72.301408 
L 121.394391 72.23786 
L 121.537267 72.406941 
L 121.680144 72.230206 
L 121.751582 72.350561 
L 121.965897 71.861287 
L 122.037335 71.89437 
L 122.25165 72.202965 
L 122.323089 72.009203 
L 122.394527 72.103833 
L 122.823157 72.532285 
L 122.894595 72.628881 
L 122.966033 72.437167 
L 123.037471 72.549998 
L 123.323225 72.70233 
L 123.53754 72.919984 
L 123.751854 72.698983 
L 123.966169 72.886148 
L 124.109046 72.992828 
L 124.180484 73.059559 
L 124.323361 72.822691 
L 124.394799 72.940404 
L 124.466237 72.760884 
L 124.537676 72.874968 
L 124.680552 72.90658 
L 124.894867 72.584915 
L 124.966305 72.575219 
L 125.037744 72.689453 
L 125.109182 72.635281 
L 125.18062 72.607157 
L 125.466373 72.937235 
L 125.537812 72.761656 
L 125.60925 72.877797 
L 125.680688 72.993756 
L 125.752126 72.875026 
L 125.823565 72.923753 
L 125.966441 73.040274 
L 126.03788 72.890876 
L 126.109318 72.991391 
L 126.252194 72.969649 
L 126.323633 72.859217 
L 126.395071 72.936893 
L 126.680824 73.225352 
L 126.752262 73.110217 
L 127.180892 72.741716 
L 128.038152 73.066158 
L 128.10959 72.858713 
L 128.181028 72.890314 
L 128.609658 73.221594 
L 128.752535 73.107024 
L 128.823973 73.193236 
L 128.895411 73.055473 
L 129.109726 73.273176 
L 129.252603 73.292959 
L 129.324041 73.265031 
L 129.609794 73.485518 
L 129.681232 73.546338 
L 129.824109 73.434201 
L 129.895547 73.445479 
L 129.966985 73.239298 
L 130.038424 73.347934 
L 130.1813 73.502889 
L 130.395615 73.04986 
L 130.681368 73.400167 
L 130.752807 73.19782 
L 130.824245 73.290926 
L 131.03856 73.534813 
L 131.252875 73.174699 
L 131.538628 73.415408 
L 131.610066 73.310088 
L 131.752943 73.421422 
L 131.967257 73.151261 
L 132.610202 73.72898 
L 132.68164 73.624041 
L 132.824517 73.68831 
L 133.038832 73.795027 
L 133.253147 73.384853 
L 133.324585 73.444761 
L 133.467461 73.311133 
L 133.753215 73.47481 
L 133.824653 73.519396 
L 134.038968 73.215209 
L 134.324721 73.5762 
L 134.967666 73.172224 
L 135.110542 73.18895 
L 135.253419 73.230631 
L 135.539172 73.397273 
L 135.61061 73.322596 
L 135.896363 73.557866 
L 136.610746 74.086082 
L 136.825061 73.940861 
L 136.896499 74.04059 
L 136.967938 73.966935 
L 137.253691 73.781901 
L 137.396567 73.889211 
L 137.468006 73.839166 
L 137.753759 74.064447 
L 137.896635 74.098866 
L 138.11095 74.364713 
L 138.396703 74.0624 
L 138.53958 74.108066 
L 138.611018 74.150527 
L 138.682456 73.998724 
L 138.753895 74.096144 
L 139.039648 74.25055 
L 139.325401 74.32128 
L 139.539716 73.951541 
L 139.754031 74.119777 
L 139.825469 73.969885 
L 139.896907 74.065186 
L 140.182661 74.196664 
L 140.254099 74.250227 
L 140.468414 73.955488 
L 140.61129 73.925674 
L 140.825605 74.084275 
L 140.968482 74.122214 
L 141.111358 74.188397 
L 141.539988 73.698871 
L 141.897179 73.959545 
L 141.968618 73.813766 
L 142.040056 73.666155 
L 142.111494 73.738846 
L 142.397247 73.890618 
L 142.611562 73.575684 
L 142.897315 73.798968 
L 143.040192 73.87104 
L 143.397383 74.012975 
L 143.611698 74.051271 
L 143.897451 74.373828 
L 144.111766 74.16503 
L 144.254643 74.296406 
L 144.468958 74.060496 
L 144.897588 74.367819 
L 144.969026 74.279135 
L 145.040464 74.361724 
L 145.111902 74.292268 
L 145.254779 74.458145 
L 145.326217 74.389104 
L 145.397656 74.217543 
L 145.469094 74.306547 
L 145.540532 74.163887 
L 145.61197 74.241126 
L 145.826285 73.992452 
L 145.897724 74.052871 
L 146.89786 74.098177 
L 146.969298 74.03023 
L 147.040736 74.106639 
L 147.469366 74.442698 
L 147.612242 74.301682 
L 147.755119 74.303472 
L 147.826557 74.189166 
L 147.897996 74.269261 
L 148.183749 74.484592 
L 148.326625 74.462361 
L 148.683817 74.688727 
L 148.826693 74.619751 
L 148.898132 74.481999 
L 148.96957 74.561249 
L 149.112446 74.405528 
L 149.183885 74.24319 
L 149.255323 74.316938 
L 149.3982 74.320349 
L 149.612515 74.087167 
L 149.755391 74.060394 
L 149.826829 73.924433 
L 149.898268 74.003053 
L 150.112583 74.053797 
L 150.184021 74.102431 
L 150.255459 73.943402 
L 150.326897 73.979503 
L 150.398336 73.974054 
L 150.684089 73.663536 
L 151.04128 73.74147 
L 151.255595 73.849795 
L 151.398472 73.825911 
L 151.46991 73.903798 
L 151.684225 73.640076 
L 151.969978 73.819635 
L 152.755799 74.391256 
L 153.255867 74.697295 
L 153.613059 74.536755 
L 153.827373 74.622298 
L 153.898812 74.490854 
L 153.97025 74.537631 
L 154.041688 74.61252 
L 154.113127 74.531643 
L 154.756071 74.719495 
L 155.541892 75.230769 
L 155.756207 75.132953 
L 155.970522 75.192896 
L 156.184837 74.875429 
L 156.542028 75.122838 
L 156.613467 75.022468 
L 156.684905 75.094934 
L 156.827782 75.06937 
L 157.113535 75.130237 
L 157.256411 75.087973 
L 157.470726 75.217086 
L 157.542164 75.095565 
L 157.613603 75.170889 
L 157.685041 75.233054 
L 157.970794 74.932414 
L 158.256547 75.093489 
L 158.399424 75.051673 
L 158.756615 74.904326 
L 158.97093 74.685897 
L 159.685313 74.762597 
L 160.614011 74.72581 
L 160.756887 74.6745 
L 161.114079 74.904445 
L 161.47127 74.939606 
L 161.757023 74.611125 
L 162.114215 74.840945 
L 162.257091 74.773876 
L 162.757159 74.803821 
L 162.971474 74.957379 
L 163.042913 74.811778 
L 163.114351 74.854965 
L 163.185789 74.898145 
L 163.400104 74.748152 
L 164.043049 75.136662 
L 164.328802 74.969438 
L 164.543117 75.043529 
L 164.900308 75.055444 
L 165.186061 74.809056 
L 166.043321 74.874207 
L 166.329074 74.680532 
L 166.686265 74.936804 
L 166.757704 74.802761 
L 166.829142 74.857796 
L 166.972018 74.873214 
L 167.829278 75.32321 
L 168.043593 75.064331 
L 168.115031 75.13467 
L 168.257908 74.97217 
L 168.615099 74.968218 
L 168.757976 74.887342 
L 168.900852 74.970676 
L 169.115167 74.846507 
L 169.258044 74.976872 
L 169.40092 74.888341 
L 170.043865 74.935121 
L 170.329618 75.090745 
L 170.472494 74.958513 
L 170.615371 75.080494 
L 170.758248 74.962622 
L 171.329754 75.231741 
L 171.686945 75.252434 
L 171.829822 75.383376 
L 171.972699 75.272936 
L 172.044137 75.341628 
L 172.187013 75.280323 
L 172.687081 75.540676 
L 172.972835 75.327592 
L 173.187149 75.366019 
L 173.544341 75.196815 
L 173.830094 75.334658 
L 173.972971 75.334111 
L 174.115847 75.419795 
L 174.330162 75.217623 
L 174.544477 75.348886 
L 174.758792 75.107719 
L 175.115983 75.096084 
L 175.25886 74.92064 
L 175.473175 74.972552 
L 175.687489 74.816966 
L 175.830366 74.732277 
L 175.901804 74.777992 
L 175.973243 74.649962 
L 176.044681 74.711418 
L 176.544749 74.723735 
L 176.830502 74.421239 
L 177.116255 74.309743 
L 177.473447 74.480254 
L 177.687762 74.425465 
L 177.902076 74.443213 
L 178.044953 74.41298 
L 178.116391 74.476219 
L 178.18783 74.373697 
L 178.259268 74.436899 
L 178.402144 74.496453 
L 178.687898 74.251852 
L 179.259404 74.631941 
L 179.473719 74.534618 
L 179.688034 74.472759 
L 179.973787 74.558767 
L 180.116663 74.584798 
L 180.25954 74.628564 
L 180.330978 74.50647 
L 180.402416 74.550144 
L 180.831046 74.659686 
L 181.116799 74.815177 
L 181.188238 74.69435 
L 181.259676 74.755866 
L 181.402553 74.709688 
L 181.831182 74.920844 
L 182.116935 75.060927 
L 182.402689 74.906502 
L 182.75988 75.14946 
L 183.117071 74.853589 
L 183.617139 75.091647 
L 183.760016 75.002878 
L 184.045769 75.063714 
L 184.188646 74.971689 
L 184.474399 75.132516 
L 184.760152 75.125697 
L 185.26022 75.4218 
L 185.617411 75.286431 
L 185.831726 75.370012 
L 186.117479 75.349696 
L 186.188918 75.401589 
L 186.403233 75.242875 
L 186.546109 75.318884 
L 186.760424 75.285226 
L 186.974739 75.423675 
L 187.474807 75.685504 
L 187.617684 75.566793 
L 187.76056 75.33516 
L 187.831998 75.381371 
L 188.046313 75.406792 
L 188.18919 75.283196 
L 188.474943 75.353975 
L 188.760696 75.263431 
L 189.117888 75.424916 
L 189.83227 75.325659 
L 190.046585 75.424731 
L 190.189462 75.350442 
L 190.618092 75.204352 
L 190.760968 75.233572 
L 190.903845 75.196251 
L 191.475351 75.064148 
L 191.761104 74.91523 
L 191.903981 75.031956 
L 192.118296 74.77828 
L 192.404049 74.82492 
L 192.618364 74.67959 
L 192.832679 74.795611 
L 193.046993 74.668689 
L 193.404185 74.620938 
L 193.547061 74.649006 
L 193.904253 74.359548 
L 194.190006 74.570724 
L 194.475759 74.387227 
L 194.904389 74.536187 
L 195.047265 74.473453 
L 195.26158 74.302362 
L 195.475895 74.210772 
L 195.547333 74.102426 
L 195.618772 74.151477 
L 195.833087 74.293967 
L 195.975963 74.277243 
L 196.333155 74.324501 
L 196.476031 74.352697 
L 196.547469 74.391205 
L 196.690346 74.356693 
L 196.904661 74.408749 
L 197.118976 74.246104 
L 197.261852 74.180176 
L 197.333291 74.212434 
L 197.547606 74.071828 
L 197.904797 74.114847 
L 198.119112 73.925481 
L 198.404865 73.980324 
L 198.61918 74.099755 
L 198.833495 73.907511 
L 198.976371 73.936198 
L 199.190686 73.97074 
L 199.619316 73.773036 
L 200.190822 74.035369 
L 200.405137 73.921341 
L 200.69089 74.010854 
L 200.833767 73.956681 
L 201.048082 73.956887 
L 201.190958 73.921685 
L 201.976779 74.147773 
L 202.119656 74.065587 
L 202.405409 74.101009 
L 202.619724 74.132727 
L 203.262669 74.21088 
L 203.405545 74.138485 
L 203.691298 74.075578 
L 203.834175 74.134324 
L 203.977051 74.036532 
L 204.191366 74.186468 
L 204.334243 74.100163 
L 204.548558 74.112814 
L 204.691434 74.044367 
L 205.262941 73.946855 
L 205.620132 73.95969 
L 205.763009 73.943746 
L 205.905885 73.968564 
L 206.1202 73.869014 
L 206.405953 73.902358 
L 206.54883 73.864532 
L 206.763145 73.939839 
L 207.048898 73.806814 
L 207.477528 73.896854 
L 207.691842 73.756778 
L 208.120472 73.756029 
L 208.477664 73.553671 
L 208.834855 73.635183 
L 209.4778 73.553128 
L 209.763553 73.650154 
L 210.049306 73.565274 
L 210.120744 73.613141 
L 210.406497 73.411476 
L 210.549374 73.425467 
L 210.69225 73.391683 
L 210.906565 73.383148 
L 211.192318 73.357818 
L 212.049578 73.260291 
L 212.478208 73.430113 
L 212.621084 73.413723 
L 212.835399 73.352037 
L 213.478344 73.378747 
L 215.192863 73.246767 
L 215.478616 73.095901 
L 215.621492 73.174971 
L 215.835807 73.095573 
L 216.478752 73.234696 
L 216.621628 73.162363 
L 217.050258 73.302141 
L 217.264573 73.188201 
L 217.478888 73.257648 
L 217.693203 73.138856 
L 218.121832 72.96368 
L 218.407586 73.022714 
L 218.550462 72.963235 
L 218.836215 73.084896 
L 218.979092 73.074268 
L 219.193407 73.118788 
L 219.550598 72.904054 
L 219.764913 72.963467 
L 219.979228 72.853397 
L 220.264981 72.797213 
L 220.479296 72.819428 
L 221.12224 72.680476 
L 221.336555 72.786663 
L 221.622308 72.659772 
L 221.908062 72.621049 
L 222.050938 72.587131 
L 222.265253 72.660403 
L 222.551006 72.500664 
L 222.979636 72.426389 
L 223.265389 72.457722 
L 223.479704 72.462346 
L 223.622581 72.350505 
L 223.836895 72.330958 
L 223.979772 72.327391 
L 224.265525 72.39074 
L 224.837031 72.299608 
L 225.479976 72.624988 
L 225.622853 72.587568 
L 226.122921 72.502719 
L 226.408674 72.551189 
L 226.55155 72.498826 
L 226.765865 72.622515 
L 226.98018 72.523283 
L 227.337371 72.659735 
L 227.480248 72.576783 
L 227.694563 72.602673 
L 227.908878 72.504388 
L 228.051754 72.497903 
L 228.194631 72.477712 
L 228.480384 72.528701 
L 228.766137 72.472694 
L 228.909014 72.395789 
L 229.194767 72.435774 
L 229.409082 72.469483 
L 229.623397 72.50733 
L 229.837712 72.45143 
L 229.980588 72.456925 
L 230.266341 72.468365 
L 230.623533 72.626859 
L 230.837848 72.534989 
L 231.052162 72.644832 
L 231.195039 72.58363 
L 231.337916 72.596991 
L 231.55223 72.53036 
L 232.40949 72.57171 
L 233.052434 72.764802 
L 233.195311 72.742159 
L 233.481064 72.781073 
L 233.838256 72.742395 
L 234.266885 72.92018 
L 235.981404 72.463397 
L 236.195719 72.468887 
L 237.267293 72.340557 
L 237.695923 72.560386 
L 237.8388 72.538496 
L 238.624621 72.314446 
L 238.838936 72.30981 
L 239.267566 72.379306 
L 239.48188 72.38928 
L 239.839072 72.47906 
L 240.410578 72.708335 
L 240.696331 72.749086 
L 241.196399 72.744526 
L 241.410714 72.708715 
L 241.767906 72.819002 
L 241.910782 72.766033 
L 242.625165 72.869024 
L 242.768042 72.869445 
L 243.125233 72.967551 
L 243.410986 72.845927 
L 243.625301 72.852724 
L 245.482697 72.20208 
L 246.054203 72.380062 
L 246.197079 72.337015 
L 246.411394 72.38779 
L 246.554271 72.355295 
L 246.840024 72.436985 
L 247.482969 72.408267 
L 247.768722 72.450832 
L 247.911598 72.411165 
L 248.197351 72.456834 
L 248.483105 72.42018 
L 248.911734 72.499586 
L 249.91187 72.717998 
L 250.054747 72.706584 
L 250.697692 72.742449 
L 251.19776 72.620575 
L 251.626389 72.673572 
L 251.840704 72.546212 
L 252.555087 72.633698 
L 253.126593 72.565295 
L 253.6981 72.617625 
L 253.912414 72.536978 
L 254.483921 72.737055 
L 255.055427 72.583596 
L 255.841248 72.622318 
L 255.984125 72.549892 
L 256.341316 72.697323 
L 256.769946 72.451358 
L 257.198576 72.524302 
L 257.341452 72.486078 
L 257.627205 72.469822 
L 258.913095 72.348962 
L 259.270286 72.436833 
L 260.413299 72.429719 
L 260.556175 72.429401 
L 261.341996 72.607812 
L 261.770626 72.680984 
L 262.127818 72.760615 
L 263.27083 73.021818 
L 263.556583 72.868589 
L 264.199528 72.934485 
L 264.485281 72.901521 
L 264.771034 72.929381 
L 265.485417 72.829215 
L 265.985485 72.807553 
L 266.271238 72.729732 
L 266.62843 72.786644 
L 267.700004 72.794137 
L 267.985757 72.633747 
L 270.628974 72.204279 
L 270.986165 72.045051 
L 271.986301 72.214784 
L 272.200616 72.192737 
L 272.914999 72.250562 
L 273.915135 72.131072 
L 274.415203 71.999231 
L 275.201024 72.000332 
L 275.343901 71.976929 
L 275.772531 71.944744 
L 276.058284 72.010948 
L 276.415475 72.067842 
L 276.772667 71.991798 
L 277.129858 72.042682 
L 277.344173 71.97806 
L 277.844241 72.107112 
L 278.058556 72.122654 
L 278.487185 72.188986 
L 279.13013 72.32989 
L 279.487321 72.298644 
L 279.630198 72.295613 
L 280.201704 72.470761 
L 280.416019 72.508231 
L 280.773211 72.566133 
L 280.916087 72.505237 
L 281.130402 72.489597 
L 281.701908 72.583292 
L 281.844785 72.575352 
L 282.0591 72.627181 
L 282.201976 72.60392 
L 282.559168 72.633538 
L 282.844921 72.614794 
L 284.202248 72.64798 
L 284.416563 72.659708 
L 284.55944 72.635099 
L 284.845193 72.671629 
L 284.98807 72.66095 
L 285.130946 72.660888 
L 285.345261 72.544895 
L 285.559576 72.574676 
L 285.845329 72.477449 
L 286.059644 72.506532 
L 286.345397 72.569379 
L 286.63115 72.528721 
L 286.916903 72.494969 
L 288.774299 72.337686 
L 288.917175 72.318076 
L 289.917311 72.260476 
L 290.274503 72.299499 
L 290.560256 72.326563 
L 291.203201 72.30784 
L 291.488954 72.319689 
L 291.774707 72.308501 
L 292.203337 72.354993 
L 292.417652 72.351476 
L 292.631966 72.330566 
L 292.846281 72.31934 
L 293.060596 72.307907 
L 293.203473 72.27029 
L 293.846417 72.3865 
L 294.775115 72.532611 
L 295.060868 72.518472 
L 295.346621 72.466882 
L 295.489498 72.444795 
L 295.703813 72.453699 
L 296.061004 72.36058 
L 296.632511 72.38877 
L 297.346893 72.410184 
L 297.561208 72.397083 
L 297.775523 72.418368 
L 298.061276 72.466226 
L 298.989974 72.536686 
L 299.204289 72.443176 
L 299.490042 72.432879 
L 299.847233 72.402489 
L 300.275863 72.446701 
L 300.561616 72.31877 
L 300.704493 72.29486 
L 300.918808 72.282449 
L 301.275999 72.261299 
L 301.990382 72.244959 
L 302.133259 72.244021 
L 302.347574 72.265974 
L 302.704765 72.204984 
L 302.847642 72.202587 
L 303.061956 72.149784 
L 303.490586 72.239731 
L 303.633463 72.221614 
L 304.204969 72.356647 
L 304.419284 72.306729 
L 304.705037 72.336687 
L 307.634007 72.366793 
L 308.134075 72.463479 
L 308.848458 72.464442 
L 309.134211 72.32779 
L 309.705717 72.44215 
L 309.99147 72.420089 
L 310.491538 72.500997 
L 310.634415 72.491801 
L 310.991606 72.540578 
L 311.277359 72.474706 
L 311.491674 72.487982 
L 311.920304 72.487953 
L 312.634687 72.613812 
L 313.063317 72.59044 
L 314.134891 72.739971 
L 314.492082 72.731339 
L 314.99215 72.762893 
L 315.206465 72.729722 
L 315.349342 72.712681 
L 315.563657 72.744872 
L 315.777972 72.739651 
L 317.278176 72.854689 
L 317.421052 72.826755 
L 318.421188 72.768257 
L 318.992695 72.725532 
L 319.278448 72.721219 
L 319.635639 72.576311 
L 320.064269 72.621331 
L 320.207145 72.595094 
L 320.564337 72.585036 
L 320.85009 72.638348 
L 321.564473 72.703188 
L 322.135979 72.720132 
L 322.850362 72.845534 
L 323.136115 72.799553 
L 323.636183 72.906108 
L 323.850498 72.91712 
L 324.493443 72.934032 
L 324.779196 72.973805 
L 324.993511 72.986023 
L 325.279264 73.010073 
L 325.779332 73.103197 
L 326.065085 73.085891 
L 326.350838 73.102344 
L 326.493715 73.075659 
L 326.636591 73.076163 
L 326.779468 73.061901 
L 326.922344 73.061923 
L 327.136659 72.99572 
L 328.065357 73.002693 
L 328.35111 73.049755 
L 328.77974 72.922411 
L 330.137067 72.874199 
L 331.637271 73.042377 
L 331.780148 73.026817 
L 332.351654 73.141172 
L 332.923161 73.144439 
L 333.637544 73.049295 
L 334.20905 73.152513 
L 334.566241 73.25027 
L 335.209186 73.369581 
L 335.494939 73.292859 
L 335.85213 73.25574 
L 336.066445 73.231004 
L 336.495075 73.31672 
L 336.780828 73.309948 
L 337.280896 73.272177 
L 337.923841 73.408688 
L 338.209594 73.417257 
L 338.709662 73.440453 
L 339.924113 73.414056 
L 340.138428 73.423717 
L 340.852811 73.447379 
L 341.138564 73.478125 
L 341.424317 73.456864 
L 341.638632 73.485385 
L 341.924385 73.479294 
L 342.638768 73.324831 
L 342.853083 73.280746 
L 343.210274 73.313573 
L 343.638904 73.185234 
L 344.138972 73.213878 
L 344.567602 73.116399 
L 345.567738 73.020994 
L 346.210682 72.906906 
L 346.424997 72.845994 
L 347.13938 73.027504 
L 347.353695 72.979025 
L 348.425269 73.159142 
L 348.711022 73.118768 
L 349.925473 73.450647 
L 350.711294 73.32695 
L 351.354239 73.349435 
L 351.71143 73.378747 
L 352.14006 73.342195 
L 352.640128 73.335119 
L 353.068758 73.380437 
L 353.783141 73.39311 
L 353.997455 73.332604 
L 354.426085 73.353876 
L 354.6404 73.359659 
L 355.06903 73.399932 
L 355.640536 73.424646 
L 355.854851 73.394116 
L 356.069166 73.385168 
L 356.354919 73.346403 
L 357.355055 73.413942 
L 357.783685 73.495918 
L 357.926561 73.468594 
L 358.283753 73.477267 
L 358.498068 73.446069 
L 358.712382 73.471325 
L 359.426765 73.634034 
L 359.64108 73.640561 
L 360.06971 73.721026 
L 360.355463 73.661727 
L 361.498476 73.749221 
L 361.998544 73.694023 
L 362.641488 73.588802 
L 363.070118 73.63797 
L 363.284433 73.646292 
L 363.713063 73.665191 
L 363.998816 73.666841 
L 364.427445 73.520377 
L 364.713199 73.500262 
L 364.998952 73.437662 
L 365.356143 73.426337 
L 365.784773 73.391224 
L 365.92765 73.365635 
L 366.213403 73.319519 
L 367.213539 73.298324 
L 367.927922 73.386166 
L 368.285113 73.289206 
L 369.499564 73.26693 
L 369.856755 73.276493 
L 370.428262 73.171208 
L 370.999768 73.289922 
L 371.356959 73.185445 
L 371.571274 73.136499 
L 371.857027 73.081613 
L 372.214219 73.091309 
L 373.42867 73.158298 
L 373.714423 73.192297 
L 374.000176 73.138281 
L 374.428806 73.13828 
L 374.785997 73.156676 
L 375.000312 73.149955 
L 375.428942 73.184826 
L 375.714695 73.127113 
L 377.643529 72.972504 
L 378.215035 72.840614 
L 379.786677 72.654296 
L 380.07243 72.659762 
L 380.786813 72.575831 
L 381.215443 72.642613 
L 381.429758 72.625824 
L 381.715511 72.612328 
L 382.072703 72.618917 
L 382.429894 72.530147 
L 383.072839 72.505543 
L 383.644345 72.416189 
L 384.644481 72.502247 
L 385.287425 72.621066 
L 385.573179 72.574247 
L 386.430438 72.533238 
L 386.78763 72.495378 
L 387.144821 72.35456 
L 387.716327 72.423386 
L 388.073519 72.310357 
L 388.43071 72.33826 
L 388.645025 72.292717 
L 389.002216 72.311395 
L 389.430846 72.292925 
L 390.002352 72.315183 
L 390.359544 72.210149 
L 392.359816 72.337823 
L 392.645569 72.280839 
L 396.574675 72.061649 
L 396.931866 72.073643 
L 397.21762 72.009984 
L 398.003441 72.067726 
L 398.360632 71.952887 
L 399.075015 72.050012 
L 400.003713 71.998084 
L 400.218028 71.970172 
L 400.718096 72.007323 
L 403.647065 71.874599 
L 404.361448 71.923063 
L 404.790078 71.894022 
L 405.075831 71.83645 
L 406.433159 71.833147 
L 406.718912 71.815328 
L 409.147814 71.824144 
L 409.362128 71.822658 
L 409.933635 71.900447 
L 410.14795 71.890628 
L 410.576579 71.916031 
L 410.790894 71.903438 
L 411.719592 71.883186 
L 413.005481 71.87902 
L 413.648426 71.943916 
L 413.934179 71.910512 
L 414.362809 71.945161 
L 414.72 71.848443 
L 414.72 71.848443 
" style="fill:none;stroke:#ff7f0e;stroke-linecap:square;stroke-width:1.5;"/>
   </g>
   <g id="patch_3">
    <path d="M 57.6 307.584 
L 57.6 41.472 
" style="fill:none;stroke:#000000;stroke-linecap:square;stroke-linejoin:miter;stroke-width:0.8;"/>
   </g>
   <g id="patch_4">
    <path d="M 414.72 307.584 
L 414.72 41.472 
" style="fill:none;stroke:#000000;stroke-linecap:square;stroke-linejoin:miter;stroke-width:0.8;"/>
   </g>
   <g id="patch_5">
    <path d="M 57.6 307.584 
L 414.72 307.584 
" style="fill:none;stroke:#000000;stroke-linecap:square;stroke-linejoin:miter;stroke-width:0.8;"/>
   </g>
   <g id="patch_6">
    <path d="M 57.6 41.472 
L 414.72 41.472 
" style="fill:none;stroke:#000000;stroke-linecap:square;stroke-linejoin:miter;stroke-width:0.8;"/>
   </g>
   <g id="text_16">
    <!-- Grafico valores desvio estandar esperados vs obtenidos -->
    <defs>
     <path d="M 59.515625 10.40625 
L 59.515625 29.984375 
L 43.40625 29.984375 
L 43.40625 38.09375 
L 69.28125 38.09375 
L 69.28125 6.78125 
Q 63.578125 2.734375 56.6875 0.65625 
Q 49.8125 -1.421875 42 -1.421875 
Q 24.90625 -1.421875 15.25 8.5625 
Q 5.609375 18.5625 5.609375 36.375 
Q 5.609375 54.25 15.25 64.234375 
Q 24.90625 74.21875 42 74.21875 
Q 49.125 74.21875 55.546875 72.453125 
Q 61.96875 70.703125 67.390625 67.28125 
L 67.390625 56.78125 
Q 61.921875 61.421875 55.765625 63.765625 
Q 49.609375 66.109375 42.828125 66.109375 
Q 29.4375 66.109375 22.71875 58.640625 
Q 16.015625 51.171875 16.015625 36.375 
Q 16.015625 21.625 22.71875 14.15625 
Q 29.4375 6.6875 42.828125 6.6875 
Q 48.046875 6.6875 52.140625 7.59375 
Q 56.25 8.5 59.515625 10.40625 
z
" id="DejaVuSans-47"/>
     <path d="M 37.109375 75.984375 
L 37.109375 68.5 
L 28.515625 68.5 
Q 23.6875 68.5 21.796875 66.546875 
Q 19.921875 64.59375 19.921875 59.515625 
L 19.921875 54.6875 
L 34.71875 54.6875 
L 34.71875 47.703125 
L 19.921875 47.703125 
L 19.921875 0 
L 10.890625 0 
L 10.890625 47.703125 
L 2.296875 47.703125 
L 2.296875 54.6875 
L 10.890625 54.6875 
L 10.890625 58.5 
Q 10.890625 67.625 15.140625 71.796875 
Q 19.390625 75.984375 28.609375 75.984375 
z
" id="DejaVuSans-66"/>
     <path d="M 48.78125 52.59375 
L 48.78125 44.1875 
Q 44.96875 46.296875 41.140625 47.34375 
Q 37.3125 48.390625 33.40625 48.390625 
Q 24.65625 48.390625 19.8125 42.84375 
Q 14.984375 37.3125 14.984375 27.296875 
Q 14.984375 17.28125 19.8125 11.734375 
Q 24.65625 6.203125 33.40625 6.203125 
Q 37.3125 6.203125 41.140625 7.25 
Q 44.96875 8.296875 48.78125 10.40625 
L 48.78125 2.09375 
Q 45.015625 0.34375 40.984375 -0.53125 
Q 36.96875 -1.421875 32.421875 -1.421875 
Q 20.0625 -1.421875 12.78125 6.34375 
Q 5.515625 14.109375 5.515625 27.296875 
Q 5.515625 40.671875 12.859375 48.328125 
Q 20.21875 56 33.015625 56 
Q 37.15625 56 41.109375 55.140625 
Q 45.0625 54.296875 48.78125 52.59375 
z
" id="DejaVuSans-63"/>
     <path id="DejaVuSans-20"/>
     <path d="M 2.984375 54.6875 
L 12.5 54.6875 
L 29.59375 8.796875 
L 46.6875 54.6875 
L 56.203125 54.6875 
L 35.6875 0 
L 23.484375 0 
z
" id="DejaVuSans-76"/>
     <path d="M 18.3125 70.21875 
L 18.3125 54.6875 
L 36.8125 54.6875 
L 36.8125 47.703125 
L 18.3125 47.703125 
L 18.3125 18.015625 
Q 18.3125 11.328125 20.140625 9.421875 
Q 21.96875 7.515625 27.59375 7.515625 
L 36.8125 7.515625 
L 36.8125 0 
L 27.59375 0 
Q 17.1875 0 13.234375 3.875 
Q 9.28125 7.765625 9.28125 18.015625 
L 9.28125 47.703125 
L 2.6875 47.703125 
L 2.6875 54.6875 
L 9.28125 54.6875 
L 9.28125 70.21875 
z
" id="DejaVuSans-74"/>
     <path d="M 54.890625 33.015625 
L 54.890625 0 
L 45.90625 0 
L 45.90625 32.71875 
Q 45.90625 40.484375 42.875 44.328125 
Q 39.84375 48.1875 33.796875 48.1875 
Q 26.515625 48.1875 22.3125 43.546875 
Q 18.109375 38.921875 18.109375 30.90625 
L 18.109375 0 
L 9.078125 0 
L 9.078125 54.6875 
L 18.109375 54.6875 
L 18.109375 46.1875 
Q 21.34375 51.125 25.703125 53.5625 
Q 30.078125 56 35.796875 56 
Q 45.21875 56 50.046875 50.171875 
Q 54.890625 44.34375 54.890625 33.015625 
z
" id="DejaVuSans-6e"/>
     <path d="M 18.109375 8.203125 
L 18.109375 -20.796875 
L 9.078125 -20.796875 
L 9.078125 54.6875 
L 18.109375 54.6875 
L 18.109375 46.390625 
Q 20.953125 51.265625 25.265625 53.625 
Q 29.59375 56 35.59375 56 
Q 45.5625 56 51.78125 48.09375 
Q 58.015625 40.1875 58.015625 27.296875 
Q 58.015625 14.40625 51.78125 6.484375 
Q 45.5625 -1.421875 35.59375 -1.421875 
Q 29.59375 -1.421875 25.265625 0.953125 
Q 20.953125 3.328125 18.109375 8.203125 
z
M 48.6875 27.296875 
Q 48.6875 37.203125 44.609375 42.84375 
Q 40.53125 48.484375 33.40625 48.484375 
Q 26.265625 48.484375 22.1875 42.84375 
Q 18.109375 37.203125 18.109375 27.296875 
Q 18.109375 17.390625 22.1875 11.75 
Q 26.265625 6.109375 33.40625 6.109375 
Q 40.53125 6.109375 44.609375 11.75 
Q 48.6875 17.390625 48.6875 27.296875 
z
" id="DejaVuSans-70"/>
     <path d="M 48.6875 27.296875 
Q 48.6875 37.203125 44.609375 42.84375 
Q 40.53125 48.484375 33.40625 48.484375 
Q 26.265625 48.484375 22.1875 42.84375 
Q 18.109375 37.203125 18.109375 27.296875 
Q 18.109375 17.390625 22.1875 11.75 
Q 26.265625 6.109375 33.40625 6.109375 
Q 40.53125 6.109375 44.609375 11.75 
Q 48.6875 17.390625 48.6875 27.296875 
z
M 18.109375 46.390625 
Q 20.953125 51.265625 25.265625 53.625 
Q 29.59375 56 35.59375 56 
Q 45.5625 56 51.78125 48.09375 
Q 58.015625 40.1875 58.015625 27.296875 
Q 58.015625 14.40625 51.78125 6.484375 
Q 45.5625 -1.421875 35.59375 -1.421875 
Q 29.59375 -1.421875 25.265625 0.953125 
Q 20.953125 3.328125 18.109375 8.203125 
L 18.109375 0 
L 9.078125 0 
L 9.078125 75.984375 
L 18.109375 75.984375 
z
" id="DejaVuSans-62"/>
    </defs>
    <g transform="translate(67.866563 35.472)scale(0.12 -0.12)">
     <use xlink:href="#DejaVuSans-47"/>
     <use x="77.490234" xlink:href="#DejaVuSans-72"/>
     <use x="118.603516" xlink:href="#DejaVuSans-61"/>
     <use x="179.882812" xlink:href="#DejaVuSans-66"/>
     <use x="215.087891" xlink:href="#DejaVuSans-69"/>
     <use x="242.871094" xlink:href="#DejaVuSans-63"/>
     <use x="297.851562" xlink:href="#DejaVuSans-6f"/>
     <use x="359.033203" xlink:href="#DejaVuSans-20"/>
     <use x="390.820312" xlink:href="#DejaVuSans-76"/>
     <use x="450" xlink:href="#DejaVuSans-61"/>
     <use x="511.279297" xlink:href="#DejaVuSans-6c"/>
     <use x="539.0625" xlink:href="#DejaVuSans-6f"/>
     <use x="600.244141" xlink:href="#DejaVuSans-72"/>
     <use x="641.326172" xlink:href="#DejaVuSans-65"/>
     <use x="702.849609" xlink:href="#DejaVuSans-73"/>
     <use x="754.949219" xlink:href="#DejaVuSans-20"/>
     <use x="786.736328" xlink:href="#DejaVuSans-64"/>
     <use x="850.212891" xlink:href="#DejaVuSans-65"/>
     <use x="911.736328" xlink:href="#DejaVuSans-73"/>
     <use x="963.835938" xlink:href="#DejaVuSans-76"/>
     <use x="1023.015625" xlink:href="#DejaVuSans-69"/>
     <use x="1050.798828" xlink:href="#DejaVuSans-6f"/>
     <use x="1111.980469" xlink:href="#DejaVuSans-20"/>
     <use x="1143.767578" xlink:href="#DejaVuSans-65"/>
     <use x="1205.291016" xlink:href="#DejaVuSans-73"/>
     <use x="1257.390625" xlink:href="#DejaVuSans-74"/>
     <use x="1296.599609" xlink:href="#DejaVuSans-61"/>
     <use x="1357.878906" xlink:href="#DejaVuSans-6e"/>
     <use x="1421.257812" xlink:href="#DejaVuSans-64"/>
     <use x="1484.734375" xlink:href="#DejaVuSans-61"/>
     <use x="1546.013672" xlink:href="#DejaVuSans-72"/>
     <use x="1587.126953" xlink:href="#DejaVuSans-20"/>
     <use x="1618.914062" xlink:href="#DejaVuSans-65"/>
     <use x="1680.4375" xlink:href="#DejaVuSans-73"/>
     <use x="1732.537109" xlink:href="#DejaVuSans-70"/>
     <use x="1796.013672" xlink:href="#DejaVuSans-65"/>
     <use x="1857.537109" xlink:href="#DejaVuSans-72"/>
     <use x="1898.650391" xlink:href="#DejaVuSans-61"/>
     <use x="1959.929688" xlink:href="#DejaVuSans-64"/>
     <use x="2023.40625" xlink:href="#DejaVuSans-6f"/>
     <use x="2084.587891" xlink:href="#DejaVuSans-73"/>
     <use x="2136.6875" xlink:href="#DejaVuSans-20"/>
     <use x="2168.474609" xlink:href="#DejaVuSans-76"/>
     <use x="2227.654297" xlink:href="#DejaVuSans-73"/>
     <use x="2279.753906" xlink:href="#DejaVuSans-20"/>
     <use x="2311.541016" xlink:href="#DejaVuSans-6f"/>
     <use x="2372.722656" xlink:href="#DejaVuSans-62"/>
     <use x="2436.199219" xlink:href="#DejaVuSans-74"/>
     <use x="2475.408203" xlink:href="#DejaVuSans-65"/>
     <use x="2536.931641" xlink:href="#DejaVuSans-6e"/>
     <use x="2600.310547" xlink:href="#DejaVuSans-69"/>
     <use x="2628.09375" xlink:href="#DejaVuSans-64"/>
     <use x="2691.570312" xlink:href="#DejaVuSans-6f"/>
     <use x="2752.751953" xlink:href="#DejaVuSans-73"/>
    </g>
   </g>
   <g id="legend_1">
    <g id="patch_7">
     <path d="M 64.6 302.584 
L 208.01875 302.584 
Q 210.01875 302.584 210.01875 300.584 
L 210.01875 272.22775 
Q 210.01875 270.22775 208.01875 270.22775 
L 64.6 270.22775 
Q 62.6 270.22775 62.6 272.22775 
L 62.6 300.584 
Q 62.6 302.584 64.6 302.584 
z
" style="fill:#ffffff;opacity:0.8;stroke:#cccccc;stroke-linejoin:miter;"/>
    </g>
    <g id="line2d_16">
     <path d="M 66.6 278.326187 
L 86.6 278.326187 
" style="fill:none;stroke:#1f77b4;stroke-linecap:square;stroke-width:1.5;"/>
    </g>
    <g id="line2d_17"/>
    <g id="text_17">
     <!-- Valor desvio esperado -->
     <g transform="translate(94.6 281.826187)scale(0.1 -0.1)">
      <use xlink:href="#DejaVuSans-56"/>
      <use x="68.298828" xlink:href="#DejaVuSans-61"/>
      <use x="129.578125" xlink:href="#DejaVuSans-6c"/>
      <use x="157.361328" xlink:href="#DejaVuSans-6f"/>
      <use x="218.542969" xlink:href="#DejaVuSans-72"/>
      <use x="259.65625" xlink:href="#DejaVuSans-20"/>
      <use x="291.443359" xlink:href="#DejaVuSans-64"/>
      <use x="354.919922" xlink:href="#DejaVuSans-65"/>
      <use x="416.443359" xlink:href="#DejaVuSans-73"/>
      <use x="468.542969" xlink:href="#DejaVuSans-76"/>
      <use x="527.722656" xlink:href="#DejaVuSans-69"/>
      <use x="555.505859" xlink:href="#DejaVuSans-6f"/>
      <use x="616.6875" xlink:href="#DejaVuSans-20"/>
      <use x="648.474609" xlink:href="#DejaVuSans-65"/>
      <use x="709.998047" xlink:href="#DejaVuSans-73"/>
      <use x="762.097656" xlink:href="#DejaVuSans-70"/>
      <use x="825.574219" xlink:href="#DejaVuSans-65"/>
      <use x="887.097656" xlink:href="#DejaVuSans-72"/>
      <use x="928.210938" xlink:href="#DejaVuSans-61"/>
      <use x="989.490234" xlink:href="#DejaVuSans-64"/>
      <use x="1052.966797" xlink:href="#DejaVuSans-6f"/>
     </g>
    </g>
    <g id="line2d_18">
     <path d="M 66.6 293.004312 
L 86.6 293.004312 
" style="fill:none;stroke:#ff7f0e;stroke-linecap:square;stroke-width:1.5;"/>
    </g>
    <g id="line2d_19"/>
    <g id="text_18">
     <!-- Valor desvio obtenido -->
     <g transform="translate(94.6 296.504312)scale(0.1 -0.1)">
      <use xlink:href="#DejaVuSans-56"/>
      <use x="68.298828" xlink:href="#DejaVuSans-61"/>
      <use x="129.578125" xlink:href="#DejaVuSans-6c"/>
      <use x="157.361328" xlink:href="#DejaVuSans-6f"/>
      <use x="218.542969" xlink:href="#DejaVuSans-72"/>
      <use x="259.65625" xlink:href="#DejaVuSans-20"/>
      <use x="291.443359" xlink:href="#DejaVuSans-64"/>
      <use x="354.919922" xlink:href="#DejaVuSans-65"/>
      <use x="416.443359" xlink:href="#DejaVuSans-73"/>
      <use x="468.542969" xlink:href="#DejaVuSans-76"/>
      <use x="527.722656" xlink:href="#DejaVuSans-69"/>
      <use x="555.505859" xlink:href="#DejaVuSans-6f"/>
      <use x="616.6875" xlink:href="#DejaVuSans-20"/>
      <use x="648.474609" xlink:href="#DejaVuSans-6f"/>
      <use x="709.65625" xlink:href="#DejaVuSans-62"/>
      <use x="773.132812" xlink:href="#DejaVuSans-74"/>
      <use x="812.341797" xlink:href="#DejaVuSans-65"/>
      <use x="873.865234" xlink:href="#DejaVuSans-6e"/>
      <use x="937.244141" xlink:href="#DejaVuSans-69"/>
      <use x="965.027344" xlink:href="#DejaVuSans-64"/>
      <use x="1028.503906" xlink:href="#DejaVuSans-6f"/>
     </g>
    </g>
   </g>
  </g>
 </g>
 <defs>
  <clipPath id="p327f81146c">
   <rect height="266.112" width="357.12" x="57.6" y="41.472"/>
  </clipPath>
 </defs>
</svg>
