<?xml version="1.0" encoding="utf-8" standalone="no"?>
<!DOCTYPE svg PUBLIC "-//W3C//DTD SVG 1.1//EN"
  "http://www.w3.org/Graphics/SVG/1.1/DTD/svg11.dtd">
<!-- Created with matplotlib (http://matplotlib.org/) -->
<svg height="345.6pt" version="1.1" viewBox="0 0 460.8 345.6" width="460.8pt" xmlns="http://www.w3.org/2000/svg" xmlns:xlink="http://www.w3.org/1999/xlink">
 <defs>
  <style type="text/css">
*{stroke-linecap:butt;stroke-linejoin:round;}
  </style>
 </defs>
 <g id="figure_1">
  <g id="patch_1">
   <path d="M 0 345.6 
L 460.8 345.6 
L 460.8 0 
L 0 0 
z
" style="fill:#ffffff;"/>
  </g>
  <g id="axes_1">
   <g id="patch_2">
    <path d="M 57.6 307.584 
L 414.72 307.584 
L 414.72 41.472 
L 57.6 41.472 
z
" style="fill:#ffffff;"/>
   </g>
   <g id="matplotlib.axis_1">
    <g id="xtick_1">
     <g id="line2d_1">
      <defs>
       <path d="M 0 0 
L 0 3.5 
" id="m4a2667c1e6" style="stroke:#000000;stroke-width:0.8;"/>
      </defs>
      <g>
       <use style="stroke:#000000;stroke-width:0.8;" x="128.451463" xlink:href="#m4a2667c1e6" y="307.584"/>
      </g>
     </g>
     <g id="text_1">
      <!-- 100 -->
      <defs>
       <path d="M 12.40625 8.296875 
L 28.515625 8.296875 
L 28.515625 63.921875 
L 10.984375 60.40625 
L 10.984375 69.390625 
L 28.421875 72.90625 
L 38.28125 72.90625 
L 38.28125 8.296875 
L 54.390625 8.296875 
L 54.390625 0 
L 12.40625 0 
z
" id="DejaVuSans-31"/>
       <path d="M 31.78125 66.40625 
Q 24.171875 66.40625 20.328125 58.90625 
Q 16.5 51.421875 16.5 36.375 
Q 16.5 21.390625 20.328125 13.890625 
Q 24.171875 6.390625 31.78125 6.390625 
Q 39.453125 6.390625 43.28125 13.890625 
Q 47.125 21.390625 47.125 36.375 
Q 47.125 51.421875 43.28125 58.90625 
Q 39.453125 66.40625 31.78125 66.40625 
z
M 31.78125 74.21875 
Q 44.046875 74.21875 50.515625 64.515625 
Q 56.984375 54.828125 56.984375 36.375 
Q 56.984375 17.96875 50.515625 8.265625 
Q 44.046875 -1.421875 31.78125 -1.421875 
Q 19.53125 -1.421875 13.0625 8.265625 
Q 6.59375 17.96875 6.59375 36.375 
Q 6.59375 54.828125 13.0625 64.515625 
Q 19.53125 74.21875 31.78125 74.21875 
z
" id="DejaVuSans-30"/>
      </defs>
      <g transform="translate(118.907713 322.182437)scale(0.1 -0.1)">
       <use xlink:href="#DejaVuSans-31"/>
       <use x="63.623047" xlink:href="#DejaVuSans-30"/>
       <use x="127.246094" xlink:href="#DejaVuSans-30"/>
      </g>
     </g>
    </g>
    <g id="xtick_2">
     <g id="line2d_2">
      <g>
       <use style="stroke:#000000;stroke-width:0.8;" x="200.018597" xlink:href="#m4a2667c1e6" y="307.584"/>
      </g>
     </g>
     <g id="text_2">
      <!-- 200 -->
      <defs>
       <path d="M 19.1875 8.296875 
L 53.609375 8.296875 
L 53.609375 0 
L 7.328125 0 
L 7.328125 8.296875 
Q 12.9375 14.109375 22.625 23.890625 
Q 32.328125 33.6875 34.8125 36.53125 
Q 39.546875 41.84375 41.421875 45.53125 
Q 43.3125 49.21875 43.3125 52.78125 
Q 43.3125 58.59375 39.234375 62.25 
Q 35.15625 65.921875 28.609375 65.921875 
Q 23.96875 65.921875 18.8125 64.3125 
Q 13.671875 62.703125 7.8125 59.421875 
L 7.8125 69.390625 
Q 13.765625 71.78125 18.9375 73 
Q 24.125 74.21875 28.421875 74.21875 
Q 39.75 74.21875 46.484375 68.546875 
Q 53.21875 62.890625 53.21875 53.421875 
Q 53.21875 48.921875 51.53125 44.890625 
Q 49.859375 40.875 45.40625 35.40625 
Q 44.1875 33.984375 37.640625 27.21875 
Q 31.109375 20.453125 19.1875 8.296875 
z
" id="DejaVuSans-32"/>
      </defs>
      <g transform="translate(190.474847 322.182437)scale(0.1 -0.1)">
       <use xlink:href="#DejaVuSans-32"/>
       <use x="63.623047" xlink:href="#DejaVuSans-30"/>
       <use x="127.246094" xlink:href="#DejaVuSans-30"/>
      </g>
     </g>
    </g>
    <g id="xtick_3">
     <g id="line2d_3">
      <g>
       <use style="stroke:#000000;stroke-width:0.8;" x="271.585731" xlink:href="#m4a2667c1e6" y="307.584"/>
      </g>
     </g>
     <g id="text_3">
      <!-- 300 -->
      <defs>
       <path d="M 40.578125 39.3125 
Q 47.65625 37.796875 51.625 33 
Q 55.609375 28.21875 55.609375 21.1875 
Q 55.609375 10.40625 48.1875 4.484375 
Q 40.765625 -1.421875 27.09375 -1.421875 
Q 22.515625 -1.421875 17.65625 -0.515625 
Q 12.796875 0.390625 7.625 2.203125 
L 7.625 11.71875 
Q 11.71875 9.328125 16.59375 8.109375 
Q 21.484375 6.890625 26.8125 6.890625 
Q 36.078125 6.890625 40.9375 10.546875 
Q 45.796875 14.203125 45.796875 21.1875 
Q 45.796875 27.640625 41.28125 31.265625 
Q 36.765625 34.90625 28.71875 34.90625 
L 20.21875 34.90625 
L 20.21875 43.015625 
L 29.109375 43.015625 
Q 36.375 43.015625 40.234375 45.921875 
Q 44.09375 48.828125 44.09375 54.296875 
Q 44.09375 59.90625 40.109375 62.90625 
Q 36.140625 65.921875 28.71875 65.921875 
Q 24.65625 65.921875 20.015625 65.03125 
Q 15.375 64.15625 9.8125 62.3125 
L 9.8125 71.09375 
Q 15.4375 72.65625 20.34375 73.4375 
Q 25.25 74.21875 29.59375 74.21875 
Q 40.828125 74.21875 47.359375 69.109375 
Q 53.90625 64.015625 53.90625 55.328125 
Q 53.90625 49.265625 50.4375 45.09375 
Q 46.96875 40.921875 40.578125 39.3125 
z
" id="DejaVuSans-33"/>
      </defs>
      <g transform="translate(262.041981 322.182437)scale(0.1 -0.1)">
       <use xlink:href="#DejaVuSans-33"/>
       <use x="63.623047" xlink:href="#DejaVuSans-30"/>
       <use x="127.246094" xlink:href="#DejaVuSans-30"/>
      </g>
     </g>
    </g>
    <g id="xtick_4">
     <g id="line2d_4">
      <g>
       <use style="stroke:#000000;stroke-width:0.8;" x="343.152866" xlink:href="#m4a2667c1e6" y="307.584"/>
      </g>
     </g>
     <g id="text_4">
      <!-- 400 -->
      <defs>
       <path d="M 37.796875 64.3125 
L 12.890625 25.390625 
L 37.796875 25.390625 
z
M 35.203125 72.90625 
L 47.609375 72.90625 
L 47.609375 25.390625 
L 58.015625 25.390625 
L 58.015625 17.1875 
L 47.609375 17.1875 
L 47.609375 0 
L 37.796875 0 
L 37.796875 17.1875 
L 4.890625 17.1875 
L 4.890625 26.703125 
z
" id="DejaVuSans-34"/>
      </defs>
      <g transform="translate(333.609116 322.182437)scale(0.1 -0.1)">
       <use xlink:href="#DejaVuSans-34"/>
       <use x="63.623047" xlink:href="#DejaVuSans-30"/>
       <use x="127.246094" xlink:href="#DejaVuSans-30"/>
      </g>
     </g>
    </g>
    <g id="xtick_5">
     <g id="line2d_5">
      <g>
       <use style="stroke:#000000;stroke-width:0.8;" x="414.72" xlink:href="#m4a2667c1e6" y="307.584"/>
      </g>
     </g>
     <g id="text_5">
      <!-- 500 -->
      <defs>
       <path d="M 10.796875 72.90625 
L 49.515625 72.90625 
L 49.515625 64.59375 
L 19.828125 64.59375 
L 19.828125 46.734375 
Q 21.96875 47.46875 24.109375 47.828125 
Q 26.265625 48.1875 28.421875 48.1875 
Q 40.625 48.1875 47.75 41.5 
Q 54.890625 34.8125 54.890625 23.390625 
Q 54.890625 11.625 47.5625 5.09375 
Q 40.234375 -1.421875 26.90625 -1.421875 
Q 22.3125 -1.421875 17.546875 -0.640625 
Q 12.796875 0.140625 7.71875 1.703125 
L 7.71875 11.625 
Q 12.109375 9.234375 16.796875 8.0625 
Q 21.484375 6.890625 26.703125 6.890625 
Q 35.15625 6.890625 40.078125 11.328125 
Q 45.015625 15.765625 45.015625 23.390625 
Q 45.015625 31 40.078125 35.4375 
Q 35.15625 39.890625 26.703125 39.890625 
Q 22.75 39.890625 18.8125 39.015625 
Q 14.890625 38.140625 10.796875 36.28125 
z
" id="DejaVuSans-35"/>
      </defs>
      <g transform="translate(405.17625 322.182437)scale(0.1 -0.1)">
       <use xlink:href="#DejaVuSans-35"/>
       <use x="63.623047" xlink:href="#DejaVuSans-30"/>
       <use x="127.246094" xlink:href="#DejaVuSans-30"/>
      </g>
     </g>
    </g>
    <g id="text_6">
     <!-- Tiradas -->
     <defs>
      <path d="M -0.296875 72.90625 
L 61.375 72.90625 
L 61.375 64.59375 
L 35.5 64.59375 
L 35.5 0 
L 25.59375 0 
L 25.59375 64.59375 
L -0.296875 64.59375 
z
" id="DejaVuSans-54"/>
      <path d="M 9.421875 54.6875 
L 18.40625 54.6875 
L 18.40625 0 
L 9.421875 0 
z
M 9.421875 75.984375 
L 18.40625 75.984375 
L 18.40625 64.59375 
L 9.421875 64.59375 
z
" id="DejaVuSans-69"/>
      <path d="M 41.109375 46.296875 
Q 39.59375 47.171875 37.8125 47.578125 
Q 36.03125 48 33.890625 48 
Q 26.265625 48 22.1875 43.046875 
Q 18.109375 38.09375 18.109375 28.8125 
L 18.109375 0 
L 9.078125 0 
L 9.078125 54.6875 
L 18.109375 54.6875 
L 18.109375 46.1875 
Q 20.953125 51.171875 25.484375 53.578125 
Q 30.03125 56 36.53125 56 
Q 37.453125 56 38.578125 55.875 
Q 39.703125 55.765625 41.0625 55.515625 
z
" id="DejaVuSans-72"/>
      <path d="M 34.28125 27.484375 
Q 23.390625 27.484375 19.1875 25 
Q 14.984375 22.515625 14.984375 16.5 
Q 14.984375 11.71875 18.140625 8.90625 
Q 21.296875 6.109375 26.703125 6.109375 
Q 34.1875 6.109375 38.703125 11.40625 
Q 43.21875 16.703125 43.21875 25.484375 
L 43.21875 27.484375 
z
M 52.203125 31.203125 
L 52.203125 0 
L 43.21875 0 
L 43.21875 8.296875 
Q 40.140625 3.328125 35.546875 0.953125 
Q 30.953125 -1.421875 24.3125 -1.421875 
Q 15.921875 -1.421875 10.953125 3.296875 
Q 6 8.015625 6 15.921875 
Q 6 25.140625 12.171875 29.828125 
Q 18.359375 34.515625 30.609375 34.515625 
L 43.21875 34.515625 
L 43.21875 35.40625 
Q 43.21875 41.609375 39.140625 45 
Q 35.0625 48.390625 27.6875 48.390625 
Q 23 48.390625 18.546875 47.265625 
Q 14.109375 46.140625 10.015625 43.890625 
L 10.015625 52.203125 
Q 14.9375 54.109375 19.578125 55.046875 
Q 24.21875 56 28.609375 56 
Q 40.484375 56 46.34375 49.84375 
Q 52.203125 43.703125 52.203125 31.203125 
z
" id="DejaVuSans-61"/>
      <path d="M 45.40625 46.390625 
L 45.40625 75.984375 
L 54.390625 75.984375 
L 54.390625 0 
L 45.40625 0 
L 45.40625 8.203125 
Q 42.578125 3.328125 38.25 0.953125 
Q 33.9375 -1.421875 27.875 -1.421875 
Q 17.96875 -1.421875 11.734375 6.484375 
Q 5.515625 14.40625 5.515625 27.296875 
Q 5.515625 40.1875 11.734375 48.09375 
Q 17.96875 56 27.875 56 
Q 33.9375 56 38.25 53.625 
Q 42.578125 51.265625 45.40625 46.390625 
z
M 14.796875 27.296875 
Q 14.796875 17.390625 18.875 11.75 
Q 22.953125 6.109375 30.078125 6.109375 
Q 37.203125 6.109375 41.296875 11.75 
Q 45.40625 17.390625 45.40625 27.296875 
Q 45.40625 37.203125 41.296875 42.84375 
Q 37.203125 48.484375 30.078125 48.484375 
Q 22.953125 48.484375 18.875 42.84375 
Q 14.796875 37.203125 14.796875 27.296875 
z
" id="DejaVuSans-64"/>
      <path d="M 44.28125 53.078125 
L 44.28125 44.578125 
Q 40.484375 46.53125 36.375 47.5 
Q 32.28125 48.484375 27.875 48.484375 
Q 21.1875 48.484375 17.84375 46.4375 
Q 14.5 44.390625 14.5 40.28125 
Q 14.5 37.15625 16.890625 35.375 
Q 19.28125 33.59375 26.515625 31.984375 
L 29.59375 31.296875 
Q 39.15625 29.25 43.1875 25.515625 
Q 47.21875 21.78125 47.21875 15.09375 
Q 47.21875 7.46875 41.1875 3.015625 
Q 35.15625 -1.421875 24.609375 -1.421875 
Q 20.21875 -1.421875 15.453125 -0.5625 
Q 10.6875 0.296875 5.421875 2 
L 5.421875 11.28125 
Q 10.40625 8.6875 15.234375 7.390625 
Q 20.0625 6.109375 24.8125 6.109375 
Q 31.15625 6.109375 34.5625 8.28125 
Q 37.984375 10.453125 37.984375 14.40625 
Q 37.984375 18.0625 35.515625 20.015625 
Q 33.0625 21.96875 24.703125 23.78125 
L 21.578125 24.515625 
Q 13.234375 26.265625 9.515625 29.90625 
Q 5.8125 33.546875 5.8125 39.890625 
Q 5.8125 47.609375 11.28125 51.796875 
Q 16.75 56 26.8125 56 
Q 31.78125 56 36.171875 55.265625 
Q 40.578125 54.546875 44.28125 53.078125 
z
" id="DejaVuSans-73"/>
     </defs>
     <g transform="translate(217.756875 335.860562)scale(0.1 -0.1)">
      <use xlink:href="#DejaVuSans-54"/>
      <use x="61.037109" xlink:href="#DejaVuSans-69"/>
      <use x="88.820312" xlink:href="#DejaVuSans-72"/>
      <use x="129.933594" xlink:href="#DejaVuSans-61"/>
      <use x="191.212891" xlink:href="#DejaVuSans-64"/>
      <use x="254.689453" xlink:href="#DejaVuSans-61"/>
      <use x="315.96875" xlink:href="#DejaVuSans-73"/>
     </g>
    </g>
   </g>
   <g id="matplotlib.axis_2">
    <g id="ytick_1">
     <g id="line2d_6">
      <defs>
       <path d="M 0 0 
L -3.5 0 
" id="m43a0da84ba" style="stroke:#000000;stroke-width:0.8;"/>
      </defs>
      <g>
       <use style="stroke:#000000;stroke-width:0.8;" x="57.6" xlink:href="#m43a0da84ba" y="290.550857"/>
      </g>
     </g>
     <g id="text_7">
      <!-- 10 -->
      <g transform="translate(37.875 294.350076)scale(0.1 -0.1)">
       <use xlink:href="#DejaVuSans-31"/>
       <use x="63.623047" xlink:href="#DejaVuSans-30"/>
      </g>
     </g>
    </g>
    <g id="ytick_2">
     <g id="line2d_7">
      <g>
       <use style="stroke:#000000;stroke-width:0.8;" x="57.6" xlink:href="#m43a0da84ba" y="241.179429"/>
      </g>
     </g>
     <g id="text_8">
      <!-- 15 -->
      <g transform="translate(37.875 244.978647)scale(0.1 -0.1)">
       <use xlink:href="#DejaVuSans-31"/>
       <use x="63.623047" xlink:href="#DejaVuSans-35"/>
      </g>
     </g>
    </g>
    <g id="ytick_3">
     <g id="line2d_8">
      <g>
       <use style="stroke:#000000;stroke-width:0.8;" x="57.6" xlink:href="#m43a0da84ba" y="191.808"/>
      </g>
     </g>
     <g id="text_9">
      <!-- 20 -->
      <g transform="translate(37.875 195.607219)scale(0.1 -0.1)">
       <use xlink:href="#DejaVuSans-32"/>
       <use x="63.623047" xlink:href="#DejaVuSans-30"/>
      </g>
     </g>
    </g>
    <g id="ytick_4">
     <g id="line2d_9">
      <g>
       <use style="stroke:#000000;stroke-width:0.8;" x="57.6" xlink:href="#m43a0da84ba" y="142.436571"/>
      </g>
     </g>
     <g id="text_10">
      <!-- 25 -->
      <g transform="translate(37.875 146.23579)scale(0.1 -0.1)">
       <use xlink:href="#DejaVuSans-32"/>
       <use x="63.623047" xlink:href="#DejaVuSans-35"/>
      </g>
     </g>
    </g>
    <g id="ytick_5">
     <g id="line2d_10">
      <g>
       <use style="stroke:#000000;stroke-width:0.8;" x="57.6" xlink:href="#m43a0da84ba" y="93.065143"/>
      </g>
     </g>
     <g id="text_11">
      <!-- 30 -->
      <g transform="translate(37.875 96.864362)scale(0.1 -0.1)">
       <use xlink:href="#DejaVuSans-33"/>
       <use x="63.623047" xlink:href="#DejaVuSans-30"/>
      </g>
     </g>
    </g>
    <g id="ytick_6">
     <g id="line2d_11">
      <g>
       <use style="stroke:#000000;stroke-width:0.8;" x="57.6" xlink:href="#m43a0da84ba" y="43.693714"/>
      </g>
     </g>
     <g id="text_12">
      <!-- 35 -->
      <g transform="translate(37.875 47.492933)scale(0.1 -0.1)">
       <use xlink:href="#DejaVuSans-33"/>
       <use x="63.623047" xlink:href="#DejaVuSans-35"/>
      </g>
     </g>
    </g>
    <g id="text_13">
     <!-- Valores promedio -->
     <defs>
      <path d="M 28.609375 0 
L 0.78125 72.90625 
L 11.078125 72.90625 
L 34.1875 11.53125 
L 57.328125 72.90625 
L 67.578125 72.90625 
L 39.796875 0 
z
" id="DejaVuSans-56"/>
      <path d="M 9.421875 75.984375 
L 18.40625 75.984375 
L 18.40625 0 
L 9.421875 0 
z
" id="DejaVuSans-6c"/>
      <path d="M 30.609375 48.390625 
Q 23.390625 48.390625 19.1875 42.75 
Q 14.984375 37.109375 14.984375 27.296875 
Q 14.984375 17.484375 19.15625 11.84375 
Q 23.34375 6.203125 30.609375 6.203125 
Q 37.796875 6.203125 41.984375 11.859375 
Q 46.1875 17.53125 46.1875 27.296875 
Q 46.1875 37.015625 41.984375 42.703125 
Q 37.796875 48.390625 30.609375 48.390625 
z
M 30.609375 56 
Q 42.328125 56 49.015625 48.375 
Q 55.71875 40.765625 55.71875 27.296875 
Q 55.71875 13.875 49.015625 6.21875 
Q 42.328125 -1.421875 30.609375 -1.421875 
Q 18.84375 -1.421875 12.171875 6.21875 
Q 5.515625 13.875 5.515625 27.296875 
Q 5.515625 40.765625 12.171875 48.375 
Q 18.84375 56 30.609375 56 
z
" id="DejaVuSans-6f"/>
      <path d="M 56.203125 29.59375 
L 56.203125 25.203125 
L 14.890625 25.203125 
Q 15.484375 15.921875 20.484375 11.0625 
Q 25.484375 6.203125 34.421875 6.203125 
Q 39.59375 6.203125 44.453125 7.46875 
Q 49.3125 8.734375 54.109375 11.28125 
L 54.109375 2.78125 
Q 49.265625 0.734375 44.1875 -0.34375 
Q 39.109375 -1.421875 33.890625 -1.421875 
Q 20.796875 -1.421875 13.15625 6.1875 
Q 5.515625 13.8125 5.515625 26.8125 
Q 5.515625 40.234375 12.765625 48.109375 
Q 20.015625 56 32.328125 56 
Q 43.359375 56 49.78125 48.890625 
Q 56.203125 41.796875 56.203125 29.59375 
z
M 47.21875 32.234375 
Q 47.125 39.59375 43.09375 43.984375 
Q 39.0625 48.390625 32.421875 48.390625 
Q 24.90625 48.390625 20.390625 44.140625 
Q 15.875 39.890625 15.1875 32.171875 
z
" id="DejaVuSans-65"/>
      <path id="DejaVuSans-20"/>
      <path d="M 18.109375 8.203125 
L 18.109375 -20.796875 
L 9.078125 -20.796875 
L 9.078125 54.6875 
L 18.109375 54.6875 
L 18.109375 46.390625 
Q 20.953125 51.265625 25.265625 53.625 
Q 29.59375 56 35.59375 56 
Q 45.5625 56 51.78125 48.09375 
Q 58.015625 40.1875 58.015625 27.296875 
Q 58.015625 14.40625 51.78125 6.484375 
Q 45.5625 -1.421875 35.59375 -1.421875 
Q 29.59375 -1.421875 25.265625 0.953125 
Q 20.953125 3.328125 18.109375 8.203125 
z
M 48.6875 27.296875 
Q 48.6875 37.203125 44.609375 42.84375 
Q 40.53125 48.484375 33.40625 48.484375 
Q 26.265625 48.484375 22.1875 42.84375 
Q 18.109375 37.203125 18.109375 27.296875 
Q 18.109375 17.390625 22.1875 11.75 
Q 26.265625 6.109375 33.40625 6.109375 
Q 40.53125 6.109375 44.609375 11.75 
Q 48.6875 17.390625 48.6875 27.296875 
z
" id="DejaVuSans-70"/>
      <path d="M 52 44.1875 
Q 55.375 50.25 60.0625 53.125 
Q 64.75 56 71.09375 56 
Q 79.640625 56 84.28125 50.015625 
Q 88.921875 44.046875 88.921875 33.015625 
L 88.921875 0 
L 79.890625 0 
L 79.890625 32.71875 
Q 79.890625 40.578125 77.09375 44.375 
Q 74.3125 48.1875 68.609375 48.1875 
Q 61.625 48.1875 57.5625 43.546875 
Q 53.515625 38.921875 53.515625 30.90625 
L 53.515625 0 
L 44.484375 0 
L 44.484375 32.71875 
Q 44.484375 40.625 41.703125 44.40625 
Q 38.921875 48.1875 33.109375 48.1875 
Q 26.21875 48.1875 22.15625 43.53125 
Q 18.109375 38.875 18.109375 30.90625 
L 18.109375 0 
L 9.078125 0 
L 9.078125 54.6875 
L 18.109375 54.6875 
L 18.109375 46.1875 
Q 21.1875 51.21875 25.484375 53.609375 
Q 29.78125 56 35.6875 56 
Q 41.65625 56 45.828125 52.96875 
Q 50 49.953125 52 44.1875 
z
" id="DejaVuSans-6d"/>
     </defs>
     <g transform="translate(31.795312 218.636594)rotate(-90)scale(0.1 -0.1)">
      <use xlink:href="#DejaVuSans-56"/>
      <use x="68.298828" xlink:href="#DejaVuSans-61"/>
      <use x="129.578125" xlink:href="#DejaVuSans-6c"/>
      <use x="157.361328" xlink:href="#DejaVuSans-6f"/>
      <use x="218.542969" xlink:href="#DejaVuSans-72"/>
      <use x="259.625" xlink:href="#DejaVuSans-65"/>
      <use x="321.148438" xlink:href="#DejaVuSans-73"/>
      <use x="373.248047" xlink:href="#DejaVuSans-20"/>
      <use x="405.035156" xlink:href="#DejaVuSans-70"/>
      <use x="468.511719" xlink:href="#DejaVuSans-72"/>
      <use x="509.59375" xlink:href="#DejaVuSans-6f"/>
      <use x="570.775391" xlink:href="#DejaVuSans-6d"/>
      <use x="668.1875" xlink:href="#DejaVuSans-65"/>
      <use x="729.710938" xlink:href="#DejaVuSans-64"/>
      <use x="793.1875" xlink:href="#DejaVuSans-69"/>
      <use x="820.970703" xlink:href="#DejaVuSans-6f"/>
     </g>
    </g>
   </g>
   <g id="line2d_12">
    <path clip-path="url(#pf6726cfbc2)" d="M 57.6 53.568 
L 58.315671 117.750857 
L 59.031343 125.979429 
L 59.747014 181.933714 
L 60.462685 219.456 
L 61.894028 251.053714 
L 62.609699 252.288 
L 63.325371 256.539429 
L 64.041042 237.229714 
L 64.756713 234.895792 
L 65.472385 219.785143 
L 66.188056 215.354374 
L 66.903727 215.788408 
L 67.619399 216.822857 
L 68.33507 212.173714 
L 69.050741 210.975731 
L 69.766413 207.716571 
L 70.482084 206.879278 
L 71.197756 213.531429 
L 73.34477 193.954584 
L 74.060441 194.276571 
L 74.776112 191.808 
L 75.491784 190.288879 
L 76.207455 191.808 
L 76.923126 190.750041 
L 77.638798 188.403074 
L 78.354469 192.466286 
L 79.07014 191.489475 
L 79.785812 197.053714 
L 80.501483 197.493195 
L 81.217154 198.487664 
L 81.932826 202.810776 
L 82.648497 202.505143 
L 83.364168 199.814178 
L 84.07984 200.123188 
L 84.795511 197.37811 
L 85.511182 198.966857 
L 86.942525 195.334531 
L 87.658196 199.38594 
L 88.373868 201.682286 
L 89.089539 202.998857 
L 89.80521 202.326261 
L 90.520882 198.741009 
L 91.236553 200.242286 
L 91.952224 202.085318 
L 92.667896 205.434514 
L 93.383567 204.586487 
L 94.099238 201.492396 
L 94.81491 204.476895 
L 95.530581 203.328 
L 96.246253 200.605091 
L 96.961924 199.213714 
L 97.677595 199.949955 
L 98.393267 198.788099 
L 99.108938 198.669792 
L 99.824609 200.036571 
L 100.540281 198.121068 
L 101.255952 197.222931 
L 101.971623 199.174531 
L 102.687295 198.288 
L 103.402966 196.213451 
L 104.118637 198.690078 
L 104.834309 199.619002 
L 105.54998 199.068504 
L 106.265651 196.67359 
L 106.981323 197.873633 
L 107.696994 196.81468 
L 108.412665 197.430857 
L 109.128337 199.112266 
L 109.844008 197.278888 
L 110.559679 197.995886 
L 111.275351 196.875068 
L 111.991022 194.757462 
L 112.706693 195.732396 
L 113.422365 198.057548 
L 114.138036 198.349714 
L 114.853707 196.440381 
L 116.28505 200.135711 
L 117.000721 198.978612 
L 117.716393 197.500235 
L 118.432064 196.515508 
L 119.147735 197.823369 
L 120.579078 200.794709 
L 121.294749 199.926857 
L 122.726092 202.540919 
L 123.441764 201.576111 
L 124.157435 200.211647 
L 124.873106 199.499549 
L 125.588778 199.419429 
L 126.304449 200.053538 
L 127.02012 198.357271 
L 127.735792 199.986701 
L 129.167134 199.726982 
L 129.882806 200.326992 
L 130.598477 200.244283 
L 131.314148 198.833934 
L 132.02982 200.271673 
L 132.745491 200.843903 
L 133.461162 199.467493 
L 134.176834 200.585143 
L 134.892505 201.229337 
L 135.608176 200.694857 
L 136.323848 199.903135 
L 137.039519 201.241469 
L 137.75519 200.37154 
L 138.470862 200.383038 
L 139.186533 201.167106 
L 139.902204 200.916177 
L 140.617876 201.851077 
L 141.333547 200.845482 
L 142.049218 200.769537 
L 143.480561 203.47761 
L 144.196232 204.191326 
L 144.911904 205.455387 
L 145.627575 204.947171 
L 146.343246 205.632 
L 147.058918 205.365551 
L 147.774589 204.170295 
L 150.637275 205.526473 
L 151.352946 204.524883 
L 152.068617 205.097452 
L 152.784289 204.629834 
L 153.49996 204.827429 
L 154.215631 204.731697 
L 154.931303 203.628313 
L 155.646974 203.256447 
L 156.362645 203.31616 
L 157.078317 203.022367 
L 157.793988 204.063319 
L 158.509659 204.185626 
L 159.225331 205.065782 
L 159.941002 204.630857 
L 160.656673 204.542424 
L 161.372345 203.373088 
L 162.088016 202.891382 
L 162.803687 201.749004 
L 163.519359 202.543801 
L 164.23503 203.7888 
L 164.950701 204.03642 
L 166.382044 206.264471 
L 167.097715 205.272935 
L 168.529058 206.935912 
L 169.244729 206.399301 
L 169.960401 205.681996 
L 170.676072 205.284226 
L 171.391743 206.434286 
L 172.107415 206.711425 
L 172.823086 206.619429 
L 173.538758 207.316081 
L 174.254429 207.522564 
L 174.9701 208.564364 
L 175.685772 209.058258 
L 176.401443 208.777581 
L 177.117114 208.323918 
L 177.832786 207.466631 
L 178.548457 208.303866 
L 179.264128 207.572211 
L 180.695471 206.990428 
L 181.411142 206.959921 
L 182.126814 206.478367 
L 183.558156 205.029501 
L 184.989499 203.171703 
L 185.70517 202.614857 
L 186.420842 202.227826 
L 187.136513 201.628031 
L 187.852184 201.250623 
L 188.567856 201.252969 
L 189.283527 202.216031 
L 189.999198 202.690949 
L 190.71487 201.946304 
L 191.430541 202.260036 
L 192.146212 201.83902 
L 192.861884 202.150015 
L 193.577555 201.57889 
L 194.293226 201.939429 
L 195.008898 201.938096 
L 195.724569 201.275099 
L 196.44024 202.188659 
L 197.155912 202.740245 
L 197.871583 203.687217 
L 198.587255 202.978909 
L 200.018597 204.348343 
L 200.734269 204.285953 
L 201.44994 203.686472 
L 202.165611 203.336107 
L 202.881283 202.650353 
L 203.596954 202.501129 
L 204.312625 201.874019 
L 205.743968 201.112615 
L 206.459639 200.40666 
L 207.175311 200.694857 
L 207.890982 200.83993 
L 208.606653 201.635709 
L 209.322325 201.218704 
L 210.753667 202.692678 
L 211.469339 202.048 
L 212.18501 202.36484 
L 212.900681 202.814658 
L 213.616353 203.485808 
L 214.332024 203.702026 
L 215.763367 203.550394 
L 217.194709 203.974531 
L 217.910381 204.490971 
L 218.626052 204.740693 
L 220.057395 204.194165 
L 220.773066 204.52815 
L 222.92008 203.214502 
L 223.635752 203.250305 
L 225.067094 204.455489 
L 225.782766 203.899816 
L 226.498437 204.182105 
L 227.214108 203.466295 
L 227.92978 203.458831 
L 228.645451 204.233143 
L 229.361122 203.894781 
L 230.792465 204.811175 
L 231.508136 204.434136 
L 232.939479 205.25469 
L 233.65515 205.240227 
L 234.370822 205.066618 
L 235.086493 205.76683 
L 235.802164 206.303451 
L 236.517836 206.4424 
L 237.949178 206.014482 
L 238.66485 206.697179 
L 239.380521 206.522622 
L 240.096192 206.580857 
L 240.811864 206.10074 
L 241.527535 206.045342 
L 242.243206 206.21912 
L 243.674549 205.049379 
L 244.39022 204.961152 
L 246.537234 203.694404 
L 248.684248 203.708725 
L 249.39992 203.113874 
L 250.831263 203.467673 
L 251.546934 202.952874 
L 252.262605 203.056728 
L 252.978277 202.547187 
L 253.693948 202.723574 
L 254.409619 203.149118 
L 255.125291 203.286412 
L 255.840962 203.600312 
L 256.556633 203.522654 
L 257.272305 203.904 
L 257.987976 204.036653 
L 258.703647 203.818213 
L 260.13499 204.463775 
L 260.850661 204.454015 
L 261.566333 204.824104 
L 262.282004 204.641131 
L 262.997675 204.699429 
L 263.713347 204.996492 
L 264.429018 204.610522 
L 265.144689 205.245172 
L 266.576032 204.681642 
L 267.291703 205.074472 
L 268.723046 204.250934 
L 270.154389 205.16148 
L 270.87006 204.58843 
L 272.301403 203.781802 
L 273.017074 204.297991 
L 273.732745 204.354535 
L 274.448417 204.865444 
L 275.164088 205.016881 
L 276.595431 204.962993 
L 278.026774 205.325226 
L 278.742445 205.217917 
L 279.458116 204.984298 
L 280.173788 205.195253 
L 280.889459 205.783427 
L 281.60513 206.053387 
L 282.320802 206.008163 
L 283.036473 206.400694 
L 283.752144 206.105467 
L 284.467816 205.563687 
L 285.183487 206.139644 
L 285.899158 206.403429 
L 286.61483 206.234916 
L 287.330501 206.220777 
L 288.046172 205.992732 
L 288.761844 206.040381 
L 290.193186 206.286247 
L 290.908858 206.181578 
L 291.624529 205.686188 
L 292.3402 205.674018 
L 293.055872 205.78161 
L 293.771543 206.097374 
L 294.487214 206.262527 
L 295.202886 205.9819 
L 295.918557 206.412482 
L 296.634228 206.044657 
L 297.3499 206.149224 
L 298.065571 205.813663 
L 298.781242 205.830654 
L 300.212585 205.370622 
L 300.928257 205.736245 
L 301.643928 205.58003 
L 302.359599 205.827758 
L 303.790942 204.945093 
L 304.506613 205.078355 
L 305.222285 205.381586 
L 305.937956 205.427704 
L 306.653627 205.275507 
L 307.369299 205.293453 
L 308.08497 205.761407 
L 309.516313 205.011011 
L 312.378998 205.720509 
L 313.094669 205.26792 
L 313.810341 205.725517 
L 314.526012 205.686857 
L 316.673026 205.871377 
L 317.388697 205.859868 
L 318.104369 205.469683 
L 318.82004 205.783082 
L 319.535711 205.529759 
L 320.251383 205.868124 
L 320.967054 205.9103 
L 322.398397 206.526275 
L 323.114068 206.539797 
L 323.829739 206.738555 
L 324.545411 206.698634 
L 325.261082 206.92224 
L 325.976754 206.593167 
L 326.692425 206.999209 
L 328.839439 206.437534 
L 329.55511 206.891555 
L 330.270782 206.748673 
L 330.986453 207.225292 
L 332.417796 207.37603 
L 333.133467 207.003144 
L 334.56481 206.593979 
L 335.280481 207.038261 
L 335.996152 207.277714 
L 336.711824 207.288658 
L 337.427495 207.173598 
L 338.143166 207.235001 
L 338.858838 206.870045 
L 339.574509 206.981902 
L 340.29018 206.968519 
L 341.005852 207.253671 
L 343.868537 207.247344 
L 344.584208 206.840495 
L 345.29988 207.195224 
L 346.015551 206.986048 
L 346.731222 207.338667 
L 347.446894 206.9356 
L 348.878236 207.103462 
L 350.309579 206.619429 
L 351.025251 206.655466 
L 351.740922 206.835129 
L 352.456593 206.487931 
L 353.172265 206.690981 
L 353.887936 206.440978 
L 354.603607 206.571956 
L 355.319279 206.962779 
L 356.03495 207.044637 
L 356.750621 207.432466 
L 357.466293 207.136653 
L 358.181964 206.982971 
L 359.613307 206.304292 
L 361.044649 205.88757 
L 363.191663 206.942419 
L 363.907335 206.699988 
L 365.338677 206.997446 
L 366.054349 207.236571 
L 366.77002 207.314961 
L 368.201363 207.833852 
L 368.917034 207.457384 
L 369.632705 207.285999 
L 370.348377 207.498646 
L 371.064048 207.305455 
L 372.495391 207.794939 
L 373.926733 207.165523 
L 374.642405 206.997498 
L 375.358076 206.674902 
L 376.789419 207.359448 
L 377.50509 207.214531 
L 378.220762 207.378143 
L 379.652104 206.783635 
L 381.083447 206.60853 
L 382.51479 205.892421 
L 383.230461 205.94815 
L 383.946132 206.327737 
L 384.661804 206.145118 
L 386.093146 206.683826 
L 387.524489 206.19197 
L 388.24016 206.310191 
L 388.955832 206.257655 
L 391.102846 206.545424 
L 392.534188 206.419416 
L 393.24986 206.493374 
L 394.681202 205.970906 
L 395.396874 205.920087 
L 396.828216 205.52806 
L 397.543888 205.706679 
L 398.259559 205.760345 
L 400.406573 205.323429 
L 401.837916 205.922902 
L 402.553587 206.077672 
L 403.269259 206.395013 
L 404.700601 206.436571 
L 405.416273 206.102397 
L 408.994629 206.338453 
L 409.710301 206.228864 
L 410.425972 206.439533 
L 411.141643 206.110753 
L 411.857315 206.002286 
L 414.72 206.402194 
L 414.72 206.402194 
" style="fill:none;stroke:#1f77b4;stroke-linecap:square;stroke-width:1.5;"/>
   </g>
   <g id="line2d_13">
    <path clip-path="url(#pf6726cfbc2)" d="M 57.6 132.562286 
L 58.315671 93.065143 
L 59.031343 76.608 
L 59.747014 137.499429 
L 60.462685 187.858286 
L 61.178357 200.036571 
L 61.894028 207.324735 
L 62.609699 193.042286 
L 63.325371 186.322286 
L 64.041042 172.059429 
L 64.756713 176.54774 
L 65.472385 174.528 
L 66.188056 167.502066 
L 66.903727 180.523102 
L 67.619399 177.984 
L 68.33507 182.550857 
L 69.050741 173.80195 
L 69.766413 184.128 
L 70.482084 189.209504 
L 71.197756 182.921143 
L 71.913427 189.45698 
L 72.629098 190.461506 
L 73.34477 188.802783 
L 74.060441 188.105143 
L 74.776112 185.488457 
L 75.491784 190.288879 
L 76.923126 181.228408 
L 77.638798 178.188296 
L 78.354469 177.325714 
L 79.07014 181.615189 
L 80.501483 186.721247 
L 81.217154 185.418756 
L 81.932826 184.754939 
L 82.648497 183.579429 
L 83.364168 183.801822 
L 84.07984 188.689805 
L 84.795511 188.769758 
L 85.511182 187.858286 
L 86.226854 192.771345 
L 86.942525 191.808 
L 87.658196 193.415442 
L 88.373868 194.052156 
L 89.089539 198.171429 
L 89.80521 194.598559 
L 90.520882 193.488729 
L 91.236553 190.162286 
L 91.952224 193.017096 
L 92.667896 193.980343 
L 94.099238 197.504703 
L 94.81491 197.210911 
L 95.530581 198.573714 
L 96.246253 198.091636 
L 96.961924 197.097796 
L 97.677595 194.233263 
L 98.393267 194.531941 
L 99.108938 195.155215 
L 99.824609 193.947429 
L 100.540281 193.750482 
L 101.255952 195.948829 
L 101.971623 195.099429 
L 102.687295 198.133714 
L 103.402966 196.365363 
L 104.118637 198.091636 
L 105.54998 200.665815 
L 106.265651 199.678807 
L 106.981323 200.97698 
L 107.696994 201.404137 
L 108.412665 203.876571 
L 109.128337 202.899663 
L 109.844008 204.484448 
L 110.559679 204.842057 
L 111.275351 204.150857 
L 111.991022 206.04236 
L 112.706693 205.986462 
L 113.422365 203.932123 
L 114.138036 205.632 
L 114.853707 203.754667 
L 115.569379 204.090648 
L 116.28505 202.515057 
L 117.000721 202.034939 
L 117.716393 202.61163 
L 118.432064 204.667535 
L 119.147735 205.541202 
L 120.579078 208.893843 
L 121.294749 209.472 
L 122.010421 209.820433 
L 123.441764 208.265143 
L 124.157435 209.245568 
L 124.873106 207.398977 
L 125.588778 205.899429 
L 126.304449 206.670327 
L 127.02012 205.712606 
L 127.735792 206.769039 
L 128.451463 207.113143 
L 129.167134 206.375016 
L 129.882806 205.457748 
L 132.02982 209.017469 
L 132.745491 209.134577 
L 133.461162 208.695797 
L 134.176834 207.716571 
L 134.892505 207.117672 
L 135.608176 208.773818 
L 136.323848 207.28661 
L 137.039519 206.883918 
L 137.75519 207.973866 
L 138.470862 207.918677 
L 139.186533 208.980671 
L 139.902204 210.535094 
L 140.617876 211.809758 
L 141.333547 211.974973 
L 142.049218 211.805503 
L 142.76489 212.626286 
L 143.480561 211.148543 
L 144.196232 211.718445 
L 144.911904 211.877686 
L 145.627575 211.47694 
L 146.343246 212.82048 
L 147.058918 213.35902 
L 147.774589 212.800576 
L 148.490261 213.948 
L 149.205932 213.623282 
L 149.921603 213.759297 
L 150.637275 213.064096 
L 151.352946 213.800727 
L 152.068617 215.045981 
L 152.784289 214.651497 
L 153.49996 215.213714 
L 154.215631 215.186824 
L 154.931303 213.935049 
L 155.646974 213.989366 
L 156.362645 213.75875 
L 157.078317 212.896653 
L 157.793988 213.517422 
L 158.509659 214.33806 
L 159.225331 213.697151 
L 159.941002 213.545143 
L 160.656673 214.076217 
L 161.372345 214.802912 
L 162.088016 215.049516 
L 162.803687 215.159351 
L 163.519359 214.87009 
L 164.23503 214.453029 
L 164.950701 213.714528 
L 165.666373 213.635368 
L 167.097715 214.826627 
L 167.813387 214.80553 
L 168.529058 214.594813 
L 169.244729 213.820739 
L 170.676072 215.717434 
L 171.391743 216.246857 
L 172.107415 216.095063 
L 172.823086 217.042286 
L 174.254429 218.05915 
L 174.9701 218.259117 
L 175.685772 218.21874 
L 176.401443 218.415357 
L 177.117114 217.845551 
L 177.832786 216.756639 
L 178.548457 216.72605 
L 179.9798 217.067801 
L 180.695471 216.864713 
L 181.411142 216.834207 
L 182.126814 215.901257 
L 182.842485 216.493714 
L 183.558156 216.186886 
L 184.273828 217.048449 
L 184.989499 216.741951 
L 185.70517 215.945143 
L 186.420842 215.375356 
L 187.136513 215.734154 
L 187.852184 216.520693 
L 188.567856 216.923031 
L 189.283527 217.000772 
L 190.71487 218.579459 
L 192.146212 217.930449 
L 192.861884 217.844932 
L 193.577555 218.0188 
L 194.293226 217.985143 
L 195.008898 218.565779 
L 195.724569 217.817072 
L 196.44024 217.73433 
L 197.155912 217.047883 
L 197.871583 217.671611 
L 199.302926 217.510915 
L 200.018597 217.728 
L 200.734269 217.451667 
L 201.44994 218.057958 
L 202.165611 217.442229 
L 202.881283 218.236235 
L 204.312625 217.308583 
L 205.028297 216.517565 
L 207.175311 217.575184 
L 207.890982 216.751101 
L 209.322325 217.258624 
L 210.753667 215.827774 
L 211.469339 215.808 
L 212.900681 215.134868 
L 213.616353 215.930114 
L 214.332024 216.179532 
L 215.047695 216.203294 
L 215.763367 215.381745 
L 216.479038 215.098916 
L 217.194709 214.598204 
L 218.626052 213.21685 
L 219.341723 213.775023 
L 220.057395 213.288902 
L 220.773066 213.540052 
L 221.488737 213.531429 
L 222.204409 213.138167 
L 222.92008 213.088788 
L 223.635752 212.870318 
L 224.351423 212.147341 
L 225.067094 212.522991 
L 225.782766 213.272019 
L 226.498437 212.889808 
L 227.214108 213.548024 
L 227.92978 213.291802 
L 228.645451 212.667429 
L 229.361122 213.277401 
L 230.076794 213.066276 
L 230.792465 212.694349 
L 231.508136 212.001724 
L 232.223808 211.677481 
L 232.939479 211.67699 
L 233.65515 211.31671 
L 234.370822 211.596387 
L 235.086493 211.358293 
L 236.517836 212.146668 
L 237.233507 211.870041 
L 237.949178 212.102975 
L 238.66485 212.139699 
L 239.380521 211.711462 
L 240.096192 212.328 
L 242.958878 212.278154 
L 243.674549 211.897064 
L 244.39022 211.895764 
L 245.105892 212.345012 
L 245.821563 211.81839 
L 246.537234 212.115493 
L 247.252906 212.744455 
L 247.968577 212.555095 
L 248.684248 212.772435 
L 250.831263 214.034252 
L 251.546934 213.408 
L 252.262605 213.835253 
L 252.978277 213.358448 
L 253.693948 213.100551 
L 254.409619 213.703155 
L 255.125291 213.7667 
L 255.840962 214.398092 
L 257.272305 215.365224 
L 258.703647 215.688365 
L 259.419319 215.464416 
L 260.13499 215.902648 
L 260.850661 215.991338 
L 262.282004 214.825063 
L 262.997675 214.710857 
L 264.429018 215.063645 
L 265.144689 214.814068 
L 265.860361 215.005808 
L 267.291703 215.049516 
L 268.723046 215.726456 
L 269.438717 215.546182 
L 270.87006 214.429691 
L 271.585731 214.255543 
L 272.301403 214.410601 
L 273.017074 214.76081 
L 273.732745 214.522116 
L 274.448417 214.090105 
L 275.164088 214.114173 
L 276.595431 213.872365 
L 277.311102 214.15338 
L 278.026774 214.017154 
L 278.742445 214.104774 
L 279.458116 214.604582 
L 280.889459 214.080351 
L 281.60513 213.506271 
L 282.320802 213.123918 
L 283.036473 213.212702 
L 283.752144 212.958284 
L 285.183487 213.197127 
L 285.899158 213.253714 
L 286.61483 212.971578 
L 288.046172 212.962816 
L 289.477515 213.80487 
L 290.193186 213.737395 
L 290.908858 213.42876 
L 291.624529 213.904725 
L 292.3402 214.167705 
L 293.055872 213.770805 
L 293.771543 214.092264 
L 294.487214 213.608757 
L 295.202886 213.89912 
L 295.918557 213.419086 
L 297.3499 213.613714 
L 298.065571 213.929916 
L 298.781242 213.484686 
L 299.496914 213.21685 
L 300.212585 213.560471 
L 300.928257 213.583551 
L 301.643928 213.779729 
L 302.359599 213.74446 
L 303.790942 214.59041 
L 304.506613 214.410411 
L 305.222285 214.032257 
L 305.937956 213.514404 
L 306.653627 213.169277 
L 307.369299 213.531429 
L 308.08497 214.032176 
L 309.516313 214.633544 
L 310.231984 214.541172 
L 310.947655 214.616209 
L 311.663327 214.163827 
L 312.378998 214.516091 
L 313.094669 214.121679 
L 313.810341 214.389584 
L 315.241683 214.291831 
L 315.957355 214.120612 
L 317.388697 214.866085 
L 318.104369 215.181652 
L 318.82004 215.009874 
L 319.535711 214.973559 
L 320.251383 215.39359 
L 320.967054 215.195875 
L 322.398397 215.522255 
L 323.114068 215.086894 
L 324.545411 214.69839 
L 325.976754 214.497848 
L 327.408096 214.038204 
L 328.123768 213.588746 
L 329.55511 213.474412 
L 330.270782 213.004111 
L 331.702124 213.228 
L 332.417796 213.172364 
L 333.133467 212.707719 
L 335.280481 213.561889 
L 335.996152 213.708659 
L 336.711824 213.248585 
L 338.143166 214.094238 
L 339.574509 213.631421 
L 340.29018 213.825662 
L 341.005852 214.242775 
L 341.721523 214.409694 
L 342.437194 214.452039 
L 343.868537 214.142108 
L 346.731222 212.653714 
L 347.446894 212.967184 
L 348.162565 212.721106 
L 348.878236 212.815059 
L 349.593908 212.473987 
L 350.309579 212.568084 
L 351.025251 212.301347 
L 351.740922 212.179706 
L 352.456593 212.202106 
L 353.172265 212.415205 
L 355.319279 213.521957 
L 356.03495 213.351896 
L 356.750621 213.347611 
L 357.466293 213.601959 
L 358.181964 213.64401 
L 360.328978 214.514199 
L 361.760321 214.708926 
L 362.475992 214.354671 
L 363.191663 214.440417 
L 363.907335 214.801966 
L 365.338677 214.603625 
L 366.77002 215.114051 
L 368.201363 214.439409 
L 368.917034 214.727214 
L 369.632705 214.448811 
L 371.064048 215.020444 
L 371.779719 215.304312 
L 373.211062 215.175654 
L 373.926733 215.256642 
L 374.642405 215.604139 
L 375.358076 215.750369 
L 376.789419 215.068901 
L 377.50509 214.862694 
L 378.220762 215.009273 
L 378.936433 214.738286 
L 379.652104 214.818808 
L 380.367776 215.161123 
L 381.083447 214.956988 
L 381.799118 215.232242 
L 382.51479 215.115655 
L 383.946132 214.55991 
L 384.661804 214.553352 
L 385.377475 214.331697 
L 386.093146 214.261267 
L 386.808818 213.869853 
L 387.524489 213.651117 
L 388.24016 213.753227 
L 389.671503 213.446488 
L 390.387174 213.484812 
L 391.102846 213.67098 
L 391.818517 214.004044 
L 392.534188 213.640909 
L 393.24986 213.426383 
L 393.965531 213.086981 
L 395.396874 212.913503 
L 396.828216 213.157245 
L 397.543888 212.946439 
L 399.690902 212.91712 
L 401.122244 212.849877 
L 401.837916 212.560389 
L 402.553587 212.680972 
L 403.98493 212.53382 
L 406.847615 212.303706 
L 407.563287 212.04021 
L 408.278958 212.179999 
L 408.994629 212.018174 
L 409.710301 212.037267 
L 410.425972 211.916363 
L 411.857315 212.233438 
L 413.288657 211.635883 
L 414.004329 211.873182 
L 414.72 211.754057 
L 414.72 211.754057 
" style="fill:none;stroke:#ff7f0e;stroke-linecap:square;stroke-width:1.5;"/>
   </g>
   <g id="line2d_14">
    <path clip-path="url(#pf6726cfbc2)" d="M 57.6 270.802286 
L 58.315671 295.488 
L 59.031343 211.556571 
L 59.747014 255.990857 
L 60.462685 231.305143 
L 61.178357 223.076571 
L 61.894028 239.768816 
L 62.609699 246.116571 
L 63.325371 245.568 
L 64.041042 224.393143 
L 64.756713 212.454234 
L 65.472385 202.505143 
L 66.188056 206.239648 
L 66.903727 214.377796 
L 67.619399 214.848 
L 68.33507 207.236571 
L 69.050741 213.299092 
L 69.766413 207.168 
L 70.482084 215.194466 
L 71.197756 217.974857 
L 71.913427 213.907592 
L 72.629098 213.351896 
L 73.34477 215.849739 
L 74.776112 229.330286 
L 75.491784 226.74778 
L 76.207455 222.528 
L 76.923126 216.846367 
L 77.638798 218.366424 
L 78.354469 222.089143 
L 79.07014 222.704959 
L 79.785812 222.048 
L 80.501483 227.116052 
L 81.217154 223.173378 
L 81.932826 222.559347 
L 82.648497 219.510857 
L 83.364168 222.76522 
L 84.07984 221.171008 
L 84.795511 217.379868 
L 85.511182 216.740571 
L 86.226854 218.781659 
L 86.942525 217.669224 
L 87.658196 218.215973 
L 88.373868 218.064623 
L 89.089539 217.261714 
L 89.80521 219.928248 
L 90.520882 218.489581 
L 91.236553 214.848 
L 91.952224 216.594472 
L 92.667896 218.666057 
L 93.383567 219.688336 
L 94.099238 219.721846 
L 94.81491 219.381477 
L 96.246253 219.456 
L 96.961924 216.670041 
L 97.677595 214.674767 
L 98.393267 211.726818 
L 99.108938 212.560736 
L 99.824609 211.885714 
L 100.540281 214.632169 
L 101.255952 216.81224 
L 101.971623 217.51249 
L 102.687295 217.265143 
L 103.402966 218.544527 
L 104.118637 216.643325 
L 104.834309 217.009535 
L 105.54998 215.477244 
L 106.265651 216.708373 
L 107.696994 214.894358 
L 108.412665 215.945143 
L 109.128337 213.991327 
L 109.844008 215.55966 
L 110.559679 215.7696 
L 111.275351 213.765293 
L 112.706693 216.367121 
L 113.422365 215.931255 
L 114.138036 214.765714 
L 114.853707 212.653714 
L 116.28505 215.839394 
L 117.000721 214.848 
L 117.716393 215.157782 
L 118.432064 214.886272 
L 119.147735 214.167015 
L 119.863407 215.932675 
L 120.579078 217.21487 
L 121.294749 216.164571 
L 122.010421 215.354374 
L 122.726092 213.810484 
L 123.441764 213.149198 
L 124.157435 212.291891 
L 124.873106 213.323549 
L 125.588778 212.893714 
L 126.304449 211.658368 
L 127.735792 210.359688 
L 128.451463 211.260343 
L 129.167134 211.458806 
L 129.882806 213.202286 
L 130.598477 213.473908 
L 131.314148 212.031297 
L 132.02982 213.061224 
L 132.745491 214.537488 
L 133.461162 212.940817 
L 134.892505 210.922443 
L 135.608176 212.184935 
L 136.323848 211.645529 
L 137.039519 213.231673 
L 137.75519 213.129466 
L 138.470862 212.249504 
L 139.186533 212.501068 
L 139.902204 213.259034 
L 140.617876 212.906901 
L 142.049218 212.967184 
L 142.76489 213.942857 
L 143.480561 215.392038 
L 144.196232 215.279663 
L 144.911904 216.533854 
L 146.343246 214.084389 
L 147.058918 213.750857 
L 147.774589 213.96683 
L 149.921603 211.708484 
L 150.637275 212.461086 
L 151.352946 211.855792 
L 152.068617 212.373242 
L 152.784289 213.104034 
L 153.49996 214.043429 
L 154.215631 213.153882 
L 154.931303 212.925998 
L 155.646974 213.202286 
L 156.362645 213.687712 
L 157.793988 214.217726 
L 158.509659 213.781763 
L 159.225331 215.009119 
L 159.941002 214.848 
L 160.656673 215.165793 
L 161.372345 214.397119 
L 162.088016 215.116688 
L 162.803687 215.426224 
L 163.519359 216.328038 
L 164.23503 215.835429 
L 164.950701 215.872484 
L 165.666373 215.779128 
L 166.382044 214.912538 
L 167.097715 213.736609 
L 167.813387 214.041069 
L 168.529058 214.974593 
L 169.244729 215.581758 
L 169.960401 214.681345 
L 170.676072 214.040668 
L 171.391743 213.099429 
L 172.107415 213.273839 
L 172.823086 214.055619 
L 173.538758 214.100866 
L 174.254429 214.807861 
L 174.9701 215.207065 
L 176.401443 215.636366 
L 177.117114 214.554122 
L 177.832786 214.010536 
L 178.548457 214.576941 
L 179.264128 215.309955 
L 179.9798 214.771455 
L 180.695471 215.266563 
L 182.842485 217.728 
L 183.558156 217.358412 
L 184.273828 217.991499 
L 184.989499 218.838168 
L 185.70517 218.413714 
L 186.420842 218.212167 
L 187.136513 218.338361 
L 187.852184 217.330061 
L 189.283527 218.281761 
L 189.999198 217.927078 
L 190.71487 218.526655 
L 191.430541 217.649216 
L 193.577555 218.535779 
L 194.293226 218.808 
L 195.008898 218.82159 
L 195.724569 217.918869 
L 196.44024 218.443253 
L 197.155912 219.26456 
L 197.871583 219.726666 
L 198.587255 219.835013 
L 199.302926 219.545315 
L 200.018597 219.011657 
L 200.734269 218.974567 
L 201.44994 218.400136 
L 202.881283 219.059092 
L 203.596954 218.492655 
L 204.312625 219.177986 
L 205.743968 217.443165 
L 206.459639 218.12368 
L 207.175311 217.246041 
L 207.890982 217.687052 
L 209.322325 216.09967 
L 210.037996 216.447573 
L 210.753667 216.654458 
L 211.469339 217.088 
L 212.18501 217.654057 
L 212.900681 217.943151 
L 214.332024 216.628364 
L 215.047695 217.096895 
L 215.763367 217.872556 
L 216.479038 217.135764 
L 217.194709 217.551673 
L 217.910381 217.525029 
L 218.626052 217.149087 
L 219.341723 217.341946 
L 220.057395 216.883489 
L 220.773066 216.817108 
L 221.488737 217.524075 
L 222.204409 217.113529 
L 222.92008 216.876768 
L 223.635752 217.320103 
L 224.351423 217.211077 
L 225.067094 217.691234 
L 225.782766 217.079477 
L 226.498437 216.722864 
L 227.214108 217.364975 
L 227.92978 217.010152 
L 228.645451 217.645714 
L 229.361122 217.415587 
L 230.076794 217.554588 
L 230.792465 218.261333 
L 232.939479 219.223192 
L 233.65515 218.71243 
L 234.370822 218.92247 
L 235.086493 218.9722 
L 235.802164 218.547566 
L 236.517836 218.637732 
L 237.233507 217.94351 
L 238.66485 216.921341 
L 239.380521 217.558588 
L 240.096192 217.689429 
L 240.811864 217.665565 
L 241.527535 217.412252 
L 242.243206 217.885264 
L 242.958878 217.519121 
L 243.674549 217.344946 
L 244.39022 217.77511 
L 245.105892 217.563741 
L 245.821563 217.503584 
L 246.537234 217.630189 
L 248.684248 216.088426 
L 249.39992 215.888042 
L 250.115591 215.908571 
L 250.831263 216.548369 
L 251.546934 215.949176 
L 252.978277 216.890127 
L 253.693948 216.511668 
L 254.409619 216.457938 
L 255.125291 216.903658 
L 255.840962 217.204095 
L 256.556633 217.077677 
L 257.272305 217.12849 
L 257.987976 217.741177 
L 259.419319 216.685617 
L 260.13499 217.050012 
L 262.282004 216.992589 
L 262.997675 217.522286 
L 263.713347 217.057471 
L 264.429018 217.549241 
L 265.860361 218.116885 
L 266.576032 217.723787 
L 268.007375 216.610867 
L 268.723046 216.426996 
L 269.438717 216.477091 
L 270.154389 216.195498 
L 270.87006 216.774421 
L 271.585731 217.119086 
L 272.301403 216.674141 
L 273.017074 217.180337 
L 274.448417 216.201383 
L 275.164088 216.348028 
L 275.87976 216.009681 
L 276.595431 215.898684 
L 277.311102 215.948705 
L 278.026774 216.126225 
L 278.742445 215.761106 
L 279.458116 215.779337 
L 280.173788 215.987341 
L 280.889459 215.563071 
L 281.60513 215.707545 
L 283.036473 214.743841 
L 284.467816 215.065358 
L 285.183487 214.74482 
L 286.61483 215.063327 
L 287.330501 215.236429 
L 288.046172 214.705337 
L 288.761844 214.695619 
L 289.477515 214.959402 
L 290.193186 215.463881 
L 290.908858 215.300949 
L 292.3402 216.178578 
L 293.055872 216.044883 
L 293.771543 216.538462 
L 294.487214 216.791133 
L 295.202886 216.894023 
L 295.918557 216.818915 
L 296.634228 216.478977 
L 297.3499 216.699429 
L 298.065571 216.156758 
L 298.781242 215.938651 
L 299.496914 216.100491 
L 300.212585 215.56437 
L 300.928257 215.842185 
L 301.643928 215.974015 
L 302.359599 216.450532 
L 303.075271 216.723349 
L 303.790942 216.364919 
L 305.222285 216.877872 
L 305.937956 216.805833 
L 306.653627 216.621033 
L 308.08497 217.070418 
L 308.800641 217.223065 
L 309.516313 217.542682 
L 310.947655 217.175179 
L 311.663327 217.242607 
L 312.378998 216.894771 
L 313.094669 217.376332 
L 313.810341 217.717686 
L 314.526012 217.618286 
L 315.241683 217.327968 
L 315.957355 217.202917 
L 316.673026 217.29617 
L 317.388697 217.524546 
L 318.104369 217.913988 
L 318.82004 217.491934 
L 319.535711 217.879343 
L 320.251383 218.049988 
L 320.967054 218.407024 
L 321.682725 218.281761 
L 323.829739 219.180685 
L 324.545411 218.896281 
L 325.261082 218.745051 
L 325.976754 218.410796 
L 326.692425 218.7593 
L 327.408096 218.47902 
L 328.123768 218.434702 
L 328.839439 218.520541 
L 329.55511 218.787348 
L 330.270782 218.897663 
L 330.986453 218.749589 
L 331.702124 218.293714 
L 333.133467 218.412293 
L 334.56481 218.83504 
L 335.280481 218.511724 
L 336.711824 218.652925 
L 338.858838 219.651481 
L 341.005852 219.117737 
L 341.721523 218.9995 
L 342.437194 219.030342 
L 343.152866 218.814171 
L 343.868537 219.091563 
L 344.584208 219.146507 
L 345.29988 219.323689 
L 346.015551 219.744407 
L 348.162565 218.762131 
L 349.593908 218.895894 
L 351.740922 218.027584 
L 353.172265 218.497193 
L 354.603607 218.463824 
L 355.319279 218.09207 
L 358.181964 219.155784 
L 358.897635 218.739997 
L 359.613307 218.606298 
L 360.328978 218.938997 
L 361.760321 218.301682 
L 362.475992 218.124012 
L 363.907335 217.379868 
L 364.623006 217.389289 
L 365.338677 217.696499 
L 366.054349 217.568 
L 366.77002 217.896182 
L 367.485691 217.858823 
L 368.201363 217.708138 
L 370.348377 218.477589 
L 371.064048 218.326868 
L 371.779719 218.356364 
L 372.495391 218.52007 
L 373.926733 219.201899 
L 374.642405 219.16244 
L 376.073747 218.641261 
L 376.789419 219.023034 
L 377.50509 218.609633 
L 378.936433 218.885486 
L 379.652104 219.110072 
L 380.367776 218.918594 
L 381.799118 218.907912 
L 382.51479 218.718141 
L 383.230461 218.659128 
L 383.946132 219.032508 
L 384.661804 219.2749 
L 385.377475 219.38716 
L 386.093146 219.327205 
L 386.808818 219.438865 
L 387.524489 219.806516 
L 388.955832 219.707113 
L 389.671503 219.41353 
L 390.387174 219.502617 
L 391.818517 218.962286 
L 392.534188 219.220196 
L 393.24986 218.846736 
L 395.396874 219.218015 
L 396.112545 219.41017 
L 396.828216 219.76782 
L 397.543888 219.70908 
L 400.406573 220.916571 
L 401.122244 221.040813 
L 402.553587 220.756217 
L 403.269259 221.063632 
L 403.98493 220.677561 
L 404.700601 220.821333 
L 406.131944 220.176337 
L 406.847615 220.118324 
L 407.563287 220.322519 
L 408.278958 220.184002 
L 408.994629 220.347094 
L 409.710301 220.189061 
L 410.425972 220.391459 
L 413.288657 220.241184 
L 414.72 219.574491 
L 414.72 219.574491 
" style="fill:none;stroke:#2ca02c;stroke-linecap:square;stroke-width:1.5;"/>
   </g>
   <g id="line2d_15">
    <path clip-path="url(#pf6726cfbc2)" d="M 57.6 241.179429 
L 58.315671 251.053714 
L 59.031343 221.430857 
L 59.747014 246.116571 
L 60.462685 213.531429 
L 61.178357 241.179429 
L 61.894028 260.928 
L 62.609699 264.630857 
L 63.325371 260.928 
L 64.756713 279.778909 
L 65.472385 281.499429 
L 66.188056 286.753055 
L 66.903727 290.550857 
L 67.619399 285.284571 
L 68.33507 278.825143 
L 69.050741 284.161613 
L 69.766413 274.093714 
L 70.482084 273.920481 
L 71.197756 273.270857 
L 71.913427 273.62351 
L 73.34477 263.074584 
L 74.060441 260.105143 
L 74.776112 264.087771 
L 75.491784 255.231297 
L 76.207455 252.882286 
L 76.923126 255.638204 
L 77.638798 255.139626 
L 78.354469 259.282286 
L 79.785812 254.139429 
L 80.501483 254.045922 
L 81.217154 256.281277 
L 81.932826 257.542531 
L 82.648497 257.910857 
L 83.364168 254.256185 
L 84.07984 254.691609 
L 84.795511 253.838769 
L 85.511182 249.572571 
L 86.226854 249.849533 
L 86.942525 247.762286 
L 87.658196 251.053714 
L 88.373868 249.707221 
L 89.089539 250.834286 
L 90.520882 244.120705 
L 91.236553 245.910857 
L 91.952224 244.202169 
L 92.667896 245.919086 
L 93.383567 248.343126 
L 94.099238 245.546901 
L 94.81491 243.601423 
L 95.530581 243.739429 
L 96.246253 245.847273 
L 96.961924 247.174531 
L 97.677595 244.124391 
L 98.393267 241.690167 
L 99.108938 241.179429 
L 99.824609 242.331429 
L 100.540281 241.826923 
L 101.255952 242.931318 
L 101.971623 243.687184 
L 102.687295 245.345143 
L 103.402966 244.369582 
L 104.118637 244.321247 
L 104.834309 246.485015 
L 105.54998 247.133042 
L 106.265651 249.193342 
L 106.981323 248.796735 
L 107.696994 246.742406 
L 108.412665 247.762286 
L 109.128337 248.348431 
L 109.844008 246.116571 
L 110.559679 243.285943 
L 111.991022 244.513603 
L 112.706693 242.698549 
L 113.422365 242.304347 
L 114.138036 243.277714 
L 114.853707 243.008 
L 115.569379 244.671554 
L 116.28505 244.272578 
L 117.000721 244.941061 
L 117.716393 245.826151 
L 120.579078 237.185335 
L 121.294749 238.875429 
L 122.010421 239.660308 
L 122.726092 237.637565 
L 123.441764 235.976848 
L 124.157435 235.717058 
L 125.588778 233.259429 
L 126.304449 234.155452 
L 127.02012 232.614997 
L 127.735792 230.806442 
L 128.451463 229.725257 
L 129.167134 229.643134 
L 129.882806 228.304134 
L 130.598477 229.004338 
L 131.314148 228.551736 
L 132.745491 228.789995 
L 133.461162 228.075236 
L 134.176834 228.013714 
L 134.892505 229.130988 
L 135.608176 229.958649 
L 136.323848 230.504525 
L 137.039519 231.745959 
L 137.75519 231.305143 
L 138.470862 231.564992 
L 139.186533 230.961689 
L 139.902204 231.22002 
L 140.617876 230.714374 
L 141.333547 230.970421 
L 142.049218 232.134915 
L 142.76489 232.457143 
L 143.480561 233.508496 
L 144.911904 232.75016 
L 145.627575 233.057032 
L 146.343246 231.542126 
L 147.058918 232.715755 
L 148.490261 232.925143 
L 149.921603 233.735736 
L 150.637275 234.169439 
L 151.352946 232.726442 
L 152.068617 233.309697 
L 152.784289 232.852606 
L 153.49996 231.524571 
L 154.215631 232.539429 
L 154.931303 232.097969 
L 155.646974 231.305143 
L 156.362645 232.228637 
L 157.078317 231.728327 
L 157.793988 231.865386 
L 158.509659 231.652829 
L 159.225331 231.995652 
L 159.941002 230.825143 
L 160.656673 229.875074 
L 161.372345 229.614341 
L 162.088016 229.760187 
L 162.803687 229.170162 
L 163.519359 229.913465 
L 164.23503 230.317714 
L 165.666373 231.564992 
L 166.382044 230.401613 
L 167.097715 230.151006 
L 168.529058 229.912615 
L 170.676072 230.435709 
L 171.391743 229.762286 
L 172.107415 230.569171 
L 172.823086 230.695619 
L 173.538758 229.48779 
L 174.254429 229.619289 
L 174.9701 230.467325 
L 175.685772 230.531855 
L 176.401443 229.708701 
L 177.117114 229.189224 
L 177.832786 229.201745 
L 178.548457 229.039866 
L 179.264128 229.399579 
L 179.9798 229.984744 
L 180.695471 229.193301 
L 181.411142 228.6947 
L 182.126814 229.555984 
L 182.842485 228.443844 
L 184.273828 229.807358 
L 184.989499 230.257034 
L 185.70517 229.988571 
L 186.420842 230.59594 
L 187.136513 229.569005 
L 187.852184 228.823082 
L 188.567856 229.426882 
L 189.283527 228.476293 
L 189.999198 227.748276 
L 190.71487 227.344868 
L 191.430541 227.418456 
L 193.577555 225.256497 
L 194.293226 225.082286 
L 195.008898 225.62615 
L 195.724569 225.350032 
L 196.44024 224.519736 
L 197.155912 225.108525 
L 197.871583 225.089856 
L 199.302926 225.598897 
L 200.734269 225.60655 
L 201.44994 225.097052 
L 202.165611 224.300723 
L 202.881283 223.705815 
L 203.596954 224.224557 
L 204.312625 224.498596 
L 205.743968 225.845802 
L 206.459639 225.446715 
L 207.175311 225.380571 
L 207.890982 225.689435 
L 208.606653 225.063849 
L 209.322325 225.046793 
L 210.037996 224.522339 
L 210.753667 224.829449 
L 211.469339 224.859429 
L 212.18501 224.570607 
L 212.900681 225.054448 
L 213.616353 224.85755 
L 214.332024 224.886857 
L 215.047695 225.228659 
L 215.763367 224.588849 
L 216.479038 224.220454 
L 217.194709 223.723102 
L 218.626052 224.489264 
L 219.341723 224.388793 
L 220.057395 223.986045 
L 221.488737 224.135553 
L 222.92008 223.473813 
L 223.635752 223.846455 
L 224.351423 224.511297 
L 226.498437 225.513895 
L 227.214108 224.915899 
L 227.92978 224.488167 
L 228.645451 224.969143 
L 229.361122 225.077378 
L 230.076794 225.347929 
L 230.792465 224.803556 
L 231.508136 224.911138 
L 232.223808 225.340268 
L 232.939479 225.484934 
L 233.65515 224.948821 
L 234.370822 225.014267 
L 235.086493 224.524007 
L 235.802164 223.87968 
L 236.517836 224.145302 
L 237.233507 223.781878 
L 237.949178 223.031038 
L 238.66485 223.180238 
L 239.380521 223.560605 
L 240.811864 223.198239 
L 241.527535 223.497568 
L 242.243206 223.603962 
L 243.674549 224.192631 
L 244.39022 224.596659 
L 245.105892 224.509532 
L 245.821563 223.974234 
L 246.537234 223.256668 
L 247.252906 223.39829 
L 247.968577 223.797727 
L 249.39992 223.376348 
L 250.115591 223.698286 
L 250.831263 223.507736 
L 251.546934 222.846655 
L 252.262605 222.877639 
L 252.978277 222.403871 
L 253.693948 222.723491 
L 254.409619 222.289491 
L 255.125291 222.001213 
L 255.840962 221.928123 
L 256.556633 221.430857 
L 257.272305 221.71298 
L 257.987976 222.133653 
L 258.703647 222.131161 
L 259.419319 222.721841 
L 260.13499 222.265304 
L 260.850661 222.816722 
L 262.282004 222.428607 
L 262.997675 222.219429 
L 264.429018 223.235468 
L 265.144689 223.500725 
L 266.576032 222.879984 
L 267.291703 223.143743 
L 268.007375 222.501966 
L 268.723046 222.331552 
L 269.438717 222.528 
L 270.154389 222.491183 
L 270.87006 222.289491 
L 271.585731 222.6816 
L 272.301403 222.250981 
L 273.017074 222.607924 
L 274.448417 222.665143 
L 275.164088 222.143101 
L 276.595431 221.656004 
L 277.311102 221.494976 
L 278.026774 221.462813 
L 278.742445 221.239742 
L 280.173788 221.494154 
L 281.60513 222.248473 
L 282.320802 222.277224 
L 283.036473 222.618271 
L 283.752144 222.707973 
L 285.899158 221.245714 
L 286.61483 220.90792 
L 287.330501 220.786882 
L 288.046172 221.064011 
L 289.477515 221.127033 
L 290.193186 220.582759 
L 291.624529 220.678244 
L 292.3402 220.740558 
L 293.055872 220.593039 
L 293.771543 220.028768 
L 294.487214 220.181701 
L 295.202886 220.689544 
L 295.918557 220.6622 
L 297.3499 220.020245 
L 298.065571 219.877928 
L 298.781242 219.56117 
L 299.496914 219.770579 
L 300.928257 219.896144 
L 301.643928 219.756271 
L 303.790942 218.454261 
L 304.506613 218.206018 
L 305.222285 218.386049 
L 305.937956 217.912433 
L 306.653627 217.922515 
L 307.369299 218.355722 
L 308.08497 218.026901 
L 309.516313 218.158077 
L 310.947655 217.286439 
L 311.663327 217.658658 
L 312.378998 217.420293 
L 313.094669 217.817641 
L 313.810341 217.497646 
L 314.526012 217.042286 
L 315.241683 217.273263 
L 315.957355 217.011978 
L 316.673026 217.105757 
L 317.388697 217.551673 
L 318.104369 217.751671 
L 318.82004 217.464956 
L 319.535711 217.556478 
L 320.251383 217.084025 
L 320.967054 217.550718 
L 321.682725 217.854764 
L 322.398397 217.784558 
L 323.114068 217.290028 
L 323.829739 217.062876 
L 324.545411 217.496984 
L 325.976754 217.754261 
L 326.692425 217.502096 
L 327.408096 217.068408 
L 328.839439 216.779549 
L 329.55511 216.532589 
L 332.417796 216.942545 
L 333.849138 216.098233 
L 335.280481 215.287985 
L 339.574509 216.706199 
L 340.29018 216.66826 
L 341.005852 216.928979 
L 341.721523 216.91548 
L 342.437194 217.025787 
L 343.152866 217.333029 
L 344.584208 216.54284 
L 346.015551 215.956006 
L 347.446894 216.420752 
L 348.162565 216.214711 
L 348.878236 216.300101 
L 349.593908 216.723068 
L 351.025251 216.529752 
L 352.456593 217.079477 
L 353.172265 216.63682 
L 353.887936 216.386644 
L 354.603607 216.422505 
L 355.319279 216.079326 
L 356.03495 216.162997 
L 356.750621 216.034171 
L 357.466293 216.423184 
L 358.897635 216.37672 
L 359.613307 216.201921 
L 360.328978 216.423849 
L 361.044649 216.040659 
L 361.760321 215.983775 
L 362.475992 215.649659 
L 363.191663 215.893874 
L 365.338677 215.703313 
L 366.77002 215.296486 
L 368.201363 215.143094 
L 368.917034 215.225457 
L 369.632705 214.878127 
L 371.779719 215.483844 
L 372.495391 215.139079 
L 373.211062 214.929913 
L 373.926733 214.944588 
L 375.358076 215.195634 
L 378.220762 214.635413 
L 378.936433 214.496914 
L 381.083447 214.956988 
L 381.799118 214.753752 
L 383.946132 215.402573 
L 384.661804 215.135461 
L 385.377475 215.170689 
L 386.093146 215.076969 
L 386.808818 215.347783 
L 387.524489 215.061729 
L 388.955832 215.216867 
L 392.534188 216.209486 
L 393.24986 216.052523 
L 393.965531 216.168764 
L 394.681202 215.866111 
L 395.396874 215.898752 
L 396.112545 215.722937 
L 397.543888 216.203294 
L 398.259559 216.027946 
L 398.97523 216.183852 
L 399.690902 216.524636 
L 400.406573 216.432 
L 401.122244 216.052348 
L 401.837916 216.165937 
L 402.553587 216.054176 
L 403.98493 216.503894 
L 405.416273 215.75365 
L 406.131944 216.048562 
L 406.847615 215.898026 
L 408.994629 214.968418 
L 409.710301 215.121729 
L 410.425972 215.474304 
L 411.141643 215.685818 
L 412.572986 215.192375 
L 413.288657 215.423009 
L 414.72 215.506286 
L 414.72 215.506286 
" style="fill:none;stroke:#d62728;stroke-linecap:square;stroke-width:1.5;"/>
   </g>
   <g id="line2d_16">
    <path clip-path="url(#pf6726cfbc2)" d="M 57.6 260.928 
L 58.315671 147.373714 
L 59.031343 145.728 
L 59.747014 201.682286 
L 60.462685 183.908571 
L 61.178357 204.973714 
L 61.894028 208.735347 
L 62.609699 188.105143 
L 63.325371 208.265143 
L 64.041042 213.531429 
L 64.756713 207.06826 
L 65.472385 209.088 
L 66.188056 210.037451 
L 66.903727 216.493714 
L 67.619399 224.722286 
L 68.33507 226.985143 
L 69.050741 221.430857 
L 69.766413 221.430857 
L 70.482084 223.509654 
L 71.197756 230.811429 
L 71.913427 230.834939 
L 72.629098 234.895792 
L 73.34477 240.750112 
L 74.060441 239.533714 
L 74.776112 239.994514 
L 75.491784 238.141187 
L 76.207455 230.573714 
L 76.923126 231.305143 
L 77.638798 227.900217 
L 78.354469 231.963429 
L 79.07014 233.216295 
L 79.785812 237.476571 
L 80.501483 233.100468 
L 81.217154 233.628504 
L 81.932826 238.076082 
L 82.648497 234.048 
L 83.364168 232.372633 
L 84.07984 232.084692 
L 84.795511 232.064703 
L 85.511182 235.008 
L 86.226854 235.158523 
L 86.942525 232.715755 
L 87.658196 234.749661 
L 88.373868 232.427221 
L 89.089539 233.938286 
L 90.520882 235.086784 
L 91.236553 235.008 
L 91.952224 236.947592 
L 92.667896 239.994514 
L 93.383567 238.856067 
L 94.099238 237.001846 
L 94.81491 233.54083 
L 95.530581 235.145143 
L 96.246253 235.075325 
L 96.961924 237.300245 
L 97.677595 238.927398 
L 98.393267 235.5613 
L 99.108938 236.995409 
L 99.824609 236.571429 
L 100.540281 237.941958 
L 101.255952 237.038599 
L 101.971623 234.910041 
L 102.687295 234.545143 
L 103.402966 234.03956 
L 104.118637 235.643844 
L 104.834309 233.957936 
L 105.54998 235.516235 
L 106.265651 237.601789 
L 106.981323 236.101224 
L 107.696994 237.285344 
L 108.412665 236.790857 
L 109.844008 240.912556 
L 110.559679 239.467886 
L 111.275351 241.439278 
L 111.991022 239.255866 
L 112.706693 238.900747 
L 113.422365 239.179573 
L 114.138036 239.328 
L 114.853707 237.766095 
L 115.569379 235.640195 
L 116.28505 236.896606 
L 117.000721 236.947592 
L 117.716393 234.790185 
L 118.432064 235.094113 
L 119.147735 234.596571 
L 119.863407 236.354494 
L 120.579078 236.075865 
L 121.294749 236.681143 
L 122.010421 234.451893 
L 122.726092 233.129739 
L 123.441764 232.89777 
L 124.873106 231.720902 
L 125.588778 232.745143 
L 127.02012 233.622577 
L 127.735792 234.895792 
L 128.451463 234.366171 
L 129.167134 235.509047 
L 129.882806 237.016739 
L 130.598477 237.632355 
L 131.314148 237.191736 
L 132.02982 237.699918 
L 132.745491 236.428593 
L 133.461162 236.011578 
L 134.176834 234.779429 
L 134.892505 235.834632 
L 135.608176 234.985558 
L 136.323848 234.507614 
L 137.75519 236.023828 
L 138.470862 235.722586 
L 139.186533 235.684174 
L 139.902204 234.710069 
L 140.617876 235.271736 
L 141.333547 234.9034 
L 142.049218 234.873162 
L 142.76489 234.596571 
L 143.480561 234.56937 
L 144.196232 235.028234 
L 144.911904 235.720474 
L 145.627575 234.72929 
L 146.343246 234.93888 
L 147.058918 233.342694 
L 147.774589 233.015649 
L 148.490261 233.696571 
L 149.205932 233.754578 
L 149.921603 233.963604 
L 150.637275 233.415677 
L 151.352946 233.923325 
L 152.068617 233.161212 
L 152.784289 234.105313 
L 153.49996 232.768 
L 154.215631 232.176403 
L 154.931303 232.602494 
L 155.646974 231.376696 
L 157.078317 229.330286 
L 157.793988 230.394748 
L 158.509659 230.818382 
L 159.225331 229.716971 
L 159.941002 230.345143 
L 160.656673 229.057892 
L 161.372345 228.93802 
L 162.088016 230.028875 
L 162.803687 229.97078 
L 163.519359 229.714654 
L 164.23503 230.581029 
L 164.950701 229.604935 
L 167.097715 226.047406 
L 167.813387 226.463558 
L 168.529058 226.17811 
L 169.244729 224.952895 
L 169.960401 224.930604 
L 170.676072 225.778027 
L 172.823086 222.528 
L 173.538758 223.24821 
L 174.254429 222.755456 
L 176.401443 225.628907 
L 177.117114 225.427592 
L 178.548457 224.567395 
L 180.695471 222.287009 
L 181.411142 222.111842 
L 182.842485 222.160208 
L 183.558156 222.881317 
L 184.989499 220.768894 
L 186.420842 219.848789 
L 187.136513 220.237262 
L 187.852184 220.135869 
L 188.567856 219.284273 
L 189.283527 219.936371 
L 189.999198 219.041917 
L 190.71487 218.790674 
L 191.430541 218.85724 
L 192.146212 219.132082 
L 192.861884 219.092211 
L 194.293226 220.813714 
L 195.008898 221.123885 
L 195.724569 221.634451 
L 196.44024 221.076396 
L 197.155912 220.725551 
L 197.871583 220.127652 
L 198.587255 220.982026 
L 199.302926 220.388847 
L 200.018597 221.233371 
L 200.734269 221.234354 
L 201.44994 221.870801 
L 202.165611 220.944439 
L 202.881283 220.946824 
L 203.596954 220.226676 
L 204.312625 220.232521 
L 205.028297 220.047503 
L 205.743968 219.579429 
L 207.175311 219.597061 
L 207.890982 219.371764 
L 208.606653 218.636248 
L 209.322325 218.927517 
L 210.037996 218.570083 
L 210.753667 218.078193 
L 214.332024 221.206442 
L 215.047695 220.894697 
L 215.763367 221.430857 
L 216.479038 220.766668 
L 217.910381 219.675429 
L 219.341723 220.734872 
L 220.057395 220.521383 
L 220.773066 219.964806 
L 221.488737 220.658087 
L 222.204409 219.977499 
L 222.92008 220.664749 
L 223.635752 221.091826 
L 224.351423 220.713495 
L 225.067094 220.674529 
L 225.782766 220.384852 
L 226.498437 220.305939 
L 227.214108 220.352154 
L 227.92978 220.728502 
L 228.645451 220.937143 
L 229.361122 221.512801 
L 230.076794 221.104434 
L 230.792465 220.333714 
L 231.508136 219.85259 
L 232.223808 219.57691 
L 232.939479 219.745003 
L 234.370822 218.803023 
L 235.086493 219.051511 
L 235.802164 219.534994 
L 236.517836 219.463868 
L 237.233507 219.745959 
L 238.66485 218.476346 
L 239.380521 218.991328 
L 240.096192 219.309429 
L 240.811864 218.818206 
L 241.527535 219.402419 
L 242.243206 218.762131 
L 242.958878 218.620484 
L 244.39022 218.566561 
L 245.105892 217.976734 
L 245.821563 218.326442 
L 246.537234 218.189111 
L 249.39992 219.595488 
L 250.115591 219.273143 
L 250.831263 219.463287 
L 251.546934 220.051361 
L 252.262605 220.345771 
L 253.693948 219.384187 
L 254.409619 219.71359 
L 255.125291 219.149434 
L 255.840962 219.264197 
L 256.556633 219.802839 
L 257.272305 219.843918 
L 257.987976 219.463028 
L 258.703647 219.785143 
L 259.419319 219.232695 
L 260.13499 219.205666 
L 260.850661 218.659128 
L 261.566333 218.496192 
L 263.713347 219.722503 
L 264.429018 219.660296 
L 265.144689 219.293125 
L 265.860361 219.672423 
L 267.291703 219.415697 
L 268.007375 219.757249 
L 268.723046 219.662826 
L 269.438717 220.034494 
L 270.87006 218.921005 
L 271.585731 218.863543 
L 273.732745 220.453205 
L 274.448417 220.034165 
L 275.164088 220.524365 
L 275.87976 220.46279 
L 276.595431 219.886995 
L 277.311102 219.507295 
L 278.026774 218.938319 
L 278.742445 219.487853 
L 279.458116 219.4306 
L 280.889459 219.695759 
L 281.60513 219.135243 
L 282.320802 219.079837 
L 283.036473 219.524745 
L 283.752144 219.655355 
L 285.183487 219.109317 
L 285.899158 218.561143 
L 286.61483 218.200951 
L 287.330501 218.118985 
L 288.046172 218.404373 
L 288.761844 217.926095 
L 290.193186 217.584126 
L 290.908858 217.052351 
L 291.624529 216.885073 
L 292.3402 216.89889 
L 293.055872 216.733091 
L 293.771543 216.956105 
L 294.487214 217.058809 
L 295.202886 216.745761 
L 295.918557 216.818915 
L 296.634228 216.272648 
L 297.3499 216.082286 
L 298.065571 216.24466 
L 299.496914 215.721831 
L 300.212585 215.85479 
L 300.928257 215.581574 
L 301.643928 215.078977 
L 302.359599 215.385376 
L 303.075271 215.431654 
L 303.790942 215.162832 
L 304.506613 214.638718 
L 305.222285 214.97131 
L 306.653627 214.612224 
L 308.08497 215.016791 
L 308.800641 215.399688 
L 309.516313 215.640554 
L 310.231984 216.075312 
L 310.947655 216.118213 
L 311.663327 216.604661 
L 312.378998 216.92243 
L 313.094669 216.907441 
L 314.526012 217.316571 
L 315.957355 216.821039 
L 316.673026 216.72493 
L 317.388697 216.466587 
L 318.82004 215.684347 
L 319.535711 215.834532 
L 320.251383 215.635081 
L 321.682725 216.14678 
L 323.114068 216.626433 
L 323.829739 216.268697 
L 324.545411 216.678527 
L 325.261082 216.217234 
L 325.976754 216.467453 
L 326.692425 216.402043 
L 327.408096 216.049633 
L 328.123768 216.115938 
L 328.839439 215.870075 
L 329.55511 215.910587 
L 330.986453 216.300354 
L 331.702124 215.928 
L 332.417796 215.762761 
L 333.849138 216.149262 
L 334.56481 215.832035 
L 335.996152 215.582242 
L 337.427495 215.612082 
L 338.143166 216.028894 
L 338.858838 216.167913 
L 339.574509 216.606206 
L 340.29018 216.643325 
L 341.721523 217.386866 
L 342.437194 217.495991 
L 343.868537 217.047758 
L 345.29988 217.241024 
L 346.015551 217.153629 
L 346.731222 216.725333 
L 347.446894 216.63964 
L 348.162565 216.748456 
L 348.878236 216.711529 
L 349.593908 216.457501 
L 350.309579 216.012042 
L 351.025251 216.169376 
L 352.456593 216.720847 
L 353.887936 216.148709 
L 354.603607 216.351297 
L 356.03495 215.832279 
L 356.750621 215.46858 
L 358.181964 216.106717 
L 358.897635 215.674757 
L 359.613307 215.851769 
L 360.328978 216.214253 
L 361.044649 216.11036 
L 361.760321 216.238744 
L 363.191663 216.9782 
L 363.907335 216.75841 
L 365.338677 216.963373 
L 366.054349 216.676571 
L 366.77002 216.254269 
L 368.201363 216.754759 
L 368.917034 216.629599 
L 370.348377 217.237667 
L 371.064048 217.224726 
L 371.779719 216.875221 
L 372.495391 217.064676 
L 373.211062 216.672434 
L 374.642405 216.226842 
L 375.358076 216.08321 
L 376.073747 216.13948 
L 377.50509 216.493714 
L 379.652104 216.110566 
L 380.367776 216.340794 
L 384.661804 214.618031 
L 385.377475 214.93405 
L 386.808818 215.005075 
L 387.524489 215.232712 
L 388.955832 215.450956 
L 389.671503 215.569991 
L 390.387174 215.201158 
L 391.818517 215.755253 
L 392.534188 215.998947 
L 393.24986 215.905459 
L 393.965531 215.518864 
L 395.396874 215.460359 
L 396.112545 215.681273 
L 396.828216 215.672589 
L 398.259559 216.172852 
L 398.97523 215.997934 
L 399.690902 215.658832 
L 400.406573 215.609143 
L 401.122244 215.72389 
L 401.837916 215.448925 
L 402.553587 215.440866 
L 403.269259 215.228826 
L 403.98493 214.895505 
L 404.700601 215.071492 
L 405.416273 214.760138 
L 406.847615 214.928771 
L 408.278958 214.291608 
L 408.994629 214.406467 
L 409.710301 214.761208 
L 411.141643 214.828052 
L 411.857315 214.542747 
L 412.572986 214.675813 
L 413.288657 214.47127 
L 414.004329 214.524794 
L 414.72 214.795337 
L 414.72 214.795337 
" style="fill:none;stroke:#9467bd;stroke-linecap:square;stroke-width:1.5;"/>
   </g>
   <g id="line2d_17">
    <path clip-path="url(#pf6726cfbc2)" d="M 57.6 206.619429 
L 414.72 206.619429 
L 414.72 206.619429 
" style="fill:none;stroke:#8c564b;stroke-linecap:square;stroke-width:1.5;"/>
   </g>
   <g id="patch_3">
    <path d="M 57.6 307.584 
L 57.6 41.472 
" style="fill:none;stroke:#000000;stroke-linecap:square;stroke-linejoin:miter;stroke-width:0.8;"/>
   </g>
   <g id="patch_4">
    <path d="M 414.72 307.584 
L 414.72 41.472 
" style="fill:none;stroke:#000000;stroke-linecap:square;stroke-linejoin:miter;stroke-width:0.8;"/>
   </g>
   <g id="patch_5">
    <path d="M 57.6 307.584 
L 414.72 307.584 
" style="fill:none;stroke:#000000;stroke-linecap:square;stroke-linejoin:miter;stroke-width:0.8;"/>
   </g>
   <g id="patch_6">
    <path d="M 57.6 41.472 
L 414.72 41.472 
" style="fill:none;stroke:#000000;stroke-linecap:square;stroke-linejoin:miter;stroke-width:0.8;"/>
   </g>
   <g id="text_14">
    <!-- Grafico valores promedio esperados vs valores promedio obtenidos -->
    <defs>
     <path d="M 59.515625 10.40625 
L 59.515625 29.984375 
L 43.40625 29.984375 
L 43.40625 38.09375 
L 69.28125 38.09375 
L 69.28125 6.78125 
Q 63.578125 2.734375 56.6875 0.65625 
Q 49.8125 -1.421875 42 -1.421875 
Q 24.90625 -1.421875 15.25 8.5625 
Q 5.609375 18.5625 5.609375 36.375 
Q 5.609375 54.25 15.25 64.234375 
Q 24.90625 74.21875 42 74.21875 
Q 49.125 74.21875 55.546875 72.453125 
Q 61.96875 70.703125 67.390625 67.28125 
L 67.390625 56.78125 
Q 61.921875 61.421875 55.765625 63.765625 
Q 49.609375 66.109375 42.828125 66.109375 
Q 29.4375 66.109375 22.71875 58.640625 
Q 16.015625 51.171875 16.015625 36.375 
Q 16.015625 21.625 22.71875 14.15625 
Q 29.4375 6.6875 42.828125 6.6875 
Q 48.046875 6.6875 52.140625 7.59375 
Q 56.25 8.5 59.515625 10.40625 
z
" id="DejaVuSans-47"/>
     <path d="M 37.109375 75.984375 
L 37.109375 68.5 
L 28.515625 68.5 
Q 23.6875 68.5 21.796875 66.546875 
Q 19.921875 64.59375 19.921875 59.515625 
L 19.921875 54.6875 
L 34.71875 54.6875 
L 34.71875 47.703125 
L 19.921875 47.703125 
L 19.921875 0 
L 10.890625 0 
L 10.890625 47.703125 
L 2.296875 47.703125 
L 2.296875 54.6875 
L 10.890625 54.6875 
L 10.890625 58.5 
Q 10.890625 67.625 15.140625 71.796875 
Q 19.390625 75.984375 28.609375 75.984375 
z
" id="DejaVuSans-66"/>
     <path d="M 48.78125 52.59375 
L 48.78125 44.1875 
Q 44.96875 46.296875 41.140625 47.34375 
Q 37.3125 48.390625 33.40625 48.390625 
Q 24.65625 48.390625 19.8125 42.84375 
Q 14.984375 37.3125 14.984375 27.296875 
Q 14.984375 17.28125 19.8125 11.734375 
Q 24.65625 6.203125 33.40625 6.203125 
Q 37.3125 6.203125 41.140625 7.25 
Q 44.96875 8.296875 48.78125 10.40625 
L 48.78125 2.09375 
Q 45.015625 0.34375 40.984375 -0.53125 
Q 36.96875 -1.421875 32.421875 -1.421875 
Q 20.0625 -1.421875 12.78125 6.34375 
Q 5.515625 14.109375 5.515625 27.296875 
Q 5.515625 40.671875 12.859375 48.328125 
Q 20.21875 56 33.015625 56 
Q 37.15625 56 41.109375 55.140625 
Q 45.0625 54.296875 48.78125 52.59375 
z
" id="DejaVuSans-63"/>
     <path d="M 2.984375 54.6875 
L 12.5 54.6875 
L 29.59375 8.796875 
L 46.6875 54.6875 
L 56.203125 54.6875 
L 35.6875 0 
L 23.484375 0 
z
" id="DejaVuSans-76"/>
     <path d="M 48.6875 27.296875 
Q 48.6875 37.203125 44.609375 42.84375 
Q 40.53125 48.484375 33.40625 48.484375 
Q 26.265625 48.484375 22.1875 42.84375 
Q 18.109375 37.203125 18.109375 27.296875 
Q 18.109375 17.390625 22.1875 11.75 
Q 26.265625 6.109375 33.40625 6.109375 
Q 40.53125 6.109375 44.609375 11.75 
Q 48.6875 17.390625 48.6875 27.296875 
z
M 18.109375 46.390625 
Q 20.953125 51.265625 25.265625 53.625 
Q 29.59375 56 35.59375 56 
Q 45.5625 56 51.78125 48.09375 
Q 58.015625 40.1875 58.015625 27.296875 
Q 58.015625 14.40625 51.78125 6.484375 
Q 45.5625 -1.421875 35.59375 -1.421875 
Q 29.59375 -1.421875 25.265625 0.953125 
Q 20.953125 3.328125 18.109375 8.203125 
L 18.109375 0 
L 9.078125 0 
L 9.078125 75.984375 
L 18.109375 75.984375 
z
" id="DejaVuSans-62"/>
     <path d="M 18.3125 70.21875 
L 18.3125 54.6875 
L 36.8125 54.6875 
L 36.8125 47.703125 
L 18.3125 47.703125 
L 18.3125 18.015625 
Q 18.3125 11.328125 20.140625 9.421875 
Q 21.96875 7.515625 27.59375 7.515625 
L 36.8125 7.515625 
L 36.8125 0 
L 27.59375 0 
Q 17.1875 0 13.234375 3.875 
Q 9.28125 7.765625 9.28125 18.015625 
L 9.28125 47.703125 
L 2.6875 47.703125 
L 2.6875 54.6875 
L 9.28125 54.6875 
L 9.28125 70.21875 
z
" id="DejaVuSans-74"/>
     <path d="M 54.890625 33.015625 
L 54.890625 0 
L 45.90625 0 
L 45.90625 32.71875 
Q 45.90625 40.484375 42.875 44.328125 
Q 39.84375 48.1875 33.796875 48.1875 
Q 26.515625 48.1875 22.3125 43.546875 
Q 18.109375 38.921875 18.109375 30.90625 
L 18.109375 0 
L 9.078125 0 
L 9.078125 54.6875 
L 18.109375 54.6875 
L 18.109375 46.1875 
Q 21.34375 51.125 25.703125 53.5625 
Q 30.078125 56 35.796875 56 
Q 45.21875 56 50.046875 50.171875 
Q 54.890625 44.34375 54.890625 33.015625 
z
" id="DejaVuSans-6e"/>
    </defs>
    <g transform="translate(32.971875 35.472)scale(0.12 -0.12)">
     <use xlink:href="#DejaVuSans-47"/>
     <use x="77.490234" xlink:href="#DejaVuSans-72"/>
     <use x="118.603516" xlink:href="#DejaVuSans-61"/>
     <use x="179.882812" xlink:href="#DejaVuSans-66"/>
     <use x="215.087891" xlink:href="#DejaVuSans-69"/>
     <use x="242.871094" xlink:href="#DejaVuSans-63"/>
     <use x="297.851562" xlink:href="#DejaVuSans-6f"/>
     <use x="359.033203" xlink:href="#DejaVuSans-20"/>
     <use x="390.820312" xlink:href="#DejaVuSans-76"/>
     <use x="450" xlink:href="#DejaVuSans-61"/>
     <use x="511.279297" xlink:href="#DejaVuSans-6c"/>
     <use x="539.0625" xlink:href="#DejaVuSans-6f"/>
     <use x="600.244141" xlink:href="#DejaVuSans-72"/>
     <use x="641.326172" xlink:href="#DejaVuSans-65"/>
     <use x="702.849609" xlink:href="#DejaVuSans-73"/>
     <use x="754.949219" xlink:href="#DejaVuSans-20"/>
     <use x="786.736328" xlink:href="#DejaVuSans-70"/>
     <use x="850.212891" xlink:href="#DejaVuSans-72"/>
     <use x="891.294922" xlink:href="#DejaVuSans-6f"/>
     <use x="952.476562" xlink:href="#DejaVuSans-6d"/>
     <use x="1049.888672" xlink:href="#DejaVuSans-65"/>
     <use x="1111.412109" xlink:href="#DejaVuSans-64"/>
     <use x="1174.888672" xlink:href="#DejaVuSans-69"/>
     <use x="1202.671875" xlink:href="#DejaVuSans-6f"/>
     <use x="1263.853516" xlink:href="#DejaVuSans-20"/>
     <use x="1295.640625" xlink:href="#DejaVuSans-65"/>
     <use x="1357.164062" xlink:href="#DejaVuSans-73"/>
     <use x="1409.263672" xlink:href="#DejaVuSans-70"/>
     <use x="1472.740234" xlink:href="#DejaVuSans-65"/>
     <use x="1534.263672" xlink:href="#DejaVuSans-72"/>
     <use x="1575.376953" xlink:href="#DejaVuSans-61"/>
     <use x="1636.65625" xlink:href="#DejaVuSans-64"/>
     <use x="1700.132812" xlink:href="#DejaVuSans-6f"/>
     <use x="1761.314453" xlink:href="#DejaVuSans-73"/>
     <use x="1813.414062" xlink:href="#DejaVuSans-20"/>
     <use x="1845.201172" xlink:href="#DejaVuSans-76"/>
     <use x="1904.380859" xlink:href="#DejaVuSans-73"/>
     <use x="1956.480469" xlink:href="#DejaVuSans-20"/>
     <use x="1988.267578" xlink:href="#DejaVuSans-76"/>
     <use x="2047.447266" xlink:href="#DejaVuSans-61"/>
     <use x="2108.726562" xlink:href="#DejaVuSans-6c"/>
     <use x="2136.509766" xlink:href="#DejaVuSans-6f"/>
     <use x="2197.691406" xlink:href="#DejaVuSans-72"/>
     <use x="2238.773438" xlink:href="#DejaVuSans-65"/>
     <use x="2300.296875" xlink:href="#DejaVuSans-73"/>
     <use x="2352.396484" xlink:href="#DejaVuSans-20"/>
     <use x="2384.183594" xlink:href="#DejaVuSans-70"/>
     <use x="2447.660156" xlink:href="#DejaVuSans-72"/>
     <use x="2488.742188" xlink:href="#DejaVuSans-6f"/>
     <use x="2549.923828" xlink:href="#DejaVuSans-6d"/>
     <use x="2647.335938" xlink:href="#DejaVuSans-65"/>
     <use x="2708.859375" xlink:href="#DejaVuSans-64"/>
     <use x="2772.335938" xlink:href="#DejaVuSans-69"/>
     <use x="2800.119141" xlink:href="#DejaVuSans-6f"/>
     <use x="2861.300781" xlink:href="#DejaVuSans-20"/>
     <use x="2893.087891" xlink:href="#DejaVuSans-6f"/>
     <use x="2954.269531" xlink:href="#DejaVuSans-62"/>
     <use x="3017.746094" xlink:href="#DejaVuSans-74"/>
     <use x="3056.955078" xlink:href="#DejaVuSans-65"/>
     <use x="3118.478516" xlink:href="#DejaVuSans-6e"/>
     <use x="3181.857422" xlink:href="#DejaVuSans-69"/>
     <use x="3209.640625" xlink:href="#DejaVuSans-64"/>
     <use x="3273.117188" xlink:href="#DejaVuSans-6f"/>
     <use x="3334.298828" xlink:href="#DejaVuSans-73"/>
    </g>
   </g>
   <g id="legend_1">
    <g id="patch_7">
     <path d="M 242.02 137.54075 
L 407.72 137.54075 
Q 409.72 137.54075 409.72 135.54075 
L 409.72 48.472 
Q 409.72 46.472 407.72 46.472 
L 242.02 46.472 
Q 240.02 46.472 240.02 48.472 
L 240.02 135.54075 
Q 240.02 137.54075 242.02 137.54075 
z
" style="fill:#ffffff;opacity:0.8;stroke:#cccccc;stroke-linejoin:miter;"/>
    </g>
    <g id="line2d_18">
     <path d="M 244.02 54.570438 
L 264.02 54.570438 
" style="fill:none;stroke:#1f77b4;stroke-linecap:square;stroke-width:1.5;"/>
    </g>
    <g id="line2d_19"/>
    <g id="text_15">
     <!-- Valor promedio 1 obtenido -->
     <g transform="translate(272.02 58.070438)scale(0.1 -0.1)">
      <use xlink:href="#DejaVuSans-56"/>
      <use x="68.298828" xlink:href="#DejaVuSans-61"/>
      <use x="129.578125" xlink:href="#DejaVuSans-6c"/>
      <use x="157.361328" xlink:href="#DejaVuSans-6f"/>
      <use x="218.542969" xlink:href="#DejaVuSans-72"/>
      <use x="259.65625" xlink:href="#DejaVuSans-20"/>
      <use x="291.443359" xlink:href="#DejaVuSans-70"/>
      <use x="354.919922" xlink:href="#DejaVuSans-72"/>
      <use x="396.001953" xlink:href="#DejaVuSans-6f"/>
      <use x="457.183594" xlink:href="#DejaVuSans-6d"/>
      <use x="554.595703" xlink:href="#DejaVuSans-65"/>
      <use x="616.119141" xlink:href="#DejaVuSans-64"/>
      <use x="679.595703" xlink:href="#DejaVuSans-69"/>
      <use x="707.378906" xlink:href="#DejaVuSans-6f"/>
      <use x="768.560547" xlink:href="#DejaVuSans-20"/>
      <use x="800.347656" xlink:href="#DejaVuSans-31"/>
      <use x="863.970703" xlink:href="#DejaVuSans-20"/>
      <use x="895.757812" xlink:href="#DejaVuSans-6f"/>
      <use x="956.939453" xlink:href="#DejaVuSans-62"/>
      <use x="1020.416016" xlink:href="#DejaVuSans-74"/>
      <use x="1059.625" xlink:href="#DejaVuSans-65"/>
      <use x="1121.148438" xlink:href="#DejaVuSans-6e"/>
      <use x="1184.527344" xlink:href="#DejaVuSans-69"/>
      <use x="1212.310547" xlink:href="#DejaVuSans-64"/>
      <use x="1275.787109" xlink:href="#DejaVuSans-6f"/>
     </g>
    </g>
    <g id="line2d_20">
     <path d="M 244.02 69.248563 
L 264.02 69.248563 
" style="fill:none;stroke:#ff7f0e;stroke-linecap:square;stroke-width:1.5;"/>
    </g>
    <g id="line2d_21"/>
    <g id="text_16">
     <!-- Valor promedio 2 obtenido -->
     <g transform="translate(272.02 72.748563)scale(0.1 -0.1)">
      <use xlink:href="#DejaVuSans-56"/>
      <use x="68.298828" xlink:href="#DejaVuSans-61"/>
      <use x="129.578125" xlink:href="#DejaVuSans-6c"/>
      <use x="157.361328" xlink:href="#DejaVuSans-6f"/>
      <use x="218.542969" xlink:href="#DejaVuSans-72"/>
      <use x="259.65625" xlink:href="#DejaVuSans-20"/>
      <use x="291.443359" xlink:href="#DejaVuSans-70"/>
      <use x="354.919922" xlink:href="#DejaVuSans-72"/>
      <use x="396.001953" xlink:href="#DejaVuSans-6f"/>
      <use x="457.183594" xlink:href="#DejaVuSans-6d"/>
      <use x="554.595703" xlink:href="#DejaVuSans-65"/>
      <use x="616.119141" xlink:href="#DejaVuSans-64"/>
      <use x="679.595703" xlink:href="#DejaVuSans-69"/>
      <use x="707.378906" xlink:href="#DejaVuSans-6f"/>
      <use x="768.560547" xlink:href="#DejaVuSans-20"/>
      <use x="800.347656" xlink:href="#DejaVuSans-32"/>
      <use x="863.970703" xlink:href="#DejaVuSans-20"/>
      <use x="895.757812" xlink:href="#DejaVuSans-6f"/>
      <use x="956.939453" xlink:href="#DejaVuSans-62"/>
      <use x="1020.416016" xlink:href="#DejaVuSans-74"/>
      <use x="1059.625" xlink:href="#DejaVuSans-65"/>
      <use x="1121.148438" xlink:href="#DejaVuSans-6e"/>
      <use x="1184.527344" xlink:href="#DejaVuSans-69"/>
      <use x="1212.310547" xlink:href="#DejaVuSans-64"/>
      <use x="1275.787109" xlink:href="#DejaVuSans-6f"/>
     </g>
    </g>
    <g id="line2d_22">
     <path d="M 244.02 83.926688 
L 264.02 83.926688 
" style="fill:none;stroke:#2ca02c;stroke-linecap:square;stroke-width:1.5;"/>
    </g>
    <g id="line2d_23"/>
    <g id="text_17">
     <!-- Valor promedio 3 obtenido -->
     <g transform="translate(272.02 87.426688)scale(0.1 -0.1)">
      <use xlink:href="#DejaVuSans-56"/>
      <use x="68.298828" xlink:href="#DejaVuSans-61"/>
      <use x="129.578125" xlink:href="#DejaVuSans-6c"/>
      <use x="157.361328" xlink:href="#DejaVuSans-6f"/>
      <use x="218.542969" xlink:href="#DejaVuSans-72"/>
      <use x="259.65625" xlink:href="#DejaVuSans-20"/>
      <use x="291.443359" xlink:href="#DejaVuSans-70"/>
      <use x="354.919922" xlink:href="#DejaVuSans-72"/>
      <use x="396.001953" xlink:href="#DejaVuSans-6f"/>
      <use x="457.183594" xlink:href="#DejaVuSans-6d"/>
      <use x="554.595703" xlink:href="#DejaVuSans-65"/>
      <use x="616.119141" xlink:href="#DejaVuSans-64"/>
      <use x="679.595703" xlink:href="#DejaVuSans-69"/>
      <use x="707.378906" xlink:href="#DejaVuSans-6f"/>
      <use x="768.560547" xlink:href="#DejaVuSans-20"/>
      <use x="800.347656" xlink:href="#DejaVuSans-33"/>
      <use x="863.970703" xlink:href="#DejaVuSans-20"/>
      <use x="895.757812" xlink:href="#DejaVuSans-6f"/>
      <use x="956.939453" xlink:href="#DejaVuSans-62"/>
      <use x="1020.416016" xlink:href="#DejaVuSans-74"/>
      <use x="1059.625" xlink:href="#DejaVuSans-65"/>
      <use x="1121.148438" xlink:href="#DejaVuSans-6e"/>
      <use x="1184.527344" xlink:href="#DejaVuSans-69"/>
      <use x="1212.310547" xlink:href="#DejaVuSans-64"/>
      <use x="1275.787109" xlink:href="#DejaVuSans-6f"/>
     </g>
    </g>
    <g id="line2d_24">
     <path d="M 244.02 98.604813 
L 264.02 98.604813 
" style="fill:none;stroke:#d62728;stroke-linecap:square;stroke-width:1.5;"/>
    </g>
    <g id="line2d_25"/>
    <g id="text_18">
     <!-- Valor promedio 4 obtenido -->
     <g transform="translate(272.02 102.104813)scale(0.1 -0.1)">
      <use xlink:href="#DejaVuSans-56"/>
      <use x="68.298828" xlink:href="#DejaVuSans-61"/>
      <use x="129.578125" xlink:href="#DejaVuSans-6c"/>
      <use x="157.361328" xlink:href="#DejaVuSans-6f"/>
      <use x="218.542969" xlink:href="#DejaVuSans-72"/>
      <use x="259.65625" xlink:href="#DejaVuSans-20"/>
      <use x="291.443359" xlink:href="#DejaVuSans-70"/>
      <use x="354.919922" xlink:href="#DejaVuSans-72"/>
      <use x="396.001953" xlink:href="#DejaVuSans-6f"/>
      <use x="457.183594" xlink:href="#DejaVuSans-6d"/>
      <use x="554.595703" xlink:href="#DejaVuSans-65"/>
      <use x="616.119141" xlink:href="#DejaVuSans-64"/>
      <use x="679.595703" xlink:href="#DejaVuSans-69"/>
      <use x="707.378906" xlink:href="#DejaVuSans-6f"/>
      <use x="768.560547" xlink:href="#DejaVuSans-20"/>
      <use x="800.347656" xlink:href="#DejaVuSans-34"/>
      <use x="863.970703" xlink:href="#DejaVuSans-20"/>
      <use x="895.757812" xlink:href="#DejaVuSans-6f"/>
      <use x="956.939453" xlink:href="#DejaVuSans-62"/>
      <use x="1020.416016" xlink:href="#DejaVuSans-74"/>
      <use x="1059.625" xlink:href="#DejaVuSans-65"/>
      <use x="1121.148438" xlink:href="#DejaVuSans-6e"/>
      <use x="1184.527344" xlink:href="#DejaVuSans-69"/>
      <use x="1212.310547" xlink:href="#DejaVuSans-64"/>
      <use x="1275.787109" xlink:href="#DejaVuSans-6f"/>
     </g>
    </g>
    <g id="line2d_26">
     <path d="M 244.02 113.282938 
L 264.02 113.282938 
" style="fill:none;stroke:#9467bd;stroke-linecap:square;stroke-width:1.5;"/>
    </g>
    <g id="line2d_27"/>
    <g id="text_19">
     <!-- Valor promedio 5 obtenido -->
     <g transform="translate(272.02 116.782938)scale(0.1 -0.1)">
      <use xlink:href="#DejaVuSans-56"/>
      <use x="68.298828" xlink:href="#DejaVuSans-61"/>
      <use x="129.578125" xlink:href="#DejaVuSans-6c"/>
      <use x="157.361328" xlink:href="#DejaVuSans-6f"/>
      <use x="218.542969" xlink:href="#DejaVuSans-72"/>
      <use x="259.65625" xlink:href="#DejaVuSans-20"/>
      <use x="291.443359" xlink:href="#DejaVuSans-70"/>
      <use x="354.919922" xlink:href="#DejaVuSans-72"/>
      <use x="396.001953" xlink:href="#DejaVuSans-6f"/>
      <use x="457.183594" xlink:href="#DejaVuSans-6d"/>
      <use x="554.595703" xlink:href="#DejaVuSans-65"/>
      <use x="616.119141" xlink:href="#DejaVuSans-64"/>
      <use x="679.595703" xlink:href="#DejaVuSans-69"/>
      <use x="707.378906" xlink:href="#DejaVuSans-6f"/>
      <use x="768.560547" xlink:href="#DejaVuSans-20"/>
      <use x="800.347656" xlink:href="#DejaVuSans-35"/>
      <use x="863.970703" xlink:href="#DejaVuSans-20"/>
      <use x="895.757812" xlink:href="#DejaVuSans-6f"/>
      <use x="956.939453" xlink:href="#DejaVuSans-62"/>
      <use x="1020.416016" xlink:href="#DejaVuSans-74"/>
      <use x="1059.625" xlink:href="#DejaVuSans-65"/>
      <use x="1121.148438" xlink:href="#DejaVuSans-6e"/>
      <use x="1184.527344" xlink:href="#DejaVuSans-69"/>
      <use x="1212.310547" xlink:href="#DejaVuSans-64"/>
      <use x="1275.787109" xlink:href="#DejaVuSans-6f"/>
     </g>
    </g>
    <g id="line2d_28">
     <path d="M 244.02 127.961063 
L 264.02 127.961063 
" style="fill:none;stroke:#8c564b;stroke-linecap:square;stroke-width:1.5;"/>
    </g>
    <g id="line2d_29"/>
    <g id="text_20">
     <!-- Valor promedio esperado -->
     <g transform="translate(272.02 131.461063)scale(0.1 -0.1)">
      <use xlink:href="#DejaVuSans-56"/>
      <use x="68.298828" xlink:href="#DejaVuSans-61"/>
      <use x="129.578125" xlink:href="#DejaVuSans-6c"/>
      <use x="157.361328" xlink:href="#DejaVuSans-6f"/>
      <use x="218.542969" xlink:href="#DejaVuSans-72"/>
      <use x="259.65625" xlink:href="#DejaVuSans-20"/>
      <use x="291.443359" xlink:href="#DejaVuSans-70"/>
      <use x="354.919922" xlink:href="#DejaVuSans-72"/>
      <use x="396.001953" xlink:href="#DejaVuSans-6f"/>
      <use x="457.183594" xlink:href="#DejaVuSans-6d"/>
      <use x="554.595703" xlink:href="#DejaVuSans-65"/>
      <use x="616.119141" xlink:href="#DejaVuSans-64"/>
      <use x="679.595703" xlink:href="#DejaVuSans-69"/>
      <use x="707.378906" xlink:href="#DejaVuSans-6f"/>
      <use x="768.560547" xlink:href="#DejaVuSans-20"/>
      <use x="800.347656" xlink:href="#DejaVuSans-65"/>
      <use x="861.871094" xlink:href="#DejaVuSans-73"/>
      <use x="913.970703" xlink:href="#DejaVuSans-70"/>
      <use x="977.447266" xlink:href="#DejaVuSans-65"/>
      <use x="1038.970703" xlink:href="#DejaVuSans-72"/>
      <use x="1080.083984" xlink:href="#DejaVuSans-61"/>
      <use x="1141.363281" xlink:href="#DejaVuSans-64"/>
      <use x="1204.839844" xlink:href="#DejaVuSans-6f"/>
     </g>
    </g>
   </g>
  </g>
 </g>
 <defs>
  <clipPath id="pf6726cfbc2">
   <rect height="266.112" width="357.12" x="57.6" y="41.472"/>
  </clipPath>
 </defs>
</svg>
