<?xml version="1.0" encoding="utf-8" standalone="no"?>
<!DOCTYPE svg PUBLIC "-//W3C//DTD SVG 1.1//EN"
  "http://www.w3.org/Graphics/SVG/1.1/DTD/svg11.dtd">
<!-- Created with matplotlib (http://matplotlib.org/) -->
<svg height="345.6pt" version="1.1" viewBox="0 0 460.8 345.6" width="460.8pt" xmlns="http://www.w3.org/2000/svg" xmlns:xlink="http://www.w3.org/1999/xlink">
 <defs>
  <style type="text/css">
*{stroke-linecap:butt;stroke-linejoin:round;}
  </style>
 </defs>
 <g id="figure_1">
  <g id="patch_1">
   <path d="M 0 345.6 
L 460.8 345.6 
L 460.8 0 
L 0 0 
z
" style="fill:#ffffff;"/>
  </g>
  <g id="axes_1">
   <g id="patch_2">
    <path d="M 57.6 307.584 
L 414.72 307.584 
L 414.72 41.472 
L 57.6 41.472 
z
" style="fill:#ffffff;"/>
   </g>
   <g id="matplotlib.axis_1">
    <g id="xtick_1">
     <g id="line2d_1">
      <defs>
       <path d="M 0 0 
L 0 3.5 
" id="m1e55d87160" style="stroke:#000000;stroke-width:0.8;"/>
      </defs>
      <g>
       <use style="stroke:#000000;stroke-width:0.8;" x="57.361761" xlink:href="#m1e55d87160" y="307.584"/>
      </g>
     </g>
     <g id="text_1">
      <!-- 0 -->
      <defs>
       <path d="M 31.78125 66.40625 
Q 24.171875 66.40625 20.328125 58.90625 
Q 16.5 51.421875 16.5 36.375 
Q 16.5 21.390625 20.328125 13.890625 
Q 24.171875 6.390625 31.78125 6.390625 
Q 39.453125 6.390625 43.28125 13.890625 
Q 47.125 21.390625 47.125 36.375 
Q 47.125 51.421875 43.28125 58.90625 
Q 39.453125 66.40625 31.78125 66.40625 
z
M 31.78125 74.21875 
Q 44.046875 74.21875 50.515625 64.515625 
Q 56.984375 54.828125 56.984375 36.375 
Q 56.984375 17.96875 50.515625 8.265625 
Q 44.046875 -1.421875 31.78125 -1.421875 
Q 19.53125 -1.421875 13.0625 8.265625 
Q 6.59375 17.96875 6.59375 36.375 
Q 6.59375 54.828125 13.0625 64.515625 
Q 19.53125 74.21875 31.78125 74.21875 
z
" id="DejaVuSans-30"/>
      </defs>
      <g transform="translate(54.180511 322.182437)scale(0.1 -0.1)">
       <use xlink:href="#DejaVuSans-30"/>
      </g>
     </g>
    </g>
    <g id="xtick_2">
     <g id="line2d_2">
      <g>
       <use style="stroke:#000000;stroke-width:0.8;" x="105.009526" xlink:href="#m1e55d87160" y="307.584"/>
      </g>
     </g>
     <g id="text_2">
      <!-- 200 -->
      <defs>
       <path d="M 19.1875 8.296875 
L 53.609375 8.296875 
L 53.609375 0 
L 7.328125 0 
L 7.328125 8.296875 
Q 12.9375 14.109375 22.625 23.890625 
Q 32.328125 33.6875 34.8125 36.53125 
Q 39.546875 41.84375 41.421875 45.53125 
Q 43.3125 49.21875 43.3125 52.78125 
Q 43.3125 58.59375 39.234375 62.25 
Q 35.15625 65.921875 28.609375 65.921875 
Q 23.96875 65.921875 18.8125 64.3125 
Q 13.671875 62.703125 7.8125 59.421875 
L 7.8125 69.390625 
Q 13.765625 71.78125 18.9375 73 
Q 24.125 74.21875 28.421875 74.21875 
Q 39.75 74.21875 46.484375 68.546875 
Q 53.21875 62.890625 53.21875 53.421875 
Q 53.21875 48.921875 51.53125 44.890625 
Q 49.859375 40.875 45.40625 35.40625 
Q 44.1875 33.984375 37.640625 27.21875 
Q 31.109375 20.453125 19.1875 8.296875 
z
" id="DejaVuSans-32"/>
      </defs>
      <g transform="translate(95.465776 322.182437)scale(0.1 -0.1)">
       <use xlink:href="#DejaVuSans-32"/>
       <use x="63.623047" xlink:href="#DejaVuSans-30"/>
       <use x="127.246094" xlink:href="#DejaVuSans-30"/>
      </g>
     </g>
    </g>
    <g id="xtick_3">
     <g id="line2d_3">
      <g>
       <use style="stroke:#000000;stroke-width:0.8;" x="152.657292" xlink:href="#m1e55d87160" y="307.584"/>
      </g>
     </g>
     <g id="text_3">
      <!-- 400 -->
      <defs>
       <path d="M 37.796875 64.3125 
L 12.890625 25.390625 
L 37.796875 25.390625 
z
M 35.203125 72.90625 
L 47.609375 72.90625 
L 47.609375 25.390625 
L 58.015625 25.390625 
L 58.015625 17.1875 
L 47.609375 17.1875 
L 47.609375 0 
L 37.796875 0 
L 37.796875 17.1875 
L 4.890625 17.1875 
L 4.890625 26.703125 
z
" id="DejaVuSans-34"/>
      </defs>
      <g transform="translate(143.113542 322.182437)scale(0.1 -0.1)">
       <use xlink:href="#DejaVuSans-34"/>
       <use x="63.623047" xlink:href="#DejaVuSans-30"/>
       <use x="127.246094" xlink:href="#DejaVuSans-30"/>
      </g>
     </g>
    </g>
    <g id="xtick_4">
     <g id="line2d_4">
      <g>
       <use style="stroke:#000000;stroke-width:0.8;" x="200.305057" xlink:href="#m1e55d87160" y="307.584"/>
      </g>
     </g>
     <g id="text_4">
      <!-- 600 -->
      <defs>
       <path d="M 33.015625 40.375 
Q 26.375 40.375 22.484375 35.828125 
Q 18.609375 31.296875 18.609375 23.390625 
Q 18.609375 15.53125 22.484375 10.953125 
Q 26.375 6.390625 33.015625 6.390625 
Q 39.65625 6.390625 43.53125 10.953125 
Q 47.40625 15.53125 47.40625 23.390625 
Q 47.40625 31.296875 43.53125 35.828125 
Q 39.65625 40.375 33.015625 40.375 
z
M 52.59375 71.296875 
L 52.59375 62.3125 
Q 48.875 64.0625 45.09375 64.984375 
Q 41.3125 65.921875 37.59375 65.921875 
Q 27.828125 65.921875 22.671875 59.328125 
Q 17.53125 52.734375 16.796875 39.40625 
Q 19.671875 43.65625 24.015625 45.921875 
Q 28.375 48.1875 33.59375 48.1875 
Q 44.578125 48.1875 50.953125 41.515625 
Q 57.328125 34.859375 57.328125 23.390625 
Q 57.328125 12.15625 50.6875 5.359375 
Q 44.046875 -1.421875 33.015625 -1.421875 
Q 20.359375 -1.421875 13.671875 8.265625 
Q 6.984375 17.96875 6.984375 36.375 
Q 6.984375 53.65625 15.1875 63.9375 
Q 23.390625 74.21875 37.203125 74.21875 
Q 40.921875 74.21875 44.703125 73.484375 
Q 48.484375 72.75 52.59375 71.296875 
z
" id="DejaVuSans-36"/>
      </defs>
      <g transform="translate(190.761307 322.182437)scale(0.1 -0.1)">
       <use xlink:href="#DejaVuSans-36"/>
       <use x="63.623047" xlink:href="#DejaVuSans-30"/>
       <use x="127.246094" xlink:href="#DejaVuSans-30"/>
      </g>
     </g>
    </g>
    <g id="xtick_5">
     <g id="line2d_5">
      <g>
       <use style="stroke:#000000;stroke-width:0.8;" x="247.952822" xlink:href="#m1e55d87160" y="307.584"/>
      </g>
     </g>
     <g id="text_5">
      <!-- 800 -->
      <defs>
       <path d="M 31.78125 34.625 
Q 24.75 34.625 20.71875 30.859375 
Q 16.703125 27.09375 16.703125 20.515625 
Q 16.703125 13.921875 20.71875 10.15625 
Q 24.75 6.390625 31.78125 6.390625 
Q 38.8125 6.390625 42.859375 10.171875 
Q 46.921875 13.96875 46.921875 20.515625 
Q 46.921875 27.09375 42.890625 30.859375 
Q 38.875 34.625 31.78125 34.625 
z
M 21.921875 38.8125 
Q 15.578125 40.375 12.03125 44.71875 
Q 8.5 49.078125 8.5 55.328125 
Q 8.5 64.0625 14.71875 69.140625 
Q 20.953125 74.21875 31.78125 74.21875 
Q 42.671875 74.21875 48.875 69.140625 
Q 55.078125 64.0625 55.078125 55.328125 
Q 55.078125 49.078125 51.53125 44.71875 
Q 48 40.375 41.703125 38.8125 
Q 48.828125 37.15625 52.796875 32.3125 
Q 56.78125 27.484375 56.78125 20.515625 
Q 56.78125 9.90625 50.3125 4.234375 
Q 43.84375 -1.421875 31.78125 -1.421875 
Q 19.734375 -1.421875 13.25 4.234375 
Q 6.78125 9.90625 6.78125 20.515625 
Q 6.78125 27.484375 10.78125 32.3125 
Q 14.796875 37.15625 21.921875 38.8125 
z
M 18.3125 54.390625 
Q 18.3125 48.734375 21.84375 45.5625 
Q 25.390625 42.390625 31.78125 42.390625 
Q 38.140625 42.390625 41.71875 45.5625 
Q 45.3125 48.734375 45.3125 54.390625 
Q 45.3125 60.0625 41.71875 63.234375 
Q 38.140625 66.40625 31.78125 66.40625 
Q 25.390625 66.40625 21.84375 63.234375 
Q 18.3125 60.0625 18.3125 54.390625 
z
" id="DejaVuSans-38"/>
      </defs>
      <g transform="translate(238.409072 322.182437)scale(0.1 -0.1)">
       <use xlink:href="#DejaVuSans-38"/>
       <use x="63.623047" xlink:href="#DejaVuSans-30"/>
       <use x="127.246094" xlink:href="#DejaVuSans-30"/>
      </g>
     </g>
    </g>
    <g id="xtick_6">
     <g id="line2d_6">
      <g>
       <use style="stroke:#000000;stroke-width:0.8;" x="295.600587" xlink:href="#m1e55d87160" y="307.584"/>
      </g>
     </g>
     <g id="text_6">
      <!-- 1000 -->
      <defs>
       <path d="M 12.40625 8.296875 
L 28.515625 8.296875 
L 28.515625 63.921875 
L 10.984375 60.40625 
L 10.984375 69.390625 
L 28.421875 72.90625 
L 38.28125 72.90625 
L 38.28125 8.296875 
L 54.390625 8.296875 
L 54.390625 0 
L 12.40625 0 
z
" id="DejaVuSans-31"/>
      </defs>
      <g transform="translate(282.875587 322.182437)scale(0.1 -0.1)">
       <use xlink:href="#DejaVuSans-31"/>
       <use x="63.623047" xlink:href="#DejaVuSans-30"/>
       <use x="127.246094" xlink:href="#DejaVuSans-30"/>
       <use x="190.869141" xlink:href="#DejaVuSans-30"/>
      </g>
     </g>
    </g>
    <g id="xtick_7">
     <g id="line2d_7">
      <g>
       <use style="stroke:#000000;stroke-width:0.8;" x="343.248352" xlink:href="#m1e55d87160" y="307.584"/>
      </g>
     </g>
     <g id="text_7">
      <!-- 1200 -->
      <g transform="translate(330.523352 322.182437)scale(0.1 -0.1)">
       <use xlink:href="#DejaVuSans-31"/>
       <use x="63.623047" xlink:href="#DejaVuSans-32"/>
       <use x="127.246094" xlink:href="#DejaVuSans-30"/>
       <use x="190.869141" xlink:href="#DejaVuSans-30"/>
      </g>
     </g>
    </g>
    <g id="xtick_8">
     <g id="line2d_8">
      <g>
       <use style="stroke:#000000;stroke-width:0.8;" x="390.896117" xlink:href="#m1e55d87160" y="307.584"/>
      </g>
     </g>
     <g id="text_8">
      <!-- 1400 -->
      <g transform="translate(378.171117 322.182437)scale(0.1 -0.1)">
       <use xlink:href="#DejaVuSans-31"/>
       <use x="63.623047" xlink:href="#DejaVuSans-34"/>
       <use x="127.246094" xlink:href="#DejaVuSans-30"/>
       <use x="190.869141" xlink:href="#DejaVuSans-30"/>
      </g>
     </g>
    </g>
    <g id="text_9">
     <!-- Tiradas -->
     <defs>
      <path d="M -0.296875 72.90625 
L 61.375 72.90625 
L 61.375 64.59375 
L 35.5 64.59375 
L 35.5 0 
L 25.59375 0 
L 25.59375 64.59375 
L -0.296875 64.59375 
z
" id="DejaVuSans-54"/>
      <path d="M 9.421875 54.6875 
L 18.40625 54.6875 
L 18.40625 0 
L 9.421875 0 
z
M 9.421875 75.984375 
L 18.40625 75.984375 
L 18.40625 64.59375 
L 9.421875 64.59375 
z
" id="DejaVuSans-69"/>
      <path d="M 41.109375 46.296875 
Q 39.59375 47.171875 37.8125 47.578125 
Q 36.03125 48 33.890625 48 
Q 26.265625 48 22.1875 43.046875 
Q 18.109375 38.09375 18.109375 28.8125 
L 18.109375 0 
L 9.078125 0 
L 9.078125 54.6875 
L 18.109375 54.6875 
L 18.109375 46.1875 
Q 20.953125 51.171875 25.484375 53.578125 
Q 30.03125 56 36.53125 56 
Q 37.453125 56 38.578125 55.875 
Q 39.703125 55.765625 41.0625 55.515625 
z
" id="DejaVuSans-72"/>
      <path d="M 34.28125 27.484375 
Q 23.390625 27.484375 19.1875 25 
Q 14.984375 22.515625 14.984375 16.5 
Q 14.984375 11.71875 18.140625 8.90625 
Q 21.296875 6.109375 26.703125 6.109375 
Q 34.1875 6.109375 38.703125 11.40625 
Q 43.21875 16.703125 43.21875 25.484375 
L 43.21875 27.484375 
z
M 52.203125 31.203125 
L 52.203125 0 
L 43.21875 0 
L 43.21875 8.296875 
Q 40.140625 3.328125 35.546875 0.953125 
Q 30.953125 -1.421875 24.3125 -1.421875 
Q 15.921875 -1.421875 10.953125 3.296875 
Q 6 8.015625 6 15.921875 
Q 6 25.140625 12.171875 29.828125 
Q 18.359375 34.515625 30.609375 34.515625 
L 43.21875 34.515625 
L 43.21875 35.40625 
Q 43.21875 41.609375 39.140625 45 
Q 35.0625 48.390625 27.6875 48.390625 
Q 23 48.390625 18.546875 47.265625 
Q 14.109375 46.140625 10.015625 43.890625 
L 10.015625 52.203125 
Q 14.9375 54.109375 19.578125 55.046875 
Q 24.21875 56 28.609375 56 
Q 40.484375 56 46.34375 49.84375 
Q 52.203125 43.703125 52.203125 31.203125 
z
" id="DejaVuSans-61"/>
      <path d="M 45.40625 46.390625 
L 45.40625 75.984375 
L 54.390625 75.984375 
L 54.390625 0 
L 45.40625 0 
L 45.40625 8.203125 
Q 42.578125 3.328125 38.25 0.953125 
Q 33.9375 -1.421875 27.875 -1.421875 
Q 17.96875 -1.421875 11.734375 6.484375 
Q 5.515625 14.40625 5.515625 27.296875 
Q 5.515625 40.1875 11.734375 48.09375 
Q 17.96875 56 27.875 56 
Q 33.9375 56 38.25 53.625 
Q 42.578125 51.265625 45.40625 46.390625 
z
M 14.796875 27.296875 
Q 14.796875 17.390625 18.875 11.75 
Q 22.953125 6.109375 30.078125 6.109375 
Q 37.203125 6.109375 41.296875 11.75 
Q 45.40625 17.390625 45.40625 27.296875 
Q 45.40625 37.203125 41.296875 42.84375 
Q 37.203125 48.484375 30.078125 48.484375 
Q 22.953125 48.484375 18.875 42.84375 
Q 14.796875 37.203125 14.796875 27.296875 
z
" id="DejaVuSans-64"/>
      <path d="M 44.28125 53.078125 
L 44.28125 44.578125 
Q 40.484375 46.53125 36.375 47.5 
Q 32.28125 48.484375 27.875 48.484375 
Q 21.1875 48.484375 17.84375 46.4375 
Q 14.5 44.390625 14.5 40.28125 
Q 14.5 37.15625 16.890625 35.375 
Q 19.28125 33.59375 26.515625 31.984375 
L 29.59375 31.296875 
Q 39.15625 29.25 43.1875 25.515625 
Q 47.21875 21.78125 47.21875 15.09375 
Q 47.21875 7.46875 41.1875 3.015625 
Q 35.15625 -1.421875 24.609375 -1.421875 
Q 20.21875 -1.421875 15.453125 -0.5625 
Q 10.6875 0.296875 5.421875 2 
L 5.421875 11.28125 
Q 10.40625 8.6875 15.234375 7.390625 
Q 20.0625 6.109375 24.8125 6.109375 
Q 31.15625 6.109375 34.5625 8.28125 
Q 37.984375 10.453125 37.984375 14.40625 
Q 37.984375 18.0625 35.515625 20.015625 
Q 33.0625 21.96875 24.703125 23.78125 
L 21.578125 24.515625 
Q 13.234375 26.265625 9.515625 29.90625 
Q 5.8125 33.546875 5.8125 39.890625 
Q 5.8125 47.609375 11.28125 51.796875 
Q 16.75 56 26.8125 56 
Q 31.78125 56 36.171875 55.265625 
Q 40.578125 54.546875 44.28125 53.078125 
z
" id="DejaVuSans-73"/>
     </defs>
     <g transform="translate(217.756875 335.860562)scale(0.1 -0.1)">
      <use xlink:href="#DejaVuSans-54"/>
      <use x="61.037109" xlink:href="#DejaVuSans-69"/>
      <use x="88.820312" xlink:href="#DejaVuSans-72"/>
      <use x="129.933594" xlink:href="#DejaVuSans-61"/>
      <use x="191.212891" xlink:href="#DejaVuSans-64"/>
      <use x="254.689453" xlink:href="#DejaVuSans-61"/>
      <use x="315.96875" xlink:href="#DejaVuSans-73"/>
     </g>
    </g>
   </g>
   <g id="matplotlib.axis_2">
    <g id="ytick_1">
     <g id="line2d_9">
      <defs>
       <path d="M 0 0 
L -3.5 0 
" id="m5a54ec1593" style="stroke:#000000;stroke-width:0.8;"/>
      </defs>
      <g>
       <use style="stroke:#000000;stroke-width:0.8;" x="57.6" xlink:href="#m5a54ec1593" y="295.488"/>
      </g>
     </g>
     <g id="text_10">
      <!-- 0.00 -->
      <defs>
       <path d="M 10.6875 12.40625 
L 21 12.40625 
L 21 0 
L 10.6875 0 
z
" id="DejaVuSans-2e"/>
      </defs>
      <g transform="translate(28.334375 299.287219)scale(0.1 -0.1)">
       <use xlink:href="#DejaVuSans-30"/>
       <use x="63.623047" xlink:href="#DejaVuSans-2e"/>
       <use x="95.410156" xlink:href="#DejaVuSans-30"/>
       <use x="159.033203" xlink:href="#DejaVuSans-30"/>
      </g>
     </g>
    </g>
    <g id="ytick_2">
     <g id="line2d_10">
      <g>
       <use style="stroke:#000000;stroke-width:0.8;" x="57.6" xlink:href="#m5a54ec1593" y="261.6192"/>
      </g>
     </g>
     <g id="text_11">
      <!-- 0.02 -->
      <g transform="translate(28.334375 265.418419)scale(0.1 -0.1)">
       <use xlink:href="#DejaVuSans-30"/>
       <use x="63.623047" xlink:href="#DejaVuSans-2e"/>
       <use x="95.410156" xlink:href="#DejaVuSans-30"/>
       <use x="159.033203" xlink:href="#DejaVuSans-32"/>
      </g>
     </g>
    </g>
    <g id="ytick_3">
     <g id="line2d_11">
      <g>
       <use style="stroke:#000000;stroke-width:0.8;" x="57.6" xlink:href="#m5a54ec1593" y="227.7504"/>
      </g>
     </g>
     <g id="text_12">
      <!-- 0.04 -->
      <g transform="translate(28.334375 231.549619)scale(0.1 -0.1)">
       <use xlink:href="#DejaVuSans-30"/>
       <use x="63.623047" xlink:href="#DejaVuSans-2e"/>
       <use x="95.410156" xlink:href="#DejaVuSans-30"/>
       <use x="159.033203" xlink:href="#DejaVuSans-34"/>
      </g>
     </g>
    </g>
    <g id="ytick_4">
     <g id="line2d_12">
      <g>
       <use style="stroke:#000000;stroke-width:0.8;" x="57.6" xlink:href="#m5a54ec1593" y="193.8816"/>
      </g>
     </g>
     <g id="text_13">
      <!-- 0.06 -->
      <g transform="translate(28.334375 197.680819)scale(0.1 -0.1)">
       <use xlink:href="#DejaVuSans-30"/>
       <use x="63.623047" xlink:href="#DejaVuSans-2e"/>
       <use x="95.410156" xlink:href="#DejaVuSans-30"/>
       <use x="159.033203" xlink:href="#DejaVuSans-36"/>
      </g>
     </g>
    </g>
    <g id="ytick_5">
     <g id="line2d_13">
      <g>
       <use style="stroke:#000000;stroke-width:0.8;" x="57.6" xlink:href="#m5a54ec1593" y="160.0128"/>
      </g>
     </g>
     <g id="text_14">
      <!-- 0.08 -->
      <g transform="translate(28.334375 163.812019)scale(0.1 -0.1)">
       <use xlink:href="#DejaVuSans-30"/>
       <use x="63.623047" xlink:href="#DejaVuSans-2e"/>
       <use x="95.410156" xlink:href="#DejaVuSans-30"/>
       <use x="159.033203" xlink:href="#DejaVuSans-38"/>
      </g>
     </g>
    </g>
    <g id="ytick_6">
     <g id="line2d_14">
      <g>
       <use style="stroke:#000000;stroke-width:0.8;" x="57.6" xlink:href="#m5a54ec1593" y="126.144"/>
      </g>
     </g>
     <g id="text_15">
      <!-- 0.10 -->
      <g transform="translate(28.334375 129.943219)scale(0.1 -0.1)">
       <use xlink:href="#DejaVuSans-30"/>
       <use x="63.623047" xlink:href="#DejaVuSans-2e"/>
       <use x="95.410156" xlink:href="#DejaVuSans-31"/>
       <use x="159.033203" xlink:href="#DejaVuSans-30"/>
      </g>
     </g>
    </g>
    <g id="ytick_7">
     <g id="line2d_15">
      <g>
       <use style="stroke:#000000;stroke-width:0.8;" x="57.6" xlink:href="#m5a54ec1593" y="92.2752"/>
      </g>
     </g>
     <g id="text_16">
      <!-- 0.12 -->
      <g transform="translate(28.334375 96.074419)scale(0.1 -0.1)">
       <use xlink:href="#DejaVuSans-30"/>
       <use x="63.623047" xlink:href="#DejaVuSans-2e"/>
       <use x="95.410156" xlink:href="#DejaVuSans-31"/>
       <use x="159.033203" xlink:href="#DejaVuSans-32"/>
      </g>
     </g>
    </g>
    <g id="ytick_8">
     <g id="line2d_16">
      <g>
       <use style="stroke:#000000;stroke-width:0.8;" x="57.6" xlink:href="#m5a54ec1593" y="58.4064"/>
      </g>
     </g>
     <g id="text_17">
      <!-- 0.14 -->
      <g transform="translate(28.334375 62.205619)scale(0.1 -0.1)">
       <use xlink:href="#DejaVuSans-30"/>
       <use x="63.623047" xlink:href="#DejaVuSans-2e"/>
       <use x="95.410156" xlink:href="#DejaVuSans-31"/>
       <use x="159.033203" xlink:href="#DejaVuSans-34"/>
      </g>
     </g>
    </g>
    <g id="text_18">
     <!-- Frecuencias relativas -->
     <defs>
      <path d="M 9.8125 72.90625 
L 51.703125 72.90625 
L 51.703125 64.59375 
L 19.671875 64.59375 
L 19.671875 43.109375 
L 48.578125 43.109375 
L 48.578125 34.8125 
L 19.671875 34.8125 
L 19.671875 0 
L 9.8125 0 
z
" id="DejaVuSans-46"/>
      <path d="M 56.203125 29.59375 
L 56.203125 25.203125 
L 14.890625 25.203125 
Q 15.484375 15.921875 20.484375 11.0625 
Q 25.484375 6.203125 34.421875 6.203125 
Q 39.59375 6.203125 44.453125 7.46875 
Q 49.3125 8.734375 54.109375 11.28125 
L 54.109375 2.78125 
Q 49.265625 0.734375 44.1875 -0.34375 
Q 39.109375 -1.421875 33.890625 -1.421875 
Q 20.796875 -1.421875 13.15625 6.1875 
Q 5.515625 13.8125 5.515625 26.8125 
Q 5.515625 40.234375 12.765625 48.109375 
Q 20.015625 56 32.328125 56 
Q 43.359375 56 49.78125 48.890625 
Q 56.203125 41.796875 56.203125 29.59375 
z
M 47.21875 32.234375 
Q 47.125 39.59375 43.09375 43.984375 
Q 39.0625 48.390625 32.421875 48.390625 
Q 24.90625 48.390625 20.390625 44.140625 
Q 15.875 39.890625 15.1875 32.171875 
z
" id="DejaVuSans-65"/>
      <path d="M 48.78125 52.59375 
L 48.78125 44.1875 
Q 44.96875 46.296875 41.140625 47.34375 
Q 37.3125 48.390625 33.40625 48.390625 
Q 24.65625 48.390625 19.8125 42.84375 
Q 14.984375 37.3125 14.984375 27.296875 
Q 14.984375 17.28125 19.8125 11.734375 
Q 24.65625 6.203125 33.40625 6.203125 
Q 37.3125 6.203125 41.140625 7.25 
Q 44.96875 8.296875 48.78125 10.40625 
L 48.78125 2.09375 
Q 45.015625 0.34375 40.984375 -0.53125 
Q 36.96875 -1.421875 32.421875 -1.421875 
Q 20.0625 -1.421875 12.78125 6.34375 
Q 5.515625 14.109375 5.515625 27.296875 
Q 5.515625 40.671875 12.859375 48.328125 
Q 20.21875 56 33.015625 56 
Q 37.15625 56 41.109375 55.140625 
Q 45.0625 54.296875 48.78125 52.59375 
z
" id="DejaVuSans-63"/>
      <path d="M 8.5 21.578125 
L 8.5 54.6875 
L 17.484375 54.6875 
L 17.484375 21.921875 
Q 17.484375 14.15625 20.5 10.265625 
Q 23.53125 6.390625 29.59375 6.390625 
Q 36.859375 6.390625 41.078125 11.03125 
Q 45.3125 15.671875 45.3125 23.6875 
L 45.3125 54.6875 
L 54.296875 54.6875 
L 54.296875 0 
L 45.3125 0 
L 45.3125 8.40625 
Q 42.046875 3.421875 37.71875 1 
Q 33.40625 -1.421875 27.6875 -1.421875 
Q 18.265625 -1.421875 13.375 4.4375 
Q 8.5 10.296875 8.5 21.578125 
z
M 31.109375 56 
z
" id="DejaVuSans-75"/>
      <path d="M 54.890625 33.015625 
L 54.890625 0 
L 45.90625 0 
L 45.90625 32.71875 
Q 45.90625 40.484375 42.875 44.328125 
Q 39.84375 48.1875 33.796875 48.1875 
Q 26.515625 48.1875 22.3125 43.546875 
Q 18.109375 38.921875 18.109375 30.90625 
L 18.109375 0 
L 9.078125 0 
L 9.078125 54.6875 
L 18.109375 54.6875 
L 18.109375 46.1875 
Q 21.34375 51.125 25.703125 53.5625 
Q 30.078125 56 35.796875 56 
Q 45.21875 56 50.046875 50.171875 
Q 54.890625 44.34375 54.890625 33.015625 
z
" id="DejaVuSans-6e"/>
      <path id="DejaVuSans-20"/>
      <path d="M 9.421875 75.984375 
L 18.40625 75.984375 
L 18.40625 0 
L 9.421875 0 
z
" id="DejaVuSans-6c"/>
      <path d="M 18.3125 70.21875 
L 18.3125 54.6875 
L 36.8125 54.6875 
L 36.8125 47.703125 
L 18.3125 47.703125 
L 18.3125 18.015625 
Q 18.3125 11.328125 20.140625 9.421875 
Q 21.96875 7.515625 27.59375 7.515625 
L 36.8125 7.515625 
L 36.8125 0 
L 27.59375 0 
Q 17.1875 0 13.234375 3.875 
Q 9.28125 7.765625 9.28125 18.015625 
L 9.28125 47.703125 
L 2.6875 47.703125 
L 2.6875 54.6875 
L 9.28125 54.6875 
L 9.28125 70.21875 
z
" id="DejaVuSans-74"/>
      <path d="M 2.984375 54.6875 
L 12.5 54.6875 
L 29.59375 8.796875 
L 46.6875 54.6875 
L 56.203125 54.6875 
L 35.6875 0 
L 23.484375 0 
z
" id="DejaVuSans-76"/>
     </defs>
     <g transform="translate(22.254687 227.649094)rotate(-90)scale(0.1 -0.1)">
      <use xlink:href="#DejaVuSans-46"/>
      <use x="57.410156" xlink:href="#DejaVuSans-72"/>
      <use x="98.492188" xlink:href="#DejaVuSans-65"/>
      <use x="160.015625" xlink:href="#DejaVuSans-63"/>
      <use x="214.996094" xlink:href="#DejaVuSans-75"/>
      <use x="278.375" xlink:href="#DejaVuSans-65"/>
      <use x="339.898438" xlink:href="#DejaVuSans-6e"/>
      <use x="403.277344" xlink:href="#DejaVuSans-63"/>
      <use x="458.257812" xlink:href="#DejaVuSans-69"/>
      <use x="486.041016" xlink:href="#DejaVuSans-61"/>
      <use x="547.320312" xlink:href="#DejaVuSans-73"/>
      <use x="599.419922" xlink:href="#DejaVuSans-20"/>
      <use x="631.207031" xlink:href="#DejaVuSans-72"/>
      <use x="672.289062" xlink:href="#DejaVuSans-65"/>
      <use x="733.8125" xlink:href="#DejaVuSans-6c"/>
      <use x="761.595703" xlink:href="#DejaVuSans-61"/>
      <use x="822.875" xlink:href="#DejaVuSans-74"/>
      <use x="862.083984" xlink:href="#DejaVuSans-69"/>
      <use x="889.867188" xlink:href="#DejaVuSans-76"/>
      <use x="949.046875" xlink:href="#DejaVuSans-61"/>
      <use x="1010.326172" xlink:href="#DejaVuSans-73"/>
     </g>
    </g>
   </g>
   <g id="line2d_17">
    <path clip-path="url(#pc96383be91)" d="M 57.6 295.488 
L 58.791194 295.488 
L 59.029433 53.568 
L 59.505911 107.328 
L 59.982388 141.538909 
L 60.697105 174.528 
L 61.411821 195.873882 
L 62.126538 210.816 
L 62.364777 134.208 
L 63.079493 154.368 
L 64.032448 174.528 
L 64.985404 189.648 
L 65.938359 201.408 
L 66.891314 210.816 
L 68.082508 220.224 
L 69.273702 227.7504 
L 70.464897 233.908364 
L 71.656091 239.04 
L 72.609046 242.568 
L 72.847285 217.329231 
L 74.276718 223.934197 
L 75.706151 229.509818 
L 77.135584 234.279325 
L 78.803256 239.04 
L 80.470927 243.113567 
L 82.138599 246.638769 
L 84.04451 250.128 
L 85.95042 253.152 
L 88.09457 256.105674 
L 90.238719 258.674087 
L 92.621107 261.161514 
L 95.003496 263.334076 
L 97.624123 265.426935 
L 100.482989 267.419934 
L 103.580093 269.300784 
L 106.915437 271.063385 
L 108.583109 271.858605 
L 108.821348 264.128 
L 112.156691 266.03687 
L 115.968512 267.95239 
L 120.018572 269.732259 
L 124.54511 271.467574 
L 125.259827 271.720421 
L 125.498065 265.882406 
L 130.024603 267.726689 
L 135.027618 269.514994 
L 138.601201 270.657501 
L 138.83944 265.778526 
L 144.080694 267.574154 
L 149.798426 269.300784 
L 154.086724 270.461793 
L 154.324963 266.362496 
L 160.757412 268.174452 
L 167.666338 269.885235 
L 175.28998 271.540364 
L 183.628339 273.121811 
L 192.919653 274.654819 
L 199.113863 275.565176 
L 199.352101 272.757262 
L 209.596371 274.286873 
L 221.031835 275.768175 
L 222.937745 275.995165 
L 223.175984 273.590069 
L 235.564403 275.112385 
L 249.382255 276.57862 
L 258.673569 277.451361 
L 258.911808 275.470979 
L 259.626524 275.54171 
L 259.864763 273.572894 
L 260.103002 273.598646 
L 260.341241 271.636732 
L 268.203122 272.526102 
L 268.441361 270.640686 
L 277.256197 271.636732 
L 277.494436 269.829818 
L 287.023989 270.894473 
L 287.262228 269.165098 
L 302.747752 270.826252 
L 319.900947 272.437546 
L 325.856918 272.94887 
L 326.095157 271.467574 
L 344.677785 273.021134 
L 344.916024 271.636732 
L 351.82495 272.19635 
L 352.063189 270.846189 
L 352.539666 270.885966 
L 352.777905 269.540129 
L 354.922055 269.727103 
L 355.160294 268.39296 
L 355.636771 268.436243 
L 355.87501 267.106324 
L 361.116264 267.596047 
L 361.354503 266.290759 
L 363.260414 266.472673 
L 363.498652 265.177401 
L 365.642802 265.388216 
L 365.881041 264.103784 
L 379.222415 265.404684 
L 379.460654 264.174391 
L 388.751968 265.052342 
L 388.990207 263.857655 
L 409.240507 265.677953 
L 414.72 266.13504 
L 414.72 266.13504 
" style="fill:none;stroke:#1f77b4;stroke-linecap:square;stroke-width:1.5;"/>
   </g>
   <g id="line2d_18">
    <path clip-path="url(#pc96383be91)" d="M 57.6 295.488 
L 82.376838 295.488 
L 82.615077 279.512151 
L 82.853316 279.661458 
L 83.091554 264.128 
L 84.997465 266.290759 
L 85.712181 267.026824 
L 85.95042 253.152 
L 88.09457 256.105674 
L 90.238719 258.674087 
L 92.14463 260.691288 
L 92.382869 249.408 
L 93.097585 250.3296 
L 93.335824 239.413828 
L 95.479973 242.568 
L 97.862362 245.680941 
L 100.24475 248.448 
L 102.865377 251.15711 
L 105.486004 253.571168 
L 105.724243 245.435586 
L 108.583109 248.229209 
L 111.680213 250.923789 
L 112.871408 251.880103 
L 113.109646 244.829538 
L 114.062602 245.680941 
L 114.300841 238.803816 
L 117.397945 241.728 
L 118.112662 242.360471 
L 118.350901 235.953 
L 121.448005 238.830156 
L 124.783349 241.633018 
L 128.356931 244.343839 
L 130.977558 246.164505 
L 131.215797 240.860903 
L 135.027618 243.541988 
L 139.077678 246.116571 
L 140.030634 246.685695 
L 140.268873 241.959724 
L 143.842455 244.171636 
L 144.080694 239.660308 
L 148.368993 242.290932 
L 152.89553 244.811491 
L 157.898546 247.333308 
L 163.1398 249.719351 
L 167.18986 251.407132 
L 167.428099 247.837091 
L 172.431114 249.90887 
L 172.669353 246.504198 
L 178.625324 248.910083 
L 178.863562 249.001412 
L 179.101801 245.778411 
L 185.296011 248.185207 
L 191.966698 250.529416 
L 199.113863 252.796235 
L 204.831594 254.451489 
L 205.069833 251.786323 
L 212.931714 253.99483 
L 221.270073 256.105674 
L 226.749566 257.379646 
L 226.987805 255.054742 
L 229.846671 255.724906 
L 230.08491 253.443972 
L 233.896731 254.351806 
L 234.13497 252.124981 
L 243.426284 254.290356 
L 253.432315 256.392787 
L 256.52942 257.000727 
L 256.767658 255.023484 
L 261.532435 255.967813 
L 261.770674 254.040168 
L 266.53545 254.98431 
L 266.773689 253.103836 
L 277.970914 255.255084 
L 284.87984 256.476817 
L 285.118079 254.746243 
L 288.9299 255.416889 
L 289.168139 253.71764 
L 293.218199 254.434909 
L 293.456438 252.767516 
L 295.362348 253.109622 
L 295.838826 249.810797 
L 302.747752 251.096854 
L 302.985991 249.497389 
L 310.371394 250.839864 
L 310.609633 249.28879 
L 322.998052 251.443372 
L 323.236291 249.965419 
L 333.004083 251.578579 
L 333.242322 250.154114 
L 338.721815 251.036992 
L 339.198292 248.249183 
L 353.254383 250.493217 
L 358.972115 251.346199 
L 359.210354 250.044464 
L 363.498652 250.681027 
L 363.736891 249.399042 
L 364.213369 249.470609 
L 364.451608 248.192546 
L 367.072235 248.592738 
L 367.310474 247.327139 
L 370.16934 247.767299 
L 370.407578 246.514849 
L 370.884056 246.589277 
L 371.122295 245.340574 
L 374.2194 245.830737 
L 374.457638 244.595739 
L 385.416624 246.295843 
L 385.654863 245.10263 
L 388.990207 245.609379 
L 389.228446 244.429508 
L 405.190447 246.772603 
L 413.290567 247.881253 
L 413.528806 246.780361 
L 414.72 246.94272 
L 414.72 246.94272 
" style="fill:none;stroke:#ff7f0e;stroke-linecap:square;stroke-width:1.5;"/>
   </g>
   <g id="line2d_19">
    <path clip-path="url(#pc96383be91)" d="M 57.6 295.488 
L 61.65006 295.488 
L 61.888299 206.359579 
L 62.603015 218.513455 
L 63.555971 230.355692 
L 64.508926 239.04 
L 65.461881 245.680941 
L 66.414837 250.923789 
L 67.606031 256.105674 
L 68.797225 260.208 
L 69.988419 263.536302 
L 71.179613 266.290759 
L 72.609046 269.028 
L 74.038479 271.296 
L 75.467912 273.205895 
L 75.706151 251.502545 
L 76.659106 253.674667 
L 76.897345 233.532878 
L 77.8503 236.414512 
L 78.088539 217.62869 
L 79.756211 223.426723 
L 81.423883 228.421069 
L 83.091554 232.768 
L 84.997465 237.093517 
L 86.903376 240.860903 
L 88.809286 244.171636 
L 90.953436 247.447149 
L 93.097585 250.3296 
L 95.479973 253.152 
L 97.862362 255.642353 
L 99.530033 257.218169 
L 100.006511 238.724648 
L 102.627138 242.010947 
L 105.247765 244.937552 
L 108.106631 247.785465 
L 110.965497 250.3296 
L 114.062602 252.796235 
L 117.397945 255.168 
L 118.350901 255.798 
L 118.589139 249.363175 
L 119.542095 250.070069 
L 119.780334 243.779908 
L 121.209767 244.937552 
L 121.448005 238.830156 
L 124.783349 241.633018 
L 128.356931 244.343839 
L 132.168753 246.949911 
L 133.598185 247.86 
L 133.836424 242.73286 
L 134.312902 243.059517 
L 134.551141 237.994667 
L 137.648245 240.21251 
L 137.886484 235.36587 
L 141.936544 238.244958 
L 143.604216 239.351867 
L 143.842455 234.841388 
L 147.892515 237.554526 
L 148.130754 233.261858 
L 152.419053 236.069053 
L 155.03968 237.66322 
L 155.277919 233.68362 
L 159.804456 236.414512 
L 164.807472 239.165162 
L 165.283949 239.413828 
L 165.522188 235.807295 
L 170.525203 238.445811 
L 176.004696 241.080289 
L 179.101801 242.464438 
L 179.34004 239.2605 
L 179.578279 239.370105 
L 179.816518 236.184654 
L 184.581294 238.405753 
L 184.819533 235.34714 
L 189.58431 237.514378 
L 189.822548 234.572892 
L 191.251981 235.223231 
L 191.49022 232.322387 
L 193.63437 233.316252 
L 193.872608 230.469361 
L 200.066818 233.291539 
L 206.499266 235.974134 
L 209.83461 237.276 
L 210.072849 234.724942 
L 210.311087 234.819589 
L 210.549326 232.280286 
L 215.314103 234.187005 
L 215.79058 229.278316 
L 216.028819 229.37773 
L 216.267058 226.937955 
L 223.175984 229.794207 
L 224.843656 230.448341 
L 225.081895 228.135273 
L 229.608432 229.905261 
L 229.846671 227.65684 
L 237.232075 230.44196 
L 245.093956 233.16597 
L 252.717598 235.598049 
L 252.955837 233.608341 
L 261.532435 236.20772 
L 270.823749 238.788 
L 278.68563 240.802101 
L 278.923869 239.04 
L 279.400347 239.161133 
L 279.638586 237.406457 
L 286.071034 239.04 
L 286.309273 237.336574 
L 287.023989 237.517544 
L 287.262228 235.822756 
L 295.600587 237.91104 
L 295.838826 236.276811 
L 306.559573 238.824138 
L 317.518559 241.211077 
L 317.756798 239.711385 
L 322.045097 240.615057 
L 322.283336 239.141525 
L 322.759813 239.242686 
L 322.998052 237.77435 
L 323.236291 237.826065 
L 323.47453 236.361626 
L 333.718799 238.553379 
L 333.957038 237.143814 
L 334.909993 237.344137 
L 335.148232 235.941654 
L 337.53062 236.448 
L 337.768859 235.059385 
L 339.67477 235.467342 
L 339.913009 234.090091 
L 343.010113 234.75579 
L 343.248352 233.3952 
L 351.82495 235.203728 
L 352.063189 233.883473 
L 352.301428 233.933234 
L 352.539666 232.616136 
L 355.636771 233.268958 
L 355.87501 231.967106 
L 360.878025 233.014154 
L 361.116264 231.734965 
L 373.981161 234.325381 
L 374.2194 233.098105 
L 381.128326 234.429457 
L 381.366564 233.229176 
L 389.228446 234.70408 
L 389.466684 233.532878 
L 390.657879 233.754305 
L 390.896117 232.5888 
L 392.802028 232.946182 
L 393.040267 231.788696 
L 402.331581 233.504354 
L 402.56982 232.378435 
L 414.72 234.52416 
L 414.72 234.52416 
" style="fill:none;stroke:#2ca02c;stroke-linecap:square;stroke-width:1.5;"/>
   </g>
   <g id="line2d_20">
    <path clip-path="url(#pc96383be91)" d="M 57.6 295.488 
L 88.332809 295.488 
L 88.571047 282.560977 
L 91.668152 283.728 
L 95.241734 284.837434 
L 97.385884 285.408 
L 97.624123 275.44729 
L 100.959466 276.980459 
L 102.627138 277.662316 
L 102.865377 268.889466 
L 106.20072 270.705951 
L 108.34487 271.748187 
L 108.583109 263.98214 
L 110.012542 264.837502 
L 110.250781 257.347459 
L 112.871408 259.148086 
L 113.109646 252.066462 
L 116.206751 254.351806 
L 116.44499 247.68929 
L 119.780334 250.24342 
L 123.353916 252.693487 
L 124.54511 253.452255 
L 124.783349 247.616905 
L 125.021588 247.785465 
L 125.259827 242.010947 
L 128.356931 244.343839 
L 128.59517 238.851211 
L 132.168753 241.55679 
L 135.980574 244.171636 
L 140.030634 246.685695 
L 144.318933 249.092384 
L 149.083709 251.502545 
L 154.086724 253.777655 
L 158.613262 255.642353 
L 158.851501 251.760676 
L 164.330994 254.000606 
L 170.286965 256.188759 
L 171.716398 256.68 
L 171.954636 253.240017 
L 178.148846 255.40658 
L 182.198906 256.706931 
L 182.437145 253.5552 
L 189.346071 255.750238 
L 190.775504 256.176 
L 191.251981 250.289423 
L 198.160907 252.507289 
L 199.59034 252.939256 
L 199.828579 250.178569 
L 207.213983 252.411625 
L 215.075864 254.558937 
L 215.552342 254.682217 
L 215.79058 252.197053 
L 217.696491 252.711655 
L 217.93473 250.262599 
L 226.273089 252.495165 
L 235.326164 254.682217 
L 242.473329 256.25773 
L 242.711568 254.131496 
L 252.717598 256.249756 
L 253.670554 256.440233 
L 253.908793 254.434909 
L 260.817718 255.828984 
L 261.055957 253.894737 
L 272.014943 256.018255 
L 278.923869 257.249032 
L 279.162108 255.471158 
L 291.312288 257.549426 
L 301.318319 259.1055 
L 301.556558 257.488859 
L 313.944977 259.323543 
L 314.183215 257.786182 
L 317.28032 258.235424 
L 317.518559 256.718769 
L 323.712769 257.620379 
L 323.951007 256.140869 
L 332.527605 257.367273 
L 332.765844 255.935336 
L 347.77489 257.979485 
L 348.013129 256.622164 
L 361.354503 258.327875 
L 361.592742 257.030866 
L 371.360534 258.227181 
L 371.598773 256.971548 
L 372.07525 257.029862 
L 372.313489 255.777985 
L 372.789967 255.83797 
L 373.028205 254.589826 
L 382.795997 255.81737 
L 383.034236 254.60759 
L 400.42567 256.68 
L 414.72 258.23232 
L 414.72 258.23232 
" style="fill:none;stroke:#d62728;stroke-linecap:square;stroke-width:1.5;"/>
   </g>
   <g id="line2d_21">
    <path clip-path="url(#pc96383be91)" d="M 57.6 295.488 
L 60.458866 295.488 
L 60.697105 174.528 
L 61.411821 195.873882 
L 62.126538 210.816 
L 62.841254 221.860174 
L 63.794209 232.768 
L 64.747165 240.860903 
L 65.70012 247.104 
L 66.176598 249.719351 
L 66.414837 206.359579 
L 67.606031 216.723349 
L 68.797225 224.928 
L 69.035464 226.368 
L 69.273702 193.8816 
L 70.464897 203.118545 
L 71.656091 210.816 
L 72.370807 214.848 
L 72.609046 189.648 
L 74.038479 198.72 
L 75.467912 206.359579 
L 76.897345 212.881171 
L 78.565017 219.378337 
L 80.232688 224.928 
L 81.90036 229.72334 
L 83.568032 233.908364 
L 85.473943 238.083254 
L 87.379853 241.728 
L 89.524003 245.312 
L 91.668152 248.448 
L 92.859346 250.026523 
L 93.097585 239.04 
L 95.241734 242.23517 
L 96.909406 244.480771 
L 97.147645 234.645844 
L 98.338839 236.414512 
L 98.577078 226.967306 
L 100.959466 230.711607 
L 101.197705 221.860174 
L 103.580093 225.655423 
L 106.20072 229.402537 
L 106.438959 229.72334 
L 106.677198 221.860174 
L 109.297825 225.575339 
L 112.156691 229.222957 
L 113.347885 230.632851 
L 113.586124 223.732068 
L 116.44499 227.204129 
L 119.542095 230.605241 
L 121.209767 232.29994 
L 121.448005 226.239524 
L 122.877438 227.7504 
L 123.115677 221.860174 
L 123.830394 222.651871 
L 124.068632 216.864 
L 127.165737 220.352437 
L 130.501081 223.778814 
L 134.074663 227.119304 
L 136.933529 229.575665 
L 137.171768 224.717373 
L 140.983589 227.943385 
L 145.033649 231.063652 
L 149.083709 233.908364 
L 153.372008 236.658819 
L 154.086724 237.093517 
L 154.324963 233.076206 
L 158.851501 235.859831 
L 159.08974 232.033574 
L 163.854516 234.872698 
L 168.857532 237.592615 
L 174.098786 240.192 
L 179.816518 242.773914 
L 185.772488 245.218909 
L 192.204937 247.616905 
L 195.063803 248.610768 
L 195.302041 245.766964 
L 201.496251 247.903736 
L 201.73449 245.187802 
L 204.831594 246.244187 
L 205.069833 243.592258 
L 212.216998 245.987446 
L 219.84064 248.310053 
L 224.605417 249.654154 
L 224.843656 247.310475 
L 227.702522 248.119049 
L 227.940761 245.820067 
L 236.279119 248.134818 
L 245.332195 250.415452 
L 248.4293 251.146055 
L 248.667538 249.092384 
L 255.814703 250.763294 
L 256.052942 248.786417 
L 262.247151 250.198326 
L 262.48539 248.284098 
L 272.72966 250.529416 
L 276.065003 251.215059 
L 276.303242 249.420535 
L 287.500467 251.661913 
L 290.835811 252.288 
L 291.074049 250.605798 
L 303.224229 252.823814 
L 303.462468 251.225773 
L 308.465484 252.107658 
L 308.703722 250.543621 
L 321.568619 252.732076 
L 328.239306 253.784992 
L 328.477545 252.333554 
L 338.960053 253.93998 
L 339.198292 252.543621 
L 353.969099 254.682217 
L 357.304443 255.135975 
L 357.542682 253.824 
L 361.830981 254.410817 
L 362.069219 253.118899 
L 364.928085 253.512725 
L 365.166324 252.234502 
L 380.651848 254.306335 
L 380.890087 253.089649 
L 387.560774 253.946182 
L 387.799013 252.755195 
L 399.949193 254.270754 
L 400.187432 253.12258 
L 406.143402 253.846033 
L 406.381641 252.718526 
L 413.052328 253.520632 
L 413.290567 252.415229 
L 414.72 252.58752 
L 414.72 252.58752 
" style="fill:none;stroke:#9467bd;stroke-linecap:square;stroke-width:1.5;"/>
   </g>
   <g id="line2d_22">
    <path clip-path="url(#pc96383be91)" d="M 57.6 249.719351 
L 414.72 249.719351 
L 414.72 249.719351 
" style="fill:none;stroke:#8c564b;stroke-linecap:square;stroke-width:1.5;"/>
   </g>
   <g id="patch_3">
    <path d="M 57.6 307.584 
L 57.6 41.472 
" style="fill:none;stroke:#000000;stroke-linecap:square;stroke-linejoin:miter;stroke-width:0.8;"/>
   </g>
   <g id="patch_4">
    <path d="M 414.72 307.584 
L 414.72 41.472 
" style="fill:none;stroke:#000000;stroke-linecap:square;stroke-linejoin:miter;stroke-width:0.8;"/>
   </g>
   <g id="patch_5">
    <path d="M 57.6 307.584 
L 414.72 307.584 
" style="fill:none;stroke:#000000;stroke-linecap:square;stroke-linejoin:miter;stroke-width:0.8;"/>
   </g>
   <g id="patch_6">
    <path d="M 57.6 41.472 
L 414.72 41.472 
" style="fill:none;stroke:#000000;stroke-linecap:square;stroke-linejoin:miter;stroke-width:0.8;"/>
   </g>
   <g id="text_19">
    <!-- Grafico frecuencias relativas esperadas vs obtenidas -->
    <defs>
     <path d="M 59.515625 10.40625 
L 59.515625 29.984375 
L 43.40625 29.984375 
L 43.40625 38.09375 
L 69.28125 38.09375 
L 69.28125 6.78125 
Q 63.578125 2.734375 56.6875 0.65625 
Q 49.8125 -1.421875 42 -1.421875 
Q 24.90625 -1.421875 15.25 8.5625 
Q 5.609375 18.5625 5.609375 36.375 
Q 5.609375 54.25 15.25 64.234375 
Q 24.90625 74.21875 42 74.21875 
Q 49.125 74.21875 55.546875 72.453125 
Q 61.96875 70.703125 67.390625 67.28125 
L 67.390625 56.78125 
Q 61.921875 61.421875 55.765625 63.765625 
Q 49.609375 66.109375 42.828125 66.109375 
Q 29.4375 66.109375 22.71875 58.640625 
Q 16.015625 51.171875 16.015625 36.375 
Q 16.015625 21.625 22.71875 14.15625 
Q 29.4375 6.6875 42.828125 6.6875 
Q 48.046875 6.6875 52.140625 7.59375 
Q 56.25 8.5 59.515625 10.40625 
z
" id="DejaVuSans-47"/>
     <path d="M 37.109375 75.984375 
L 37.109375 68.5 
L 28.515625 68.5 
Q 23.6875 68.5 21.796875 66.546875 
Q 19.921875 64.59375 19.921875 59.515625 
L 19.921875 54.6875 
L 34.71875 54.6875 
L 34.71875 47.703125 
L 19.921875 47.703125 
L 19.921875 0 
L 10.890625 0 
L 10.890625 47.703125 
L 2.296875 47.703125 
L 2.296875 54.6875 
L 10.890625 54.6875 
L 10.890625 58.5 
Q 10.890625 67.625 15.140625 71.796875 
Q 19.390625 75.984375 28.609375 75.984375 
z
" id="DejaVuSans-66"/>
     <path d="M 30.609375 48.390625 
Q 23.390625 48.390625 19.1875 42.75 
Q 14.984375 37.109375 14.984375 27.296875 
Q 14.984375 17.484375 19.15625 11.84375 
Q 23.34375 6.203125 30.609375 6.203125 
Q 37.796875 6.203125 41.984375 11.859375 
Q 46.1875 17.53125 46.1875 27.296875 
Q 46.1875 37.015625 41.984375 42.703125 
Q 37.796875 48.390625 30.609375 48.390625 
z
M 30.609375 56 
Q 42.328125 56 49.015625 48.375 
Q 55.71875 40.765625 55.71875 27.296875 
Q 55.71875 13.875 49.015625 6.21875 
Q 42.328125 -1.421875 30.609375 -1.421875 
Q 18.84375 -1.421875 12.171875 6.21875 
Q 5.515625 13.875 5.515625 27.296875 
Q 5.515625 40.765625 12.171875 48.375 
Q 18.84375 56 30.609375 56 
z
" id="DejaVuSans-6f"/>
     <path d="M 18.109375 8.203125 
L 18.109375 -20.796875 
L 9.078125 -20.796875 
L 9.078125 54.6875 
L 18.109375 54.6875 
L 18.109375 46.390625 
Q 20.953125 51.265625 25.265625 53.625 
Q 29.59375 56 35.59375 56 
Q 45.5625 56 51.78125 48.09375 
Q 58.015625 40.1875 58.015625 27.296875 
Q 58.015625 14.40625 51.78125 6.484375 
Q 45.5625 -1.421875 35.59375 -1.421875 
Q 29.59375 -1.421875 25.265625 0.953125 
Q 20.953125 3.328125 18.109375 8.203125 
z
M 48.6875 27.296875 
Q 48.6875 37.203125 44.609375 42.84375 
Q 40.53125 48.484375 33.40625 48.484375 
Q 26.265625 48.484375 22.1875 42.84375 
Q 18.109375 37.203125 18.109375 27.296875 
Q 18.109375 17.390625 22.1875 11.75 
Q 26.265625 6.109375 33.40625 6.109375 
Q 40.53125 6.109375 44.609375 11.75 
Q 48.6875 17.390625 48.6875 27.296875 
z
" id="DejaVuSans-70"/>
     <path d="M 48.6875 27.296875 
Q 48.6875 37.203125 44.609375 42.84375 
Q 40.53125 48.484375 33.40625 48.484375 
Q 26.265625 48.484375 22.1875 42.84375 
Q 18.109375 37.203125 18.109375 27.296875 
Q 18.109375 17.390625 22.1875 11.75 
Q 26.265625 6.109375 33.40625 6.109375 
Q 40.53125 6.109375 44.609375 11.75 
Q 48.6875 17.390625 48.6875 27.296875 
z
M 18.109375 46.390625 
Q 20.953125 51.265625 25.265625 53.625 
Q 29.59375 56 35.59375 56 
Q 45.5625 56 51.78125 48.09375 
Q 58.015625 40.1875 58.015625 27.296875 
Q 58.015625 14.40625 51.78125 6.484375 
Q 45.5625 -1.421875 35.59375 -1.421875 
Q 29.59375 -1.421875 25.265625 0.953125 
Q 20.953125 3.328125 18.109375 8.203125 
L 18.109375 0 
L 9.078125 0 
L 9.078125 75.984375 
L 18.109375 75.984375 
z
" id="DejaVuSans-62"/>
    </defs>
    <g transform="translate(77.221875 35.472)scale(0.12 -0.12)">
     <use xlink:href="#DejaVuSans-47"/>
     <use x="77.490234" xlink:href="#DejaVuSans-72"/>
     <use x="118.603516" xlink:href="#DejaVuSans-61"/>
     <use x="179.882812" xlink:href="#DejaVuSans-66"/>
     <use x="215.087891" xlink:href="#DejaVuSans-69"/>
     <use x="242.871094" xlink:href="#DejaVuSans-63"/>
     <use x="297.851562" xlink:href="#DejaVuSans-6f"/>
     <use x="359.033203" xlink:href="#DejaVuSans-20"/>
     <use x="390.820312" xlink:href="#DejaVuSans-66"/>
     <use x="426.025391" xlink:href="#DejaVuSans-72"/>
     <use x="467.107422" xlink:href="#DejaVuSans-65"/>
     <use x="528.630859" xlink:href="#DejaVuSans-63"/>
     <use x="583.611328" xlink:href="#DejaVuSans-75"/>
     <use x="646.990234" xlink:href="#DejaVuSans-65"/>
     <use x="708.513672" xlink:href="#DejaVuSans-6e"/>
     <use x="771.892578" xlink:href="#DejaVuSans-63"/>
     <use x="826.873047" xlink:href="#DejaVuSans-69"/>
     <use x="854.65625" xlink:href="#DejaVuSans-61"/>
     <use x="915.935547" xlink:href="#DejaVuSans-73"/>
     <use x="968.035156" xlink:href="#DejaVuSans-20"/>
     <use x="999.822266" xlink:href="#DejaVuSans-72"/>
     <use x="1040.904297" xlink:href="#DejaVuSans-65"/>
     <use x="1102.427734" xlink:href="#DejaVuSans-6c"/>
     <use x="1130.210938" xlink:href="#DejaVuSans-61"/>
     <use x="1191.490234" xlink:href="#DejaVuSans-74"/>
     <use x="1230.699219" xlink:href="#DejaVuSans-69"/>
     <use x="1258.482422" xlink:href="#DejaVuSans-76"/>
     <use x="1317.662109" xlink:href="#DejaVuSans-61"/>
     <use x="1378.941406" xlink:href="#DejaVuSans-73"/>
     <use x="1431.041016" xlink:href="#DejaVuSans-20"/>
     <use x="1462.828125" xlink:href="#DejaVuSans-65"/>
     <use x="1524.351562" xlink:href="#DejaVuSans-73"/>
     <use x="1576.451172" xlink:href="#DejaVuSans-70"/>
     <use x="1639.927734" xlink:href="#DejaVuSans-65"/>
     <use x="1701.451172" xlink:href="#DejaVuSans-72"/>
     <use x="1742.564453" xlink:href="#DejaVuSans-61"/>
     <use x="1803.84375" xlink:href="#DejaVuSans-64"/>
     <use x="1867.320312" xlink:href="#DejaVuSans-61"/>
     <use x="1928.599609" xlink:href="#DejaVuSans-73"/>
     <use x="1980.699219" xlink:href="#DejaVuSans-20"/>
     <use x="2012.486328" xlink:href="#DejaVuSans-76"/>
     <use x="2071.666016" xlink:href="#DejaVuSans-73"/>
     <use x="2123.765625" xlink:href="#DejaVuSans-20"/>
     <use x="2155.552734" xlink:href="#DejaVuSans-6f"/>
     <use x="2216.734375" xlink:href="#DejaVuSans-62"/>
     <use x="2280.210938" xlink:href="#DejaVuSans-74"/>
     <use x="2319.419922" xlink:href="#DejaVuSans-65"/>
     <use x="2380.943359" xlink:href="#DejaVuSans-6e"/>
     <use x="2444.322266" xlink:href="#DejaVuSans-69"/>
     <use x="2472.105469" xlink:href="#DejaVuSans-64"/>
     <use x="2535.582031" xlink:href="#DejaVuSans-61"/>
     <use x="2596.861328" xlink:href="#DejaVuSans-73"/>
    </g>
   </g>
   <g id="legend_1">
    <g id="patch_7">
     <path d="M 223.045 137.54075 
L 407.72 137.54075 
Q 409.72 137.54075 409.72 135.54075 
L 409.72 48.472 
Q 409.72 46.472 407.72 46.472 
L 223.045 46.472 
Q 221.045 46.472 221.045 48.472 
L 221.045 135.54075 
Q 221.045 137.54075 223.045 137.54075 
z
" style="fill:#ffffff;opacity:0.8;stroke:#cccccc;stroke-linejoin:miter;"/>
    </g>
    <g id="line2d_23">
     <path d="M 225.045 54.570438 
L 245.045 54.570438 
" style="fill:none;stroke:#1f77b4;stroke-linecap:square;stroke-width:1.5;"/>
    </g>
    <g id="line2d_24"/>
    <g id="text_20">
     <!-- Frecuencia relativa 1 obtenida -->
     <g transform="translate(253.045 58.070438)scale(0.1 -0.1)">
      <use xlink:href="#DejaVuSans-46"/>
      <use x="57.410156" xlink:href="#DejaVuSans-72"/>
      <use x="98.492188" xlink:href="#DejaVuSans-65"/>
      <use x="160.015625" xlink:href="#DejaVuSans-63"/>
      <use x="214.996094" xlink:href="#DejaVuSans-75"/>
      <use x="278.375" xlink:href="#DejaVuSans-65"/>
      <use x="339.898438" xlink:href="#DejaVuSans-6e"/>
      <use x="403.277344" xlink:href="#DejaVuSans-63"/>
      <use x="458.257812" xlink:href="#DejaVuSans-69"/>
      <use x="486.041016" xlink:href="#DejaVuSans-61"/>
      <use x="547.320312" xlink:href="#DejaVuSans-20"/>
      <use x="579.107422" xlink:href="#DejaVuSans-72"/>
      <use x="620.189453" xlink:href="#DejaVuSans-65"/>
      <use x="681.712891" xlink:href="#DejaVuSans-6c"/>
      <use x="709.496094" xlink:href="#DejaVuSans-61"/>
      <use x="770.775391" xlink:href="#DejaVuSans-74"/>
      <use x="809.984375" xlink:href="#DejaVuSans-69"/>
      <use x="837.767578" xlink:href="#DejaVuSans-76"/>
      <use x="896.947266" xlink:href="#DejaVuSans-61"/>
      <use x="958.226562" xlink:href="#DejaVuSans-20"/>
      <use x="990.013672" xlink:href="#DejaVuSans-31"/>
      <use x="1053.636719" xlink:href="#DejaVuSans-20"/>
      <use x="1085.423828" xlink:href="#DejaVuSans-6f"/>
      <use x="1146.605469" xlink:href="#DejaVuSans-62"/>
      <use x="1210.082031" xlink:href="#DejaVuSans-74"/>
      <use x="1249.291016" xlink:href="#DejaVuSans-65"/>
      <use x="1310.814453" xlink:href="#DejaVuSans-6e"/>
      <use x="1374.193359" xlink:href="#DejaVuSans-69"/>
      <use x="1401.976562" xlink:href="#DejaVuSans-64"/>
      <use x="1465.453125" xlink:href="#DejaVuSans-61"/>
     </g>
    </g>
    <g id="line2d_25">
     <path d="M 225.045 69.248563 
L 245.045 69.248563 
" style="fill:none;stroke:#ff7f0e;stroke-linecap:square;stroke-width:1.5;"/>
    </g>
    <g id="line2d_26"/>
    <g id="text_21">
     <!-- Frecuencia relativa 2 obtenida -->
     <g transform="translate(253.045 72.748563)scale(0.1 -0.1)">
      <use xlink:href="#DejaVuSans-46"/>
      <use x="57.410156" xlink:href="#DejaVuSans-72"/>
      <use x="98.492188" xlink:href="#DejaVuSans-65"/>
      <use x="160.015625" xlink:href="#DejaVuSans-63"/>
      <use x="214.996094" xlink:href="#DejaVuSans-75"/>
      <use x="278.375" xlink:href="#DejaVuSans-65"/>
      <use x="339.898438" xlink:href="#DejaVuSans-6e"/>
      <use x="403.277344" xlink:href="#DejaVuSans-63"/>
      <use x="458.257812" xlink:href="#DejaVuSans-69"/>
      <use x="486.041016" xlink:href="#DejaVuSans-61"/>
      <use x="547.320312" xlink:href="#DejaVuSans-20"/>
      <use x="579.107422" xlink:href="#DejaVuSans-72"/>
      <use x="620.189453" xlink:href="#DejaVuSans-65"/>
      <use x="681.712891" xlink:href="#DejaVuSans-6c"/>
      <use x="709.496094" xlink:href="#DejaVuSans-61"/>
      <use x="770.775391" xlink:href="#DejaVuSans-74"/>
      <use x="809.984375" xlink:href="#DejaVuSans-69"/>
      <use x="837.767578" xlink:href="#DejaVuSans-76"/>
      <use x="896.947266" xlink:href="#DejaVuSans-61"/>
      <use x="958.226562" xlink:href="#DejaVuSans-20"/>
      <use x="990.013672" xlink:href="#DejaVuSans-32"/>
      <use x="1053.636719" xlink:href="#DejaVuSans-20"/>
      <use x="1085.423828" xlink:href="#DejaVuSans-6f"/>
      <use x="1146.605469" xlink:href="#DejaVuSans-62"/>
      <use x="1210.082031" xlink:href="#DejaVuSans-74"/>
      <use x="1249.291016" xlink:href="#DejaVuSans-65"/>
      <use x="1310.814453" xlink:href="#DejaVuSans-6e"/>
      <use x="1374.193359" xlink:href="#DejaVuSans-69"/>
      <use x="1401.976562" xlink:href="#DejaVuSans-64"/>
      <use x="1465.453125" xlink:href="#DejaVuSans-61"/>
     </g>
    </g>
    <g id="line2d_27">
     <path d="M 225.045 83.926688 
L 245.045 83.926688 
" style="fill:none;stroke:#2ca02c;stroke-linecap:square;stroke-width:1.5;"/>
    </g>
    <g id="line2d_28"/>
    <g id="text_22">
     <!-- Frecuencia relativa 3 obtenida -->
     <defs>
      <path d="M 40.578125 39.3125 
Q 47.65625 37.796875 51.625 33 
Q 55.609375 28.21875 55.609375 21.1875 
Q 55.609375 10.40625 48.1875 4.484375 
Q 40.765625 -1.421875 27.09375 -1.421875 
Q 22.515625 -1.421875 17.65625 -0.515625 
Q 12.796875 0.390625 7.625 2.203125 
L 7.625 11.71875 
Q 11.71875 9.328125 16.59375 8.109375 
Q 21.484375 6.890625 26.8125 6.890625 
Q 36.078125 6.890625 40.9375 10.546875 
Q 45.796875 14.203125 45.796875 21.1875 
Q 45.796875 27.640625 41.28125 31.265625 
Q 36.765625 34.90625 28.71875 34.90625 
L 20.21875 34.90625 
L 20.21875 43.015625 
L 29.109375 43.015625 
Q 36.375 43.015625 40.234375 45.921875 
Q 44.09375 48.828125 44.09375 54.296875 
Q 44.09375 59.90625 40.109375 62.90625 
Q 36.140625 65.921875 28.71875 65.921875 
Q 24.65625 65.921875 20.015625 65.03125 
Q 15.375 64.15625 9.8125 62.3125 
L 9.8125 71.09375 
Q 15.4375 72.65625 20.34375 73.4375 
Q 25.25 74.21875 29.59375 74.21875 
Q 40.828125 74.21875 47.359375 69.109375 
Q 53.90625 64.015625 53.90625 55.328125 
Q 53.90625 49.265625 50.4375 45.09375 
Q 46.96875 40.921875 40.578125 39.3125 
z
" id="DejaVuSans-33"/>
     </defs>
     <g transform="translate(253.045 87.426688)scale(0.1 -0.1)">
      <use xlink:href="#DejaVuSans-46"/>
      <use x="57.410156" xlink:href="#DejaVuSans-72"/>
      <use x="98.492188" xlink:href="#DejaVuSans-65"/>
      <use x="160.015625" xlink:href="#DejaVuSans-63"/>
      <use x="214.996094" xlink:href="#DejaVuSans-75"/>
      <use x="278.375" xlink:href="#DejaVuSans-65"/>
      <use x="339.898438" xlink:href="#DejaVuSans-6e"/>
      <use x="403.277344" xlink:href="#DejaVuSans-63"/>
      <use x="458.257812" xlink:href="#DejaVuSans-69"/>
      <use x="486.041016" xlink:href="#DejaVuSans-61"/>
      <use x="547.320312" xlink:href="#DejaVuSans-20"/>
      <use x="579.107422" xlink:href="#DejaVuSans-72"/>
      <use x="620.189453" xlink:href="#DejaVuSans-65"/>
      <use x="681.712891" xlink:href="#DejaVuSans-6c"/>
      <use x="709.496094" xlink:href="#DejaVuSans-61"/>
      <use x="770.775391" xlink:href="#DejaVuSans-74"/>
      <use x="809.984375" xlink:href="#DejaVuSans-69"/>
      <use x="837.767578" xlink:href="#DejaVuSans-76"/>
      <use x="896.947266" xlink:href="#DejaVuSans-61"/>
      <use x="958.226562" xlink:href="#DejaVuSans-20"/>
      <use x="990.013672" xlink:href="#DejaVuSans-33"/>
      <use x="1053.636719" xlink:href="#DejaVuSans-20"/>
      <use x="1085.423828" xlink:href="#DejaVuSans-6f"/>
      <use x="1146.605469" xlink:href="#DejaVuSans-62"/>
      <use x="1210.082031" xlink:href="#DejaVuSans-74"/>
      <use x="1249.291016" xlink:href="#DejaVuSans-65"/>
      <use x="1310.814453" xlink:href="#DejaVuSans-6e"/>
      <use x="1374.193359" xlink:href="#DejaVuSans-69"/>
      <use x="1401.976562" xlink:href="#DejaVuSans-64"/>
      <use x="1465.453125" xlink:href="#DejaVuSans-61"/>
     </g>
    </g>
    <g id="line2d_29">
     <path d="M 225.045 98.604813 
L 245.045 98.604813 
" style="fill:none;stroke:#d62728;stroke-linecap:square;stroke-width:1.5;"/>
    </g>
    <g id="line2d_30"/>
    <g id="text_23">
     <!-- Frecuencia relativa 4 obtenida -->
     <g transform="translate(253.045 102.104813)scale(0.1 -0.1)">
      <use xlink:href="#DejaVuSans-46"/>
      <use x="57.410156" xlink:href="#DejaVuSans-72"/>
      <use x="98.492188" xlink:href="#DejaVuSans-65"/>
      <use x="160.015625" xlink:href="#DejaVuSans-63"/>
      <use x="214.996094" xlink:href="#DejaVuSans-75"/>
      <use x="278.375" xlink:href="#DejaVuSans-65"/>
      <use x="339.898438" xlink:href="#DejaVuSans-6e"/>
      <use x="403.277344" xlink:href="#DejaVuSans-63"/>
      <use x="458.257812" xlink:href="#DejaVuSans-69"/>
      <use x="486.041016" xlink:href="#DejaVuSans-61"/>
      <use x="547.320312" xlink:href="#DejaVuSans-20"/>
      <use x="579.107422" xlink:href="#DejaVuSans-72"/>
      <use x="620.189453" xlink:href="#DejaVuSans-65"/>
      <use x="681.712891" xlink:href="#DejaVuSans-6c"/>
      <use x="709.496094" xlink:href="#DejaVuSans-61"/>
      <use x="770.775391" xlink:href="#DejaVuSans-74"/>
      <use x="809.984375" xlink:href="#DejaVuSans-69"/>
      <use x="837.767578" xlink:href="#DejaVuSans-76"/>
      <use x="896.947266" xlink:href="#DejaVuSans-61"/>
      <use x="958.226562" xlink:href="#DejaVuSans-20"/>
      <use x="990.013672" xlink:href="#DejaVuSans-34"/>
      <use x="1053.636719" xlink:href="#DejaVuSans-20"/>
      <use x="1085.423828" xlink:href="#DejaVuSans-6f"/>
      <use x="1146.605469" xlink:href="#DejaVuSans-62"/>
      <use x="1210.082031" xlink:href="#DejaVuSans-74"/>
      <use x="1249.291016" xlink:href="#DejaVuSans-65"/>
      <use x="1310.814453" xlink:href="#DejaVuSans-6e"/>
      <use x="1374.193359" xlink:href="#DejaVuSans-69"/>
      <use x="1401.976562" xlink:href="#DejaVuSans-64"/>
      <use x="1465.453125" xlink:href="#DejaVuSans-61"/>
     </g>
    </g>
    <g id="line2d_31">
     <path d="M 225.045 113.282938 
L 245.045 113.282938 
" style="fill:none;stroke:#9467bd;stroke-linecap:square;stroke-width:1.5;"/>
    </g>
    <g id="line2d_32"/>
    <g id="text_24">
     <!-- Frecuencia relativa 5 obtenida -->
     <defs>
      <path d="M 10.796875 72.90625 
L 49.515625 72.90625 
L 49.515625 64.59375 
L 19.828125 64.59375 
L 19.828125 46.734375 
Q 21.96875 47.46875 24.109375 47.828125 
Q 26.265625 48.1875 28.421875 48.1875 
Q 40.625 48.1875 47.75 41.5 
Q 54.890625 34.8125 54.890625 23.390625 
Q 54.890625 11.625 47.5625 5.09375 
Q 40.234375 -1.421875 26.90625 -1.421875 
Q 22.3125 -1.421875 17.546875 -0.640625 
Q 12.796875 0.140625 7.71875 1.703125 
L 7.71875 11.625 
Q 12.109375 9.234375 16.796875 8.0625 
Q 21.484375 6.890625 26.703125 6.890625 
Q 35.15625 6.890625 40.078125 11.328125 
Q 45.015625 15.765625 45.015625 23.390625 
Q 45.015625 31 40.078125 35.4375 
Q 35.15625 39.890625 26.703125 39.890625 
Q 22.75 39.890625 18.8125 39.015625 
Q 14.890625 38.140625 10.796875 36.28125 
z
" id="DejaVuSans-35"/>
     </defs>
     <g transform="translate(253.045 116.782938)scale(0.1 -0.1)">
      <use xlink:href="#DejaVuSans-46"/>
      <use x="57.410156" xlink:href="#DejaVuSans-72"/>
      <use x="98.492188" xlink:href="#DejaVuSans-65"/>
      <use x="160.015625" xlink:href="#DejaVuSans-63"/>
      <use x="214.996094" xlink:href="#DejaVuSans-75"/>
      <use x="278.375" xlink:href="#DejaVuSans-65"/>
      <use x="339.898438" xlink:href="#DejaVuSans-6e"/>
      <use x="403.277344" xlink:href="#DejaVuSans-63"/>
      <use x="458.257812" xlink:href="#DejaVuSans-69"/>
      <use x="486.041016" xlink:href="#DejaVuSans-61"/>
      <use x="547.320312" xlink:href="#DejaVuSans-20"/>
      <use x="579.107422" xlink:href="#DejaVuSans-72"/>
      <use x="620.189453" xlink:href="#DejaVuSans-65"/>
      <use x="681.712891" xlink:href="#DejaVuSans-6c"/>
      <use x="709.496094" xlink:href="#DejaVuSans-61"/>
      <use x="770.775391" xlink:href="#DejaVuSans-74"/>
      <use x="809.984375" xlink:href="#DejaVuSans-69"/>
      <use x="837.767578" xlink:href="#DejaVuSans-76"/>
      <use x="896.947266" xlink:href="#DejaVuSans-61"/>
      <use x="958.226562" xlink:href="#DejaVuSans-20"/>
      <use x="990.013672" xlink:href="#DejaVuSans-35"/>
      <use x="1053.636719" xlink:href="#DejaVuSans-20"/>
      <use x="1085.423828" xlink:href="#DejaVuSans-6f"/>
      <use x="1146.605469" xlink:href="#DejaVuSans-62"/>
      <use x="1210.082031" xlink:href="#DejaVuSans-74"/>
      <use x="1249.291016" xlink:href="#DejaVuSans-65"/>
      <use x="1310.814453" xlink:href="#DejaVuSans-6e"/>
      <use x="1374.193359" xlink:href="#DejaVuSans-69"/>
      <use x="1401.976562" xlink:href="#DejaVuSans-64"/>
      <use x="1465.453125" xlink:href="#DejaVuSans-61"/>
     </g>
    </g>
    <g id="line2d_33">
     <path d="M 225.045 127.961063 
L 245.045 127.961063 
" style="fill:none;stroke:#8c564b;stroke-linecap:square;stroke-width:1.5;"/>
    </g>
    <g id="line2d_34"/>
    <g id="text_25">
     <!-- Frecuencia relativa esperada -->
     <g transform="translate(253.045 131.461063)scale(0.1 -0.1)">
      <use xlink:href="#DejaVuSans-46"/>
      <use x="57.410156" xlink:href="#DejaVuSans-72"/>
      <use x="98.492188" xlink:href="#DejaVuSans-65"/>
      <use x="160.015625" xlink:href="#DejaVuSans-63"/>
      <use x="214.996094" xlink:href="#DejaVuSans-75"/>
      <use x="278.375" xlink:href="#DejaVuSans-65"/>
      <use x="339.898438" xlink:href="#DejaVuSans-6e"/>
      <use x="403.277344" xlink:href="#DejaVuSans-63"/>
      <use x="458.257812" xlink:href="#DejaVuSans-69"/>
      <use x="486.041016" xlink:href="#DejaVuSans-61"/>
      <use x="547.320312" xlink:href="#DejaVuSans-20"/>
      <use x="579.107422" xlink:href="#DejaVuSans-72"/>
      <use x="620.189453" xlink:href="#DejaVuSans-65"/>
      <use x="681.712891" xlink:href="#DejaVuSans-6c"/>
      <use x="709.496094" xlink:href="#DejaVuSans-61"/>
      <use x="770.775391" xlink:href="#DejaVuSans-74"/>
      <use x="809.984375" xlink:href="#DejaVuSans-69"/>
      <use x="837.767578" xlink:href="#DejaVuSans-76"/>
      <use x="896.947266" xlink:href="#DejaVuSans-61"/>
      <use x="958.226562" xlink:href="#DejaVuSans-20"/>
      <use x="990.013672" xlink:href="#DejaVuSans-65"/>
      <use x="1051.537109" xlink:href="#DejaVuSans-73"/>
      <use x="1103.636719" xlink:href="#DejaVuSans-70"/>
      <use x="1167.113281" xlink:href="#DejaVuSans-65"/>
      <use x="1228.636719" xlink:href="#DejaVuSans-72"/>
      <use x="1269.75" xlink:href="#DejaVuSans-61"/>
      <use x="1331.029297" xlink:href="#DejaVuSans-64"/>
      <use x="1394.505859" xlink:href="#DejaVuSans-61"/>
     </g>
    </g>
   </g>
  </g>
 </g>
 <defs>
  <clipPath id="pc96383be91">
   <rect height="266.112" width="357.12" x="57.6" y="41.472"/>
  </clipPath>
 </defs>
</svg>
