<?xml version="1.0" encoding="utf-8" standalone="no"?>
<!DOCTYPE svg PUBLIC "-//W3C//DTD SVG 1.1//EN"
  "http://www.w3.org/Graphics/SVG/1.1/DTD/svg11.dtd">
<!-- Created with matplotlib (http://matplotlib.org/) -->
<svg height="345.6pt" version="1.1" viewBox="0 0 460.8 345.6" width="460.8pt" xmlns="http://www.w3.org/2000/svg" xmlns:xlink="http://www.w3.org/1999/xlink">
 <defs>
  <style type="text/css">
*{stroke-linecap:butt;stroke-linejoin:round;}
  </style>
 </defs>
 <g id="figure_1">
  <g id="patch_1">
   <path d="M 0 345.6 
L 460.8 345.6 
L 460.8 0 
L 0 0 
z
" style="fill:#ffffff;"/>
  </g>
  <g id="axes_1">
   <g id="patch_2">
    <path d="M 57.6 307.584 
L 414.72 307.584 
L 414.72 41.472 
L 57.6 41.472 
z
" style="fill:#ffffff;"/>
   </g>
   <g id="matplotlib.axis_1">
    <g id="xtick_1">
     <g id="line2d_1">
      <defs>
       <path d="M 0 0 
L 0 3.5 
" id="mb875e0df5e" style="stroke:#000000;stroke-width:0.8;"/>
      </defs>
      <g>
       <use style="stroke:#000000;stroke-width:0.8;" x="57.361761" xlink:href="#mb875e0df5e" y="307.584"/>
      </g>
     </g>
     <g id="text_1">
      <!-- 0 -->
      <defs>
       <path d="M 31.78125 66.40625 
Q 24.171875 66.40625 20.328125 58.90625 
Q 16.5 51.421875 16.5 36.375 
Q 16.5 21.390625 20.328125 13.890625 
Q 24.171875 6.390625 31.78125 6.390625 
Q 39.453125 6.390625 43.28125 13.890625 
Q 47.125 21.390625 47.125 36.375 
Q 47.125 51.421875 43.28125 58.90625 
Q 39.453125 66.40625 31.78125 66.40625 
z
M 31.78125 74.21875 
Q 44.046875 74.21875 50.515625 64.515625 
Q 56.984375 54.828125 56.984375 36.375 
Q 56.984375 17.96875 50.515625 8.265625 
Q 44.046875 -1.421875 31.78125 -1.421875 
Q 19.53125 -1.421875 13.0625 8.265625 
Q 6.59375 17.96875 6.59375 36.375 
Q 6.59375 54.828125 13.0625 64.515625 
Q 19.53125 74.21875 31.78125 74.21875 
z
" id="DejaVuSans-30"/>
      </defs>
      <g transform="translate(54.180511 322.182437)scale(0.1 -0.1)">
       <use xlink:href="#DejaVuSans-30"/>
      </g>
     </g>
    </g>
    <g id="xtick_2">
     <g id="line2d_2">
      <g>
       <use style="stroke:#000000;stroke-width:0.8;" x="105.009526" xlink:href="#mb875e0df5e" y="307.584"/>
      </g>
     </g>
     <g id="text_2">
      <!-- 200 -->
      <defs>
       <path d="M 19.1875 8.296875 
L 53.609375 8.296875 
L 53.609375 0 
L 7.328125 0 
L 7.328125 8.296875 
Q 12.9375 14.109375 22.625 23.890625 
Q 32.328125 33.6875 34.8125 36.53125 
Q 39.546875 41.84375 41.421875 45.53125 
Q 43.3125 49.21875 43.3125 52.78125 
Q 43.3125 58.59375 39.234375 62.25 
Q 35.15625 65.921875 28.609375 65.921875 
Q 23.96875 65.921875 18.8125 64.3125 
Q 13.671875 62.703125 7.8125 59.421875 
L 7.8125 69.390625 
Q 13.765625 71.78125 18.9375 73 
Q 24.125 74.21875 28.421875 74.21875 
Q 39.75 74.21875 46.484375 68.546875 
Q 53.21875 62.890625 53.21875 53.421875 
Q 53.21875 48.921875 51.53125 44.890625 
Q 49.859375 40.875 45.40625 35.40625 
Q 44.1875 33.984375 37.640625 27.21875 
Q 31.109375 20.453125 19.1875 8.296875 
z
" id="DejaVuSans-32"/>
      </defs>
      <g transform="translate(95.465776 322.182437)scale(0.1 -0.1)">
       <use xlink:href="#DejaVuSans-32"/>
       <use x="63.623047" xlink:href="#DejaVuSans-30"/>
       <use x="127.246094" xlink:href="#DejaVuSans-30"/>
      </g>
     </g>
    </g>
    <g id="xtick_3">
     <g id="line2d_3">
      <g>
       <use style="stroke:#000000;stroke-width:0.8;" x="152.657292" xlink:href="#mb875e0df5e" y="307.584"/>
      </g>
     </g>
     <g id="text_3">
      <!-- 400 -->
      <defs>
       <path d="M 37.796875 64.3125 
L 12.890625 25.390625 
L 37.796875 25.390625 
z
M 35.203125 72.90625 
L 47.609375 72.90625 
L 47.609375 25.390625 
L 58.015625 25.390625 
L 58.015625 17.1875 
L 47.609375 17.1875 
L 47.609375 0 
L 37.796875 0 
L 37.796875 17.1875 
L 4.890625 17.1875 
L 4.890625 26.703125 
z
" id="DejaVuSans-34"/>
      </defs>
      <g transform="translate(143.113542 322.182437)scale(0.1 -0.1)">
       <use xlink:href="#DejaVuSans-34"/>
       <use x="63.623047" xlink:href="#DejaVuSans-30"/>
       <use x="127.246094" xlink:href="#DejaVuSans-30"/>
      </g>
     </g>
    </g>
    <g id="xtick_4">
     <g id="line2d_4">
      <g>
       <use style="stroke:#000000;stroke-width:0.8;" x="200.305057" xlink:href="#mb875e0df5e" y="307.584"/>
      </g>
     </g>
     <g id="text_4">
      <!-- 600 -->
      <defs>
       <path d="M 33.015625 40.375 
Q 26.375 40.375 22.484375 35.828125 
Q 18.609375 31.296875 18.609375 23.390625 
Q 18.609375 15.53125 22.484375 10.953125 
Q 26.375 6.390625 33.015625 6.390625 
Q 39.65625 6.390625 43.53125 10.953125 
Q 47.40625 15.53125 47.40625 23.390625 
Q 47.40625 31.296875 43.53125 35.828125 
Q 39.65625 40.375 33.015625 40.375 
z
M 52.59375 71.296875 
L 52.59375 62.3125 
Q 48.875 64.0625 45.09375 64.984375 
Q 41.3125 65.921875 37.59375 65.921875 
Q 27.828125 65.921875 22.671875 59.328125 
Q 17.53125 52.734375 16.796875 39.40625 
Q 19.671875 43.65625 24.015625 45.921875 
Q 28.375 48.1875 33.59375 48.1875 
Q 44.578125 48.1875 50.953125 41.515625 
Q 57.328125 34.859375 57.328125 23.390625 
Q 57.328125 12.15625 50.6875 5.359375 
Q 44.046875 -1.421875 33.015625 -1.421875 
Q 20.359375 -1.421875 13.671875 8.265625 
Q 6.984375 17.96875 6.984375 36.375 
Q 6.984375 53.65625 15.1875 63.9375 
Q 23.390625 74.21875 37.203125 74.21875 
Q 40.921875 74.21875 44.703125 73.484375 
Q 48.484375 72.75 52.59375 71.296875 
z
" id="DejaVuSans-36"/>
      </defs>
      <g transform="translate(190.761307 322.182437)scale(0.1 -0.1)">
       <use xlink:href="#DejaVuSans-36"/>
       <use x="63.623047" xlink:href="#DejaVuSans-30"/>
       <use x="127.246094" xlink:href="#DejaVuSans-30"/>
      </g>
     </g>
    </g>
    <g id="xtick_5">
     <g id="line2d_5">
      <g>
       <use style="stroke:#000000;stroke-width:0.8;" x="247.952822" xlink:href="#mb875e0df5e" y="307.584"/>
      </g>
     </g>
     <g id="text_5">
      <!-- 800 -->
      <defs>
       <path d="M 31.78125 34.625 
Q 24.75 34.625 20.71875 30.859375 
Q 16.703125 27.09375 16.703125 20.515625 
Q 16.703125 13.921875 20.71875 10.15625 
Q 24.75 6.390625 31.78125 6.390625 
Q 38.8125 6.390625 42.859375 10.171875 
Q 46.921875 13.96875 46.921875 20.515625 
Q 46.921875 27.09375 42.890625 30.859375 
Q 38.875 34.625 31.78125 34.625 
z
M 21.921875 38.8125 
Q 15.578125 40.375 12.03125 44.71875 
Q 8.5 49.078125 8.5 55.328125 
Q 8.5 64.0625 14.71875 69.140625 
Q 20.953125 74.21875 31.78125 74.21875 
Q 42.671875 74.21875 48.875 69.140625 
Q 55.078125 64.0625 55.078125 55.328125 
Q 55.078125 49.078125 51.53125 44.71875 
Q 48 40.375 41.703125 38.8125 
Q 48.828125 37.15625 52.796875 32.3125 
Q 56.78125 27.484375 56.78125 20.515625 
Q 56.78125 9.90625 50.3125 4.234375 
Q 43.84375 -1.421875 31.78125 -1.421875 
Q 19.734375 -1.421875 13.25 4.234375 
Q 6.78125 9.90625 6.78125 20.515625 
Q 6.78125 27.484375 10.78125 32.3125 
Q 14.796875 37.15625 21.921875 38.8125 
z
M 18.3125 54.390625 
Q 18.3125 48.734375 21.84375 45.5625 
Q 25.390625 42.390625 31.78125 42.390625 
Q 38.140625 42.390625 41.71875 45.5625 
Q 45.3125 48.734375 45.3125 54.390625 
Q 45.3125 60.0625 41.71875 63.234375 
Q 38.140625 66.40625 31.78125 66.40625 
Q 25.390625 66.40625 21.84375 63.234375 
Q 18.3125 60.0625 18.3125 54.390625 
z
" id="DejaVuSans-38"/>
      </defs>
      <g transform="translate(238.409072 322.182437)scale(0.1 -0.1)">
       <use xlink:href="#DejaVuSans-38"/>
       <use x="63.623047" xlink:href="#DejaVuSans-30"/>
       <use x="127.246094" xlink:href="#DejaVuSans-30"/>
      </g>
     </g>
    </g>
    <g id="xtick_6">
     <g id="line2d_6">
      <g>
       <use style="stroke:#000000;stroke-width:0.8;" x="295.600587" xlink:href="#mb875e0df5e" y="307.584"/>
      </g>
     </g>
     <g id="text_6">
      <!-- 1000 -->
      <defs>
       <path d="M 12.40625 8.296875 
L 28.515625 8.296875 
L 28.515625 63.921875 
L 10.984375 60.40625 
L 10.984375 69.390625 
L 28.421875 72.90625 
L 38.28125 72.90625 
L 38.28125 8.296875 
L 54.390625 8.296875 
L 54.390625 0 
L 12.40625 0 
z
" id="DejaVuSans-31"/>
      </defs>
      <g transform="translate(282.875587 322.182437)scale(0.1 -0.1)">
       <use xlink:href="#DejaVuSans-31"/>
       <use x="63.623047" xlink:href="#DejaVuSans-30"/>
       <use x="127.246094" xlink:href="#DejaVuSans-30"/>
       <use x="190.869141" xlink:href="#DejaVuSans-30"/>
      </g>
     </g>
    </g>
    <g id="xtick_7">
     <g id="line2d_7">
      <g>
       <use style="stroke:#000000;stroke-width:0.8;" x="343.248352" xlink:href="#mb875e0df5e" y="307.584"/>
      </g>
     </g>
     <g id="text_7">
      <!-- 1200 -->
      <g transform="translate(330.523352 322.182437)scale(0.1 -0.1)">
       <use xlink:href="#DejaVuSans-31"/>
       <use x="63.623047" xlink:href="#DejaVuSans-32"/>
       <use x="127.246094" xlink:href="#DejaVuSans-30"/>
       <use x="190.869141" xlink:href="#DejaVuSans-30"/>
      </g>
     </g>
    </g>
    <g id="xtick_8">
     <g id="line2d_8">
      <g>
       <use style="stroke:#000000;stroke-width:0.8;" x="390.896117" xlink:href="#mb875e0df5e" y="307.584"/>
      </g>
     </g>
     <g id="text_8">
      <!-- 1400 -->
      <g transform="translate(378.171117 322.182437)scale(0.1 -0.1)">
       <use xlink:href="#DejaVuSans-31"/>
       <use x="63.623047" xlink:href="#DejaVuSans-34"/>
       <use x="127.246094" xlink:href="#DejaVuSans-30"/>
       <use x="190.869141" xlink:href="#DejaVuSans-30"/>
      </g>
     </g>
    </g>
    <g id="text_9">
     <!-- Tiradas -->
     <defs>
      <path d="M -0.296875 72.90625 
L 61.375 72.90625 
L 61.375 64.59375 
L 35.5 64.59375 
L 35.5 0 
L 25.59375 0 
L 25.59375 64.59375 
L -0.296875 64.59375 
z
" id="DejaVuSans-54"/>
      <path d="M 9.421875 54.6875 
L 18.40625 54.6875 
L 18.40625 0 
L 9.421875 0 
z
M 9.421875 75.984375 
L 18.40625 75.984375 
L 18.40625 64.59375 
L 9.421875 64.59375 
z
" id="DejaVuSans-69"/>
      <path d="M 41.109375 46.296875 
Q 39.59375 47.171875 37.8125 47.578125 
Q 36.03125 48 33.890625 48 
Q 26.265625 48 22.1875 43.046875 
Q 18.109375 38.09375 18.109375 28.8125 
L 18.109375 0 
L 9.078125 0 
L 9.078125 54.6875 
L 18.109375 54.6875 
L 18.109375 46.1875 
Q 20.953125 51.171875 25.484375 53.578125 
Q 30.03125 56 36.53125 56 
Q 37.453125 56 38.578125 55.875 
Q 39.703125 55.765625 41.0625 55.515625 
z
" id="DejaVuSans-72"/>
      <path d="M 34.28125 27.484375 
Q 23.390625 27.484375 19.1875 25 
Q 14.984375 22.515625 14.984375 16.5 
Q 14.984375 11.71875 18.140625 8.90625 
Q 21.296875 6.109375 26.703125 6.109375 
Q 34.1875 6.109375 38.703125 11.40625 
Q 43.21875 16.703125 43.21875 25.484375 
L 43.21875 27.484375 
z
M 52.203125 31.203125 
L 52.203125 0 
L 43.21875 0 
L 43.21875 8.296875 
Q 40.140625 3.328125 35.546875 0.953125 
Q 30.953125 -1.421875 24.3125 -1.421875 
Q 15.921875 -1.421875 10.953125 3.296875 
Q 6 8.015625 6 15.921875 
Q 6 25.140625 12.171875 29.828125 
Q 18.359375 34.515625 30.609375 34.515625 
L 43.21875 34.515625 
L 43.21875 35.40625 
Q 43.21875 41.609375 39.140625 45 
Q 35.0625 48.390625 27.6875 48.390625 
Q 23 48.390625 18.546875 47.265625 
Q 14.109375 46.140625 10.015625 43.890625 
L 10.015625 52.203125 
Q 14.9375 54.109375 19.578125 55.046875 
Q 24.21875 56 28.609375 56 
Q 40.484375 56 46.34375 49.84375 
Q 52.203125 43.703125 52.203125 31.203125 
z
" id="DejaVuSans-61"/>
      <path d="M 45.40625 46.390625 
L 45.40625 75.984375 
L 54.390625 75.984375 
L 54.390625 0 
L 45.40625 0 
L 45.40625 8.203125 
Q 42.578125 3.328125 38.25 0.953125 
Q 33.9375 -1.421875 27.875 -1.421875 
Q 17.96875 -1.421875 11.734375 6.484375 
Q 5.515625 14.40625 5.515625 27.296875 
Q 5.515625 40.1875 11.734375 48.09375 
Q 17.96875 56 27.875 56 
Q 33.9375 56 38.25 53.625 
Q 42.578125 51.265625 45.40625 46.390625 
z
M 14.796875 27.296875 
Q 14.796875 17.390625 18.875 11.75 
Q 22.953125 6.109375 30.078125 6.109375 
Q 37.203125 6.109375 41.296875 11.75 
Q 45.40625 17.390625 45.40625 27.296875 
Q 45.40625 37.203125 41.296875 42.84375 
Q 37.203125 48.484375 30.078125 48.484375 
Q 22.953125 48.484375 18.875 42.84375 
Q 14.796875 37.203125 14.796875 27.296875 
z
" id="DejaVuSans-64"/>
      <path d="M 44.28125 53.078125 
L 44.28125 44.578125 
Q 40.484375 46.53125 36.375 47.5 
Q 32.28125 48.484375 27.875 48.484375 
Q 21.1875 48.484375 17.84375 46.4375 
Q 14.5 44.390625 14.5 40.28125 
Q 14.5 37.15625 16.890625 35.375 
Q 19.28125 33.59375 26.515625 31.984375 
L 29.59375 31.296875 
Q 39.15625 29.25 43.1875 25.515625 
Q 47.21875 21.78125 47.21875 15.09375 
Q 47.21875 7.46875 41.1875 3.015625 
Q 35.15625 -1.421875 24.609375 -1.421875 
Q 20.21875 -1.421875 15.453125 -0.5625 
Q 10.6875 0.296875 5.421875 2 
L 5.421875 11.28125 
Q 10.40625 8.6875 15.234375 7.390625 
Q 20.0625 6.109375 24.8125 6.109375 
Q 31.15625 6.109375 34.5625 8.28125 
Q 37.984375 10.453125 37.984375 14.40625 
Q 37.984375 18.0625 35.515625 20.015625 
Q 33.0625 21.96875 24.703125 23.78125 
L 21.578125 24.515625 
Q 13.234375 26.265625 9.515625 29.90625 
Q 5.8125 33.546875 5.8125 39.890625 
Q 5.8125 47.609375 11.28125 51.796875 
Q 16.75 56 26.8125 56 
Q 31.78125 56 36.171875 55.265625 
Q 40.578125 54.546875 44.28125 53.078125 
z
" id="DejaVuSans-73"/>
     </defs>
     <g transform="translate(217.756875 335.860562)scale(0.1 -0.1)">
      <use xlink:href="#DejaVuSans-54"/>
      <use x="61.037109" xlink:href="#DejaVuSans-69"/>
      <use x="88.820312" xlink:href="#DejaVuSans-72"/>
      <use x="129.933594" xlink:href="#DejaVuSans-61"/>
      <use x="191.212891" xlink:href="#DejaVuSans-64"/>
      <use x="254.689453" xlink:href="#DejaVuSans-61"/>
      <use x="315.96875" xlink:href="#DejaVuSans-73"/>
     </g>
    </g>
   </g>
   <g id="matplotlib.axis_2">
    <g id="ytick_1">
     <g id="line2d_9">
      <defs>
       <path d="M 0 0 
L -3.5 0 
" id="m5f39f0d7c6" style="stroke:#000000;stroke-width:0.8;"/>
      </defs>
      <g>
       <use style="stroke:#000000;stroke-width:0.8;" x="57.6" xlink:href="#m5f39f0d7c6" y="274.451478"/>
      </g>
     </g>
     <g id="text_10">
      <!-- 16 -->
      <g transform="translate(37.875 278.250697)scale(0.1 -0.1)">
       <use xlink:href="#DejaVuSans-31"/>
       <use x="63.623047" xlink:href="#DejaVuSans-36"/>
      </g>
     </g>
    </g>
    <g id="ytick_2">
     <g id="line2d_10">
      <g>
       <use style="stroke:#000000;stroke-width:0.8;" x="57.6" xlink:href="#m5f39f0d7c6" y="232.378435"/>
      </g>
     </g>
     <g id="text_11">
      <!-- 18 -->
      <g transform="translate(37.875 236.177654)scale(0.1 -0.1)">
       <use xlink:href="#DejaVuSans-31"/>
       <use x="63.623047" xlink:href="#DejaVuSans-38"/>
      </g>
     </g>
    </g>
    <g id="ytick_3">
     <g id="line2d_11">
      <g>
       <use style="stroke:#000000;stroke-width:0.8;" x="57.6" xlink:href="#m5f39f0d7c6" y="190.305391"/>
      </g>
     </g>
     <g id="text_12">
      <!-- 20 -->
      <g transform="translate(37.875 194.10461)scale(0.1 -0.1)">
       <use xlink:href="#DejaVuSans-32"/>
       <use x="63.623047" xlink:href="#DejaVuSans-30"/>
      </g>
     </g>
    </g>
    <g id="ytick_4">
     <g id="line2d_12">
      <g>
       <use style="stroke:#000000;stroke-width:0.8;" x="57.6" xlink:href="#m5f39f0d7c6" y="148.232348"/>
      </g>
     </g>
     <g id="text_13">
      <!-- 22 -->
      <g transform="translate(37.875 152.031567)scale(0.1 -0.1)">
       <use xlink:href="#DejaVuSans-32"/>
       <use x="63.623047" xlink:href="#DejaVuSans-32"/>
      </g>
     </g>
    </g>
    <g id="ytick_5">
     <g id="line2d_13">
      <g>
       <use style="stroke:#000000;stroke-width:0.8;" x="57.6" xlink:href="#m5f39f0d7c6" y="106.159304"/>
      </g>
     </g>
     <g id="text_14">
      <!-- 24 -->
      <g transform="translate(37.875 109.958523)scale(0.1 -0.1)">
       <use xlink:href="#DejaVuSans-32"/>
       <use x="63.623047" xlink:href="#DejaVuSans-34"/>
      </g>
     </g>
    </g>
    <g id="ytick_6">
     <g id="line2d_14">
      <g>
       <use style="stroke:#000000;stroke-width:0.8;" x="57.6" xlink:href="#m5f39f0d7c6" y="64.086261"/>
      </g>
     </g>
     <g id="text_15">
      <!-- 26 -->
      <g transform="translate(37.875 67.88548)scale(0.1 -0.1)">
       <use xlink:href="#DejaVuSans-32"/>
       <use x="63.623047" xlink:href="#DejaVuSans-36"/>
      </g>
     </g>
    </g>
    <g id="text_16">
     <!-- Valores -->
     <defs>
      <path d="M 28.609375 0 
L 0.78125 72.90625 
L 11.078125 72.90625 
L 34.1875 11.53125 
L 57.328125 72.90625 
L 67.578125 72.90625 
L 39.796875 0 
z
" id="DejaVuSans-56"/>
      <path d="M 9.421875 75.984375 
L 18.40625 75.984375 
L 18.40625 0 
L 9.421875 0 
z
" id="DejaVuSans-6c"/>
      <path d="M 30.609375 48.390625 
Q 23.390625 48.390625 19.1875 42.75 
Q 14.984375 37.109375 14.984375 27.296875 
Q 14.984375 17.484375 19.15625 11.84375 
Q 23.34375 6.203125 30.609375 6.203125 
Q 37.796875 6.203125 41.984375 11.859375 
Q 46.1875 17.53125 46.1875 27.296875 
Q 46.1875 37.015625 41.984375 42.703125 
Q 37.796875 48.390625 30.609375 48.390625 
z
M 30.609375 56 
Q 42.328125 56 49.015625 48.375 
Q 55.71875 40.765625 55.71875 27.296875 
Q 55.71875 13.875 49.015625 6.21875 
Q 42.328125 -1.421875 30.609375 -1.421875 
Q 18.84375 -1.421875 12.171875 6.21875 
Q 5.515625 13.875 5.515625 27.296875 
Q 5.515625 40.765625 12.171875 48.375 
Q 18.84375 56 30.609375 56 
z
" id="DejaVuSans-6f"/>
      <path d="M 56.203125 29.59375 
L 56.203125 25.203125 
L 14.890625 25.203125 
Q 15.484375 15.921875 20.484375 11.0625 
Q 25.484375 6.203125 34.421875 6.203125 
Q 39.59375 6.203125 44.453125 7.46875 
Q 49.3125 8.734375 54.109375 11.28125 
L 54.109375 2.78125 
Q 49.265625 0.734375 44.1875 -0.34375 
Q 39.109375 -1.421875 33.890625 -1.421875 
Q 20.796875 -1.421875 13.15625 6.1875 
Q 5.515625 13.8125 5.515625 26.8125 
Q 5.515625 40.234375 12.765625 48.109375 
Q 20.015625 56 32.328125 56 
Q 43.359375 56 49.78125 48.890625 
Q 56.203125 41.796875 56.203125 29.59375 
z
M 47.21875 32.234375 
Q 47.125 39.59375 43.09375 43.984375 
Q 39.0625 48.390625 32.421875 48.390625 
Q 24.90625 48.390625 20.390625 44.140625 
Q 15.875 39.890625 15.1875 32.171875 
z
" id="DejaVuSans-65"/>
     </defs>
     <g transform="translate(31.795312 193.1905)rotate(-90)scale(0.1 -0.1)">
      <use xlink:href="#DejaVuSans-56"/>
      <use x="68.298828" xlink:href="#DejaVuSans-61"/>
      <use x="129.578125" xlink:href="#DejaVuSans-6c"/>
      <use x="157.361328" xlink:href="#DejaVuSans-6f"/>
      <use x="218.542969" xlink:href="#DejaVuSans-72"/>
      <use x="259.625" xlink:href="#DejaVuSans-65"/>
      <use x="321.148438" xlink:href="#DejaVuSans-73"/>
     </g>
    </g>
   </g>
   <g id="line2d_15">
    <path clip-path="url(#p8c79c71fa5)" d="M 57.6 221.860174 
L 414.72 221.860174 
L 414.72 221.860174 
" style="fill:none;stroke:#1f77b4;stroke-linecap:square;stroke-width:1.5;"/>
   </g>
   <g id="line2d_16">
    <path clip-path="url(#p8c79c71fa5)" d="M 57.6 64.086261 
L 57.838239 53.568 
L 58.314716 295.488 
L 58.552955 257.622261 
L 58.791194 197.317565 
L 59.029433 169.26887 
L 59.267672 166.639304 
L 59.505911 150.569739 
L 59.744149 156.646957 
L 59.982388 196.042625 
L 60.220627 209.58887 
L 60.458866 204.869137 
L 60.697105 209.839304 
L 60.935344 229.573565 
L 61.173582 225.804522 
L 61.411821 227.428665 
L 61.65006 221.860174 
L 61.888299 229.056879 
L 62.126538 248.155826 
L 62.364777 240.392348 
L 62.603015 252.458751 
L 62.841254 237.866223 
L 63.079493 236.761043 
L 63.317732 238.268661 
L 63.555971 233.996629 
L 63.794209 243.286261 
L 64.032448 243.648 
L 64.747165 265.629711 
L 64.985404 258.016696 
L 65.223642 257.877249 
L 65.461881 261.458332 
L 65.70012 251.010783 
L 65.938359 249.324522 
L 66.414837 260.611661 
L 66.653075 250.178569 
L 67.129553 260.085073 
L 67.606031 270.537707 
L 67.84427 268.714245 
L 68.320747 279.024635 
L 68.558986 272.661136 
L 68.797225 274.451478 
L 69.035464 272.734211 
L 69.273702 268.981983 
L 69.511941 262.077054 
L 69.75018 268.383251 
L 69.988419 268.894661 
L 70.226658 271.724522 
L 70.464897 277.511336 
L 70.703135 278.959304 
L 70.941374 279.249281 
L 71.179613 278.078465 
L 71.417852 281.582503 
L 71.656091 282.866087 
L 71.89433 278.58981 
L 72.370807 283.801043 
L 73.562001 263.314496 
L 74.514957 279.418435 
L 74.753195 278.197708 
L 74.991434 280.705579 
L 75.229673 284.549009 
L 75.467912 279.433812 
L 75.706151 281.008316 
L 75.94439 277.148468 
L 76.182628 280.84232 
L 76.659106 276.269449 
L 76.897345 280.095423 
L 77.135584 279.52052 
L 77.373823 276.705391 
L 77.612061 276.431386 
L 77.8503 275.429921 
L 78.088539 272.758885 
L 78.326778 272.060964 
L 78.803256 266.504348 
L 79.041494 269.828067 
L 79.279733 271.478926 
L 79.517972 275.130076 
L 80.232688 263.056696 
L 80.470927 260.35484 
L 80.709166 260.069366 
L 80.947405 257.239779 
L 81.185644 256.991165 
L 81.423883 254.664651 
L 81.662121 255.477361 
L 81.90036 251.576814 
L 82.138599 251.392214 
L 82.376838 250.009043 
L 82.615077 249.644259 
L 83.091554 255.94713 
L 83.329793 252.83597 
L 84.04451 249.846261 
L 84.282748 248.947023 
L 84.759226 244.268643 
L 84.997465 244.891538 
L 85.235704 241.907799 
L 85.473943 242.361869 
L 85.95042 246.227478 
L 86.426898 252.035512 
L 86.903376 249.513021 
L 87.379853 245.06713 
L 87.618092 244.470294 
L 88.09457 239.87983 
L 88.332809 240.145766 
L 88.571047 240.72881 
L 88.809286 240.665549 
L 89.047525 239.812394 
L 89.285764 241.169817 
L 89.524003 238.611478 
L 89.762241 238.410967 
L 90.00048 238.981139 
L 90.238719 237.866223 
L 90.476958 240.248213 
L 90.953436 237.152681 
L 91.906391 232.813673 
L 92.14463 235.404236 
L 92.382869 236.09918 
L 92.859346 234.91976 
L 93.335824 236.97582 
L 93.574063 236.945574 
L 93.812302 238.428153 
L 94.05054 237.705866 
L 94.288779 239.843007 
L 94.527018 240.199706 
L 94.765257 241.087823 
L 95.241734 238.199862 
L 95.718212 240.348794 
L 96.19469 236.766421 
L 96.432929 237.894108 
L 96.671167 239.900585 
L 97.385884 236.260174 
L 98.338839 233.723794 
L 98.577078 235.78319 
L 98.815317 233.829229 
L 99.053556 233.340104 
L 99.291795 232.139383 
L 99.530033 232.021884 
L 99.768272 230.369329 
L 100.24475 229.339826 
L 100.482989 227.380808 
L 100.721227 226.830341 
L 101.197705 230.77783 
L 101.674183 230.003344 
L 101.912422 231.590971 
L 102.15066 230.028611 
L 102.388899 230.152348 
L 103.103616 225.366261 
L 103.341855 225.838583 
L 103.580093 226.739779 
L 103.818332 228.710528 
L 104.056571 228.407255 
L 104.29481 228.640982 
L 104.533049 229.191083 
L 104.771288 227.304299 
L 105.009526 227.960765 
L 105.247765 227.250128 
L 105.486004 227.275516 
L 105.724243 226.160744 
L 105.962482 226.088102 
L 106.20072 225.092615 
L 106.438959 225.740697 
L 106.677198 225.467887 
L 106.915437 225.50111 
L 107.153676 226.339242 
L 107.391915 227.770435 
L 107.630153 227.792274 
L 107.868392 226.325473 
L 108.106631 225.958839 
L 108.34487 227.561661 
L 108.583109 227.681909 
L 108.821348 227.314087 
L 109.059586 228.403792 
L 109.297825 228.518523 
L 109.774303 231.326609 
L 110.012542 231.045804 
L 110.250781 231.80988 
L 110.489019 231.15209 
L 110.727258 229.561043 
L 110.965497 230.602017 
L 111.203736 229.213648 
L 111.680213 231.271249 
L 112.156691 229.177225 
L 112.39493 229.191083 
L 112.633169 230.836966 
L 112.871408 230.933867 
L 113.347885 229.155819 
L 113.586124 229.526025 
L 113.824363 228.827967 
L 114.062602 230.168716 
L 114.539079 230.713043 
L 114.777318 230.894531 
L 115.492035 234.706247 
L 115.968512 233.233578 
L 116.206751 233.655956 
L 116.44499 234.329403 
L 116.683229 233.730179 
L 117.159706 234.641328 
L 117.397945 234.882783 
L 117.636184 234.041401 
L 117.874423 234.366138 
L 118.112662 233.533381 
L 118.589139 234.261081 
L 118.827378 235.313763 
L 119.303856 233.67299 
L 119.542095 235.038225 
L 119.780334 234.305444 
L 120.018572 234.538078 
L 120.256811 233.095589 
L 120.49505 233.0135 
L 120.971528 233.560262 
L 121.209767 233.241874 
L 121.686244 232.222609 
L 122.162722 233.074496 
L 122.639199 234.835255 
L 122.877438 235.591285 
L 123.115677 234.207698 
L 123.592155 235.026918 
L 123.830394 234.263428 
L 124.068632 234.93287 
L 124.306871 235.073505 
L 124.54511 236.332107 
L 125.021588 237.637565 
L 125.498065 237.012354 
L 125.974543 235.665391 
L 126.451021 237.818915 
L 126.68926 237.005024 
L 126.927498 236.845094 
L 127.165737 237.404225 
L 127.403976 236.671602 
L 127.642215 236.79967 
L 127.880454 235.505485 
L 128.118692 235.919937 
L 128.59517 233.855916 
L 128.833409 233.079652 
L 129.071648 232.797767 
L 129.309887 233.492952 
L 129.548125 233.697557 
L 129.786364 234.523606 
L 130.024603 233.413018 
L 130.262842 233.890864 
L 130.501081 233.337755 
L 130.977558 235.305847 
L 131.215797 235.160684 
L 131.454036 234.610606 
L 131.692275 235.075425 
L 131.930514 234.932389 
L 132.168753 236.130171 
L 132.406991 236.318609 
L 132.64523 236.172997 
L 133.121708 235.553759 
L 133.598185 234.21913 
L 133.836424 234.147862 
L 134.074663 232.966412 
L 134.312902 233.615877 
L 134.551141 233.871768 
L 134.78938 234.708634 
L 135.027618 234.37884 
L 135.265857 235.273369 
L 135.504096 235.328679 
L 135.742335 235.255771 
L 135.980574 236.012016 
L 136.218813 235.873929 
L 136.69529 234.905344 
L 136.933529 235.149713 
L 137.171768 236.14617 
L 137.886484 235.552585 
L 138.124723 235.79144 
L 138.362962 236.833228 
L 138.601201 235.709731 
L 139.077678 236.794264 
L 139.315917 235.802985 
L 139.554156 236.829641 
L 139.792395 236.147985 
L 140.507111 233.463413 
L 140.74535 234.542191 
L 141.221828 234.888474 
L 141.460067 234.82177 
L 141.698306 233.80464 
L 141.936544 234.511716 
L 142.174783 234.446632 
L 142.651261 235.786586 
L 142.8895 235.659898 
L 143.127738 235.942957 
L 143.365977 236.049628 
L 143.604216 236.73683 
L 144.080694 236.019371 
L 144.318933 236.124665 
L 144.79541 234.384643 
L 145.033649 234.436355 
L 145.271888 233.974702 
L 145.748366 232.321733 
L 145.986604 231.756387 
L 146.224843 231.645258 
L 146.463082 232.547177 
L 146.701321 231.649169 
L 146.93956 232.602228 
L 147.177799 232.099436 
L 147.654276 231.878887 
L 147.892515 232.433794 
L 148.607231 230.181409 
L 148.84547 229.639304 
L 149.083709 229.591779 
L 149.321948 229.816993 
L 149.560187 230.530265 
L 149.798426 230.101286 
L 150.036664 230.269375 
L 150.274903 230.059023 
L 150.513142 230.280163 
L 150.751381 230.285516 
L 151.227859 230.616493 
L 151.466097 230.194897 
L 151.704336 229.403573 
L 151.942575 229.040145 
L 152.419053 227.844247 
L 152.657292 228.434087 
L 152.89553 227.866862 
L 153.133769 228.139733 
L 153.372008 227.993651 
L 153.610247 228.421069 
L 153.848486 228.223072 
L 154.086724 229.062333 
L 154.324963 229.328914 
L 154.563202 229.078588 
L 154.801441 229.549563 
L 155.277919 229.460961 
L 155.516157 228.855328 
L 155.754396 229.169474 
L 156.469113 227.62499 
L 156.707352 227.636389 
L 157.183829 227.207166 
L 157.660307 228.630836 
L 157.898546 228.988664 
L 158.136785 228.449628 
L 158.375023 229.103882 
L 158.613262 228.765103 
L 159.08974 229.028356 
L 159.327979 229.773445 
L 159.566217 230.12277 
L 159.804456 229.247418 
L 160.042695 230.084429 
L 160.280934 229.943652 
L 160.519173 230.726606 
L 160.99565 229.283406 
L 161.233889 228.566771 
L 161.710367 228.392062 
L 161.948606 228.065708 
L 162.425083 229.134708 
L 162.663322 229.66558 
L 162.901561 229.291812 
L 163.1398 229.914698 
L 163.616278 230.444584 
L 163.854516 231.013649 
L 164.092755 231.110609 
L 164.330994 231.488248 
L 164.569233 231.116243 
L 164.807472 231.632128 
L 165.04571 231.447615 
L 165.283949 230.613782 
L 165.522188 230.246981 
L 166.236905 232.010181 
L 166.475143 232.240641 
L 166.713382 231.461811 
L 167.18986 231.465787 
L 167.428099 231.968632 
L 167.666338 231.515165 
L 167.904576 231.426351 
L 168.142815 231.835557 
L 169.095771 234.307156 
L 169.334009 234.347811 
L 169.572248 235.10291 
L 169.810487 235.453689 
L 170.286965 234.464335 
L 171.001681 234.583521 
L 171.23992 235.371078 
L 171.478159 235.057407 
L 171.716398 235.709217 
L 172.192875 234.778868 
L 172.669353 234.377774 
L 172.907592 234.547148 
L 173.145831 235.278531 
L 173.384069 234.711027 
L 173.622308 235.395969 
L 174.098786 234.439155 
L 174.337025 234.220737 
L 174.575264 233.447364 
L 174.813502 233.701218 
L 175.051741 232.974612 
L 175.28998 233.058403 
L 175.528219 233.650805 
L 175.766458 233.224975 
L 176.004696 233.434485 
L 176.242935 233.179425 
L 176.481174 233.682699 
L 176.719413 232.924293 
L 176.957652 233.048922 
L 177.195891 232.67119 
L 177.434129 233.254957 
L 177.672368 233.169908 
L 178.148846 234.245582 
L 178.863562 234.729575 
L 179.101801 234.230966 
L 179.34004 234.679304 
L 179.578279 234.674819 
L 179.816518 234.056445 
L 180.054757 234.216577 
L 180.292995 234.213015 
L 180.531234 234.616363 
L 180.769473 234.774486 
L 181.007712 234.445607 
L 181.245951 234.522542 
L 181.722428 234.111328 
L 181.960667 234.067792 
L 182.437145 233.059617 
L 182.675384 232.578402 
L 182.913622 233.176785 
L 183.151861 233.215115 
L 183.3901 233.412366 
L 183.628339 232.934116 
L 183.866578 232.893453 
L 184.104817 232.338892 
L 184.343055 232.812584 
L 184.581294 232.496617 
L 185.057772 233.791335 
L 185.534249 232.80855 
L 186.010727 233.664 
L 186.487205 232.494873 
L 186.963682 233.074496 
L 187.201921 232.61003 
L 187.44016 233.033418 
L 187.678399 233.224511 
L 187.916638 233.222967 
L 188.393115 232.493179 
L 188.869593 233.140628 
L 189.107832 232.682761 
L 189.58431 233.174411 
L 189.822548 233.362157 
L 190.060787 233.360391 
L 190.537265 234.147158 
L 190.775504 234.031304 
L 191.013742 234.515835 
L 191.251981 234.661758 
L 191.49022 235.106083 
L 191.728459 234.429869 
L 191.966698 234.426238 
L 192.204937 234.831457 
L 192.443175 234.975536 
L 192.919653 234.3379 
L 193.157892 234.814243 
L 193.396131 234.994184 
L 193.63437 234.585063 
L 194.110847 235.603546 
L 194.349086 235.195499 
L 195.063803 236.491111 
L 196.016758 234.438713 
L 196.493235 234.971979 
L 196.731474 235.147344 
L 196.969713 234.89133 
L 197.207952 235.532121 
L 197.446191 235.097441 
L 197.68443 235.735707 
L 197.922668 235.123879 
L 198.160907 235.119234 
L 198.637385 235.854959 
L 198.875624 235.636617 
L 199.113863 236.196829 
L 199.59034 235.232636 
L 199.828579 235.016795 
L 200.543296 233.603523 
L 200.781534 233.426766 
L 201.019773 233.006391 
L 201.258012 233.075008 
L 201.73449 232.23958 
L 202.210967 232.966627 
L 202.925684 231.586553 
L 203.163923 231.862834 
L 203.402161 231.657771 
L 203.6404 231.79599 
L 203.878639 231.762732 
L 204.355117 232.173866 
L 204.593356 232.072078 
L 205.069833 231.156959 
L 205.308072 231.667055 
L 205.546311 231.634378 
L 206.022789 232.277298 
L 206.499266 231.907969 
L 206.737505 231.875169 
L 207.213983 231.308214 
L 207.452221 231.042783 
L 207.69046 230.944884 
L 208.166938 230.58385 
L 208.405177 231.08439 
L 208.643416 230.920786 
L 208.881654 230.493086 
L 209.358132 231.191421 
L 209.596371 231.456647 
L 209.83461 231.458087 
L 210.072849 231.853342 
L 210.311087 231.952462 
L 210.549326 231.756827 
L 210.787565 231.790457 
L 211.264043 232.150485 
L 211.502282 232.215865 
L 211.74052 232.475826 
L 211.978759 232.183952 
L 212.216998 232.50789 
L 212.931714 231.250903 
L 213.169953 231.509955 
L 213.408192 231.479164 
L 214.361147 230.622731 
L 214.599386 230.689138 
L 215.075864 229.772702 
L 215.314103 229.871821 
L 215.552342 229.527099 
L 216.028819 230.198975 
L 216.743536 231.466538 
L 217.696491 230.190386 
L 217.93473 230.630593 
L 218.411207 230.168978 
L 218.649446 230.141168 
L 219.125924 231.046225 
L 219.364163 230.491335 
L 219.602402 231.019247 
L 219.84064 230.774477 
L 220.555357 231.211445 
L 220.793596 231.427805 
L 221.270073 230.452125 
L 221.508312 230.607581 
L 221.746551 230.549172 
L 221.98479 230.277827 
L 222.461268 230.071399 
L 222.937745 229.412134 
L 223.175984 229.235046 
L 223.414223 229.481009 
L 223.652462 229.334468 
L 224.128939 228.381496 
L 225.081895 229.390292 
L 225.320133 228.976784 
L 226.03485 229.555738 
L 226.511328 229.208142 
L 226.987805 228.537497 
L 227.464283 229.225903 
L 227.702522 228.759565 
L 227.940761 228.676477 
L 228.178999 228.916357 
L 228.417238 228.979777 
L 229.370193 228.095376 
L 229.608432 228.304973 
L 230.08491 227.67786 
L 230.561388 228.327385 
L 231.037865 228.713636 
L 231.514343 229.27044 
L 231.752582 229.130994 
L 231.990821 229.192822 
L 232.229059 228.767261 
L 232.467298 229.287354 
L 232.705537 229.291554 
L 232.943776 229.095938 
L 233.182015 228.701319 
L 233.420254 229.161754 
L 234.13497 228.749493 
L 234.373209 228.726064 
L 234.611448 228.3634 
L 234.849686 228.848817 
L 235.564403 229.284829 
L 235.802642 229.260873 
L 236.279119 228.512869 
L 236.517358 228.322191 
L 236.755597 227.824712 
L 236.993836 227.914451 
L 237.470314 227.536696 
L 237.708552 227.737617 
L 238.18503 226.807498 
L 238.423269 226.787149 
L 238.661508 226.518063 
L 239.137985 226.588566 
L 239.376224 226.761353 
L 239.614463 226.768696 
L 239.852702 226.528854 
L 240.090941 226.53648 
L 240.329179 226.105826 
L 240.567418 226.332828 
L 240.805657 226.067478 
L 241.043896 225.99381 
L 241.282135 226.056579 
L 241.520374 225.81983 
L 241.758612 226.127272 
L 241.996851 226.189626 
L 242.23509 226.46869 
L 242.473329 226.259704 
L 242.711568 226.510922 
L 243.188045 226.310207 
L 243.426284 225.994753 
L 243.664523 225.868411 
L 244.141001 225.831354 
L 244.379239 225.518117 
L 244.855717 226.070151 
L 245.093956 225.811196 
L 245.332195 225.739532 
L 245.808672 225.197827 
L 246.28515 224.977187 
L 246.999867 225.85077 
L 247.238105 225.56862 
L 247.476344 225.6826 
L 247.714583 225.611994 
L 247.952822 225.962296 
L 248.191061 225.891517 
L 248.4293 226.188137 
L 248.905777 226.046546 
L 249.144016 226.185074 
L 249.382255 226.479857 
L 249.620494 226.487166 
L 249.858732 226.624634 
L 250.096971 226.553737 
L 250.33521 226.950493 
L 250.573449 226.723735 
L 250.811688 226.937955 
L 251.049927 226.841146 
L 251.288165 226.486141 
L 251.764643 227.351325 
L 252.241121 227.41505 
L 252.47936 227.01014 
L 252.717598 226.939724 
L 253.194076 227.618346 
L 253.432315 227.700812 
L 253.670554 227.374602 
L 253.908793 227.839646 
L 254.38527 228.257617 
L 254.623509 227.983123 
L 254.861748 228.166055 
L 255.576464 227.397431 
L 256.052942 228.065191 
L 256.291181 228.17113 
L 256.52942 228.100673 
L 256.767658 228.357116 
L 257.005897 228.01047 
L 257.244136 228.141042 
L 257.482375 227.720348 
L 257.720614 228.001037 
L 257.958853 227.981252 
L 258.43533 228.714491 
L 258.673569 228.942884 
L 258.911808 228.623689 
L 259.388286 229.103882 
L 260.103002 228.447992 
L 260.341241 228.650131 
L 260.57948 228.235251 
L 260.817718 228.116938 
L 261.055957 228.392568 
L 261.294196 228.200621 
L 261.532435 228.573696 
L 261.770674 228.185841 
L 262.247151 228.782657 
L 262.723629 228.107679 
L 263.676584 229.439152 
L 264.153062 228.743091 
L 264.391301 228.384159 
L 264.62954 228.558009 
L 264.867779 228.151809 
L 265.106017 228.229029 
L 265.344256 228.113298 
L 265.582495 227.805278 
L 265.820734 228.050922 
L 266.058973 228.079876 
L 266.53545 227.610476 
L 266.773689 227.783427 
L 267.011928 227.740838 
L 267.488406 227.298186 
L 267.726644 227.399235 
L 267.964883 227.833213 
L 268.441361 227.226149 
L 268.917839 226.455991 
L 269.156077 226.438989 
L 269.394316 226.067478 
L 269.870794 226.812718 
L 270.109033 226.606937 
L 270.58551 226.995906 
L 270.823749 226.673217 
L 271.061988 226.796838 
L 271.300227 226.779628 
L 271.538466 226.434857 
L 271.776704 226.838817 
L 272.014943 226.471398 
L 272.253182 226.711168 
L 272.491421 226.670851 
L 272.72966 226.979681 
L 273.206137 226.875504 
L 273.682615 226.123081 
L 274.873809 226.318626 
L 275.112048 226.095097 
L 275.350287 226.400844 
L 275.826765 226.75799 
L 276.065003 226.374547 
L 276.303242 226.518424 
L 276.541481 226.27327 
L 276.77972 226.325581 
L 277.017959 226.560308 
L 277.256197 226.338697 
L 277.494436 226.572901 
L 277.732675 226.19256 
L 277.970914 226.176523 
L 278.68563 227.215542 
L 278.923869 227.379433 
L 279.162108 227.113655 
L 279.638586 227.463149 
L 279.876825 227.333273 
L 280.591541 226.428938 
L 280.82978 226.524989 
L 281.544496 225.895341 
L 281.782735 225.678906 
L 282.259213 226.317064 
L 282.73569 225.640521 
L 282.973929 225.580995 
L 283.212168 225.83226 
L 283.450407 225.839158 
L 284.403362 224.740831 
L 284.641601 225.057549 
L 284.87984 224.690743 
L 285.118079 225.05086 
L 285.356318 224.816717 
L 285.594556 225.000281 
L 285.832795 224.876359 
L 286.071034 225.190957 
L 286.309273 224.804411 
L 286.547512 224.702947 
L 287.023989 225.22078 
L 287.500467 225.30093 
L 287.976945 225.554604 
L 288.215183 225.474808 
L 288.691661 224.817419 
L 289.644616 224.567952 
L 290.121094 224.411687 
L 290.597572 225.051107 
L 290.835811 224.865391 
L 291.074049 225.259041 
L 291.550527 224.717118 
L 292.027005 225.159811 
L 292.265243 224.975115 
L 292.503482 225.323634 
L 292.741721 225.415942 
L 293.218199 226.194972 
L 293.456438 226.201212 
L 293.694676 226.546738 
L 294.171154 226.368 
L 294.409393 226.141476 
L 295.124109 226.8769 
L 295.600587 226.78272 
L 295.838826 226.473078 
L 296.315304 226.799457 
L 296.553542 227.16121 
L 296.791781 226.957082 
L 297.03002 227.171582 
L 297.268259 226.821618 
L 297.506498 226.743652 
L 297.744736 226.999423 
L 297.982975 226.87978 
L 298.221214 226.531489 
L 298.459453 226.869859 
L 298.935931 226.341326 
L 299.174169 226.160744 
L 299.412408 226.146158 
L 299.650647 225.862698 
L 299.888886 226.117073 
L 300.365364 225.861238 
L 300.603602 225.620375 
L 301.08008 226.147676 
L 301.318319 226.277022 
L 301.556558 225.975123 
L 301.794797 226.083881 
L 302.033035 226.008076 
L 302.747752 225.087136 
L 303.224229 224.999345 
L 303.700707 225.522238 
L 303.938946 225.28496 
L 304.177185 225.230891 
L 304.415424 225.481215 
L 304.653662 225.568925 
L 304.891901 225.858935 
L 305.368379 226.113957 
L 305.606618 225.938271 
L 306.083095 226.474507 
L 306.321334 226.198327 
L 307.036051 226.456895 
L 307.27429 226.382324 
L 307.512528 226.748661 
L 307.750767 226.593892 
L 308.227245 227.084343 
L 308.465484 227.328871 
L 308.703722 227.393477 
L 308.941961 227.697012 
L 309.418439 227.487145 
L 309.656678 227.551358 
L 309.894917 227.278071 
L 310.133155 227.40184 
L 310.371394 227.168825 
L 310.609633 227.094567 
L 311.086111 227.460037 
L 311.32435 227.208108 
L 311.562588 227.193238 
L 311.800827 227.395064 
L 312.039066 227.34069 
L 312.515544 227.703652 
L 312.753783 227.394035 
L 312.992021 227.731971 
L 313.23026 227.462078 
L 313.944977 227.397643 
L 314.659693 227.742609 
L 314.897932 227.493914 
L 315.136171 227.576197 
L 315.612648 227.158117 
L 315.850887 227.240482 
L 316.089126 227.090248 
L 316.327365 227.307994 
L 316.565604 227.177309 
L 316.803843 227.240037 
L 317.042081 226.916659 
L 317.518559 226.888134 
L 317.756798 227.104869 
L 317.995037 226.936629 
L 318.471514 227.253662 
L 318.709753 227.028216 
L 318.947992 227.358791 
L 319.186231 227.401642 
L 319.42447 227.061932 
L 319.662708 227.066761 
L 320.377425 227.671894 
L 320.615664 227.600003 
L 321.092141 226.962528 
L 321.33038 226.910458 
L 321.568619 226.630855 
L 322.045097 227.057766 
L 322.521574 227.407541 
L 322.759813 227.2987 
L 322.998052 227.548525 
L 323.236291 227.251254 
L 323.712769 227.862545 
L 323.951007 227.86658 
L 324.427485 228.249947 
L 324.665724 228.141132 
L 325.142201 228.204819 
L 325.38044 228.040237 
L 326.095157 228.070424 
L 326.571634 227.76157 
L 327.52459 227.295536 
L 327.762829 227.021999 
L 328.239306 227.419958 
L 328.477545 227.313402 
L 329.192262 227.898264 
L 329.668739 228.071745 
L 329.906978 227.873236 
L 330.621694 228.508595 
L 331.57465 227.973742 
L 331.812889 228.306261 
L 332.051127 228.017872 
L 332.527605 227.843289 
L 332.765844 228.17477 
L 333.004083 228.305677 
L 333.242322 228.581688 
L 333.718799 228.152996 
L 333.957038 228.247232 
L 334.195277 228.55855 
L 334.433516 228.634187 
L 334.909993 228.279473 
L 335.386471 228.538864 
L 335.862949 228.077555 
L 336.339426 228.174723 
L 336.815904 228.486768 
L 337.292382 228.457585 
L 337.53062 228.532472 
L 338.007098 228.324708 
L 338.245337 228.078348 
L 339.436531 229.41129 
L 340.151247 228.993451 
L 340.389486 228.677565 
L 340.627725 228.645293 
L 340.865964 228.400941 
L 341.818919 228.837111 
L 342.295397 228.403306 
L 343.010113 227.78163 
L 343.248352 227.785461 
L 343.486591 228.087054 
L 343.963069 228.269056 
L 344.201308 228.080275 
L 344.439546 228.153673 
L 344.677785 228.383938 
L 344.916024 228.404676 
L 345.154263 228.268651 
L 345.63074 228.744854 
L 346.345457 229.343487 
L 346.821935 229.348483 
L 347.298412 228.955895 
L 347.77489 229.444711 
L 348.013129 229.447116 
L 348.251368 229.759638 
L 348.727845 229.419905 
L 348.966084 229.130148 
L 349.204323 229.373217 
L 349.680801 228.91521 
L 351.110233 229.324471 
L 351.586711 229.056879 
L 351.82495 229.263804 
L 352.063189 228.960213 
L 352.301428 228.878012 
L 352.539666 228.914794 
L 352.777905 229.205992 
L 353.016144 229.10684 
L 354.207338 229.744649 
L 354.683816 229.529739 
L 355.398532 229.435676 
L 355.636771 229.723666 
L 355.87501 229.759363 
L 356.113249 229.610471 
L 356.351488 229.310958 
L 356.827965 229.165219 
L 357.066204 229.452051 
L 357.780921 228.724987 
L 358.019159 228.694543 
L 358.495637 229.166371 
L 358.733876 229.385096 
L 358.972115 229.337611 
L 359.210354 229.506045 
L 359.686831 229.212181 
L 359.92507 229.479701 
L 360.401548 229.285801 
L 360.639787 229.073404 
L 360.878025 229.274144 
L 361.354503 229.311983 
L 361.592742 229.462644 
L 361.830981 229.399084 
L 362.307458 229.650261 
L 362.545697 229.488171 
L 363.022175 229.755018 
L 363.260414 229.724294 
L 363.498652 229.54628 
L 363.97513 229.4853 
L 364.213369 229.38955 
L 364.928085 229.950517 
L 365.404563 230.442359 
L 365.642802 230.541397 
L 365.881041 230.461593 
L 366.11928 230.219594 
L 367.548712 230.52037 
L 367.786951 230.473362 
L 368.02519 230.652278 
L 368.263429 230.427922 
L 368.978145 231.10788 
L 369.454623 230.724418 
L 369.931101 231.17589 
L 370.16934 231.096697 
L 371.122295 231.819378 
L 371.360534 231.532505 
L 371.598773 231.628839 
L 372.07525 231.980317 
L 372.313489 231.837405 
L 373.028205 231.806876 
L 373.266444 231.569338 
L 373.504683 231.76018 
L 373.742922 231.760645 
L 374.2194 231.350334 
L 374.457638 231.588182 
L 375.172355 231.416495 
L 375.410594 231.149335 
L 375.648833 231.260476 
L 376.12531 231.057756 
L 376.363549 231.325823 
L 376.601788 231.185319 
L 377.078266 231.406554 
L 377.792982 231.033349 
L 378.031221 231.284411 
L 378.507698 231.270428 
L 378.745937 231.193279 
L 379.222415 231.475312 
L 379.460654 231.756052 
L 379.698893 231.849801 
L 380.413609 231.664806 
L 380.651848 231.51031 
L 381.128326 231.558026 
L 381.604803 231.713798 
L 381.843042 231.498052 
L 382.31952 231.869487 
L 382.557759 231.6541 
L 382.795997 231.747031 
L 383.034236 231.962937 
L 383.748953 231.579968 
L 384.22543 231.887787 
L 384.463669 231.888144 
L 384.701908 231.658845 
L 384.940147 231.720565 
L 385.178386 231.476433 
L 385.893102 231.844513 
L 386.131341 231.905875 
L 386.846057 231.541841 
L 387.322535 231.755693 
L 387.560774 231.892743 
L 387.799013 231.862759 
L 388.037252 231.650947 
L 388.27549 231.757486 
L 388.751968 231.455913 
L 388.990207 231.577475 
L 389.466684 231.457898 
L 389.704923 231.624438 
L 389.943162 231.640047 
L 390.181401 231.4147 
L 390.657879 231.701778 
L 390.896117 231.536974 
L 391.134356 231.657697 
L 391.372595 231.403132 
L 391.849073 231.599304 
L 392.087312 231.704667 
L 392.32555 231.570489 
L 392.563789 231.615917 
L 393.516744 232.45298 
L 393.754983 232.527419 
L 394.231461 232.884263 
L 394.4697 232.720371 
L 394.707939 232.942974 
L 394.946177 232.898038 
L 395.422655 232.986255 
L 395.660894 232.92657 
L 395.899133 232.704123 
L 396.137372 232.718688 
L 396.37561 232.452351 
L 397.090327 232.998024 
L 397.566805 232.820379 
L 398.043282 233.143399 
L 398.757999 232.716076 
L 398.996237 232.715841 
L 399.472715 232.949761 
L 399.710954 232.802971 
L 399.949193 232.978224 
L 400.187432 232.860857 
L 400.42567 233.094261 
L 400.902148 232.757734 
L 401.140387 233.019881 
L 401.378626 232.946596 
L 401.616865 233.091784 
L 401.855103 233.004002 
L 402.331581 233.42445 
L 402.56982 233.162405 
L 402.808059 233.379483 
L 403.284536 233.378104 
L 403.761014 233.59375 
L 403.999253 233.448333 
L 404.237492 233.664321 
L 404.47573 233.432427 
L 404.713969 233.503845 
L 405.190447 233.098864 
L 405.428686 233.357547 
L 405.666925 233.3281 
L 405.905163 233.456862 
L 406.143402 233.269326 
L 406.381641 233.283077 
L 406.61988 233.512054 
L 407.096358 233.324218 
L 407.572835 232.850683 
L 407.811074 232.850362 
L 409.002268 233.319092 
L 409.478746 232.976225 
L 410.431701 232.733302 
L 410.66994 232.633767 
L 410.908179 232.406786 
L 411.146418 232.661755 
L 411.861134 232.279473 
L 412.099373 232.420819 
L 412.575851 232.152691 
L 412.814089 231.969548 
L 413.052328 231.969822 
L 413.290567 231.772966 
L 413.528806 231.885941 
L 414.72 231.593071 
L 414.72 231.593071 
" style="fill:none;stroke:#ff7f0e;stroke-linecap:square;stroke-width:1.5;"/>
   </g>
   <g id="patch_3">
    <path d="M 57.6 307.584 
L 57.6 41.472 
" style="fill:none;stroke:#000000;stroke-linecap:square;stroke-linejoin:miter;stroke-width:0.8;"/>
   </g>
   <g id="patch_4">
    <path d="M 414.72 307.584 
L 414.72 41.472 
" style="fill:none;stroke:#000000;stroke-linecap:square;stroke-linejoin:miter;stroke-width:0.8;"/>
   </g>
   <g id="patch_5">
    <path d="M 57.6 307.584 
L 414.72 307.584 
" style="fill:none;stroke:#000000;stroke-linecap:square;stroke-linejoin:miter;stroke-width:0.8;"/>
   </g>
   <g id="patch_6">
    <path d="M 57.6 41.472 
L 414.72 41.472 
" style="fill:none;stroke:#000000;stroke-linecap:square;stroke-linejoin:miter;stroke-width:0.8;"/>
   </g>
   <g id="text_17">
    <!-- Grafico valores promedio esperados vs valores promedio obtenidos -->
    <defs>
     <path d="M 59.515625 10.40625 
L 59.515625 29.984375 
L 43.40625 29.984375 
L 43.40625 38.09375 
L 69.28125 38.09375 
L 69.28125 6.78125 
Q 63.578125 2.734375 56.6875 0.65625 
Q 49.8125 -1.421875 42 -1.421875 
Q 24.90625 -1.421875 15.25 8.5625 
Q 5.609375 18.5625 5.609375 36.375 
Q 5.609375 54.25 15.25 64.234375 
Q 24.90625 74.21875 42 74.21875 
Q 49.125 74.21875 55.546875 72.453125 
Q 61.96875 70.703125 67.390625 67.28125 
L 67.390625 56.78125 
Q 61.921875 61.421875 55.765625 63.765625 
Q 49.609375 66.109375 42.828125 66.109375 
Q 29.4375 66.109375 22.71875 58.640625 
Q 16.015625 51.171875 16.015625 36.375 
Q 16.015625 21.625 22.71875 14.15625 
Q 29.4375 6.6875 42.828125 6.6875 
Q 48.046875 6.6875 52.140625 7.59375 
Q 56.25 8.5 59.515625 10.40625 
z
" id="DejaVuSans-47"/>
     <path d="M 37.109375 75.984375 
L 37.109375 68.5 
L 28.515625 68.5 
Q 23.6875 68.5 21.796875 66.546875 
Q 19.921875 64.59375 19.921875 59.515625 
L 19.921875 54.6875 
L 34.71875 54.6875 
L 34.71875 47.703125 
L 19.921875 47.703125 
L 19.921875 0 
L 10.890625 0 
L 10.890625 47.703125 
L 2.296875 47.703125 
L 2.296875 54.6875 
L 10.890625 54.6875 
L 10.890625 58.5 
Q 10.890625 67.625 15.140625 71.796875 
Q 19.390625 75.984375 28.609375 75.984375 
z
" id="DejaVuSans-66"/>
     <path d="M 48.78125 52.59375 
L 48.78125 44.1875 
Q 44.96875 46.296875 41.140625 47.34375 
Q 37.3125 48.390625 33.40625 48.390625 
Q 24.65625 48.390625 19.8125 42.84375 
Q 14.984375 37.3125 14.984375 27.296875 
Q 14.984375 17.28125 19.8125 11.734375 
Q 24.65625 6.203125 33.40625 6.203125 
Q 37.3125 6.203125 41.140625 7.25 
Q 44.96875 8.296875 48.78125 10.40625 
L 48.78125 2.09375 
Q 45.015625 0.34375 40.984375 -0.53125 
Q 36.96875 -1.421875 32.421875 -1.421875 
Q 20.0625 -1.421875 12.78125 6.34375 
Q 5.515625 14.109375 5.515625 27.296875 
Q 5.515625 40.671875 12.859375 48.328125 
Q 20.21875 56 33.015625 56 
Q 37.15625 56 41.109375 55.140625 
Q 45.0625 54.296875 48.78125 52.59375 
z
" id="DejaVuSans-63"/>
     <path id="DejaVuSans-20"/>
     <path d="M 2.984375 54.6875 
L 12.5 54.6875 
L 29.59375 8.796875 
L 46.6875 54.6875 
L 56.203125 54.6875 
L 35.6875 0 
L 23.484375 0 
z
" id="DejaVuSans-76"/>
     <path d="M 18.109375 8.203125 
L 18.109375 -20.796875 
L 9.078125 -20.796875 
L 9.078125 54.6875 
L 18.109375 54.6875 
L 18.109375 46.390625 
Q 20.953125 51.265625 25.265625 53.625 
Q 29.59375 56 35.59375 56 
Q 45.5625 56 51.78125 48.09375 
Q 58.015625 40.1875 58.015625 27.296875 
Q 58.015625 14.40625 51.78125 6.484375 
Q 45.5625 -1.421875 35.59375 -1.421875 
Q 29.59375 -1.421875 25.265625 0.953125 
Q 20.953125 3.328125 18.109375 8.203125 
z
M 48.6875 27.296875 
Q 48.6875 37.203125 44.609375 42.84375 
Q 40.53125 48.484375 33.40625 48.484375 
Q 26.265625 48.484375 22.1875 42.84375 
Q 18.109375 37.203125 18.109375 27.296875 
Q 18.109375 17.390625 22.1875 11.75 
Q 26.265625 6.109375 33.40625 6.109375 
Q 40.53125 6.109375 44.609375 11.75 
Q 48.6875 17.390625 48.6875 27.296875 
z
" id="DejaVuSans-70"/>
     <path d="M 52 44.1875 
Q 55.375 50.25 60.0625 53.125 
Q 64.75 56 71.09375 56 
Q 79.640625 56 84.28125 50.015625 
Q 88.921875 44.046875 88.921875 33.015625 
L 88.921875 0 
L 79.890625 0 
L 79.890625 32.71875 
Q 79.890625 40.578125 77.09375 44.375 
Q 74.3125 48.1875 68.609375 48.1875 
Q 61.625 48.1875 57.5625 43.546875 
Q 53.515625 38.921875 53.515625 30.90625 
L 53.515625 0 
L 44.484375 0 
L 44.484375 32.71875 
Q 44.484375 40.625 41.703125 44.40625 
Q 38.921875 48.1875 33.109375 48.1875 
Q 26.21875 48.1875 22.15625 43.53125 
Q 18.109375 38.875 18.109375 30.90625 
L 18.109375 0 
L 9.078125 0 
L 9.078125 54.6875 
L 18.109375 54.6875 
L 18.109375 46.1875 
Q 21.1875 51.21875 25.484375 53.609375 
Q 29.78125 56 35.6875 56 
Q 41.65625 56 45.828125 52.96875 
Q 50 49.953125 52 44.1875 
z
" id="DejaVuSans-6d"/>
     <path d="M 48.6875 27.296875 
Q 48.6875 37.203125 44.609375 42.84375 
Q 40.53125 48.484375 33.40625 48.484375 
Q 26.265625 48.484375 22.1875 42.84375 
Q 18.109375 37.203125 18.109375 27.296875 
Q 18.109375 17.390625 22.1875 11.75 
Q 26.265625 6.109375 33.40625 6.109375 
Q 40.53125 6.109375 44.609375 11.75 
Q 48.6875 17.390625 48.6875 27.296875 
z
M 18.109375 46.390625 
Q 20.953125 51.265625 25.265625 53.625 
Q 29.59375 56 35.59375 56 
Q 45.5625 56 51.78125 48.09375 
Q 58.015625 40.1875 58.015625 27.296875 
Q 58.015625 14.40625 51.78125 6.484375 
Q 45.5625 -1.421875 35.59375 -1.421875 
Q 29.59375 -1.421875 25.265625 0.953125 
Q 20.953125 3.328125 18.109375 8.203125 
L 18.109375 0 
L 9.078125 0 
L 9.078125 75.984375 
L 18.109375 75.984375 
z
" id="DejaVuSans-62"/>
     <path d="M 18.3125 70.21875 
L 18.3125 54.6875 
L 36.8125 54.6875 
L 36.8125 47.703125 
L 18.3125 47.703125 
L 18.3125 18.015625 
Q 18.3125 11.328125 20.140625 9.421875 
Q 21.96875 7.515625 27.59375 7.515625 
L 36.8125 7.515625 
L 36.8125 0 
L 27.59375 0 
Q 17.1875 0 13.234375 3.875 
Q 9.28125 7.765625 9.28125 18.015625 
L 9.28125 47.703125 
L 2.6875 47.703125 
L 2.6875 54.6875 
L 9.28125 54.6875 
L 9.28125 70.21875 
z
" id="DejaVuSans-74"/>
     <path d="M 54.890625 33.015625 
L 54.890625 0 
L 45.90625 0 
L 45.90625 32.71875 
Q 45.90625 40.484375 42.875 44.328125 
Q 39.84375 48.1875 33.796875 48.1875 
Q 26.515625 48.1875 22.3125 43.546875 
Q 18.109375 38.921875 18.109375 30.90625 
L 18.109375 0 
L 9.078125 0 
L 9.078125 54.6875 
L 18.109375 54.6875 
L 18.109375 46.1875 
Q 21.34375 51.125 25.703125 53.5625 
Q 30.078125 56 35.796875 56 
Q 45.21875 56 50.046875 50.171875 
Q 54.890625 44.34375 54.890625 33.015625 
z
" id="DejaVuSans-6e"/>
    </defs>
    <g transform="translate(32.971875 35.472)scale(0.12 -0.12)">
     <use xlink:href="#DejaVuSans-47"/>
     <use x="77.490234" xlink:href="#DejaVuSans-72"/>
     <use x="118.603516" xlink:href="#DejaVuSans-61"/>
     <use x="179.882812" xlink:href="#DejaVuSans-66"/>
     <use x="215.087891" xlink:href="#DejaVuSans-69"/>
     <use x="242.871094" xlink:href="#DejaVuSans-63"/>
     <use x="297.851562" xlink:href="#DejaVuSans-6f"/>
     <use x="359.033203" xlink:href="#DejaVuSans-20"/>
     <use x="390.820312" xlink:href="#DejaVuSans-76"/>
     <use x="450" xlink:href="#DejaVuSans-61"/>
     <use x="511.279297" xlink:href="#DejaVuSans-6c"/>
     <use x="539.0625" xlink:href="#DejaVuSans-6f"/>
     <use x="600.244141" xlink:href="#DejaVuSans-72"/>
     <use x="641.326172" xlink:href="#DejaVuSans-65"/>
     <use x="702.849609" xlink:href="#DejaVuSans-73"/>
     <use x="754.949219" xlink:href="#DejaVuSans-20"/>
     <use x="786.736328" xlink:href="#DejaVuSans-70"/>
     <use x="850.212891" xlink:href="#DejaVuSans-72"/>
     <use x="891.294922" xlink:href="#DejaVuSans-6f"/>
     <use x="952.476562" xlink:href="#DejaVuSans-6d"/>
     <use x="1049.888672" xlink:href="#DejaVuSans-65"/>
     <use x="1111.412109" xlink:href="#DejaVuSans-64"/>
     <use x="1174.888672" xlink:href="#DejaVuSans-69"/>
     <use x="1202.671875" xlink:href="#DejaVuSans-6f"/>
     <use x="1263.853516" xlink:href="#DejaVuSans-20"/>
     <use x="1295.640625" xlink:href="#DejaVuSans-65"/>
     <use x="1357.164062" xlink:href="#DejaVuSans-73"/>
     <use x="1409.263672" xlink:href="#DejaVuSans-70"/>
     <use x="1472.740234" xlink:href="#DejaVuSans-65"/>
     <use x="1534.263672" xlink:href="#DejaVuSans-72"/>
     <use x="1575.376953" xlink:href="#DejaVuSans-61"/>
     <use x="1636.65625" xlink:href="#DejaVuSans-64"/>
     <use x="1700.132812" xlink:href="#DejaVuSans-6f"/>
     <use x="1761.314453" xlink:href="#DejaVuSans-73"/>
     <use x="1813.414062" xlink:href="#DejaVuSans-20"/>
     <use x="1845.201172" xlink:href="#DejaVuSans-76"/>
     <use x="1904.380859" xlink:href="#DejaVuSans-73"/>
     <use x="1956.480469" xlink:href="#DejaVuSans-20"/>
     <use x="1988.267578" xlink:href="#DejaVuSans-76"/>
     <use x="2047.447266" xlink:href="#DejaVuSans-61"/>
     <use x="2108.726562" xlink:href="#DejaVuSans-6c"/>
     <use x="2136.509766" xlink:href="#DejaVuSans-6f"/>
     <use x="2197.691406" xlink:href="#DejaVuSans-72"/>
     <use x="2238.773438" xlink:href="#DejaVuSans-65"/>
     <use x="2300.296875" xlink:href="#DejaVuSans-73"/>
     <use x="2352.396484" xlink:href="#DejaVuSans-20"/>
     <use x="2384.183594" xlink:href="#DejaVuSans-70"/>
     <use x="2447.660156" xlink:href="#DejaVuSans-72"/>
     <use x="2488.742188" xlink:href="#DejaVuSans-6f"/>
     <use x="2549.923828" xlink:href="#DejaVuSans-6d"/>
     <use x="2647.335938" xlink:href="#DejaVuSans-65"/>
     <use x="2708.859375" xlink:href="#DejaVuSans-64"/>
     <use x="2772.335938" xlink:href="#DejaVuSans-69"/>
     <use x="2800.119141" xlink:href="#DejaVuSans-6f"/>
     <use x="2861.300781" xlink:href="#DejaVuSans-20"/>
     <use x="2893.087891" xlink:href="#DejaVuSans-6f"/>
     <use x="2954.269531" xlink:href="#DejaVuSans-62"/>
     <use x="3017.746094" xlink:href="#DejaVuSans-74"/>
     <use x="3056.955078" xlink:href="#DejaVuSans-65"/>
     <use x="3118.478516" xlink:href="#DejaVuSans-6e"/>
     <use x="3181.857422" xlink:href="#DejaVuSans-69"/>
     <use x="3209.640625" xlink:href="#DejaVuSans-64"/>
     <use x="3273.117188" xlink:href="#DejaVuSans-6f"/>
     <use x="3334.298828" xlink:href="#DejaVuSans-73"/>
    </g>
   </g>
   <g id="legend_1">
    <g id="patch_7">
     <path d="M 249.11375 78.82825 
L 407.72 78.82825 
Q 409.72 78.82825 409.72 76.82825 
L 409.72 48.472 
Q 409.72 46.472 407.72 46.472 
L 249.11375 46.472 
Q 247.11375 46.472 247.11375 48.472 
L 247.11375 76.82825 
Q 247.11375 78.82825 249.11375 78.82825 
z
" style="fill:#ffffff;opacity:0.8;stroke:#cccccc;stroke-linejoin:miter;"/>
    </g>
    <g id="line2d_17">
     <path d="M 251.11375 54.570437 
L 271.11375 54.570437 
" style="fill:none;stroke:#1f77b4;stroke-linecap:square;stroke-width:1.5;"/>
    </g>
    <g id="line2d_18"/>
    <g id="text_18">
     <!-- Valor promedio esperado -->
     <g transform="translate(279.11375 58.070437)scale(0.1 -0.1)">
      <use xlink:href="#DejaVuSans-56"/>
      <use x="68.298828" xlink:href="#DejaVuSans-61"/>
      <use x="129.578125" xlink:href="#DejaVuSans-6c"/>
      <use x="157.361328" xlink:href="#DejaVuSans-6f"/>
      <use x="218.542969" xlink:href="#DejaVuSans-72"/>
      <use x="259.65625" xlink:href="#DejaVuSans-20"/>
      <use x="291.443359" xlink:href="#DejaVuSans-70"/>
      <use x="354.919922" xlink:href="#DejaVuSans-72"/>
      <use x="396.001953" xlink:href="#DejaVuSans-6f"/>
      <use x="457.183594" xlink:href="#DejaVuSans-6d"/>
      <use x="554.595703" xlink:href="#DejaVuSans-65"/>
      <use x="616.119141" xlink:href="#DejaVuSans-64"/>
      <use x="679.595703" xlink:href="#DejaVuSans-69"/>
      <use x="707.378906" xlink:href="#DejaVuSans-6f"/>
      <use x="768.560547" xlink:href="#DejaVuSans-20"/>
      <use x="800.347656" xlink:href="#DejaVuSans-65"/>
      <use x="861.871094" xlink:href="#DejaVuSans-73"/>
      <use x="913.970703" xlink:href="#DejaVuSans-70"/>
      <use x="977.447266" xlink:href="#DejaVuSans-65"/>
      <use x="1038.970703" xlink:href="#DejaVuSans-72"/>
      <use x="1080.083984" xlink:href="#DejaVuSans-61"/>
      <use x="1141.363281" xlink:href="#DejaVuSans-64"/>
      <use x="1204.839844" xlink:href="#DejaVuSans-6f"/>
     </g>
    </g>
    <g id="line2d_19">
     <path d="M 251.11375 69.248562 
L 271.11375 69.248562 
" style="fill:none;stroke:#ff7f0e;stroke-linecap:square;stroke-width:1.5;"/>
    </g>
    <g id="line2d_20"/>
    <g id="text_19">
     <!-- Valor promedio obtenido -->
     <g transform="translate(279.11375 72.748562)scale(0.1 -0.1)">
      <use xlink:href="#DejaVuSans-56"/>
      <use x="68.298828" xlink:href="#DejaVuSans-61"/>
      <use x="129.578125" xlink:href="#DejaVuSans-6c"/>
      <use x="157.361328" xlink:href="#DejaVuSans-6f"/>
      <use x="218.542969" xlink:href="#DejaVuSans-72"/>
      <use x="259.65625" xlink:href="#DejaVuSans-20"/>
      <use x="291.443359" xlink:href="#DejaVuSans-70"/>
      <use x="354.919922" xlink:href="#DejaVuSans-72"/>
      <use x="396.001953" xlink:href="#DejaVuSans-6f"/>
      <use x="457.183594" xlink:href="#DejaVuSans-6d"/>
      <use x="554.595703" xlink:href="#DejaVuSans-65"/>
      <use x="616.119141" xlink:href="#DejaVuSans-64"/>
      <use x="679.595703" xlink:href="#DejaVuSans-69"/>
      <use x="707.378906" xlink:href="#DejaVuSans-6f"/>
      <use x="768.560547" xlink:href="#DejaVuSans-20"/>
      <use x="800.347656" xlink:href="#DejaVuSans-6f"/>
      <use x="861.529297" xlink:href="#DejaVuSans-62"/>
      <use x="925.005859" xlink:href="#DejaVuSans-74"/>
      <use x="964.214844" xlink:href="#DejaVuSans-65"/>
      <use x="1025.738281" xlink:href="#DejaVuSans-6e"/>
      <use x="1089.117188" xlink:href="#DejaVuSans-69"/>
      <use x="1116.900391" xlink:href="#DejaVuSans-64"/>
      <use x="1180.376953" xlink:href="#DejaVuSans-6f"/>
     </g>
    </g>
   </g>
  </g>
 </g>
 <defs>
  <clipPath id="p8c79c71fa5">
   <rect height="266.112" width="357.12" x="57.6" y="41.472"/>
  </clipPath>
 </defs>
</svg>
