<?xml version="1.0" encoding="utf-8" standalone="no"?>
<!DOCTYPE svg PUBLIC "-//W3C//DTD SVG 1.1//EN"
  "http://www.w3.org/Graphics/SVG/1.1/DTD/svg11.dtd">
<!-- Created with matplotlib (http://matplotlib.org/) -->
<svg height="345.6pt" version="1.1" viewBox="0 0 460.8 345.6" width="460.8pt" xmlns="http://www.w3.org/2000/svg" xmlns:xlink="http://www.w3.org/1999/xlink">
 <defs>
  <style type="text/css">
*{stroke-linecap:butt;stroke-linejoin:round;}
  </style>
 </defs>
 <g id="figure_1">
  <g id="patch_1">
   <path d="M 0 345.6 
L 460.8 345.6 
L 460.8 0 
L 0 0 
z
" style="fill:#ffffff;"/>
  </g>
  <g id="axes_1">
   <g id="patch_2">
    <path d="M 57.6 307.584 
L 414.72 307.584 
L 414.72 41.472 
L 57.6 41.472 
z
" style="fill:#ffffff;"/>
   </g>
   <g id="matplotlib.axis_1">
    <g id="xtick_1">
     <g id="line2d_1">
      <defs>
       <path d="M 0 0 
L 0 3.5 
" id="md1be576092" style="stroke:#000000;stroke-width:0.8;"/>
      </defs>
      <g>
       <use style="stroke:#000000;stroke-width:0.8;" x="128.451463" xlink:href="#md1be576092" y="307.584"/>
      </g>
     </g>
     <g id="text_1">
      <!-- 100 -->
      <defs>
       <path d="M 12.40625 8.296875 
L 28.515625 8.296875 
L 28.515625 63.921875 
L 10.984375 60.40625 
L 10.984375 69.390625 
L 28.421875 72.90625 
L 38.28125 72.90625 
L 38.28125 8.296875 
L 54.390625 8.296875 
L 54.390625 0 
L 12.40625 0 
z
" id="DejaVuSans-31"/>
       <path d="M 31.78125 66.40625 
Q 24.171875 66.40625 20.328125 58.90625 
Q 16.5 51.421875 16.5 36.375 
Q 16.5 21.390625 20.328125 13.890625 
Q 24.171875 6.390625 31.78125 6.390625 
Q 39.453125 6.390625 43.28125 13.890625 
Q 47.125 21.390625 47.125 36.375 
Q 47.125 51.421875 43.28125 58.90625 
Q 39.453125 66.40625 31.78125 66.40625 
z
M 31.78125 74.21875 
Q 44.046875 74.21875 50.515625 64.515625 
Q 56.984375 54.828125 56.984375 36.375 
Q 56.984375 17.96875 50.515625 8.265625 
Q 44.046875 -1.421875 31.78125 -1.421875 
Q 19.53125 -1.421875 13.0625 8.265625 
Q 6.59375 17.96875 6.59375 36.375 
Q 6.59375 54.828125 13.0625 64.515625 
Q 19.53125 74.21875 31.78125 74.21875 
z
" id="DejaVuSans-30"/>
      </defs>
      <g transform="translate(118.907713 322.182437)scale(0.1 -0.1)">
       <use xlink:href="#DejaVuSans-31"/>
       <use x="63.623047" xlink:href="#DejaVuSans-30"/>
       <use x="127.246094" xlink:href="#DejaVuSans-30"/>
      </g>
     </g>
    </g>
    <g id="xtick_2">
     <g id="line2d_2">
      <g>
       <use style="stroke:#000000;stroke-width:0.8;" x="200.018597" xlink:href="#md1be576092" y="307.584"/>
      </g>
     </g>
     <g id="text_2">
      <!-- 200 -->
      <defs>
       <path d="M 19.1875 8.296875 
L 53.609375 8.296875 
L 53.609375 0 
L 7.328125 0 
L 7.328125 8.296875 
Q 12.9375 14.109375 22.625 23.890625 
Q 32.328125 33.6875 34.8125 36.53125 
Q 39.546875 41.84375 41.421875 45.53125 
Q 43.3125 49.21875 43.3125 52.78125 
Q 43.3125 58.59375 39.234375 62.25 
Q 35.15625 65.921875 28.609375 65.921875 
Q 23.96875 65.921875 18.8125 64.3125 
Q 13.671875 62.703125 7.8125 59.421875 
L 7.8125 69.390625 
Q 13.765625 71.78125 18.9375 73 
Q 24.125 74.21875 28.421875 74.21875 
Q 39.75 74.21875 46.484375 68.546875 
Q 53.21875 62.890625 53.21875 53.421875 
Q 53.21875 48.921875 51.53125 44.890625 
Q 49.859375 40.875 45.40625 35.40625 
Q 44.1875 33.984375 37.640625 27.21875 
Q 31.109375 20.453125 19.1875 8.296875 
z
" id="DejaVuSans-32"/>
      </defs>
      <g transform="translate(190.474847 322.182437)scale(0.1 -0.1)">
       <use xlink:href="#DejaVuSans-32"/>
       <use x="63.623047" xlink:href="#DejaVuSans-30"/>
       <use x="127.246094" xlink:href="#DejaVuSans-30"/>
      </g>
     </g>
    </g>
    <g id="xtick_3">
     <g id="line2d_3">
      <g>
       <use style="stroke:#000000;stroke-width:0.8;" x="271.585731" xlink:href="#md1be576092" y="307.584"/>
      </g>
     </g>
     <g id="text_3">
      <!-- 300 -->
      <defs>
       <path d="M 40.578125 39.3125 
Q 47.65625 37.796875 51.625 33 
Q 55.609375 28.21875 55.609375 21.1875 
Q 55.609375 10.40625 48.1875 4.484375 
Q 40.765625 -1.421875 27.09375 -1.421875 
Q 22.515625 -1.421875 17.65625 -0.515625 
Q 12.796875 0.390625 7.625 2.203125 
L 7.625 11.71875 
Q 11.71875 9.328125 16.59375 8.109375 
Q 21.484375 6.890625 26.8125 6.890625 
Q 36.078125 6.890625 40.9375 10.546875 
Q 45.796875 14.203125 45.796875 21.1875 
Q 45.796875 27.640625 41.28125 31.265625 
Q 36.765625 34.90625 28.71875 34.90625 
L 20.21875 34.90625 
L 20.21875 43.015625 
L 29.109375 43.015625 
Q 36.375 43.015625 40.234375 45.921875 
Q 44.09375 48.828125 44.09375 54.296875 
Q 44.09375 59.90625 40.109375 62.90625 
Q 36.140625 65.921875 28.71875 65.921875 
Q 24.65625 65.921875 20.015625 65.03125 
Q 15.375 64.15625 9.8125 62.3125 
L 9.8125 71.09375 
Q 15.4375 72.65625 20.34375 73.4375 
Q 25.25 74.21875 29.59375 74.21875 
Q 40.828125 74.21875 47.359375 69.109375 
Q 53.90625 64.015625 53.90625 55.328125 
Q 53.90625 49.265625 50.4375 45.09375 
Q 46.96875 40.921875 40.578125 39.3125 
z
" id="DejaVuSans-33"/>
      </defs>
      <g transform="translate(262.041981 322.182437)scale(0.1 -0.1)">
       <use xlink:href="#DejaVuSans-33"/>
       <use x="63.623047" xlink:href="#DejaVuSans-30"/>
       <use x="127.246094" xlink:href="#DejaVuSans-30"/>
      </g>
     </g>
    </g>
    <g id="xtick_4">
     <g id="line2d_4">
      <g>
       <use style="stroke:#000000;stroke-width:0.8;" x="343.152866" xlink:href="#md1be576092" y="307.584"/>
      </g>
     </g>
     <g id="text_4">
      <!-- 400 -->
      <defs>
       <path d="M 37.796875 64.3125 
L 12.890625 25.390625 
L 37.796875 25.390625 
z
M 35.203125 72.90625 
L 47.609375 72.90625 
L 47.609375 25.390625 
L 58.015625 25.390625 
L 58.015625 17.1875 
L 47.609375 17.1875 
L 47.609375 0 
L 37.796875 0 
L 37.796875 17.1875 
L 4.890625 17.1875 
L 4.890625 26.703125 
z
" id="DejaVuSans-34"/>
      </defs>
      <g transform="translate(333.609116 322.182437)scale(0.1 -0.1)">
       <use xlink:href="#DejaVuSans-34"/>
       <use x="63.623047" xlink:href="#DejaVuSans-30"/>
       <use x="127.246094" xlink:href="#DejaVuSans-30"/>
      </g>
     </g>
    </g>
    <g id="xtick_5">
     <g id="line2d_5">
      <g>
       <use style="stroke:#000000;stroke-width:0.8;" x="414.72" xlink:href="#md1be576092" y="307.584"/>
      </g>
     </g>
     <g id="text_5">
      <!-- 500 -->
      <defs>
       <path d="M 10.796875 72.90625 
L 49.515625 72.90625 
L 49.515625 64.59375 
L 19.828125 64.59375 
L 19.828125 46.734375 
Q 21.96875 47.46875 24.109375 47.828125 
Q 26.265625 48.1875 28.421875 48.1875 
Q 40.625 48.1875 47.75 41.5 
Q 54.890625 34.8125 54.890625 23.390625 
Q 54.890625 11.625 47.5625 5.09375 
Q 40.234375 -1.421875 26.90625 -1.421875 
Q 22.3125 -1.421875 17.546875 -0.640625 
Q 12.796875 0.140625 7.71875 1.703125 
L 7.71875 11.625 
Q 12.109375 9.234375 16.796875 8.0625 
Q 21.484375 6.890625 26.703125 6.890625 
Q 35.15625 6.890625 40.078125 11.328125 
Q 45.015625 15.765625 45.015625 23.390625 
Q 45.015625 31 40.078125 35.4375 
Q 35.15625 39.890625 26.703125 39.890625 
Q 22.75 39.890625 18.8125 39.015625 
Q 14.890625 38.140625 10.796875 36.28125 
z
" id="DejaVuSans-35"/>
      </defs>
      <g transform="translate(405.17625 322.182437)scale(0.1 -0.1)">
       <use xlink:href="#DejaVuSans-35"/>
       <use x="63.623047" xlink:href="#DejaVuSans-30"/>
       <use x="127.246094" xlink:href="#DejaVuSans-30"/>
      </g>
     </g>
    </g>
    <g id="text_6">
     <!-- Tiradas -->
     <defs>
      <path d="M -0.296875 72.90625 
L 61.375 72.90625 
L 61.375 64.59375 
L 35.5 64.59375 
L 35.5 0 
L 25.59375 0 
L 25.59375 64.59375 
L -0.296875 64.59375 
z
" id="DejaVuSans-54"/>
      <path d="M 9.421875 54.6875 
L 18.40625 54.6875 
L 18.40625 0 
L 9.421875 0 
z
M 9.421875 75.984375 
L 18.40625 75.984375 
L 18.40625 64.59375 
L 9.421875 64.59375 
z
" id="DejaVuSans-69"/>
      <path d="M 41.109375 46.296875 
Q 39.59375 47.171875 37.8125 47.578125 
Q 36.03125 48 33.890625 48 
Q 26.265625 48 22.1875 43.046875 
Q 18.109375 38.09375 18.109375 28.8125 
L 18.109375 0 
L 9.078125 0 
L 9.078125 54.6875 
L 18.109375 54.6875 
L 18.109375 46.1875 
Q 20.953125 51.171875 25.484375 53.578125 
Q 30.03125 56 36.53125 56 
Q 37.453125 56 38.578125 55.875 
Q 39.703125 55.765625 41.0625 55.515625 
z
" id="DejaVuSans-72"/>
      <path d="M 34.28125 27.484375 
Q 23.390625 27.484375 19.1875 25 
Q 14.984375 22.515625 14.984375 16.5 
Q 14.984375 11.71875 18.140625 8.90625 
Q 21.296875 6.109375 26.703125 6.109375 
Q 34.1875 6.109375 38.703125 11.40625 
Q 43.21875 16.703125 43.21875 25.484375 
L 43.21875 27.484375 
z
M 52.203125 31.203125 
L 52.203125 0 
L 43.21875 0 
L 43.21875 8.296875 
Q 40.140625 3.328125 35.546875 0.953125 
Q 30.953125 -1.421875 24.3125 -1.421875 
Q 15.921875 -1.421875 10.953125 3.296875 
Q 6 8.015625 6 15.921875 
Q 6 25.140625 12.171875 29.828125 
Q 18.359375 34.515625 30.609375 34.515625 
L 43.21875 34.515625 
L 43.21875 35.40625 
Q 43.21875 41.609375 39.140625 45 
Q 35.0625 48.390625 27.6875 48.390625 
Q 23 48.390625 18.546875 47.265625 
Q 14.109375 46.140625 10.015625 43.890625 
L 10.015625 52.203125 
Q 14.9375 54.109375 19.578125 55.046875 
Q 24.21875 56 28.609375 56 
Q 40.484375 56 46.34375 49.84375 
Q 52.203125 43.703125 52.203125 31.203125 
z
" id="DejaVuSans-61"/>
      <path d="M 45.40625 46.390625 
L 45.40625 75.984375 
L 54.390625 75.984375 
L 54.390625 0 
L 45.40625 0 
L 45.40625 8.203125 
Q 42.578125 3.328125 38.25 0.953125 
Q 33.9375 -1.421875 27.875 -1.421875 
Q 17.96875 -1.421875 11.734375 6.484375 
Q 5.515625 14.40625 5.515625 27.296875 
Q 5.515625 40.1875 11.734375 48.09375 
Q 17.96875 56 27.875 56 
Q 33.9375 56 38.25 53.625 
Q 42.578125 51.265625 45.40625 46.390625 
z
M 14.796875 27.296875 
Q 14.796875 17.390625 18.875 11.75 
Q 22.953125 6.109375 30.078125 6.109375 
Q 37.203125 6.109375 41.296875 11.75 
Q 45.40625 17.390625 45.40625 27.296875 
Q 45.40625 37.203125 41.296875 42.84375 
Q 37.203125 48.484375 30.078125 48.484375 
Q 22.953125 48.484375 18.875 42.84375 
Q 14.796875 37.203125 14.796875 27.296875 
z
" id="DejaVuSans-64"/>
      <path d="M 44.28125 53.078125 
L 44.28125 44.578125 
Q 40.484375 46.53125 36.375 47.5 
Q 32.28125 48.484375 27.875 48.484375 
Q 21.1875 48.484375 17.84375 46.4375 
Q 14.5 44.390625 14.5 40.28125 
Q 14.5 37.15625 16.890625 35.375 
Q 19.28125 33.59375 26.515625 31.984375 
L 29.59375 31.296875 
Q 39.15625 29.25 43.1875 25.515625 
Q 47.21875 21.78125 47.21875 15.09375 
Q 47.21875 7.46875 41.1875 3.015625 
Q 35.15625 -1.421875 24.609375 -1.421875 
Q 20.21875 -1.421875 15.453125 -0.5625 
Q 10.6875 0.296875 5.421875 2 
L 5.421875 11.28125 
Q 10.40625 8.6875 15.234375 7.390625 
Q 20.0625 6.109375 24.8125 6.109375 
Q 31.15625 6.109375 34.5625 8.28125 
Q 37.984375 10.453125 37.984375 14.40625 
Q 37.984375 18.0625 35.515625 20.015625 
Q 33.0625 21.96875 24.703125 23.78125 
L 21.578125 24.515625 
Q 13.234375 26.265625 9.515625 29.90625 
Q 5.8125 33.546875 5.8125 39.890625 
Q 5.8125 47.609375 11.28125 51.796875 
Q 16.75 56 26.8125 56 
Q 31.78125 56 36.171875 55.265625 
Q 40.578125 54.546875 44.28125 53.078125 
z
" id="DejaVuSans-73"/>
     </defs>
     <g transform="translate(217.756875 335.860562)scale(0.1 -0.1)">
      <use xlink:href="#DejaVuSans-54"/>
      <use x="61.037109" xlink:href="#DejaVuSans-69"/>
      <use x="88.820312" xlink:href="#DejaVuSans-72"/>
      <use x="129.933594" xlink:href="#DejaVuSans-61"/>
      <use x="191.212891" xlink:href="#DejaVuSans-64"/>
      <use x="254.689453" xlink:href="#DejaVuSans-61"/>
      <use x="315.96875" xlink:href="#DejaVuSans-73"/>
     </g>
    </g>
   </g>
   <g id="matplotlib.axis_2">
    <g id="ytick_1">
     <g id="line2d_6">
      <defs>
       <path d="M 0 0 
L -3.5 0 
" id="m862ec876d6" style="stroke:#000000;stroke-width:0.8;"/>
      </defs>
      <g>
       <use style="stroke:#000000;stroke-width:0.8;" x="57.6" xlink:href="#m862ec876d6" y="295.488"/>
      </g>
     </g>
     <g id="text_7">
      <!-- 0 -->
      <g transform="translate(44.2375 299.287219)scale(0.1 -0.1)">
       <use xlink:href="#DejaVuSans-30"/>
      </g>
     </g>
    </g>
    <g id="ytick_2">
     <g id="line2d_7">
      <g>
       <use style="stroke:#000000;stroke-width:0.8;" x="57.6" xlink:href="#m862ec876d6" y="236.494633"/>
      </g>
     </g>
     <g id="text_8">
      <!-- 50 -->
      <g transform="translate(37.875 240.293852)scale(0.1 -0.1)">
       <use xlink:href="#DejaVuSans-35"/>
       <use x="63.623047" xlink:href="#DejaVuSans-30"/>
      </g>
     </g>
    </g>
    <g id="ytick_3">
     <g id="line2d_8">
      <g>
       <use style="stroke:#000000;stroke-width:0.8;" x="57.6" xlink:href="#m862ec876d6" y="177.501266"/>
      </g>
     </g>
     <g id="text_9">
      <!-- 100 -->
      <g transform="translate(31.5125 181.300484)scale(0.1 -0.1)">
       <use xlink:href="#DejaVuSans-31"/>
       <use x="63.623047" xlink:href="#DejaVuSans-30"/>
       <use x="127.246094" xlink:href="#DejaVuSans-30"/>
      </g>
     </g>
    </g>
    <g id="ytick_4">
     <g id="line2d_9">
      <g>
       <use style="stroke:#000000;stroke-width:0.8;" x="57.6" xlink:href="#m862ec876d6" y="118.507899"/>
      </g>
     </g>
     <g id="text_10">
      <!-- 150 -->
      <g transform="translate(31.5125 122.307117)scale(0.1 -0.1)">
       <use xlink:href="#DejaVuSans-31"/>
       <use x="63.623047" xlink:href="#DejaVuSans-35"/>
       <use x="127.246094" xlink:href="#DejaVuSans-30"/>
      </g>
     </g>
    </g>
    <g id="ytick_5">
     <g id="line2d_10">
      <g>
       <use style="stroke:#000000;stroke-width:0.8;" x="57.6" xlink:href="#m862ec876d6" y="59.514531"/>
      </g>
     </g>
     <g id="text_11">
      <!-- 200 -->
      <g transform="translate(31.5125 63.31375)scale(0.1 -0.1)">
       <use xlink:href="#DejaVuSans-32"/>
       <use x="63.623047" xlink:href="#DejaVuSans-30"/>
       <use x="127.246094" xlink:href="#DejaVuSans-30"/>
      </g>
     </g>
    </g>
    <g id="text_12">
     <!-- Valor de la varianza -->
     <defs>
      <path d="M 28.609375 0 
L 0.78125 72.90625 
L 11.078125 72.90625 
L 34.1875 11.53125 
L 57.328125 72.90625 
L 67.578125 72.90625 
L 39.796875 0 
z
" id="DejaVuSans-56"/>
      <path d="M 9.421875 75.984375 
L 18.40625 75.984375 
L 18.40625 0 
L 9.421875 0 
z
" id="DejaVuSans-6c"/>
      <path d="M 30.609375 48.390625 
Q 23.390625 48.390625 19.1875 42.75 
Q 14.984375 37.109375 14.984375 27.296875 
Q 14.984375 17.484375 19.15625 11.84375 
Q 23.34375 6.203125 30.609375 6.203125 
Q 37.796875 6.203125 41.984375 11.859375 
Q 46.1875 17.53125 46.1875 27.296875 
Q 46.1875 37.015625 41.984375 42.703125 
Q 37.796875 48.390625 30.609375 48.390625 
z
M 30.609375 56 
Q 42.328125 56 49.015625 48.375 
Q 55.71875 40.765625 55.71875 27.296875 
Q 55.71875 13.875 49.015625 6.21875 
Q 42.328125 -1.421875 30.609375 -1.421875 
Q 18.84375 -1.421875 12.171875 6.21875 
Q 5.515625 13.875 5.515625 27.296875 
Q 5.515625 40.765625 12.171875 48.375 
Q 18.84375 56 30.609375 56 
z
" id="DejaVuSans-6f"/>
      <path id="DejaVuSans-20"/>
      <path d="M 56.203125 29.59375 
L 56.203125 25.203125 
L 14.890625 25.203125 
Q 15.484375 15.921875 20.484375 11.0625 
Q 25.484375 6.203125 34.421875 6.203125 
Q 39.59375 6.203125 44.453125 7.46875 
Q 49.3125 8.734375 54.109375 11.28125 
L 54.109375 2.78125 
Q 49.265625 0.734375 44.1875 -0.34375 
Q 39.109375 -1.421875 33.890625 -1.421875 
Q 20.796875 -1.421875 13.15625 6.1875 
Q 5.515625 13.8125 5.515625 26.8125 
Q 5.515625 40.234375 12.765625 48.109375 
Q 20.015625 56 32.328125 56 
Q 43.359375 56 49.78125 48.890625 
Q 56.203125 41.796875 56.203125 29.59375 
z
M 47.21875 32.234375 
Q 47.125 39.59375 43.09375 43.984375 
Q 39.0625 48.390625 32.421875 48.390625 
Q 24.90625 48.390625 20.390625 44.140625 
Q 15.875 39.890625 15.1875 32.171875 
z
" id="DejaVuSans-65"/>
      <path d="M 2.984375 54.6875 
L 12.5 54.6875 
L 29.59375 8.796875 
L 46.6875 54.6875 
L 56.203125 54.6875 
L 35.6875 0 
L 23.484375 0 
z
" id="DejaVuSans-76"/>
      <path d="M 54.890625 33.015625 
L 54.890625 0 
L 45.90625 0 
L 45.90625 32.71875 
Q 45.90625 40.484375 42.875 44.328125 
Q 39.84375 48.1875 33.796875 48.1875 
Q 26.515625 48.1875 22.3125 43.546875 
Q 18.109375 38.921875 18.109375 30.90625 
L 18.109375 0 
L 9.078125 0 
L 9.078125 54.6875 
L 18.109375 54.6875 
L 18.109375 46.1875 
Q 21.34375 51.125 25.703125 53.5625 
Q 30.078125 56 35.796875 56 
Q 45.21875 56 50.046875 50.171875 
Q 54.890625 44.34375 54.890625 33.015625 
z
" id="DejaVuSans-6e"/>
      <path d="M 5.515625 54.6875 
L 48.1875 54.6875 
L 48.1875 46.484375 
L 14.40625 7.171875 
L 48.1875 7.171875 
L 48.1875 0 
L 4.296875 0 
L 4.296875 8.203125 
L 38.09375 47.515625 
L 5.515625 47.515625 
z
" id="DejaVuSans-7a"/>
     </defs>
     <g transform="translate(25.432812 224.370969)rotate(-90)scale(0.1 -0.1)">
      <use xlink:href="#DejaVuSans-56"/>
      <use x="68.298828" xlink:href="#DejaVuSans-61"/>
      <use x="129.578125" xlink:href="#DejaVuSans-6c"/>
      <use x="157.361328" xlink:href="#DejaVuSans-6f"/>
      <use x="218.542969" xlink:href="#DejaVuSans-72"/>
      <use x="259.65625" xlink:href="#DejaVuSans-20"/>
      <use x="291.443359" xlink:href="#DejaVuSans-64"/>
      <use x="354.919922" xlink:href="#DejaVuSans-65"/>
      <use x="416.443359" xlink:href="#DejaVuSans-20"/>
      <use x="448.230469" xlink:href="#DejaVuSans-6c"/>
      <use x="476.013672" xlink:href="#DejaVuSans-61"/>
      <use x="537.292969" xlink:href="#DejaVuSans-20"/>
      <use x="569.080078" xlink:href="#DejaVuSans-76"/>
      <use x="628.259766" xlink:href="#DejaVuSans-61"/>
      <use x="689.539062" xlink:href="#DejaVuSans-72"/>
      <use x="730.652344" xlink:href="#DejaVuSans-69"/>
      <use x="758.435547" xlink:href="#DejaVuSans-61"/>
      <use x="819.714844" xlink:href="#DejaVuSans-6e"/>
      <use x="883.09375" xlink:href="#DejaVuSans-7a"/>
      <use x="935.583984" xlink:href="#DejaVuSans-61"/>
     </g>
    </g>
   </g>
   <g id="line2d_11">
    <path clip-path="url(#p98d88d47e0)" d="M 57.6 295.488 
L 58.315671 245.638605 
L 59.031343 260.616365 
L 59.747014 155.67372 
L 60.462685 115.487438 
L 61.178357 128.438449 
L 61.894028 136.374461 
L 62.609699 156.134606 
L 63.325371 169.868544 
L 64.041042 141.822077 
L 64.756713 155.132541 
L 65.472385 136.435327 
L 67.619399 165.566252 
L 68.33507 169.762995 
L 69.050741 176.880713 
L 69.766413 181.284853 
L 70.482084 187.142841 
L 71.913427 176.982231 
L 72.629098 168.391422 
L 73.34477 165.912247 
L 74.060441 171.282382 
L 74.776112 174.480805 
L 76.923126 185.731743 
L 77.638798 187.650089 
L 78.354469 185.45095 
L 79.07014 188.654143 
L 79.785812 180.378345 
L 81.217154 186.681981 
L 81.932826 182.101304 
L 82.648497 185.211371 
L 83.364168 185.037248 
L 84.07984 187.901094 
L 84.795511 187.19464 
L 85.511182 188.710743 
L 86.942525 190.602208 
L 87.658196 184.699158 
L 88.373868 184.473209 
L 89.089539 186.017286 
L 89.80521 188.150739 
L 90.520882 183.279358 
L 91.236553 184.335176 
L 91.952224 184.630593 
L 92.667896 180.196555 
L 93.383567 182.022049 
L 94.81491 174.902113 
L 95.530581 176.288624 
L 96.246253 173.611019 
L 96.961924 174.498925 
L 97.677595 176.254216 
L 98.393267 177.37886 
L 99.108938 179.370886 
L 99.824609 179.972432 
L 100.540281 179.202101 
L 101.255952 180.482242 
L 101.971623 179.450172 
L 102.687295 180.664094 
L 103.402966 179.097508 
L 104.118637 176.036453 
L 104.834309 177.130142 
L 105.54998 178.624997 
L 106.265651 175.599005 
L 106.981323 176.109263 
L 107.696994 176.840765 
L 108.412665 178.162438 
L 109.128337 177.306429 
L 109.844008 175.934214 
L 110.559679 177.067914 
L 111.275351 177.485945 
L 111.991022 174.894374 
L 112.706693 175.554795 
L 113.422365 171.970011 
L 114.138036 173.432383 
L 115.569379 169.494873 
L 116.28505 167.707459 
L 117.000721 167.883909 
L 117.716393 167.163505 
L 118.432064 167.658243 
L 119.147735 167.347454 
L 119.863407 166.058503 
L 120.579078 165.553042 
L 121.294749 166.18561 
L 122.010421 165.379735 
L 122.726092 165.249827 
L 123.441764 165.613921 
L 124.157435 164.900347 
L 124.873106 165.698147 
L 125.588778 167.042745 
L 126.304449 167.899811 
L 127.735792 163.985459 
L 129.167134 166.543223 
L 129.882806 167.36738 
L 130.598477 168.602826 
L 132.02982 165.962645 
L 132.745491 166.768526 
L 133.461162 165.541416 
L 134.176834 165.127225 
L 135.608176 166.583202 
L 136.323848 166.910134 
L 137.039519 165.652271 
L 137.75519 165.775589 
L 138.470862 166.913236 
L 139.186533 167.183203 
L 139.902204 168.201656 
L 140.617876 168.062672 
L 141.333547 167.710841 
L 142.049218 168.776363 
L 142.76489 166.983732 
L 143.480561 165.585581 
L 144.196232 165.904495 
L 144.911904 164.599074 
L 145.627575 165.270194 
L 146.343246 165.608203 
L 147.058918 166.531606 
L 147.774589 165.368727 
L 150.637275 168.592411 
L 151.352946 167.963463 
L 152.068617 168.398632 
L 152.784289 168.995129 
L 154.215631 170.777502 
L 154.931303 169.684181 
L 155.646974 170.36655 
L 157.078317 172.002903 
L 157.793988 171.042945 
L 158.509659 171.893795 
L 159.225331 171.426931 
L 159.941002 171.961135 
L 160.656673 172.799417 
L 161.372345 171.240541 
L 162.088016 171.675804 
L 162.803687 170.190925 
L 163.519359 169.900499 
L 164.23503 167.942977 
L 164.950701 168.676349 
L 165.666373 166.796308 
L 167.097715 164.786001 
L 167.813387 164.421607 
L 168.529058 163.881061 
L 169.244729 164.175739 
L 169.960401 164.029302 
L 170.676072 164.553574 
L 171.391743 162.82708 
L 172.823086 164.300589 
L 173.538758 164.154008 
L 174.254429 164.870728 
L 174.9701 163.508407 
L 175.685772 163.816414 
L 176.401443 164.446617 
L 177.117114 164.810711 
L 178.548457 163.429245 
L 179.264128 163.100275 
L 180.695471 164.277164 
L 181.411142 165.029301 
L 182.126814 165.286508 
L 182.842485 164.987153 
L 183.558156 164.53165 
L 184.989499 162.295298 
L 185.70517 162.363604 
L 186.420842 162.772822 
L 187.136513 162.714063 
L 187.852184 163.125902 
L 188.567856 163.845249 
L 189.283527 162.491698 
L 189.999198 162.701802 
L 190.71487 162.163834 
L 191.430541 162.650273 
L 192.146212 162.949866 
L 192.861884 163.426233 
L 193.577555 163.367696 
L 194.293226 163.755382 
L 195.008898 164.437931 
L 195.724569 164.086842 
L 196.44024 162.801406 
L 197.155912 162.760449 
L 197.871583 161.307268 
L 198.587255 160.788946 
L 199.302926 160.488902 
L 200.018597 159.877469 
L 200.734269 160.542728 
L 201.44994 160.336659 
L 202.165611 160.702364 
L 202.881283 160.207885 
L 203.596954 160.812818 
L 204.312625 160.491002 
L 205.743968 161.066464 
L 206.459639 160.45522 
L 207.175311 160.888172 
L 207.890982 161.472603 
L 208.606653 160.487827 
L 209.322325 160.675524 
L 210.753667 159.12964 
L 211.469339 158.67963 
L 212.18501 159.047688 
L 212.900681 159.142243 
L 213.616353 158.576549 
L 215.047695 159.684522 
L 215.763367 160.270663 
L 217.194709 161.225793 
L 217.910381 161.09956 
L 220.057395 162.280741 
L 220.773066 162.554674 
L 222.204409 162.83196 
L 222.92008 162.649107 
L 223.635752 163.215632 
L 224.351423 162.953016 
L 225.067094 162.271117 
L 225.782766 161.957526 
L 226.498437 162.293372 
L 227.214108 161.383529 
L 227.92978 161.944475 
L 228.645451 160.766896 
L 229.361122 160.993402 
L 230.076794 160.756655 
L 232.939479 161.084799 
L 234.370822 162.077988 
L 235.086493 161.142364 
L 235.802164 160.81207 
L 237.233507 161.729068 
L 237.949178 162.063656 
L 238.66485 161.162034 
L 240.096192 162.107702 
L 240.811864 161.912597 
L 242.243206 162.840278 
L 242.958878 162.405334 
L 243.674549 161.703469 
L 244.39022 162.189512 
L 245.105892 162.122444 
L 245.821563 161.841361 
L 246.537234 161.967105 
L 247.968577 162.901125 
L 248.684248 163.317708 
L 249.39992 162.661492 
L 250.831263 163.429322 
L 251.546934 163.045738 
L 252.262605 163.495373 
L 252.978277 163.119381 
L 253.693948 163.497563 
L 254.409619 163.373169 
L 255.125291 163.787163 
L 255.840962 163.930623 
L 256.556633 164.381867 
L 257.272305 164.359124 
L 258.703647 165.067451 
L 259.419319 165.276603 
L 260.13499 165.256134 
L 260.850661 165.71276 
L 261.566333 165.694154 
L 263.713347 166.607118 
L 264.429018 166.530548 
L 265.144689 165.560224 
L 265.860361 165.787003 
L 266.576032 165.879911 
L 268.007375 165.606007 
L 269.438717 165.238879 
L 270.154389 164.823617 
L 270.87006 164.076426 
L 271.585731 164.014451 
L 272.301403 163.764662 
L 273.017074 163.230309 
L 273.732745 163.655119 
L 274.448417 163.131693 
L 275.87976 163.91224 
L 277.311102 164.676614 
L 278.026774 164.93151 
L 278.742445 165.309602 
L 280.173788 165.772516 
L 280.889459 164.880808 
L 281.60513 165.020719 
L 282.320802 165.427129 
L 283.036473 165.251387 
L 283.752144 165.328938 
L 285.183487 163.746021 
L 285.899158 163.889111 
L 289.477515 165.482268 
L 290.908858 166.210956 
L 291.624529 165.633994 
L 293.055872 166.374315 
L 293.771543 166.366224 
L 294.487214 166.645895 
L 295.202886 166.716421 
L 295.918557 166.354864 
L 296.634228 166.193505 
L 297.3499 166.533984 
L 298.065571 166.458807 
L 298.781242 166.839373 
L 299.496914 166.910929 
L 300.212585 167.147715 
L 300.928257 166.974074 
L 301.643928 167.249148 
L 302.359599 167.369042 
L 303.075271 167.12559 
L 303.790942 166.467521 
L 304.506613 166.766273 
L 305.222285 166.752243 
L 307.369299 167.748184 
L 308.08497 167.184655 
L 308.800641 166.854816 
L 309.516313 166.709043 
L 311.663327 167.437575 
L 312.378998 167.605281 
L 313.810341 166.528145 
L 315.241683 167.194019 
L 316.673026 167.780632 
L 317.388697 168.130895 
L 318.104369 167.809217 
L 318.82004 167.724246 
L 319.535711 167.788158 
L 320.251383 167.626707 
L 320.967054 167.965294 
L 321.682725 168.01858 
L 322.398397 167.780186 
L 323.114068 168.122666 
L 323.829739 168.286294 
L 324.545411 168.619212 
L 325.261082 168.731241 
L 325.976754 168.576958 
L 326.692425 168.163438 
L 328.839439 168.680605 
L 329.55511 168.065546 
L 330.270782 168.304989 
L 330.986453 167.586966 
L 332.417796 168.197201 
L 333.133467 167.879181 
L 333.849138 168.078902 
L 334.56481 168.132275 
L 335.280481 167.532903 
L 335.996152 167.591086 
L 338.143166 168.486471 
L 338.858838 168.175384 
L 340.29018 168.758017 
L 341.005852 168.687591 
L 343.868537 169.849404 
L 344.584208 169.358718 
L 345.29988 169.059565 
L 346.015551 169.159127 
L 346.731222 168.863177 
L 347.446894 168.378846 
L 348.878236 168.932712 
L 349.593908 168.858309 
L 350.309579 168.958738 
L 351.025251 169.260152 
L 351.740922 169.405991 
L 352.456593 169.110276 
L 354.603607 169.418067 
L 355.319279 168.951483 
L 356.03495 169.22039 
L 356.750621 168.760929 
L 357.466293 168.618978 
L 358.181964 168.800292 
L 358.897635 168.337729 
L 359.613307 168.20369 
L 361.044649 168.356835 
L 361.760321 168.146138 
L 362.475992 167.496573 
L 363.191663 167.29447 
L 363.907335 167.288891 
L 364.623006 167.531795 
L 366.77002 167.893108 
L 367.485691 167.768068 
L 368.201363 167.768933 
L 368.917034 167.315817 
L 370.348377 167.507338 
L 371.779719 167.653761 
L 372.495391 167.532591 
L 373.211062 167.172347 
L 373.926733 167.041209 
L 374.642405 167.179156 
L 375.358076 166.908348 
L 376.073747 166.478525 
L 376.789419 166.216668 
L 378.220762 166.53402 
L 378.936433 166.264704 
L 379.652104 166.140464 
L 381.083447 166.626563 
L 382.51479 165.78743 
L 383.230461 166.054761 
L 383.946132 165.542907 
L 384.661804 165.642199 
L 385.377475 165.583038 
L 386.093146 165.397416 
L 386.808818 165.3977 
L 387.524489 165.282145 
L 389.671503 165.997285 
L 390.387174 166.274602 
L 391.102846 166.271749 
L 392.534188 166.746467 
L 393.24986 166.989342 
L 393.965531 166.93231 
L 394.681202 166.752564 
L 395.396874 167.009982 
L 397.543888 167.197423 
L 398.259559 167.449787 
L 399.690902 167.675982 
L 400.406573 167.871259 
L 401.122244 167.375634 
L 401.837916 167.313034 
L 402.553587 167.438692 
L 403.269259 167.114655 
L 404.700601 167.607536 
L 405.416273 167.213368 
L 407.563287 167.885539 
L 408.278958 167.97024 
L 409.710301 168.415381 
L 410.425972 168.407842 
L 411.141643 168.018383 
L 414.72 168.862848 
L 414.72 168.862848 
" style="fill:none;stroke:#1f77b4;stroke-linecap:square;stroke-width:1.5;"/>
   </g>
   <g id="line2d_12">
    <path clip-path="url(#p98d88d47e0)" d="M 57.6 295.488 
L 58.315671 276.610123 
L 59.031343 276.34793 
L 59.747014 146.529748 
L 60.462685 53.568 
L 61.178357 84.914453 
L 61.894028 111.139747 
L 62.609699 116.904016 
L 63.325371 132.374981 
L 64.041042 126.530996 
L 65.472385 151.912893 
L 66.188056 155.788914 
L 66.903727 139.09538 
L 67.619399 148.429334 
L 68.33507 153.834786 
L 69.050741 147.347286 
L 69.766413 133.642246 
L 70.482084 136.53601 
L 71.197756 135.3918 
L 71.913427 132.677008 
L 73.34477 145.856733 
L 74.060441 151.955909 
L 74.776112 155.708644 
L 76.207455 152.405212 
L 76.923126 151.297375 
L 77.638798 153.137917 
L 78.354469 157.621812 
L 79.07014 155.389496 
L 79.785812 157.463109 
L 80.501483 158.972256 
L 83.364168 172.345702 
L 84.07984 164.888778 
L 84.795511 168.234536 
L 85.511182 171.023794 
L 86.226854 162.375661 
L 86.942525 165.084567 
L 87.658196 166.803972 
L 88.373868 169.517659 
L 89.089539 163.282262 
L 89.80521 159.204958 
L 90.520882 161.418963 
L 91.236553 157.918745 
L 91.952224 155.992397 
L 92.667896 158.232144 
L 93.383567 159.174991 
L 94.099238 159.742168 
L 94.81491 162.249097 
L 95.530581 163.525341 
L 96.246253 165.772799 
L 96.961924 167.43176 
L 97.677595 164.117815 
L 99.108938 168.2379 
L 99.824609 169.317247 
L 100.540281 171.357458 
L 101.255952 169.792226 
L 101.971623 171.246096 
L 102.687295 166.168375 
L 104.118637 165.358058 
L 104.834309 166.086857 
L 105.54998 166.530592 
L 106.265651 167.597914 
L 106.981323 168.017781 
L 107.696994 169.658577 
L 108.412665 166.154146 
L 109.128337 167.094344 
L 109.844008 166.610763 
L 110.559679 168.214609 
L 111.275351 169.455657 
L 111.991022 167.802036 
L 112.706693 169.436124 
L 113.422365 167.048257 
L 114.138036 165.891371 
L 114.853707 164.079443 
L 115.569379 165.57134 
L 116.28505 164.67327 
L 117.716393 167.184408 
L 118.432064 164.328739 
L 119.147735 165.041966 
L 119.863407 163.294712 
L 120.579078 162.049934 
L 122.010421 164.494372 
L 122.726092 165.141653 
L 123.441764 165.973243 
L 124.157435 166.269292 
L 124.873106 163.750745 
L 125.588778 162.537972 
L 126.304449 163.218212 
L 127.02012 163.491262 
L 127.735792 163.50104 
L 128.451463 164.679057 
L 129.167134 165.314893 
L 129.882806 165.562764 
L 130.598477 165.018182 
L 131.314148 165.035099 
L 132.02982 163.971478 
L 132.745491 165.194775 
L 133.461162 166.165512 
L 134.176834 166.121372 
L 134.892505 166.83946 
L 135.608176 164.391184 
L 136.323848 162.6281 
L 137.039519 163.596533 
L 137.75519 163.153621 
L 138.470862 164.310283 
L 139.186533 163.895098 
L 139.902204 161.667053 
L 140.617876 160.530103 
L 142.049218 162.718972 
L 142.76489 162.855261 
L 143.480561 160.780367 
L 144.196232 161.408966 
L 144.911904 162.461603 
L 145.627575 163.295359 
L 146.343246 161.644302 
L 147.774589 162.841328 
L 148.490261 161.854269 
L 149.921603 163.719228 
L 151.352946 164.100995 
L 152.068617 162.611952 
L 152.784289 163.353108 
L 153.49996 163.819336 
L 154.215631 164.786307 
L 154.931303 163.161562 
L 156.362645 164.97187 
L 157.078317 164.654015 
L 157.793988 164.92907 
L 158.509659 164.699436 
L 159.225331 164.908206 
L 159.941002 165.775025 
L 160.656673 166.178131 
L 161.372345 166.13721 
L 163.519359 168.46442 
L 164.23503 168.997621 
L 164.950701 168.845352 
L 165.666373 169.667077 
L 166.382044 169.755239 
L 167.097715 169.992173 
L 168.529058 171.516988 
L 169.244729 171.175484 
L 169.960401 170.343369 
L 170.676072 169.318127 
L 171.391743 169.567395 
L 172.107415 170.304899 
L 172.823086 169.329592 
L 173.538758 169.461879 
L 174.254429 169.8402 
L 176.401443 171.938049 
L 177.117114 172.017332 
L 177.832786 170.337375 
L 179.9798 172.394782 
L 181.411142 173.722347 
L 182.126814 172.585466 
L 182.842485 172.54046 
L 183.558156 173.034574 
L 184.273828 172.132616 
L 184.989499 172.619404 
L 185.70517 171.926757 
L 186.420842 171.902253 
L 187.136513 172.299327 
L 187.852184 171.609997 
L 188.567856 171.924775 
L 189.283527 172.579228 
L 189.999198 171.734253 
L 190.71487 171.100918 
L 192.146212 171.937482 
L 194.293226 173.779646 
L 195.008898 173.626952 
L 195.724569 172.945911 
L 196.44024 173.558259 
L 197.155912 173.06844 
L 197.871583 172.767143 
L 200.018597 174.463845 
L 200.734269 174.881149 
L 202.165611 174.252987 
L 202.881283 173.298584 
L 203.596954 173.241783 
L 204.312625 173.411267 
L 205.028297 172.441238 
L 205.743968 172.715472 
L 206.459639 172.799948 
L 207.175311 173.22014 
L 207.890982 172.073839 
L 209.322325 172.903817 
L 210.037996 171.96857 
L 210.753667 171.394645 
L 211.469339 171.968134 
L 212.900681 172.509174 
L 213.616353 171.402394 
L 214.332024 171.801556 
L 215.047695 172.35972 
L 215.763367 171.109336 
L 216.479038 171.452195 
L 217.194709 171.329372 
L 217.910381 170.317278 
L 218.626052 169.818499 
L 219.341723 169.520051 
L 220.057395 169.423405 
L 220.773066 169.799876 
L 221.488737 170.34614 
L 222.204409 170.457439 
L 223.635752 171.389879 
L 224.351423 170.446454 
L 225.067094 170.578964 
L 225.782766 169.512778 
L 226.498437 169.627123 
L 227.214108 168.913421 
L 227.92978 169.253947 
L 229.361122 168.098161 
L 230.076794 168.494573 
L 230.792465 168.612089 
L 231.508136 167.721403 
L 232.223808 167.932478 
L 232.939479 168.450995 
L 233.65515 168.578917 
L 235.086493 169.195286 
L 236.517836 169.265211 
L 237.949178 169.866054 
L 238.66485 170.356499 
L 239.380521 170.283544 
L 240.096192 169.599669 
L 242.958878 171.440326 
L 243.674549 171.458674 
L 244.39022 171.932063 
L 245.105892 171.761982 
L 245.821563 171.348014 
L 246.537234 171.534472 
L 247.252906 170.731886 
L 248.684248 171.395291 
L 250.115591 171.378191 
L 250.831263 171.010092 
L 251.546934 170.181588 
L 252.262605 170.039743 
L 252.978277 169.746541 
L 253.693948 169.983252 
L 254.409619 169.229556 
L 255.125291 169.671876 
L 255.840962 168.788164 
L 256.556633 168.561339 
L 257.272305 168.111448 
L 259.419319 169.105968 
L 260.13499 168.893293 
L 260.850661 169.310452 
L 261.566333 168.770441 
L 262.282004 167.82572 
L 263.713347 168.574925 
L 266.576032 169.821717 
L 267.291703 170.24865 
L 268.723046 170.277716 
L 269.438717 170.582892 
L 270.87006 169.176352 
L 272.301403 169.818982 
L 273.017074 169.788376 
L 273.732745 169.995012 
L 274.448417 169.723507 
L 276.595431 170.840534 
L 277.311102 170.95186 
L 278.742445 171.657669 
L 279.458116 171.118728 
L 280.173788 171.315992 
L 280.889459 171.388751 
L 281.60513 170.535697 
L 282.320802 170.376877 
L 283.036473 170.742751 
L 283.752144 170.888753 
L 285.183487 171.553128 
L 285.899158 171.928063 
L 286.61483 172.004745 
L 288.046172 172.761892 
L 289.477515 172.131414 
L 290.193186 172.491903 
L 290.908858 172.492261 
L 291.624529 171.970813 
L 292.3402 172.071746 
L 293.055872 171.818574 
L 293.771543 171.779543 
L 294.487214 171.215772 
L 295.202886 171.250243 
L 295.918557 170.693655 
L 297.3499 171.344126 
L 298.065571 171.305978 
L 298.781242 170.864992 
L 299.496914 170.939199 
L 300.212585 170.821145 
L 300.928257 171.184545 
L 301.643928 171.389195 
L 302.359599 171.745851 
L 303.790942 170.978029 
L 304.506613 171.202621 
L 305.222285 170.962056 
L 305.937956 170.193822 
L 307.369299 169.855725 
L 308.08497 169.151646 
L 309.516313 169.099399 
L 310.947655 169.750981 
L 311.663327 169.225027 
L 312.378998 169.044129 
L 313.094669 168.725291 
L 313.810341 168.767459 
L 315.241683 169.434048 
L 315.957355 169.654199 
L 316.673026 169.197773 
L 318.104369 169.010082 
L 318.82004 169.225318 
L 319.535711 169.563518 
L 320.251383 169.122181 
L 322.398397 169.718724 
L 323.114068 169.205882 
L 324.545411 169.535154 
L 325.976754 170.11254 
L 326.692425 170.278863 
L 327.408096 170.281213 
L 328.123768 169.687533 
L 329.55511 170.311732 
L 330.270782 169.619657 
L 331.702124 170.145538 
L 332.417796 170.456719 
L 333.133467 169.774804 
L 333.849138 169.670225 
L 334.56481 169.807464 
L 335.280481 169.551701 
L 335.996152 169.773212 
L 337.427495 168.463937 
L 338.143166 168.041182 
L 338.858838 167.98614 
L 340.29018 168.294462 
L 341.005852 167.781121 
L 341.721523 167.968141 
L 343.152866 168.514688 
L 343.868537 168.675781 
L 344.584208 168.217013 
L 345.29988 168.022312 
L 347.446894 167.057655 
L 348.162565 167.075705 
L 348.878236 167.346967 
L 349.593908 167.085923 
L 350.309579 167.355277 
L 351.025251 167.314039 
L 353.172265 167.940152 
L 355.319279 166.810367 
L 356.03495 166.972271 
L 356.750621 167.278898 
L 357.466293 167.256144 
L 358.181964 167.551746 
L 358.897635 167.398733 
L 359.613307 166.920052 
L 360.328978 167.057882 
L 361.760321 167.562179 
L 362.475992 167.214834 
L 363.191663 167.476548 
L 363.907335 167.097923 
L 366.054349 167.609869 
L 366.77002 167.46886 
L 368.917034 166.722675 
L 369.632705 166.608396 
L 370.348377 166.321315 
L 371.064048 166.310057 
L 371.779719 166.175569 
L 373.926733 166.970892 
L 374.642405 166.613013 
L 375.358076 166.787731 
L 376.073747 166.364232 
L 376.789419 166.10791 
L 377.50509 166.166699 
L 378.220762 166.338243 
L 378.936433 166.226249 
L 379.652104 166.477554 
L 380.367776 166.123461 
L 381.083447 166.181108 
L 381.799118 166.0506 
L 382.51479 166.260403 
L 383.230461 166.011381 
L 383.946132 165.964068 
L 384.661804 166.246634 
L 385.377475 166.255909 
L 386.093146 166.509296 
L 386.808818 165.936266 
L 387.524489 165.949772 
L 388.955832 166.317603 
L 389.671503 166.463884 
L 390.387174 166.732496 
L 391.102846 166.812762 
L 392.534188 165.989126 
L 393.24986 166.003466 
L 393.965531 165.623219 
L 395.396874 166.066611 
L 396.112545 166.186095 
L 396.828216 166.421646 
L 397.543888 166.437359 
L 401.122244 167.72689 
L 401.837916 167.50417 
L 403.98493 168.117673 
L 406.847615 169.031796 
L 407.563287 168.879025 
L 411.857315 169.752036 
L 413.288657 169.185409 
L 414.004329 169.099175 
L 414.72 169.266264 
L 414.72 169.266264 
" style="fill:none;stroke:#ff7f0e;stroke-linecap:square;stroke-width:1.5;"/>
   </g>
   <g id="line2d_13">
    <path clip-path="url(#p98d88d47e0)" d="M 57.6 295.488 
L 58.315671 288.113829 
L 59.031343 120.081055 
L 59.747014 92.25585 
L 60.462685 103.405597 
L 61.178357 131.322569 
L 61.894028 134.544463 
L 63.325371 167.246616 
L 64.041042 131.238667 
L 64.756713 128.921934 
L 65.472385 129.62651 
L 66.188056 140.35988 
L 66.903727 141.021694 
L 67.619399 151.281991 
L 68.33507 149.778992 
L 69.050741 151.233908 
L 69.766413 151.515052 
L 70.482084 145.059816 
L 71.197756 150.803817 
L 71.913427 153.689884 
L 72.629098 160.056781 
L 73.34477 164.284075 
L 74.060441 155.214883 
L 74.776112 149.467618 
L 75.491784 153.066143 
L 76.207455 152.738618 
L 76.923126 147.289739 
L 77.638798 151.617137 
L 78.354469 151.549428 
L 79.785812 160.250315 
L 80.501483 154.402302 
L 81.217154 152.344371 
L 81.932826 156.279064 
L 82.648497 156.20994 
L 83.364168 155.360439 
L 84.07984 157.910075 
L 84.795511 154.828575 
L 85.511182 158.152179 
L 86.226854 159.485302 
L 87.658196 165.059376 
L 89.089539 170.501302 
L 89.80521 169.346464 
L 90.520882 170.878199 
L 91.236553 165.932011 
L 91.952224 166.804326 
L 92.667896 166.833377 
L 93.383567 168.723706 
L 95.530581 175.693026 
L 96.246253 177.870242 
L 96.961924 174.804802 
L 97.677595 174.22422 
L 98.393267 170.3207 
L 99.824609 173.687672 
L 100.540281 170.207713 
L 101.255952 168.720094 
L 102.687295 172.272806 
L 103.402966 172.90076 
L 104.118637 171.915043 
L 104.834309 173.652307 
L 105.54998 173.540392 
L 106.265651 174.060544 
L 107.696994 176.107239 
L 108.412665 176.816651 
L 109.128337 175.116291 
L 109.844008 174.570127 
L 110.559679 176.142898 
L 111.275351 174.067272 
L 111.991022 174.198672 
L 112.706693 174.06018 
L 113.422365 175.417924 
L 114.138036 175.620115 
L 114.853707 172.781796 
L 115.569379 171.536478 
L 116.28505 170.757748 
L 117.000721 171.25546 
L 118.432064 173.972352 
L 119.147735 174.830703 
L 119.863407 172.919681 
L 120.579078 172.546151 
L 121.294749 172.724114 
L 122.010421 173.358266 
L 122.726092 172.060968 
L 123.441764 172.901297 
L 124.157435 173.378273 
L 124.873106 173.452981 
L 125.588778 174.511782 
L 126.304449 173.986116 
L 127.735792 175.444895 
L 128.451463 175.673533 
L 129.167134 176.812152 
L 129.882806 174.260486 
L 130.598477 175.346387 
L 131.314148 173.907666 
L 132.02982 173.730613 
L 132.745491 172.110167 
L 133.461162 169.99315 
L 134.176834 170.042226 
L 134.892505 169.636741 
L 135.608176 168.678491 
L 136.323848 169.43362 
L 137.039519 167.179778 
L 137.75519 168.301091 
L 138.470862 168.357929 
L 139.186533 169.376106 
L 139.902204 169.663776 
L 141.333547 171.616419 
L 142.049218 172.657152 
L 142.76489 172.309931 
L 143.480561 170.278295 
L 144.196232 171.286114 
L 144.911904 169.973636 
L 145.627575 169.000328 
L 146.343246 167.497803 
L 147.774589 169.275332 
L 149.205932 169.342236 
L 149.921603 169.569206 
L 150.637275 169.639379 
L 151.352946 170.011979 
L 152.068617 170.527715 
L 152.784289 170.600724 
L 154.215631 169.724195 
L 155.646974 171.335461 
L 156.362645 171.835142 
L 157.793988 173.352828 
L 158.509659 173.888639 
L 159.225331 172.150464 
L 160.656673 173.631076 
L 161.372345 173.428963 
L 162.088016 173.344512 
L 162.803687 173.999369 
L 163.519359 173.358205 
L 164.23503 173.734867 
L 165.666373 175.31848 
L 166.382044 174.722587 
L 167.097715 172.946568 
L 167.813387 173.564413 
L 168.529058 172.7114 
L 169.244729 172.797497 
L 169.960401 172.033721 
L 170.676072 172.025367 
L 171.391743 171.09242 
L 172.107415 171.806167 
L 172.823086 171.378894 
L 173.538758 172.136286 
L 174.254429 171.902511 
L 174.9701 172.335245 
L 176.401443 173.626136 
L 177.117114 171.984558 
L 178.548457 172.184269 
L 179.264128 171.800006 
L 180.695471 172.12313 
L 181.411142 171.390242 
L 182.126814 170.870353 
L 182.842485 169.984639 
L 183.558156 170.402779 
L 184.273828 170.24704 
L 184.989499 169.402635 
L 185.70517 169.712867 
L 187.136513 170.972137 
L 187.852184 169.413455 
L 189.999198 170.164643 
L 190.71487 170.02568 
L 191.430541 168.950833 
L 192.146212 169.367345 
L 193.577555 170.325812 
L 194.293226 170.806421 
L 195.008898 171.452011 
L 195.724569 170.188164 
L 196.44024 170.185188 
L 197.155912 169.232765 
L 197.871583 169.367177 
L 198.587255 169.976165 
L 199.302926 170.405794 
L 200.018597 170.3454 
L 200.734269 170.96467 
L 201.44994 170.778532 
L 202.881283 171.467572 
L 203.596954 171.280494 
L 204.312625 170.718307 
L 205.743968 168.163995 
L 206.459639 167.60757 
L 207.175311 166.268474 
L 207.890982 166.386646 
L 208.606653 165.074987 
L 209.322325 164.357041 
L 210.037996 164.657829 
L 210.753667 165.155501 
L 211.469339 165.269878 
L 212.18501 165.032441 
L 212.900681 165.411399 
L 213.616353 165.006593 
L 214.332024 164.30306 
L 215.047695 164.312242 
L 216.479038 162.428555 
L 217.194709 162.555778 
L 217.910381 163.144663 
L 218.626052 163.345445 
L 219.341723 163.82585 
L 220.057395 163.825958 
L 220.773066 164.388744 
L 221.488737 163.573724 
L 222.204409 163.675673 
L 222.92008 164.087136 
L 223.635752 164.099299 
L 224.351423 164.627275 
L 225.067094 164.531292 
L 225.782766 164.021934 
L 226.498437 164.213458 
L 227.214108 163.582564 
L 227.92978 163.771874 
L 228.645451 163.15244 
L 230.076794 164.036607 
L 230.792465 163.114833 
L 231.508136 163.323912 
L 232.223808 163.355831 
L 232.939479 163.761551 
L 233.65515 163.518264 
L 235.086493 164.439508 
L 235.802164 164.420388 
L 236.517836 164.917974 
L 237.233507 163.972273 
L 237.949178 163.862 
L 238.66485 163.393844 
L 239.380521 162.663697 
L 241.527535 163.954434 
L 242.243206 163.763755 
L 242.958878 163.850218 
L 243.674549 164.259129 
L 244.39022 164.175575 
L 245.105892 164.533215 
L 246.537234 165.458873 
L 247.252906 165.00382 
L 247.968577 164.904197 
L 248.684248 164.335406 
L 249.39992 164.69274 
L 250.115591 165.175795 
L 251.546934 163.624062 
L 253.693948 163.133703 
L 254.409619 163.603641 
L 255.125291 163.416237 
L 255.840962 163.588757 
L 257.272305 164.468608 
L 257.987976 163.662954 
L 259.419319 162.698128 
L 260.13499 162.71097 
L 262.282004 164.086883 
L 262.997675 163.568692 
L 264.429018 162.882359 
L 265.860361 163.225236 
L 266.576032 163.13063 
L 268.007375 161.832194 
L 270.154389 162.763898 
L 270.87006 161.999196 
L 271.585731 162.01434 
L 272.301403 161.739063 
L 274.448417 160.378699 
L 275.164088 160.742571 
L 275.87976 160.760395 
L 278.026774 161.896386 
L 278.742445 161.828846 
L 279.458116 162.257371 
L 280.173788 162.521566 
L 280.889459 162.266767 
L 281.60513 162.61198 
L 282.320802 161.900738 
L 283.036473 161.658649 
L 284.467816 162.300842 
L 285.183487 162.322983 
L 286.61483 162.940328 
L 287.330501 163.235572 
L 288.046172 162.545973 
L 288.761844 162.955919 
L 289.477515 163.090899 
L 290.193186 162.496125 
L 290.908858 162.798103 
L 291.624529 162.327582 
L 292.3402 162.07364 
L 293.055872 162.406764 
L 293.771543 161.835967 
L 294.487214 161.982816 
L 295.918557 162.717112 
L 296.634228 162.646386 
L 297.3499 162.844735 
L 298.065571 162.040951 
L 299.496914 162.527697 
L 300.212585 161.739667 
L 300.928257 161.81434 
L 301.643928 162.133484 
L 302.359599 161.582539 
L 303.075271 161.662871 
L 303.790942 161.515974 
L 305.222285 161.737202 
L 306.653627 162.338138 
L 307.369299 162.416021 
L 308.800641 162.93366 
L 309.516313 162.874031 
L 310.947655 163.33269 
L 311.663327 163.684382 
L 312.378998 163.53236 
L 313.094669 162.899123 
L 313.810341 162.763658 
L 314.526012 163.089414 
L 315.241683 163.088996 
L 316.673026 163.712248 
L 317.388697 163.845167 
L 319.535711 162.807503 
L 320.251383 163.038725 
L 320.967054 162.829997 
L 321.682725 163.118467 
L 322.398397 163.068912 
L 323.114068 162.77909 
L 323.829739 162.920161 
L 324.545411 162.90953 
L 325.261082 163.159566 
L 327.408096 162.795937 
L 328.839439 163.451562 
L 329.55511 163.470776 
L 330.986453 164.002845 
L 331.702124 163.382065 
L 333.133467 164.033882 
L 333.849138 164.050594 
L 334.56481 164.269766 
L 335.280481 164.116285 
L 336.711824 164.739827 
L 337.427495 164.543802 
L 338.143166 164.086488 
L 338.858838 164.108856 
L 341.005852 164.623135 
L 343.152866 165.307602 
L 343.868537 165.259793 
L 344.584208 165.569094 
L 345.29988 165.738756 
L 346.015551 165.196723 
L 346.731222 165.040126 
L 347.446894 164.443187 
L 348.162565 164.490053 
L 349.593908 165.073587 
L 350.309579 165.06034 
L 351.025251 164.757419 
L 353.172265 164.829215 
L 354.603607 165.431904 
L 355.319279 165.048081 
L 356.03495 165.059184 
L 356.750621 164.87255 
L 357.466293 165.132163 
L 358.897635 164.037187 
L 359.613307 164.256661 
L 360.328978 163.999583 
L 361.044649 163.622133 
L 361.760321 163.552746 
L 362.475992 163.699 
L 363.907335 162.881376 
L 364.623006 163.189303 
L 365.338677 163.005172 
L 366.054349 163.225727 
L 366.77002 162.968147 
L 368.201363 163.45089 
L 368.917034 163.340127 
L 369.632705 163.497056 
L 370.348377 163.246368 
L 371.064048 163.427196 
L 371.779719 163.722713 
L 372.495391 163.878806 
L 373.211062 163.469394 
L 373.926733 163.227197 
L 374.642405 163.516735 
L 375.358076 163.311673 
L 376.073747 163.357663 
L 376.789419 162.866633 
L 377.50509 162.238237 
L 378.220762 162.486849 
L 379.652104 162.6232 
L 380.367776 162.717055 
L 381.799118 163.269152 
L 382.51479 163.361893 
L 383.230461 163.632468 
L 383.946132 163.151705 
L 384.661804 163.115731 
L 386.808818 163.818289 
L 387.524489 163.349248 
L 388.955832 163.879748 
L 389.671503 163.678824 
L 390.387174 163.917018 
L 391.102846 163.718313 
L 392.534188 163.555454 
L 393.24986 163.044601 
L 395.396874 163.616634 
L 396.112545 163.683501 
L 396.828216 163.227289 
L 397.543888 163.485316 
L 398.259559 163.19369 
L 398.97523 162.746608 
L 400.406573 162.4587 
L 402.553587 162.959962 
L 403.269259 162.681424 
L 403.98493 162.082279 
L 404.700601 162.235462 
L 405.416273 161.641935 
L 406.131944 161.514733 
L 406.847615 161.768833 
L 407.563287 161.795 
L 409.710301 162.18883 
L 410.425972 162.214278 
L 413.288657 163.198878 
L 414.72 162.388751 
L 414.72 162.388751 
" style="fill:none;stroke:#2ca02c;stroke-linecap:square;stroke-width:1.5;"/>
   </g>
   <g id="line2d_14">
    <path clip-path="url(#p98d88d47e0)" d="M 57.6 295.488 
L 58.315671 294.308133 
L 59.031343 273.46381 
L 59.747014 256.847345 
L 60.462685 213.180454 
L 61.178357 180.647579 
L 61.894028 168.736537 
L 62.609699 183.419038 
L 63.325371 194.543794 
L 64.756713 193.492856 
L 65.472385 201.598417 
L 66.188056 204.812751 
L 66.903727 209.020579 
L 67.619399 210.08658 
L 68.33507 207.850588 
L 69.050741 207.491942 
L 69.766413 191.528577 
L 71.197756 201.821281 
L 71.913427 206.251503 
L 72.629098 203.787442 
L 73.34477 199.76931 
L 74.060441 201.303451 
L 74.776112 200.464316 
L 75.491784 180.389846 
L 76.207455 182.916679 
L 76.923126 184.45556 
L 77.638798 188.200039 
L 78.354469 185.753782 
L 79.07014 187.033513 
L 79.785812 187.792843 
L 80.501483 191.052947 
L 81.217154 192.129171 
L 81.932826 194.427787 
L 82.648497 197.177557 
L 83.364168 194.015961 
L 84.795511 198.802487 
L 85.511182 192.630115 
L 86.226854 195.101714 
L 86.942525 195.330372 
L 87.658196 192.153572 
L 89.089539 195.14742 
L 90.520882 187.145306 
L 92.667896 188.486303 
L 93.383567 187.029114 
L 94.099238 184.28943 
L 94.81491 184.005867 
L 95.530581 186.058136 
L 96.246253 185.144466 
L 96.961924 185.942434 
L 97.677595 181.559806 
L 98.393267 179.436964 
L 99.108938 181.220847 
L 99.824609 182.177801 
L 100.540281 183.850544 
L 101.255952 184.75082 
L 101.971623 186.079903 
L 102.687295 185.693797 
L 103.402966 186.645866 
L 104.118637 188.293152 
L 104.834309 186.153801 
L 105.54998 187.421184 
L 106.265651 185.494427 
L 106.981323 186.934426 
L 107.696994 184.888485 
L 108.412665 185.530918 
L 109.128337 186.73784 
L 109.844008 183.807178 
L 110.559679 178.121299 
L 111.991022 180.485858 
L 112.706693 178.890577 
L 113.422365 180.219819 
L 114.138036 180.754934 
L 114.853707 182.100968 
L 115.569379 180.771169 
L 116.28505 181.995346 
L 117.000721 182.89762 
L 117.716393 183.425914 
L 119.863407 171.99989 
L 120.579078 169.236385 
L 121.294749 167.56285 
L 122.010421 168.297702 
L 122.726092 165.174691 
L 123.441764 163.505466 
L 124.157435 164.833582 
L 124.873106 164.305054 
L 125.588778 164.114201 
L 126.304449 164.535892 
L 127.02012 163.086712 
L 127.735792 160.545172 
L 128.451463 160.494186 
L 129.167134 161.822597 
L 129.882806 160.94173 
L 130.598477 161.642843 
L 131.314148 162.674492 
L 132.745491 165.144686 
L 133.461162 165.707539 
L 134.176834 166.904309 
L 134.892505 166.452559 
L 135.608176 166.722056 
L 136.323848 167.485465 
L 137.039519 166.558241 
L 141.333547 171.743269 
L 142.049218 170.846817 
L 142.76489 171.735975 
L 143.480561 171.153626 
L 145.627575 173.599171 
L 146.343246 171.130662 
L 147.058918 170.034123 
L 148.490261 171.956307 
L 149.921603 173.343385 
L 150.637275 173.979883 
L 151.352946 171.599559 
L 152.068617 171.987659 
L 152.784289 172.573039 
L 153.49996 170.623659 
L 154.215631 169.859239 
L 154.931303 170.455505 
L 155.646974 170.319464 
L 156.362645 169.795763 
L 157.078317 170.272532 
L 158.509659 171.92744 
L 159.225331 172.589546 
L 159.941002 171.072138 
L 160.656673 170.357302 
L 162.088016 171.903707 
L 162.803687 172.119468 
L 163.519359 171.957946 
L 164.23503 172.486829 
L 164.950701 172.509611 
L 165.666373 172.689466 
L 166.382044 171.002595 
L 168.529058 173.228804 
L 170.676072 175.358454 
L 171.391743 175.236704 
L 172.107415 174.72304 
L 172.823086 175.437352 
L 173.538758 173.313978 
L 174.254429 174.024833 
L 174.9701 173.333745 
L 175.685772 174.061299 
L 176.401443 173.427299 
L 177.117114 173.608506 
L 178.548457 174.988475 
L 179.264128 175.426965 
L 179.9798 175.416437 
L 180.695471 174.806758 
L 181.411142 174.979882 
L 182.126814 174.106561 
L 182.842485 172.17697 
L 183.558156 171.702972 
L 184.273828 171.56942 
L 184.989499 171.826148 
L 185.70517 172.357044 
L 186.420842 172.233801 
L 187.136513 170.601158 
L 187.852184 170.058191 
L 188.567856 169.93253 
L 189.283527 168.599223 
L 189.999198 168.094896 
L 190.71487 168.409853 
L 191.430541 169.073546 
L 192.146212 168.417598 
L 192.861884 167.398725 
L 193.577555 167.399317 
L 194.293226 167.996299 
L 195.008898 167.969645 
L 195.724569 168.448897 
L 196.44024 167.481966 
L 197.155912 167.317017 
L 197.871583 167.966804 
L 199.302926 168.936599 
L 200.734269 170.192811 
L 201.44994 170.181687 
L 202.165611 169.248865 
L 202.881283 168.998288 
L 203.596954 168.951025 
L 204.312625 169.378987 
L 205.028297 168.925234 
L 205.743968 168.326559 
L 206.459639 168.534101 
L 207.175311 169.127579 
L 207.890982 169.484019 
L 208.606653 169.079117 
L 209.322325 169.67184 
L 210.037996 169.550816 
L 210.753667 169.892327 
L 211.469339 170.47145 
L 212.18501 170.829524 
L 212.900681 170.786618 
L 215.047695 172.064759 
L 215.763367 171.525967 
L 216.479038 171.717261 
L 217.194709 171.602305 
L 218.626052 171.903064 
L 219.341723 172.419884 
L 220.057395 172.514088 
L 221.488737 173.542331 
L 222.92008 173.981655 
L 223.635752 174.113295 
L 224.351423 173.385714 
L 225.067094 173.527938 
L 225.782766 173.368934 
L 226.498437 173.819896 
L 227.214108 173.305534 
L 227.92978 173.289841 
L 228.645451 173.129939 
L 229.361122 173.603626 
L 230.076794 173.89381 
L 230.792465 173.526374 
L 231.508136 173.992183 
L 232.223808 173.944347 
L 232.939479 174.37638 
L 233.65515 174.011114 
L 234.370822 174.488138 
L 235.086493 174.252763 
L 235.802164 173.486772 
L 236.517836 173.759385 
L 237.233507 173.841269 
L 237.949178 172.602924 
L 238.66485 173.018571 
L 239.380521 173.05415 
L 240.811864 173.802053 
L 241.527535 173.995058 
L 242.243206 174.428802 
L 242.958878 174.686619 
L 243.674549 174.804377 
L 244.39022 174.749434 
L 245.105892 175.184448 
L 245.821563 174.728198 
L 246.537234 173.538961 
L 247.252906 173.933099 
L 247.968577 173.87479 
L 248.684248 174.098683 
L 249.39992 174.472394 
L 250.115591 174.583222 
L 250.831263 174.910734 
L 251.546934 173.920854 
L 252.262605 174.362995 
L 252.978277 174.063548 
L 253.693948 174.166372 
L 254.409619 173.979135 
L 255.125291 174.140238 
L 255.840962 174.558834 
L 256.556633 174.160423 
L 257.272305 174.325015 
L 257.987976 174.156587 
L 258.703647 174.586819 
L 259.419319 173.823404 
L 260.13499 173.538026 
L 260.850661 172.920955 
L 261.566333 173.139914 
L 262.997675 173.768447 
L 263.713347 173.401276 
L 264.429018 172.800862 
L 265.860361 173.123715 
L 266.576032 173.125329 
L 267.291703 173.294866 
L 268.007375 172.243742 
L 270.87006 173.501006 
L 271.585731 173.351331 
L 272.301403 173.083922 
L 273.017074 173.025159 
L 274.448417 173.817091 
L 275.164088 173.213461 
L 275.87976 173.296744 
L 277.311102 173.854453 
L 278.026774 174.244233 
L 278.742445 174.449277 
L 280.173788 175.103763 
L 280.889459 174.752581 
L 281.60513 174.766351 
L 282.320802 175.146454 
L 283.036473 175.083918 
L 283.752144 175.432973 
L 285.899158 173.807221 
L 286.61483 173.744437 
L 287.330501 174.065615 
L 288.046172 174.142281 
L 289.477515 174.881262 
L 290.193186 174.086183 
L 293.055872 175.421752 
L 293.771543 174.513006 
L 294.487214 174.783709 
L 295.202886 174.11004 
L 295.918557 174.470434 
L 296.634228 174.332566 
L 297.3499 174.35094 
L 298.065571 174.628045 
L 298.781242 174.576446 
L 299.496914 174.753755 
L 301.643928 175.692951 
L 303.790942 174.380092 
L 304.506613 174.472842 
L 305.222285 174.685885 
L 305.937956 174.091123 
L 306.653627 174.438537 
L 307.369299 173.99182 
L 308.08497 173.880022 
L 309.516313 174.532476 
L 310.231984 174.253222 
L 310.947655 173.564623 
L 311.663327 173.311925 
L 312.378998 173.409385 
L 313.094669 173.068312 
L 313.810341 172.965714 
L 314.526012 172.405258 
L 315.957355 172.555266 
L 316.673026 172.855399 
L 317.388697 172.318856 
L 318.104369 172.480119 
L 318.82004 172.453113 
L 319.535711 172.751259 
L 320.967054 171.457973 
L 321.682725 171.3804 
L 322.398397 171.692853 
L 323.114068 170.92769 
L 323.829739 171.029359 
L 324.545411 170.511533 
L 326.692425 171.053249 
L 327.408096 170.524381 
L 328.839439 170.98504 
L 329.55511 171.031368 
L 332.417796 172.066354 
L 333.133467 171.337537 
L 333.849138 171.019223 
L 334.56481 170.415392 
L 335.280481 170.10829 
L 338.143166 170.597274 
L 338.858838 170.744466 
L 339.574509 170.247121 
L 340.29018 170.556506 
L 341.005852 170.545462 
L 342.437194 171.112265 
L 343.152866 170.967426 
L 343.868537 170.264204 
L 344.584208 170.039074 
L 346.731222 169.743339 
L 348.878236 170.260573 
L 349.593908 169.683478 
L 351.025251 170.190266 
L 351.740922 170.179643 
L 352.456593 170.039829 
L 353.172265 169.363564 
L 353.887936 169.353923 
L 354.603607 169.650671 
L 355.319279 169.359571 
L 356.750621 169.842427 
L 357.466293 169.374287 
L 358.897635 169.953915 
L 360.328978 170.138285 
L 361.044649 169.679841 
L 361.760321 169.958524 
L 362.475992 169.677032 
L 363.191663 169.66281 
L 365.338677 170.446731 
L 366.77002 170.591318 
L 368.917034 171.331839 
L 369.632705 170.979457 
L 370.348377 170.958108 
L 371.064048 171.1565 
L 371.779719 171.13696 
L 372.495391 170.786054 
L 373.211062 170.834711 
L 373.926733 171.114943 
L 374.642405 171.239618 
L 376.073747 171.618507 
L 377.50509 172.046731 
L 378.936433 172.309593 
L 380.367776 172.68563 
L 382.51479 172.674344 
L 383.230461 172.311299 
L 383.946132 172.563199 
L 384.661804 172.437022 
L 386.093146 172.916377 
L 387.524489 172.583151 
L 388.955832 173.04055 
L 391.102846 173.174694 
L 391.818517 172.826212 
L 393.24986 173.177023 
L 393.965531 173.359856 
L 394.681202 173.096528 
L 395.396874 173.349198 
L 396.828216 173.459517 
L 397.543888 173.261209 
L 398.97523 173.455581 
L 399.690902 173.038595 
L 400.406573 173.243957 
L 401.122244 172.660893 
L 402.553587 173.021695 
L 403.98493 172.934451 
L 405.416273 171.786021 
L 406.131944 171.526959 
L 406.847615 171.646638 
L 408.278958 170.776412 
L 408.994629 170.663646 
L 409.710301 170.776902 
L 410.425972 170.287751 
L 411.857315 170.268022 
L 412.572986 170.028889 
L 413.288657 169.960907 
L 414.72 170.431501 
L 414.72 170.431501 
" style="fill:none;stroke:#d62728;stroke-linecap:square;stroke-width:1.5;"/>
   </g>
   <g id="line2d_15">
    <path clip-path="url(#p98d88d47e0)" d="M 57.6 295.488 
L 58.315671 139.450544 
L 59.031343 191.397481 
L 59.747014 103.759557 
L 60.462685 126.814165 
L 61.178357 128.077934 
L 61.894028 150.96629 
L 62.609699 132.979709 
L 63.325371 111.690887 
L 64.041042 127.050138 
L 64.756713 137.307768 
L 66.188056 161.011049 
L 66.903727 164.059206 
L 67.619399 161.350193 
L 68.33507 168.804353 
L 69.050741 170.283254 
L 69.766413 177.239073 
L 70.482084 182.521421 
L 71.197756 175.911394 
L 71.913427 181.605385 
L 72.629098 182.591272 
L 73.34477 178.375572 
L 74.776112 187.287557 
L 75.491784 190.409992 
L 76.207455 176.284173 
L 76.923126 180.366658 
L 77.638798 180.408145 
L 78.354469 178.450403 
L 79.07014 181.65597 
L 79.785812 178.404602 
L 80.501483 174.536971 
L 81.217154 177.983011 
L 81.932826 173.201733 
L 82.648497 169.726523 
L 83.364168 171.902713 
L 84.795511 178.204066 
L 85.511182 177.047754 
L 86.226854 179.925574 
L 86.942525 179.716527 
L 87.658196 180.306402 
L 88.373868 180.117573 
L 89.089539 181.46562 
L 91.236553 188.236829 
L 91.952224 188.240466 
L 92.667896 184.880628 
L 93.383567 186.265217 
L 94.099238 186.243803 
L 94.81491 180.767427 
L 95.530581 181.241154 
L 96.246253 183.315184 
L 96.961924 182.023589 
L 97.677595 182.220009 
L 98.393267 176.357524 
L 99.108938 176.933194 
L 99.824609 178.780766 
L 100.540281 179.330203 
L 101.255952 180.601333 
L 101.971623 179.02567 
L 103.402966 182.311215 
L 104.118637 182.001609 
L 104.834309 181.425396 
L 105.54998 181.134002 
L 106.265651 179.21221 
L 106.981323 178.993196 
L 107.696994 179.446256 
L 108.412665 180.847865 
L 109.844008 176.545478 
L 110.559679 176.262457 
L 111.275351 174.304021 
L 111.991022 171.493474 
L 114.138036 175.935176 
L 114.853707 175.049458 
L 115.569379 172.088335 
L 116.28505 172.008691 
L 117.000721 173.476072 
L 117.716393 170.180373 
L 119.147735 172.709467 
L 119.863407 170.851257 
L 120.579078 172.168998 
L 121.294749 173.144642 
L 122.010421 169.076776 
L 122.726092 168.525826 
L 123.441764 169.831105 
L 124.873106 171.690958 
L 125.588778 171.774505 
L 127.02012 173.84606 
L 127.735792 173.152333 
L 128.451463 174.039653 
L 129.167134 173.661521 
L 129.882806 172.077664 
L 130.598477 172.808043 
L 132.02982 174.580117 
L 132.745491 173.667117 
L 133.461162 174.582565 
L 134.176834 173.736291 
L 134.892505 173.398096 
L 135.608176 173.557096 
L 136.323848 174.351505 
L 137.75519 174.951555 
L 139.186533 176.922796 
L 139.902204 176.624432 
L 140.617876 177.197529 
L 141.333547 178.007904 
L 143.480561 180.80902 
L 144.196232 181.44071 
L 144.911904 181.660476 
L 145.627575 181.116144 
L 146.343246 181.965204 
L 147.058918 179.012293 
L 147.774589 179.766342 
L 148.490261 179.957858 
L 149.921603 181.661869 
L 151.352946 182.509269 
L 152.068617 182.430975 
L 152.784289 181.84015 
L 153.49996 179.782019 
L 154.215631 180.061047 
L 154.931303 180.60479 
L 155.646974 178.946238 
L 156.362645 178.131229 
L 157.793988 176.030185 
L 158.509659 176.565224 
L 159.225331 175.312317 
L 159.941002 175.464037 
L 160.656673 173.404362 
L 161.372345 174.215338 
L 162.088016 172.937954 
L 163.519359 174.459471 
L 164.23503 173.912948 
L 164.950701 172.988678 
L 165.666373 171.061071 
L 166.382044 169.736691 
L 167.097715 167.630697 
L 167.813387 168.132849 
L 168.529058 168.796399 
L 169.244729 166.769542 
L 169.960401 167.583272 
L 170.676072 167.014676 
L 171.391743 165.325772 
L 172.823086 162.614544 
L 173.538758 162.412872 
L 174.254429 162.745379 
L 176.401443 159.663266 
L 177.117114 160.389845 
L 178.548457 161.227098 
L 179.9798 160.73091 
L 180.695471 159.948526 
L 182.842485 162.189539 
L 183.558156 161.835155 
L 184.989499 158.549594 
L 186.420842 159.142572 
L 187.136513 159.561184 
L 187.852184 160.281312 
L 188.567856 159.410152 
L 189.283527 159.198895 
L 189.999198 158.140576 
L 192.146212 159.998298 
L 192.861884 160.707766 
L 193.577555 159.587696 
L 194.293226 158.701739 
L 195.008898 159.186952 
L 195.724569 159.280723 
L 196.44024 159.248121 
L 197.155912 159.652762 
L 197.871583 159.494403 
L 198.587255 158.441099 
L 199.302926 158.286717 
L 200.018597 157.255214 
L 200.734269 157.942937 
L 201.44994 157.638614 
L 202.165611 156.220019 
L 202.881283 156.902692 
L 203.596954 156.298467 
L 205.028297 157.557876 
L 205.743968 157.672191 
L 207.890982 159.491096 
L 208.606653 158.751288 
L 210.037996 159.483272 
L 210.753667 159.489279 
L 211.469339 159.000923 
L 212.18501 158.196683 
L 212.900681 157.888019 
L 213.616353 157.28743 
L 214.332024 157.374411 
L 215.047695 157.740632 
L 215.763367 157.592333 
L 216.479038 157.025588 
L 217.194709 157.016966 
L 217.910381 156.626062 
L 218.626052 156.591099 
L 219.341723 156.311096 
L 220.057395 156.796323 
L 220.773066 156.547275 
L 222.92008 154.419585 
L 224.351423 154.711851 
L 225.067094 155.306599 
L 225.782766 155.661963 
L 227.214108 156.813136 
L 227.92978 156.985442 
L 228.645451 157.436638 
L 229.361122 157.047049 
L 230.076794 157.132779 
L 230.792465 155.962617 
L 231.508136 155.853764 
L 232.223808 156.199299 
L 232.939479 156.681743 
L 233.65515 156.460682 
L 234.370822 156.470913 
L 235.086493 156.843911 
L 235.802164 156.694145 
L 236.517836 157.231804 
L 237.233507 157.53874 
L 237.949178 156.768381 
L 238.66485 156.164898 
L 239.380521 155.896112 
L 240.096192 156.129151 
L 240.811864 155.923889 
L 241.527535 155.403391 
L 242.243206 154.664313 
L 244.39022 156.20982 
L 245.105892 155.636406 
L 245.821563 155.776935 
L 246.537234 156.243895 
L 247.968577 156.4374 
L 248.684248 156.495014 
L 250.115591 156.892447 
L 250.831263 157.285741 
L 251.546934 156.659728 
L 252.262605 156.882962 
L 253.693948 156.361538 
L 254.409619 156.504534 
L 255.125291 155.943288 
L 255.840962 156.401099 
L 256.556633 155.923582 
L 257.272305 156.416329 
L 257.987976 156.419682 
L 258.703647 156.560015 
L 259.419319 156.009439 
L 260.13499 156.498059 
L 260.850661 155.95919 
L 261.566333 156.355494 
L 262.997675 156.283241 
L 263.713347 156.054015 
L 264.429018 156.521288 
L 265.860361 156.495022 
L 267.291703 157.316083 
L 268.007375 157.369428 
L 268.723046 157.804217 
L 269.438717 157.773007 
L 270.154389 157.24274 
L 270.87006 156.458263 
L 271.585731 156.909749 
L 273.732745 155.223853 
L 274.448417 155.041413 
L 275.164088 154.617915 
L 275.87976 155.06428 
L 276.595431 154.294024 
L 277.311102 154.216845 
L 278.742445 152.796378 
L 280.889459 154.011971 
L 281.60513 153.272545 
L 282.320802 153.712358 
L 283.036473 153.40649 
L 283.752144 153.789465 
L 284.467816 154.008868 
L 285.183487 154.09859 
L 285.899158 153.380456 
L 286.61483 153.32077 
L 287.330501 153.736186 
L 288.046172 153.857687 
L 288.761844 153.40072 
L 290.193186 154.035932 
L 290.908858 153.352941 
L 294.487214 155.034343 
L 295.202886 155.06241 
L 295.918557 155.461281 
L 296.634228 154.673185 
L 298.065571 155.255215 
L 298.781242 155.288232 
L 299.496914 155.509518 
L 300.212585 155.848699 
L 300.928257 155.951075 
L 301.643928 155.316725 
L 302.359599 155.336861 
L 303.075271 155.735387 
L 303.790942 155.839645 
L 304.506613 155.096441 
L 305.222285 155.037879 
L 305.937956 155.377623 
L 307.369299 155.746014 
L 308.08497 155.995083 
L 308.800641 155.768649 
L 309.516313 155.917332 
L 310.231984 155.504191 
L 310.947655 155.890627 
L 311.663327 155.266218 
L 312.378998 155.223992 
L 313.094669 155.61482 
L 314.526012 156.022764 
L 315.957355 156.256802 
L 316.673026 156.599896 
L 317.388697 156.688285 
L 318.82004 156.099114 
L 320.251383 156.580367 
L 320.967054 156.773256 
L 321.682725 156.722707 
L 323.114068 156.952123 
L 323.829739 156.747442 
L 324.545411 156.360286 
L 325.261082 155.768248 
L 325.976754 155.855729 
L 326.692425 156.20664 
L 327.408096 156.008529 
L 328.123768 156.356439 
L 328.839439 156.44534 
L 329.55511 156.802734 
L 330.986453 157.170571 
L 331.702124 156.888186 
L 333.849138 157.482304 
L 334.56481 157.366715 
L 336.711824 158.271221 
L 337.427495 158.620755 
L 338.143166 158.144899 
L 338.858838 158.401576 
L 339.574509 157.832732 
L 340.29018 158.17376 
L 341.005852 157.714044 
L 341.721523 157.525804 
L 342.437194 157.814221 
L 343.152866 157.827715 
L 343.868537 158.002597 
L 346.015551 158.89442 
L 346.731222 158.334897 
L 348.878236 159.242814 
L 349.593908 159.25733 
L 350.309579 158.607491 
L 351.025251 158.817717 
L 351.740922 158.700717 
L 352.456593 158.717573 
L 353.172265 158.528026 
L 354.603607 158.669013 
L 355.319279 158.743147 
L 356.03495 158.632916 
L 356.750621 158.290452 
L 358.181964 157.909853 
L 358.897635 157.285281 
L 359.613307 157.451994 
L 360.328978 157.104976 
L 361.760321 157.614641 
L 362.475992 157.090801 
L 363.191663 156.837131 
L 363.907335 156.910128 
L 365.338677 157.422237 
L 366.054349 157.312829 
L 366.77002 156.699645 
L 367.485691 156.773395 
L 368.201363 156.669295 
L 368.917034 156.905227 
L 369.632705 156.657064 
L 370.348377 156.557237 
L 371.064048 156.87282 
L 371.779719 156.53893 
L 372.495391 156.662894 
L 373.211062 156.15593 
L 373.926733 156.117908 
L 375.358076 156.442673 
L 376.073747 156.737383 
L 376.789419 156.755444 
L 378.936433 157.484534 
L 380.367776 157.57171 
L 381.799118 157.434728 
L 382.51479 157.400008 
L 383.946132 156.860691 
L 385.377475 156.383701 
L 386.808818 156.968062 
L 387.524489 156.978813 
L 388.24016 157.260411 
L 389.671503 157.628289 
L 390.387174 157.158644 
L 391.102846 156.915183 
L 392.534188 156.832021 
L 393.24986 157.077431 
L 393.965531 156.521272 
L 395.396874 157.094126 
L 396.112545 157.106758 
L 396.828216 157.397654 
L 398.97523 157.368743 
L 399.690902 156.991955 
L 401.122244 157.477061 
L 401.837916 157.323322 
L 402.553587 157.608998 
L 403.269259 157.631086 
L 403.98493 157.264608 
L 404.700601 157.367248 
L 405.416273 157.080744 
L 406.847615 157.552177 
L 407.563287 157.339436 
L 408.278958 156.902056 
L 408.994629 157.105349 
L 409.710301 156.636824 
L 411.141643 157.179744 
L 411.857315 156.97101 
L 412.572986 157.143439 
L 413.288657 157.16962 
L 414.004329 157.429547 
L 414.72 157.26369 
L 414.72 157.26369 
" style="fill:none;stroke:#9467bd;stroke-linecap:square;stroke-width:1.5;"/>
   </g>
   <g id="line2d_16">
    <path clip-path="url(#p98d88d47e0)" d="M 57.6 168.160649 
L 414.72 168.160649 
L 414.72 168.160649 
" style="fill:none;stroke:#8c564b;stroke-linecap:square;stroke-width:1.5;"/>
   </g>
   <g id="patch_3">
    <path d="M 57.6 307.584 
L 57.6 41.472 
" style="fill:none;stroke:#000000;stroke-linecap:square;stroke-linejoin:miter;stroke-width:0.8;"/>
   </g>
   <g id="patch_4">
    <path d="M 414.72 307.584 
L 414.72 41.472 
" style="fill:none;stroke:#000000;stroke-linecap:square;stroke-linejoin:miter;stroke-width:0.8;"/>
   </g>
   <g id="patch_5">
    <path d="M 57.6 307.584 
L 414.72 307.584 
" style="fill:none;stroke:#000000;stroke-linecap:square;stroke-linejoin:miter;stroke-width:0.8;"/>
   </g>
   <g id="patch_6">
    <path d="M 57.6 41.472 
L 414.72 41.472 
" style="fill:none;stroke:#000000;stroke-linecap:square;stroke-linejoin:miter;stroke-width:0.8;"/>
   </g>
   <g id="text_13">
    <!-- Grafico valores varianza esperados vs valores varianza obtenidos -->
    <defs>
     <path d="M 59.515625 10.40625 
L 59.515625 29.984375 
L 43.40625 29.984375 
L 43.40625 38.09375 
L 69.28125 38.09375 
L 69.28125 6.78125 
Q 63.578125 2.734375 56.6875 0.65625 
Q 49.8125 -1.421875 42 -1.421875 
Q 24.90625 -1.421875 15.25 8.5625 
Q 5.609375 18.5625 5.609375 36.375 
Q 5.609375 54.25 15.25 64.234375 
Q 24.90625 74.21875 42 74.21875 
Q 49.125 74.21875 55.546875 72.453125 
Q 61.96875 70.703125 67.390625 67.28125 
L 67.390625 56.78125 
Q 61.921875 61.421875 55.765625 63.765625 
Q 49.609375 66.109375 42.828125 66.109375 
Q 29.4375 66.109375 22.71875 58.640625 
Q 16.015625 51.171875 16.015625 36.375 
Q 16.015625 21.625 22.71875 14.15625 
Q 29.4375 6.6875 42.828125 6.6875 
Q 48.046875 6.6875 52.140625 7.59375 
Q 56.25 8.5 59.515625 10.40625 
z
" id="DejaVuSans-47"/>
     <path d="M 37.109375 75.984375 
L 37.109375 68.5 
L 28.515625 68.5 
Q 23.6875 68.5 21.796875 66.546875 
Q 19.921875 64.59375 19.921875 59.515625 
L 19.921875 54.6875 
L 34.71875 54.6875 
L 34.71875 47.703125 
L 19.921875 47.703125 
L 19.921875 0 
L 10.890625 0 
L 10.890625 47.703125 
L 2.296875 47.703125 
L 2.296875 54.6875 
L 10.890625 54.6875 
L 10.890625 58.5 
Q 10.890625 67.625 15.140625 71.796875 
Q 19.390625 75.984375 28.609375 75.984375 
z
" id="DejaVuSans-66"/>
     <path d="M 48.78125 52.59375 
L 48.78125 44.1875 
Q 44.96875 46.296875 41.140625 47.34375 
Q 37.3125 48.390625 33.40625 48.390625 
Q 24.65625 48.390625 19.8125 42.84375 
Q 14.984375 37.3125 14.984375 27.296875 
Q 14.984375 17.28125 19.8125 11.734375 
Q 24.65625 6.203125 33.40625 6.203125 
Q 37.3125 6.203125 41.140625 7.25 
Q 44.96875 8.296875 48.78125 10.40625 
L 48.78125 2.09375 
Q 45.015625 0.34375 40.984375 -0.53125 
Q 36.96875 -1.421875 32.421875 -1.421875 
Q 20.0625 -1.421875 12.78125 6.34375 
Q 5.515625 14.109375 5.515625 27.296875 
Q 5.515625 40.671875 12.859375 48.328125 
Q 20.21875 56 33.015625 56 
Q 37.15625 56 41.109375 55.140625 
Q 45.0625 54.296875 48.78125 52.59375 
z
" id="DejaVuSans-63"/>
     <path d="M 18.109375 8.203125 
L 18.109375 -20.796875 
L 9.078125 -20.796875 
L 9.078125 54.6875 
L 18.109375 54.6875 
L 18.109375 46.390625 
Q 20.953125 51.265625 25.265625 53.625 
Q 29.59375 56 35.59375 56 
Q 45.5625 56 51.78125 48.09375 
Q 58.015625 40.1875 58.015625 27.296875 
Q 58.015625 14.40625 51.78125 6.484375 
Q 45.5625 -1.421875 35.59375 -1.421875 
Q 29.59375 -1.421875 25.265625 0.953125 
Q 20.953125 3.328125 18.109375 8.203125 
z
M 48.6875 27.296875 
Q 48.6875 37.203125 44.609375 42.84375 
Q 40.53125 48.484375 33.40625 48.484375 
Q 26.265625 48.484375 22.1875 42.84375 
Q 18.109375 37.203125 18.109375 27.296875 
Q 18.109375 17.390625 22.1875 11.75 
Q 26.265625 6.109375 33.40625 6.109375 
Q 40.53125 6.109375 44.609375 11.75 
Q 48.6875 17.390625 48.6875 27.296875 
z
" id="DejaVuSans-70"/>
     <path d="M 48.6875 27.296875 
Q 48.6875 37.203125 44.609375 42.84375 
Q 40.53125 48.484375 33.40625 48.484375 
Q 26.265625 48.484375 22.1875 42.84375 
Q 18.109375 37.203125 18.109375 27.296875 
Q 18.109375 17.390625 22.1875 11.75 
Q 26.265625 6.109375 33.40625 6.109375 
Q 40.53125 6.109375 44.609375 11.75 
Q 48.6875 17.390625 48.6875 27.296875 
z
M 18.109375 46.390625 
Q 20.953125 51.265625 25.265625 53.625 
Q 29.59375 56 35.59375 56 
Q 45.5625 56 51.78125 48.09375 
Q 58.015625 40.1875 58.015625 27.296875 
Q 58.015625 14.40625 51.78125 6.484375 
Q 45.5625 -1.421875 35.59375 -1.421875 
Q 29.59375 -1.421875 25.265625 0.953125 
Q 20.953125 3.328125 18.109375 8.203125 
L 18.109375 0 
L 9.078125 0 
L 9.078125 75.984375 
L 18.109375 75.984375 
z
" id="DejaVuSans-62"/>
     <path d="M 18.3125 70.21875 
L 18.3125 54.6875 
L 36.8125 54.6875 
L 36.8125 47.703125 
L 18.3125 47.703125 
L 18.3125 18.015625 
Q 18.3125 11.328125 20.140625 9.421875 
Q 21.96875 7.515625 27.59375 7.515625 
L 36.8125 7.515625 
L 36.8125 0 
L 27.59375 0 
Q 17.1875 0 13.234375 3.875 
Q 9.28125 7.765625 9.28125 18.015625 
L 9.28125 47.703125 
L 2.6875 47.703125 
L 2.6875 54.6875 
L 9.28125 54.6875 
L 9.28125 70.21875 
z
" id="DejaVuSans-74"/>
    </defs>
    <g transform="translate(38.895 35.472)scale(0.12 -0.12)">
     <use xlink:href="#DejaVuSans-47"/>
     <use x="77.490234" xlink:href="#DejaVuSans-72"/>
     <use x="118.603516" xlink:href="#DejaVuSans-61"/>
     <use x="179.882812" xlink:href="#DejaVuSans-66"/>
     <use x="215.087891" xlink:href="#DejaVuSans-69"/>
     <use x="242.871094" xlink:href="#DejaVuSans-63"/>
     <use x="297.851562" xlink:href="#DejaVuSans-6f"/>
     <use x="359.033203" xlink:href="#DejaVuSans-20"/>
     <use x="390.820312" xlink:href="#DejaVuSans-76"/>
     <use x="450" xlink:href="#DejaVuSans-61"/>
     <use x="511.279297" xlink:href="#DejaVuSans-6c"/>
     <use x="539.0625" xlink:href="#DejaVuSans-6f"/>
     <use x="600.244141" xlink:href="#DejaVuSans-72"/>
     <use x="641.326172" xlink:href="#DejaVuSans-65"/>
     <use x="702.849609" xlink:href="#DejaVuSans-73"/>
     <use x="754.949219" xlink:href="#DejaVuSans-20"/>
     <use x="786.736328" xlink:href="#DejaVuSans-76"/>
     <use x="845.916016" xlink:href="#DejaVuSans-61"/>
     <use x="907.195312" xlink:href="#DejaVuSans-72"/>
     <use x="948.308594" xlink:href="#DejaVuSans-69"/>
     <use x="976.091797" xlink:href="#DejaVuSans-61"/>
     <use x="1037.371094" xlink:href="#DejaVuSans-6e"/>
     <use x="1100.75" xlink:href="#DejaVuSans-7a"/>
     <use x="1153.240234" xlink:href="#DejaVuSans-61"/>
     <use x="1214.519531" xlink:href="#DejaVuSans-20"/>
     <use x="1246.306641" xlink:href="#DejaVuSans-65"/>
     <use x="1307.830078" xlink:href="#DejaVuSans-73"/>
     <use x="1359.929688" xlink:href="#DejaVuSans-70"/>
     <use x="1423.40625" xlink:href="#DejaVuSans-65"/>
     <use x="1484.929688" xlink:href="#DejaVuSans-72"/>
     <use x="1526.042969" xlink:href="#DejaVuSans-61"/>
     <use x="1587.322266" xlink:href="#DejaVuSans-64"/>
     <use x="1650.798828" xlink:href="#DejaVuSans-6f"/>
     <use x="1711.980469" xlink:href="#DejaVuSans-73"/>
     <use x="1764.080078" xlink:href="#DejaVuSans-20"/>
     <use x="1795.867188" xlink:href="#DejaVuSans-76"/>
     <use x="1855.046875" xlink:href="#DejaVuSans-73"/>
     <use x="1907.146484" xlink:href="#DejaVuSans-20"/>
     <use x="1938.933594" xlink:href="#DejaVuSans-76"/>
     <use x="1998.113281" xlink:href="#DejaVuSans-61"/>
     <use x="2059.392578" xlink:href="#DejaVuSans-6c"/>
     <use x="2087.175781" xlink:href="#DejaVuSans-6f"/>
     <use x="2148.357422" xlink:href="#DejaVuSans-72"/>
     <use x="2189.439453" xlink:href="#DejaVuSans-65"/>
     <use x="2250.962891" xlink:href="#DejaVuSans-73"/>
     <use x="2303.0625" xlink:href="#DejaVuSans-20"/>
     <use x="2334.849609" xlink:href="#DejaVuSans-76"/>
     <use x="2394.029297" xlink:href="#DejaVuSans-61"/>
     <use x="2455.308594" xlink:href="#DejaVuSans-72"/>
     <use x="2496.421875" xlink:href="#DejaVuSans-69"/>
     <use x="2524.205078" xlink:href="#DejaVuSans-61"/>
     <use x="2585.484375" xlink:href="#DejaVuSans-6e"/>
     <use x="2648.863281" xlink:href="#DejaVuSans-7a"/>
     <use x="2701.353516" xlink:href="#DejaVuSans-61"/>
     <use x="2762.632812" xlink:href="#DejaVuSans-20"/>
     <use x="2794.419922" xlink:href="#DejaVuSans-6f"/>
     <use x="2855.601562" xlink:href="#DejaVuSans-62"/>
     <use x="2919.078125" xlink:href="#DejaVuSans-74"/>
     <use x="2958.287109" xlink:href="#DejaVuSans-65"/>
     <use x="3019.810547" xlink:href="#DejaVuSans-6e"/>
     <use x="3083.189453" xlink:href="#DejaVuSans-69"/>
     <use x="3110.972656" xlink:href="#DejaVuSans-64"/>
     <use x="3174.449219" xlink:href="#DejaVuSans-6f"/>
     <use x="3235.630859" xlink:href="#DejaVuSans-73"/>
    </g>
   </g>
   <g id="legend_1">
    <g id="patch_7">
     <path d="M 246.955938 137.54075 
L 407.72 137.54075 
Q 409.72 137.54075 409.72 135.54075 
L 409.72 48.472 
Q 409.72 46.472 407.72 46.472 
L 246.955938 46.472 
Q 244.955938 46.472 244.955938 48.472 
L 244.955938 135.54075 
Q 244.955938 137.54075 246.955938 137.54075 
z
" style="fill:#ffffff;opacity:0.8;stroke:#cccccc;stroke-linejoin:miter;"/>
    </g>
    <g id="line2d_17">
     <path d="M 248.955938 54.570438 
L 268.955938 54.570438 
" style="fill:none;stroke:#1f77b4;stroke-linecap:square;stroke-width:1.5;"/>
    </g>
    <g id="line2d_18"/>
    <g id="text_14">
     <!-- Valor varianza 1 obtenido -->
     <g transform="translate(276.955938 58.070438)scale(0.1 -0.1)">
      <use xlink:href="#DejaVuSans-56"/>
      <use x="68.298828" xlink:href="#DejaVuSans-61"/>
      <use x="129.578125" xlink:href="#DejaVuSans-6c"/>
      <use x="157.361328" xlink:href="#DejaVuSans-6f"/>
      <use x="218.542969" xlink:href="#DejaVuSans-72"/>
      <use x="259.65625" xlink:href="#DejaVuSans-20"/>
      <use x="291.443359" xlink:href="#DejaVuSans-76"/>
      <use x="350.623047" xlink:href="#DejaVuSans-61"/>
      <use x="411.902344" xlink:href="#DejaVuSans-72"/>
      <use x="453.015625" xlink:href="#DejaVuSans-69"/>
      <use x="480.798828" xlink:href="#DejaVuSans-61"/>
      <use x="542.078125" xlink:href="#DejaVuSans-6e"/>
      <use x="605.457031" xlink:href="#DejaVuSans-7a"/>
      <use x="657.947266" xlink:href="#DejaVuSans-61"/>
      <use x="719.226562" xlink:href="#DejaVuSans-20"/>
      <use x="751.013672" xlink:href="#DejaVuSans-31"/>
      <use x="814.636719" xlink:href="#DejaVuSans-20"/>
      <use x="846.423828" xlink:href="#DejaVuSans-6f"/>
      <use x="907.605469" xlink:href="#DejaVuSans-62"/>
      <use x="971.082031" xlink:href="#DejaVuSans-74"/>
      <use x="1010.291016" xlink:href="#DejaVuSans-65"/>
      <use x="1071.814453" xlink:href="#DejaVuSans-6e"/>
      <use x="1135.193359" xlink:href="#DejaVuSans-69"/>
      <use x="1162.976562" xlink:href="#DejaVuSans-64"/>
      <use x="1226.453125" xlink:href="#DejaVuSans-6f"/>
     </g>
    </g>
    <g id="line2d_19">
     <path d="M 248.955938 69.248563 
L 268.955938 69.248563 
" style="fill:none;stroke:#ff7f0e;stroke-linecap:square;stroke-width:1.5;"/>
    </g>
    <g id="line2d_20"/>
    <g id="text_15">
     <!-- Valor varianza 2 obtenido -->
     <g transform="translate(276.955938 72.748563)scale(0.1 -0.1)">
      <use xlink:href="#DejaVuSans-56"/>
      <use x="68.298828" xlink:href="#DejaVuSans-61"/>
      <use x="129.578125" xlink:href="#DejaVuSans-6c"/>
      <use x="157.361328" xlink:href="#DejaVuSans-6f"/>
      <use x="218.542969" xlink:href="#DejaVuSans-72"/>
      <use x="259.65625" xlink:href="#DejaVuSans-20"/>
      <use x="291.443359" xlink:href="#DejaVuSans-76"/>
      <use x="350.623047" xlink:href="#DejaVuSans-61"/>
      <use x="411.902344" xlink:href="#DejaVuSans-72"/>
      <use x="453.015625" xlink:href="#DejaVuSans-69"/>
      <use x="480.798828" xlink:href="#DejaVuSans-61"/>
      <use x="542.078125" xlink:href="#DejaVuSans-6e"/>
      <use x="605.457031" xlink:href="#DejaVuSans-7a"/>
      <use x="657.947266" xlink:href="#DejaVuSans-61"/>
      <use x="719.226562" xlink:href="#DejaVuSans-20"/>
      <use x="751.013672" xlink:href="#DejaVuSans-32"/>
      <use x="814.636719" xlink:href="#DejaVuSans-20"/>
      <use x="846.423828" xlink:href="#DejaVuSans-6f"/>
      <use x="907.605469" xlink:href="#DejaVuSans-62"/>
      <use x="971.082031" xlink:href="#DejaVuSans-74"/>
      <use x="1010.291016" xlink:href="#DejaVuSans-65"/>
      <use x="1071.814453" xlink:href="#DejaVuSans-6e"/>
      <use x="1135.193359" xlink:href="#DejaVuSans-69"/>
      <use x="1162.976562" xlink:href="#DejaVuSans-64"/>
      <use x="1226.453125" xlink:href="#DejaVuSans-6f"/>
     </g>
    </g>
    <g id="line2d_21">
     <path d="M 248.955938 83.926688 
L 268.955938 83.926688 
" style="fill:none;stroke:#2ca02c;stroke-linecap:square;stroke-width:1.5;"/>
    </g>
    <g id="line2d_22"/>
    <g id="text_16">
     <!-- Valor varianza 3 obtenido -->
     <g transform="translate(276.955938 87.426688)scale(0.1 -0.1)">
      <use xlink:href="#DejaVuSans-56"/>
      <use x="68.298828" xlink:href="#DejaVuSans-61"/>
      <use x="129.578125" xlink:href="#DejaVuSans-6c"/>
      <use x="157.361328" xlink:href="#DejaVuSans-6f"/>
      <use x="218.542969" xlink:href="#DejaVuSans-72"/>
      <use x="259.65625" xlink:href="#DejaVuSans-20"/>
      <use x="291.443359" xlink:href="#DejaVuSans-76"/>
      <use x="350.623047" xlink:href="#DejaVuSans-61"/>
      <use x="411.902344" xlink:href="#DejaVuSans-72"/>
      <use x="453.015625" xlink:href="#DejaVuSans-69"/>
      <use x="480.798828" xlink:href="#DejaVuSans-61"/>
      <use x="542.078125" xlink:href="#DejaVuSans-6e"/>
      <use x="605.457031" xlink:href="#DejaVuSans-7a"/>
      <use x="657.947266" xlink:href="#DejaVuSans-61"/>
      <use x="719.226562" xlink:href="#DejaVuSans-20"/>
      <use x="751.013672" xlink:href="#DejaVuSans-33"/>
      <use x="814.636719" xlink:href="#DejaVuSans-20"/>
      <use x="846.423828" xlink:href="#DejaVuSans-6f"/>
      <use x="907.605469" xlink:href="#DejaVuSans-62"/>
      <use x="971.082031" xlink:href="#DejaVuSans-74"/>
      <use x="1010.291016" xlink:href="#DejaVuSans-65"/>
      <use x="1071.814453" xlink:href="#DejaVuSans-6e"/>
      <use x="1135.193359" xlink:href="#DejaVuSans-69"/>
      <use x="1162.976562" xlink:href="#DejaVuSans-64"/>
      <use x="1226.453125" xlink:href="#DejaVuSans-6f"/>
     </g>
    </g>
    <g id="line2d_23">
     <path d="M 248.955938 98.604813 
L 268.955938 98.604813 
" style="fill:none;stroke:#d62728;stroke-linecap:square;stroke-width:1.5;"/>
    </g>
    <g id="line2d_24"/>
    <g id="text_17">
     <!-- Valor varianza 4 obtenido -->
     <g transform="translate(276.955938 102.104813)scale(0.1 -0.1)">
      <use xlink:href="#DejaVuSans-56"/>
      <use x="68.298828" xlink:href="#DejaVuSans-61"/>
      <use x="129.578125" xlink:href="#DejaVuSans-6c"/>
      <use x="157.361328" xlink:href="#DejaVuSans-6f"/>
      <use x="218.542969" xlink:href="#DejaVuSans-72"/>
      <use x="259.65625" xlink:href="#DejaVuSans-20"/>
      <use x="291.443359" xlink:href="#DejaVuSans-76"/>
      <use x="350.623047" xlink:href="#DejaVuSans-61"/>
      <use x="411.902344" xlink:href="#DejaVuSans-72"/>
      <use x="453.015625" xlink:href="#DejaVuSans-69"/>
      <use x="480.798828" xlink:href="#DejaVuSans-61"/>
      <use x="542.078125" xlink:href="#DejaVuSans-6e"/>
      <use x="605.457031" xlink:href="#DejaVuSans-7a"/>
      <use x="657.947266" xlink:href="#DejaVuSans-61"/>
      <use x="719.226562" xlink:href="#DejaVuSans-20"/>
      <use x="751.013672" xlink:href="#DejaVuSans-34"/>
      <use x="814.636719" xlink:href="#DejaVuSans-20"/>
      <use x="846.423828" xlink:href="#DejaVuSans-6f"/>
      <use x="907.605469" xlink:href="#DejaVuSans-62"/>
      <use x="971.082031" xlink:href="#DejaVuSans-74"/>
      <use x="1010.291016" xlink:href="#DejaVuSans-65"/>
      <use x="1071.814453" xlink:href="#DejaVuSans-6e"/>
      <use x="1135.193359" xlink:href="#DejaVuSans-69"/>
      <use x="1162.976562" xlink:href="#DejaVuSans-64"/>
      <use x="1226.453125" xlink:href="#DejaVuSans-6f"/>
     </g>
    </g>
    <g id="line2d_25">
     <path d="M 248.955938 113.282938 
L 268.955938 113.282938 
" style="fill:none;stroke:#9467bd;stroke-linecap:square;stroke-width:1.5;"/>
    </g>
    <g id="line2d_26"/>
    <g id="text_18">
     <!-- Valor varianza 5 obtenido -->
     <g transform="translate(276.955938 116.782938)scale(0.1 -0.1)">
      <use xlink:href="#DejaVuSans-56"/>
      <use x="68.298828" xlink:href="#DejaVuSans-61"/>
      <use x="129.578125" xlink:href="#DejaVuSans-6c"/>
      <use x="157.361328" xlink:href="#DejaVuSans-6f"/>
      <use x="218.542969" xlink:href="#DejaVuSans-72"/>
      <use x="259.65625" xlink:href="#DejaVuSans-20"/>
      <use x="291.443359" xlink:href="#DejaVuSans-76"/>
      <use x="350.623047" xlink:href="#DejaVuSans-61"/>
      <use x="411.902344" xlink:href="#DejaVuSans-72"/>
      <use x="453.015625" xlink:href="#DejaVuSans-69"/>
      <use x="480.798828" xlink:href="#DejaVuSans-61"/>
      <use x="542.078125" xlink:href="#DejaVuSans-6e"/>
      <use x="605.457031" xlink:href="#DejaVuSans-7a"/>
      <use x="657.947266" xlink:href="#DejaVuSans-61"/>
      <use x="719.226562" xlink:href="#DejaVuSans-20"/>
      <use x="751.013672" xlink:href="#DejaVuSans-35"/>
      <use x="814.636719" xlink:href="#DejaVuSans-20"/>
      <use x="846.423828" xlink:href="#DejaVuSans-6f"/>
      <use x="907.605469" xlink:href="#DejaVuSans-62"/>
      <use x="971.082031" xlink:href="#DejaVuSans-74"/>
      <use x="1010.291016" xlink:href="#DejaVuSans-65"/>
      <use x="1071.814453" xlink:href="#DejaVuSans-6e"/>
      <use x="1135.193359" xlink:href="#DejaVuSans-69"/>
      <use x="1162.976562" xlink:href="#DejaVuSans-64"/>
      <use x="1226.453125" xlink:href="#DejaVuSans-6f"/>
     </g>
    </g>
    <g id="line2d_27">
     <path d="M 248.955938 127.961063 
L 268.955938 127.961063 
" style="fill:none;stroke:#8c564b;stroke-linecap:square;stroke-width:1.5;"/>
    </g>
    <g id="line2d_28"/>
    <g id="text_19">
     <!-- Valor varianza esperado -->
     <g transform="translate(276.955938 131.461063)scale(0.1 -0.1)">
      <use xlink:href="#DejaVuSans-56"/>
      <use x="68.298828" xlink:href="#DejaVuSans-61"/>
      <use x="129.578125" xlink:href="#DejaVuSans-6c"/>
      <use x="157.361328" xlink:href="#DejaVuSans-6f"/>
      <use x="218.542969" xlink:href="#DejaVuSans-72"/>
      <use x="259.65625" xlink:href="#DejaVuSans-20"/>
      <use x="291.443359" xlink:href="#DejaVuSans-76"/>
      <use x="350.623047" xlink:href="#DejaVuSans-61"/>
      <use x="411.902344" xlink:href="#DejaVuSans-72"/>
      <use x="453.015625" xlink:href="#DejaVuSans-69"/>
      <use x="480.798828" xlink:href="#DejaVuSans-61"/>
      <use x="542.078125" xlink:href="#DejaVuSans-6e"/>
      <use x="605.457031" xlink:href="#DejaVuSans-7a"/>
      <use x="657.947266" xlink:href="#DejaVuSans-61"/>
      <use x="719.226562" xlink:href="#DejaVuSans-20"/>
      <use x="751.013672" xlink:href="#DejaVuSans-65"/>
      <use x="812.537109" xlink:href="#DejaVuSans-73"/>
      <use x="864.636719" xlink:href="#DejaVuSans-70"/>
      <use x="928.113281" xlink:href="#DejaVuSans-65"/>
      <use x="989.636719" xlink:href="#DejaVuSans-72"/>
      <use x="1030.75" xlink:href="#DejaVuSans-61"/>
      <use x="1092.029297" xlink:href="#DejaVuSans-64"/>
      <use x="1155.505859" xlink:href="#DejaVuSans-6f"/>
     </g>
    </g>
   </g>
  </g>
 </g>
 <defs>
  <clipPath id="p98d88d47e0">
   <rect height="266.112" width="357.12" x="57.6" y="41.472"/>
  </clipPath>
 </defs>
</svg>
