<?xml version="1.0" encoding="utf-8" standalone="no"?>
<!DOCTYPE svg PUBLIC "-//W3C//DTD SVG 1.1//EN"
  "http://www.w3.org/Graphics/SVG/1.1/DTD/svg11.dtd">
<!-- Created with matplotlib (http://matplotlib.org/) -->
<svg height="345.6pt" version="1.1" viewBox="0 0 460.8 345.6" width="460.8pt" xmlns="http://www.w3.org/2000/svg" xmlns:xlink="http://www.w3.org/1999/xlink">
 <defs>
  <style type="text/css">
*{stroke-linecap:butt;stroke-linejoin:round;}
  </style>
 </defs>
 <g id="figure_1">
  <g id="patch_1">
   <path d="M 0 345.6 
L 460.8 345.6 
L 460.8 0 
L 0 0 
z
" style="fill:#ffffff;"/>
  </g>
  <g id="axes_1">
   <g id="patch_2">
    <path d="M 57.6 307.584 
L 414.72 307.584 
L 414.72 41.472 
L 57.6 41.472 
z
" style="fill:#ffffff;"/>
   </g>
   <g id="matplotlib.axis_1">
    <g id="xtick_1">
     <g id="line2d_1">
      <defs>
       <path d="M 0 0 
L 0 3.5 
" id="m48eb319aa9" style="stroke:#000000;stroke-width:0.8;"/>
      </defs>
      <g>
       <use style="stroke:#000000;stroke-width:0.8;" x="57.528562" xlink:href="#m48eb319aa9" y="307.584"/>
      </g>
     </g>
     <g id="text_1">
      <!-- 0 -->
      <defs>
       <path d="M 31.78125 66.40625 
Q 24.171875 66.40625 20.328125 58.90625 
Q 16.5 51.421875 16.5 36.375 
Q 16.5 21.390625 20.328125 13.890625 
Q 24.171875 6.390625 31.78125 6.390625 
Q 39.453125 6.390625 43.28125 13.890625 
Q 47.125 21.390625 47.125 36.375 
Q 47.125 51.421875 43.28125 58.90625 
Q 39.453125 66.40625 31.78125 66.40625 
z
M 31.78125 74.21875 
Q 44.046875 74.21875 50.515625 64.515625 
Q 56.984375 54.828125 56.984375 36.375 
Q 56.984375 17.96875 50.515625 8.265625 
Q 44.046875 -1.421875 31.78125 -1.421875 
Q 19.53125 -1.421875 13.0625 8.265625 
Q 6.59375 17.96875 6.59375 36.375 
Q 6.59375 54.828125 13.0625 64.515625 
Q 19.53125 74.21875 31.78125 74.21875 
z
" id="DejaVuSans-30"/>
      </defs>
      <g transform="translate(54.347312 322.182437)scale(0.1 -0.1)">
       <use xlink:href="#DejaVuSans-30"/>
      </g>
     </g>
    </g>
    <g id="xtick_2">
     <g id="line2d_2">
      <g>
       <use style="stroke:#000000;stroke-width:0.8;" x="128.966849" xlink:href="#m48eb319aa9" y="307.584"/>
      </g>
     </g>
     <g id="text_2">
      <!-- 1000 -->
      <defs>
       <path d="M 12.40625 8.296875 
L 28.515625 8.296875 
L 28.515625 63.921875 
L 10.984375 60.40625 
L 10.984375 69.390625 
L 28.421875 72.90625 
L 38.28125 72.90625 
L 38.28125 8.296875 
L 54.390625 8.296875 
L 54.390625 0 
L 12.40625 0 
z
" id="DejaVuSans-31"/>
      </defs>
      <g transform="translate(116.241849 322.182437)scale(0.1 -0.1)">
       <use xlink:href="#DejaVuSans-31"/>
       <use x="63.623047" xlink:href="#DejaVuSans-30"/>
       <use x="127.246094" xlink:href="#DejaVuSans-30"/>
       <use x="190.869141" xlink:href="#DejaVuSans-30"/>
      </g>
     </g>
    </g>
    <g id="xtick_3">
     <g id="line2d_3">
      <g>
       <use style="stroke:#000000;stroke-width:0.8;" x="200.405137" xlink:href="#m48eb319aa9" y="307.584"/>
      </g>
     </g>
     <g id="text_3">
      <!-- 2000 -->
      <defs>
       <path d="M 19.1875 8.296875 
L 53.609375 8.296875 
L 53.609375 0 
L 7.328125 0 
L 7.328125 8.296875 
Q 12.9375 14.109375 22.625 23.890625 
Q 32.328125 33.6875 34.8125 36.53125 
Q 39.546875 41.84375 41.421875 45.53125 
Q 43.3125 49.21875 43.3125 52.78125 
Q 43.3125 58.59375 39.234375 62.25 
Q 35.15625 65.921875 28.609375 65.921875 
Q 23.96875 65.921875 18.8125 64.3125 
Q 13.671875 62.703125 7.8125 59.421875 
L 7.8125 69.390625 
Q 13.765625 71.78125 18.9375 73 
Q 24.125 74.21875 28.421875 74.21875 
Q 39.75 74.21875 46.484375 68.546875 
Q 53.21875 62.890625 53.21875 53.421875 
Q 53.21875 48.921875 51.53125 44.890625 
Q 49.859375 40.875 45.40625 35.40625 
Q 44.1875 33.984375 37.640625 27.21875 
Q 31.109375 20.453125 19.1875 8.296875 
z
" id="DejaVuSans-32"/>
      </defs>
      <g transform="translate(187.680137 322.182437)scale(0.1 -0.1)">
       <use xlink:href="#DejaVuSans-32"/>
       <use x="63.623047" xlink:href="#DejaVuSans-30"/>
       <use x="127.246094" xlink:href="#DejaVuSans-30"/>
       <use x="190.869141" xlink:href="#DejaVuSans-30"/>
      </g>
     </g>
    </g>
    <g id="xtick_4">
     <g id="line2d_4">
      <g>
       <use style="stroke:#000000;stroke-width:0.8;" x="271.843425" xlink:href="#m48eb319aa9" y="307.584"/>
      </g>
     </g>
     <g id="text_4">
      <!-- 3000 -->
      <defs>
       <path d="M 40.578125 39.3125 
Q 47.65625 37.796875 51.625 33 
Q 55.609375 28.21875 55.609375 21.1875 
Q 55.609375 10.40625 48.1875 4.484375 
Q 40.765625 -1.421875 27.09375 -1.421875 
Q 22.515625 -1.421875 17.65625 -0.515625 
Q 12.796875 0.390625 7.625 2.203125 
L 7.625 11.71875 
Q 11.71875 9.328125 16.59375 8.109375 
Q 21.484375 6.890625 26.8125 6.890625 
Q 36.078125 6.890625 40.9375 10.546875 
Q 45.796875 14.203125 45.796875 21.1875 
Q 45.796875 27.640625 41.28125 31.265625 
Q 36.765625 34.90625 28.71875 34.90625 
L 20.21875 34.90625 
L 20.21875 43.015625 
L 29.109375 43.015625 
Q 36.375 43.015625 40.234375 45.921875 
Q 44.09375 48.828125 44.09375 54.296875 
Q 44.09375 59.90625 40.109375 62.90625 
Q 36.140625 65.921875 28.71875 65.921875 
Q 24.65625 65.921875 20.015625 65.03125 
Q 15.375 64.15625 9.8125 62.3125 
L 9.8125 71.09375 
Q 15.4375 72.65625 20.34375 73.4375 
Q 25.25 74.21875 29.59375 74.21875 
Q 40.828125 74.21875 47.359375 69.109375 
Q 53.90625 64.015625 53.90625 55.328125 
Q 53.90625 49.265625 50.4375 45.09375 
Q 46.96875 40.921875 40.578125 39.3125 
z
" id="DejaVuSans-33"/>
      </defs>
      <g transform="translate(259.118425 322.182437)scale(0.1 -0.1)">
       <use xlink:href="#DejaVuSans-33"/>
       <use x="63.623047" xlink:href="#DejaVuSans-30"/>
       <use x="127.246094" xlink:href="#DejaVuSans-30"/>
       <use x="190.869141" xlink:href="#DejaVuSans-30"/>
      </g>
     </g>
    </g>
    <g id="xtick_5">
     <g id="line2d_5">
      <g>
       <use style="stroke:#000000;stroke-width:0.8;" x="343.281712" xlink:href="#m48eb319aa9" y="307.584"/>
      </g>
     </g>
     <g id="text_5">
      <!-- 4000 -->
      <defs>
       <path d="M 37.796875 64.3125 
L 12.890625 25.390625 
L 37.796875 25.390625 
z
M 35.203125 72.90625 
L 47.609375 72.90625 
L 47.609375 25.390625 
L 58.015625 25.390625 
L 58.015625 17.1875 
L 47.609375 17.1875 
L 47.609375 0 
L 37.796875 0 
L 37.796875 17.1875 
L 4.890625 17.1875 
L 4.890625 26.703125 
z
" id="DejaVuSans-34"/>
      </defs>
      <g transform="translate(330.556712 322.182437)scale(0.1 -0.1)">
       <use xlink:href="#DejaVuSans-34"/>
       <use x="63.623047" xlink:href="#DejaVuSans-30"/>
       <use x="127.246094" xlink:href="#DejaVuSans-30"/>
       <use x="190.869141" xlink:href="#DejaVuSans-30"/>
      </g>
     </g>
    </g>
    <g id="xtick_6">
     <g id="line2d_6">
      <g>
       <use style="stroke:#000000;stroke-width:0.8;" x="414.72" xlink:href="#m48eb319aa9" y="307.584"/>
      </g>
     </g>
     <g id="text_6">
      <!-- 5000 -->
      <defs>
       <path d="M 10.796875 72.90625 
L 49.515625 72.90625 
L 49.515625 64.59375 
L 19.828125 64.59375 
L 19.828125 46.734375 
Q 21.96875 47.46875 24.109375 47.828125 
Q 26.265625 48.1875 28.421875 48.1875 
Q 40.625 48.1875 47.75 41.5 
Q 54.890625 34.8125 54.890625 23.390625 
Q 54.890625 11.625 47.5625 5.09375 
Q 40.234375 -1.421875 26.90625 -1.421875 
Q 22.3125 -1.421875 17.546875 -0.640625 
Q 12.796875 0.140625 7.71875 1.703125 
L 7.71875 11.625 
Q 12.109375 9.234375 16.796875 8.0625 
Q 21.484375 6.890625 26.703125 6.890625 
Q 35.15625 6.890625 40.078125 11.328125 
Q 45.015625 15.765625 45.015625 23.390625 
Q 45.015625 31 40.078125 35.4375 
Q 35.15625 39.890625 26.703125 39.890625 
Q 22.75 39.890625 18.8125 39.015625 
Q 14.890625 38.140625 10.796875 36.28125 
z
" id="DejaVuSans-35"/>
      </defs>
      <g transform="translate(401.995 322.182437)scale(0.1 -0.1)">
       <use xlink:href="#DejaVuSans-35"/>
       <use x="63.623047" xlink:href="#DejaVuSans-30"/>
       <use x="127.246094" xlink:href="#DejaVuSans-30"/>
       <use x="190.869141" xlink:href="#DejaVuSans-30"/>
      </g>
     </g>
    </g>
    <g id="text_7">
     <!-- Tiradas -->
     <defs>
      <path d="M -0.296875 72.90625 
L 61.375 72.90625 
L 61.375 64.59375 
L 35.5 64.59375 
L 35.5 0 
L 25.59375 0 
L 25.59375 64.59375 
L -0.296875 64.59375 
z
" id="DejaVuSans-54"/>
      <path d="M 9.421875 54.6875 
L 18.40625 54.6875 
L 18.40625 0 
L 9.421875 0 
z
M 9.421875 75.984375 
L 18.40625 75.984375 
L 18.40625 64.59375 
L 9.421875 64.59375 
z
" id="DejaVuSans-69"/>
      <path d="M 41.109375 46.296875 
Q 39.59375 47.171875 37.8125 47.578125 
Q 36.03125 48 33.890625 48 
Q 26.265625 48 22.1875 43.046875 
Q 18.109375 38.09375 18.109375 28.8125 
L 18.109375 0 
L 9.078125 0 
L 9.078125 54.6875 
L 18.109375 54.6875 
L 18.109375 46.1875 
Q 20.953125 51.171875 25.484375 53.578125 
Q 30.03125 56 36.53125 56 
Q 37.453125 56 38.578125 55.875 
Q 39.703125 55.765625 41.0625 55.515625 
z
" id="DejaVuSans-72"/>
      <path d="M 34.28125 27.484375 
Q 23.390625 27.484375 19.1875 25 
Q 14.984375 22.515625 14.984375 16.5 
Q 14.984375 11.71875 18.140625 8.90625 
Q 21.296875 6.109375 26.703125 6.109375 
Q 34.1875 6.109375 38.703125 11.40625 
Q 43.21875 16.703125 43.21875 25.484375 
L 43.21875 27.484375 
z
M 52.203125 31.203125 
L 52.203125 0 
L 43.21875 0 
L 43.21875 8.296875 
Q 40.140625 3.328125 35.546875 0.953125 
Q 30.953125 -1.421875 24.3125 -1.421875 
Q 15.921875 -1.421875 10.953125 3.296875 
Q 6 8.015625 6 15.921875 
Q 6 25.140625 12.171875 29.828125 
Q 18.359375 34.515625 30.609375 34.515625 
L 43.21875 34.515625 
L 43.21875 35.40625 
Q 43.21875 41.609375 39.140625 45 
Q 35.0625 48.390625 27.6875 48.390625 
Q 23 48.390625 18.546875 47.265625 
Q 14.109375 46.140625 10.015625 43.890625 
L 10.015625 52.203125 
Q 14.9375 54.109375 19.578125 55.046875 
Q 24.21875 56 28.609375 56 
Q 40.484375 56 46.34375 49.84375 
Q 52.203125 43.703125 52.203125 31.203125 
z
" id="DejaVuSans-61"/>
      <path d="M 45.40625 46.390625 
L 45.40625 75.984375 
L 54.390625 75.984375 
L 54.390625 0 
L 45.40625 0 
L 45.40625 8.203125 
Q 42.578125 3.328125 38.25 0.953125 
Q 33.9375 -1.421875 27.875 -1.421875 
Q 17.96875 -1.421875 11.734375 6.484375 
Q 5.515625 14.40625 5.515625 27.296875 
Q 5.515625 40.1875 11.734375 48.09375 
Q 17.96875 56 27.875 56 
Q 33.9375 56 38.25 53.625 
Q 42.578125 51.265625 45.40625 46.390625 
z
M 14.796875 27.296875 
Q 14.796875 17.390625 18.875 11.75 
Q 22.953125 6.109375 30.078125 6.109375 
Q 37.203125 6.109375 41.296875 11.75 
Q 45.40625 17.390625 45.40625 27.296875 
Q 45.40625 37.203125 41.296875 42.84375 
Q 37.203125 48.484375 30.078125 48.484375 
Q 22.953125 48.484375 18.875 42.84375 
Q 14.796875 37.203125 14.796875 27.296875 
z
" id="DejaVuSans-64"/>
      <path d="M 44.28125 53.078125 
L 44.28125 44.578125 
Q 40.484375 46.53125 36.375 47.5 
Q 32.28125 48.484375 27.875 48.484375 
Q 21.1875 48.484375 17.84375 46.4375 
Q 14.5 44.390625 14.5 40.28125 
Q 14.5 37.15625 16.890625 35.375 
Q 19.28125 33.59375 26.515625 31.984375 
L 29.59375 31.296875 
Q 39.15625 29.25 43.1875 25.515625 
Q 47.21875 21.78125 47.21875 15.09375 
Q 47.21875 7.46875 41.1875 3.015625 
Q 35.15625 -1.421875 24.609375 -1.421875 
Q 20.21875 -1.421875 15.453125 -0.5625 
Q 10.6875 0.296875 5.421875 2 
L 5.421875 11.28125 
Q 10.40625 8.6875 15.234375 7.390625 
Q 20.0625 6.109375 24.8125 6.109375 
Q 31.15625 6.109375 34.5625 8.28125 
Q 37.984375 10.453125 37.984375 14.40625 
Q 37.984375 18.0625 35.515625 20.015625 
Q 33.0625 21.96875 24.703125 23.78125 
L 21.578125 24.515625 
Q 13.234375 26.265625 9.515625 29.90625 
Q 5.8125 33.546875 5.8125 39.890625 
Q 5.8125 47.609375 11.28125 51.796875 
Q 16.75 56 26.8125 56 
Q 31.78125 56 36.171875 55.265625 
Q 40.578125 54.546875 44.28125 53.078125 
z
" id="DejaVuSans-73"/>
     </defs>
     <g transform="translate(217.756875 335.860562)scale(0.1 -0.1)">
      <use xlink:href="#DejaVuSans-54"/>
      <use x="61.037109" xlink:href="#DejaVuSans-69"/>
      <use x="88.820312" xlink:href="#DejaVuSans-72"/>
      <use x="129.933594" xlink:href="#DejaVuSans-61"/>
      <use x="191.212891" xlink:href="#DejaVuSans-64"/>
      <use x="254.689453" xlink:href="#DejaVuSans-61"/>
      <use x="315.96875" xlink:href="#DejaVuSans-73"/>
     </g>
    </g>
   </g>
   <g id="matplotlib.axis_2">
    <g id="ytick_1">
     <g id="line2d_7">
      <defs>
       <path d="M 0 0 
L -3.5 0 
" id="me70bf17f2b" style="stroke:#000000;stroke-width:0.8;"/>
      </defs>
      <g>
       <use style="stroke:#000000;stroke-width:0.8;" x="57.6" xlink:href="#me70bf17f2b" y="293.709176"/>
      </g>
     </g>
     <g id="text_8">
      <!-- 16 -->
      <defs>
       <path d="M 33.015625 40.375 
Q 26.375 40.375 22.484375 35.828125 
Q 18.609375 31.296875 18.609375 23.390625 
Q 18.609375 15.53125 22.484375 10.953125 
Q 26.375 6.390625 33.015625 6.390625 
Q 39.65625 6.390625 43.53125 10.953125 
Q 47.40625 15.53125 47.40625 23.390625 
Q 47.40625 31.296875 43.53125 35.828125 
Q 39.65625 40.375 33.015625 40.375 
z
M 52.59375 71.296875 
L 52.59375 62.3125 
Q 48.875 64.0625 45.09375 64.984375 
Q 41.3125 65.921875 37.59375 65.921875 
Q 27.828125 65.921875 22.671875 59.328125 
Q 17.53125 52.734375 16.796875 39.40625 
Q 19.671875 43.65625 24.015625 45.921875 
Q 28.375 48.1875 33.59375 48.1875 
Q 44.578125 48.1875 50.953125 41.515625 
Q 57.328125 34.859375 57.328125 23.390625 
Q 57.328125 12.15625 50.6875 5.359375 
Q 44.046875 -1.421875 33.015625 -1.421875 
Q 20.359375 -1.421875 13.671875 8.265625 
Q 6.984375 17.96875 6.984375 36.375 
Q 6.984375 53.65625 15.1875 63.9375 
Q 23.390625 74.21875 37.203125 74.21875 
Q 40.921875 74.21875 44.703125 73.484375 
Q 48.484375 72.75 52.59375 71.296875 
z
" id="DejaVuSans-36"/>
      </defs>
      <g transform="translate(37.875 297.508395)scale(0.1 -0.1)">
       <use xlink:href="#DejaVuSans-31"/>
       <use x="63.623047" xlink:href="#DejaVuSans-36"/>
      </g>
     </g>
    </g>
    <g id="ytick_2">
     <g id="line2d_8">
      <g>
       <use style="stroke:#000000;stroke-width:0.8;" x="57.6" xlink:href="#me70bf17f2b" y="261.690353"/>
      </g>
     </g>
     <g id="text_9">
      <!-- 18 -->
      <defs>
       <path d="M 31.78125 34.625 
Q 24.75 34.625 20.71875 30.859375 
Q 16.703125 27.09375 16.703125 20.515625 
Q 16.703125 13.921875 20.71875 10.15625 
Q 24.75 6.390625 31.78125 6.390625 
Q 38.8125 6.390625 42.859375 10.171875 
Q 46.921875 13.96875 46.921875 20.515625 
Q 46.921875 27.09375 42.890625 30.859375 
Q 38.875 34.625 31.78125 34.625 
z
M 21.921875 38.8125 
Q 15.578125 40.375 12.03125 44.71875 
Q 8.5 49.078125 8.5 55.328125 
Q 8.5 64.0625 14.71875 69.140625 
Q 20.953125 74.21875 31.78125 74.21875 
Q 42.671875 74.21875 48.875 69.140625 
Q 55.078125 64.0625 55.078125 55.328125 
Q 55.078125 49.078125 51.53125 44.71875 
Q 48 40.375 41.703125 38.8125 
Q 48.828125 37.15625 52.796875 32.3125 
Q 56.78125 27.484375 56.78125 20.515625 
Q 56.78125 9.90625 50.3125 4.234375 
Q 43.84375 -1.421875 31.78125 -1.421875 
Q 19.734375 -1.421875 13.25 4.234375 
Q 6.78125 9.90625 6.78125 20.515625 
Q 6.78125 27.484375 10.78125 32.3125 
Q 14.796875 37.15625 21.921875 38.8125 
z
M 18.3125 54.390625 
Q 18.3125 48.734375 21.84375 45.5625 
Q 25.390625 42.390625 31.78125 42.390625 
Q 38.140625 42.390625 41.71875 45.5625 
Q 45.3125 48.734375 45.3125 54.390625 
Q 45.3125 60.0625 41.71875 63.234375 
Q 38.140625 66.40625 31.78125 66.40625 
Q 25.390625 66.40625 21.84375 63.234375 
Q 18.3125 60.0625 18.3125 54.390625 
z
" id="DejaVuSans-38"/>
      </defs>
      <g transform="translate(37.875 265.489572)scale(0.1 -0.1)">
       <use xlink:href="#DejaVuSans-31"/>
       <use x="63.623047" xlink:href="#DejaVuSans-38"/>
      </g>
     </g>
    </g>
    <g id="ytick_3">
     <g id="line2d_9">
      <g>
       <use style="stroke:#000000;stroke-width:0.8;" x="57.6" xlink:href="#me70bf17f2b" y="229.671529"/>
      </g>
     </g>
     <g id="text_10">
      <!-- 20 -->
      <g transform="translate(37.875 233.470748)scale(0.1 -0.1)">
       <use xlink:href="#DejaVuSans-32"/>
       <use x="63.623047" xlink:href="#DejaVuSans-30"/>
      </g>
     </g>
    </g>
    <g id="ytick_4">
     <g id="line2d_10">
      <g>
       <use style="stroke:#000000;stroke-width:0.8;" x="57.6" xlink:href="#me70bf17f2b" y="197.652706"/>
      </g>
     </g>
     <g id="text_11">
      <!-- 22 -->
      <g transform="translate(37.875 201.451925)scale(0.1 -0.1)">
       <use xlink:href="#DejaVuSans-32"/>
       <use x="63.623047" xlink:href="#DejaVuSans-32"/>
      </g>
     </g>
    </g>
    <g id="ytick_5">
     <g id="line2d_11">
      <g>
       <use style="stroke:#000000;stroke-width:0.8;" x="57.6" xlink:href="#me70bf17f2b" y="165.633882"/>
      </g>
     </g>
     <g id="text_12">
      <!-- 24 -->
      <g transform="translate(37.875 169.433101)scale(0.1 -0.1)">
       <use xlink:href="#DejaVuSans-32"/>
       <use x="63.623047" xlink:href="#DejaVuSans-34"/>
      </g>
     </g>
    </g>
    <g id="ytick_6">
     <g id="line2d_12">
      <g>
       <use style="stroke:#000000;stroke-width:0.8;" x="57.6" xlink:href="#me70bf17f2b" y="133.615059"/>
      </g>
     </g>
     <g id="text_13">
      <!-- 26 -->
      <g transform="translate(37.875 137.414278)scale(0.1 -0.1)">
       <use xlink:href="#DejaVuSans-32"/>
       <use x="63.623047" xlink:href="#DejaVuSans-36"/>
      </g>
     </g>
    </g>
    <g id="ytick_7">
     <g id="line2d_13">
      <g>
       <use style="stroke:#000000;stroke-width:0.8;" x="57.6" xlink:href="#me70bf17f2b" y="101.596235"/>
      </g>
     </g>
     <g id="text_14">
      <!-- 28 -->
      <g transform="translate(37.875 105.395454)scale(0.1 -0.1)">
       <use xlink:href="#DejaVuSans-32"/>
       <use x="63.623047" xlink:href="#DejaVuSans-38"/>
      </g>
     </g>
    </g>
    <g id="ytick_8">
     <g id="line2d_14">
      <g>
       <use style="stroke:#000000;stroke-width:0.8;" x="57.6" xlink:href="#me70bf17f2b" y="69.577412"/>
      </g>
     </g>
     <g id="text_15">
      <!-- 30 -->
      <g transform="translate(37.875 73.376631)scale(0.1 -0.1)">
       <use xlink:href="#DejaVuSans-33"/>
       <use x="63.623047" xlink:href="#DejaVuSans-30"/>
      </g>
     </g>
    </g>
    <g id="text_16">
     <!-- Valores -->
     <defs>
      <path d="M 28.609375 0 
L 0.78125 72.90625 
L 11.078125 72.90625 
L 34.1875 11.53125 
L 57.328125 72.90625 
L 67.578125 72.90625 
L 39.796875 0 
z
" id="DejaVuSans-56"/>
      <path d="M 9.421875 75.984375 
L 18.40625 75.984375 
L 18.40625 0 
L 9.421875 0 
z
" id="DejaVuSans-6c"/>
      <path d="M 30.609375 48.390625 
Q 23.390625 48.390625 19.1875 42.75 
Q 14.984375 37.109375 14.984375 27.296875 
Q 14.984375 17.484375 19.15625 11.84375 
Q 23.34375 6.203125 30.609375 6.203125 
Q 37.796875 6.203125 41.984375 11.859375 
Q 46.1875 17.53125 46.1875 27.296875 
Q 46.1875 37.015625 41.984375 42.703125 
Q 37.796875 48.390625 30.609375 48.390625 
z
M 30.609375 56 
Q 42.328125 56 49.015625 48.375 
Q 55.71875 40.765625 55.71875 27.296875 
Q 55.71875 13.875 49.015625 6.21875 
Q 42.328125 -1.421875 30.609375 -1.421875 
Q 18.84375 -1.421875 12.171875 6.21875 
Q 5.515625 13.875 5.515625 27.296875 
Q 5.515625 40.765625 12.171875 48.375 
Q 18.84375 56 30.609375 56 
z
" id="DejaVuSans-6f"/>
      <path d="M 56.203125 29.59375 
L 56.203125 25.203125 
L 14.890625 25.203125 
Q 15.484375 15.921875 20.484375 11.0625 
Q 25.484375 6.203125 34.421875 6.203125 
Q 39.59375 6.203125 44.453125 7.46875 
Q 49.3125 8.734375 54.109375 11.28125 
L 54.109375 2.78125 
Q 49.265625 0.734375 44.1875 -0.34375 
Q 39.109375 -1.421875 33.890625 -1.421875 
Q 20.796875 -1.421875 13.15625 6.1875 
Q 5.515625 13.8125 5.515625 26.8125 
Q 5.515625 40.234375 12.765625 48.109375 
Q 20.015625 56 32.328125 56 
Q 43.359375 56 49.78125 48.890625 
Q 56.203125 41.796875 56.203125 29.59375 
z
M 47.21875 32.234375 
Q 47.125 39.59375 43.09375 43.984375 
Q 39.0625 48.390625 32.421875 48.390625 
Q 24.90625 48.390625 20.390625 44.140625 
Q 15.875 39.890625 15.1875 32.171875 
z
" id="DejaVuSans-65"/>
     </defs>
     <g transform="translate(31.795312 193.1905)rotate(-90)scale(0.1 -0.1)">
      <use xlink:href="#DejaVuSans-56"/>
      <use x="68.298828" xlink:href="#DejaVuSans-61"/>
      <use x="129.578125" xlink:href="#DejaVuSans-6c"/>
      <use x="157.361328" xlink:href="#DejaVuSans-6f"/>
      <use x="218.542969" xlink:href="#DejaVuSans-72"/>
      <use x="259.625" xlink:href="#DejaVuSans-65"/>
      <use x="321.148438" xlink:href="#DejaVuSans-73"/>
     </g>
    </g>
   </g>
   <g id="line2d_15">
    <path clip-path="url(#pdfc20275fa)" d="M 57.6 253.685647 
L 414.72 253.685647 
L 414.72 253.685647 
" style="fill:none;stroke:#1f77b4;stroke-linecap:square;stroke-width:1.5;"/>
   </g>
   <g id="line2d_16">
    <path clip-path="url(#pdfc20275fa)" d="M 57.6 133.615059 
L 57.671438 53.568 
L 57.814315 201.655059 
L 57.885753 213.662118 
L 58.100068 271.696235 
L 58.171506 295.488 
L 58.314383 252.957947 
L 58.385821 264.358588 
L 58.457259 260.45886 
L 58.528698 281.130353 
L 58.600136 280.901647 
L 58.671574 288.706235 
L 58.957327 248.082353 
L 59.100204 263.873455 
L 59.243081 254.352706 
L 59.385957 251.222661 
L 59.600272 245.680941 
L 59.67171 246.214588 
L 59.814587 261.690353 
L 59.957463 248.506131 
L 60.10034 259.022118 
L 60.314655 270.721303 
L 60.386093 273.697412 
L 60.457532 271.842663 
L 60.52897 265.120941 
L 60.600408 270.99815 
L 60.743285 261.690353 
L 60.814723 266.562783 
L 60.886161 265.777862 
L 61.029038 263.323966 
L 61.100476 269.054682 
L 61.171914 268.282464 
L 61.314791 273.168799 
L 61.386229 267.619765 
L 61.457668 272.751401 
L 61.529106 268.551529 
L 61.743421 276.614381 
L 61.814859 275.832 
L 61.886297 272.713227 
L 62.029174 278.970353 
L 62.100612 275.448441 
L 62.17205 274.497882 
L 62.457804 285.124419 
L 62.529242 285.247059 
L 62.60068 281.533004 
L 62.672118 284.592706 
L 62.743557 283.621054 
L 62.814995 285.05544 
L 63.02931 279.155166 
L 63.172186 282.158082 
L 63.243625 281.902235 
L 63.315063 282.048 
L 63.45794 277.699765 
L 63.743693 286.71656 
L 64.029446 281.7461 
L 64.172322 287.339841 
L 64.529514 275.412706 
L 64.67239 279.620894 
L 64.815267 275.816304 
L 64.958144 280.162751 
L 65.029582 279.986824 
L 65.10102 280.267312 
L 65.172458 281.290661 
L 65.386773 276.826524 
L 65.458212 277.843994 
L 65.52965 275.841529 
L 65.672527 277.699765 
L 65.886841 275.510443 
L 66.029718 277.161633 
L 66.101156 276.499059 
L 66.244033 278.093439 
L 66.315471 280.302921 
L 66.386909 280.023712 
L 66.529786 283.036235 
L 66.744101 276.831037 
L 66.815539 277.946063 
L 67.101292 283.195533 
L 67.172731 284.459294 
L 67.244169 283.703294 
L 67.315607 281.556046 
L 67.387045 281.760123 
L 67.529922 282.731294 
L 67.60136 282.69561 
L 67.672799 282.434943 
L 67.744237 284.081139 
L 68.101428 278.02428 
L 68.315743 280.77442 
L 68.387181 279.279641 
L 68.45862 280.001772 
L 68.530058 279.36308 
L 68.601496 279.662209 
L 68.672935 280.778498 
L 68.744373 280.758888 
L 68.815811 280.43555 
L 68.958688 278.400176 
L 69.030126 278.694138 
L 69.173003 277.110461 
L 69.244441 277.699765 
L 69.387317 274.999382 
L 69.530194 275.126824 
L 69.673071 274.497882 
L 69.887385 270.944348 
L 70.030262 271.661929 
L 70.1017 273.060674 
L 70.173139 271.458808 
L 70.387453 274.675765 
L 70.53033 272.070081 
L 70.601768 272.53826 
L 70.816083 274.687241 
L 70.95896 273.697412 
L 71.173275 276.191024 
L 71.316151 275.045354 
L 71.459028 277.207167 
L 71.530466 275.657748 
L 71.601904 276.724572 
L 71.744781 274.642691 
L 71.816219 275.058212 
L 71.959096 273.261512 
L 72.030534 274.072016 
L 72.173411 271.608379 
L 72.244849 272.259673 
L 72.316287 272.672655 
L 72.387726 272.311982 
L 72.459164 271.26536 
L 72.530602 271.753412 
L 72.887794 267.721806 
L 72.959232 267.842118 
L 73.102108 268.740369 
L 73.316423 265.747036 
L 73.387862 265.872992 
L 73.530738 266.621824 
L 73.602176 267.453741 
L 73.816491 265.341622 
L 73.88793 265.605318 
L 73.959368 265.379478 
L 74.102244 264.243578 
L 74.173683 264.919719 
L 74.316559 262.916606 
L 74.387998 263.793284 
L 74.459436 263.851961 
L 74.602312 265.441512 
L 74.745189 263.151793 
L 74.816627 264.336537 
L 75.316695 258.732791 
L 75.388134 258.744621 
L 75.53101 260.165647 
L 75.602448 259.981839 
L 76.173955 264.082564 
L 76.245393 263.584596 
L 76.459708 265.133887 
L 76.531146 264.940384 
L 76.602585 265.168053 
L 76.674023 264.199291 
L 76.745461 264.308993 
L 76.816899 264.477176 
L 77.031214 263.508271 
L 77.102653 263.38478 
L 77.459844 260.141055 
L 77.531282 260.889882 
L 77.602721 260.664839 
L 77.674159 261.009101 
L 77.745597 260.672086 
L 77.888474 261.072446 
L 77.959912 260.962652 
L 78.03135 260.184241 
L 78.45998 262.400668 
L 78.674295 260.933151 
L 78.960048 262.864376 
L 79.031486 262.807289 
L 79.102925 261.955409 
L 79.174363 262.641407 
L 79.245801 262.111653 
L 79.317239 262.425211 
L 79.388678 261.585716 
L 79.460116 262.00324 
L 79.531554 262.002225 
L 79.602993 262.415698 
L 79.817307 261.536416 
L 79.888746 261.639205 
L 80.031622 262.757647 
L 80.245937 261.640009 
L 80.317375 261.58998 
L 80.388814 262.440794 
L 80.603129 261.194706 
L 80.674567 261.146824 
L 80.746005 260.36034 
L 80.817443 260.904615 
L 80.888882 260.51535 
L 80.96032 260.811788 
L 81.174635 259.46548 
L 81.38895 261.0193 
L 81.531826 260.118 
L 81.746141 261.359775 
L 81.81758 260.984055 
L 82.246209 264.790441 
L 82.317648 264.596961 
L 82.460524 263.47937 
L 82.531962 263.657224 
L 82.603401 263.606009 
L 82.889154 265.794174 
L 82.960592 265.512825 
L 83.03203 266.219626 
L 83.246345 264.892235 
L 83.389222 264.91877 
L 83.532098 265.296869 
L 83.603537 264.892235 
L 83.746413 265.529122 
L 83.960728 264.589355 
L 84.032166 264.624693 
L 84.103605 264.961093 
L 84.175043 264.608959 
L 84.389358 265.905597 
L 84.532234 265.417412 
L 84.817988 267.26431 
L 84.960864 266.985132 
L 85.032302 267.054545 
L 85.103741 267.206549 
L 85.246617 266.476672 
L 85.389494 267.888869 
L 85.460932 267.545457 
L 85.603809 267.800815 
L 85.675247 267.785307 
L 85.746685 267.607756 
L 85.961 269.574385 
L 86.032438 269.193511 
L 86.103877 268.734494 
L 86.175315 269.156089 
L 86.318192 268.840959 
L 86.461068 269.082353 
L 86.532507 268.433233 
L 86.675383 269.459626 
L 86.746821 269.244916 
L 86.81826 269.38268 
L 87.032575 268.24142 
L 87.104013 268.496286 
L 87.318328 269.867822 
L 87.532643 269.085176 
L 87.604081 269.295774 
L 87.675519 268.67076 
L 87.746957 268.7678 
L 87.818396 268.751108 
L 87.889834 268.320133 
L 88.032711 269.37637 
L 88.104149 269.133981 
L 88.175587 268.668814 
L 88.247025 269.173822 
L 88.318464 268.747866 
L 88.532779 270.100827 
L 88.675655 269.107557 
L 88.747093 269.603472 
L 88.818532 268.964035 
L 88.88997 269.202742 
L 88.961408 269.367594 
L 89.032847 269.313882 
L 89.104285 269.187973 
L 89.175723 269.243326 
L 89.247161 269.875345 
L 89.3186 269.605118 
L 89.390038 269.084835 
L 89.461476 269.247368 
L 89.532915 269.587853 
L 89.604353 269.35633 
L 89.675791 269.801788 
L 90.104421 267.377907 
L 90.175859 267.855903 
L 90.247297 268.052172 
L 90.390174 267.363253 
L 90.533051 268.516877 
L 90.604489 268.26009 
L 90.675927 267.900901 
L 90.890242 269.266541 
L 90.96168 269.010896 
L 91.033119 269.131828 
L 91.318872 270.084294 
L 91.533187 270.838588 
L 91.676063 270.398401 
L 91.81894 270.962471 
L 92.104693 269.9266 
L 92.24757 270.848 
L 92.390446 269.924702 
L 92.461884 270.071558 
L 92.676199 271.289492 
L 92.747638 271.140127 
L 92.819076 271.445075 
L 92.890514 271.134289 
L 93.033391 271.579466 
L 93.176267 271.31525 
L 93.319144 270.829458 
L 93.46202 271.620644 
L 93.747774 270.910764 
L 93.819212 271.302303 
L 93.89065 271.094703 
L 94.033527 271.371191 
L 94.176403 271.80156 
L 94.390718 270.377631 
L 94.462156 270.887249 
L 94.533595 270.714963 
L 94.605033 270.358262 
L 94.676471 270.526317 
L 94.74791 270.816639 
L 94.819348 270.768487 
L 95.033663 271.235012 
L 95.105101 270.973377 
L 95.176539 271.259546 
L 95.247978 271.241422 
L 95.319416 271.223368 
L 95.462292 271.398508 
L 95.748046 270.069111 
L 95.890922 270.783222 
L 96.248114 269.340607 
L 96.319552 269.680317 
L 96.39099 269.518484 
L 96.533867 269.72438 
L 96.81962 271.237784 
L 97.033935 270.491187 
L 97.176811 270.921005 
L 97.24825 270.702846 
L 97.319688 270.974087 
L 97.462565 270.482642 
L 97.534003 270.466941 
L 97.605441 270.93643 
L 97.676879 270.435708 
L 97.748318 270.676097 
L 97.819756 270.404696 
L 97.891194 270.899307 
L 97.962633 270.74161 
L 98.248386 269.723146 
L 98.534139 270.30866 
L 98.677015 271.112559 
L 98.962769 270.38512 
L 99.391398 268.793505 
L 99.462837 268.945044 
L 99.534275 269.368336 
L 99.891466 267.818745 
L 99.962905 267.83538 
L 100.105781 268.271403 
L 100.248658 268.329708 
L 100.320096 268.158262 
L 100.391534 268.334259 
L 100.462973 268.163376 
L 100.677287 269.032418 
L 100.891602 267.941145 
L 100.963041 268.06252 
L 101.105917 267.123055 
L 101.177355 267.349981 
L 101.248794 267.523848 
L 101.39167 267.009441 
L 101.534547 267.589925 
L 101.748862 267.302699 
L 101.8203 267.422755 
L 101.891738 267.052604 
L 101.963177 267.378584 
L 102.177491 266.864595 
L 102.24893 267.239941 
L 102.320368 267.026824 
L 102.391806 267.069311 
L 102.606121 266.206479 
L 102.67756 266.14867 
L 102.748998 265.863422 
L 102.820436 266.235612 
L 102.963313 265.969598 
L 103.034751 265.96288 
L 103.106189 265.579787 
L 103.177628 265.648862 
L 103.249066 265.492588 
L 103.320504 265.661486 
L 103.463381 265.026684 
L 103.534819 264.748051 
L 103.606257 264.817773 
L 103.963449 265.163164 
L 104.106325 265.766369 
L 104.249202 265.460153 
L 104.606393 266.694812 
L 104.74927 266.219491 
L 104.820708 266.623767 
L 104.892146 266.471444 
L 104.963585 266.416023 
L 105.035023 266.601511 
L 105.106461 266.377793 
L 105.249338 267.178609 
L 105.463653 266.390583 
L 105.606529 266.519343 
L 105.892282 267.554953 
L 106.106597 268.117661 
L 106.249474 267.277215 
L 106.320912 267.479994 
L 106.463789 266.948919 
L 106.535227 267.081277 
L 106.606665 267.492891 
L 106.749542 266.825447 
L 106.82098 267.026824 
L 106.892418 266.903258 
L 106.963857 266.941995 
L 107.106733 266.25788 
L 107.178172 266.458624 
L 107.321048 266.72057 
L 107.463925 266.339724 
L 107.535363 266.493176 
L 107.606801 266.189432 
L 107.67824 266.365466 
L 108.321184 265.135416 
L 108.392623 265.355429 
L 108.464061 265.350289 
L 108.821252 266.684933 
L 109.035567 267.130444 
L 109.107005 267.012041 
L 109.178444 267.381112 
L 109.464197 266.314805 
L 109.678512 266.778276 
L 109.821388 266.480054 
L 109.964265 266.946849 
L 110.035703 266.896134 
L 110.107141 267.019573 
L 110.17858 266.621339 
L 110.250018 266.63635 
L 110.821524 265.810738 
L 110.892963 265.869517 
L 110.964401 266.035153 
L 111.035839 265.730111 
L 111.107277 265.938184 
L 111.178716 265.591448 
L 111.250154 265.607549 
L 111.393031 265.958114 
L 111.464469 265.698007 
L 111.535907 265.862118 
L 111.607345 265.793161 
L 111.750222 265.55033 
L 111.82166 265.524186 
L 111.893099 265.245663 
L 112.178852 266.085093 
L 112.321728 265.572687 
L 112.393167 265.755243 
L 112.464605 265.729138 
L 112.67892 266.563684 
L 112.750358 266.226008 
L 112.964673 266.786132 
L 113.393303 265.416329 
L 113.464741 265.534247 
L 113.536179 265.202622 
L 113.679056 265.662154 
L 114.036247 264.503638 
L 114.107686 264.479872 
L 114.250562 263.888119 
L 114.322 263.965905 
L 114.393439 264.08372 
L 114.607754 263.473629 
L 114.679192 263.511424 
L 114.822068 262.927988 
L 115.250698 264.345379 
L 115.393575 263.884235 
L 115.465013 264.157895 
L 115.536451 264.016844 
L 115.60789 263.974599 
L 115.679328 263.735781 
L 115.750766 263.851132 
L 115.965081 264.195493 
L 116.036519 263.879674 
L 116.250834 264.358588 
L 116.322272 264.063559 
L 116.393711 264.235539 
L 116.465149 264.32948 
L 116.608026 264.710266 
L 116.750902 264.741604 
L 116.893779 264.483812 
L 116.965217 264.576665 
L 117.036655 264.361791 
L 117.179532 264.758025 
L 117.393847 264.326748 
L 117.465285 264.495339 
L 117.536723 264.206118 
L 117.608162 264.317343 
L 117.6796 264.637454 
L 117.751038 264.520012 
L 117.822476 264.345943 
L 117.893915 264.380692 
L 118.10823 265.145214 
L 118.251106 265.080581 
L 118.608298 266.202947 
L 118.751174 265.725397 
L 118.822613 265.907284 
L 119.179804 264.78835 
L 119.251242 264.951529 
L 119.322681 264.799695 
L 119.465557 265.23569 
L 119.679872 264.579408 
L 119.75131 264.484188 
L 119.822749 264.62786 
L 120.17994 263.625356 
L 120.251378 263.914895 
L 120.322817 263.766659 
L 120.394255 263.727914 
L 120.680008 264.515543 
L 120.751446 264.421902 
L 120.894323 263.892324 
L 121.037199 264.21152 
L 121.108638 264.226675 
L 121.394391 263.660191 
L 121.465829 263.568552 
L 121.537267 263.691529 
L 121.608706 263.385887 
L 121.680144 263.562277 
L 121.751582 263.595811 
L 121.965897 264.459165 
L 122.108774 264.240525 
L 122.25165 264.376259 
L 122.465965 263.839031 
L 122.68028 264.11283 
L 122.823157 263.862308 
L 122.894595 263.947418 
L 123.10891 263.521495 
L 123.180348 263.745968 
L 123.251786 263.691529 
L 123.323225 263.793652 
L 123.466101 263.546265 
L 123.53754 263.648214 
L 123.823293 262.949714 
L 123.894731 262.810495 
L 123.966169 262.981435 
L 124.037608 262.808088 
L 124.109046 262.892777 
L 124.180484 262.771374 
L 124.466237 263.552707 
L 124.609114 263.395296 
L 124.680552 263.189106 
L 124.75199 263.476738 
L 124.823429 263.23691 
L 124.894867 263.455972 
L 124.966305 263.267551 
L 125.037744 263.299765 
L 125.323497 263.815944 
L 125.394935 263.67889 
L 125.466373 263.777805 
L 125.60925 264.075806 
L 125.680688 264.090087 
L 125.895003 263.563973 
L 125.966441 263.678996 
L 126.03788 263.409821 
L 126.109318 263.474735 
L 126.252194 263.104906 
L 126.323633 263.352805 
L 126.395071 263.251437 
L 126.823701 262.433058 
L 127.038016 263.121821 
L 127.395207 262.459721 
L 127.466645 262.573405 
L 127.752398 262.081224 
L 127.895275 262.177949 
L 127.966713 261.950141 
L 128.10959 262.43573 
L 128.181028 262.289289 
L 128.323905 262.029604 
L 128.395343 262.093816 
L 128.53822 262.173534 
L 128.895411 262.972388 
L 129.038288 263.001813 
L 129.109726 263.160279 
L 129.181164 262.951314 
L 129.252603 263.045731 
L 129.395479 263.29766 
L 129.466917 263.280165 
L 129.538356 263.500941 
L 129.609794 263.43568 
L 129.824109 262.92428 
L 130.1813 262.351509 
L 130.252739 262.618207 
L 130.538492 262.050643 
L 130.681368 262.049939 
L 130.752807 261.768448 
L 130.824245 261.830786 
L 131.109998 261.332861 
L 131.181436 261.566129 
L 131.252875 261.36458 
L 131.324313 261.457883 
L 131.395751 261.473591 
L 131.467189 261.334588 
L 131.538628 261.47401 
L 131.752943 261.135648 
L 131.967257 261.797902 
L 132.038696 261.690353 
L 132.181572 261.552473 
L 132.395887 261.736181 
L 132.467325 261.614045 
L 132.538764 261.476894 
L 132.610202 261.522795 
L 132.68164 261.751225 
L 132.967393 261.250701 
L 133.038832 261.372285 
L 133.11027 261.115346 
L 133.181708 261.312416 
L 133.324585 260.935904 
L 133.5389 261.419517 
L 133.610338 261.404739 
L 133.753215 261.075183 
L 133.896091 261.420784 
L 133.96753 261.690353 
L 134.181844 261.466549 
L 134.396159 261.660596 
L 134.539036 261.259673 
L 134.610474 261.438119 
L 134.681912 261.245647 
L 134.753351 261.438586 
L 134.896227 261.113837 
L 134.967666 261.306363 
L 135.039104 261.188676 
L 135.253419 261.631495 
L 135.539172 261.426462 
L 135.682048 261.617184 
L 135.753487 261.58801 
L 135.896363 261.836291 
L 136.110678 261.632137 
L 136.253555 261.850157 
L 136.396431 261.87887 
L 136.753623 261.531558 
L 137.039376 262.165026 
L 137.182252 261.79086 
L 137.396567 262.119944 
L 137.610882 261.833167 
L 137.753759 262.075263 
L 137.968074 261.804097 
L 138.11095 261.903244 
L 138.182388 261.690353 
L 138.253827 261.846197 
L 138.682456 260.858878 
L 138.896771 260.875124 
L 139.039648 261.157174 
L 139.111086 261.017453 
L 139.325401 261.382749 
L 139.468278 260.88081 
L 139.539716 261.034915 
L 139.754031 261.231352 
L 139.896907 260.982218 
L 139.968346 261.121561 
L 140.039784 261.011166 
L 140.254099 261.330902 
L 140.325537 261.082575 
L 140.396975 261.165907 
L 140.682729 261.786629 
L 140.897043 262.019595 
L 141.182797 261.649338 
L 141.397111 262.263092 
L 141.46855 262.058229 
L 141.539988 262.207664 
L 141.682865 262.098063 
L 141.754303 262.274242 
L 141.825741 262.233045 
L 141.897179 262.191918 
L 141.968618 262.421747 
L 142.111494 262.12304 
L 142.182933 262.190225 
L 142.397247 261.838588 
L 142.754439 262.616295 
L 142.897315 262.547761 
L 142.968754 262.3998 
L 143.040192 262.452706 
L 143.468822 263.061067 
L 143.683137 262.805436 
L 143.826013 262.883107 
L 143.897451 262.842395 
L 144.040328 263.237092 
L 144.39752 262.611947 
L 144.683273 263.146947 
L 144.897588 263.064832 
L 144.969026 263.259903 
L 145.040464 263.219415 
L 145.397656 262.549395 
L 145.469094 262.535691 
L 145.540532 262.314096 
L 145.61197 262.365527 
L 145.754847 262.7274 
L 145.969162 262.311073 
L 146.0406 262.297651 
L 146.326353 262.862402 
L 146.397792 262.681289 
L 146.46923 262.744788 
L 146.612106 262.781612 
L 146.89786 263.379595 
L 146.969298 263.199227 
L 147.040736 263.24913 
L 147.255051 263.207168 
L 147.326489 263.320587 
L 147.469366 263.101826 
L 147.612242 263.45507 
L 147.755119 263.198761 
L 147.897996 262.955919 
L 148.040872 262.8402 
L 148.398064 262.470686 
L 148.469502 262.620986 
L 148.54094 262.557425 
L 148.612378 262.569301 
L 148.755255 262.304653 
L 148.826693 262.467022 
L 149.112446 261.852695 
L 149.183885 262.077174 
L 149.255323 262.026999 
L 149.3982 262.263007 
L 149.541076 262.684726 
L 149.612515 262.584595 
L 149.683953 262.509439 
L 149.755391 262.694816 
L 149.969706 262.308955 
L 150.041144 262.22194 
L 150.469774 262.896289 
L 150.541212 262.833882 
L 150.612651 262.611846 
L 150.755527 262.929396 
L 150.969842 262.596084 
L 151.184157 262.423049 
L 151.46991 262.871275 
L 151.541348 262.651404 
L 151.612787 262.820858 
L 151.89854 262.45386 
L 151.969978 262.550162 
L 152.041416 262.489008 
L 152.327169 262.474537 
L 152.470046 262.232432 
L 152.755799 262.302866 
L 152.898676 262.229996 
L 153.327305 262.585734 
L 153.470182 262.94202 
L 153.54162 262.869618 
L 153.613059 262.761615 
L 153.684497 262.820289 
L 153.755935 262.831336 
L 153.827373 262.996759 
L 153.898812 262.794041 
L 153.97025 262.876235 
L 154.041688 262.839807 
L 154.184565 263.133921 
L 154.327441 262.907305 
L 154.39888 263.000858 
L 154.541756 263.211129 
L 154.756071 262.960754 
L 155.256139 262.532954 
L 155.470454 262.752976 
L 155.541892 262.705527 
L 155.827646 263.191235 
L 155.899084 263.155266 
L 156.04196 263.513034 
L 156.113399 263.3609 
L 156.327714 263.658249 
L 156.47059 263.609171 
L 156.542028 263.550032 
L 156.756343 263.868739 
L 156.970658 263.714531 
L 157.756479 264.737048 
L 157.827918 264.552434 
L 157.970794 264.844412 
L 158.185109 264.758161 
L 158.256547 264.880881 
L 158.399424 264.626924 
L 158.685177 265.059565 
L 158.756615 264.876418 
L 158.97093 265.151543 
L 159.042368 265.273036 
L 159.256683 265.040637 
L 159.470998 265.415037 
L 159.756751 265.225625 
L 159.82819 265.301414 
L 160.042505 264.97033 
L 160.256819 265.219549 
L 160.328258 265.072466 
L 160.399696 265.214647 
L 160.542573 264.987714 
L 160.614011 265.140753 
L 160.828326 264.845735 
L 161.042641 264.982834 
L 161.328394 264.621188 
L 161.685585 264.907608 
L 161.8999 264.583224 
L 162.042777 264.601155 
L 162.399968 264.187734 
L 162.471406 264.273219 
L 162.614283 264.073807 
L 162.757159 264.200994 
L 162.971474 264.065733 
L 163.042913 263.86902 
L 163.114351 263.943369 
L 163.257227 264.199936 
L 163.328666 264.090143 
L 163.400104 263.94809 
L 163.471542 264.01134 
L 163.614419 263.965091 
L 163.757295 263.918966 
L 163.97161 263.925224 
L 164.043049 263.751927 
L 164.40024 264.290812 
L 164.685993 263.931671 
L 164.971746 264.383426 
L 165.400376 263.810805 
L 165.543253 264.009176 
L 165.757568 263.941181 
L 165.829006 264.119221 
L 165.900444 264.02264 
L 166.186197 263.679688 
L 166.329074 263.992429 
L 166.400512 263.938394 
L 166.47195 263.999907 
L 166.686265 263.84869 
L 166.90058 264.116338 
L 167.043457 264.113173 
L 167.114895 264.048976 
L 167.186333 264.193453 
L 167.257772 264.129287 
L 167.543525 264.310075 
L 167.829278 264.479557 
L 167.900716 264.291235 
L 167.972154 264.465594 
L 168.043593 264.349964 
L 168.115031 264.337904 
L 168.329346 263.919904 
L 168.472222 264.020119 
L 168.543661 263.843485 
L 168.615099 263.95535 
L 168.686537 264.128804 
L 168.757976 264.044981 
L 168.829414 264.074296 
L 169.258044 263.63523 
L 169.543797 264.161193 
L 169.686673 264.17844 
L 169.82955 264.389141 
L 169.972426 264.253486 
L 170.115303 264.148651 
L 170.329618 264.367037 
L 170.543933 264.017891 
L 170.615371 264.006307 
L 170.686809 263.833027 
L 170.758248 263.942781 
L 170.972563 263.837711 
L 171.044001 263.846435 
L 171.115439 263.724253 
L 171.329754 263.941519 
L 171.758384 263.45249 
L 171.829822 263.421371 
L 171.90126 263.260295 
L 172.044137 263.378182 
L 172.115575 263.217435 
L 172.187013 263.296281 
L 172.544205 263.420563 
L 172.972835 262.948518 
L 173.044273 263.026946 
L 173.258588 262.698353 
L 173.330026 262.835999 
L 173.401464 262.795812 
L 173.472903 262.666897 
L 173.615779 262.882438 
L 173.901532 262.574851 
L 174.044409 262.514872 
L 174.115847 262.602654 
L 174.330162 262.287646 
L 174.615915 262.608525 
L 174.83023 262.987096 
L 174.973107 262.868661 
L 175.044545 262.916606 
L 175.115983 262.740788 
L 175.401736 263.145754 
L 175.687489 262.648595 
L 175.758928 262.793116 
L 175.901804 262.965695 
L 176.044681 262.819407 
L 176.330434 263.153631 
L 176.830502 262.428511 
L 176.90194 262.5622 
L 177.044817 262.293218 
L 177.116255 262.359803 
L 177.187694 262.41675 
L 177.402008 262.300962 
L 177.473447 262.281528 
L 177.544885 262.414588 
L 177.616323 262.337967 
L 177.687762 262.213847 
L 177.7592 262.270611 
L 177.902076 262.459945 
L 177.973515 262.317056 
L 178.116391 262.268892 
L 178.259268 262.448195 
L 178.473583 262.494133 
L 178.616459 262.644306 
L 178.759336 262.473371 
L 179.259404 262.695639 
L 179.688034 262.008669 
L 179.973787 262.073309 
L 180.188102 261.904806 
L 180.25954 262.016505 
L 180.330978 261.848678 
L 180.402416 261.904432 
L 180.759608 261.560421 
L 180.902484 261.514222 
L 181.045361 261.569981 
L 181.759744 261.211636 
L 181.974059 261.175699 
L 182.259812 260.745926 
L 182.33125 260.883926 
L 182.545565 261.03168 
L 182.831318 260.759361 
L 183.117071 260.397215 
L 183.331386 260.363054 
L 183.474263 260.37364 
L 183.545701 260.410689 
L 183.617139 260.266286 
L 183.760016 260.512524 
L 184.117207 260.244808 
L 184.331522 260.382542 
L 184.402961 260.356235 
L 184.474399 260.456088 
L 184.760152 260.180201 
L 185.26022 259.953314 
L 185.331658 260.079568 
L 185.403097 259.955255 
L 185.617411 260.243881 
L 185.974603 260.230095 
L 186.117479 260.124988 
L 186.188918 260.161414 
L 186.331794 260.02992 
L 186.546109 260.272022 
L 186.831862 259.921357 
L 187.260492 259.874307 
L 187.403369 259.75302 
L 187.474807 259.745284 
L 187.689122 260.161463 
L 187.76056 260.004227 
L 188.260628 260.264378 
L 188.403505 260.187286 
L 188.903573 260.67181 
L 189.117888 260.499642 
L 189.475079 260.927587 
L 189.689394 260.729788 
L 189.760832 260.851394 
L 189.83227 260.782692 
L 189.903709 260.800461 
L 190.046585 260.706486 
L 190.2609 260.932103 
L 190.332338 260.803333 
L 190.546653 261.019712 
L 190.68953 261.020431 
L 190.760968 260.917781 
L 190.975283 261.098999 
L 191.046721 261.116447 
L 191.261036 260.792389 
L 191.475351 260.887748 
L 191.546789 260.760169 
L 191.832543 261.060195 
L 191.903981 261.06053 
L 191.975419 261.213984 
L 192.046857 261.061199 
L 192.118296 261.172001 
L 192.189734 261.121318 
L 192.332611 261.037081 
L 192.689802 261.385734 
L 193.118432 260.931213 
L 193.18987 261.0665 
L 193.332747 260.949254 
L 193.547061 261.017689 
L 193.975691 261.648443 
L 194.190006 261.681984 
L 194.547197 261.164496 
L 194.618636 261.239854 
L 194.690074 261.165044 
L 194.832951 261.082295 
L 194.975827 260.92483 
L 195.047265 261.049976 
L 195.118704 260.900688 
L 195.26158 261.117402 
L 195.333019 261.026406 
L 195.69021 261.425461 
L 195.833087 261.467081 
L 195.975963 261.591223 
L 196.11884 261.60783 
L 196.261716 261.673865 
L 196.476031 261.468114 
L 196.547469 261.51759 
L 196.690346 261.361618 
L 196.761784 261.386429 
L 197.190414 260.77319 
L 197.404729 260.938123 
L 197.476167 260.922163 
L 197.690482 260.654066 
L 197.833359 260.581758 
L 198.19055 259.966638 
L 198.61918 260.166419 
L 198.762056 259.876439 
L 198.833495 259.950199 
L 198.976371 259.895358 
L 199.04781 259.888183 
L 199.190686 259.728534 
L 199.262124 259.842492 
L 199.333563 259.722445 
L 199.547878 259.967006 
L 199.762192 259.736417 
L 199.833631 259.753471 
L 199.976507 259.586809 
L 200.119384 259.604959 
L 200.190822 259.589969 
L 200.26226 259.727237 
L 200.333699 259.616097 
L 200.405137 259.689176 
L 200.476575 259.682176 
L 200.69089 259.860934 
L 200.762328 259.734091 
L 200.833767 259.806893 
L 200.976643 259.78485 
L 201.190958 260.074286 
L 201.405273 260.005152 
L 201.833903 259.867499 
L 201.905341 259.765421 
L 202.119656 260.068846 
L 202.191094 259.974776 
L 202.548286 260.02632 
L 202.762601 259.855531 
L 203.61986 260.539554 
L 203.762737 260.431186 
L 203.834175 260.509972 
L 204.04849 260.285334 
L 204.834311 259.881336 
L 204.905749 259.750289 
L 205.191502 260.110324 
L 205.334379 260.181491 
L 205.477255 260.383935 
L 205.620132 260.277076 
L 205.834447 260.456487 
L 206.334515 260.967893 
L 206.834583 260.633272 
L 206.906021 260.771592 
L 206.977459 260.802642 
L 207.120336 260.650582 
L 207.191774 260.750421 
L 207.263213 260.674489 
L 207.691842 260.936342 
L 207.834719 260.906622 
L 208.549102 261.357139 
L 208.691978 261.19857 
L 208.906293 261.342815 
L 208.977732 261.282566 
L 209.04917 261.418623 
L 209.120608 261.350851 
L 209.334923 261.162984 
L 209.406361 261.253596 
L 209.4778 261.193587 
L 210.192182 261.233369 
L 210.549374 260.830837 
L 210.835127 260.810059 
L 211.192318 260.648364 
L 211.335195 260.827793 
L 211.620948 260.458289 
L 211.906701 260.542061 
L 212.121016 260.432682 
L 212.549646 260.362383 
L 212.621084 260.473608 
L 212.692523 260.356235 
L 212.906837 260.490567 
L 213.049714 260.572562 
L 213.478344 260.384959 
L 213.62122 260.246941 
L 213.692659 260.320838 
L 213.764097 260.226301 
L 213.978412 260.33796 
L 214.121288 260.22964 
L 214.264165 260.311238 
L 214.335603 260.399389 
L 214.407041 260.268752 
L 214.47848 260.327695 
L 214.621356 260.372616 
L 214.907109 260.135194 
L 215.192863 260.079982 
L 215.264301 259.971951 
L 215.335739 260.045203 
L 215.407177 260.176341 
L 215.478616 260.090136 
L 215.621492 260.033708 
L 215.692931 259.911529 
L 215.764369 260.006293 
L 215.907245 260.000591 
L 216.050122 259.922752 
L 216.478752 259.625319 
L 216.55019 259.748511 
L 216.621628 259.677495 
L 216.907381 259.551938 
L 217.193135 259.577254 
L 217.407449 259.472785 
L 217.478888 259.566728 
L 217.693203 259.298224 
L 217.764641 259.406353 
L 217.907518 259.180191 
L 217.978956 259.259717 
L 218.264709 259.071925 
L 218.550462 259.389089 
L 219.05053 259.282923 
L 219.193407 259.391167 
L 219.407722 259.090413 
L 219.550598 259.297412 
L 219.622036 259.242021 
L 219.764913 259.349919 
L 220.050666 259.051439 
L 220.193543 259.215468 
L 220.336419 259.161442 
L 220.407858 259.239789 
L 220.479296 259.149622 
L 220.907926 259.660301 
L 220.979364 259.58422 
L 221.12224 259.683933 
L 221.407994 259.624622 
L 221.55087 259.717067 
L 221.908062 259.310858 
L 221.9795 259.423164 
L 222.050938 259.375488 
L 222.193815 259.446952 
L 222.479568 259.783645 
L 222.765321 260.14686 
L 223.336827 259.65555 
L 223.408266 259.642637 
L 223.551142 259.885505 
L 223.622581 259.796767 
L 223.836895 259.716684 
L 223.979772 259.80083 
L 224.47984 260.101057 
L 224.551278 260.14967 
L 224.622717 260.040815 
L 224.837031 260.200152 
L 225.837167 260.317729 
L 226.194359 259.995159 
L 226.408674 259.9025 
L 226.480112 259.794947 
L 226.55155 259.863412 
L 226.837303 260.001596 
L 227.051618 260.17914 
L 227.265933 260.093455 
L 227.337371 260.03351 
L 227.623125 260.352313 
L 227.694563 260.413364 
L 227.837439 260.313705 
L 227.980316 260.482602 
L 228.408946 260.104136 
L 229.05189 259.469972 
L 229.266205 259.552657 
L 229.623397 259.357724 
L 229.980588 259.667623 
L 230.33778 259.400458 
L 230.623533 259.463703 
L 230.909286 259.190325 
L 231.123601 259.140706 
L 231.266477 259.04406 
L 231.766545 259.471746 
L 232.123737 259.220816 
L 232.338052 259.236929 
L 232.480928 259.193172 
L 232.766681 259.314721 
L 233.052434 259.201303 
L 233.195311 259.274944 
L 233.481064 259.415365 
L 233.623941 259.462674 
L 233.838256 259.290239 
L 234.266885 259.393125 
L 234.4812 259.505782 
L 234.552639 259.396833 
L 234.624077 259.475255 
L 234.766953 259.444776 
L 234.981268 259.428153 
L 235.267021 259.753523 
L 235.481336 259.60161 
L 235.552775 259.647418 
L 235.624213 259.54549 
L 235.767089 259.617792 
L 236.195719 259.270698 
L 236.267157 259.348449 
L 236.410034 259.254416 
L 236.552911 259.333021 
L 236.767225 259.131655 
L 237.267293 259.628728 
L 237.695923 259.582849 
L 237.910238 259.401483 
L 238.195991 259.607673 
L 238.338868 259.735826 
L 238.481744 259.554079 
L 238.767497 259.816173 
L 238.981812 259.938142 
L 239.053251 259.844325 
L 239.124689 259.901733 
L 239.410442 260.124625 
L 239.553319 260.050456 
L 239.696195 260.083134 
L 240.267702 259.800266 
L 240.696331 259.785957 
L 240.982084 259.695411 
L 241.053523 259.714883 
L 241.124961 259.603523 
L 241.196399 259.672831 
L 241.339276 259.792619 
L 241.553591 259.714036 
L 241.839344 259.748126 
L 242.053659 259.6946 
L 242.41085 259.667525 
L 242.625165 259.453608 
L 242.83948 259.610487 
L 243.196671 259.343456 
L 243.482424 259.562325 
L 243.696739 259.343616 
L 243.768178 259.455053 
L 243.839616 259.363832 
L 243.911054 259.284953 
L 243.982492 259.353347 
L 244.411122 259.646338 
L 244.696875 259.350046 
L 245.125505 259.788245 
L 245.625573 260.012192 
L 245.76845 259.989163 
L 245.911326 260.02688 
L 246.054203 259.931077 
L 246.268518 260.084564 
L 246.411394 260.134219 
L 246.554271 260.208 
L 247.054339 260.248118 
L 247.268654 260.418521 
L 247.41153 260.407432 
L 247.625845 260.37278 
L 247.697283 260.325163 
L 247.768722 260.415852 
L 247.983037 260.279171 
L 248.197351 260.460705 
L 248.411666 260.354238 
L 248.554543 260.474979 
L 248.697419 260.439992 
L 248.840296 260.470816 
L 249.340364 260.134131 
L 249.483241 260.093582 
L 249.768994 260.084057 
L 249.91187 260.120919 
L 250.054747 260.217131 
L 250.197624 260.212287 
L 250.411938 260.302871 
L 250.697692 260.198352 
L 250.76913 260.281761 
L 250.912006 260.099466 
L 251.054883 260.189286 
L 251.269198 260.090592 
L 251.412074 260.103569 
L 251.697828 260.32384 
L 252.055019 260.220521 
L 252.697964 260.301542 
L 252.84084 260.44895 
L 252.983717 260.397195 
L 253.26947 260.539311 
L 253.483785 260.528897 
L 253.626661 260.477254 
L 253.769538 260.565556 
L 254.269606 260.731183 
L 254.769674 260.733615 
L 254.912551 260.560481 
L 254.983989 260.613019 
L 255.126865 260.60801 
L 255.269742 260.608792 
L 255.555495 260.725861 
L 255.698372 260.6977 
L 255.912687 260.935138 
L 256.19844 260.809576 
L 256.412755 260.885282 
L 256.698508 261.208003 
L 256.841384 261.168182 
L 257.198576 261.214939 
L 257.341452 261.158041 
L 257.484329 261.141263 
L 257.627205 260.993049 
L 257.984397 261.239625 
L 258.055835 261.142828 
L 258.127273 261.222842 
L 258.27015 261.257358 
L 258.69878 261.553909 
L 259.341724 261.429669 
L 259.484601 261.407201 
L 259.627477 261.305539 
L 259.841792 261.243763 
L 260.127546 261.351649 
L 260.699052 261.656578 
L 261.341996 261.499564 
L 261.484873 261.438015 
L 261.62775 261.516642 
L 261.842064 261.449652 
L 262.127818 261.489117 
L 262.270694 261.4725 
L 262.627886 261.550947 
L 262.913639 261.384086 
L 263.770898 261.629354 
L 263.985213 261.490928 
L 264.056651 261.557449 
L 264.270966 261.347373 
L 264.413843 261.425004 
L 264.842472 261.348319 
L 264.913911 261.425643 
L 264.985349 261.348554 
L 265.271102 261.277455 
L 265.628294 261.366098 
L 265.985485 261.114277 
L 266.128362 261.229808 
L 266.1998 261.142273 
L 266.271238 261.213687 
L 266.62843 261.198092 
L 267.128498 261.450266 
L 267.199936 261.363074 
L 267.271374 261.439524 
L 267.557127 261.271059 
L 268.128634 260.799734 
L 268.485825 261.104841 
L 268.628702 261.072731 
L 268.914455 260.797635 
L 268.985893 260.857431 
L 269.057331 260.765797 
L 269.12877 260.836374 
L 269.700276 261.167487 
L 269.771714 261.264657 
L 269.843153 261.200159 
L 269.914591 261.243403 
L 270.128906 261.077089 
L 270.200344 261.152583 
L 270.343221 261.066959 
L 270.486097 261.164046 
L 270.77185 260.977036 
L 271.057604 260.972634 
L 271.271918 260.828884 
L 271.343357 260.866614 
L 271.557672 260.765911 
L 271.771986 260.745483 
L 272.486369 260.386828 
L 272.629246 260.435547 
L 272.843561 260.458043 
L 273.129314 260.698385 
L 273.27219 260.656633 
L 273.486505 260.51467 
L 273.629382 260.584248 
L 273.772258 260.399868 
L 273.843697 260.479602 
L 274.12945 260.343915 
L 274.272326 260.413399 
L 274.343765 260.334696 
L 274.415203 260.408967 
L 274.629518 260.331212 
L 274.986709 260.464928 
L 275.201024 260.692063 
L 275.415339 260.535576 
L 275.629654 260.646831 
L 275.701092 260.563299 
L 275.772531 260.631793 
L 275.986845 260.706125 
L 276.129722 260.659682 
L 276.20116 260.73324 
L 276.272599 260.660355 
L 276.486913 260.588237 
L 276.62979 260.458458 
L 276.772667 260.500993 
L 276.986981 260.476097 
L 277.201296 260.26903 
L 277.415611 260.384842 
L 277.629926 260.323759 
L 277.844241 260.247222 
L 278.058556 260.37309 
L 278.558624 260.619264 
L 278.772939 260.671995 
L 279.273007 260.679449 
L 279.630198 260.428756 
L 280.201704 260.473083 
L 280.344581 260.530325 
L 280.916087 260.328503 
L 281.701908 260.420008 
L 281.916223 260.32438 
L 282.201976 260.168313 
L 282.559168 260.231718 
L 282.702044 260.212327 
L 282.844921 260.233568 
L 282.987798 260.219273 
L 283.344989 259.953172 
L 283.559304 259.995298 
L 284.416563 260.016825 
L 284.55944 260.083367 
L 284.702316 260.109549 
L 284.845193 260.155824 
L 284.98807 260.091423 
L 285.130946 260.167801 
L 285.416699 260.370455 
L 285.702452 260.316972 
L 285.916767 260.413406 
L 286.845465 260.014601 
L 286.988342 260.145235 
L 287.274095 259.903233 
L 287.48841 260.02426 
L 287.559848 259.940256 
L 287.774163 260.080967 
L 288.345669 260.144412 
L 288.559984 260.012186 
L 288.845737 259.94504 
L 289.060052 260.070147 
L 289.202929 259.908238 
L 289.274367 259.977879 
L 289.417243 259.954274 
L 289.702997 260.0303 
L 289.774435 259.952019 
L 289.845873 260.031321 
L 290.060188 259.9394 
L 290.560256 259.746844 
L 290.846009 259.81785 
L 291.131762 259.70264 
L 291.274639 259.698962 
L 291.989022 259.436743 
L 292.203337 259.477789 
L 292.346213 259.401207 
L 292.48909 259.456142 
L 292.631966 259.486687 
L 292.846281 259.605338 
L 293.417788 259.542512 
L 293.560664 259.587422 
L 293.774979 259.531237 
L 294.060732 259.717583 
L 294.703677 259.612023 
L 295.132306 259.418422 
L 296.346757 260.03817 
L 296.489634 260.039158 
L 296.703949 260.107583 
L 296.846825 260.060738 
L 296.989702 260.109471 
L 297.418332 260.031248 
L 297.775523 260.024194 
L 297.9184 259.968092 
L 298.061276 260.016663 
L 298.418468 259.905199 
L 298.632783 259.977939 
L 298.847097 259.889413 
L 298.989974 259.83364 
L 299.204289 259.688585 
L 299.56148 259.762419 
L 299.704357 259.787169 
L 299.99011 259.784695 
L 300.204425 259.852357 
L 300.633055 260.236663 
L 300.704493 260.157137 
L 300.775931 260.232815 
L 300.990246 260.191819 
L 301.133123 260.30068 
L 301.418876 260.194453 
L 301.633191 260.200452 
L 301.776067 260.187276 
L 301.918944 260.211553 
L 301.990382 260.296196 
L 302.06182 260.226448 
L 302.49045 260.205666 
L 303.061956 259.911012 
L 303.776339 260.046218 
L 304.919352 259.993716 
L 305.633735 260.399643 
L 305.990926 260.304835 
L 306.205241 260.421006 
L 306.419556 260.362362 
L 306.848186 260.442628 
L 307.276815 260.444769 
L 307.562569 260.276951 
L 307.848322 260.260288 
L 307.991198 260.19261 
L 308.919896 260.512053 
L 309.205649 260.699705 
L 309.848594 260.412138 
L 310.062909 260.340762 
L 310.205785 260.28721 
L 310.4201 260.170816 
L 310.562977 260.135515 
L 311.063045 260.107005 
L 311.420236 260.316445 
L 311.634551 260.286098 
L 311.777427 260.313876 
L 312.634687 260.291603 
L 312.849002 260.351009 
L 313.134755 260.298814 
L 313.420508 260.371878 
L 313.634823 260.341722 
L 314.920712 260.277366 
L 315.206465 260.45647 
L 315.349342 260.412794 
L 315.563657 260.431584 
L 315.706533 260.45886 
L 316.063725 260.509222 
L 316.349478 260.643091 
L 316.706669 260.635709 
L 316.849546 260.561315 
L 317.563929 260.65238 
L 317.706805 260.657346 
L 317.849682 260.662306 
L 318.063997 260.588526 
L 318.206873 260.67249 
L 318.34975 260.655507 
L 318.635503 260.844986 
L 318.77838 260.884848 
L 319.278448 261.104856 
L 319.492763 260.930703 
L 319.778516 261.110333 
L 320.064269 261.110965 
L 320.207145 261.024201 
L 320.350022 261.037618 
L 320.778652 260.830146 
L 320.992967 260.839527 
L 321.564473 260.863027 
L 321.707349 260.9414 
L 321.921664 260.842516 
L 322.207417 260.869357 
L 322.636047 260.879313 
L 322.850362 260.901521 
L 322.993239 260.901945 
L 323.493307 260.955029 
L 323.921936 260.732965 
L 324.136251 260.763763 
L 324.564881 260.855191 
L 324.850634 260.997268 
L 325.207826 261.079372 
L 325.42214 261.024361 
L 325.565017 261.041784 
L 325.993647 261.038559 
L 326.136523 261.060195 
L 326.2794 261.064786 
L 326.565153 261.197232 
L 326.70803 261.201743 
L 327.493851 260.893907 
L 327.92248 260.628698 
L 328.279672 260.60053 
L 328.493987 260.571847 
L 328.708302 260.614905 
L 328.851178 260.598611 
L 329.065493 260.654227 
L 329.351246 260.659524 
L 329.494123 260.731554 
L 329.708438 260.69029 
L 329.994191 260.834055 
L 330.137067 260.830309 
L 330.351382 260.839368 
L 331.851586 260.727287 
L 332.065901 260.832185 
L 332.565969 260.663256 
L 332.851722 260.805557 
L 333.066037 260.623612 
L 333.208914 260.678097 
L 333.566105 260.563396 
L 334.066173 260.532348 
L 334.280488 260.533245 
L 334.566241 260.559208 
L 335.066309 260.474709 
L 335.209186 260.471216 
L 335.352062 260.447143 
L 335.637816 260.543005 
L 335.780692 260.555925 
L 335.85213 260.626072 
L 335.923569 260.552399 
L 336.352198 260.595166 
L 336.923705 260.306773 
L 337.280896 260.165452 
L 338.281032 260.097559 
L 338.423909 260.057654 
L 339.495483 260.254495 
L 339.709798 260.178578 
L 340.495619 260.271695 
L 340.638496 260.240093 
L 340.781372 260.220636 
L 341.067125 260.161613 
L 341.28144 260.182921 
L 341.567193 260.11196 
L 342.1387 260.283904 
L 342.781644 260.455467 
L 343.78178 260.244032 
L 344.138972 260.086219 
L 344.281848 260.079042 
L 344.496163 260.060318 
L 344.924793 260.257743 
L 345.139108 260.20314 
L 345.353423 260.164512 
L 345.567738 260.118 
L 345.710614 260.170372 
L 345.853491 260.107658 
L 346.067806 260.176217 
L 346.639312 259.985372 
L 347.496571 259.816869 
L 348.210954 259.943442 
L 348.996775 259.916761 
L 349.496843 260.049065 
L 349.782597 260.054583 
L 350.496979 260.050764 
L 350.639856 259.993035 
L 350.782733 260.005562 
L 350.997047 260.108118 
L 351.282801 260.171951 
L 351.497115 260.138043 
L 352.211498 259.97492 
L 352.425813 259.933506 
L 352.854443 259.773406 
L 353.068758 259.809624 
L 353.425949 259.869872 
L 353.997455 259.595627 
L 354.568962 259.707465 
L 355.711974 259.730408 
L 356.283481 259.948535 
L 357.783685 259.938193 
L 357.998 260.00415 
L 358.140876 259.989733 
L 358.283753 259.994344 
L 358.498068 260.067752 
L 358.712382 260.027136 
L 359.426765 260.019707 
L 359.64108 259.941394 
L 360.998408 259.76455 
L 361.212723 259.732015 
L 361.498476 259.605931 
L 362.284297 259.896518 
L 362.498612 259.789024 
L 362.712927 259.83533 
L 362.927241 259.750499 
L 363.070118 259.773865 
L 363.284433 259.734063 
L 364.070254 259.638343 
L 364.284569 259.773996 
L 364.498884 259.730625 
L 364.927514 259.476642 
L 365.141828 259.481902 
L 365.427582 259.528525 
L 365.713335 259.415488 
L 366.284841 259.675286 
L 366.499156 259.584144 
L 366.784909 259.519523 
L 366.999224 259.391679 
L 367.1421 259.407516 
L 367.499292 259.362181 
L 367.785045 259.419619 
L 368.642304 259.256775 
L 368.856619 259.243756 
L 369.070934 259.172019 
L 369.713879 259.21384 
L 369.999632 259.413752 
L 370.142509 259.363574 
L 370.4997 259.527018 
L 370.714015 259.506587 
L 370.999768 259.464797 
L 371.285521 259.262696 
L 371.499836 259.297137 
L 371.785589 259.110068 
L 372.142781 259.291122 
L 372.285657 259.284944 
L 372.428534 259.318723 
L 373.214355 259.407952 
L 373.714423 259.570716 
L 373.928738 259.517931 
L 374.214491 259.649902 
L 374.571682 259.511515 
L 374.785997 259.523801 
L 375.000312 259.453214 
L 375.357504 259.416146 
L 375.50038 259.431555 
L 376.071886 259.651029 
L 376.500516 259.75775 
L 376.714831 259.690968 
L 376.857708 259.727678 
L 377.000584 259.660537 
L 377.143461 259.682914 
L 377.286337 259.712425 
L 377.429214 259.777661 
L 377.57209 259.760647 
L 377.714967 259.754364 
L 378.00072 259.723972 
L 378.215035 259.678923 
L 378.357912 259.672689 
L 378.572226 259.691848 
L 378.929418 259.864874 
L 379.429486 259.675853 
L 379.572362 259.669644 
L 380.07243 259.72951 
L 380.215307 259.733923 
L 380.50106 259.682537 
L 381.501196 260.027633 
L 381.715511 259.982871 
L 382.287017 260.169001 
L 382.572771 260.293488 
L 382.715647 260.294102 
L 383.0014 260.379661 
L 383.215715 260.331361 
L 383.358592 260.310897 
L 383.572907 260.269711 
L 384.215851 260.16398 
L 384.358728 260.182144 
L 385.287425 260.095693 
L 385.644617 260.317022 
L 386.073247 260.130836 
L 386.359 260.208708 
L 386.716191 260.106088 
L 387.001944 260.232427 
L 387.287698 260.327333 
L 387.502012 260.335151 
L 387.716327 260.356813 
L 387.930642 260.402677 
L 388.216395 260.355371 
L 388.502148 260.228669 
L 388.787902 260.174689 
L 389.002216 260.237775 
L 389.216531 260.204233 
L 390.002352 260.187106 
L 390.288106 260.367119 
L 390.50242 260.295841 
L 390.93105 260.321646 
L 391.073927 260.370237 
L 391.502557 260.228103 
L 392.002625 260.380741 
L 392.216939 260.371328 
L 392.359816 260.426542 
L 392.502693 260.416838 
L 392.931322 260.357088 
L 393.288514 260.4641 
L 393.502829 260.509135 
L 394.145773 260.521584 
L 394.28865 260.518684 
L 394.574403 260.645228 
L 394.717279 260.642279 
L 395.003033 260.639778 
L 395.145909 260.646997 
L 395.574539 260.421644 
L 395.860292 260.399053 
L 396.146045 260.508223 
L 396.431798 260.451851 
L 396.931866 260.443567 
L 397.074743 260.501352 
L 397.360496 260.394657 
L 397.932002 260.423711 
L 398.146317 260.521881 
L 398.43207 260.573183 
L 399.146453 260.438258 
L 399.432206 260.405854 
L 400.789534 260.20436 
L 401.075287 260.298809 
L 401.218164 260.316026 
L 401.503917 260.323817 
L 401.718232 260.248243 
L 402.432615 260.526454 
L 402.575491 260.516992 
L 403.075559 260.697419 
L 403.289874 260.641803 
L 403.504189 260.70526 
L 403.789942 260.636711 
L 404.218572 260.703991 
L 404.432887 260.787021 
L 404.861516 260.623498 
L 405.004393 260.600897 
L 405.218708 260.489729 
L 405.575899 260.635546 
L 407.21898 260.781136 
L 407.433295 260.775156 
L 407.861924 260.988472 
L 408.219116 261.060934 
L 408.433431 261.093911 
L 409.004937 261.114405 
L 409.362128 260.96546 
L 410.576579 261.133166 
L 410.790894 261.078466 
L 411.219524 261.179449 
L 411.719592 261.054239 
L 412.148222 261.184012 
L 412.362537 261.148863 
L 412.791166 261.239656 
L 413.219796 261.153383 
L 414.148494 261.180438 
L 414.72 261.155639 
L 414.72 261.155639 
" style="fill:none;stroke:#ff7f0e;stroke-linecap:square;stroke-width:1.5;"/>
   </g>
   <g id="patch_3">
    <path d="M 57.6 307.584 
L 57.6 41.472 
" style="fill:none;stroke:#000000;stroke-linecap:square;stroke-linejoin:miter;stroke-width:0.8;"/>
   </g>
   <g id="patch_4">
    <path d="M 414.72 307.584 
L 414.72 41.472 
" style="fill:none;stroke:#000000;stroke-linecap:square;stroke-linejoin:miter;stroke-width:0.8;"/>
   </g>
   <g id="patch_5">
    <path d="M 57.6 307.584 
L 414.72 307.584 
" style="fill:none;stroke:#000000;stroke-linecap:square;stroke-linejoin:miter;stroke-width:0.8;"/>
   </g>
   <g id="patch_6">
    <path d="M 57.6 41.472 
L 414.72 41.472 
" style="fill:none;stroke:#000000;stroke-linecap:square;stroke-linejoin:miter;stroke-width:0.8;"/>
   </g>
   <g id="text_17">
    <!-- Grafico valores promedio esperados vs valores promedio obtenidos -->
    <defs>
     <path d="M 59.515625 10.40625 
L 59.515625 29.984375 
L 43.40625 29.984375 
L 43.40625 38.09375 
L 69.28125 38.09375 
L 69.28125 6.78125 
Q 63.578125 2.734375 56.6875 0.65625 
Q 49.8125 -1.421875 42 -1.421875 
Q 24.90625 -1.421875 15.25 8.5625 
Q 5.609375 18.5625 5.609375 36.375 
Q 5.609375 54.25 15.25 64.234375 
Q 24.90625 74.21875 42 74.21875 
Q 49.125 74.21875 55.546875 72.453125 
Q 61.96875 70.703125 67.390625 67.28125 
L 67.390625 56.78125 
Q 61.921875 61.421875 55.765625 63.765625 
Q 49.609375 66.109375 42.828125 66.109375 
Q 29.4375 66.109375 22.71875 58.640625 
Q 16.015625 51.171875 16.015625 36.375 
Q 16.015625 21.625 22.71875 14.15625 
Q 29.4375 6.6875 42.828125 6.6875 
Q 48.046875 6.6875 52.140625 7.59375 
Q 56.25 8.5 59.515625 10.40625 
z
" id="DejaVuSans-47"/>
     <path d="M 37.109375 75.984375 
L 37.109375 68.5 
L 28.515625 68.5 
Q 23.6875 68.5 21.796875 66.546875 
Q 19.921875 64.59375 19.921875 59.515625 
L 19.921875 54.6875 
L 34.71875 54.6875 
L 34.71875 47.703125 
L 19.921875 47.703125 
L 19.921875 0 
L 10.890625 0 
L 10.890625 47.703125 
L 2.296875 47.703125 
L 2.296875 54.6875 
L 10.890625 54.6875 
L 10.890625 58.5 
Q 10.890625 67.625 15.140625 71.796875 
Q 19.390625 75.984375 28.609375 75.984375 
z
" id="DejaVuSans-66"/>
     <path d="M 48.78125 52.59375 
L 48.78125 44.1875 
Q 44.96875 46.296875 41.140625 47.34375 
Q 37.3125 48.390625 33.40625 48.390625 
Q 24.65625 48.390625 19.8125 42.84375 
Q 14.984375 37.3125 14.984375 27.296875 
Q 14.984375 17.28125 19.8125 11.734375 
Q 24.65625 6.203125 33.40625 6.203125 
Q 37.3125 6.203125 41.140625 7.25 
Q 44.96875 8.296875 48.78125 10.40625 
L 48.78125 2.09375 
Q 45.015625 0.34375 40.984375 -0.53125 
Q 36.96875 -1.421875 32.421875 -1.421875 
Q 20.0625 -1.421875 12.78125 6.34375 
Q 5.515625 14.109375 5.515625 27.296875 
Q 5.515625 40.671875 12.859375 48.328125 
Q 20.21875 56 33.015625 56 
Q 37.15625 56 41.109375 55.140625 
Q 45.0625 54.296875 48.78125 52.59375 
z
" id="DejaVuSans-63"/>
     <path id="DejaVuSans-20"/>
     <path d="M 2.984375 54.6875 
L 12.5 54.6875 
L 29.59375 8.796875 
L 46.6875 54.6875 
L 56.203125 54.6875 
L 35.6875 0 
L 23.484375 0 
z
" id="DejaVuSans-76"/>
     <path d="M 18.109375 8.203125 
L 18.109375 -20.796875 
L 9.078125 -20.796875 
L 9.078125 54.6875 
L 18.109375 54.6875 
L 18.109375 46.390625 
Q 20.953125 51.265625 25.265625 53.625 
Q 29.59375 56 35.59375 56 
Q 45.5625 56 51.78125 48.09375 
Q 58.015625 40.1875 58.015625 27.296875 
Q 58.015625 14.40625 51.78125 6.484375 
Q 45.5625 -1.421875 35.59375 -1.421875 
Q 29.59375 -1.421875 25.265625 0.953125 
Q 20.953125 3.328125 18.109375 8.203125 
z
M 48.6875 27.296875 
Q 48.6875 37.203125 44.609375 42.84375 
Q 40.53125 48.484375 33.40625 48.484375 
Q 26.265625 48.484375 22.1875 42.84375 
Q 18.109375 37.203125 18.109375 27.296875 
Q 18.109375 17.390625 22.1875 11.75 
Q 26.265625 6.109375 33.40625 6.109375 
Q 40.53125 6.109375 44.609375 11.75 
Q 48.6875 17.390625 48.6875 27.296875 
z
" id="DejaVuSans-70"/>
     <path d="M 52 44.1875 
Q 55.375 50.25 60.0625 53.125 
Q 64.75 56 71.09375 56 
Q 79.640625 56 84.28125 50.015625 
Q 88.921875 44.046875 88.921875 33.015625 
L 88.921875 0 
L 79.890625 0 
L 79.890625 32.71875 
Q 79.890625 40.578125 77.09375 44.375 
Q 74.3125 48.1875 68.609375 48.1875 
Q 61.625 48.1875 57.5625 43.546875 
Q 53.515625 38.921875 53.515625 30.90625 
L 53.515625 0 
L 44.484375 0 
L 44.484375 32.71875 
Q 44.484375 40.625 41.703125 44.40625 
Q 38.921875 48.1875 33.109375 48.1875 
Q 26.21875 48.1875 22.15625 43.53125 
Q 18.109375 38.875 18.109375 30.90625 
L 18.109375 0 
L 9.078125 0 
L 9.078125 54.6875 
L 18.109375 54.6875 
L 18.109375 46.1875 
Q 21.1875 51.21875 25.484375 53.609375 
Q 29.78125 56 35.6875 56 
Q 41.65625 56 45.828125 52.96875 
Q 50 49.953125 52 44.1875 
z
" id="DejaVuSans-6d"/>
     <path d="M 48.6875 27.296875 
Q 48.6875 37.203125 44.609375 42.84375 
Q 40.53125 48.484375 33.40625 48.484375 
Q 26.265625 48.484375 22.1875 42.84375 
Q 18.109375 37.203125 18.109375 27.296875 
Q 18.109375 17.390625 22.1875 11.75 
Q 26.265625 6.109375 33.40625 6.109375 
Q 40.53125 6.109375 44.609375 11.75 
Q 48.6875 17.390625 48.6875 27.296875 
z
M 18.109375 46.390625 
Q 20.953125 51.265625 25.265625 53.625 
Q 29.59375 56 35.59375 56 
Q 45.5625 56 51.78125 48.09375 
Q 58.015625 40.1875 58.015625 27.296875 
Q 58.015625 14.40625 51.78125 6.484375 
Q 45.5625 -1.421875 35.59375 -1.421875 
Q 29.59375 -1.421875 25.265625 0.953125 
Q 20.953125 3.328125 18.109375 8.203125 
L 18.109375 0 
L 9.078125 0 
L 9.078125 75.984375 
L 18.109375 75.984375 
z
" id="DejaVuSans-62"/>
     <path d="M 18.3125 70.21875 
L 18.3125 54.6875 
L 36.8125 54.6875 
L 36.8125 47.703125 
L 18.3125 47.703125 
L 18.3125 18.015625 
Q 18.3125 11.328125 20.140625 9.421875 
Q 21.96875 7.515625 27.59375 7.515625 
L 36.8125 7.515625 
L 36.8125 0 
L 27.59375 0 
Q 17.1875 0 13.234375 3.875 
Q 9.28125 7.765625 9.28125 18.015625 
L 9.28125 47.703125 
L 2.6875 47.703125 
L 2.6875 54.6875 
L 9.28125 54.6875 
L 9.28125 70.21875 
z
" id="DejaVuSans-74"/>
     <path d="M 54.890625 33.015625 
L 54.890625 0 
L 45.90625 0 
L 45.90625 32.71875 
Q 45.90625 40.484375 42.875 44.328125 
Q 39.84375 48.1875 33.796875 48.1875 
Q 26.515625 48.1875 22.3125 43.546875 
Q 18.109375 38.921875 18.109375 30.90625 
L 18.109375 0 
L 9.078125 0 
L 9.078125 54.6875 
L 18.109375 54.6875 
L 18.109375 46.1875 
Q 21.34375 51.125 25.703125 53.5625 
Q 30.078125 56 35.796875 56 
Q 45.21875 56 50.046875 50.171875 
Q 54.890625 44.34375 54.890625 33.015625 
z
" id="DejaVuSans-6e"/>
    </defs>
    <g transform="translate(32.971875 35.472)scale(0.12 -0.12)">
     <use xlink:href="#DejaVuSans-47"/>
     <use x="77.490234" xlink:href="#DejaVuSans-72"/>
     <use x="118.603516" xlink:href="#DejaVuSans-61"/>
     <use x="179.882812" xlink:href="#DejaVuSans-66"/>
     <use x="215.087891" xlink:href="#DejaVuSans-69"/>
     <use x="242.871094" xlink:href="#DejaVuSans-63"/>
     <use x="297.851562" xlink:href="#DejaVuSans-6f"/>
     <use x="359.033203" xlink:href="#DejaVuSans-20"/>
     <use x="390.820312" xlink:href="#DejaVuSans-76"/>
     <use x="450" xlink:href="#DejaVuSans-61"/>
     <use x="511.279297" xlink:href="#DejaVuSans-6c"/>
     <use x="539.0625" xlink:href="#DejaVuSans-6f"/>
     <use x="600.244141" xlink:href="#DejaVuSans-72"/>
     <use x="641.326172" xlink:href="#DejaVuSans-65"/>
     <use x="702.849609" xlink:href="#DejaVuSans-73"/>
     <use x="754.949219" xlink:href="#DejaVuSans-20"/>
     <use x="786.736328" xlink:href="#DejaVuSans-70"/>
     <use x="850.212891" xlink:href="#DejaVuSans-72"/>
     <use x="891.294922" xlink:href="#DejaVuSans-6f"/>
     <use x="952.476562" xlink:href="#DejaVuSans-6d"/>
     <use x="1049.888672" xlink:href="#DejaVuSans-65"/>
     <use x="1111.412109" xlink:href="#DejaVuSans-64"/>
     <use x="1174.888672" xlink:href="#DejaVuSans-69"/>
     <use x="1202.671875" xlink:href="#DejaVuSans-6f"/>
     <use x="1263.853516" xlink:href="#DejaVuSans-20"/>
     <use x="1295.640625" xlink:href="#DejaVuSans-65"/>
     <use x="1357.164062" xlink:href="#DejaVuSans-73"/>
     <use x="1409.263672" xlink:href="#DejaVuSans-70"/>
     <use x="1472.740234" xlink:href="#DejaVuSans-65"/>
     <use x="1534.263672" xlink:href="#DejaVuSans-72"/>
     <use x="1575.376953" xlink:href="#DejaVuSans-61"/>
     <use x="1636.65625" xlink:href="#DejaVuSans-64"/>
     <use x="1700.132812" xlink:href="#DejaVuSans-6f"/>
     <use x="1761.314453" xlink:href="#DejaVuSans-73"/>
     <use x="1813.414062" xlink:href="#DejaVuSans-20"/>
     <use x="1845.201172" xlink:href="#DejaVuSans-76"/>
     <use x="1904.380859" xlink:href="#DejaVuSans-73"/>
     <use x="1956.480469" xlink:href="#DejaVuSans-20"/>
     <use x="1988.267578" xlink:href="#DejaVuSans-76"/>
     <use x="2047.447266" xlink:href="#DejaVuSans-61"/>
     <use x="2108.726562" xlink:href="#DejaVuSans-6c"/>
     <use x="2136.509766" xlink:href="#DejaVuSans-6f"/>
     <use x="2197.691406" xlink:href="#DejaVuSans-72"/>
     <use x="2238.773438" xlink:href="#DejaVuSans-65"/>
     <use x="2300.296875" xlink:href="#DejaVuSans-73"/>
     <use x="2352.396484" xlink:href="#DejaVuSans-20"/>
     <use x="2384.183594" xlink:href="#DejaVuSans-70"/>
     <use x="2447.660156" xlink:href="#DejaVuSans-72"/>
     <use x="2488.742188" xlink:href="#DejaVuSans-6f"/>
     <use x="2549.923828" xlink:href="#DejaVuSans-6d"/>
     <use x="2647.335938" xlink:href="#DejaVuSans-65"/>
     <use x="2708.859375" xlink:href="#DejaVuSans-64"/>
     <use x="2772.335938" xlink:href="#DejaVuSans-69"/>
     <use x="2800.119141" xlink:href="#DejaVuSans-6f"/>
     <use x="2861.300781" xlink:href="#DejaVuSans-20"/>
     <use x="2893.087891" xlink:href="#DejaVuSans-6f"/>
     <use x="2954.269531" xlink:href="#DejaVuSans-62"/>
     <use x="3017.746094" xlink:href="#DejaVuSans-74"/>
     <use x="3056.955078" xlink:href="#DejaVuSans-65"/>
     <use x="3118.478516" xlink:href="#DejaVuSans-6e"/>
     <use x="3181.857422" xlink:href="#DejaVuSans-69"/>
     <use x="3209.640625" xlink:href="#DejaVuSans-64"/>
     <use x="3273.117188" xlink:href="#DejaVuSans-6f"/>
     <use x="3334.298828" xlink:href="#DejaVuSans-73"/>
    </g>
   </g>
   <g id="legend_1">
    <g id="patch_7">
     <path d="M 249.11375 78.82825 
L 407.72 78.82825 
Q 409.72 78.82825 409.72 76.82825 
L 409.72 48.472 
Q 409.72 46.472 407.72 46.472 
L 249.11375 46.472 
Q 247.11375 46.472 247.11375 48.472 
L 247.11375 76.82825 
Q 247.11375 78.82825 249.11375 78.82825 
z
" style="fill:#ffffff;opacity:0.8;stroke:#cccccc;stroke-linejoin:miter;"/>
    </g>
    <g id="line2d_17">
     <path d="M 251.11375 54.570437 
L 271.11375 54.570437 
" style="fill:none;stroke:#1f77b4;stroke-linecap:square;stroke-width:1.5;"/>
    </g>
    <g id="line2d_18"/>
    <g id="text_18">
     <!-- Valor promedio esperado -->
     <g transform="translate(279.11375 58.070437)scale(0.1 -0.1)">
      <use xlink:href="#DejaVuSans-56"/>
      <use x="68.298828" xlink:href="#DejaVuSans-61"/>
      <use x="129.578125" xlink:href="#DejaVuSans-6c"/>
      <use x="157.361328" xlink:href="#DejaVuSans-6f"/>
      <use x="218.542969" xlink:href="#DejaVuSans-72"/>
      <use x="259.65625" xlink:href="#DejaVuSans-20"/>
      <use x="291.443359" xlink:href="#DejaVuSans-70"/>
      <use x="354.919922" xlink:href="#DejaVuSans-72"/>
      <use x="396.001953" xlink:href="#DejaVuSans-6f"/>
      <use x="457.183594" xlink:href="#DejaVuSans-6d"/>
      <use x="554.595703" xlink:href="#DejaVuSans-65"/>
      <use x="616.119141" xlink:href="#DejaVuSans-64"/>
      <use x="679.595703" xlink:href="#DejaVuSans-69"/>
      <use x="707.378906" xlink:href="#DejaVuSans-6f"/>
      <use x="768.560547" xlink:href="#DejaVuSans-20"/>
      <use x="800.347656" xlink:href="#DejaVuSans-65"/>
      <use x="861.871094" xlink:href="#DejaVuSans-73"/>
      <use x="913.970703" xlink:href="#DejaVuSans-70"/>
      <use x="977.447266" xlink:href="#DejaVuSans-65"/>
      <use x="1038.970703" xlink:href="#DejaVuSans-72"/>
      <use x="1080.083984" xlink:href="#DejaVuSans-61"/>
      <use x="1141.363281" xlink:href="#DejaVuSans-64"/>
      <use x="1204.839844" xlink:href="#DejaVuSans-6f"/>
     </g>
    </g>
    <g id="line2d_19">
     <path d="M 251.11375 69.248562 
L 271.11375 69.248562 
" style="fill:none;stroke:#ff7f0e;stroke-linecap:square;stroke-width:1.5;"/>
    </g>
    <g id="line2d_20"/>
    <g id="text_19">
     <!-- Valor promedio obtenido -->
     <g transform="translate(279.11375 72.748562)scale(0.1 -0.1)">
      <use xlink:href="#DejaVuSans-56"/>
      <use x="68.298828" xlink:href="#DejaVuSans-61"/>
      <use x="129.578125" xlink:href="#DejaVuSans-6c"/>
      <use x="157.361328" xlink:href="#DejaVuSans-6f"/>
      <use x="218.542969" xlink:href="#DejaVuSans-72"/>
      <use x="259.65625" xlink:href="#DejaVuSans-20"/>
      <use x="291.443359" xlink:href="#DejaVuSans-70"/>
      <use x="354.919922" xlink:href="#DejaVuSans-72"/>
      <use x="396.001953" xlink:href="#DejaVuSans-6f"/>
      <use x="457.183594" xlink:href="#DejaVuSans-6d"/>
      <use x="554.595703" xlink:href="#DejaVuSans-65"/>
      <use x="616.119141" xlink:href="#DejaVuSans-64"/>
      <use x="679.595703" xlink:href="#DejaVuSans-69"/>
      <use x="707.378906" xlink:href="#DejaVuSans-6f"/>
      <use x="768.560547" xlink:href="#DejaVuSans-20"/>
      <use x="800.347656" xlink:href="#DejaVuSans-6f"/>
      <use x="861.529297" xlink:href="#DejaVuSans-62"/>
      <use x="925.005859" xlink:href="#DejaVuSans-74"/>
      <use x="964.214844" xlink:href="#DejaVuSans-65"/>
      <use x="1025.738281" xlink:href="#DejaVuSans-6e"/>
      <use x="1089.117188" xlink:href="#DejaVuSans-69"/>
      <use x="1116.900391" xlink:href="#DejaVuSans-64"/>
      <use x="1180.376953" xlink:href="#DejaVuSans-6f"/>
     </g>
    </g>
   </g>
  </g>
 </g>
 <defs>
  <clipPath id="pdfc20275fa">
   <rect height="266.112" width="357.12" x="57.6" y="41.472"/>
  </clipPath>
 </defs>
</svg>
