<?xml version="1.0" encoding="utf-8" standalone="no"?>
<!DOCTYPE svg PUBLIC "-//W3C//DTD SVG 1.1//EN"
  "http://www.w3.org/Graphics/SVG/1.1/DTD/svg11.dtd">
<!-- Created with matplotlib (http://matplotlib.org/) -->
<svg height="345.6pt" version="1.1" viewBox="0 0 460.8 345.6" width="460.8pt" xmlns="http://www.w3.org/2000/svg" xmlns:xlink="http://www.w3.org/1999/xlink">
 <defs>
  <style type="text/css">
*{stroke-linecap:butt;stroke-linejoin:round;}
  </style>
 </defs>
 <g id="figure_1">
  <g id="patch_1">
   <path d="M 0 345.6 
L 460.8 345.6 
L 460.8 0 
L 0 0 
z
" style="fill:#ffffff;"/>
  </g>
  <g id="axes_1">
   <g id="patch_2">
    <path d="M 57.6 307.584 
L 414.72 307.584 
L 414.72 41.472 
L 57.6 41.472 
z
" style="fill:#ffffff;"/>
   </g>
   <g id="matplotlib.axis_1">
    <g id="xtick_1">
     <g id="line2d_1">
      <defs>
       <path d="M 0 0 
L 0 3.5 
" id="m6b62f0156d" style="stroke:#000000;stroke-width:0.8;"/>
      </defs>
      <g>
       <use style="stroke:#000000;stroke-width:0.8;" x="57.528562" xlink:href="#m6b62f0156d" y="307.584"/>
      </g>
     </g>
     <g id="text_1">
      <!-- 0 -->
      <defs>
       <path d="M 31.78125 66.40625 
Q 24.171875 66.40625 20.328125 58.90625 
Q 16.5 51.421875 16.5 36.375 
Q 16.5 21.390625 20.328125 13.890625 
Q 24.171875 6.390625 31.78125 6.390625 
Q 39.453125 6.390625 43.28125 13.890625 
Q 47.125 21.390625 47.125 36.375 
Q 47.125 51.421875 43.28125 58.90625 
Q 39.453125 66.40625 31.78125 66.40625 
z
M 31.78125 74.21875 
Q 44.046875 74.21875 50.515625 64.515625 
Q 56.984375 54.828125 56.984375 36.375 
Q 56.984375 17.96875 50.515625 8.265625 
Q 44.046875 -1.421875 31.78125 -1.421875 
Q 19.53125 -1.421875 13.0625 8.265625 
Q 6.59375 17.96875 6.59375 36.375 
Q 6.59375 54.828125 13.0625 64.515625 
Q 19.53125 74.21875 31.78125 74.21875 
z
" id="DejaVuSans-30"/>
      </defs>
      <g transform="translate(54.347312 322.182437)scale(0.1 -0.1)">
       <use xlink:href="#DejaVuSans-30"/>
      </g>
     </g>
    </g>
    <g id="xtick_2">
     <g id="line2d_2">
      <g>
       <use style="stroke:#000000;stroke-width:0.8;" x="128.966849" xlink:href="#m6b62f0156d" y="307.584"/>
      </g>
     </g>
     <g id="text_2">
      <!-- 1000 -->
      <defs>
       <path d="M 12.40625 8.296875 
L 28.515625 8.296875 
L 28.515625 63.921875 
L 10.984375 60.40625 
L 10.984375 69.390625 
L 28.421875 72.90625 
L 38.28125 72.90625 
L 38.28125 8.296875 
L 54.390625 8.296875 
L 54.390625 0 
L 12.40625 0 
z
" id="DejaVuSans-31"/>
      </defs>
      <g transform="translate(116.241849 322.182437)scale(0.1 -0.1)">
       <use xlink:href="#DejaVuSans-31"/>
       <use x="63.623047" xlink:href="#DejaVuSans-30"/>
       <use x="127.246094" xlink:href="#DejaVuSans-30"/>
       <use x="190.869141" xlink:href="#DejaVuSans-30"/>
      </g>
     </g>
    </g>
    <g id="xtick_3">
     <g id="line2d_3">
      <g>
       <use style="stroke:#000000;stroke-width:0.8;" x="200.405137" xlink:href="#m6b62f0156d" y="307.584"/>
      </g>
     </g>
     <g id="text_3">
      <!-- 2000 -->
      <defs>
       <path d="M 19.1875 8.296875 
L 53.609375 8.296875 
L 53.609375 0 
L 7.328125 0 
L 7.328125 8.296875 
Q 12.9375 14.109375 22.625 23.890625 
Q 32.328125 33.6875 34.8125 36.53125 
Q 39.546875 41.84375 41.421875 45.53125 
Q 43.3125 49.21875 43.3125 52.78125 
Q 43.3125 58.59375 39.234375 62.25 
Q 35.15625 65.921875 28.609375 65.921875 
Q 23.96875 65.921875 18.8125 64.3125 
Q 13.671875 62.703125 7.8125 59.421875 
L 7.8125 69.390625 
Q 13.765625 71.78125 18.9375 73 
Q 24.125 74.21875 28.421875 74.21875 
Q 39.75 74.21875 46.484375 68.546875 
Q 53.21875 62.890625 53.21875 53.421875 
Q 53.21875 48.921875 51.53125 44.890625 
Q 49.859375 40.875 45.40625 35.40625 
Q 44.1875 33.984375 37.640625 27.21875 
Q 31.109375 20.453125 19.1875 8.296875 
z
" id="DejaVuSans-32"/>
      </defs>
      <g transform="translate(187.680137 322.182437)scale(0.1 -0.1)">
       <use xlink:href="#DejaVuSans-32"/>
       <use x="63.623047" xlink:href="#DejaVuSans-30"/>
       <use x="127.246094" xlink:href="#DejaVuSans-30"/>
       <use x="190.869141" xlink:href="#DejaVuSans-30"/>
      </g>
     </g>
    </g>
    <g id="xtick_4">
     <g id="line2d_4">
      <g>
       <use style="stroke:#000000;stroke-width:0.8;" x="271.843425" xlink:href="#m6b62f0156d" y="307.584"/>
      </g>
     </g>
     <g id="text_4">
      <!-- 3000 -->
      <defs>
       <path d="M 40.578125 39.3125 
Q 47.65625 37.796875 51.625 33 
Q 55.609375 28.21875 55.609375 21.1875 
Q 55.609375 10.40625 48.1875 4.484375 
Q 40.765625 -1.421875 27.09375 -1.421875 
Q 22.515625 -1.421875 17.65625 -0.515625 
Q 12.796875 0.390625 7.625 2.203125 
L 7.625 11.71875 
Q 11.71875 9.328125 16.59375 8.109375 
Q 21.484375 6.890625 26.8125 6.890625 
Q 36.078125 6.890625 40.9375 10.546875 
Q 45.796875 14.203125 45.796875 21.1875 
Q 45.796875 27.640625 41.28125 31.265625 
Q 36.765625 34.90625 28.71875 34.90625 
L 20.21875 34.90625 
L 20.21875 43.015625 
L 29.109375 43.015625 
Q 36.375 43.015625 40.234375 45.921875 
Q 44.09375 48.828125 44.09375 54.296875 
Q 44.09375 59.90625 40.109375 62.90625 
Q 36.140625 65.921875 28.71875 65.921875 
Q 24.65625 65.921875 20.015625 65.03125 
Q 15.375 64.15625 9.8125 62.3125 
L 9.8125 71.09375 
Q 15.4375 72.65625 20.34375 73.4375 
Q 25.25 74.21875 29.59375 74.21875 
Q 40.828125 74.21875 47.359375 69.109375 
Q 53.90625 64.015625 53.90625 55.328125 
Q 53.90625 49.265625 50.4375 45.09375 
Q 46.96875 40.921875 40.578125 39.3125 
z
" id="DejaVuSans-33"/>
      </defs>
      <g transform="translate(259.118425 322.182437)scale(0.1 -0.1)">
       <use xlink:href="#DejaVuSans-33"/>
       <use x="63.623047" xlink:href="#DejaVuSans-30"/>
       <use x="127.246094" xlink:href="#DejaVuSans-30"/>
       <use x="190.869141" xlink:href="#DejaVuSans-30"/>
      </g>
     </g>
    </g>
    <g id="xtick_5">
     <g id="line2d_5">
      <g>
       <use style="stroke:#000000;stroke-width:0.8;" x="343.281712" xlink:href="#m6b62f0156d" y="307.584"/>
      </g>
     </g>
     <g id="text_5">
      <!-- 4000 -->
      <defs>
       <path d="M 37.796875 64.3125 
L 12.890625 25.390625 
L 37.796875 25.390625 
z
M 35.203125 72.90625 
L 47.609375 72.90625 
L 47.609375 25.390625 
L 58.015625 25.390625 
L 58.015625 17.1875 
L 47.609375 17.1875 
L 47.609375 0 
L 37.796875 0 
L 37.796875 17.1875 
L 4.890625 17.1875 
L 4.890625 26.703125 
z
" id="DejaVuSans-34"/>
      </defs>
      <g transform="translate(330.556712 322.182437)scale(0.1 -0.1)">
       <use xlink:href="#DejaVuSans-34"/>
       <use x="63.623047" xlink:href="#DejaVuSans-30"/>
       <use x="127.246094" xlink:href="#DejaVuSans-30"/>
       <use x="190.869141" xlink:href="#DejaVuSans-30"/>
      </g>
     </g>
    </g>
    <g id="xtick_6">
     <g id="line2d_6">
      <g>
       <use style="stroke:#000000;stroke-width:0.8;" x="414.72" xlink:href="#m6b62f0156d" y="307.584"/>
      </g>
     </g>
     <g id="text_6">
      <!-- 5000 -->
      <defs>
       <path d="M 10.796875 72.90625 
L 49.515625 72.90625 
L 49.515625 64.59375 
L 19.828125 64.59375 
L 19.828125 46.734375 
Q 21.96875 47.46875 24.109375 47.828125 
Q 26.265625 48.1875 28.421875 48.1875 
Q 40.625 48.1875 47.75 41.5 
Q 54.890625 34.8125 54.890625 23.390625 
Q 54.890625 11.625 47.5625 5.09375 
Q 40.234375 -1.421875 26.90625 -1.421875 
Q 22.3125 -1.421875 17.546875 -0.640625 
Q 12.796875 0.140625 7.71875 1.703125 
L 7.71875 11.625 
Q 12.109375 9.234375 16.796875 8.0625 
Q 21.484375 6.890625 26.703125 6.890625 
Q 35.15625 6.890625 40.078125 11.328125 
Q 45.015625 15.765625 45.015625 23.390625 
Q 45.015625 31 40.078125 35.4375 
Q 35.15625 39.890625 26.703125 39.890625 
Q 22.75 39.890625 18.8125 39.015625 
Q 14.890625 38.140625 10.796875 36.28125 
z
" id="DejaVuSans-35"/>
      </defs>
      <g transform="translate(401.995 322.182437)scale(0.1 -0.1)">
       <use xlink:href="#DejaVuSans-35"/>
       <use x="63.623047" xlink:href="#DejaVuSans-30"/>
       <use x="127.246094" xlink:href="#DejaVuSans-30"/>
       <use x="190.869141" xlink:href="#DejaVuSans-30"/>
      </g>
     </g>
    </g>
    <g id="text_7">
     <!-- Tiradas -->
     <defs>
      <path d="M -0.296875 72.90625 
L 61.375 72.90625 
L 61.375 64.59375 
L 35.5 64.59375 
L 35.5 0 
L 25.59375 0 
L 25.59375 64.59375 
L -0.296875 64.59375 
z
" id="DejaVuSans-54"/>
      <path d="M 9.421875 54.6875 
L 18.40625 54.6875 
L 18.40625 0 
L 9.421875 0 
z
M 9.421875 75.984375 
L 18.40625 75.984375 
L 18.40625 64.59375 
L 9.421875 64.59375 
z
" id="DejaVuSans-69"/>
      <path d="M 41.109375 46.296875 
Q 39.59375 47.171875 37.8125 47.578125 
Q 36.03125 48 33.890625 48 
Q 26.265625 48 22.1875 43.046875 
Q 18.109375 38.09375 18.109375 28.8125 
L 18.109375 0 
L 9.078125 0 
L 9.078125 54.6875 
L 18.109375 54.6875 
L 18.109375 46.1875 
Q 20.953125 51.171875 25.484375 53.578125 
Q 30.03125 56 36.53125 56 
Q 37.453125 56 38.578125 55.875 
Q 39.703125 55.765625 41.0625 55.515625 
z
" id="DejaVuSans-72"/>
      <path d="M 34.28125 27.484375 
Q 23.390625 27.484375 19.1875 25 
Q 14.984375 22.515625 14.984375 16.5 
Q 14.984375 11.71875 18.140625 8.90625 
Q 21.296875 6.109375 26.703125 6.109375 
Q 34.1875 6.109375 38.703125 11.40625 
Q 43.21875 16.703125 43.21875 25.484375 
L 43.21875 27.484375 
z
M 52.203125 31.203125 
L 52.203125 0 
L 43.21875 0 
L 43.21875 8.296875 
Q 40.140625 3.328125 35.546875 0.953125 
Q 30.953125 -1.421875 24.3125 -1.421875 
Q 15.921875 -1.421875 10.953125 3.296875 
Q 6 8.015625 6 15.921875 
Q 6 25.140625 12.171875 29.828125 
Q 18.359375 34.515625 30.609375 34.515625 
L 43.21875 34.515625 
L 43.21875 35.40625 
Q 43.21875 41.609375 39.140625 45 
Q 35.0625 48.390625 27.6875 48.390625 
Q 23 48.390625 18.546875 47.265625 
Q 14.109375 46.140625 10.015625 43.890625 
L 10.015625 52.203125 
Q 14.9375 54.109375 19.578125 55.046875 
Q 24.21875 56 28.609375 56 
Q 40.484375 56 46.34375 49.84375 
Q 52.203125 43.703125 52.203125 31.203125 
z
" id="DejaVuSans-61"/>
      <path d="M 45.40625 46.390625 
L 45.40625 75.984375 
L 54.390625 75.984375 
L 54.390625 0 
L 45.40625 0 
L 45.40625 8.203125 
Q 42.578125 3.328125 38.25 0.953125 
Q 33.9375 -1.421875 27.875 -1.421875 
Q 17.96875 -1.421875 11.734375 6.484375 
Q 5.515625 14.40625 5.515625 27.296875 
Q 5.515625 40.1875 11.734375 48.09375 
Q 17.96875 56 27.875 56 
Q 33.9375 56 38.25 53.625 
Q 42.578125 51.265625 45.40625 46.390625 
z
M 14.796875 27.296875 
Q 14.796875 17.390625 18.875 11.75 
Q 22.953125 6.109375 30.078125 6.109375 
Q 37.203125 6.109375 41.296875 11.75 
Q 45.40625 17.390625 45.40625 27.296875 
Q 45.40625 37.203125 41.296875 42.84375 
Q 37.203125 48.484375 30.078125 48.484375 
Q 22.953125 48.484375 18.875 42.84375 
Q 14.796875 37.203125 14.796875 27.296875 
z
" id="DejaVuSans-64"/>
      <path d="M 44.28125 53.078125 
L 44.28125 44.578125 
Q 40.484375 46.53125 36.375 47.5 
Q 32.28125 48.484375 27.875 48.484375 
Q 21.1875 48.484375 17.84375 46.4375 
Q 14.5 44.390625 14.5 40.28125 
Q 14.5 37.15625 16.890625 35.375 
Q 19.28125 33.59375 26.515625 31.984375 
L 29.59375 31.296875 
Q 39.15625 29.25 43.1875 25.515625 
Q 47.21875 21.78125 47.21875 15.09375 
Q 47.21875 7.46875 41.1875 3.015625 
Q 35.15625 -1.421875 24.609375 -1.421875 
Q 20.21875 -1.421875 15.453125 -0.5625 
Q 10.6875 0.296875 5.421875 2 
L 5.421875 11.28125 
Q 10.40625 8.6875 15.234375 7.390625 
Q 20.0625 6.109375 24.8125 6.109375 
Q 31.15625 6.109375 34.5625 8.28125 
Q 37.984375 10.453125 37.984375 14.40625 
Q 37.984375 18.0625 35.515625 20.015625 
Q 33.0625 21.96875 24.703125 23.78125 
L 21.578125 24.515625 
Q 13.234375 26.265625 9.515625 29.90625 
Q 5.8125 33.546875 5.8125 39.890625 
Q 5.8125 47.609375 11.28125 51.796875 
Q 16.75 56 26.8125 56 
Q 31.78125 56 36.171875 55.265625 
Q 40.578125 54.546875 44.28125 53.078125 
z
" id="DejaVuSans-73"/>
     </defs>
     <g transform="translate(217.756875 335.860562)scale(0.1 -0.1)">
      <use xlink:href="#DejaVuSans-54"/>
      <use x="61.037109" xlink:href="#DejaVuSans-69"/>
      <use x="88.820312" xlink:href="#DejaVuSans-72"/>
      <use x="129.933594" xlink:href="#DejaVuSans-61"/>
      <use x="191.212891" xlink:href="#DejaVuSans-64"/>
      <use x="254.689453" xlink:href="#DejaVuSans-61"/>
      <use x="315.96875" xlink:href="#DejaVuSans-73"/>
     </g>
    </g>
   </g>
   <g id="matplotlib.axis_2">
    <g id="ytick_1">
     <g id="line2d_7">
      <defs>
       <path d="M 0 0 
L -3.5 0 
" id="m34ae86fc38" style="stroke:#000000;stroke-width:0.8;"/>
      </defs>
      <g>
       <use style="stroke:#000000;stroke-width:0.8;" x="57.6" xlink:href="#m34ae86fc38" y="295.488"/>
      </g>
     </g>
     <g id="text_8">
      <!-- 0.00 -->
      <defs>
       <path d="M 10.6875 12.40625 
L 21 12.40625 
L 21 0 
L 10.6875 0 
z
" id="DejaVuSans-2e"/>
      </defs>
      <g transform="translate(28.334375 299.287219)scale(0.1 -0.1)">
       <use xlink:href="#DejaVuSans-30"/>
       <use x="63.623047" xlink:href="#DejaVuSans-2e"/>
       <use x="95.410156" xlink:href="#DejaVuSans-30"/>
       <use x="159.033203" xlink:href="#DejaVuSans-30"/>
      </g>
     </g>
    </g>
    <g id="ytick_2">
     <g id="line2d_8">
      <g>
       <use style="stroke:#000000;stroke-width:0.8;" x="57.6" xlink:href="#m34ae86fc38" y="261.6192"/>
      </g>
     </g>
     <g id="text_9">
      <!-- 0.02 -->
      <g transform="translate(28.334375 265.418419)scale(0.1 -0.1)">
       <use xlink:href="#DejaVuSans-30"/>
       <use x="63.623047" xlink:href="#DejaVuSans-2e"/>
       <use x="95.410156" xlink:href="#DejaVuSans-30"/>
       <use x="159.033203" xlink:href="#DejaVuSans-32"/>
      </g>
     </g>
    </g>
    <g id="ytick_3">
     <g id="line2d_9">
      <g>
       <use style="stroke:#000000;stroke-width:0.8;" x="57.6" xlink:href="#m34ae86fc38" y="227.7504"/>
      </g>
     </g>
     <g id="text_10">
      <!-- 0.04 -->
      <g transform="translate(28.334375 231.549619)scale(0.1 -0.1)">
       <use xlink:href="#DejaVuSans-30"/>
       <use x="63.623047" xlink:href="#DejaVuSans-2e"/>
       <use x="95.410156" xlink:href="#DejaVuSans-30"/>
       <use x="159.033203" xlink:href="#DejaVuSans-34"/>
      </g>
     </g>
    </g>
    <g id="ytick_4">
     <g id="line2d_10">
      <g>
       <use style="stroke:#000000;stroke-width:0.8;" x="57.6" xlink:href="#m34ae86fc38" y="193.8816"/>
      </g>
     </g>
     <g id="text_11">
      <!-- 0.06 -->
      <defs>
       <path d="M 33.015625 40.375 
Q 26.375 40.375 22.484375 35.828125 
Q 18.609375 31.296875 18.609375 23.390625 
Q 18.609375 15.53125 22.484375 10.953125 
Q 26.375 6.390625 33.015625 6.390625 
Q 39.65625 6.390625 43.53125 10.953125 
Q 47.40625 15.53125 47.40625 23.390625 
Q 47.40625 31.296875 43.53125 35.828125 
Q 39.65625 40.375 33.015625 40.375 
z
M 52.59375 71.296875 
L 52.59375 62.3125 
Q 48.875 64.0625 45.09375 64.984375 
Q 41.3125 65.921875 37.59375 65.921875 
Q 27.828125 65.921875 22.671875 59.328125 
Q 17.53125 52.734375 16.796875 39.40625 
Q 19.671875 43.65625 24.015625 45.921875 
Q 28.375 48.1875 33.59375 48.1875 
Q 44.578125 48.1875 50.953125 41.515625 
Q 57.328125 34.859375 57.328125 23.390625 
Q 57.328125 12.15625 50.6875 5.359375 
Q 44.046875 -1.421875 33.015625 -1.421875 
Q 20.359375 -1.421875 13.671875 8.265625 
Q 6.984375 17.96875 6.984375 36.375 
Q 6.984375 53.65625 15.1875 63.9375 
Q 23.390625 74.21875 37.203125 74.21875 
Q 40.921875 74.21875 44.703125 73.484375 
Q 48.484375 72.75 52.59375 71.296875 
z
" id="DejaVuSans-36"/>
      </defs>
      <g transform="translate(28.334375 197.680819)scale(0.1 -0.1)">
       <use xlink:href="#DejaVuSans-30"/>
       <use x="63.623047" xlink:href="#DejaVuSans-2e"/>
       <use x="95.410156" xlink:href="#DejaVuSans-30"/>
       <use x="159.033203" xlink:href="#DejaVuSans-36"/>
      </g>
     </g>
    </g>
    <g id="ytick_5">
     <g id="line2d_11">
      <g>
       <use style="stroke:#000000;stroke-width:0.8;" x="57.6" xlink:href="#m34ae86fc38" y="160.0128"/>
      </g>
     </g>
     <g id="text_12">
      <!-- 0.08 -->
      <defs>
       <path d="M 31.78125 34.625 
Q 24.75 34.625 20.71875 30.859375 
Q 16.703125 27.09375 16.703125 20.515625 
Q 16.703125 13.921875 20.71875 10.15625 
Q 24.75 6.390625 31.78125 6.390625 
Q 38.8125 6.390625 42.859375 10.171875 
Q 46.921875 13.96875 46.921875 20.515625 
Q 46.921875 27.09375 42.890625 30.859375 
Q 38.875 34.625 31.78125 34.625 
z
M 21.921875 38.8125 
Q 15.578125 40.375 12.03125 44.71875 
Q 8.5 49.078125 8.5 55.328125 
Q 8.5 64.0625 14.71875 69.140625 
Q 20.953125 74.21875 31.78125 74.21875 
Q 42.671875 74.21875 48.875 69.140625 
Q 55.078125 64.0625 55.078125 55.328125 
Q 55.078125 49.078125 51.53125 44.71875 
Q 48 40.375 41.703125 38.8125 
Q 48.828125 37.15625 52.796875 32.3125 
Q 56.78125 27.484375 56.78125 20.515625 
Q 56.78125 9.90625 50.3125 4.234375 
Q 43.84375 -1.421875 31.78125 -1.421875 
Q 19.734375 -1.421875 13.25 4.234375 
Q 6.78125 9.90625 6.78125 20.515625 
Q 6.78125 27.484375 10.78125 32.3125 
Q 14.796875 37.15625 21.921875 38.8125 
z
M 18.3125 54.390625 
Q 18.3125 48.734375 21.84375 45.5625 
Q 25.390625 42.390625 31.78125 42.390625 
Q 38.140625 42.390625 41.71875 45.5625 
Q 45.3125 48.734375 45.3125 54.390625 
Q 45.3125 60.0625 41.71875 63.234375 
Q 38.140625 66.40625 31.78125 66.40625 
Q 25.390625 66.40625 21.84375 63.234375 
Q 18.3125 60.0625 18.3125 54.390625 
z
" id="DejaVuSans-38"/>
      </defs>
      <g transform="translate(28.334375 163.812019)scale(0.1 -0.1)">
       <use xlink:href="#DejaVuSans-30"/>
       <use x="63.623047" xlink:href="#DejaVuSans-2e"/>
       <use x="95.410156" xlink:href="#DejaVuSans-30"/>
       <use x="159.033203" xlink:href="#DejaVuSans-38"/>
      </g>
     </g>
    </g>
    <g id="ytick_6">
     <g id="line2d_12">
      <g>
       <use style="stroke:#000000;stroke-width:0.8;" x="57.6" xlink:href="#m34ae86fc38" y="126.144"/>
      </g>
     </g>
     <g id="text_13">
      <!-- 0.10 -->
      <g transform="translate(28.334375 129.943219)scale(0.1 -0.1)">
       <use xlink:href="#DejaVuSans-30"/>
       <use x="63.623047" xlink:href="#DejaVuSans-2e"/>
       <use x="95.410156" xlink:href="#DejaVuSans-31"/>
       <use x="159.033203" xlink:href="#DejaVuSans-30"/>
      </g>
     </g>
    </g>
    <g id="ytick_7">
     <g id="line2d_13">
      <g>
       <use style="stroke:#000000;stroke-width:0.8;" x="57.6" xlink:href="#m34ae86fc38" y="92.2752"/>
      </g>
     </g>
     <g id="text_14">
      <!-- 0.12 -->
      <g transform="translate(28.334375 96.074419)scale(0.1 -0.1)">
       <use xlink:href="#DejaVuSans-30"/>
       <use x="63.623047" xlink:href="#DejaVuSans-2e"/>
       <use x="95.410156" xlink:href="#DejaVuSans-31"/>
       <use x="159.033203" xlink:href="#DejaVuSans-32"/>
      </g>
     </g>
    </g>
    <g id="ytick_8">
     <g id="line2d_14">
      <g>
       <use style="stroke:#000000;stroke-width:0.8;" x="57.6" xlink:href="#m34ae86fc38" y="58.4064"/>
      </g>
     </g>
     <g id="text_15">
      <!-- 0.14 -->
      <g transform="translate(28.334375 62.205619)scale(0.1 -0.1)">
       <use xlink:href="#DejaVuSans-30"/>
       <use x="63.623047" xlink:href="#DejaVuSans-2e"/>
       <use x="95.410156" xlink:href="#DejaVuSans-31"/>
       <use x="159.033203" xlink:href="#DejaVuSans-34"/>
      </g>
     </g>
    </g>
    <g id="text_16">
     <!-- Frecuencias relativas -->
     <defs>
      <path d="M 9.8125 72.90625 
L 51.703125 72.90625 
L 51.703125 64.59375 
L 19.671875 64.59375 
L 19.671875 43.109375 
L 48.578125 43.109375 
L 48.578125 34.8125 
L 19.671875 34.8125 
L 19.671875 0 
L 9.8125 0 
z
" id="DejaVuSans-46"/>
      <path d="M 56.203125 29.59375 
L 56.203125 25.203125 
L 14.890625 25.203125 
Q 15.484375 15.921875 20.484375 11.0625 
Q 25.484375 6.203125 34.421875 6.203125 
Q 39.59375 6.203125 44.453125 7.46875 
Q 49.3125 8.734375 54.109375 11.28125 
L 54.109375 2.78125 
Q 49.265625 0.734375 44.1875 -0.34375 
Q 39.109375 -1.421875 33.890625 -1.421875 
Q 20.796875 -1.421875 13.15625 6.1875 
Q 5.515625 13.8125 5.515625 26.8125 
Q 5.515625 40.234375 12.765625 48.109375 
Q 20.015625 56 32.328125 56 
Q 43.359375 56 49.78125 48.890625 
Q 56.203125 41.796875 56.203125 29.59375 
z
M 47.21875 32.234375 
Q 47.125 39.59375 43.09375 43.984375 
Q 39.0625 48.390625 32.421875 48.390625 
Q 24.90625 48.390625 20.390625 44.140625 
Q 15.875 39.890625 15.1875 32.171875 
z
" id="DejaVuSans-65"/>
      <path d="M 48.78125 52.59375 
L 48.78125 44.1875 
Q 44.96875 46.296875 41.140625 47.34375 
Q 37.3125 48.390625 33.40625 48.390625 
Q 24.65625 48.390625 19.8125 42.84375 
Q 14.984375 37.3125 14.984375 27.296875 
Q 14.984375 17.28125 19.8125 11.734375 
Q 24.65625 6.203125 33.40625 6.203125 
Q 37.3125 6.203125 41.140625 7.25 
Q 44.96875 8.296875 48.78125 10.40625 
L 48.78125 2.09375 
Q 45.015625 0.34375 40.984375 -0.53125 
Q 36.96875 -1.421875 32.421875 -1.421875 
Q 20.0625 -1.421875 12.78125 6.34375 
Q 5.515625 14.109375 5.515625 27.296875 
Q 5.515625 40.671875 12.859375 48.328125 
Q 20.21875 56 33.015625 56 
Q 37.15625 56 41.109375 55.140625 
Q 45.0625 54.296875 48.78125 52.59375 
z
" id="DejaVuSans-63"/>
      <path d="M 8.5 21.578125 
L 8.5 54.6875 
L 17.484375 54.6875 
L 17.484375 21.921875 
Q 17.484375 14.15625 20.5 10.265625 
Q 23.53125 6.390625 29.59375 6.390625 
Q 36.859375 6.390625 41.078125 11.03125 
Q 45.3125 15.671875 45.3125 23.6875 
L 45.3125 54.6875 
L 54.296875 54.6875 
L 54.296875 0 
L 45.3125 0 
L 45.3125 8.40625 
Q 42.046875 3.421875 37.71875 1 
Q 33.40625 -1.421875 27.6875 -1.421875 
Q 18.265625 -1.421875 13.375 4.4375 
Q 8.5 10.296875 8.5 21.578125 
z
M 31.109375 56 
z
" id="DejaVuSans-75"/>
      <path d="M 54.890625 33.015625 
L 54.890625 0 
L 45.90625 0 
L 45.90625 32.71875 
Q 45.90625 40.484375 42.875 44.328125 
Q 39.84375 48.1875 33.796875 48.1875 
Q 26.515625 48.1875 22.3125 43.546875 
Q 18.109375 38.921875 18.109375 30.90625 
L 18.109375 0 
L 9.078125 0 
L 9.078125 54.6875 
L 18.109375 54.6875 
L 18.109375 46.1875 
Q 21.34375 51.125 25.703125 53.5625 
Q 30.078125 56 35.796875 56 
Q 45.21875 56 50.046875 50.171875 
Q 54.890625 44.34375 54.890625 33.015625 
z
" id="DejaVuSans-6e"/>
      <path id="DejaVuSans-20"/>
      <path d="M 9.421875 75.984375 
L 18.40625 75.984375 
L 18.40625 0 
L 9.421875 0 
z
" id="DejaVuSans-6c"/>
      <path d="M 18.3125 70.21875 
L 18.3125 54.6875 
L 36.8125 54.6875 
L 36.8125 47.703125 
L 18.3125 47.703125 
L 18.3125 18.015625 
Q 18.3125 11.328125 20.140625 9.421875 
Q 21.96875 7.515625 27.59375 7.515625 
L 36.8125 7.515625 
L 36.8125 0 
L 27.59375 0 
Q 17.1875 0 13.234375 3.875 
Q 9.28125 7.765625 9.28125 18.015625 
L 9.28125 47.703125 
L 2.6875 47.703125 
L 2.6875 54.6875 
L 9.28125 54.6875 
L 9.28125 70.21875 
z
" id="DejaVuSans-74"/>
      <path d="M 2.984375 54.6875 
L 12.5 54.6875 
L 29.59375 8.796875 
L 46.6875 54.6875 
L 56.203125 54.6875 
L 35.6875 0 
L 23.484375 0 
z
" id="DejaVuSans-76"/>
     </defs>
     <g transform="translate(22.254687 227.649094)rotate(-90)scale(0.1 -0.1)">
      <use xlink:href="#DejaVuSans-46"/>
      <use x="57.410156" xlink:href="#DejaVuSans-72"/>
      <use x="98.492188" xlink:href="#DejaVuSans-65"/>
      <use x="160.015625" xlink:href="#DejaVuSans-63"/>
      <use x="214.996094" xlink:href="#DejaVuSans-75"/>
      <use x="278.375" xlink:href="#DejaVuSans-65"/>
      <use x="339.898438" xlink:href="#DejaVuSans-6e"/>
      <use x="403.277344" xlink:href="#DejaVuSans-63"/>
      <use x="458.257812" xlink:href="#DejaVuSans-69"/>
      <use x="486.041016" xlink:href="#DejaVuSans-61"/>
      <use x="547.320312" xlink:href="#DejaVuSans-73"/>
      <use x="599.419922" xlink:href="#DejaVuSans-20"/>
      <use x="631.207031" xlink:href="#DejaVuSans-72"/>
      <use x="672.289062" xlink:href="#DejaVuSans-65"/>
      <use x="733.8125" xlink:href="#DejaVuSans-6c"/>
      <use x="761.595703" xlink:href="#DejaVuSans-61"/>
      <use x="822.875" xlink:href="#DejaVuSans-74"/>
      <use x="862.083984" xlink:href="#DejaVuSans-69"/>
      <use x="889.867188" xlink:href="#DejaVuSans-76"/>
      <use x="949.046875" xlink:href="#DejaVuSans-61"/>
      <use x="1010.326172" xlink:href="#DejaVuSans-73"/>
     </g>
    </g>
   </g>
   <g id="line2d_15">
    <path clip-path="url(#pa96bcf5ddd)" d="M 57.6 295.488 
L 60.671846 295.488 
L 60.743285 257.856 
L 60.814723 258.674087 
L 61.029038 260.928 
L 61.100476 227.7504 
L 61.171914 229.078588 
L 61.886297 239.965377 
L 62.672118 248.448 
L 63.172186 252.616101 
L 63.243625 231.984 
L 63.315063 232.768 
L 64.172322 240.860903 
L 65.10102 247.560453 
L 65.172458 248.008374 
L 65.243897 232.768 
L 65.315335 233.343413 
L 65.672527 236.069053 
L 65.743965 221.860174 
L 65.815403 222.494897 
L 66.815539 230.355692 
L 66.886977 217.925863 
L 66.958416 218.513455 
L 68.02999 226.368 
L 69.173003 233.152785 
L 69.601632 235.36587 
L 69.673071 225.758118 
L 69.744509 226.165895 
L 70.744645 231.411892 
L 70.816083 222.651871 
L 70.887522 223.041369 
L 72.173411 229.402537 
L 73.244985 233.908364 
L 73.316423 226.52438 
L 73.387862 226.835027 
L 73.88793 228.93359 
L 74.102244 215.195586 
L 74.888066 218.830222 
L 74.959504 212.204066 
L 75.030942 212.544 
L 76.531146 219.092211 
L 78.03135 224.682146 
L 79.602993 229.72334 
L 81.103197 233.908364 
L 81.174635 228.978272 
L 81.246073 229.178602 
L 82.246209 231.861642 
L 82.317648 227.164772 
L 82.389086 227.361103 
L 84.175043 231.927249 
L 86.032438 236.069053 
L 86.746821 237.521839 
L 86.81826 233.532878 
L 86.889698 233.68362 
L 88.88997 237.625585 
L 90.96168 241.211077 
L 91.890378 242.678021 
L 91.961816 239.274224 
L 92.033255 239.390609 
L 93.176267 241.189323 
L 93.247706 237.91104 
L 93.319144 238.025964 
L 95.533731 241.374316 
L 97.891194 244.534938 
L 98.748454 245.59462 
L 98.819892 242.751114 
L 98.89133 242.842197 
L 99.105645 243.113567 
L 99.177083 240.298703 
L 99.248522 240.393205 
L 100.391534 241.8624 
L 100.462973 239.133923 
L 100.534411 239.227535 
L 101.963177 241.036553 
L 102.034615 238.405753 
L 102.106053 238.497231 
L 104.677832 241.605818 
L 106.749542 243.873718 
L 106.82098 241.494261 
L 106.892418 241.572399 
L 107.606801 242.341524 
L 107.67824 240.004923 
L 107.749678 240.083846 
L 110.607209 243.066573 
L 111.607345 244.036058 
L 111.678784 241.869847 
L 111.750222 241.94049 
L 114.322 244.365283 
L 114.393439 242.30207 
L 114.464877 242.368803 
L 114.75063 242.634067 
L 114.822068 240.588449 
L 114.893507 240.656817 
L 116.82234 242.440482 
L 116.893779 240.466484 
L 116.965217 240.532615 
L 118.894051 242.259967 
L 118.965489 240.352744 
L 119.036927 240.41678 
L 120.17994 241.421501 
L 120.251378 239.554333 
L 120.322817 239.617966 
L 120.537131 239.808 
L 120.60857 237.953232 
L 120.680008 238.018317 
L 120.822885 238.148045 
L 120.894323 236.303513 
L 120.965761 236.370162 
L 122.537403 237.799385 
L 122.608842 236.003829 
L 122.68028 236.069053 
L 126.03788 238.981139 
L 126.680824 239.506512 
L 126.752262 237.816669 
L 126.823701 237.876124 
L 127.323769 238.288901 
L 127.395207 236.615853 
L 127.466645 236.675988 
L 131.03856 239.533714 
L 131.181436 239.642258 
L 131.252875 238.055442 
L 131.324313 238.11104 
L 135.039104 240.860903 
L 135.61061 241.260736 
L 135.682048 239.762369 
L 135.753487 239.81326 
L 136.753623 240.516097 
L 136.825061 239.04 
L 136.896499 239.090808 
L 137.396567 239.443921 
L 137.468006 237.980654 
L 137.539444 238.032 
L 141.539988 240.768 
L 145.754847 243.382154 
L 150.255459 245.911174 
L 151.969978 246.811207 
L 152.041416 245.568 
L 152.112855 245.605704 
L 154.041688 246.602611 
L 154.113127 245.386225 
L 154.184565 245.423255 
L 159.113807 247.852557 
L 160.971202 248.70789 
L 161.042641 247.571478 
L 161.114079 247.604524 
L 162.399968 248.191651 
L 162.471406 247.071063 
L 162.542845 247.104 
L 162.828598 247.2353 
L 162.900036 246.119919 
L 162.971474 246.153366 
L 163.614419 246.452364 
L 163.757295 244.240656 
L 163.828734 244.275097 
L 167.472086 245.972211 
L 167.543525 244.904727 
L 167.614963 244.937552 
L 167.75784 245.003075 
L 167.829278 243.938984 
L 167.900716 243.97235 
L 167.972154 244.005671 
L 168.043593 242.94429 
L 168.115031 242.978233 
L 168.757976 243.281757 
L 168.829414 242.228334 
L 168.900852 242.262496 
L 172.901396 244.108087 
L 173.044273 242.077091 
L 173.115711 242.110101 
L 174.4016 242.697389 
L 174.473039 241.695159 
L 174.544477 241.728 
L 174.758792 241.826282 
L 174.83023 240.827635 
L 174.901668 240.860903 
L 175.187421 240.993574 
L 175.25886 239.999068 
L 175.330298 240.032718 
L 176.401872 240.532615 
L 176.473311 239.548541 
L 176.544749 239.582118 
L 180.902484 241.55679 
L 180.973923 240.608 
L 181.045361 240.639741 
L 186.974739 243.152106 
L 188.332066 243.695187 
L 188.403505 242.799092 
L 188.474943 242.827836 
L 190.332338 243.564342 
L 190.403777 242.681806 
L 190.475215 242.710182 
L 191.689666 243.187936 
L 191.761104 242.314525 
L 191.832543 242.342809 
L 192.332611 242.539955 
L 192.475487 240.803066 
L 192.546925 240.832 
L 199.04781 243.3427 
L 202.333971 244.526066 
L 202.405409 243.716166 
L 202.476847 243.741682 
L 203.834175 244.22175 
L 203.905613 243.420299 
L 203.977051 243.445698 
L 204.262805 243.547046 
L 204.334243 242.748263 
L 204.405681 242.773914 
L 205.191502 243.054444 
L 205.262941 242.260921 
L 205.334379 242.286647 
L 207.263213 242.971969 
L 207.334651 242.189459 
L 207.406089 242.214864 
L 209.763553 243.039835 
L 209.834991 242.270139 
L 209.906429 242.295089 
L 209.977868 242.320015 
L 210.049306 241.551738 
L 210.120744 241.576989 
L 212.549646 242.421677 
L 212.621084 241.666093 
L 212.692523 241.690873 
L 214.621356 242.351411 
L 214.692795 241.605818 
L 214.764233 241.630299 
L 217.907518 242.685862 
L 217.978956 241.955391 
L 218.050394 241.979215 
L 221.407994 243.075515 
L 221.479432 242.360471 
L 221.55087 242.38361 
L 226.122921 243.823729 
L 226.194359 243.128356 
L 226.265797 243.150523 
L 226.765865 243.305172 
L 226.98018 241.943312 
L 227.194495 242.010947 
L 227.265933 241.320727 
L 227.337371 241.343515 
L 227.480248 241.389034 
L 227.551686 240.700235 
L 227.623125 240.723246 
L 233.052434 242.417231 
L 233.123873 241.749871 
L 233.195311 241.771725 
L 234.195447 242.07582 
L 234.266885 241.412915 
L 234.338324 241.434764 
L 236.838664 242.188494 
L 236.910102 241.535312 
L 236.98154 241.55679 
L 245.482697 243.996096 
L 248.411666 244.786204 
L 248.483105 244.171636 
L 248.554543 244.190827 
L 249.768994 244.51489 
L 249.840432 243.904761 
L 249.91187 243.923915 
L 256.19844 245.555573 
L 256.269878 244.964808 
L 256.341316 244.982962 
L 256.484193 245.019232 
L 256.555631 244.429508 
L 256.627069 244.447828 
L 260.484737 245.417968 
L 260.556175 244.839724 
L 260.627614 244.857539 
L 260.984805 244.946427 
L 261.056243 244.369769 
L 261.127682 244.387705 
L 262.485009 244.726118 
L 262.556447 244.153756 
L 262.627886 244.171636 
L 272.557808 246.541395 
L 273.129314 246.671141 
L 273.200752 246.126384 
L 273.27219 246.142728 
L 277.772803 247.151081 
L 277.844241 246.61765 
L 277.915679 246.633491 
L 280.201704 247.135045 
L 280.273143 246.607436 
L 280.344581 246.623107 
L 287.917039 248.229209 
L 287.988478 247.718924 
L 288.059916 247.733727 
L 291.703269 248.4767 
L 291.774707 247.974587 
L 291.846145 247.989073 
L 293.060596 248.233987 
L 293.132034 247.734841 
L 293.203473 247.749316 
L 293.346349 247.778239 
L 293.417788 247.279835 
L 293.489226 247.294431 
L 299.99011 248.586598 
L 300.061548 248.101608 
L 300.132987 248.115562 
L 302.633327 248.598813 
L 302.704765 248.119049 
L 302.776203 248.132847 
L 306.348118 248.812651 
L 306.419556 248.339986 
L 306.490994 248.353515 
L 308.705581 248.769092 
L 308.777019 248.300875 
L 308.848458 248.314288 
L 309.920032 248.514572 
L 309.99147 248.048679 
L 310.062909 248.062099 
L 314.063453 248.801684 
L 314.134891 248.343234 
L 314.206329 248.356355 
L 316.778108 248.823905 
L 316.849546 248.370248 
L 316.920984 248.383224 
L 319.849954 248.909176 
L 319.921392 248.460807 
L 319.992831 248.473607 
L 321.921664 248.816592 
L 321.993103 248.37176 
L 322.064541 248.384484 
L 328.493987 249.502152 
L 328.565425 249.067926 
L 328.636863 249.080158 
L 330.422821 249.383874 
L 330.494259 248.952747 
L 330.565697 248.964923 
L 332.565969 249.303273 
L 332.637407 248.875525 
L 332.708846 248.887626 
L 333.423229 249.00829 
L 333.494667 248.581948 
L 333.566105 248.594087 
L 335.352062 248.895539 
L 335.423501 248.472185 
L 335.494939 248.484268 
L 340.352743 249.291607 
L 340.495619 248.887404 
L 341.424317 249.039847 
L 341.567193 248.637296 
L 342.495891 248.78998 
L 342.638768 248.389067 
L 345.210546 248.810116 
L 345.353423 248.412974 
L 349.068214 249.012803 
L 349.21109 248.620814 
L 349.568282 248.678137 
L 349.711158 248.286983 
L 349.925473 248.321579 
L 350.06835 247.931077 
L 351.282801 248.127689 
L 351.425677 247.739084 
L 352.783005 247.958593 
L 352.925881 247.572044 
L 356.426357 248.133201 
L 356.569234 247.751278 
L 357.14074 247.842335 
L 357.283617 247.46146 
L 358.140876 247.598418 
L 358.283753 247.218926 
L 360.355463 247.549146 
L 360.569778 246.784634 
L 360.998408 246.853424 
L 361.141284 246.477854 
L 361.498476 246.535445 
L 361.641352 246.160643 
L 362.927241 246.368337 
L 363.141556 245.611086 
L 364.498884 245.831626 
L 364.64176 245.460812 
L 367.499292 245.921999 
L 367.642168 245.554731 
L 369.213811 245.806515 
L 369.356687 245.44132 
L 371.142645 245.726323 
L 371.285521 245.36341 
L 373.857299 245.770927 
L 374.000176 245.411106 
L 374.643121 245.512636 
L 374.785997 245.153823 
L 376.143325 245.368251 
L 376.286201 245.011191 
L 380.358184 245.647876 
L 380.50106 245.295352 
L 381.286881 245.417179 
L 381.429758 245.065768 
L 390.288106 246.408052 
L 390.430982 246.065717 
L 392.645569 246.392319 
L 392.788446 246.052398 
L 392.931322 246.073457 
L 393.074199 245.733961 
L 396.074607 246.174913 
L 396.217483 245.838525 
L 397.789126 246.067853 
L 397.932002 245.733205 
L 401.432478 246.239641 
L 401.575355 245.908465 
L 401.646793 245.918758 
L 401.78967 245.587921 
L 402.361176 245.670623 
L 402.504053 245.340574 
L 404.361448 245.609129 
L 404.575763 244.942755 
L 405.933091 245.139671 
L 406.075967 244.813222 
L 407.790486 245.061274 
L 407.933363 244.736587 
L 409.004937 244.891317 
L 409.147814 244.567821 
L 411.505277 244.906947 
L 411.648154 244.585728 
L 412.148222 244.657508 
L 412.291098 244.336973 
L 414.72 244.6848 
L 414.72 244.6848 
" style="fill:none;stroke:#1f77b4;stroke-linecap:square;stroke-width:1.5;"/>
   </g>
   <g id="line2d_16">
    <path clip-path="url(#pa96bcf5ddd)" d="M 57.6 295.488 
L 58.171506 295.488 
L 58.242945 126.144 
L 58.314383 141.538909 
L 58.671574 189.648 
L 59.100204 218.513455 
L 59.600272 237.093517 
L 60.171778 249.719351 
L 60.457532 254.184585 
L 60.52897 214.848 
L 60.600408 216.723349 
L 61.243353 230.355692 
L 61.957736 240.860903 
L 62.743557 249.092384 
L 63.600816 255.642353 
L 64.458076 260.571711 
L 65.386773 264.698182 
L 66.386909 268.174452 
L 67.101292 270.212776 
L 67.172731 257.856 
L 67.244169 258.132706 
L 68.387181 262.064842 
L 69.601632 265.426935 
L 70.887522 268.320513 
L 72.244849 270.826252 
L 73.673615 273.008708 
L 75.245257 275.002839 
L 75.888202 275.720218 
L 75.95964 269.233116 
L 76.031078 269.334486 
L 77.674159 271.467574 
L 77.745597 271.552452 
L 77.817035 265.673915 
L 77.888474 265.778526 
L 78.174227 266.18973 
L 78.245665 260.45131 
L 78.317103 260.571711 
L 80.031622 263.232 
L 81.81758 265.603765 
L 81.960456 265.778526 
L 82.031894 260.928 
L 82.103333 261.028465 
L 84.032166 263.536302 
L 84.175043 263.707625 
L 84.389358 254.953532 
L 86.318192 257.669241 
L 86.889698 258.405372 
L 86.961136 254.385087 
L 87.032575 254.48461 
L 89.104285 257.174878 
L 89.247161 257.347459 
L 89.461476 250.026523 
L 91.604625 252.885736 
L 92.176131 253.588454 
L 92.24757 250.190222 
L 92.319008 250.283236 
L 94.462156 252.906337 
L 94.533595 249.719351 
L 94.605033 249.807538 
L 95.96236 251.420788 
L 96.033799 248.360727 
L 96.105237 248.448 
L 98.534139 251.234341 
L 100.391534 253.152 
L 100.462973 250.404739 
L 100.534411 250.479628 
L 100.820164 250.776713 
L 100.891602 248.060521 
L 100.963041 248.138526 
L 101.605985 248.829199 
L 101.677423 246.164505 
L 101.748862 246.244187 
L 103.534819 248.155826 
L 103.606257 245.603721 
L 103.677696 245.680941 
L 105.106461 247.176649 
L 105.1779 244.710189 
L 105.249338 244.786204 
L 106.320912 245.899713 
L 106.39235 243.496421 
L 106.463789 243.572321 
L 109.249882 246.368884 
L 110.964401 247.944898 
L 111.035839 245.747439 
L 111.107277 245.81376 
L 111.321592 246.011665 
L 111.393031 243.831342 
L 111.464469 243.899762 
L 112.750358 245.10104 
L 112.821796 242.978233 
L 112.893235 243.045987 
L 113.607618 243.714038 
L 113.679056 241.625405 
L 113.750494 241.693845 
L 114.536315 242.435368 
L 114.607754 240.382318 
L 114.679192 240.4512 
L 117.822476 243.320417 
L 119.536995 244.762839 
L 119.608434 242.872488 
L 119.679872 242.932966 
L 122.25165 245.021245 
L 122.323089 243.209808 
L 122.394527 243.267383 
L 125.037744 245.312 
L 125.109182 243.574934 
L 125.18062 243.629753 
L 127.180892 245.119015 
L 127.25233 243.435541 
L 127.323769 243.488819 
L 127.466645 243.595048 
L 127.538084 241.92 
L 127.609522 241.974606 
L 131.252875 244.619163 
L 132.610202 245.538771 
L 132.68164 243.976517 
L 132.753079 244.025436 
L 136.682184 246.579986 
L 137.610882 247.147161 
L 137.68232 245.680941 
L 137.753759 245.725293 
L 141.825741 248.129085 
L 141.897179 246.735282 
L 141.968618 246.776528 
L 142.397247 247.022545 
L 142.468686 245.639051 
L 142.540124 245.680941 
L 144.969026 247.064471 
L 145.040464 245.7216 
L 145.111902 245.762192 
L 149.3982 248.082215 
L 149.469638 246.803245 
L 149.541076 246.841043 
L 152.612923 248.412658 
L 152.684361 247.176649 
L 152.755799 247.212891 
L 154.613195 248.136477 
L 154.684633 246.926118 
L 154.756071 246.961799 
L 154.898948 247.033004 
L 154.970386 245.827003 
L 155.041824 245.863385 
L 155.470454 246.08056 
L 155.541892 244.882286 
L 155.613331 244.919143 
L 158.756615 246.489383 
L 158.828054 245.329693 
L 158.899492 245.36504 
L 164.043049 247.785465 
L 165.971882 248.633929 
L 166.043321 247.549935 
L 166.114759 247.581474 
L 168.043593 248.417593 
L 168.115031 247.354047 
L 168.186469 247.385121 
L 171.044001 248.596018 
L 171.115439 247.560453 
L 171.186877 247.590577 
L 172.901396 248.302365 
L 172.972835 247.283644 
L 173.044273 247.313455 
L 178.973651 249.665506 
L 185.331658 251.945105 
L 190.68953 253.697099 
L 190.760968 252.811496 
L 190.832406 252.834367 
L 196.761784 254.650812 
L 196.833223 253.803323 
L 196.904661 253.824689 
L 197.261852 253.93119 
L 197.333291 253.087101 
L 197.404729 253.108756 
L 198.904933 253.55846 
L 198.976371 252.724364 
L 199.04781 252.745951 
L 206.620268 254.916845 
L 209.906429 255.791797 
L 209.977868 255.016847 
L 210.049306 255.035803 
L 212.763961 255.743205 
L 212.835399 254.982535 
L 212.906837 255.001159 
L 215.407177 255.642353 
L 215.478616 254.894459 
L 215.550054 254.91281 
L 219.764913 255.966943 
L 219.836351 255.238986 
L 219.90779 255.256693 
L 221.836623 255.728974 
L 221.908062 255.010295 
L 221.9795 255.027878 
L 222.40813 255.133061 
L 222.622444 253.7199 
L 224.837031 254.272765 
L 224.90847 253.56759 
L 224.979908 253.585474 
L 225.908606 253.816587 
L 225.980044 253.116092 
L 226.051482 253.134053 
L 227.40881 253.472458 
L 227.480248 252.77829 
L 227.551686 252.796235 
L 228.694699 253.081322 
L 228.766137 252.392531 
L 228.837576 252.410502 
L 229.409082 252.553736 
L 229.48052 251.868025 
L 229.551958 251.88614 
L 229.623397 251.904239 
L 229.694835 251.219651 
L 229.766273 251.238012 
L 230.194903 251.347859 
L 230.266341 250.665767 
L 230.33778 250.684296 
L 232.123737 251.142599 
L 232.338052 249.812871 
L 234.4812 250.366062 
L 234.552639 249.700881 
L 234.624077 249.719351 
L 235.33846 249.903235 
L 235.409898 249.241446 
L 235.481336 249.260011 
L 236.910102 249.628215 
L 236.98154 248.972331 
L 237.052979 248.990841 
L 237.695923 249.156771 
L 237.767361 248.503933 
L 237.8388 248.522548 
L 237.981676 248.559734 
L 238.053115 247.908166 
L 238.124553 247.926987 
L 240.482016 248.539839 
L 240.553455 247.89718 
L 240.624893 247.915749 
L 241.696467 248.192546 
L 241.767906 247.554258 
L 241.839344 247.572837 
L 243.553863 248.014452 
L 243.625301 247.382603 
L 243.696739 247.401062 
L 243.768178 247.419507 
L 243.839616 246.788613 
L 243.911054 246.807279 
L 244.696875 247.011664 
L 244.768314 246.384055 
L 244.839752 246.402783 
L 246.054203 246.718981 
L 246.125641 246.096 
L 246.197079 246.114702 
L 250.269062 247.1578 
L 250.3405 246.548274 
L 250.411938 246.5664 
L 251.769266 246.908257 
L 251.840704 246.303529 
L 251.912142 246.321605 
L 254.126729 246.875442 
L 254.198168 246.277975 
L 254.269606 246.295843 
L 257.912959 247.190246 
L 257.984397 246.603952 
L 258.055835 246.621367 
L 258.127273 246.638769 
L 258.198712 246.053297 
L 258.27015 246.07089 
L 260.056107 246.506667 
L 260.127546 245.926815 
L 260.198984 245.944285 
L 261.770626 246.325524 
L 261.842064 245.750601 
L 261.913503 245.767986 
L 262.770762 245.975658 
L 262.8422 245.403658 
L 262.913639 245.421078 
L 266.62843 246.310549 
L 266.699868 245.748984 
L 266.771306 245.765965 
L 268.914455 246.270075 
L 268.985893 245.714595 
L 269.057331 245.731404 
L 269.557399 245.848755 
L 269.628838 245.2951 
L 269.700276 245.312 
L 270.914727 245.597568 
L 270.986165 245.047518 
L 271.057604 245.064393 
L 272.700684 245.449434 
L 272.772122 244.903997 
L 272.843561 244.92078 
L 275.058148 245.435586 
L 275.129586 244.896063 
L 275.201024 244.912667 
L 276.20116 245.143982 
L 276.272599 244.607373 
L 276.344037 244.623984 
L 285.916767 246.755914 
L 285.988206 246.241621 
L 286.059644 246.257015 
L 288.845737 246.849977 
L 288.917175 246.342165 
L 288.988614 246.357333 
L 290.774571 246.733525 
L 290.846009 246.229947 
L 290.917447 246.245025 
L 292.131898 246.499937 
L 292.203337 245.999342 
L 292.274775 246.014403 
L 292.91772 246.149536 
L 292.989158 245.650718 
L 293.060596 245.665834 
L 293.346349 245.726207 
L 293.417788 245.228424 
L 293.489226 245.24364 
L 294.775115 245.515967 
L 294.846553 245.021245 
L 294.917992 245.036432 
L 297.06114 245.487833 
L 297.275455 244.523328 
L 297.704085 244.614282 
L 297.775523 244.125859 
L 297.846961 244.141127 
L 301.847506 244.981895 
L 301.918944 244.501645 
L 301.990382 244.516545 
L 305.205105 245.17813 
L 305.41942 244.245579 
L 311.134483 245.400338 
L 311.205921 244.937552 
L 311.277359 244.951784 
L 313.706261 245.430934 
L 313.7777 244.972784 
L 313.849138 244.986863 
L 315.920848 245.391766 
L 315.992286 244.937552 
L 316.063725 244.95152 
L 319.421324 245.599424 
L 319.492763 245.151223 
L 319.564201 245.164947 
L 323.564745 245.921684 
L 323.636183 245.480376 
L 323.707622 245.493797 
L 324.136251 245.574174 
L 324.20769 245.133904 
L 324.279128 245.147389 
L 324.993511 245.281846 
L 325.064949 244.843065 
L 325.136387 244.856585 
L 327.92248 245.378283 
L 327.993919 244.944228 
L 328.065357 244.957575 
L 328.35111 245.010891 
L 328.422549 244.57762 
L 328.493987 244.591042 
L 334.137612 245.629488 
L 334.20905 245.205119 
L 334.280488 245.218098 
L 334.709118 245.295835 
L 334.780556 244.872427 
L 334.851994 244.885465 
L 335.209186 244.950557 
L 335.280624 244.528 
L 335.352062 244.541104 
L 340.495619 245.467177 
L 340.567057 245.052382 
L 340.638496 245.065108 
L 343.138836 245.506529 
L 343.210274 245.095562 
L 343.281712 245.10816 
L 346.925065 245.742416 
L 347.067942 245.34914 
L 354.426085 246.591754 
L 354.568962 246.208 
L 355.854851 246.420414 
L 355.997728 246.038579 
L 357.355055 246.262439 
L 357.497932 245.882589 
L 358.498068 246.04743 
L 358.640944 245.669125 
L 362.855803 246.356844 
L 362.99868 245.98379 
L 364.498884 246.225724 
L 364.64176 245.854727 
L 365.213267 245.946918 
L 365.356143 245.576912 
L 370.07107 246.329856 
L 370.213947 245.965423 
L 372.714287 246.358281 
L 372.857163 245.99689 
L 374.357367 246.231233 
L 374.500244 245.871773 
L 376.000448 246.105497 
L 376.143325 245.747946 
L 381.144005 246.516556 
L 381.286881 246.164505 
L 381.715511 246.229719 
L 381.858388 245.878414 
L 383.930098 246.193292 
L 384.072975 245.844386 
L 394.074335 247.319679 
L 394.217211 246.980807 
L 396.931866 247.368783 
L 397.074743 247.032742 
L 403.86138 247.982257 
L 404.004257 247.652685 
L 405.790214 247.897994 
L 405.933091 247.57028 
L 407.504733 247.785465 
L 407.64761 247.459402 
L 414.72 248.410368 
L 414.72 248.410368 
" style="fill:none;stroke:#ff7f0e;stroke-linecap:square;stroke-width:1.5;"/>
   </g>
   <g id="line2d_17">
    <path clip-path="url(#pa96bcf5ddd)" d="M 57.6 295.488 
L 57.957191 295.488 
L 58.02863 53.568 
L 58.100068 83.808 
L 58.457259 165.223385 
L 58.814451 201.408 
L 59.243081 224.928 
L 59.743149 240.860903 
L 60.314655 252.066462 
L 60.9576 260.208 
L 61.314791 263.536302 
L 61.386229 232.768 
L 61.457668 233.908364 
L 62.17205 243.382154 
L 62.957872 250.923789 
L 63.172186 252.616101 
L 63.243625 231.984 
L 63.315063 232.768 
L 64.172322 240.860903 
L 65.10102 247.560453 
L 66.101156 253.152 
L 67.172731 257.856 
L 68.101428 261.161514 
L 68.172867 250.026523 
L 68.244305 250.3296 
L 69.387317 254.682217 
L 70.030262 256.7808 
L 70.1017 247.378909 
L 70.173139 247.650712 
L 71.459028 252.066462 
L 72.816355 255.921645 
L 74.173683 259.148086 
L 74.245121 252.066462 
L 74.316559 252.251234 
L 74.888066 253.674667 
L 74.959504 246.905705 
L 75.030942 247.104 
L 76.531146 250.923789 
L 77.888474 253.894737 
L 77.959912 248.119049 
L 78.03135 248.284098 
L 78.960048 250.3296 
L 79.031486 244.853581 
L 79.102925 245.021245 
L 80.746005 248.592738 
L 82.531962 251.9424 
L 83.817852 254.072348 
L 83.88929 249.595317 
L 83.960728 249.719351 
L 84.746549 251.040756 
L 84.817988 246.724021 
L 84.889426 246.851342 
L 86.81826 250.054244 
L 87.032575 250.384271 
L 87.104013 246.402783 
L 87.175451 246.52106 
L 89.175723 249.616036 
L 91.318872 252.525463 
L 93.604897 255.247842 
L 94.962224 256.706931 
L 95.033663 253.5552 
L 95.105101 253.63492 
L 97.534003 256.176 
L 100.105781 258.55055 
L 100.320096 258.735546 
L 100.391534 255.9744 
L 100.462973 256.040146 
L 100.534411 256.105674 
L 100.605849 253.362627 
L 100.677287 253.432371 
L 103.320504 255.859919 
L 103.391942 253.283888 
L 103.463381 253.349524 
L 106.320912 255.81737 
L 109.32132 258.115531 
L 110.17858 258.724038 
L 110.250018 256.47922 
L 110.321456 256.532005 
L 111.750222 257.558514 
L 111.82166 255.380211 
L 111.893099 255.432915 
L 112.821796 256.105674 
L 112.893235 253.971406 
L 112.964673 254.024907 
L 113.393303 254.343038 
L 113.464741 252.232828 
L 113.536179 252.288 
L 116.322272 254.335145 
L 116.393711 252.329942 
L 116.465149 252.382255 
L 119.894187 254.75233 
L 122.608842 256.451513 
L 122.68028 254.637474 
L 122.751718 254.682217 
L 123.180348 254.948631 
L 123.251786 253.152 
L 123.323225 253.197967 
L 127.109454 255.49917 
L 130.324177 257.265115 
L 130.395615 255.642353 
L 130.467053 255.681379 
L 134.681912 257.856 
L 135.396295 258.201248 
L 135.467734 256.683234 
L 135.539172 256.718769 
L 136.110678 257.000727 
L 136.182116 255.497591 
L 136.253555 255.53388 
L 136.610746 255.714341 
L 136.682184 254.221863 
L 136.753623 254.259073 
L 141.254235 256.475304 
L 143.826013 257.637934 
L 143.897451 256.268546 
L 143.96889 256.300959 
L 144.754711 256.653995 
L 144.826149 255.29998 
L 144.897588 255.332841 
L 149.826829 257.47735 
L 153.54162 258.948 
L 153.613059 257.716104 
L 153.684497 257.744166 
L 155.256139 258.351158 
L 155.327578 257.141294 
L 155.399016 257.169285 
L 155.899084 257.364078 
L 155.970522 256.162833 
L 156.04196 256.19135 
L 161.042641 258.089739 
L 161.114079 256.947641 
L 161.185517 256.974203 
L 165.400376 258.479046 
L 165.471814 257.382798 
L 165.543253 257.408 
L 167.186333 257.97858 
L 167.257772 256.9005 
L 167.32921 256.925606 
L 167.829278 257.100435 
L 167.900716 256.029204 
L 167.972154 256.054727 
L 174.187285 258.155581 
L 174.615915 258.292246 
L 174.687353 257.282341 
L 174.758792 257.305623 
L 176.116119 257.742651 
L 176.187558 256.745845 
L 176.258996 256.769155 
L 182.974195 258.841804 
L 190.2609 260.853597 
L 191.403913 261.149302 
L 191.475351 260.264448 
L 191.546789 260.283224 
L 192.189734 260.45131 
L 192.261172 259.571987 
L 192.332611 259.591021 
L 195.333019 260.372603 
L 195.404457 259.513368 
L 195.475895 259.531998 
L 197.476167 260.045917 
L 197.547606 259.2 
L 197.619044 259.218505 
L 203.262669 260.623059 
L 203.334107 259.81043 
L 203.405545 259.827902 
L 204.262805 260.036238 
L 204.334243 259.229431 
L 204.405681 259.247066 
L 208.906293 260.324546 
L 208.977732 259.54234 
L 209.04917 259.559287 
L 211.835263 260.208 
L 211.906701 259.440689 
L 211.97814 259.457362 
L 219.90779 261.216887 
L 219.979228 260.487261 
L 220.050666 260.502646 
L 220.193543 260.533375 
L 220.264981 259.805331 
L 220.336419 259.820988 
L 220.765049 259.914643 
L 220.836487 259.189417 
L 220.907926 259.205289 
L 221.479432 259.331765 
L 221.55087 258.609951 
L 221.622308 258.626006 
L 223.622581 259.069935 
L 223.694019 258.357544 
L 223.765457 258.373501 
L 227.551686 259.2 
L 227.623125 258.50401 
L 227.694563 258.519537 
L 229.623397 258.933878 
L 229.694835 258.246373 
L 229.766273 258.26182 
L 229.90915 258.292675 
L 229.980588 257.606575 
L 230.052026 257.622261 
L 230.266341 257.669241 
L 230.33778 256.984817 
L 230.409218 257.000727 
L 233.195311 257.611139 
L 233.338188 256.2657 
L 233.409626 256.281631 
L 235.33846 256.706931 
L 235.409898 256.04241 
L 235.481336 256.058245 
L 236.552911 256.294257 
L 236.624349 255.634406 
L 236.695787 255.650297 
L 238.195991 255.981096 
L 238.267429 255.327368 
L 238.338868 255.343235 
L 238.481744 255.374932 
L 238.553183 254.722475 
L 238.624621 254.738556 
L 240.624893 255.183732 
L 240.696331 254.538983 
L 240.76777 254.554947 
L 247.125777 255.927608 
L 247.197215 255.304678 
L 247.268654 255.319807 
L 249.626117 255.81276 
L 249.697556 255.197978 
L 249.768994 255.21295 
L 250.697692 255.40658 
L 250.76913 254.795357 
L 250.840568 254.810395 
L 251.340636 254.91535 
L 251.412074 254.306335 
L 251.483513 254.321503 
L 257.555767 255.5712 
L 257.627205 254.980867 
L 257.698644 254.995323 
L 260.699052 255.593316 
L 260.913367 254.445724 
L 262.8422 254.831299 
L 262.913639 254.256417 
L 262.985077 254.270754 
L 267.414251 255.140553 
L 267.485689 254.578085 
L 267.557127 254.592 
L 268.342949 254.744442 
L 268.414387 254.184585 
L 268.485825 254.198572 
L 270.628974 254.61382 
L 270.700412 254.060011 
L 270.77185 254.073889 
L 271.129042 254.143144 
L 271.20048 253.590788 
L 271.271918 253.604791 
L 273.70082 254.075389 
L 273.772258 253.529625 
L 273.843697 253.543482 
L 277.844241 254.305121 
L 277.915679 253.769543 
L 277.987117 253.783062 
L 278.558624 253.890896 
L 278.630062 253.357183 
L 278.7015 253.370791 
L 284.702316 254.483321 
L 284.773755 253.96385 
L 284.845193 253.9769 
L 284.98807 254.002975 
L 285.202384 252.979308 
L 288.131354 253.519227 
L 288.274231 252.496644 
L 288.345669 252.50995 
L 289.56012 252.734897 
L 289.631558 252.226837 
L 289.702997 252.240148 
L 290.703133 252.425647 
L 290.774571 251.920172 
L 290.846009 251.933511 
L 292.346213 252.211772 
L 292.417652 251.709898 
L 292.48909 251.723208 
L 294.5608 252.105722 
L 294.632238 251.608566 
L 294.703677 251.621783 
L 296.489634 251.949632 
L 296.561072 251.456536 
L 296.632511 251.469691 
L 298.347029 251.783082 
L 298.418468 251.293836 
L 298.489906 251.306939 
L 300.204425 251.61908 
L 300.275863 251.133627 
L 300.347301 251.146676 
L 302.06182 251.457571 
L 302.133259 250.97585 
L 302.204697 250.988847 
L 305.562296 251.591226 
L 305.705173 250.641575 
L 305.776611 250.654481 
L 309.277087 251.277875 
L 309.348526 250.810009 
L 309.419964 250.82268 
L 310.562977 251.024443 
L 310.634415 250.559025 
L 310.705853 250.571702 
L 312.277495 250.848808 
L 312.348934 250.38657 
L 312.420372 250.399211 
L 315.992286 251.022328 
L 316.063725 250.566685 
L 316.135163 250.579094 
L 317.92112 250.887111 
L 317.992559 250.434879 
L 318.063997 250.447232 
L 319.992831 250.778234 
L 320.064269 250.3296 
L 320.135707 250.341885 
L 323.35043 250.88786 
L 323.421868 250.444862 
L 323.493307 250.456961 
L 323.993375 250.541469 
L 324.064813 250.099632 
L 324.136251 250.111794 
L 325.565017 250.353672 
L 325.636455 249.914475 
L 325.707894 249.926615 
L 328.208234 250.347477 
L 328.279672 249.91257 
L 328.35111 249.924592 
L 328.708302 249.984607 
L 328.77974 249.550597 
L 328.851178 249.562692 
L 334.20905 250.452028 
L 334.351926 250.038255 
L 337.638088 250.571458 
L 337.780964 250.162688 
L 337.995279 250.197322 
L 338.209594 249.369883 
L 344.067534 250.312712 
L 344.21041 249.913238 
L 344.996231 250.037821 
L 345.139108 249.639773 
L 347.925201 250.079646 
L 348.068078 249.68559 
L 351.425677 250.208856 
L 351.568554 249.819429 
L 353.068758 250.051249 
L 353.211634 249.664062 
L 354.354647 249.84052 
L 354.497524 249.455111 
L 354.711838 249.488308 
L 354.854715 249.103531 
L 357.855123 249.566934 
L 357.998 249.186146 
L 363.713063 250.050389 
L 363.855939 249.676657 
L 368.42799 250.350353 
L 368.570866 249.982148 
L 368.928058 250.034345 
L 369.070934 249.666876 
L 374.428806 250.44158 
L 374.571682 250.080303 
L 378.072158 250.576175 
L 378.215035 250.218942 
L 380.143869 250.489594 
L 380.286745 250.134693 
L 384.930234 250.777932 
L 385.073111 250.428092 
L 386.216123 250.584788 
L 386.359 250.236399 
L 387.287698 250.363841 
L 387.430574 250.016679 
L 391.35968 250.551865 
L 391.502557 250.208856 
L 391.716871 250.237893 
L 391.859748 249.895385 
L 394.431526 250.24342 
L 394.645841 249.554472 
L 398.289194 250.045585 
L 398.43207 249.70976 
L 410.505141 251.275541 
L 410.648018 250.950836 
L 410.862332 250.97785 
L 411.005209 250.653594 
L 413.934179 251.022047 
L 414.077055 250.700567 
L 414.72 250.781184 
L 414.72 250.781184 
" style="fill:none;stroke:#2ca02c;stroke-linecap:square;stroke-width:1.5;"/>
   </g>
   <g id="line2d_18">
    <path clip-path="url(#pa96bcf5ddd)" d="M 57.6 295.488 
L 58.885889 295.488 
L 58.957327 210.816 
L 59.028766 214.848 
L 59.528834 235.008 
L 60.10034 248.448 
L 60.671846 257.000727 
L 61.314791 263.536302 
L 61.743421 266.785627 
L 61.814859 239.04 
L 61.886297 239.965377 
L 62.17205 243.382154 
L 62.243489 218.513455 
L 62.314927 219.662328 
L 63.100748 230.355692 
L 63.172186 209.744203 
L 63.243625 210.816 
L 63.45794 213.876434 
L 63.529378 194.688 
L 63.600816 195.873882 
L 64.458076 208.197278 
L 65.243897 217.088 
L 65.315335 202.271119 
L 65.386773 203.118545 
L 66.386909 213.547355 
L 67.458484 222.389871 
L 68.601496 229.935484 
L 69.244441 233.532878 
L 69.315879 223.645091 
L 69.387317 224.07788 
L 70.601768 230.711607 
L 71.316151 234.067896 
L 71.38759 225.655423 
L 71.459028 226.013538 
L 71.887658 228.087403 
L 71.959096 220.037703 
L 72.030534 220.409379 
L 73.387862 226.835027 
L 74.102244 229.794207 
L 74.173683 222.808172 
L 74.245121 223.118769 
L 75.673887 228.817134 
L 76.316831 231.098646 
L 76.38827 224.928 
L 76.459708 225.194264 
L 76.674023 225.981134 
L 76.745461 219.944208 
L 76.816899 220.224 
L 78.388542 225.894575 
L 79.960184 230.770548 
L 80.031622 225.6 
L 80.103061 225.821165 
L 80.388814 226.692 
L 80.460252 221.630804 
L 80.53169 221.860174 
L 82.246209 226.967306 
L 84.032166 231.584604 
L 85.889562 235.769713 
L 86.103877 236.2176 
L 86.175315 232.142364 
L 86.246753 232.29994 
L 87.532643 235.008 
L 87.604081 231.129235 
L 87.675519 231.281744 
L 88.175587 232.329399 
L 88.532779 217.44929 
L 89.532915 219.888 
L 89.604353 216.284793 
L 89.675791 216.4608 
L 90.818804 219.17418 
L 90.890242 215.711383 
L 90.96168 215.881846 
L 93.033391 220.526873 
L 94.890786 224.25343 
L 94.962224 221.157618 
L 95.033663 221.2992 
L 96.319552 223.758497 
L 96.39099 220.777412 
L 96.462428 220.914495 
L 97.891194 223.554265 
L 97.962633 220.689413 
L 98.034071 220.821333 
L 100.391534 224.928 
L 102.820436 228.711975 
L 103.391942 229.544075 
L 103.463381 227.012977 
L 103.534819 227.119304 
L 106.106597 230.738824 
L 108.749814 234.080134 
L 109.178444 234.589743 
L 109.249882 232.334851 
L 109.32132 232.421959 
L 112.107413 235.641298 
L 112.67892 236.261472 
L 112.750358 234.147353 
L 112.821796 234.226605 
L 114.607754 236.143419 
L 114.679192 234.1008 
L 114.75063 234.177438 
L 116.679464 236.176696 
L 116.750902 234.205491 
L 116.82234 234.279325 
L 119.965625 237.360769 
L 120.465693 237.82262 
L 120.537131 235.968 
L 120.60857 236.035407 
L 123.894731 238.979238 
L 124.394799 239.401846 
L 124.466237 237.654403 
L 124.537676 237.71606 
L 127.25233 239.965377 
L 127.323769 238.288901 
L 127.395207 238.347387 
L 128.895411 239.548541 
L 128.966849 237.91104 
L 129.038288 237.968559 
L 129.538356 238.368 
L 129.609794 236.746276 
L 129.681232 236.804436 
L 133.324585 239.625229 
L 136.110678 241.605818 
L 136.182116 240.116665 
L 136.253555 240.166911 
L 136.396431 240.26713 
L 136.46787 238.784579 
L 136.539308 238.835848 
L 136.610746 238.887024 
L 136.682184 237.409733 
L 136.753623 237.462103 
L 137.753759 238.185489 
L 137.825197 236.729851 
L 137.896635 236.78208 
L 139.611154 238.008313 
L 139.682593 236.585739 
L 139.754031 236.636914 
L 143.826013 239.413828 
L 144.468958 239.828509 
L 144.540396 238.483862 
L 144.611834 238.530625 
L 145.040464 238.8096 
L 145.111902 237.474558 
L 145.183341 237.521839 
L 148.96957 239.922 
L 149.041008 238.64341 
L 149.112446 238.68775 
L 150.969842 239.816807 
L 151.184157 237.360769 
L 151.255595 237.405073 
L 151.327033 236.159561 
L 151.398472 236.204712 
L 152.327169 236.785483 
L 152.398608 235.554506 
L 152.470046 235.599603 
L 152.684361 235.734486 
L 152.755799 234.508915 
L 152.827237 234.554627 
L 154.113127 235.36587 
L 154.184565 234.158687 
L 154.256003 234.203982 
L 155.827646 235.183814 
L 155.899084 233.997804 
L 155.970522 234.042427 
L 159.39956 236.110721 
L 159.470998 234.965617 
L 159.542436 235.008 
L 161.971338 236.414512 
L 162.042777 235.297378 
L 162.114215 235.338492 
L 166.829142 237.933176 
L 166.90058 236.864669 
L 166.972018 236.902935 
L 172.187013 239.567551 
L 173.115711 240.01685 
L 173.187149 239.005134 
L 173.258588 239.04 
L 176.473311 240.565622 
L 176.544749 239.582118 
L 176.616187 239.615654 
L 179.40228 240.892924 
L 179.473719 239.932851 
L 179.545157 239.965377 
L 183.831454 241.849629 
L 183.902893 240.922664 
L 183.974331 240.953492 
L 185.68885 241.68305 
L 185.760288 240.769604 
L 185.831726 240.800071 
L 187.189054 241.372562 
L 187.260492 240.46985 
L 187.33193 240.50013 
L 193.547061 243.012706 
L 193.832815 243.122717 
L 193.904253 242.263065 
L 193.975691 242.290932 
L 194.690074 242.568 
L 194.761512 241.714007 
L 194.832951 241.741985 
L 201.476711 244.222571 
L 202.191094 244.475733 
L 202.262533 243.665058 
L 202.333971 243.690625 
L 203.334107 244.045923 
L 203.405545 243.24181 
L 203.476983 243.267383 
L 204.619996 243.673177 
L 204.691434 242.876272 
L 204.762873 242.901799 
L 209.406361 244.509562 
L 209.4778 243.737365 
L 209.549238 243.761684 
L 211.12088 244.290977 
L 211.192318 243.527498 
L 211.263757 243.551643 
L 215.335739 244.891785 
L 215.407177 244.148416 
L 215.478616 244.171636 
L 216.407313 244.471597 
L 216.478752 243.733429 
L 216.55019 243.756679 
L 224.265525 246.150416 
L 226.408674 246.776528 
L 226.480112 246.081082 
L 226.55155 246.101964 
L 230.266341 247.16403 
L 230.33778 246.483949 
L 230.409218 246.504198 
L 230.480656 246.524431 
L 230.552094 245.845457 
L 230.623533 245.865945 
L 239.196127 248.207528 
L 242.339412 249.01168 
L 242.41085 248.375295 
L 242.482288 248.393492 
L 243.696739 248.700709 
L 243.768178 248.069082 
L 243.839616 248.087264 
L 244.411122 248.23222 
L 244.482561 247.603185 
L 244.553999 247.621476 
L 244.768314 247.676264 
L 244.839752 247.048641 
L 244.91119 247.067108 
L 245.911326 247.324177 
L 245.982765 246.700494 
L 246.054203 246.718981 
L 246.339956 246.79279 
L 246.411394 246.170723 
L 246.482833 246.189369 
L 246.697147 246.245221 
L 246.768586 245.624535 
L 246.840024 245.643351 
L 249.626117 246.366274 
L 249.697556 245.755004 
L 249.768994 245.773485 
L 251.126321 246.122037 
L 251.19776 245.515591 
L 251.269198 245.534018 
L 251.412074 245.57083 
L 251.483513 244.965481 
L 251.554951 244.984082 
L 253.26947 245.426453 
L 253.340908 244.826898 
L 253.412346 244.845374 
L 255.269742 245.321064 
L 255.34118 244.72761 
L 255.412619 244.745935 
L 256.984261 245.145765 
L 257.055699 244.557474 
L 257.127137 244.575702 
L 262.485009 245.906627 
L 262.556447 245.333854 
L 262.627886 245.351323 
L 263.342268 245.525348 
L 263.413707 244.955092 
L 263.485145 244.97262 
L 263.770898 245.04261 
L 263.842336 244.473706 
L 263.913775 244.491364 
L 268.985893 245.714595 
L 269.057331 245.159489 
L 269.12877 245.176481 
L 273.27219 246.142728 
L 273.343629 245.598506 
L 273.415067 245.615015 
L 274.415203 245.844996 
L 274.486641 245.303739 
L 274.55808 245.320258 
L 276.772667 245.827003 
L 276.844105 245.29157 
L 276.915543 245.307915 
L 282.344853 246.519764 
L 282.416291 245.997377 
L 282.48773 246.013094 
L 288.917175 247.387821 
L 288.988614 246.88 
L 289.060052 246.894998 
L 293.346349 247.778239 
L 293.417788 247.279835 
L 293.489226 247.294431 
L 297.06114 248.013094 
L 297.132579 247.522347 
L 297.204017 247.536644 
L 297.346893 247.565212 
L 297.561208 246.6 
L 297.846961 246.658131 
L 297.9184 246.169391 
L 297.989838 246.184043 
L 306.419556 247.853924 
L 306.490994 247.38167 
L 306.562432 247.39547 
L 309.277087 247.914061 
L 309.348526 247.447149 
L 309.419964 247.460774 
L 311.134483 247.785465 
L 311.205921 247.322007 
L 311.277359 247.335568 
L 315.563657 248.135442 
L 315.635095 247.679841 
L 315.706533 247.693069 
L 317.063861 247.943029 
L 317.135299 247.490113 
L 317.206737 247.503318 
L 318.77838 247.791987 
L 318.849818 247.342084 
L 318.921256 247.355242 
L 321.135843 247.75961 
L 321.207281 247.313738 
L 321.27872 247.326787 
L 321.993103 247.456882 
L 322.064541 247.012537 
L 322.135979 247.025624 
L 322.707485 247.130069 
L 322.778924 246.687009 
L 322.850362 246.700149 
L 323.493307 246.818089 
L 323.564745 246.376421 
L 323.636183 246.389605 
L 324.279128 246.507946 
L 324.350566 246.067663 
L 324.422004 246.080891 
L 326.2794 246.422354 
L 326.350838 245.985369 
L 326.422276 245.998521 
L 332.494531 247.091429 
L 332.565969 246.664145 
L 332.637407 246.676824 
L 335.780692 247.228221 
L 335.85213 246.805947 
L 335.923569 246.818439 
L 336.780828 246.967847 
L 336.852266 246.547151 
L 336.923705 246.559665 
L 337.638088 246.68445 
L 337.709526 246.265114 
L 337.780964 246.277661 
L 337.852402 246.290202 
L 337.923841 245.871287 
L 337.995279 245.883925 
L 340.424181 246.309818 
L 340.495619 245.894705 
L 340.567057 245.907223 
L 345.424861 246.743821 
L 345.567738 246.348 
L 353.640264 247.687643 
L 353.783141 247.302343 
L 365.49902 249.135432 
L 365.641896 248.76429 
L 369.213811 249.299744 
L 369.356687 248.932948 
L 370.856891 249.155852 
L 370.999768 248.791045 
L 371.928466 248.928982 
L 372.142781 248.191651 
L 372.428534 248.23457 
L 372.57141 247.872 
L 374.000176 248.086971 
L 374.143053 247.726267 
L 376.714831 248.111098 
L 376.857708 247.75345 
L 377.286337 247.817437 
L 377.429214 247.460559 
L 378.572226 247.631551 
L 378.715103 247.276185 
L 379.572362 247.404522 
L 379.715239 247.050359 
L 381.715511 247.349225 
L 381.858388 246.997427 
L 383.287153 247.210105 
L 383.43003 246.860065 
L 389.002216 247.677517 
L 389.145093 247.333308 
L 389.216531 247.34368 
L 389.359408 246.999836 
L 393.717143 247.628348 
L 393.86002 247.288986 
L 397.717688 247.835551 
L 397.860564 247.500091 
L 400.218028 247.830214 
L 400.360904 247.497202 
L 407.147542 248.428776 
L 407.290418 248.102118 
L 411.005209 248.60011 
L 411.148086 248.276945 
L 413.434111 248.580188 
L 413.648426 247.929003 
L 414.72 248.07168 
L 414.72 248.07168 
" style="fill:none;stroke:#d62728;stroke-linecap:square;stroke-width:1.5;"/>
   </g>
   <g id="line2d_19">
    <path clip-path="url(#pa96bcf5ddd)" d="M 57.6 295.488 
L 58.457259 295.488 
L 58.528698 174.528 
L 58.600136 182.592 
L 59.028766 214.848 
L 59.528834 235.008 
L 60.10034 248.448 
L 60.671846 257.000727 
L 61.314791 263.536302 
L 62.029174 268.608 
L 62.814995 272.603676 
L 63.100748 273.777231 
L 63.172186 252.616101 
L 63.243625 253.152 
L 63.886569 257.433169 
L 63.958008 239.04 
L 64.029446 239.660308 
L 64.600952 244.171636 
L 64.67239 227.7504 
L 64.743829 228.421069 
L 64.958144 230.355692 
L 65.029582 214.848 
L 65.10102 215.608755 
L 66.101156 224.928 
L 67.172731 232.768 
L 68.101428 238.277189 
L 68.172867 227.295785 
L 68.244305 227.7504 
L 69.387317 234.279325 
L 70.601768 239.965377 
L 70.95896 241.442043 
L 71.030398 232.768 
L 71.101836 233.098105 
L 72.387726 238.497231 
L 73.745053 243.267383 
L 74.102244 244.392828 
L 74.173683 237.344137 
L 74.245121 237.592615 
L 75.388134 241.29792 
L 75.459572 234.767044 
L 75.53101 235.008 
L 76.888338 239.248295 
L 76.959776 233.229176 
L 77.031214 233.457231 
L 77.102653 233.68362 
L 77.174091 227.7504 
L 77.245529 227.995826 
L 78.817171 232.97847 
L 80.460252 237.457346 
L 81.174635 239.210538 
L 81.246073 234.279325 
L 81.317512 234.463135 
L 81.38895 234.645844 
L 81.460388 229.772418 
L 81.531826 229.968 
L 83.246345 234.336 
L 84.246481 236.625112 
L 84.31792 232.26624 
L 84.389358 232.434383 
L 86.246753 236.512478 
L 88.175587 240.224224 
L 90.247297 243.723459 
L 92.24757 246.705778 
L 92.319008 243.328657 
L 92.390446 243.435541 
L 92.604761 243.75358 
L 92.676199 240.41678 
L 92.747638 240.528487 
L 94.74791 243.482165 
L 94.819348 240.337655 
L 94.890786 240.443105 
L 96.176675 242.274543 
L 96.248114 239.248295 
L 96.319552 239.351867 
L 97.176811 240.565622 
L 97.24825 237.618647 
L 97.319688 237.722542 
L 99.677151 240.953492 
L 101.034479 242.654897 
L 101.105917 239.965377 
L 101.177355 240.056249 
L 102.963313 242.23517 
L 103.106189 237.093517 
L 103.177628 237.184901 
L 105.820844 240.376047 
L 107.963993 242.717915 
L 108.035431 240.397307 
L 108.106869 240.475119 
L 108.606937 241.013706 
L 108.678376 238.724648 
L 108.749814 238.803816 
L 110.892963 241.080289 
L 110.964401 238.88907 
L 111.035839 238.964636 
L 112.67892 240.648622 
L 112.750358 238.528828 
L 112.821796 238.602419 
L 115.822204 241.530353 
L 116.608026 242.248048 
L 116.679464 240.26713 
L 116.750902 240.333742 
L 118.679736 242.073421 
L 118.751174 240.159739 
L 118.822613 240.224224 
L 119.894187 241.173773 
L 119.965625 239.298343 
L 120.037063 239.36256 
L 120.822885 240.059377 
L 120.894323 238.21269 
L 120.965761 238.277189 
L 124.323361 241.153027 
L 127.038016 243.27505 
L 127.109454 241.590012 
L 127.180892 241.645292 
L 128.823973 242.886156 
L 128.895411 241.243676 
L 128.966849 241.29792 
L 130.538492 242.464438 
L 130.60993 240.860903 
L 130.681368 240.91425 
L 134.467598 243.599866 
L 138.468142 246.164505 
L 142.754439 248.64515 
L 146.0406 250.384271 
L 146.112038 249.054968 
L 146.183477 249.092384 
L 150.898404 251.435238 
L 150.969842 251.468917 
L 151.04128 250.208856 
L 151.112719 250.24342 
L 153.827373 251.518861 
L 153.898812 250.296125 
L 153.97025 250.3296 
L 154.184565 250.429729 
L 154.256003 249.212313 
L 154.327441 249.246465 
L 154.970386 249.551578 
L 155.041824 248.344615 
L 155.113263 248.379127 
L 155.970522 248.789364 
L 156.04196 247.595208 
L 156.113399 247.629913 
L 159.113807 249.043443 
L 159.185245 247.886032 
L 159.256683 247.919461 
L 159.685313 248.119049 
L 159.756751 246.968755 
L 159.82819 247.002637 
L 165.114623 249.385052 
L 167.75784 250.490566 
L 167.829278 249.422922 
L 167.900716 249.452738 
L 173.687217 251.746007 
L 174.473039 252.039936 
L 174.544477 251.032615 
L 174.615915 251.059739 
L 174.687353 251.086829 
L 174.758792 250.081931 
L 174.83023 250.109583 
L 180.973923 252.368 
L 181.331114 252.492409 
L 181.402553 251.540595 
L 181.473991 251.565925 
L 181.688306 251.64174 
L 181.759744 250.693152 
L 181.831182 250.718897 
L 183.760016 251.402975 
L 183.831454 250.470081 
L 183.902893 250.49553 
L 184.188646 250.597036 
L 184.260084 249.667752 
L 184.331522 249.693566 
L 184.617275 249.796533 
L 184.688714 248.870831 
L 184.760152 248.897006 
L 185.26022 249.079409 
L 185.331658 248.158766 
L 185.403097 248.185207 
L 189.332202 249.595317 
L 189.403641 248.702821 
L 189.475079 248.728152 
L 190.403777 249.054968 
L 190.475215 248.169956 
L 190.546653 248.195368 
L 197.333291 250.491127 
L 200.047946 251.348211 
L 200.119384 250.521908 
L 200.190822 250.544425 
L 201.190958 250.857309 
L 201.262396 250.037821 
L 201.333835 250.060399 
L 202.405409 250.396402 
L 202.476847 249.584008 
L 202.548286 249.606621 
L 203.19123 249.809138 
L 203.262669 249.001412 
L 203.334107 249.024188 
L 204.191366 249.295774 
L 204.262805 248.493803 
L 204.334243 248.516672 
L 205.405817 248.857043 
L 205.477255 248.061868 
L 205.548694 248.084757 
L 206.191638 248.289768 
L 206.263077 247.499066 
L 206.334515 247.522105 
L 207.763281 247.978271 
L 207.834719 247.195985 
L 207.906157 247.218926 
L 209.763553 247.80785 
L 209.834991 247.035917 
L 209.906429 247.058633 
L 213.549782 248.189538 
L 213.62122 247.436156 
L 213.692659 247.458137 
L 221.55087 249.75922 
L 224.336963 250.522998 
L 224.47984 249.112236 
L 224.551278 249.132072 
L 225.765729 249.466701 
L 225.837167 248.767457 
L 225.908606 248.787279 
L 230.123465 249.927735 
L 230.33778 248.584122 
L 234.195447 249.608307 
L 234.266885 248.942357 
L 234.338324 248.961164 
L 237.8388 249.864418 
L 237.910238 249.211818 
L 237.981676 249.230138 
L 243.053795 250.494792 
L 243.26811 249.244062 
L 248.340228 250.473309 
L 248.411666 249.856383 
L 248.483105 249.873455 
L 251.912142 250.678121 
L 251.983581 250.072453 
L 252.055019 250.089131 
L 254.769674 250.713962 
L 254.841112 250.117051 
L 254.912551 250.133472 
L 258.27015 250.892071 
L 258.341588 250.305503 
L 258.413027 250.32157 
L 260.127546 250.703797 
L 260.198984 250.12267 
L 260.270422 250.138655 
L 263.556583 250.861981 
L 263.628022 250.290468 
L 263.69946 250.306129 
L 263.913775 250.353047 
L 263.985213 249.782699 
L 264.056651 249.798508 
L 270.057467 251.088565 
L 270.128906 250.534452 
L 270.200344 250.549552 
L 271.62911 250.849441 
L 271.700548 250.299474 
L 271.771986 250.314542 
L 272.272054 250.419737 
L 272.343493 249.871558 
L 272.414931 249.886723 
L 275.772531 250.588282 
L 275.843969 250.048838 
L 275.915407 250.063702 
L 278.058556 250.505143 
L 278.129994 249.971316 
L 278.201432 249.986051 
L 286.774027 251.687589 
L 286.845465 251.173682 
L 286.916903 251.187483 
L 289.345805 251.651649 
L 289.56012 250.649379 
L 290.846009 250.8965 
L 290.917447 250.391802 
L 290.988886 250.405601 
L 292.131898 250.625247 
L 292.203337 250.123397 
L 292.274775 250.137203 
L 292.560528 250.19234 
L 292.631966 249.691537 
L 292.703405 249.705448 
L 297.346893 250.591914 
L 297.48977 249.610346 
L 297.561208 249.624 
L 299.132851 249.922347 
L 299.204289 249.435242 
L 299.275727 249.448851 
L 300.704493 249.719351 
L 300.775931 249.235454 
L 300.847369 249.249033 
L 301.990382 249.46523 
L 302.06182 248.983951 
L 302.133259 248.997533 
L 302.276135 249.024673 
L 302.347574 248.544084 
L 302.419012 248.557778 
L 303.204833 248.70789 
L 303.276271 248.229209 
L 303.34771 248.242943 
L 306.490994 248.839438 
L 306.562432 248.367036 
L 306.633871 248.380549 
L 306.705309 248.394055 
L 306.776747 247.922187 
L 306.848186 247.935817 
L 310.920168 248.699976 
L 310.991606 248.235869 
L 311.063045 248.249183 
L 312.92044 248.592738 
L 312.991878 248.132295 
L 313.063317 248.145534 
L 317.349614 248.926548 
L 317.421052 248.47386 
L 317.49249 248.48678 
L 324.850634 249.780507 
L 324.922072 249.34029 
L 324.993511 249.352615 
L 335.137748 251.038468 
L 335.280624 250.625778 
L 335.780692 250.706403 
L 335.923569 250.294836 
L 338.709662 250.742634 
L 338.852539 250.335334 
L 340.638496 250.620173 
L 340.781372 250.215707 
L 341.495755 250.3296 
L 341.638632 249.926501 
L 348.568146 251.011299 
L 348.711022 250.617657 
L 355.426221 251.629122 
L 355.569098 251.244242 
L 357.283617 251.497304 
L 357.426493 251.11487 
L 358.712382 251.304319 
L 358.855259 250.923789 
L 361.855667 251.363155 
L 361.998544 250.986527 
L 365.213267 251.451483 
L 365.356143 251.078921 
L 365.713335 251.130392 
L 365.856211 250.758584 
L 371.785589 251.602535 
L 371.928466 251.237693 
L 373.285793 251.42791 
L 373.42867 251.064879 
L 374.571682 251.225035 
L 374.714559 250.863568 
L 376.000448 251.043747 
L 376.143325 250.683982 
L 376.500516 250.734155 
L 376.643393 250.375092 
L 384.858796 251.507345 
L 385.001672 251.15711 
L 386.359 251.340096 
L 386.501876 250.991531 
L 387.502012 251.126398 
L 387.644889 250.779132 
L 388.573587 250.904556 
L 388.716463 250.558509 
L 391.716871 250.961895 
L 391.859748 250.619077 
L 393.002761 250.771952 
L 393.145637 250.430529 
L 395.574539 250.754272 
L 395.717415 250.415452 
L 397.717688 250.680474 
L 397.860564 250.343819 
L 411.3624 252.066462 
L 411.505277 251.742224 
L 414.72 252.135936 
L 414.72 252.135936 
" style="fill:none;stroke:#9467bd;stroke-linecap:square;stroke-width:1.5;"/>
   </g>
   <g id="line2d_20">
    <path clip-path="url(#pa96bcf5ddd)" d="M 57.6 249.719351 
L 414.72 249.719351 
L 414.72 249.719351 
" style="fill:none;stroke:#8c564b;stroke-linecap:square;stroke-width:1.5;"/>
   </g>
   <g id="patch_3">
    <path d="M 57.6 307.584 
L 57.6 41.472 
" style="fill:none;stroke:#000000;stroke-linecap:square;stroke-linejoin:miter;stroke-width:0.8;"/>
   </g>
   <g id="patch_4">
    <path d="M 414.72 307.584 
L 414.72 41.472 
" style="fill:none;stroke:#000000;stroke-linecap:square;stroke-linejoin:miter;stroke-width:0.8;"/>
   </g>
   <g id="patch_5">
    <path d="M 57.6 307.584 
L 414.72 307.584 
" style="fill:none;stroke:#000000;stroke-linecap:square;stroke-linejoin:miter;stroke-width:0.8;"/>
   </g>
   <g id="patch_6">
    <path d="M 57.6 41.472 
L 414.72 41.472 
" style="fill:none;stroke:#000000;stroke-linecap:square;stroke-linejoin:miter;stroke-width:0.8;"/>
   </g>
   <g id="text_17">
    <!-- Grafico frecuencias relativas esperadas vs obtenidas -->
    <defs>
     <path d="M 59.515625 10.40625 
L 59.515625 29.984375 
L 43.40625 29.984375 
L 43.40625 38.09375 
L 69.28125 38.09375 
L 69.28125 6.78125 
Q 63.578125 2.734375 56.6875 0.65625 
Q 49.8125 -1.421875 42 -1.421875 
Q 24.90625 -1.421875 15.25 8.5625 
Q 5.609375 18.5625 5.609375 36.375 
Q 5.609375 54.25 15.25 64.234375 
Q 24.90625 74.21875 42 74.21875 
Q 49.125 74.21875 55.546875 72.453125 
Q 61.96875 70.703125 67.390625 67.28125 
L 67.390625 56.78125 
Q 61.921875 61.421875 55.765625 63.765625 
Q 49.609375 66.109375 42.828125 66.109375 
Q 29.4375 66.109375 22.71875 58.640625 
Q 16.015625 51.171875 16.015625 36.375 
Q 16.015625 21.625 22.71875 14.15625 
Q 29.4375 6.6875 42.828125 6.6875 
Q 48.046875 6.6875 52.140625 7.59375 
Q 56.25 8.5 59.515625 10.40625 
z
" id="DejaVuSans-47"/>
     <path d="M 37.109375 75.984375 
L 37.109375 68.5 
L 28.515625 68.5 
Q 23.6875 68.5 21.796875 66.546875 
Q 19.921875 64.59375 19.921875 59.515625 
L 19.921875 54.6875 
L 34.71875 54.6875 
L 34.71875 47.703125 
L 19.921875 47.703125 
L 19.921875 0 
L 10.890625 0 
L 10.890625 47.703125 
L 2.296875 47.703125 
L 2.296875 54.6875 
L 10.890625 54.6875 
L 10.890625 58.5 
Q 10.890625 67.625 15.140625 71.796875 
Q 19.390625 75.984375 28.609375 75.984375 
z
" id="DejaVuSans-66"/>
     <path d="M 30.609375 48.390625 
Q 23.390625 48.390625 19.1875 42.75 
Q 14.984375 37.109375 14.984375 27.296875 
Q 14.984375 17.484375 19.15625 11.84375 
Q 23.34375 6.203125 30.609375 6.203125 
Q 37.796875 6.203125 41.984375 11.859375 
Q 46.1875 17.53125 46.1875 27.296875 
Q 46.1875 37.015625 41.984375 42.703125 
Q 37.796875 48.390625 30.609375 48.390625 
z
M 30.609375 56 
Q 42.328125 56 49.015625 48.375 
Q 55.71875 40.765625 55.71875 27.296875 
Q 55.71875 13.875 49.015625 6.21875 
Q 42.328125 -1.421875 30.609375 -1.421875 
Q 18.84375 -1.421875 12.171875 6.21875 
Q 5.515625 13.875 5.515625 27.296875 
Q 5.515625 40.765625 12.171875 48.375 
Q 18.84375 56 30.609375 56 
z
" id="DejaVuSans-6f"/>
     <path d="M 18.109375 8.203125 
L 18.109375 -20.796875 
L 9.078125 -20.796875 
L 9.078125 54.6875 
L 18.109375 54.6875 
L 18.109375 46.390625 
Q 20.953125 51.265625 25.265625 53.625 
Q 29.59375 56 35.59375 56 
Q 45.5625 56 51.78125 48.09375 
Q 58.015625 40.1875 58.015625 27.296875 
Q 58.015625 14.40625 51.78125 6.484375 
Q 45.5625 -1.421875 35.59375 -1.421875 
Q 29.59375 -1.421875 25.265625 0.953125 
Q 20.953125 3.328125 18.109375 8.203125 
z
M 48.6875 27.296875 
Q 48.6875 37.203125 44.609375 42.84375 
Q 40.53125 48.484375 33.40625 48.484375 
Q 26.265625 48.484375 22.1875 42.84375 
Q 18.109375 37.203125 18.109375 27.296875 
Q 18.109375 17.390625 22.1875 11.75 
Q 26.265625 6.109375 33.40625 6.109375 
Q 40.53125 6.109375 44.609375 11.75 
Q 48.6875 17.390625 48.6875 27.296875 
z
" id="DejaVuSans-70"/>
     <path d="M 48.6875 27.296875 
Q 48.6875 37.203125 44.609375 42.84375 
Q 40.53125 48.484375 33.40625 48.484375 
Q 26.265625 48.484375 22.1875 42.84375 
Q 18.109375 37.203125 18.109375 27.296875 
Q 18.109375 17.390625 22.1875 11.75 
Q 26.265625 6.109375 33.40625 6.109375 
Q 40.53125 6.109375 44.609375 11.75 
Q 48.6875 17.390625 48.6875 27.296875 
z
M 18.109375 46.390625 
Q 20.953125 51.265625 25.265625 53.625 
Q 29.59375 56 35.59375 56 
Q 45.5625 56 51.78125 48.09375 
Q 58.015625 40.1875 58.015625 27.296875 
Q 58.015625 14.40625 51.78125 6.484375 
Q 45.5625 -1.421875 35.59375 -1.421875 
Q 29.59375 -1.421875 25.265625 0.953125 
Q 20.953125 3.328125 18.109375 8.203125 
L 18.109375 0 
L 9.078125 0 
L 9.078125 75.984375 
L 18.109375 75.984375 
z
" id="DejaVuSans-62"/>
    </defs>
    <g transform="translate(77.221875 35.472)scale(0.12 -0.12)">
     <use xlink:href="#DejaVuSans-47"/>
     <use x="77.490234" xlink:href="#DejaVuSans-72"/>
     <use x="118.603516" xlink:href="#DejaVuSans-61"/>
     <use x="179.882812" xlink:href="#DejaVuSans-66"/>
     <use x="215.087891" xlink:href="#DejaVuSans-69"/>
     <use x="242.871094" xlink:href="#DejaVuSans-63"/>
     <use x="297.851562" xlink:href="#DejaVuSans-6f"/>
     <use x="359.033203" xlink:href="#DejaVuSans-20"/>
     <use x="390.820312" xlink:href="#DejaVuSans-66"/>
     <use x="426.025391" xlink:href="#DejaVuSans-72"/>
     <use x="467.107422" xlink:href="#DejaVuSans-65"/>
     <use x="528.630859" xlink:href="#DejaVuSans-63"/>
     <use x="583.611328" xlink:href="#DejaVuSans-75"/>
     <use x="646.990234" xlink:href="#DejaVuSans-65"/>
     <use x="708.513672" xlink:href="#DejaVuSans-6e"/>
     <use x="771.892578" xlink:href="#DejaVuSans-63"/>
     <use x="826.873047" xlink:href="#DejaVuSans-69"/>
     <use x="854.65625" xlink:href="#DejaVuSans-61"/>
     <use x="915.935547" xlink:href="#DejaVuSans-73"/>
     <use x="968.035156" xlink:href="#DejaVuSans-20"/>
     <use x="999.822266" xlink:href="#DejaVuSans-72"/>
     <use x="1040.904297" xlink:href="#DejaVuSans-65"/>
     <use x="1102.427734" xlink:href="#DejaVuSans-6c"/>
     <use x="1130.210938" xlink:href="#DejaVuSans-61"/>
     <use x="1191.490234" xlink:href="#DejaVuSans-74"/>
     <use x="1230.699219" xlink:href="#DejaVuSans-69"/>
     <use x="1258.482422" xlink:href="#DejaVuSans-76"/>
     <use x="1317.662109" xlink:href="#DejaVuSans-61"/>
     <use x="1378.941406" xlink:href="#DejaVuSans-73"/>
     <use x="1431.041016" xlink:href="#DejaVuSans-20"/>
     <use x="1462.828125" xlink:href="#DejaVuSans-65"/>
     <use x="1524.351562" xlink:href="#DejaVuSans-73"/>
     <use x="1576.451172" xlink:href="#DejaVuSans-70"/>
     <use x="1639.927734" xlink:href="#DejaVuSans-65"/>
     <use x="1701.451172" xlink:href="#DejaVuSans-72"/>
     <use x="1742.564453" xlink:href="#DejaVuSans-61"/>
     <use x="1803.84375" xlink:href="#DejaVuSans-64"/>
     <use x="1867.320312" xlink:href="#DejaVuSans-61"/>
     <use x="1928.599609" xlink:href="#DejaVuSans-73"/>
     <use x="1980.699219" xlink:href="#DejaVuSans-20"/>
     <use x="2012.486328" xlink:href="#DejaVuSans-76"/>
     <use x="2071.666016" xlink:href="#DejaVuSans-73"/>
     <use x="2123.765625" xlink:href="#DejaVuSans-20"/>
     <use x="2155.552734" xlink:href="#DejaVuSans-6f"/>
     <use x="2216.734375" xlink:href="#DejaVuSans-62"/>
     <use x="2280.210938" xlink:href="#DejaVuSans-74"/>
     <use x="2319.419922" xlink:href="#DejaVuSans-65"/>
     <use x="2380.943359" xlink:href="#DejaVuSans-6e"/>
     <use x="2444.322266" xlink:href="#DejaVuSans-69"/>
     <use x="2472.105469" xlink:href="#DejaVuSans-64"/>
     <use x="2535.582031" xlink:href="#DejaVuSans-61"/>
     <use x="2596.861328" xlink:href="#DejaVuSans-73"/>
    </g>
   </g>
   <g id="legend_1">
    <g id="patch_7">
     <path d="M 223.045 137.54075 
L 407.72 137.54075 
Q 409.72 137.54075 409.72 135.54075 
L 409.72 48.472 
Q 409.72 46.472 407.72 46.472 
L 223.045 46.472 
Q 221.045 46.472 221.045 48.472 
L 221.045 135.54075 
Q 221.045 137.54075 223.045 137.54075 
z
" style="fill:#ffffff;opacity:0.8;stroke:#cccccc;stroke-linejoin:miter;"/>
    </g>
    <g id="line2d_21">
     <path d="M 225.045 54.570438 
L 245.045 54.570438 
" style="fill:none;stroke:#1f77b4;stroke-linecap:square;stroke-width:1.5;"/>
    </g>
    <g id="line2d_22"/>
    <g id="text_18">
     <!-- Frecuencia relativa 1 obtenida -->
     <g transform="translate(253.045 58.070438)scale(0.1 -0.1)">
      <use xlink:href="#DejaVuSans-46"/>
      <use x="57.410156" xlink:href="#DejaVuSans-72"/>
      <use x="98.492188" xlink:href="#DejaVuSans-65"/>
      <use x="160.015625" xlink:href="#DejaVuSans-63"/>
      <use x="214.996094" xlink:href="#DejaVuSans-75"/>
      <use x="278.375" xlink:href="#DejaVuSans-65"/>
      <use x="339.898438" xlink:href="#DejaVuSans-6e"/>
      <use x="403.277344" xlink:href="#DejaVuSans-63"/>
      <use x="458.257812" xlink:href="#DejaVuSans-69"/>
      <use x="486.041016" xlink:href="#DejaVuSans-61"/>
      <use x="547.320312" xlink:href="#DejaVuSans-20"/>
      <use x="579.107422" xlink:href="#DejaVuSans-72"/>
      <use x="620.189453" xlink:href="#DejaVuSans-65"/>
      <use x="681.712891" xlink:href="#DejaVuSans-6c"/>
      <use x="709.496094" xlink:href="#DejaVuSans-61"/>
      <use x="770.775391" xlink:href="#DejaVuSans-74"/>
      <use x="809.984375" xlink:href="#DejaVuSans-69"/>
      <use x="837.767578" xlink:href="#DejaVuSans-76"/>
      <use x="896.947266" xlink:href="#DejaVuSans-61"/>
      <use x="958.226562" xlink:href="#DejaVuSans-20"/>
      <use x="990.013672" xlink:href="#DejaVuSans-31"/>
      <use x="1053.636719" xlink:href="#DejaVuSans-20"/>
      <use x="1085.423828" xlink:href="#DejaVuSans-6f"/>
      <use x="1146.605469" xlink:href="#DejaVuSans-62"/>
      <use x="1210.082031" xlink:href="#DejaVuSans-74"/>
      <use x="1249.291016" xlink:href="#DejaVuSans-65"/>
      <use x="1310.814453" xlink:href="#DejaVuSans-6e"/>
      <use x="1374.193359" xlink:href="#DejaVuSans-69"/>
      <use x="1401.976562" xlink:href="#DejaVuSans-64"/>
      <use x="1465.453125" xlink:href="#DejaVuSans-61"/>
     </g>
    </g>
    <g id="line2d_23">
     <path d="M 225.045 69.248563 
L 245.045 69.248563 
" style="fill:none;stroke:#ff7f0e;stroke-linecap:square;stroke-width:1.5;"/>
    </g>
    <g id="line2d_24"/>
    <g id="text_19">
     <!-- Frecuencia relativa 2 obtenida -->
     <g transform="translate(253.045 72.748563)scale(0.1 -0.1)">
      <use xlink:href="#DejaVuSans-46"/>
      <use x="57.410156" xlink:href="#DejaVuSans-72"/>
      <use x="98.492188" xlink:href="#DejaVuSans-65"/>
      <use x="160.015625" xlink:href="#DejaVuSans-63"/>
      <use x="214.996094" xlink:href="#DejaVuSans-75"/>
      <use x="278.375" xlink:href="#DejaVuSans-65"/>
      <use x="339.898438" xlink:href="#DejaVuSans-6e"/>
      <use x="403.277344" xlink:href="#DejaVuSans-63"/>
      <use x="458.257812" xlink:href="#DejaVuSans-69"/>
      <use x="486.041016" xlink:href="#DejaVuSans-61"/>
      <use x="547.320312" xlink:href="#DejaVuSans-20"/>
      <use x="579.107422" xlink:href="#DejaVuSans-72"/>
      <use x="620.189453" xlink:href="#DejaVuSans-65"/>
      <use x="681.712891" xlink:href="#DejaVuSans-6c"/>
      <use x="709.496094" xlink:href="#DejaVuSans-61"/>
      <use x="770.775391" xlink:href="#DejaVuSans-74"/>
      <use x="809.984375" xlink:href="#DejaVuSans-69"/>
      <use x="837.767578" xlink:href="#DejaVuSans-76"/>
      <use x="896.947266" xlink:href="#DejaVuSans-61"/>
      <use x="958.226562" xlink:href="#DejaVuSans-20"/>
      <use x="990.013672" xlink:href="#DejaVuSans-32"/>
      <use x="1053.636719" xlink:href="#DejaVuSans-20"/>
      <use x="1085.423828" xlink:href="#DejaVuSans-6f"/>
      <use x="1146.605469" xlink:href="#DejaVuSans-62"/>
      <use x="1210.082031" xlink:href="#DejaVuSans-74"/>
      <use x="1249.291016" xlink:href="#DejaVuSans-65"/>
      <use x="1310.814453" xlink:href="#DejaVuSans-6e"/>
      <use x="1374.193359" xlink:href="#DejaVuSans-69"/>
      <use x="1401.976562" xlink:href="#DejaVuSans-64"/>
      <use x="1465.453125" xlink:href="#DejaVuSans-61"/>
     </g>
    </g>
    <g id="line2d_25">
     <path d="M 225.045 83.926688 
L 245.045 83.926688 
" style="fill:none;stroke:#2ca02c;stroke-linecap:square;stroke-width:1.5;"/>
    </g>
    <g id="line2d_26"/>
    <g id="text_20">
     <!-- Frecuencia relativa 3 obtenida -->
     <g transform="translate(253.045 87.426688)scale(0.1 -0.1)">
      <use xlink:href="#DejaVuSans-46"/>
      <use x="57.410156" xlink:href="#DejaVuSans-72"/>
      <use x="98.492188" xlink:href="#DejaVuSans-65"/>
      <use x="160.015625" xlink:href="#DejaVuSans-63"/>
      <use x="214.996094" xlink:href="#DejaVuSans-75"/>
      <use x="278.375" xlink:href="#DejaVuSans-65"/>
      <use x="339.898438" xlink:href="#DejaVuSans-6e"/>
      <use x="403.277344" xlink:href="#DejaVuSans-63"/>
      <use x="458.257812" xlink:href="#DejaVuSans-69"/>
      <use x="486.041016" xlink:href="#DejaVuSans-61"/>
      <use x="547.320312" xlink:href="#DejaVuSans-20"/>
      <use x="579.107422" xlink:href="#DejaVuSans-72"/>
      <use x="620.189453" xlink:href="#DejaVuSans-65"/>
      <use x="681.712891" xlink:href="#DejaVuSans-6c"/>
      <use x="709.496094" xlink:href="#DejaVuSans-61"/>
      <use x="770.775391" xlink:href="#DejaVuSans-74"/>
      <use x="809.984375" xlink:href="#DejaVuSans-69"/>
      <use x="837.767578" xlink:href="#DejaVuSans-76"/>
      <use x="896.947266" xlink:href="#DejaVuSans-61"/>
      <use x="958.226562" xlink:href="#DejaVuSans-20"/>
      <use x="990.013672" xlink:href="#DejaVuSans-33"/>
      <use x="1053.636719" xlink:href="#DejaVuSans-20"/>
      <use x="1085.423828" xlink:href="#DejaVuSans-6f"/>
      <use x="1146.605469" xlink:href="#DejaVuSans-62"/>
      <use x="1210.082031" xlink:href="#DejaVuSans-74"/>
      <use x="1249.291016" xlink:href="#DejaVuSans-65"/>
      <use x="1310.814453" xlink:href="#DejaVuSans-6e"/>
      <use x="1374.193359" xlink:href="#DejaVuSans-69"/>
      <use x="1401.976562" xlink:href="#DejaVuSans-64"/>
      <use x="1465.453125" xlink:href="#DejaVuSans-61"/>
     </g>
    </g>
    <g id="line2d_27">
     <path d="M 225.045 98.604813 
L 245.045 98.604813 
" style="fill:none;stroke:#d62728;stroke-linecap:square;stroke-width:1.5;"/>
    </g>
    <g id="line2d_28"/>
    <g id="text_21">
     <!-- Frecuencia relativa 4 obtenida -->
     <g transform="translate(253.045 102.104813)scale(0.1 -0.1)">
      <use xlink:href="#DejaVuSans-46"/>
      <use x="57.410156" xlink:href="#DejaVuSans-72"/>
      <use x="98.492188" xlink:href="#DejaVuSans-65"/>
      <use x="160.015625" xlink:href="#DejaVuSans-63"/>
      <use x="214.996094" xlink:href="#DejaVuSans-75"/>
      <use x="278.375" xlink:href="#DejaVuSans-65"/>
      <use x="339.898438" xlink:href="#DejaVuSans-6e"/>
      <use x="403.277344" xlink:href="#DejaVuSans-63"/>
      <use x="458.257812" xlink:href="#DejaVuSans-69"/>
      <use x="486.041016" xlink:href="#DejaVuSans-61"/>
      <use x="547.320312" xlink:href="#DejaVuSans-20"/>
      <use x="579.107422" xlink:href="#DejaVuSans-72"/>
      <use x="620.189453" xlink:href="#DejaVuSans-65"/>
      <use x="681.712891" xlink:href="#DejaVuSans-6c"/>
      <use x="709.496094" xlink:href="#DejaVuSans-61"/>
      <use x="770.775391" xlink:href="#DejaVuSans-74"/>
      <use x="809.984375" xlink:href="#DejaVuSans-69"/>
      <use x="837.767578" xlink:href="#DejaVuSans-76"/>
      <use x="896.947266" xlink:href="#DejaVuSans-61"/>
      <use x="958.226562" xlink:href="#DejaVuSans-20"/>
      <use x="990.013672" xlink:href="#DejaVuSans-34"/>
      <use x="1053.636719" xlink:href="#DejaVuSans-20"/>
      <use x="1085.423828" xlink:href="#DejaVuSans-6f"/>
      <use x="1146.605469" xlink:href="#DejaVuSans-62"/>
      <use x="1210.082031" xlink:href="#DejaVuSans-74"/>
      <use x="1249.291016" xlink:href="#DejaVuSans-65"/>
      <use x="1310.814453" xlink:href="#DejaVuSans-6e"/>
      <use x="1374.193359" xlink:href="#DejaVuSans-69"/>
      <use x="1401.976562" xlink:href="#DejaVuSans-64"/>
      <use x="1465.453125" xlink:href="#DejaVuSans-61"/>
     </g>
    </g>
    <g id="line2d_29">
     <path d="M 225.045 113.282938 
L 245.045 113.282938 
" style="fill:none;stroke:#9467bd;stroke-linecap:square;stroke-width:1.5;"/>
    </g>
    <g id="line2d_30"/>
    <g id="text_22">
     <!-- Frecuencia relativa 5 obtenida -->
     <g transform="translate(253.045 116.782938)scale(0.1 -0.1)">
      <use xlink:href="#DejaVuSans-46"/>
      <use x="57.410156" xlink:href="#DejaVuSans-72"/>
      <use x="98.492188" xlink:href="#DejaVuSans-65"/>
      <use x="160.015625" xlink:href="#DejaVuSans-63"/>
      <use x="214.996094" xlink:href="#DejaVuSans-75"/>
      <use x="278.375" xlink:href="#DejaVuSans-65"/>
      <use x="339.898438" xlink:href="#DejaVuSans-6e"/>
      <use x="403.277344" xlink:href="#DejaVuSans-63"/>
      <use x="458.257812" xlink:href="#DejaVuSans-69"/>
      <use x="486.041016" xlink:href="#DejaVuSans-61"/>
      <use x="547.320312" xlink:href="#DejaVuSans-20"/>
      <use x="579.107422" xlink:href="#DejaVuSans-72"/>
      <use x="620.189453" xlink:href="#DejaVuSans-65"/>
      <use x="681.712891" xlink:href="#DejaVuSans-6c"/>
      <use x="709.496094" xlink:href="#DejaVuSans-61"/>
      <use x="770.775391" xlink:href="#DejaVuSans-74"/>
      <use x="809.984375" xlink:href="#DejaVuSans-69"/>
      <use x="837.767578" xlink:href="#DejaVuSans-76"/>
      <use x="896.947266" xlink:href="#DejaVuSans-61"/>
      <use x="958.226562" xlink:href="#DejaVuSans-20"/>
      <use x="990.013672" xlink:href="#DejaVuSans-35"/>
      <use x="1053.636719" xlink:href="#DejaVuSans-20"/>
      <use x="1085.423828" xlink:href="#DejaVuSans-6f"/>
      <use x="1146.605469" xlink:href="#DejaVuSans-62"/>
      <use x="1210.082031" xlink:href="#DejaVuSans-74"/>
      <use x="1249.291016" xlink:href="#DejaVuSans-65"/>
      <use x="1310.814453" xlink:href="#DejaVuSans-6e"/>
      <use x="1374.193359" xlink:href="#DejaVuSans-69"/>
      <use x="1401.976562" xlink:href="#DejaVuSans-64"/>
      <use x="1465.453125" xlink:href="#DejaVuSans-61"/>
     </g>
    </g>
    <g id="line2d_31">
     <path d="M 225.045 127.961063 
L 245.045 127.961063 
" style="fill:none;stroke:#8c564b;stroke-linecap:square;stroke-width:1.5;"/>
    </g>
    <g id="line2d_32"/>
    <g id="text_23">
     <!-- Frecuencia relativa esperada -->
     <g transform="translate(253.045 131.461063)scale(0.1 -0.1)">
      <use xlink:href="#DejaVuSans-46"/>
      <use x="57.410156" xlink:href="#DejaVuSans-72"/>
      <use x="98.492188" xlink:href="#DejaVuSans-65"/>
      <use x="160.015625" xlink:href="#DejaVuSans-63"/>
      <use x="214.996094" xlink:href="#DejaVuSans-75"/>
      <use x="278.375" xlink:href="#DejaVuSans-65"/>
      <use x="339.898438" xlink:href="#DejaVuSans-6e"/>
      <use x="403.277344" xlink:href="#DejaVuSans-63"/>
      <use x="458.257812" xlink:href="#DejaVuSans-69"/>
      <use x="486.041016" xlink:href="#DejaVuSans-61"/>
      <use x="547.320312" xlink:href="#DejaVuSans-20"/>
      <use x="579.107422" xlink:href="#DejaVuSans-72"/>
      <use x="620.189453" xlink:href="#DejaVuSans-65"/>
      <use x="681.712891" xlink:href="#DejaVuSans-6c"/>
      <use x="709.496094" xlink:href="#DejaVuSans-61"/>
      <use x="770.775391" xlink:href="#DejaVuSans-74"/>
      <use x="809.984375" xlink:href="#DejaVuSans-69"/>
      <use x="837.767578" xlink:href="#DejaVuSans-76"/>
      <use x="896.947266" xlink:href="#DejaVuSans-61"/>
      <use x="958.226562" xlink:href="#DejaVuSans-20"/>
      <use x="990.013672" xlink:href="#DejaVuSans-65"/>
      <use x="1051.537109" xlink:href="#DejaVuSans-73"/>
      <use x="1103.636719" xlink:href="#DejaVuSans-70"/>
      <use x="1167.113281" xlink:href="#DejaVuSans-65"/>
      <use x="1228.636719" xlink:href="#DejaVuSans-72"/>
      <use x="1269.75" xlink:href="#DejaVuSans-61"/>
      <use x="1331.029297" xlink:href="#DejaVuSans-64"/>
      <use x="1394.505859" xlink:href="#DejaVuSans-61"/>
     </g>
    </g>
   </g>
  </g>
 </g>
 <defs>
  <clipPath id="pa96bcf5ddd">
   <rect height="266.112" width="357.12" x="57.6" y="41.472"/>
  </clipPath>
 </defs>
</svg>
