<?xml version="1.0" encoding="utf-8" standalone="no"?>
<!DOCTYPE svg PUBLIC "-//W3C//DTD SVG 1.1//EN"
  "http://www.w3.org/Graphics/SVG/1.1/DTD/svg11.dtd">
<!-- Created with matplotlib (http://matplotlib.org/) -->
<svg height="345.6pt" version="1.1" viewBox="0 0 460.8 345.6" width="460.8pt" xmlns="http://www.w3.org/2000/svg" xmlns:xlink="http://www.w3.org/1999/xlink">
 <defs>
  <style type="text/css">
*{stroke-linecap:butt;stroke-linejoin:round;}
  </style>
 </defs>
 <g id="figure_1">
  <g id="patch_1">
   <path d="M 0 345.6 
L 460.8 345.6 
L 460.8 0 
L 0 0 
z
" style="fill:#ffffff;"/>
  </g>
  <g id="axes_1">
   <g id="patch_2">
    <path d="M 57.6 307.584 
L 414.72 307.584 
L 414.72 41.472 
L 57.6 41.472 
z
" style="fill:#ffffff;"/>
   </g>
   <g id="matplotlib.axis_1">
    <g id="xtick_1">
     <g id="line2d_1">
      <defs>
       <path d="M 0 0 
L 0 3.5 
" id="ma23956bdea" style="stroke:#000000;stroke-width:0.8;"/>
      </defs>
      <g>
       <use style="stroke:#000000;stroke-width:0.8;" x="57.361761" xlink:href="#ma23956bdea" y="307.584"/>
      </g>
     </g>
     <g id="text_1">
      <!-- 0 -->
      <defs>
       <path d="M 31.78125 66.40625 
Q 24.171875 66.40625 20.328125 58.90625 
Q 16.5 51.421875 16.5 36.375 
Q 16.5 21.390625 20.328125 13.890625 
Q 24.171875 6.390625 31.78125 6.390625 
Q 39.453125 6.390625 43.28125 13.890625 
Q 47.125 21.390625 47.125 36.375 
Q 47.125 51.421875 43.28125 58.90625 
Q 39.453125 66.40625 31.78125 66.40625 
z
M 31.78125 74.21875 
Q 44.046875 74.21875 50.515625 64.515625 
Q 56.984375 54.828125 56.984375 36.375 
Q 56.984375 17.96875 50.515625 8.265625 
Q 44.046875 -1.421875 31.78125 -1.421875 
Q 19.53125 -1.421875 13.0625 8.265625 
Q 6.59375 17.96875 6.59375 36.375 
Q 6.59375 54.828125 13.0625 64.515625 
Q 19.53125 74.21875 31.78125 74.21875 
z
" id="DejaVuSans-30"/>
      </defs>
      <g transform="translate(54.180511 322.182437)scale(0.1 -0.1)">
       <use xlink:href="#DejaVuSans-30"/>
      </g>
     </g>
    </g>
    <g id="xtick_2">
     <g id="line2d_2">
      <g>
       <use style="stroke:#000000;stroke-width:0.8;" x="105.009526" xlink:href="#ma23956bdea" y="307.584"/>
      </g>
     </g>
     <g id="text_2">
      <!-- 200 -->
      <defs>
       <path d="M 19.1875 8.296875 
L 53.609375 8.296875 
L 53.609375 0 
L 7.328125 0 
L 7.328125 8.296875 
Q 12.9375 14.109375 22.625 23.890625 
Q 32.328125 33.6875 34.8125 36.53125 
Q 39.546875 41.84375 41.421875 45.53125 
Q 43.3125 49.21875 43.3125 52.78125 
Q 43.3125 58.59375 39.234375 62.25 
Q 35.15625 65.921875 28.609375 65.921875 
Q 23.96875 65.921875 18.8125 64.3125 
Q 13.671875 62.703125 7.8125 59.421875 
L 7.8125 69.390625 
Q 13.765625 71.78125 18.9375 73 
Q 24.125 74.21875 28.421875 74.21875 
Q 39.75 74.21875 46.484375 68.546875 
Q 53.21875 62.890625 53.21875 53.421875 
Q 53.21875 48.921875 51.53125 44.890625 
Q 49.859375 40.875 45.40625 35.40625 
Q 44.1875 33.984375 37.640625 27.21875 
Q 31.109375 20.453125 19.1875 8.296875 
z
" id="DejaVuSans-32"/>
      </defs>
      <g transform="translate(95.465776 322.182437)scale(0.1 -0.1)">
       <use xlink:href="#DejaVuSans-32"/>
       <use x="63.623047" xlink:href="#DejaVuSans-30"/>
       <use x="127.246094" xlink:href="#DejaVuSans-30"/>
      </g>
     </g>
    </g>
    <g id="xtick_3">
     <g id="line2d_3">
      <g>
       <use style="stroke:#000000;stroke-width:0.8;" x="152.657292" xlink:href="#ma23956bdea" y="307.584"/>
      </g>
     </g>
     <g id="text_3">
      <!-- 400 -->
      <defs>
       <path d="M 37.796875 64.3125 
L 12.890625 25.390625 
L 37.796875 25.390625 
z
M 35.203125 72.90625 
L 47.609375 72.90625 
L 47.609375 25.390625 
L 58.015625 25.390625 
L 58.015625 17.1875 
L 47.609375 17.1875 
L 47.609375 0 
L 37.796875 0 
L 37.796875 17.1875 
L 4.890625 17.1875 
L 4.890625 26.703125 
z
" id="DejaVuSans-34"/>
      </defs>
      <g transform="translate(143.113542 322.182437)scale(0.1 -0.1)">
       <use xlink:href="#DejaVuSans-34"/>
       <use x="63.623047" xlink:href="#DejaVuSans-30"/>
       <use x="127.246094" xlink:href="#DejaVuSans-30"/>
      </g>
     </g>
    </g>
    <g id="xtick_4">
     <g id="line2d_4">
      <g>
       <use style="stroke:#000000;stroke-width:0.8;" x="200.305057" xlink:href="#ma23956bdea" y="307.584"/>
      </g>
     </g>
     <g id="text_4">
      <!-- 600 -->
      <defs>
       <path d="M 33.015625 40.375 
Q 26.375 40.375 22.484375 35.828125 
Q 18.609375 31.296875 18.609375 23.390625 
Q 18.609375 15.53125 22.484375 10.953125 
Q 26.375 6.390625 33.015625 6.390625 
Q 39.65625 6.390625 43.53125 10.953125 
Q 47.40625 15.53125 47.40625 23.390625 
Q 47.40625 31.296875 43.53125 35.828125 
Q 39.65625 40.375 33.015625 40.375 
z
M 52.59375 71.296875 
L 52.59375 62.3125 
Q 48.875 64.0625 45.09375 64.984375 
Q 41.3125 65.921875 37.59375 65.921875 
Q 27.828125 65.921875 22.671875 59.328125 
Q 17.53125 52.734375 16.796875 39.40625 
Q 19.671875 43.65625 24.015625 45.921875 
Q 28.375 48.1875 33.59375 48.1875 
Q 44.578125 48.1875 50.953125 41.515625 
Q 57.328125 34.859375 57.328125 23.390625 
Q 57.328125 12.15625 50.6875 5.359375 
Q 44.046875 -1.421875 33.015625 -1.421875 
Q 20.359375 -1.421875 13.671875 8.265625 
Q 6.984375 17.96875 6.984375 36.375 
Q 6.984375 53.65625 15.1875 63.9375 
Q 23.390625 74.21875 37.203125 74.21875 
Q 40.921875 74.21875 44.703125 73.484375 
Q 48.484375 72.75 52.59375 71.296875 
z
" id="DejaVuSans-36"/>
      </defs>
      <g transform="translate(190.761307 322.182437)scale(0.1 -0.1)">
       <use xlink:href="#DejaVuSans-36"/>
       <use x="63.623047" xlink:href="#DejaVuSans-30"/>
       <use x="127.246094" xlink:href="#DejaVuSans-30"/>
      </g>
     </g>
    </g>
    <g id="xtick_5">
     <g id="line2d_5">
      <g>
       <use style="stroke:#000000;stroke-width:0.8;" x="247.952822" xlink:href="#ma23956bdea" y="307.584"/>
      </g>
     </g>
     <g id="text_5">
      <!-- 800 -->
      <defs>
       <path d="M 31.78125 34.625 
Q 24.75 34.625 20.71875 30.859375 
Q 16.703125 27.09375 16.703125 20.515625 
Q 16.703125 13.921875 20.71875 10.15625 
Q 24.75 6.390625 31.78125 6.390625 
Q 38.8125 6.390625 42.859375 10.171875 
Q 46.921875 13.96875 46.921875 20.515625 
Q 46.921875 27.09375 42.890625 30.859375 
Q 38.875 34.625 31.78125 34.625 
z
M 21.921875 38.8125 
Q 15.578125 40.375 12.03125 44.71875 
Q 8.5 49.078125 8.5 55.328125 
Q 8.5 64.0625 14.71875 69.140625 
Q 20.953125 74.21875 31.78125 74.21875 
Q 42.671875 74.21875 48.875 69.140625 
Q 55.078125 64.0625 55.078125 55.328125 
Q 55.078125 49.078125 51.53125 44.71875 
Q 48 40.375 41.703125 38.8125 
Q 48.828125 37.15625 52.796875 32.3125 
Q 56.78125 27.484375 56.78125 20.515625 
Q 56.78125 9.90625 50.3125 4.234375 
Q 43.84375 -1.421875 31.78125 -1.421875 
Q 19.734375 -1.421875 13.25 4.234375 
Q 6.78125 9.90625 6.78125 20.515625 
Q 6.78125 27.484375 10.78125 32.3125 
Q 14.796875 37.15625 21.921875 38.8125 
z
M 18.3125 54.390625 
Q 18.3125 48.734375 21.84375 45.5625 
Q 25.390625 42.390625 31.78125 42.390625 
Q 38.140625 42.390625 41.71875 45.5625 
Q 45.3125 48.734375 45.3125 54.390625 
Q 45.3125 60.0625 41.71875 63.234375 
Q 38.140625 66.40625 31.78125 66.40625 
Q 25.390625 66.40625 21.84375 63.234375 
Q 18.3125 60.0625 18.3125 54.390625 
z
" id="DejaVuSans-38"/>
      </defs>
      <g transform="translate(238.409072 322.182437)scale(0.1 -0.1)">
       <use xlink:href="#DejaVuSans-38"/>
       <use x="63.623047" xlink:href="#DejaVuSans-30"/>
       <use x="127.246094" xlink:href="#DejaVuSans-30"/>
      </g>
     </g>
    </g>
    <g id="xtick_6">
     <g id="line2d_6">
      <g>
       <use style="stroke:#000000;stroke-width:0.8;" x="295.600587" xlink:href="#ma23956bdea" y="307.584"/>
      </g>
     </g>
     <g id="text_6">
      <!-- 1000 -->
      <defs>
       <path d="M 12.40625 8.296875 
L 28.515625 8.296875 
L 28.515625 63.921875 
L 10.984375 60.40625 
L 10.984375 69.390625 
L 28.421875 72.90625 
L 38.28125 72.90625 
L 38.28125 8.296875 
L 54.390625 8.296875 
L 54.390625 0 
L 12.40625 0 
z
" id="DejaVuSans-31"/>
      </defs>
      <g transform="translate(282.875587 322.182437)scale(0.1 -0.1)">
       <use xlink:href="#DejaVuSans-31"/>
       <use x="63.623047" xlink:href="#DejaVuSans-30"/>
       <use x="127.246094" xlink:href="#DejaVuSans-30"/>
       <use x="190.869141" xlink:href="#DejaVuSans-30"/>
      </g>
     </g>
    </g>
    <g id="xtick_7">
     <g id="line2d_7">
      <g>
       <use style="stroke:#000000;stroke-width:0.8;" x="343.248352" xlink:href="#ma23956bdea" y="307.584"/>
      </g>
     </g>
     <g id="text_7">
      <!-- 1200 -->
      <g transform="translate(330.523352 322.182437)scale(0.1 -0.1)">
       <use xlink:href="#DejaVuSans-31"/>
       <use x="63.623047" xlink:href="#DejaVuSans-32"/>
       <use x="127.246094" xlink:href="#DejaVuSans-30"/>
       <use x="190.869141" xlink:href="#DejaVuSans-30"/>
      </g>
     </g>
    </g>
    <g id="xtick_8">
     <g id="line2d_8">
      <g>
       <use style="stroke:#000000;stroke-width:0.8;" x="390.896117" xlink:href="#ma23956bdea" y="307.584"/>
      </g>
     </g>
     <g id="text_8">
      <!-- 1400 -->
      <g transform="translate(378.171117 322.182437)scale(0.1 -0.1)">
       <use xlink:href="#DejaVuSans-31"/>
       <use x="63.623047" xlink:href="#DejaVuSans-34"/>
       <use x="127.246094" xlink:href="#DejaVuSans-30"/>
       <use x="190.869141" xlink:href="#DejaVuSans-30"/>
      </g>
     </g>
    </g>
    <g id="text_9">
     <!-- Tiradas -->
     <defs>
      <path d="M -0.296875 72.90625 
L 61.375 72.90625 
L 61.375 64.59375 
L 35.5 64.59375 
L 35.5 0 
L 25.59375 0 
L 25.59375 64.59375 
L -0.296875 64.59375 
z
" id="DejaVuSans-54"/>
      <path d="M 9.421875 54.6875 
L 18.40625 54.6875 
L 18.40625 0 
L 9.421875 0 
z
M 9.421875 75.984375 
L 18.40625 75.984375 
L 18.40625 64.59375 
L 9.421875 64.59375 
z
" id="DejaVuSans-69"/>
      <path d="M 41.109375 46.296875 
Q 39.59375 47.171875 37.8125 47.578125 
Q 36.03125 48 33.890625 48 
Q 26.265625 48 22.1875 43.046875 
Q 18.109375 38.09375 18.109375 28.8125 
L 18.109375 0 
L 9.078125 0 
L 9.078125 54.6875 
L 18.109375 54.6875 
L 18.109375 46.1875 
Q 20.953125 51.171875 25.484375 53.578125 
Q 30.03125 56 36.53125 56 
Q 37.453125 56 38.578125 55.875 
Q 39.703125 55.765625 41.0625 55.515625 
z
" id="DejaVuSans-72"/>
      <path d="M 34.28125 27.484375 
Q 23.390625 27.484375 19.1875 25 
Q 14.984375 22.515625 14.984375 16.5 
Q 14.984375 11.71875 18.140625 8.90625 
Q 21.296875 6.109375 26.703125 6.109375 
Q 34.1875 6.109375 38.703125 11.40625 
Q 43.21875 16.703125 43.21875 25.484375 
L 43.21875 27.484375 
z
M 52.203125 31.203125 
L 52.203125 0 
L 43.21875 0 
L 43.21875 8.296875 
Q 40.140625 3.328125 35.546875 0.953125 
Q 30.953125 -1.421875 24.3125 -1.421875 
Q 15.921875 -1.421875 10.953125 3.296875 
Q 6 8.015625 6 15.921875 
Q 6 25.140625 12.171875 29.828125 
Q 18.359375 34.515625 30.609375 34.515625 
L 43.21875 34.515625 
L 43.21875 35.40625 
Q 43.21875 41.609375 39.140625 45 
Q 35.0625 48.390625 27.6875 48.390625 
Q 23 48.390625 18.546875 47.265625 
Q 14.109375 46.140625 10.015625 43.890625 
L 10.015625 52.203125 
Q 14.9375 54.109375 19.578125 55.046875 
Q 24.21875 56 28.609375 56 
Q 40.484375 56 46.34375 49.84375 
Q 52.203125 43.703125 52.203125 31.203125 
z
" id="DejaVuSans-61"/>
      <path d="M 45.40625 46.390625 
L 45.40625 75.984375 
L 54.390625 75.984375 
L 54.390625 0 
L 45.40625 0 
L 45.40625 8.203125 
Q 42.578125 3.328125 38.25 0.953125 
Q 33.9375 -1.421875 27.875 -1.421875 
Q 17.96875 -1.421875 11.734375 6.484375 
Q 5.515625 14.40625 5.515625 27.296875 
Q 5.515625 40.1875 11.734375 48.09375 
Q 17.96875 56 27.875 56 
Q 33.9375 56 38.25 53.625 
Q 42.578125 51.265625 45.40625 46.390625 
z
M 14.796875 27.296875 
Q 14.796875 17.390625 18.875 11.75 
Q 22.953125 6.109375 30.078125 6.109375 
Q 37.203125 6.109375 41.296875 11.75 
Q 45.40625 17.390625 45.40625 27.296875 
Q 45.40625 37.203125 41.296875 42.84375 
Q 37.203125 48.484375 30.078125 48.484375 
Q 22.953125 48.484375 18.875 42.84375 
Q 14.796875 37.203125 14.796875 27.296875 
z
" id="DejaVuSans-64"/>
      <path d="M 44.28125 53.078125 
L 44.28125 44.578125 
Q 40.484375 46.53125 36.375 47.5 
Q 32.28125 48.484375 27.875 48.484375 
Q 21.1875 48.484375 17.84375 46.4375 
Q 14.5 44.390625 14.5 40.28125 
Q 14.5 37.15625 16.890625 35.375 
Q 19.28125 33.59375 26.515625 31.984375 
L 29.59375 31.296875 
Q 39.15625 29.25 43.1875 25.515625 
Q 47.21875 21.78125 47.21875 15.09375 
Q 47.21875 7.46875 41.1875 3.015625 
Q 35.15625 -1.421875 24.609375 -1.421875 
Q 20.21875 -1.421875 15.453125 -0.5625 
Q 10.6875 0.296875 5.421875 2 
L 5.421875 11.28125 
Q 10.40625 8.6875 15.234375 7.390625 
Q 20.0625 6.109375 24.8125 6.109375 
Q 31.15625 6.109375 34.5625 8.28125 
Q 37.984375 10.453125 37.984375 14.40625 
Q 37.984375 18.0625 35.515625 20.015625 
Q 33.0625 21.96875 24.703125 23.78125 
L 21.578125 24.515625 
Q 13.234375 26.265625 9.515625 29.90625 
Q 5.8125 33.546875 5.8125 39.890625 
Q 5.8125 47.609375 11.28125 51.796875 
Q 16.75 56 26.8125 56 
Q 31.78125 56 36.171875 55.265625 
Q 40.578125 54.546875 44.28125 53.078125 
z
" id="DejaVuSans-73"/>
     </defs>
     <g transform="translate(217.756875 335.860562)scale(0.1 -0.1)">
      <use xlink:href="#DejaVuSans-54"/>
      <use x="61.037109" xlink:href="#DejaVuSans-69"/>
      <use x="88.820312" xlink:href="#DejaVuSans-72"/>
      <use x="129.933594" xlink:href="#DejaVuSans-61"/>
      <use x="191.212891" xlink:href="#DejaVuSans-64"/>
      <use x="254.689453" xlink:href="#DejaVuSans-61"/>
      <use x="315.96875" xlink:href="#DejaVuSans-73"/>
     </g>
    </g>
   </g>
   <g id="matplotlib.axis_2">
    <g id="ytick_1">
     <g id="line2d_9">
      <defs>
       <path d="M 0 0 
L -3.5 0 
" id="m67d97b88a7" style="stroke:#000000;stroke-width:0.8;"/>
      </defs>
      <g>
       <use style="stroke:#000000;stroke-width:0.8;" x="57.6" xlink:href="#m67d97b88a7" y="295.488"/>
      </g>
     </g>
     <g id="text_10">
      <!-- 0 -->
      <g transform="translate(44.2375 299.287219)scale(0.1 -0.1)">
       <use xlink:href="#DejaVuSans-30"/>
      </g>
     </g>
    </g>
    <g id="ytick_2">
     <g id="line2d_10">
      <g>
       <use style="stroke:#000000;stroke-width:0.8;" x="57.6" xlink:href="#m67d97b88a7" y="254.725257"/>
      </g>
     </g>
     <g id="text_11">
      <!-- 2 -->
      <g transform="translate(44.2375 258.524476)scale(0.1 -0.1)">
       <use xlink:href="#DejaVuSans-32"/>
      </g>
     </g>
    </g>
    <g id="ytick_3">
     <g id="line2d_11">
      <g>
       <use style="stroke:#000000;stroke-width:0.8;" x="57.6" xlink:href="#m67d97b88a7" y="213.962515"/>
      </g>
     </g>
     <g id="text_12">
      <!-- 4 -->
      <g transform="translate(44.2375 217.761733)scale(0.1 -0.1)">
       <use xlink:href="#DejaVuSans-34"/>
      </g>
     </g>
    </g>
    <g id="ytick_4">
     <g id="line2d_12">
      <g>
       <use style="stroke:#000000;stroke-width:0.8;" x="57.6" xlink:href="#m67d97b88a7" y="173.199772"/>
      </g>
     </g>
     <g id="text_13">
      <!-- 6 -->
      <g transform="translate(44.2375 176.998991)scale(0.1 -0.1)">
       <use xlink:href="#DejaVuSans-36"/>
      </g>
     </g>
    </g>
    <g id="ytick_5">
     <g id="line2d_13">
      <g>
       <use style="stroke:#000000;stroke-width:0.8;" x="57.6" xlink:href="#m67d97b88a7" y="132.437029"/>
      </g>
     </g>
     <g id="text_14">
      <!-- 8 -->
      <g transform="translate(44.2375 136.236248)scale(0.1 -0.1)">
       <use xlink:href="#DejaVuSans-38"/>
      </g>
     </g>
    </g>
    <g id="ytick_6">
     <g id="line2d_14">
      <g>
       <use style="stroke:#000000;stroke-width:0.8;" x="57.6" xlink:href="#m67d97b88a7" y="91.674287"/>
      </g>
     </g>
     <g id="text_15">
      <!-- 10 -->
      <g transform="translate(37.875 95.473505)scale(0.1 -0.1)">
       <use xlink:href="#DejaVuSans-31"/>
       <use x="63.623047" xlink:href="#DejaVuSans-30"/>
      </g>
     </g>
    </g>
    <g id="ytick_7">
     <g id="line2d_15">
      <g>
       <use style="stroke:#000000;stroke-width:0.8;" x="57.6" xlink:href="#m67d97b88a7" y="50.911544"/>
      </g>
     </g>
     <g id="text_16">
      <!-- 12 -->
      <g transform="translate(37.875 54.710763)scale(0.1 -0.1)">
       <use xlink:href="#DejaVuSans-31"/>
       <use x="63.623047" xlink:href="#DejaVuSans-32"/>
      </g>
     </g>
    </g>
    <g id="text_17">
     <!-- Valores -->
     <defs>
      <path d="M 28.609375 0 
L 0.78125 72.90625 
L 11.078125 72.90625 
L 34.1875 11.53125 
L 57.328125 72.90625 
L 67.578125 72.90625 
L 39.796875 0 
z
" id="DejaVuSans-56"/>
      <path d="M 9.421875 75.984375 
L 18.40625 75.984375 
L 18.40625 0 
L 9.421875 0 
z
" id="DejaVuSans-6c"/>
      <path d="M 30.609375 48.390625 
Q 23.390625 48.390625 19.1875 42.75 
Q 14.984375 37.109375 14.984375 27.296875 
Q 14.984375 17.484375 19.15625 11.84375 
Q 23.34375 6.203125 30.609375 6.203125 
Q 37.796875 6.203125 41.984375 11.859375 
Q 46.1875 17.53125 46.1875 27.296875 
Q 46.1875 37.015625 41.984375 42.703125 
Q 37.796875 48.390625 30.609375 48.390625 
z
M 30.609375 56 
Q 42.328125 56 49.015625 48.375 
Q 55.71875 40.765625 55.71875 27.296875 
Q 55.71875 13.875 49.015625 6.21875 
Q 42.328125 -1.421875 30.609375 -1.421875 
Q 18.84375 -1.421875 12.171875 6.21875 
Q 5.515625 13.875 5.515625 27.296875 
Q 5.515625 40.765625 12.171875 48.375 
Q 18.84375 56 30.609375 56 
z
" id="DejaVuSans-6f"/>
      <path d="M 56.203125 29.59375 
L 56.203125 25.203125 
L 14.890625 25.203125 
Q 15.484375 15.921875 20.484375 11.0625 
Q 25.484375 6.203125 34.421875 6.203125 
Q 39.59375 6.203125 44.453125 7.46875 
Q 49.3125 8.734375 54.109375 11.28125 
L 54.109375 2.78125 
Q 49.265625 0.734375 44.1875 -0.34375 
Q 39.109375 -1.421875 33.890625 -1.421875 
Q 20.796875 -1.421875 13.15625 6.1875 
Q 5.515625 13.8125 5.515625 26.8125 
Q 5.515625 40.234375 12.765625 48.109375 
Q 20.015625 56 32.328125 56 
Q 43.359375 56 49.78125 48.890625 
Q 56.203125 41.796875 56.203125 29.59375 
z
M 47.21875 32.234375 
Q 47.125 39.59375 43.09375 43.984375 
Q 39.0625 48.390625 32.421875 48.390625 
Q 24.90625 48.390625 20.390625 44.140625 
Q 15.875 39.890625 15.1875 32.171875 
z
" id="DejaVuSans-65"/>
     </defs>
     <g transform="translate(31.795312 193.1905)rotate(-90)scale(0.1 -0.1)">
      <use xlink:href="#DejaVuSans-56"/>
      <use x="68.298828" xlink:href="#DejaVuSans-61"/>
      <use x="129.578125" xlink:href="#DejaVuSans-6c"/>
      <use x="157.361328" xlink:href="#DejaVuSans-6f"/>
      <use x="218.542969" xlink:href="#DejaVuSans-72"/>
      <use x="259.625" xlink:href="#DejaVuSans-65"/>
      <use x="321.148438" xlink:href="#DejaVuSans-73"/>
     </g>
    </g>
   </g>
   <g id="line2d_16">
    <path clip-path="url(#pd2fc7a7240)" d="M 57.6 83.760308 
L 414.72 83.760308 
L 414.72 83.760308 
" style="fill:none;stroke:#1f77b4;stroke-linecap:square;stroke-width:1.5;"/>
   </g>
   <g id="line2d_17">
    <path clip-path="url(#pd2fc7a7240)" d="M 57.6 295.488 
L 57.838239 285.297314 
L 58.076478 88.751271 
L 58.314716 59.997151 
L 58.552955 72.444642 
L 58.791194 53.568 
L 59.029433 61.831269 
L 59.267672 76.818229 
L 59.744149 94.713388 
L 59.982388 69.182026 
L 60.220627 74.487396 
L 60.697105 89.579325 
L 60.935344 84.088645 
L 61.65006 100.676725 
L 61.888299 103.57893 
L 62.126538 91.788964 
L 62.364777 93.872166 
L 62.603015 91.352397 
L 62.841254 85.114488 
L 63.555971 96.359164 
L 63.794209 94.764708 
L 64.032448 98.373227 
L 64.270687 98.629569 
L 64.508926 96.059293 
L 64.747165 96.81647 
L 64.985404 95.679448 
L 65.461881 100.621806 
L 65.70012 94.561438 
L 65.938359 97.136109 
L 66.176598 97.969283 
L 66.414837 96.709742 
L 66.653075 89.618379 
L 66.891314 88.561868 
L 67.129553 89.96943 
L 67.367792 89.211398 
L 67.606031 89.587311 
L 67.84427 91.611131 
L 68.082508 91.973433 
L 68.558986 88.412064 
L 69.035464 92.014118 
L 69.273702 92.458031 
L 69.75018 86.360654 
L 69.988419 88.312137 
L 70.226658 89.271137 
L 70.464897 87.042239 
L 71.179613 92.056341 
L 71.417852 92.13736 
L 71.656091 93.612943 
L 71.89433 92.718763 
L 72.132568 93.094638 
L 72.370807 93.991598 
L 72.609046 93.489877 
L 72.847285 94.434452 
L 73.085524 92.868806 
L 73.323763 88.428399 
L 73.80024 86.521016 
L 74.038479 85.527773 
L 74.276718 83.863066 
L 74.514957 83.420153 
L 74.753195 84.638718 
L 74.991434 85.041762 
L 75.229673 84.009361 
L 75.467912 81.06595 
L 75.706151 82.048148 
L 76.182628 79.929512 
L 76.420867 80.247456 
L 76.659106 80.788038 
L 76.897345 79.509047 
L 77.135584 80.754822 
L 77.373823 80.595369 
L 77.8503 82.906746 
L 78.088539 82.773884 
L 78.326778 83.891923 
L 78.803256 83.230637 
L 79.041494 82.200931 
L 79.279733 82.815244 
L 79.517972 81.257749 
L 79.756211 78.322482 
L 79.99445 77.280333 
L 80.232688 74.639189 
L 80.470927 74.288539 
L 80.709166 75.403143 
L 80.947405 74.842108 
L 81.185644 75.935028 
L 81.423883 75.864861 
L 81.662121 76.800878 
L 81.90036 74.543559 
L 82.615077 77.230806 
L 83.091554 74.720862 
L 83.329793 73.514447 
L 84.282748 76.570041 
L 84.520987 75.476777 
L 84.759226 75.675773 
L 84.997465 76.529626 
L 85.235704 75.255413 
L 85.473943 76.138965 
L 85.712181 76.344788 
L 85.95042 76.044953 
L 86.426898 73.525361 
L 86.903376 74.492992 
L 87.379853 73.642179 
L 87.618092 74.422003 
L 87.856331 74.309849 
L 88.09457 73.207105 
L 89.047525 76.255878 
L 89.285764 76.549458 
L 89.524003 75.482811 
L 90.00048 76.988022 
L 90.238719 77.414306 
L 90.476958 76.515424 
L 90.715197 76.267618 
L 91.191674 76.909135 
L 91.429913 76.696363 
L 91.906391 77.934161 
L 92.14463 76.584079 
L 93.097585 78.744831 
L 93.335824 79.169143 
L 93.574063 79.881592 
L 93.812302 79.858901 
L 94.05054 80.385902 
L 94.288779 79.546688 
L 94.765257 80.614726 
L 95.003496 80.358021 
L 95.479973 80.613248 
L 95.718212 81.016092 
L 95.956451 80.90883 
L 96.19469 79.999248 
L 96.432929 80.204853 
L 96.671167 79.419228 
L 96.909406 79.452552 
L 97.147645 78.930587 
L 98.338839 81.397305 
L 98.815317 79.597281 
L 99.053556 80.124256 
L 99.291795 80.186251 
L 99.530033 80.789997 
L 99.768272 80.336874 
L 100.24475 81.325976 
L 100.482989 80.405666 
L 100.721227 80.877388 
L 101.197705 78.940831 
L 101.674183 79.985398 
L 102.15066 79.123669 
L 102.388899 79.69056 
L 102.865377 78.143047 
L 103.103616 78.139789 
L 103.341855 78.610884 
L 103.580093 78.830745 
L 103.818332 77.756714 
L 104.533049 79.22138 
L 104.771288 78.237293 
L 105.486004 79.453108 
L 105.724243 79.439847 
L 105.962482 79.967695 
L 106.20072 80.053118 
L 106.677198 80.87536 
L 106.915437 81.391376 
L 107.153676 81.583348 
L 107.391915 81.153761 
L 107.630153 81.662045 
L 107.868392 81.170473 
L 108.106631 81.611613 
L 108.34487 80.911653 
L 108.821348 81.836695 
L 109.059586 81.765541 
L 109.297825 82.250007 
L 109.536064 81.578372 
L 109.774303 81.309636 
L 110.012542 81.756655 
L 110.489019 82.22261 
L 110.727258 81.457683 
L 110.965497 81.401032 
L 111.441975 80.547226 
L 111.680213 80.742639 
L 112.156691 80.581742 
L 112.39493 81.047315 
L 112.633169 80.141791 
L 112.871408 80.599646 
L 113.109646 80.730768 
L 113.347885 80.701431 
L 113.824363 81.28713 
L 114.062602 80.804183 
L 114.777318 82.041884 
L 115.015557 81.690391 
L 115.253796 80.84024 
L 115.492035 80.717242 
L 115.730274 80.956919 
L 115.968512 80.994575 
L 116.44499 81.519346 
L 117.159706 82.377338 
L 117.397945 82.768308 
L 117.636184 82.795092 
L 117.874423 83.155211 
L 118.112662 83.1822 
L 118.589139 83.858206 
L 118.827378 83.63686 
L 119.065617 83.79608 
L 119.303856 83.652119 
L 119.542095 82.985297 
L 119.780334 83.081322 
L 120.018572 83.454133 
L 120.256811 82.645918 
L 121.209767 84.086765 
L 121.924483 84.818047 
L 122.162722 85.115768 
L 122.400961 84.798405 
L 122.877438 84.931797 
L 123.115677 84.141267 
L 123.592155 84.694793 
L 124.068632 84.809736 
L 124.306871 85.172583 
L 124.54511 84.553048 
L 125.259827 85.087842 
L 125.736304 85.495661 
L 125.974543 85.504749 
L 126.212782 85.214575 
L 126.451021 84.730757 
L 126.68926 84.665097 
L 127.165737 85.165482 
L 127.403976 85.172235 
L 127.642215 85.518226 
L 127.880454 84.769787 
L 128.118692 85.011424 
L 128.356931 84.276454 
L 128.833409 84.177089 
L 129.071648 84.475369 
L 129.309887 84.501174 
L 129.548125 84.821457 
L 129.786364 84.707353 
L 130.024603 84.218554 
L 130.501081 84.544803 
L 130.73932 84.076672 
L 130.977558 83.891253 
L 131.215797 84.218348 
L 131.692275 84.53875 
L 131.930514 84.861775 
L 132.168753 84.197578 
L 133.121708 85.354212 
L 133.359947 85.22757 
L 133.598185 85.353597 
L 133.836424 85.677528 
L 134.074663 85.002109 
L 134.312902 85.025086 
L 134.551141 85.302892 
L 134.78938 85.119642 
L 135.027618 85.36357 
L 135.265857 85.102359 
L 135.742335 85.736671 
L 135.980574 85.633479 
L 136.457051 86.139144 
L 136.69529 86.204933 
L 136.933529 86.473808 
L 137.171768 86.041525 
L 138.124723 87.125481 
L 138.601201 85.946822 
L 139.077678 86.102818 
L 139.554156 85.145878 
L 139.792395 85.092153 
L 140.030634 84.558806 
L 140.507111 84.119964 
L 140.74535 83.520906 
L 141.460067 84.367956 
L 141.698306 83.8549 
L 141.936544 83.760494 
L 142.174783 84.054736 
L 142.413022 83.820702 
L 142.651261 83.901647 
L 143.365977 84.69692 
L 143.604216 84.608499 
L 144.318933 85.26036 
L 144.79541 84.595263 
L 145.033649 84.87981 
L 145.271888 84.990435 
L 145.510127 84.499968 
L 145.986604 84.421457 
L 146.224843 84.694349 
L 146.93956 83.438889 
L 147.177799 83.509747 
L 147.654276 84.044258 
L 147.892515 84.06343 
L 148.130754 83.68267 
L 148.368993 83.652316 
L 148.607231 83.433382 
L 148.84547 83.460378 
L 149.321948 83.965132 
L 149.560187 83.802738 
L 149.798426 83.91766 
L 151.227859 85.377204 
L 151.466097 85.486763 
L 151.704336 85.199306 
L 151.942575 85.34747 
L 152.180814 85.203036 
L 152.657292 85.181929 
L 152.89553 85.156942 
L 153.848486 85.91257 
L 154.086724 85.532166 
L 155.277919 86.481221 
L 155.516157 86.396363 
L 155.754396 86.558297 
L 155.992635 86.474414 
L 156.230874 86.580231 
L 156.469113 86.553231 
L 157.183829 87.214659 
L 157.422068 86.674724 
L 157.660307 86.677381 
L 157.898546 86.803663 
L 158.136785 86.774568 
L 158.375023 86.613588 
L 158.851501 86.971694 
L 159.08974 87.205087 
L 159.327979 86.914442 
L 159.566217 87.040047 
L 160.042695 86.109038 
L 160.280934 86.332347 
L 160.519173 85.979905 
L 160.757412 85.897394 
L 161.233889 85.153064 
L 161.948606 85.753697 
L 162.186845 85.539025 
L 162.425083 85.627585 
L 162.663322 85.587031 
L 162.901561 85.685892 
L 163.1398 85.537704 
L 163.616278 85.868251 
L 163.854516 85.779363 
L 164.330994 86.094282 
L 164.569233 86.18769 
L 164.807472 86.151176 
L 165.04571 86.348411 
L 165.283949 85.874526 
L 165.522188 85.968931 
L 166.236905 85.575615 
L 166.475143 85.75058 
L 166.713382 85.357744 
L 167.18986 85.814045 
L 167.666338 85.793889 
L 167.904576 86.011792 
L 168.142815 86.062958 
L 169.095771 85.355668 
L 169.334009 85.577599 
L 169.572248 85.201586 
L 169.810487 85.295018 
L 170.286965 85.22267 
L 171.001681 85.875744 
L 171.23992 85.433019 
L 171.478159 85.547231 
L 171.954636 85.226516 
L 172.192875 85.274042 
L 172.907592 85.806458 
L 173.145831 85.441786 
L 173.384069 85.307738 
L 173.860547 84.825539 
L 174.337025 85.0707 
L 174.575264 84.629961 
L 174.813502 84.77329 
L 175.051741 84.407133 
L 175.28998 84.612734 
L 175.528219 84.438747 
L 175.766458 84.451057 
L 176.242935 84.753721 
L 176.481174 84.682977 
L 176.719413 84.253501 
L 177.195891 84.497189 
L 177.434129 84.32527 
L 177.672368 84.526335 
L 178.148846 84.288691 
L 178.863562 84.818698 
L 179.34004 84.719429 
L 179.578279 84.924934 
L 179.816518 84.692643 
L 180.769473 85.262773 
L 181.007712 85.340231 
L 181.960667 86.037979 
L 182.198906 85.80841 
L 182.675384 85.74502 
L 182.913622 85.522685 
L 183.3901 85.872237 
L 183.628339 85.799088 
L 183.866578 85.994665 
L 184.343055 85.755239 
L 184.581294 85.832554 
L 185.057772 85.21435 
L 185.296011 85.046889 
L 185.534249 85.01925 
L 185.772488 84.85741 
L 186.010727 84.937149 
L 186.487205 84.503409 
L 186.963682 84.687889 
L 187.44016 84.59566 
L 188.154877 85.012312 
L 188.631354 84.960895 
L 188.869593 85.087946 
L 189.346071 85.066443 
L 190.299026 85.608491 
L 190.537265 85.54441 
L 190.775504 85.715155 
L 191.013742 85.607995 
L 191.251981 85.768068 
L 191.49022 85.706024 
L 191.728459 85.316395 
L 191.966698 85.502453 
L 192.204937 85.480593 
L 192.443175 85.639586 
L 193.157892 85.637899 
L 193.396131 85.780426 
L 193.63437 85.749836 
L 193.872608 85.380701 
L 194.349086 85.365634 
L 194.587325 85.218705 
L 194.825564 85.267311 
L 195.778519 84.867886 
L 196.016758 84.493235 
L 196.254997 84.508919 
L 196.969713 84.884097 
L 197.207952 84.527556 
L 197.446191 84.4602 
L 197.922668 83.796695 
L 198.160907 83.975838 
L 198.399146 83.835974 
L 198.875624 84.052407 
L 199.352101 83.663482 
L 199.59034 83.557046 
L 199.828579 83.672683 
L 200.543296 83.305328 
L 200.781534 83.440068 
L 201.019773 83.380438 
L 201.258012 83.549809 
L 201.496251 83.406548 
L 202.210967 83.413392 
L 202.687445 82.830646 
L 204.831594 83.806371 
L 205.308072 83.38777 
L 205.78455 83.625562 
L 206.022789 83.604752 
L 206.499266 83.84204 
L 206.737505 84.00939 
L 206.975744 83.989655 
L 208.166938 84.561261 
L 208.405177 84.3748 
L 208.643416 84.503343 
L 209.119893 84.270383 
L 211.264043 85.179193 
L 211.74052 85.400128 
L 212.216998 85.448066 
L 212.455237 85.352851 
L 212.693476 85.417469 
L 212.931714 85.090171 
L 213.408192 85.312519 
L 214.599386 85.794845 
L 215.075864 85.490745 
L 215.314103 85.634627 
L 216.028819 85.577834 
L 216.743536 85.238411 
L 218.172969 85.166877 
L 218.887685 85.327002 
L 219.602402 84.479029 
L 220.317118 84.733972 
L 220.793596 84.963831 
L 221.270073 84.542308 
L 222.461268 85.110214 
L 222.937745 85.074098 
L 223.652462 85.350811 
L 223.8907 85.051175 
L 224.128939 84.932228 
L 224.605417 85.019857 
L 224.843656 84.962106 
L 225.081895 85.087587 
L 225.320133 84.968317 
L 226.511328 85.305054 
L 226.749566 85.146887 
L 226.987805 85.209735 
L 227.226044 85.03838 
L 227.464283 85.093822 
L 227.702522 84.894663 
L 228.417238 85.22579 
L 228.893716 85.387178 
L 229.131955 85.232235 
L 229.608432 85.447938 
L 229.846671 85.369317 
L 230.08491 85.409063 
L 230.323149 85.278662 
L 231.752582 85.644131 
L 231.990821 85.781057 
L 232.229059 85.626864 
L 232.467298 85.32581 
L 232.943776 85.548162 
L 233.658492 85.323006 
L 234.13497 85.502361 
L 234.373209 85.642807 
L 234.611448 85.565277 
L 234.849686 85.314363 
L 235.802642 85.759247 
L 236.040881 85.524716 
L 236.517358 85.615981 
L 236.755597 85.339323 
L 237.470314 85.620199 
L 237.708552 85.690577 
L 238.18503 85.232342 
L 239.137985 85.656461 
L 240.090941 86.054741 
L 240.329179 85.872386 
L 241.043896 86.061468 
L 241.520374 86.22869 
L 241.758612 86.199998 
L 241.996851 86.328313 
L 242.711568 86.41052 
L 243.188045 86.640969 
L 243.426284 86.600244 
L 244.379239 86.920609 
L 244.855717 86.90634 
L 245.808672 87.040234 
L 246.28515 87.254198 
L 246.523389 87.193919 
L 246.761628 86.948573 
L 246.999867 87.065869 
L 247.238105 87.053925 
L 247.714583 87.282676 
L 247.952822 87.191806 
L 248.191061 87.312833 
L 248.4293 87.283732 
L 249.144016 87.616599 
L 249.382255 87.587612 
L 250.096971 87.92972 
L 250.33521 87.769935 
L 251.288165 87.853983 
L 251.764643 87.419624 
L 252.241121 87.667956 
L 252.47936 87.492025 
L 252.717598 87.609721 
L 252.955837 87.415107 
L 253.194076 87.414523 
L 253.432315 87.528357 
L 253.670554 87.456904 
L 253.908793 87.181121 
L 254.38527 87.261005 
L 255.814703 87.125947 
L 256.052942 87.042215 
L 256.767658 87.261752 
L 257.005897 87.159317 
L 257.244136 87.251302 
L 257.482375 87.040681 
L 257.720614 87.015598 
L 257.958853 87.138689 
L 258.197091 86.912592 
L 258.911808 86.815087 
L 259.388286 86.827114 
L 260.341241 86.963227 
L 260.57948 86.755483 
L 261.055957 86.826926 
L 261.294196 86.877958 
L 261.770674 86.563539 
L 262.008913 86.587323 
L 262.723629 86.224468 
L 262.961868 86.17465 
L 263.200107 85.91642 
L 263.914823 85.778444 
L 264.391301 85.446666 
L 264.62954 85.5087 
L 264.867779 85.308477 
L 265.344256 85.511665 
L 265.820734 85.448843 
L 266.058973 85.567122 
L 266.297211 85.502307 
L 267.726644 85.889488 
L 267.964883 85.635803 
L 268.203122 85.624454 
L 268.917839 85.143923 
L 269.156077 85.261687 
L 269.870794 84.790096 
L 270.58551 84.900005 
L 270.823749 84.809836 
L 271.300227 85.013481 
L 272.253182 84.530938 
L 272.491421 84.644516 
L 272.72966 84.569432 
L 273.206137 84.79089 
L 273.682615 84.447047 
L 275.112048 85.011559 
L 275.350287 84.936061 
L 275.826765 85.02216 
L 276.065003 84.836214 
L 277.017959 85.009572 
L 277.494436 85.023607 
L 277.732675 84.839375 
L 277.970914 84.952617 
L 278.68563 84.522535 
L 279.876825 84.724458 
L 280.115063 84.57571 
L 281.068019 84.624803 
L 281.306258 84.702808 
L 281.544496 84.588573 
L 282.020974 84.555921 
L 282.73569 84.133135 
L 282.973929 84.237308 
L 283.212168 84.215896 
L 283.450407 84.327138 
L 283.688646 84.296956 
L 283.926885 84.085299 
L 284.403362 84.081921 
L 284.87984 83.806493 
L 285.118079 83.642671 
L 285.594556 83.676371 
L 285.832795 83.75422 
L 286.785751 83.405074 
L 287.262228 83.554118 
L 288.215183 83.897638 
L 288.453422 83.691099 
L 288.691661 83.638627 
L 290.121094 84.159005 
L 290.835811 83.959935 
L 291.074049 83.73092 
L 292.027005 83.596942 
L 292.265243 83.629968 
L 292.503482 83.472029 
L 292.741721 83.560726 
L 293.218199 83.111317 
L 293.456438 83.218412 
L 293.694676 83.06386 
L 294.171154 83.238201 
L 294.647632 83.138044 
L 294.885871 83.071651 
L 296.315304 83.300112 
L 296.553542 83.115532 
L 297.03002 83.132086 
L 297.268259 82.965278 
L 297.506498 83.057197 
L 297.744736 83.016777 
L 297.982975 83.090069 
L 298.697692 82.640453 
L 300.603602 82.771348 
L 300.841841 82.589131 
L 302.033035 82.75934 
L 302.509513 82.438276 
L 302.747752 82.413039 
L 303.224229 82.606602 
L 303.462468 82.457431 
L 305.844857 82.594302 
L 306.321334 82.457697 
L 307.27429 82.794446 
L 307.512528 82.585182 
L 307.750767 82.631028 
L 307.989006 82.486796 
L 308.703722 82.578368 
L 308.941961 82.464936 
L 311.086111 82.781104 
L 311.32435 82.731732 
L 312.039066 82.927082 
L 312.515544 82.962775 
L 313.23026 82.590895 
L 314.659693 83.067897 
L 314.897932 83.018566 
L 315.37441 83.073641 
L 316.327365 83.194828 
L 316.803843 83.339351 
L 317.042081 83.184782 
L 317.756798 83.354668 
L 318.709753 83.421254 
L 318.947992 83.252575 
L 319.186231 83.344695 
L 319.42447 83.160613 
L 319.900947 83.27734 
L 320.377425 83.244024 
L 320.615664 83.327461 
L 321.092141 83.020881 
L 321.33038 83.110148 
L 321.806858 82.930968 
L 322.998052 83.008411 
L 323.712769 82.614274 
L 323.951007 82.709373 
L 324.427485 82.710838 
L 327.286351 83.496611 
L 328.239306 83.319388 
L 328.954023 83.416804 
L 329.192262 83.359757 
L 329.906978 83.49648 
L 330.383456 83.33666 
L 331.098172 83.502559 
L 331.336411 83.455153 
L 331.57465 83.535037 
L 332.051127 83.225367 
L 332.527605 83.368645 
L 332.765844 83.179669 
L 333.004083 83.22763 
L 333.48056 83.117324 
L 333.718799 83.070632 
L 333.957038 83.139363 
L 334.195277 82.98209 
L 334.671755 83.098687 
L 335.148232 83.093009 
L 335.386471 83.161495 
L 335.62471 83.01577 
L 336.101187 83.131499 
L 338.007098 83.624261 
L 338.721815 83.326269 
L 339.436531 83.058786 
L 340.151247 83.173376 
L 340.389486 83.000973 
L 340.627725 83.087613 
L 341.104203 83.066813 
L 341.818919 83.208375 
L 342.057158 83.065476 
L 342.771875 83.088359 
L 343.010113 82.998606 
L 343.248352 83.087122 
L 343.486591 82.934415 
L 344.439546 83.134534 
L 344.677785 83.081369 
L 345.154263 83.206746 
L 345.392502 83.210487 
L 345.868979 82.985274 
L 346.345457 82.987904 
L 347.060173 83.148981 
L 348.013129 83.061928 
L 348.251368 82.88572 
L 348.727845 82.889624 
L 349.442562 82.563942 
L 349.919039 82.63024 
L 351.82495 82.919966 
L 352.063189 82.754422 
L 352.539666 82.904051 
L 352.777905 82.757865 
L 353.492622 82.926794 
L 353.730861 82.876608 
L 354.207338 82.931875 
L 355.160294 83.180283 
L 355.398532 83.26157 
L 355.636771 83.116917 
L 356.113249 83.221386 
L 356.351488 83.057283 
L 356.827965 83.187151 
L 357.542682 82.842576 
L 357.780921 82.799365 
L 358.257398 82.885217 
L 358.733876 82.665218 
L 359.210354 82.747715 
L 360.163309 82.736495 
L 360.639787 82.729699 
L 360.878025 82.700039 
L 361.830981 82.955972 
L 363.498652 83.16965 
L 364.451608 83.383779 
L 365.166324 83.210569 
L 365.404563 83.142278 
L 365.881041 83.260059 
L 366.11928 83.174235 
L 366.595757 83.324272 
L 366.833996 83.256263 
L 367.786951 83.506071 
L 368.501668 83.363282 
L 369.454623 83.176967 
L 372.313489 82.895894 
L 373.028205 83.070351 
L 373.504683 82.958683 
L 373.981161 83.030175 
L 374.457638 82.859344 
L 375.172355 82.99736 
L 375.410594 82.866681 
L 376.12531 83.007784 
L 376.363549 82.874788 
L 377.792982 83.012887 
L 378.031221 82.904574 
L 378.984176 83.13908 
L 379.222415 83.158423 
L 379.460654 83.00164 
L 381.843042 83.450745 
L 382.081281 83.320003 
L 382.795997 83.351649 
L 383.272475 83.30827 
L 386.36958 83.465818 
L 387.322535 83.615015 
L 391.134356 83.8772 
L 391.610834 83.741544 
L 392.563789 83.942777 
L 393.516744 83.675113 
L 393.754983 83.732801 
L 394.231461 83.670821 
L 395.184416 83.699451 
L 395.660894 83.83744 
L 395.899133 83.756114 
L 396.137372 83.829907 
L 396.37561 83.680655 
L 398.757999 83.63709 
L 399.472715 83.77014 
L 400.42567 83.680392 
L 400.663909 83.57908 
L 400.902148 83.619061 
L 401.140387 83.473002 
L 401.855103 83.583846 
L 402.331581 83.444107 
L 402.808059 83.219398 
L 403.761014 83.435153 
L 404.237492 83.362569 
L 404.47573 83.262151 
L 404.952208 83.323445 
L 405.428686 83.034658 
L 405.905163 83.123549 
L 406.143402 83.082365 
L 406.381641 83.154259 
L 406.61988 83.056919 
L 407.096358 83.141509 
L 407.811074 82.991564 
L 409.240507 83.075162 
L 409.716985 83.1462 
L 410.66994 83.323278 
L 411.622895 82.94197 
L 412.337612 83.055601 
L 413.528806 83.036629 
L 414.72 83.315471 
L 414.72 83.315471 
" style="fill:none;stroke:#ff7f0e;stroke-linecap:square;stroke-width:1.5;"/>
   </g>
   <g id="patch_3">
    <path d="M 57.6 307.584 
L 57.6 41.472 
" style="fill:none;stroke:#000000;stroke-linecap:square;stroke-linejoin:miter;stroke-width:0.8;"/>
   </g>
   <g id="patch_4">
    <path d="M 414.72 307.584 
L 414.72 41.472 
" style="fill:none;stroke:#000000;stroke-linecap:square;stroke-linejoin:miter;stroke-width:0.8;"/>
   </g>
   <g id="patch_5">
    <path d="M 57.6 307.584 
L 414.72 307.584 
" style="fill:none;stroke:#000000;stroke-linecap:square;stroke-linejoin:miter;stroke-width:0.8;"/>
   </g>
   <g id="patch_6">
    <path d="M 57.6 41.472 
L 414.72 41.472 
" style="fill:none;stroke:#000000;stroke-linecap:square;stroke-linejoin:miter;stroke-width:0.8;"/>
   </g>
   <g id="text_18">
    <!-- Grafico valores desvio estandar esperados vs obtenidos -->
    <defs>
     <path d="M 59.515625 10.40625 
L 59.515625 29.984375 
L 43.40625 29.984375 
L 43.40625 38.09375 
L 69.28125 38.09375 
L 69.28125 6.78125 
Q 63.578125 2.734375 56.6875 0.65625 
Q 49.8125 -1.421875 42 -1.421875 
Q 24.90625 -1.421875 15.25 8.5625 
Q 5.609375 18.5625 5.609375 36.375 
Q 5.609375 54.25 15.25 64.234375 
Q 24.90625 74.21875 42 74.21875 
Q 49.125 74.21875 55.546875 72.453125 
Q 61.96875 70.703125 67.390625 67.28125 
L 67.390625 56.78125 
Q 61.921875 61.421875 55.765625 63.765625 
Q 49.609375 66.109375 42.828125 66.109375 
Q 29.4375 66.109375 22.71875 58.640625 
Q 16.015625 51.171875 16.015625 36.375 
Q 16.015625 21.625 22.71875 14.15625 
Q 29.4375 6.6875 42.828125 6.6875 
Q 48.046875 6.6875 52.140625 7.59375 
Q 56.25 8.5 59.515625 10.40625 
z
" id="DejaVuSans-47"/>
     <path d="M 37.109375 75.984375 
L 37.109375 68.5 
L 28.515625 68.5 
Q 23.6875 68.5 21.796875 66.546875 
Q 19.921875 64.59375 19.921875 59.515625 
L 19.921875 54.6875 
L 34.71875 54.6875 
L 34.71875 47.703125 
L 19.921875 47.703125 
L 19.921875 0 
L 10.890625 0 
L 10.890625 47.703125 
L 2.296875 47.703125 
L 2.296875 54.6875 
L 10.890625 54.6875 
L 10.890625 58.5 
Q 10.890625 67.625 15.140625 71.796875 
Q 19.390625 75.984375 28.609375 75.984375 
z
" id="DejaVuSans-66"/>
     <path d="M 48.78125 52.59375 
L 48.78125 44.1875 
Q 44.96875 46.296875 41.140625 47.34375 
Q 37.3125 48.390625 33.40625 48.390625 
Q 24.65625 48.390625 19.8125 42.84375 
Q 14.984375 37.3125 14.984375 27.296875 
Q 14.984375 17.28125 19.8125 11.734375 
Q 24.65625 6.203125 33.40625 6.203125 
Q 37.3125 6.203125 41.140625 7.25 
Q 44.96875 8.296875 48.78125 10.40625 
L 48.78125 2.09375 
Q 45.015625 0.34375 40.984375 -0.53125 
Q 36.96875 -1.421875 32.421875 -1.421875 
Q 20.0625 -1.421875 12.78125 6.34375 
Q 5.515625 14.109375 5.515625 27.296875 
Q 5.515625 40.671875 12.859375 48.328125 
Q 20.21875 56 33.015625 56 
Q 37.15625 56 41.109375 55.140625 
Q 45.0625 54.296875 48.78125 52.59375 
z
" id="DejaVuSans-63"/>
     <path id="DejaVuSans-20"/>
     <path d="M 2.984375 54.6875 
L 12.5 54.6875 
L 29.59375 8.796875 
L 46.6875 54.6875 
L 56.203125 54.6875 
L 35.6875 0 
L 23.484375 0 
z
" id="DejaVuSans-76"/>
     <path d="M 18.3125 70.21875 
L 18.3125 54.6875 
L 36.8125 54.6875 
L 36.8125 47.703125 
L 18.3125 47.703125 
L 18.3125 18.015625 
Q 18.3125 11.328125 20.140625 9.421875 
Q 21.96875 7.515625 27.59375 7.515625 
L 36.8125 7.515625 
L 36.8125 0 
L 27.59375 0 
Q 17.1875 0 13.234375 3.875 
Q 9.28125 7.765625 9.28125 18.015625 
L 9.28125 47.703125 
L 2.6875 47.703125 
L 2.6875 54.6875 
L 9.28125 54.6875 
L 9.28125 70.21875 
z
" id="DejaVuSans-74"/>
     <path d="M 54.890625 33.015625 
L 54.890625 0 
L 45.90625 0 
L 45.90625 32.71875 
Q 45.90625 40.484375 42.875 44.328125 
Q 39.84375 48.1875 33.796875 48.1875 
Q 26.515625 48.1875 22.3125 43.546875 
Q 18.109375 38.921875 18.109375 30.90625 
L 18.109375 0 
L 9.078125 0 
L 9.078125 54.6875 
L 18.109375 54.6875 
L 18.109375 46.1875 
Q 21.34375 51.125 25.703125 53.5625 
Q 30.078125 56 35.796875 56 
Q 45.21875 56 50.046875 50.171875 
Q 54.890625 44.34375 54.890625 33.015625 
z
" id="DejaVuSans-6e"/>
     <path d="M 18.109375 8.203125 
L 18.109375 -20.796875 
L 9.078125 -20.796875 
L 9.078125 54.6875 
L 18.109375 54.6875 
L 18.109375 46.390625 
Q 20.953125 51.265625 25.265625 53.625 
Q 29.59375 56 35.59375 56 
Q 45.5625 56 51.78125 48.09375 
Q 58.015625 40.1875 58.015625 27.296875 
Q 58.015625 14.40625 51.78125 6.484375 
Q 45.5625 -1.421875 35.59375 -1.421875 
Q 29.59375 -1.421875 25.265625 0.953125 
Q 20.953125 3.328125 18.109375 8.203125 
z
M 48.6875 27.296875 
Q 48.6875 37.203125 44.609375 42.84375 
Q 40.53125 48.484375 33.40625 48.484375 
Q 26.265625 48.484375 22.1875 42.84375 
Q 18.109375 37.203125 18.109375 27.296875 
Q 18.109375 17.390625 22.1875 11.75 
Q 26.265625 6.109375 33.40625 6.109375 
Q 40.53125 6.109375 44.609375 11.75 
Q 48.6875 17.390625 48.6875 27.296875 
z
" id="DejaVuSans-70"/>
     <path d="M 48.6875 27.296875 
Q 48.6875 37.203125 44.609375 42.84375 
Q 40.53125 48.484375 33.40625 48.484375 
Q 26.265625 48.484375 22.1875 42.84375 
Q 18.109375 37.203125 18.109375 27.296875 
Q 18.109375 17.390625 22.1875 11.75 
Q 26.265625 6.109375 33.40625 6.109375 
Q 40.53125 6.109375 44.609375 11.75 
Q 48.6875 17.390625 48.6875 27.296875 
z
M 18.109375 46.390625 
Q 20.953125 51.265625 25.265625 53.625 
Q 29.59375 56 35.59375 56 
Q 45.5625 56 51.78125 48.09375 
Q 58.015625 40.1875 58.015625 27.296875 
Q 58.015625 14.40625 51.78125 6.484375 
Q 45.5625 -1.421875 35.59375 -1.421875 
Q 29.59375 -1.421875 25.265625 0.953125 
Q 20.953125 3.328125 18.109375 8.203125 
L 18.109375 0 
L 9.078125 0 
L 9.078125 75.984375 
L 18.109375 75.984375 
z
" id="DejaVuSans-62"/>
    </defs>
    <g transform="translate(67.866563 35.472)scale(0.12 -0.12)">
     <use xlink:href="#DejaVuSans-47"/>
     <use x="77.490234" xlink:href="#DejaVuSans-72"/>
     <use x="118.603516" xlink:href="#DejaVuSans-61"/>
     <use x="179.882812" xlink:href="#DejaVuSans-66"/>
     <use x="215.087891" xlink:href="#DejaVuSans-69"/>
     <use x="242.871094" xlink:href="#DejaVuSans-63"/>
     <use x="297.851562" xlink:href="#DejaVuSans-6f"/>
     <use x="359.033203" xlink:href="#DejaVuSans-20"/>
     <use x="390.820312" xlink:href="#DejaVuSans-76"/>
     <use x="450" xlink:href="#DejaVuSans-61"/>
     <use x="511.279297" xlink:href="#DejaVuSans-6c"/>
     <use x="539.0625" xlink:href="#DejaVuSans-6f"/>
     <use x="600.244141" xlink:href="#DejaVuSans-72"/>
     <use x="641.326172" xlink:href="#DejaVuSans-65"/>
     <use x="702.849609" xlink:href="#DejaVuSans-73"/>
     <use x="754.949219" xlink:href="#DejaVuSans-20"/>
     <use x="786.736328" xlink:href="#DejaVuSans-64"/>
     <use x="850.212891" xlink:href="#DejaVuSans-65"/>
     <use x="911.736328" xlink:href="#DejaVuSans-73"/>
     <use x="963.835938" xlink:href="#DejaVuSans-76"/>
     <use x="1023.015625" xlink:href="#DejaVuSans-69"/>
     <use x="1050.798828" xlink:href="#DejaVuSans-6f"/>
     <use x="1111.980469" xlink:href="#DejaVuSans-20"/>
     <use x="1143.767578" xlink:href="#DejaVuSans-65"/>
     <use x="1205.291016" xlink:href="#DejaVuSans-73"/>
     <use x="1257.390625" xlink:href="#DejaVuSans-74"/>
     <use x="1296.599609" xlink:href="#DejaVuSans-61"/>
     <use x="1357.878906" xlink:href="#DejaVuSans-6e"/>
     <use x="1421.257812" xlink:href="#DejaVuSans-64"/>
     <use x="1484.734375" xlink:href="#DejaVuSans-61"/>
     <use x="1546.013672" xlink:href="#DejaVuSans-72"/>
     <use x="1587.126953" xlink:href="#DejaVuSans-20"/>
     <use x="1618.914062" xlink:href="#DejaVuSans-65"/>
     <use x="1680.4375" xlink:href="#DejaVuSans-73"/>
     <use x="1732.537109" xlink:href="#DejaVuSans-70"/>
     <use x="1796.013672" xlink:href="#DejaVuSans-65"/>
     <use x="1857.537109" xlink:href="#DejaVuSans-72"/>
     <use x="1898.650391" xlink:href="#DejaVuSans-61"/>
     <use x="1959.929688" xlink:href="#DejaVuSans-64"/>
     <use x="2023.40625" xlink:href="#DejaVuSans-6f"/>
     <use x="2084.587891" xlink:href="#DejaVuSans-73"/>
     <use x="2136.6875" xlink:href="#DejaVuSans-20"/>
     <use x="2168.474609" xlink:href="#DejaVuSans-76"/>
     <use x="2227.654297" xlink:href="#DejaVuSans-73"/>
     <use x="2279.753906" xlink:href="#DejaVuSans-20"/>
     <use x="2311.541016" xlink:href="#DejaVuSans-6f"/>
     <use x="2372.722656" xlink:href="#DejaVuSans-62"/>
     <use x="2436.199219" xlink:href="#DejaVuSans-74"/>
     <use x="2475.408203" xlink:href="#DejaVuSans-65"/>
     <use x="2536.931641" xlink:href="#DejaVuSans-6e"/>
     <use x="2600.310547" xlink:href="#DejaVuSans-69"/>
     <use x="2628.09375" xlink:href="#DejaVuSans-64"/>
     <use x="2691.570312" xlink:href="#DejaVuSans-6f"/>
     <use x="2752.751953" xlink:href="#DejaVuSans-73"/>
    </g>
   </g>
   <g id="legend_1">
    <g id="patch_7">
     <path d="M 264.30125 78.82825 
L 407.72 78.82825 
Q 409.72 78.82825 409.72 76.82825 
L 409.72 48.472 
Q 409.72 46.472 407.72 46.472 
L 264.30125 46.472 
Q 262.30125 46.472 262.30125 48.472 
L 262.30125 76.82825 
Q 262.30125 78.82825 264.30125 78.82825 
z
" style="fill:#ffffff;opacity:0.8;stroke:#cccccc;stroke-linejoin:miter;"/>
    </g>
    <g id="line2d_18">
     <path d="M 266.30125 54.570437 
L 286.30125 54.570437 
" style="fill:none;stroke:#1f77b4;stroke-linecap:square;stroke-width:1.5;"/>
    </g>
    <g id="line2d_19"/>
    <g id="text_19">
     <!-- Valor desvio esperado -->
     <g transform="translate(294.30125 58.070437)scale(0.1 -0.1)">
      <use xlink:href="#DejaVuSans-56"/>
      <use x="68.298828" xlink:href="#DejaVuSans-61"/>
      <use x="129.578125" xlink:href="#DejaVuSans-6c"/>
      <use x="157.361328" xlink:href="#DejaVuSans-6f"/>
      <use x="218.542969" xlink:href="#DejaVuSans-72"/>
      <use x="259.65625" xlink:href="#DejaVuSans-20"/>
      <use x="291.443359" xlink:href="#DejaVuSans-64"/>
      <use x="354.919922" xlink:href="#DejaVuSans-65"/>
      <use x="416.443359" xlink:href="#DejaVuSans-73"/>
      <use x="468.542969" xlink:href="#DejaVuSans-76"/>
      <use x="527.722656" xlink:href="#DejaVuSans-69"/>
      <use x="555.505859" xlink:href="#DejaVuSans-6f"/>
      <use x="616.6875" xlink:href="#DejaVuSans-20"/>
      <use x="648.474609" xlink:href="#DejaVuSans-65"/>
      <use x="709.998047" xlink:href="#DejaVuSans-73"/>
      <use x="762.097656" xlink:href="#DejaVuSans-70"/>
      <use x="825.574219" xlink:href="#DejaVuSans-65"/>
      <use x="887.097656" xlink:href="#DejaVuSans-72"/>
      <use x="928.210938" xlink:href="#DejaVuSans-61"/>
      <use x="989.490234" xlink:href="#DejaVuSans-64"/>
      <use x="1052.966797" xlink:href="#DejaVuSans-6f"/>
     </g>
    </g>
    <g id="line2d_20">
     <path d="M 266.30125 69.248562 
L 286.30125 69.248562 
" style="fill:none;stroke:#ff7f0e;stroke-linecap:square;stroke-width:1.5;"/>
    </g>
    <g id="line2d_21"/>
    <g id="text_20">
     <!-- Valor desvio obtenido -->
     <g transform="translate(294.30125 72.748562)scale(0.1 -0.1)">
      <use xlink:href="#DejaVuSans-56"/>
      <use x="68.298828" xlink:href="#DejaVuSans-61"/>
      <use x="129.578125" xlink:href="#DejaVuSans-6c"/>
      <use x="157.361328" xlink:href="#DejaVuSans-6f"/>
      <use x="218.542969" xlink:href="#DejaVuSans-72"/>
      <use x="259.65625" xlink:href="#DejaVuSans-20"/>
      <use x="291.443359" xlink:href="#DejaVuSans-64"/>
      <use x="354.919922" xlink:href="#DejaVuSans-65"/>
      <use x="416.443359" xlink:href="#DejaVuSans-73"/>
      <use x="468.542969" xlink:href="#DejaVuSans-76"/>
      <use x="527.722656" xlink:href="#DejaVuSans-69"/>
      <use x="555.505859" xlink:href="#DejaVuSans-6f"/>
      <use x="616.6875" xlink:href="#DejaVuSans-20"/>
      <use x="648.474609" xlink:href="#DejaVuSans-6f"/>
      <use x="709.65625" xlink:href="#DejaVuSans-62"/>
      <use x="773.132812" xlink:href="#DejaVuSans-74"/>
      <use x="812.341797" xlink:href="#DejaVuSans-65"/>
      <use x="873.865234" xlink:href="#DejaVuSans-6e"/>
      <use x="937.244141" xlink:href="#DejaVuSans-69"/>
      <use x="965.027344" xlink:href="#DejaVuSans-64"/>
      <use x="1028.503906" xlink:href="#DejaVuSans-6f"/>
     </g>
    </g>
   </g>
  </g>
 </g>
 <defs>
  <clipPath id="pd2fc7a7240">
   <rect height="266.112" width="357.12" x="57.6" y="41.472"/>
  </clipPath>
 </defs>
</svg>
