<?xml version="1.0" encoding="utf-8" standalone="no"?>
<!DOCTYPE svg PUBLIC "-//W3C//DTD SVG 1.1//EN"
  "http://www.w3.org/Graphics/SVG/1.1/DTD/svg11.dtd">
<!-- Created with matplotlib (http://matplotlib.org/) -->
<svg height="345.6pt" version="1.1" viewBox="0 0 460.8 345.6" width="460.8pt" xmlns="http://www.w3.org/2000/svg" xmlns:xlink="http://www.w3.org/1999/xlink">
 <defs>
  <style type="text/css">
*{stroke-linecap:butt;stroke-linejoin:round;}
  </style>
 </defs>
 <g id="figure_1">
  <g id="patch_1">
   <path d="M 0 345.6 
L 460.8 345.6 
L 460.8 0 
L 0 0 
z
" style="fill:#ffffff;"/>
  </g>
  <g id="axes_1">
   <g id="patch_2">
    <path d="M 57.6 307.584 
L 414.72 307.584 
L 414.72 41.472 
L 57.6 41.472 
z
" style="fill:#ffffff;"/>
   </g>
   <g id="matplotlib.axis_1">
    <g id="xtick_1">
     <g id="line2d_1">
      <defs>
       <path d="M 0 0 
L 0 3.5 
" id="m89133a6920" style="stroke:#000000;stroke-width:0.8;"/>
      </defs>
      <g>
       <use style="stroke:#000000;stroke-width:0.8;" x="57.528562" xlink:href="#m89133a6920" y="307.584"/>
      </g>
     </g>
     <g id="text_1">
      <!-- 0 -->
      <defs>
       <path d="M 31.78125 66.40625 
Q 24.171875 66.40625 20.328125 58.90625 
Q 16.5 51.421875 16.5 36.375 
Q 16.5 21.390625 20.328125 13.890625 
Q 24.171875 6.390625 31.78125 6.390625 
Q 39.453125 6.390625 43.28125 13.890625 
Q 47.125 21.390625 47.125 36.375 
Q 47.125 51.421875 43.28125 58.90625 
Q 39.453125 66.40625 31.78125 66.40625 
z
M 31.78125 74.21875 
Q 44.046875 74.21875 50.515625 64.515625 
Q 56.984375 54.828125 56.984375 36.375 
Q 56.984375 17.96875 50.515625 8.265625 
Q 44.046875 -1.421875 31.78125 -1.421875 
Q 19.53125 -1.421875 13.0625 8.265625 
Q 6.59375 17.96875 6.59375 36.375 
Q 6.59375 54.828125 13.0625 64.515625 
Q 19.53125 74.21875 31.78125 74.21875 
z
" id="DejaVuSans-30"/>
      </defs>
      <g transform="translate(54.347312 322.182437)scale(0.1 -0.1)">
       <use xlink:href="#DejaVuSans-30"/>
      </g>
     </g>
    </g>
    <g id="xtick_2">
     <g id="line2d_2">
      <g>
       <use style="stroke:#000000;stroke-width:0.8;" x="128.966849" xlink:href="#m89133a6920" y="307.584"/>
      </g>
     </g>
     <g id="text_2">
      <!-- 1000 -->
      <defs>
       <path d="M 12.40625 8.296875 
L 28.515625 8.296875 
L 28.515625 63.921875 
L 10.984375 60.40625 
L 10.984375 69.390625 
L 28.421875 72.90625 
L 38.28125 72.90625 
L 38.28125 8.296875 
L 54.390625 8.296875 
L 54.390625 0 
L 12.40625 0 
z
" id="DejaVuSans-31"/>
      </defs>
      <g transform="translate(116.241849 322.182437)scale(0.1 -0.1)">
       <use xlink:href="#DejaVuSans-31"/>
       <use x="63.623047" xlink:href="#DejaVuSans-30"/>
       <use x="127.246094" xlink:href="#DejaVuSans-30"/>
       <use x="190.869141" xlink:href="#DejaVuSans-30"/>
      </g>
     </g>
    </g>
    <g id="xtick_3">
     <g id="line2d_3">
      <g>
       <use style="stroke:#000000;stroke-width:0.8;" x="200.405137" xlink:href="#m89133a6920" y="307.584"/>
      </g>
     </g>
     <g id="text_3">
      <!-- 2000 -->
      <defs>
       <path d="M 19.1875 8.296875 
L 53.609375 8.296875 
L 53.609375 0 
L 7.328125 0 
L 7.328125 8.296875 
Q 12.9375 14.109375 22.625 23.890625 
Q 32.328125 33.6875 34.8125 36.53125 
Q 39.546875 41.84375 41.421875 45.53125 
Q 43.3125 49.21875 43.3125 52.78125 
Q 43.3125 58.59375 39.234375 62.25 
Q 35.15625 65.921875 28.609375 65.921875 
Q 23.96875 65.921875 18.8125 64.3125 
Q 13.671875 62.703125 7.8125 59.421875 
L 7.8125 69.390625 
Q 13.765625 71.78125 18.9375 73 
Q 24.125 74.21875 28.421875 74.21875 
Q 39.75 74.21875 46.484375 68.546875 
Q 53.21875 62.890625 53.21875 53.421875 
Q 53.21875 48.921875 51.53125 44.890625 
Q 49.859375 40.875 45.40625 35.40625 
Q 44.1875 33.984375 37.640625 27.21875 
Q 31.109375 20.453125 19.1875 8.296875 
z
" id="DejaVuSans-32"/>
      </defs>
      <g transform="translate(187.680137 322.182437)scale(0.1 -0.1)">
       <use xlink:href="#DejaVuSans-32"/>
       <use x="63.623047" xlink:href="#DejaVuSans-30"/>
       <use x="127.246094" xlink:href="#DejaVuSans-30"/>
       <use x="190.869141" xlink:href="#DejaVuSans-30"/>
      </g>
     </g>
    </g>
    <g id="xtick_4">
     <g id="line2d_4">
      <g>
       <use style="stroke:#000000;stroke-width:0.8;" x="271.843425" xlink:href="#m89133a6920" y="307.584"/>
      </g>
     </g>
     <g id="text_4">
      <!-- 3000 -->
      <defs>
       <path d="M 40.578125 39.3125 
Q 47.65625 37.796875 51.625 33 
Q 55.609375 28.21875 55.609375 21.1875 
Q 55.609375 10.40625 48.1875 4.484375 
Q 40.765625 -1.421875 27.09375 -1.421875 
Q 22.515625 -1.421875 17.65625 -0.515625 
Q 12.796875 0.390625 7.625 2.203125 
L 7.625 11.71875 
Q 11.71875 9.328125 16.59375 8.109375 
Q 21.484375 6.890625 26.8125 6.890625 
Q 36.078125 6.890625 40.9375 10.546875 
Q 45.796875 14.203125 45.796875 21.1875 
Q 45.796875 27.640625 41.28125 31.265625 
Q 36.765625 34.90625 28.71875 34.90625 
L 20.21875 34.90625 
L 20.21875 43.015625 
L 29.109375 43.015625 
Q 36.375 43.015625 40.234375 45.921875 
Q 44.09375 48.828125 44.09375 54.296875 
Q 44.09375 59.90625 40.109375 62.90625 
Q 36.140625 65.921875 28.71875 65.921875 
Q 24.65625 65.921875 20.015625 65.03125 
Q 15.375 64.15625 9.8125 62.3125 
L 9.8125 71.09375 
Q 15.4375 72.65625 20.34375 73.4375 
Q 25.25 74.21875 29.59375 74.21875 
Q 40.828125 74.21875 47.359375 69.109375 
Q 53.90625 64.015625 53.90625 55.328125 
Q 53.90625 49.265625 50.4375 45.09375 
Q 46.96875 40.921875 40.578125 39.3125 
z
" id="DejaVuSans-33"/>
      </defs>
      <g transform="translate(259.118425 322.182437)scale(0.1 -0.1)">
       <use xlink:href="#DejaVuSans-33"/>
       <use x="63.623047" xlink:href="#DejaVuSans-30"/>
       <use x="127.246094" xlink:href="#DejaVuSans-30"/>
       <use x="190.869141" xlink:href="#DejaVuSans-30"/>
      </g>
     </g>
    </g>
    <g id="xtick_5">
     <g id="line2d_5">
      <g>
       <use style="stroke:#000000;stroke-width:0.8;" x="343.281712" xlink:href="#m89133a6920" y="307.584"/>
      </g>
     </g>
     <g id="text_5">
      <!-- 4000 -->
      <defs>
       <path d="M 37.796875 64.3125 
L 12.890625 25.390625 
L 37.796875 25.390625 
z
M 35.203125 72.90625 
L 47.609375 72.90625 
L 47.609375 25.390625 
L 58.015625 25.390625 
L 58.015625 17.1875 
L 47.609375 17.1875 
L 47.609375 0 
L 37.796875 0 
L 37.796875 17.1875 
L 4.890625 17.1875 
L 4.890625 26.703125 
z
" id="DejaVuSans-34"/>
      </defs>
      <g transform="translate(330.556712 322.182437)scale(0.1 -0.1)">
       <use xlink:href="#DejaVuSans-34"/>
       <use x="63.623047" xlink:href="#DejaVuSans-30"/>
       <use x="127.246094" xlink:href="#DejaVuSans-30"/>
       <use x="190.869141" xlink:href="#DejaVuSans-30"/>
      </g>
     </g>
    </g>
    <g id="xtick_6">
     <g id="line2d_6">
      <g>
       <use style="stroke:#000000;stroke-width:0.8;" x="414.72" xlink:href="#m89133a6920" y="307.584"/>
      </g>
     </g>
     <g id="text_6">
      <!-- 5000 -->
      <defs>
       <path d="M 10.796875 72.90625 
L 49.515625 72.90625 
L 49.515625 64.59375 
L 19.828125 64.59375 
L 19.828125 46.734375 
Q 21.96875 47.46875 24.109375 47.828125 
Q 26.265625 48.1875 28.421875 48.1875 
Q 40.625 48.1875 47.75 41.5 
Q 54.890625 34.8125 54.890625 23.390625 
Q 54.890625 11.625 47.5625 5.09375 
Q 40.234375 -1.421875 26.90625 -1.421875 
Q 22.3125 -1.421875 17.546875 -0.640625 
Q 12.796875 0.140625 7.71875 1.703125 
L 7.71875 11.625 
Q 12.109375 9.234375 16.796875 8.0625 
Q 21.484375 6.890625 26.703125 6.890625 
Q 35.15625 6.890625 40.078125 11.328125 
Q 45.015625 15.765625 45.015625 23.390625 
Q 45.015625 31 40.078125 35.4375 
Q 35.15625 39.890625 26.703125 39.890625 
Q 22.75 39.890625 18.8125 39.015625 
Q 14.890625 38.140625 10.796875 36.28125 
z
" id="DejaVuSans-35"/>
      </defs>
      <g transform="translate(401.995 322.182437)scale(0.1 -0.1)">
       <use xlink:href="#DejaVuSans-35"/>
       <use x="63.623047" xlink:href="#DejaVuSans-30"/>
       <use x="127.246094" xlink:href="#DejaVuSans-30"/>
       <use x="190.869141" xlink:href="#DejaVuSans-30"/>
      </g>
     </g>
    </g>
    <g id="text_7">
     <!-- Tiradas -->
     <defs>
      <path d="M -0.296875 72.90625 
L 61.375 72.90625 
L 61.375 64.59375 
L 35.5 64.59375 
L 35.5 0 
L 25.59375 0 
L 25.59375 64.59375 
L -0.296875 64.59375 
z
" id="DejaVuSans-54"/>
      <path d="M 9.421875 54.6875 
L 18.40625 54.6875 
L 18.40625 0 
L 9.421875 0 
z
M 9.421875 75.984375 
L 18.40625 75.984375 
L 18.40625 64.59375 
L 9.421875 64.59375 
z
" id="DejaVuSans-69"/>
      <path d="M 41.109375 46.296875 
Q 39.59375 47.171875 37.8125 47.578125 
Q 36.03125 48 33.890625 48 
Q 26.265625 48 22.1875 43.046875 
Q 18.109375 38.09375 18.109375 28.8125 
L 18.109375 0 
L 9.078125 0 
L 9.078125 54.6875 
L 18.109375 54.6875 
L 18.109375 46.1875 
Q 20.953125 51.171875 25.484375 53.578125 
Q 30.03125 56 36.53125 56 
Q 37.453125 56 38.578125 55.875 
Q 39.703125 55.765625 41.0625 55.515625 
z
" id="DejaVuSans-72"/>
      <path d="M 34.28125 27.484375 
Q 23.390625 27.484375 19.1875 25 
Q 14.984375 22.515625 14.984375 16.5 
Q 14.984375 11.71875 18.140625 8.90625 
Q 21.296875 6.109375 26.703125 6.109375 
Q 34.1875 6.109375 38.703125 11.40625 
Q 43.21875 16.703125 43.21875 25.484375 
L 43.21875 27.484375 
z
M 52.203125 31.203125 
L 52.203125 0 
L 43.21875 0 
L 43.21875 8.296875 
Q 40.140625 3.328125 35.546875 0.953125 
Q 30.953125 -1.421875 24.3125 -1.421875 
Q 15.921875 -1.421875 10.953125 3.296875 
Q 6 8.015625 6 15.921875 
Q 6 25.140625 12.171875 29.828125 
Q 18.359375 34.515625 30.609375 34.515625 
L 43.21875 34.515625 
L 43.21875 35.40625 
Q 43.21875 41.609375 39.140625 45 
Q 35.0625 48.390625 27.6875 48.390625 
Q 23 48.390625 18.546875 47.265625 
Q 14.109375 46.140625 10.015625 43.890625 
L 10.015625 52.203125 
Q 14.9375 54.109375 19.578125 55.046875 
Q 24.21875 56 28.609375 56 
Q 40.484375 56 46.34375 49.84375 
Q 52.203125 43.703125 52.203125 31.203125 
z
" id="DejaVuSans-61"/>
      <path d="M 45.40625 46.390625 
L 45.40625 75.984375 
L 54.390625 75.984375 
L 54.390625 0 
L 45.40625 0 
L 45.40625 8.203125 
Q 42.578125 3.328125 38.25 0.953125 
Q 33.9375 -1.421875 27.875 -1.421875 
Q 17.96875 -1.421875 11.734375 6.484375 
Q 5.515625 14.40625 5.515625 27.296875 
Q 5.515625 40.1875 11.734375 48.09375 
Q 17.96875 56 27.875 56 
Q 33.9375 56 38.25 53.625 
Q 42.578125 51.265625 45.40625 46.390625 
z
M 14.796875 27.296875 
Q 14.796875 17.390625 18.875 11.75 
Q 22.953125 6.109375 30.078125 6.109375 
Q 37.203125 6.109375 41.296875 11.75 
Q 45.40625 17.390625 45.40625 27.296875 
Q 45.40625 37.203125 41.296875 42.84375 
Q 37.203125 48.484375 30.078125 48.484375 
Q 22.953125 48.484375 18.875 42.84375 
Q 14.796875 37.203125 14.796875 27.296875 
z
" id="DejaVuSans-64"/>
      <path d="M 44.28125 53.078125 
L 44.28125 44.578125 
Q 40.484375 46.53125 36.375 47.5 
Q 32.28125 48.484375 27.875 48.484375 
Q 21.1875 48.484375 17.84375 46.4375 
Q 14.5 44.390625 14.5 40.28125 
Q 14.5 37.15625 16.890625 35.375 
Q 19.28125 33.59375 26.515625 31.984375 
L 29.59375 31.296875 
Q 39.15625 29.25 43.1875 25.515625 
Q 47.21875 21.78125 47.21875 15.09375 
Q 47.21875 7.46875 41.1875 3.015625 
Q 35.15625 -1.421875 24.609375 -1.421875 
Q 20.21875 -1.421875 15.453125 -0.5625 
Q 10.6875 0.296875 5.421875 2 
L 5.421875 11.28125 
Q 10.40625 8.6875 15.234375 7.390625 
Q 20.0625 6.109375 24.8125 6.109375 
Q 31.15625 6.109375 34.5625 8.28125 
Q 37.984375 10.453125 37.984375 14.40625 
Q 37.984375 18.0625 35.515625 20.015625 
Q 33.0625 21.96875 24.703125 23.78125 
L 21.578125 24.515625 
Q 13.234375 26.265625 9.515625 29.90625 
Q 5.8125 33.546875 5.8125 39.890625 
Q 5.8125 47.609375 11.28125 51.796875 
Q 16.75 56 26.8125 56 
Q 31.78125 56 36.171875 55.265625 
Q 40.578125 54.546875 44.28125 53.078125 
z
" id="DejaVuSans-73"/>
     </defs>
     <g transform="translate(217.756875 335.860562)scale(0.1 -0.1)">
      <use xlink:href="#DejaVuSans-54"/>
      <use x="61.037109" xlink:href="#DejaVuSans-69"/>
      <use x="88.820312" xlink:href="#DejaVuSans-72"/>
      <use x="129.933594" xlink:href="#DejaVuSans-61"/>
      <use x="191.212891" xlink:href="#DejaVuSans-64"/>
      <use x="254.689453" xlink:href="#DejaVuSans-61"/>
      <use x="315.96875" xlink:href="#DejaVuSans-73"/>
     </g>
    </g>
   </g>
   <g id="matplotlib.axis_2">
    <g id="ytick_1">
     <g id="line2d_7">
      <defs>
       <path d="M 0 0 
L -3.5 0 
" id="m8d2f5b7418" style="stroke:#000000;stroke-width:0.8;"/>
      </defs>
      <g>
       <use style="stroke:#000000;stroke-width:0.8;" x="57.6" xlink:href="#m8d2f5b7418" y="295.488"/>
      </g>
     </g>
     <g id="text_8">
      <!-- 0.00 -->
      <defs>
       <path d="M 10.6875 12.40625 
L 21 12.40625 
L 21 0 
L 10.6875 0 
z
" id="DejaVuSans-2e"/>
      </defs>
      <g transform="translate(28.334375 299.287219)scale(0.1 -0.1)">
       <use xlink:href="#DejaVuSans-30"/>
       <use x="63.623047" xlink:href="#DejaVuSans-2e"/>
       <use x="95.410156" xlink:href="#DejaVuSans-30"/>
       <use x="159.033203" xlink:href="#DejaVuSans-30"/>
      </g>
     </g>
    </g>
    <g id="ytick_2">
     <g id="line2d_8">
      <g>
       <use style="stroke:#000000;stroke-width:0.8;" x="57.6" xlink:href="#m8d2f5b7418" y="259.2"/>
      </g>
     </g>
     <g id="text_9">
      <!-- 0.05 -->
      <g transform="translate(28.334375 262.999219)scale(0.1 -0.1)">
       <use xlink:href="#DejaVuSans-30"/>
       <use x="63.623047" xlink:href="#DejaVuSans-2e"/>
       <use x="95.410156" xlink:href="#DejaVuSans-30"/>
       <use x="159.033203" xlink:href="#DejaVuSans-35"/>
      </g>
     </g>
    </g>
    <g id="ytick_3">
     <g id="line2d_9">
      <g>
       <use style="stroke:#000000;stroke-width:0.8;" x="57.6" xlink:href="#m8d2f5b7418" y="222.912"/>
      </g>
     </g>
     <g id="text_10">
      <!-- 0.10 -->
      <g transform="translate(28.334375 226.711219)scale(0.1 -0.1)">
       <use xlink:href="#DejaVuSans-30"/>
       <use x="63.623047" xlink:href="#DejaVuSans-2e"/>
       <use x="95.410156" xlink:href="#DejaVuSans-31"/>
       <use x="159.033203" xlink:href="#DejaVuSans-30"/>
      </g>
     </g>
    </g>
    <g id="ytick_4">
     <g id="line2d_10">
      <g>
       <use style="stroke:#000000;stroke-width:0.8;" x="57.6" xlink:href="#m8d2f5b7418" y="186.624"/>
      </g>
     </g>
     <g id="text_11">
      <!-- 0.15 -->
      <g transform="translate(28.334375 190.423219)scale(0.1 -0.1)">
       <use xlink:href="#DejaVuSans-30"/>
       <use x="63.623047" xlink:href="#DejaVuSans-2e"/>
       <use x="95.410156" xlink:href="#DejaVuSans-31"/>
       <use x="159.033203" xlink:href="#DejaVuSans-35"/>
      </g>
     </g>
    </g>
    <g id="ytick_5">
     <g id="line2d_11">
      <g>
       <use style="stroke:#000000;stroke-width:0.8;" x="57.6" xlink:href="#m8d2f5b7418" y="150.336"/>
      </g>
     </g>
     <g id="text_12">
      <!-- 0.20 -->
      <g transform="translate(28.334375 154.135219)scale(0.1 -0.1)">
       <use xlink:href="#DejaVuSans-30"/>
       <use x="63.623047" xlink:href="#DejaVuSans-2e"/>
       <use x="95.410156" xlink:href="#DejaVuSans-32"/>
       <use x="159.033203" xlink:href="#DejaVuSans-30"/>
      </g>
     </g>
    </g>
    <g id="ytick_6">
     <g id="line2d_12">
      <g>
       <use style="stroke:#000000;stroke-width:0.8;" x="57.6" xlink:href="#m8d2f5b7418" y="114.048"/>
      </g>
     </g>
     <g id="text_13">
      <!-- 0.25 -->
      <g transform="translate(28.334375 117.847219)scale(0.1 -0.1)">
       <use xlink:href="#DejaVuSans-30"/>
       <use x="63.623047" xlink:href="#DejaVuSans-2e"/>
       <use x="95.410156" xlink:href="#DejaVuSans-32"/>
       <use x="159.033203" xlink:href="#DejaVuSans-35"/>
      </g>
     </g>
    </g>
    <g id="ytick_7">
     <g id="line2d_13">
      <g>
       <use style="stroke:#000000;stroke-width:0.8;" x="57.6" xlink:href="#m8d2f5b7418" y="77.76"/>
      </g>
     </g>
     <g id="text_14">
      <!-- 0.30 -->
      <g transform="translate(28.334375 81.559219)scale(0.1 -0.1)">
       <use xlink:href="#DejaVuSans-30"/>
       <use x="63.623047" xlink:href="#DejaVuSans-2e"/>
       <use x="95.410156" xlink:href="#DejaVuSans-33"/>
       <use x="159.033203" xlink:href="#DejaVuSans-30"/>
      </g>
     </g>
    </g>
    <g id="ytick_8">
     <g id="line2d_14">
      <g>
       <use style="stroke:#000000;stroke-width:0.8;" x="57.6" xlink:href="#m8d2f5b7418" y="41.472"/>
      </g>
     </g>
     <g id="text_15">
      <!-- 0.35 -->
      <g transform="translate(28.334375 45.271219)scale(0.1 -0.1)">
       <use xlink:href="#DejaVuSans-30"/>
       <use x="63.623047" xlink:href="#DejaVuSans-2e"/>
       <use x="95.410156" xlink:href="#DejaVuSans-33"/>
       <use x="159.033203" xlink:href="#DejaVuSans-35"/>
      </g>
     </g>
    </g>
    <g id="text_16">
     <!-- Valores -->
     <defs>
      <path d="M 28.609375 0 
L 0.78125 72.90625 
L 11.078125 72.90625 
L 34.1875 11.53125 
L 57.328125 72.90625 
L 67.578125 72.90625 
L 39.796875 0 
z
" id="DejaVuSans-56"/>
      <path d="M 9.421875 75.984375 
L 18.40625 75.984375 
L 18.40625 0 
L 9.421875 0 
z
" id="DejaVuSans-6c"/>
      <path d="M 30.609375 48.390625 
Q 23.390625 48.390625 19.1875 42.75 
Q 14.984375 37.109375 14.984375 27.296875 
Q 14.984375 17.484375 19.15625 11.84375 
Q 23.34375 6.203125 30.609375 6.203125 
Q 37.796875 6.203125 41.984375 11.859375 
Q 46.1875 17.53125 46.1875 27.296875 
Q 46.1875 37.015625 41.984375 42.703125 
Q 37.796875 48.390625 30.609375 48.390625 
z
M 30.609375 56 
Q 42.328125 56 49.015625 48.375 
Q 55.71875 40.765625 55.71875 27.296875 
Q 55.71875 13.875 49.015625 6.21875 
Q 42.328125 -1.421875 30.609375 -1.421875 
Q 18.84375 -1.421875 12.171875 6.21875 
Q 5.515625 13.875 5.515625 27.296875 
Q 5.515625 40.765625 12.171875 48.375 
Q 18.84375 56 30.609375 56 
z
" id="DejaVuSans-6f"/>
      <path d="M 56.203125 29.59375 
L 56.203125 25.203125 
L 14.890625 25.203125 
Q 15.484375 15.921875 20.484375 11.0625 
Q 25.484375 6.203125 34.421875 6.203125 
Q 39.59375 6.203125 44.453125 7.46875 
Q 49.3125 8.734375 54.109375 11.28125 
L 54.109375 2.78125 
Q 49.265625 0.734375 44.1875 -0.34375 
Q 39.109375 -1.421875 33.890625 -1.421875 
Q 20.796875 -1.421875 13.15625 6.1875 
Q 5.515625 13.8125 5.515625 26.8125 
Q 5.515625 40.234375 12.765625 48.109375 
Q 20.015625 56 32.328125 56 
Q 43.359375 56 49.78125 48.890625 
Q 56.203125 41.796875 56.203125 29.59375 
z
M 47.21875 32.234375 
Q 47.125 39.59375 43.09375 43.984375 
Q 39.0625 48.390625 32.421875 48.390625 
Q 24.90625 48.390625 20.390625 44.140625 
Q 15.875 39.890625 15.1875 32.171875 
z
" id="DejaVuSans-65"/>
     </defs>
     <g transform="translate(22.254687 193.1905)rotate(-90)scale(0.1 -0.1)">
      <use xlink:href="#DejaVuSans-56"/>
      <use x="68.298828" xlink:href="#DejaVuSans-61"/>
      <use x="129.578125" xlink:href="#DejaVuSans-6c"/>
      <use x="157.361328" xlink:href="#DejaVuSans-6f"/>
      <use x="218.542969" xlink:href="#DejaVuSans-72"/>
      <use x="259.625" xlink:href="#DejaVuSans-65"/>
      <use x="321.148438" xlink:href="#DejaVuSans-73"/>
     </g>
    </g>
   </g>
   <g id="line2d_15">
    <path clip-path="url(#pebc4f66757)" d="M 57.6 275.872865 
L 414.72 275.872865 
L 414.72 275.872865 
" style="fill:none;stroke:#1f77b4;stroke-linecap:square;stroke-width:1.5;"/>
   </g>
   <g id="line2d_16">
    <path clip-path="url(#pebc4f66757)" d="M 57.6 295.488 
L 57.671438 295.488 
L 57.742877 53.568 
L 57.814315 114.048 
L 58.100068 204.768 
L 58.457259 239.660308 
L 58.814451 255.168 
L 59.243081 265.248 
L 59.743149 272.076387 
L 60.314655 276.878769 
L 60.9576 280.368 
L 61.671982 282.974897 
L 62.457804 284.969739 
L 63.315063 286.528 
L 64.243761 287.767149 
L 65.315335 288.829651 
L 66.529786 289.728 
L 66.744101 289.861953 
L 66.815539 284.322462 
L 66.886977 284.407695 
L 68.101428 285.680432 
L 68.172867 280.875383 
L 68.244305 280.9728 
L 69.530194 282.528 
L 70.95896 283.906723 
L 72.530602 285.12 
L 74.102244 286.103172 
L 74.173683 283.028601 
L 74.245121 283.081846 
L 76.102517 284.322462 
L 78.245665 285.477517 
L 79.888746 286.213112 
L 79.960184 283.931312 
L 80.031622 283.968 
L 82.531962 285.12 
L 85.389494 286.183385 
L 88.675655 287.165064 
L 89.461476 287.369879 
L 89.532915 285.768 
L 89.604353 285.789648 
L 91.39031 286.301165 
L 91.461748 284.792589 
L 91.533187 284.815059 
L 92.747638 285.183091 
L 92.819076 283.734802 
L 92.890514 283.758545 
L 94.676471 284.322462 
L 94.74791 282.950879 
L 94.819348 282.974897 
L 95.105101 283.070053 
L 95.176539 281.716463 
L 95.247978 281.742545 
L 97.24825 282.434763 
L 97.319688 281.155217 
L 97.391126 281.180903 
L 98.462701 281.555435 
L 98.534139 280.315317 
L 98.605577 280.341704 
L 102.391806 281.619975 
L 104.32064 282.191634 
L 104.392078 281.105561 
L 104.463517 281.127452 
L 105.892282 281.551693 
L 105.963721 280.501805 
L 106.035159 280.523876 
L 107.178172 280.868374 
L 107.24961 279.846621 
L 107.321048 279.869062 
L 108.321184 280.176608 
L 108.392623 279.178787 
L 108.464061 279.201661 
L 108.964129 279.36 
L 109.035567 278.375767 
L 109.107005 278.399468 
L 111.035839 279.015477 
L 111.107277 278.06976 
L 111.178716 278.092953 
L 115.750766 279.458945 
L 118.465421 280.173018 
L 118.536859 279.341115 
L 118.608298 279.36 
L 118.751174 279.397638 
L 118.822613 278.570517 
L 118.894051 278.590212 
L 120.537131 279.030857 
L 120.60857 278.22757 
L 120.680008 278.247095 
L 121.608706 278.496963 
L 121.680144 277.707688 
L 121.751582 277.727466 
L 123.894731 278.301003 
L 123.966169 277.539097 
L 124.037608 277.558376 
L 129.038288 278.812196 
L 129.109726 278.104527 
L 129.181164 278.121858 
L 135.253419 279.478588 
L 137.325129 279.894231 
L 137.396567 279.25902 
L 137.468006 279.273523 
L 139.611154 279.696877 
L 139.682593 279.079513 
L 139.754031 279.093769 
L 139.896907 279.122206 
L 139.968346 278.50748 
L 140.039784 278.522182 
L 140.682729 278.653361 
L 140.754167 278.044841 
L 140.825605 278.059801 
L 147.826557 279.411038 
L 150.041144 279.795892 
L 150.112583 279.248 
L 150.184021 279.260521 
L 154.113127 279.920663 
L 154.184565 279.395761 
L 154.256003 279.407645 
L 162.685721 280.696696 
L 165.186061 281.040223 
L 165.328938 280.578417 
L 170.115303 281.212264 
L 170.329618 280.320122 
L 171.258316 280.44398 
L 171.401192 280.007548 
L 176.044681 280.614076 
L 176.187558 280.195044 
L 182.33125 280.947874 
L 182.474127 280.549544 
L 184.117207 280.74344 
L 184.260084 280.350954 
L 195.618772 281.59606 
L 197.190414 281.752389 
L 197.333291 281.395573 
L 203.762737 282.015171 
L 203.905613 281.67412 
L 207.334651 281.990318 
L 207.477528 281.657414 
L 208.691978 281.768529 
L 208.834855 281.438822 
L 212.406769 281.762834 
L 212.549646 281.441032 
L 213.192591 281.499051 
L 213.335467 281.179114 
L 213.62122 281.205309 
L 213.764097 280.886519 
L 215.264301 281.025391 
L 215.407177 280.710081 
L 218.479024 280.992128 
L 218.6219 280.68314 
L 222.122376 280.998 
L 222.265253 280.69584 
L 222.551006 280.721455 
L 222.693883 280.420318 
L 223.765457 280.517446 
L 223.908334 280.218683 
L 225.337099 280.34869 
L 225.479976 280.052866 
L 226.480112 280.144237 
L 226.622989 279.850586 
L 227.40881 279.92292 
L 227.551686 279.631059 
L 230.552094 279.906035 
L 230.694971 279.619485 
L 232.980996 279.826241 
L 233.123873 279.54372 
L 238.767497 280.040211 
L 238.910374 279.766535 
L 239.124689 279.785089 
L 239.267566 279.512151 
L 252.41221 280.589701 
L 252.555087 280.334769 
L 255.269742 280.542798 
L 255.412619 280.291581 
L 257.912959 280.481198 
L 258.055835 280.233337 
L 266.62843 280.858741 
L 266.771306 280.620946 
L 280.844649 281.557866 
L 281.058964 281.107329 
L 284.345125 281.315679 
L 284.488002 281.096159 
L 288.274231 281.33231 
L 288.417107 281.116515 
L 289.488682 281.182906 
L 289.631558 280.968332 
L 292.346213 281.13619 
L 292.48909 280.924254 
L 293.917856 281.012279 
L 294.060732 280.801827 
L 302.91908 281.331983 
L 303.061956 281.129059 
L 303.34771 281.145751 
L 303.562024 280.73678 
L 304.919352 280.817714 
L 305.062228 280.616727 
L 305.41942 280.638156 
L 305.633735 280.233039 
L 308.562705 280.411028 
L 308.705581 280.213188 
L 308.777019 280.217531 
L 308.919896 280.019969 
L 313.134755 280.275032 
L 313.277632 280.080804 
L 315.063589 280.18765 
L 315.206465 279.994925 
L 317.421052 280.126944 
L 317.563929 279.936 
L 319.849954 280.071529 
L 319.992831 279.882382 
L 321.207281 279.954258 
L 321.350158 279.766148 
L 323.064677 279.867661 
L 323.207554 279.680912 
L 324.422004 279.752839 
L 324.564881 279.567101 
L 325.993647 279.651832 
L 326.136523 279.467234 
L 328.565425 279.610804 
L 328.708302 279.427979 
L 328.851178 279.436436 
L 328.994055 279.253895 
L 330.065629 279.317725 
L 330.208506 279.136059 
L 334.066173 279.364166 
L 334.20905 279.185103 
L 336.209322 279.302119 
L 336.352198 279.124464 
L 337.423773 279.187112 
L 337.566649 279.010286 
L 338.709662 279.077268 
L 338.852539 278.901306 
L 341.210002 279.039146 
L 341.352879 278.864753 
L 343.067397 278.964567 
L 343.210274 278.791346 
L 345.496299 278.923892 
L 345.639176 278.752151 
L 350.06835 279.005538 
L 350.211226 278.83644 
L 351.068486 278.88507 
L 351.211362 278.716606 
L 357.212178 279.052434 
L 357.355055 278.887342 
L 360.855531 279.078919 
L 360.998408 278.915797 
L 361.927105 278.966357 
L 362.069982 278.803862 
L 363.855939 278.901134 
L 363.998816 278.739692 
L 368.785181 278.99724 
L 368.928058 278.83831 
L 371.999904 279.000949 
L 372.142781 278.84364 
L 372.857163 278.881348 
L 373.071478 278.564006 
L 373.500108 278.586965 
L 373.642985 278.43059 
L 376.714831 278.59475 
L 376.857708 278.439946 
L 379.358048 278.572395 
L 379.500924 278.418872 
L 382.001264 278.550404 
L 382.144141 278.398141 
L 384.144413 278.502803 
L 384.287289 278.351559 
L 391.502557 278.72178 
L 391.645433 278.573773 
L 392.145501 278.59905 
L 392.288378 278.45138 
L 396.003169 278.638359 
L 396.146045 278.492354 
L 397.574811 278.563765 
L 397.717688 278.418466 
L 399.075015 278.486302 
L 399.217892 278.341673 
L 399.789398 278.370304 
L 399.932274 278.226026 
L 401.932547 278.326283 
L 402.075423 278.18292 
L 403.361312 278.247265 
L 403.504189 278.104527 
L 404.075695 278.133195 
L 404.218572 277.990798 
L 406.718912 278.116085 
L 406.861788 277.974773 
L 407.147542 277.989087 
L 407.290418 277.848 
L 411.933907 278.079123 
L 412.076783 277.939904 
L 414.72 278.06976 
L 414.72 278.06976 
" style="fill:none;stroke:#ff7f0e;stroke-linecap:square;stroke-width:1.5;"/>
   </g>
   <g id="patch_3">
    <path d="M 57.6 307.584 
L 57.6 41.472 
" style="fill:none;stroke:#000000;stroke-linecap:square;stroke-linejoin:miter;stroke-width:0.8;"/>
   </g>
   <g id="patch_4">
    <path d="M 414.72 307.584 
L 414.72 41.472 
" style="fill:none;stroke:#000000;stroke-linecap:square;stroke-linejoin:miter;stroke-width:0.8;"/>
   </g>
   <g id="patch_5">
    <path d="M 57.6 307.584 
L 414.72 307.584 
" style="fill:none;stroke:#000000;stroke-linecap:square;stroke-linejoin:miter;stroke-width:0.8;"/>
   </g>
   <g id="patch_6">
    <path d="M 57.6 41.472 
L 414.72 41.472 
" style="fill:none;stroke:#000000;stroke-linecap:square;stroke-linejoin:miter;stroke-width:0.8;"/>
   </g>
   <g id="text_17">
    <!-- Grafico frecuencias relativas esperadas vs obtenidas -->
    <defs>
     <path d="M 59.515625 10.40625 
L 59.515625 29.984375 
L 43.40625 29.984375 
L 43.40625 38.09375 
L 69.28125 38.09375 
L 69.28125 6.78125 
Q 63.578125 2.734375 56.6875 0.65625 
Q 49.8125 -1.421875 42 -1.421875 
Q 24.90625 -1.421875 15.25 8.5625 
Q 5.609375 18.5625 5.609375 36.375 
Q 5.609375 54.25 15.25 64.234375 
Q 24.90625 74.21875 42 74.21875 
Q 49.125 74.21875 55.546875 72.453125 
Q 61.96875 70.703125 67.390625 67.28125 
L 67.390625 56.78125 
Q 61.921875 61.421875 55.765625 63.765625 
Q 49.609375 66.109375 42.828125 66.109375 
Q 29.4375 66.109375 22.71875 58.640625 
Q 16.015625 51.171875 16.015625 36.375 
Q 16.015625 21.625 22.71875 14.15625 
Q 29.4375 6.6875 42.828125 6.6875 
Q 48.046875 6.6875 52.140625 7.59375 
Q 56.25 8.5 59.515625 10.40625 
z
" id="DejaVuSans-47"/>
     <path d="M 37.109375 75.984375 
L 37.109375 68.5 
L 28.515625 68.5 
Q 23.6875 68.5 21.796875 66.546875 
Q 19.921875 64.59375 19.921875 59.515625 
L 19.921875 54.6875 
L 34.71875 54.6875 
L 34.71875 47.703125 
L 19.921875 47.703125 
L 19.921875 0 
L 10.890625 0 
L 10.890625 47.703125 
L 2.296875 47.703125 
L 2.296875 54.6875 
L 10.890625 54.6875 
L 10.890625 58.5 
Q 10.890625 67.625 15.140625 71.796875 
Q 19.390625 75.984375 28.609375 75.984375 
z
" id="DejaVuSans-66"/>
     <path d="M 48.78125 52.59375 
L 48.78125 44.1875 
Q 44.96875 46.296875 41.140625 47.34375 
Q 37.3125 48.390625 33.40625 48.390625 
Q 24.65625 48.390625 19.8125 42.84375 
Q 14.984375 37.3125 14.984375 27.296875 
Q 14.984375 17.28125 19.8125 11.734375 
Q 24.65625 6.203125 33.40625 6.203125 
Q 37.3125 6.203125 41.140625 7.25 
Q 44.96875 8.296875 48.78125 10.40625 
L 48.78125 2.09375 
Q 45.015625 0.34375 40.984375 -0.53125 
Q 36.96875 -1.421875 32.421875 -1.421875 
Q 20.0625 -1.421875 12.78125 6.34375 
Q 5.515625 14.109375 5.515625 27.296875 
Q 5.515625 40.671875 12.859375 48.328125 
Q 20.21875 56 33.015625 56 
Q 37.15625 56 41.109375 55.140625 
Q 45.0625 54.296875 48.78125 52.59375 
z
" id="DejaVuSans-63"/>
     <path id="DejaVuSans-20"/>
     <path d="M 8.5 21.578125 
L 8.5 54.6875 
L 17.484375 54.6875 
L 17.484375 21.921875 
Q 17.484375 14.15625 20.5 10.265625 
Q 23.53125 6.390625 29.59375 6.390625 
Q 36.859375 6.390625 41.078125 11.03125 
Q 45.3125 15.671875 45.3125 23.6875 
L 45.3125 54.6875 
L 54.296875 54.6875 
L 54.296875 0 
L 45.3125 0 
L 45.3125 8.40625 
Q 42.046875 3.421875 37.71875 1 
Q 33.40625 -1.421875 27.6875 -1.421875 
Q 18.265625 -1.421875 13.375 4.4375 
Q 8.5 10.296875 8.5 21.578125 
z
M 31.109375 56 
z
" id="DejaVuSans-75"/>
     <path d="M 54.890625 33.015625 
L 54.890625 0 
L 45.90625 0 
L 45.90625 32.71875 
Q 45.90625 40.484375 42.875 44.328125 
Q 39.84375 48.1875 33.796875 48.1875 
Q 26.515625 48.1875 22.3125 43.546875 
Q 18.109375 38.921875 18.109375 30.90625 
L 18.109375 0 
L 9.078125 0 
L 9.078125 54.6875 
L 18.109375 54.6875 
L 18.109375 46.1875 
Q 21.34375 51.125 25.703125 53.5625 
Q 30.078125 56 35.796875 56 
Q 45.21875 56 50.046875 50.171875 
Q 54.890625 44.34375 54.890625 33.015625 
z
" id="DejaVuSans-6e"/>
     <path d="M 18.3125 70.21875 
L 18.3125 54.6875 
L 36.8125 54.6875 
L 36.8125 47.703125 
L 18.3125 47.703125 
L 18.3125 18.015625 
Q 18.3125 11.328125 20.140625 9.421875 
Q 21.96875 7.515625 27.59375 7.515625 
L 36.8125 7.515625 
L 36.8125 0 
L 27.59375 0 
Q 17.1875 0 13.234375 3.875 
Q 9.28125 7.765625 9.28125 18.015625 
L 9.28125 47.703125 
L 2.6875 47.703125 
L 2.6875 54.6875 
L 9.28125 54.6875 
L 9.28125 70.21875 
z
" id="DejaVuSans-74"/>
     <path d="M 2.984375 54.6875 
L 12.5 54.6875 
L 29.59375 8.796875 
L 46.6875 54.6875 
L 56.203125 54.6875 
L 35.6875 0 
L 23.484375 0 
z
" id="DejaVuSans-76"/>
     <path d="M 18.109375 8.203125 
L 18.109375 -20.796875 
L 9.078125 -20.796875 
L 9.078125 54.6875 
L 18.109375 54.6875 
L 18.109375 46.390625 
Q 20.953125 51.265625 25.265625 53.625 
Q 29.59375 56 35.59375 56 
Q 45.5625 56 51.78125 48.09375 
Q 58.015625 40.1875 58.015625 27.296875 
Q 58.015625 14.40625 51.78125 6.484375 
Q 45.5625 -1.421875 35.59375 -1.421875 
Q 29.59375 -1.421875 25.265625 0.953125 
Q 20.953125 3.328125 18.109375 8.203125 
z
M 48.6875 27.296875 
Q 48.6875 37.203125 44.609375 42.84375 
Q 40.53125 48.484375 33.40625 48.484375 
Q 26.265625 48.484375 22.1875 42.84375 
Q 18.109375 37.203125 18.109375 27.296875 
Q 18.109375 17.390625 22.1875 11.75 
Q 26.265625 6.109375 33.40625 6.109375 
Q 40.53125 6.109375 44.609375 11.75 
Q 48.6875 17.390625 48.6875 27.296875 
z
" id="DejaVuSans-70"/>
     <path d="M 48.6875 27.296875 
Q 48.6875 37.203125 44.609375 42.84375 
Q 40.53125 48.484375 33.40625 48.484375 
Q 26.265625 48.484375 22.1875 42.84375 
Q 18.109375 37.203125 18.109375 27.296875 
Q 18.109375 17.390625 22.1875 11.75 
Q 26.265625 6.109375 33.40625 6.109375 
Q 40.53125 6.109375 44.609375 11.75 
Q 48.6875 17.390625 48.6875 27.296875 
z
M 18.109375 46.390625 
Q 20.953125 51.265625 25.265625 53.625 
Q 29.59375 56 35.59375 56 
Q 45.5625 56 51.78125 48.09375 
Q 58.015625 40.1875 58.015625 27.296875 
Q 58.015625 14.40625 51.78125 6.484375 
Q 45.5625 -1.421875 35.59375 -1.421875 
Q 29.59375 -1.421875 25.265625 0.953125 
Q 20.953125 3.328125 18.109375 8.203125 
L 18.109375 0 
L 9.078125 0 
L 9.078125 75.984375 
L 18.109375 75.984375 
z
" id="DejaVuSans-62"/>
    </defs>
    <g transform="translate(77.221875 35.472)scale(0.12 -0.12)">
     <use xlink:href="#DejaVuSans-47"/>
     <use x="77.490234" xlink:href="#DejaVuSans-72"/>
     <use x="118.603516" xlink:href="#DejaVuSans-61"/>
     <use x="179.882812" xlink:href="#DejaVuSans-66"/>
     <use x="215.087891" xlink:href="#DejaVuSans-69"/>
     <use x="242.871094" xlink:href="#DejaVuSans-63"/>
     <use x="297.851562" xlink:href="#DejaVuSans-6f"/>
     <use x="359.033203" xlink:href="#DejaVuSans-20"/>
     <use x="390.820312" xlink:href="#DejaVuSans-66"/>
     <use x="426.025391" xlink:href="#DejaVuSans-72"/>
     <use x="467.107422" xlink:href="#DejaVuSans-65"/>
     <use x="528.630859" xlink:href="#DejaVuSans-63"/>
     <use x="583.611328" xlink:href="#DejaVuSans-75"/>
     <use x="646.990234" xlink:href="#DejaVuSans-65"/>
     <use x="708.513672" xlink:href="#DejaVuSans-6e"/>
     <use x="771.892578" xlink:href="#DejaVuSans-63"/>
     <use x="826.873047" xlink:href="#DejaVuSans-69"/>
     <use x="854.65625" xlink:href="#DejaVuSans-61"/>
     <use x="915.935547" xlink:href="#DejaVuSans-73"/>
     <use x="968.035156" xlink:href="#DejaVuSans-20"/>
     <use x="999.822266" xlink:href="#DejaVuSans-72"/>
     <use x="1040.904297" xlink:href="#DejaVuSans-65"/>
     <use x="1102.427734" xlink:href="#DejaVuSans-6c"/>
     <use x="1130.210938" xlink:href="#DejaVuSans-61"/>
     <use x="1191.490234" xlink:href="#DejaVuSans-74"/>
     <use x="1230.699219" xlink:href="#DejaVuSans-69"/>
     <use x="1258.482422" xlink:href="#DejaVuSans-76"/>
     <use x="1317.662109" xlink:href="#DejaVuSans-61"/>
     <use x="1378.941406" xlink:href="#DejaVuSans-73"/>
     <use x="1431.041016" xlink:href="#DejaVuSans-20"/>
     <use x="1462.828125" xlink:href="#DejaVuSans-65"/>
     <use x="1524.351562" xlink:href="#DejaVuSans-73"/>
     <use x="1576.451172" xlink:href="#DejaVuSans-70"/>
     <use x="1639.927734" xlink:href="#DejaVuSans-65"/>
     <use x="1701.451172" xlink:href="#DejaVuSans-72"/>
     <use x="1742.564453" xlink:href="#DejaVuSans-61"/>
     <use x="1803.84375" xlink:href="#DejaVuSans-64"/>
     <use x="1867.320312" xlink:href="#DejaVuSans-61"/>
     <use x="1928.599609" xlink:href="#DejaVuSans-73"/>
     <use x="1980.699219" xlink:href="#DejaVuSans-20"/>
     <use x="2012.486328" xlink:href="#DejaVuSans-76"/>
     <use x="2071.666016" xlink:href="#DejaVuSans-73"/>
     <use x="2123.765625" xlink:href="#DejaVuSans-20"/>
     <use x="2155.552734" xlink:href="#DejaVuSans-6f"/>
     <use x="2216.734375" xlink:href="#DejaVuSans-62"/>
     <use x="2280.210938" xlink:href="#DejaVuSans-74"/>
     <use x="2319.419922" xlink:href="#DejaVuSans-65"/>
     <use x="2380.943359" xlink:href="#DejaVuSans-6e"/>
     <use x="2444.322266" xlink:href="#DejaVuSans-69"/>
     <use x="2472.105469" xlink:href="#DejaVuSans-64"/>
     <use x="2535.582031" xlink:href="#DejaVuSans-61"/>
     <use x="2596.861328" xlink:href="#DejaVuSans-73"/>
    </g>
   </g>
   <g id="legend_1">
    <g id="patch_7">
     <path d="M 230.13875 78.82825 
L 407.72 78.82825 
Q 409.72 78.82825 409.72 76.82825 
L 409.72 48.472 
Q 409.72 46.472 407.72 46.472 
L 230.13875 46.472 
Q 228.13875 46.472 228.13875 48.472 
L 228.13875 76.82825 
Q 228.13875 78.82825 230.13875 78.82825 
z
" style="fill:#ffffff;opacity:0.8;stroke:#cccccc;stroke-linejoin:miter;"/>
    </g>
    <g id="line2d_17">
     <path d="M 232.13875 54.570437 
L 252.13875 54.570437 
" style="fill:none;stroke:#1f77b4;stroke-linecap:square;stroke-width:1.5;"/>
    </g>
    <g id="line2d_18"/>
    <g id="text_18">
     <!-- Frecuencia relativa esperada -->
     <defs>
      <path d="M 9.8125 72.90625 
L 51.703125 72.90625 
L 51.703125 64.59375 
L 19.671875 64.59375 
L 19.671875 43.109375 
L 48.578125 43.109375 
L 48.578125 34.8125 
L 19.671875 34.8125 
L 19.671875 0 
L 9.8125 0 
z
" id="DejaVuSans-46"/>
     </defs>
     <g transform="translate(260.13875 58.070437)scale(0.1 -0.1)">
      <use xlink:href="#DejaVuSans-46"/>
      <use x="57.410156" xlink:href="#DejaVuSans-72"/>
      <use x="98.492188" xlink:href="#DejaVuSans-65"/>
      <use x="160.015625" xlink:href="#DejaVuSans-63"/>
      <use x="214.996094" xlink:href="#DejaVuSans-75"/>
      <use x="278.375" xlink:href="#DejaVuSans-65"/>
      <use x="339.898438" xlink:href="#DejaVuSans-6e"/>
      <use x="403.277344" xlink:href="#DejaVuSans-63"/>
      <use x="458.257812" xlink:href="#DejaVuSans-69"/>
      <use x="486.041016" xlink:href="#DejaVuSans-61"/>
      <use x="547.320312" xlink:href="#DejaVuSans-20"/>
      <use x="579.107422" xlink:href="#DejaVuSans-72"/>
      <use x="620.189453" xlink:href="#DejaVuSans-65"/>
      <use x="681.712891" xlink:href="#DejaVuSans-6c"/>
      <use x="709.496094" xlink:href="#DejaVuSans-61"/>
      <use x="770.775391" xlink:href="#DejaVuSans-74"/>
      <use x="809.984375" xlink:href="#DejaVuSans-69"/>
      <use x="837.767578" xlink:href="#DejaVuSans-76"/>
      <use x="896.947266" xlink:href="#DejaVuSans-61"/>
      <use x="958.226562" xlink:href="#DejaVuSans-20"/>
      <use x="990.013672" xlink:href="#DejaVuSans-65"/>
      <use x="1051.537109" xlink:href="#DejaVuSans-73"/>
      <use x="1103.636719" xlink:href="#DejaVuSans-70"/>
      <use x="1167.113281" xlink:href="#DejaVuSans-65"/>
      <use x="1228.636719" xlink:href="#DejaVuSans-72"/>
      <use x="1269.75" xlink:href="#DejaVuSans-61"/>
      <use x="1331.029297" xlink:href="#DejaVuSans-64"/>
      <use x="1394.505859" xlink:href="#DejaVuSans-61"/>
     </g>
    </g>
    <g id="line2d_19">
     <path d="M 232.13875 69.248562 
L 252.13875 69.248562 
" style="fill:none;stroke:#ff7f0e;stroke-linecap:square;stroke-width:1.5;"/>
    </g>
    <g id="line2d_20"/>
    <g id="text_19">
     <!-- Frecuencia relativa obtenida -->
     <g transform="translate(260.13875 72.748562)scale(0.1 -0.1)">
      <use xlink:href="#DejaVuSans-46"/>
      <use x="57.410156" xlink:href="#DejaVuSans-72"/>
      <use x="98.492188" xlink:href="#DejaVuSans-65"/>
      <use x="160.015625" xlink:href="#DejaVuSans-63"/>
      <use x="214.996094" xlink:href="#DejaVuSans-75"/>
      <use x="278.375" xlink:href="#DejaVuSans-65"/>
      <use x="339.898438" xlink:href="#DejaVuSans-6e"/>
      <use x="403.277344" xlink:href="#DejaVuSans-63"/>
      <use x="458.257812" xlink:href="#DejaVuSans-69"/>
      <use x="486.041016" xlink:href="#DejaVuSans-61"/>
      <use x="547.320312" xlink:href="#DejaVuSans-20"/>
      <use x="579.107422" xlink:href="#DejaVuSans-72"/>
      <use x="620.189453" xlink:href="#DejaVuSans-65"/>
      <use x="681.712891" xlink:href="#DejaVuSans-6c"/>
      <use x="709.496094" xlink:href="#DejaVuSans-61"/>
      <use x="770.775391" xlink:href="#DejaVuSans-74"/>
      <use x="809.984375" xlink:href="#DejaVuSans-69"/>
      <use x="837.767578" xlink:href="#DejaVuSans-76"/>
      <use x="896.947266" xlink:href="#DejaVuSans-61"/>
      <use x="958.226562" xlink:href="#DejaVuSans-20"/>
      <use x="990.013672" xlink:href="#DejaVuSans-6f"/>
      <use x="1051.195312" xlink:href="#DejaVuSans-62"/>
      <use x="1114.671875" xlink:href="#DejaVuSans-74"/>
      <use x="1153.880859" xlink:href="#DejaVuSans-65"/>
      <use x="1215.404297" xlink:href="#DejaVuSans-6e"/>
      <use x="1278.783203" xlink:href="#DejaVuSans-69"/>
      <use x="1306.566406" xlink:href="#DejaVuSans-64"/>
      <use x="1370.042969" xlink:href="#DejaVuSans-61"/>
     </g>
    </g>
   </g>
  </g>
 </g>
 <defs>
  <clipPath id="pebc4f66757">
   <rect height="266.112" width="357.12" x="57.6" y="41.472"/>
  </clipPath>
 </defs>
</svg>
