<?xml version="1.0" encoding="utf-8" standalone="no"?>
<!DOCTYPE svg PUBLIC "-//W3C//DTD SVG 1.1//EN"
  "http://www.w3.org/Graphics/SVG/1.1/DTD/svg11.dtd">
<!-- Created with matplotlib (https://matplotlib.org/) -->
<svg height="345.6pt" version="1.1" viewBox="0 0 460.8 345.6" width="460.8pt" xmlns="http://www.w3.org/2000/svg" xmlns:xlink="http://www.w3.org/1999/xlink">
 <metadata>
  <rdf:RDF xmlns:cc="http://creativecommons.org/ns#" xmlns:dc="http://purl.org/dc/elements/1.1/" xmlns:rdf="http://www.w3.org/1999/02/22-rdf-syntax-ns#">
   <cc:Work>
    <dc:type rdf:resource="http://purl.org/dc/dcmitype/StillImage"/>
    <dc:date>2021-04-07T21:24:33.488592</dc:date>
    <dc:format>image/svg+xml</dc:format>
    <dc:creator>
     <cc:Agent>
      <dc:title>Matplotlib v3.3.4, https://matplotlib.org/</dc:title>
     </cc:Agent>
    </dc:creator>
   </cc:Work>
  </rdf:RDF>
 </metadata>
 <defs>
  <style type="text/css">*{stroke-linecap:butt;stroke-linejoin:round;}</style>
 </defs>
 <g id="figure_1">
  <g id="patch_1">
   <path d="M 0 345.6 
L 460.8 345.6 
L 460.8 0 
L 0 0 
z
" style="fill:#ffffff;"/>
  </g>
  <g id="axes_1">
   <g id="patch_2">
    <path d="M 57.6 307.584 
L 414.72 307.584 
L 414.72 41.472 
L 57.6 41.472 
z
" style="fill:#ffffff;"/>
   </g>
   <g id="matplotlib.axis_1">
    <g id="xtick_1">
     <g id="line2d_1">
      <defs>
       <path d="M 0 0 
L 0 3.5 
" id="m2aa6a2343e" style="stroke:#000000;stroke-width:0.8;"/>
      </defs>
      <g>
       <use style="stroke:#000000;stroke-width:0.8;" x="72.201297" xlink:href="#m2aa6a2343e" y="307.584"/>
      </g>
     </g>
     <g id="text_1">
      <!-- 0 -->
      <g transform="translate(69.020047 322.182437)scale(0.1 -0.1)">
       <defs>
        <path d="M 31.78125 66.40625 
Q 24.171875 66.40625 20.328125 58.90625 
Q 16.5 51.421875 16.5 36.375 
Q 16.5 21.390625 20.328125 13.890625 
Q 24.171875 6.390625 31.78125 6.390625 
Q 39.453125 6.390625 43.28125 13.890625 
Q 47.125 21.390625 47.125 36.375 
Q 47.125 51.421875 43.28125 58.90625 
Q 39.453125 66.40625 31.78125 66.40625 
z
M 31.78125 74.21875 
Q 44.046875 74.21875 50.515625 64.515625 
Q 56.984375 54.828125 56.984375 36.375 
Q 56.984375 17.96875 50.515625 8.265625 
Q 44.046875 -1.421875 31.78125 -1.421875 
Q 19.53125 -1.421875 13.0625 8.265625 
Q 6.59375 17.96875 6.59375 36.375 
Q 6.59375 54.828125 13.0625 64.515625 
Q 19.53125 74.21875 31.78125 74.21875 
z
" id="DejaVuSans-48"/>
       </defs>
       <use xlink:href="#DejaVuSans-48"/>
      </g>
     </g>
    </g>
    <g id="xtick_2">
     <g id="line2d_2">
      <g>
       <use style="stroke:#000000;stroke-width:0.8;" x="112.987044" xlink:href="#m2aa6a2343e" y="307.584"/>
      </g>
     </g>
     <g id="text_2">
      <!-- 25 -->
      <g transform="translate(106.624544 322.182437)scale(0.1 -0.1)">
       <defs>
        <path d="M 19.1875 8.296875 
L 53.609375 8.296875 
L 53.609375 0 
L 7.328125 0 
L 7.328125 8.296875 
Q 12.9375 14.109375 22.625 23.890625 
Q 32.328125 33.6875 34.8125 36.53125 
Q 39.546875 41.84375 41.421875 45.53125 
Q 43.3125 49.21875 43.3125 52.78125 
Q 43.3125 58.59375 39.234375 62.25 
Q 35.15625 65.921875 28.609375 65.921875 
Q 23.96875 65.921875 18.8125 64.3125 
Q 13.671875 62.703125 7.8125 59.421875 
L 7.8125 69.390625 
Q 13.765625 71.78125 18.9375 73 
Q 24.125 74.21875 28.421875 74.21875 
Q 39.75 74.21875 46.484375 68.546875 
Q 53.21875 62.890625 53.21875 53.421875 
Q 53.21875 48.921875 51.53125 44.890625 
Q 49.859375 40.875 45.40625 35.40625 
Q 44.1875 33.984375 37.640625 27.21875 
Q 31.109375 20.453125 19.1875 8.296875 
z
" id="DejaVuSans-50"/>
        <path d="M 10.796875 72.90625 
L 49.515625 72.90625 
L 49.515625 64.59375 
L 19.828125 64.59375 
L 19.828125 46.734375 
Q 21.96875 47.46875 24.109375 47.828125 
Q 26.265625 48.1875 28.421875 48.1875 
Q 40.625 48.1875 47.75 41.5 
Q 54.890625 34.8125 54.890625 23.390625 
Q 54.890625 11.625 47.5625 5.09375 
Q 40.234375 -1.421875 26.90625 -1.421875 
Q 22.3125 -1.421875 17.546875 -0.640625 
Q 12.796875 0.140625 7.71875 1.703125 
L 7.71875 11.625 
Q 12.109375 9.234375 16.796875 8.0625 
Q 21.484375 6.890625 26.703125 6.890625 
Q 35.15625 6.890625 40.078125 11.328125 
Q 45.015625 15.765625 45.015625 23.390625 
Q 45.015625 31 40.078125 35.4375 
Q 35.15625 39.890625 26.703125 39.890625 
Q 22.75 39.890625 18.8125 39.015625 
Q 14.890625 38.140625 10.796875 36.28125 
z
" id="DejaVuSans-53"/>
       </defs>
       <use xlink:href="#DejaVuSans-50"/>
       <use x="63.623047" xlink:href="#DejaVuSans-53"/>
      </g>
     </g>
    </g>
    <g id="xtick_3">
     <g id="line2d_3">
      <g>
       <use style="stroke:#000000;stroke-width:0.8;" x="153.772791" xlink:href="#m2aa6a2343e" y="307.584"/>
      </g>
     </g>
     <g id="text_3">
      <!-- 50 -->
      <g transform="translate(147.410291 322.182437)scale(0.1 -0.1)">
       <use xlink:href="#DejaVuSans-53"/>
       <use x="63.623047" xlink:href="#DejaVuSans-48"/>
      </g>
     </g>
    </g>
    <g id="xtick_4">
     <g id="line2d_4">
      <g>
       <use style="stroke:#000000;stroke-width:0.8;" x="194.558538" xlink:href="#m2aa6a2343e" y="307.584"/>
      </g>
     </g>
     <g id="text_4">
      <!-- 75 -->
      <g transform="translate(188.196038 322.182437)scale(0.1 -0.1)">
       <defs>
        <path d="M 8.203125 72.90625 
L 55.078125 72.90625 
L 55.078125 68.703125 
L 28.609375 0 
L 18.3125 0 
L 43.21875 64.59375 
L 8.203125 64.59375 
z
" id="DejaVuSans-55"/>
       </defs>
       <use xlink:href="#DejaVuSans-55"/>
       <use x="63.623047" xlink:href="#DejaVuSans-53"/>
      </g>
     </g>
    </g>
    <g id="xtick_5">
     <g id="line2d_5">
      <g>
       <use style="stroke:#000000;stroke-width:0.8;" x="235.344285" xlink:href="#m2aa6a2343e" y="307.584"/>
      </g>
     </g>
     <g id="text_5">
      <!-- 100 -->
      <g transform="translate(225.800535 322.182437)scale(0.1 -0.1)">
       <defs>
        <path d="M 12.40625 8.296875 
L 28.515625 8.296875 
L 28.515625 63.921875 
L 10.984375 60.40625 
L 10.984375 69.390625 
L 28.421875 72.90625 
L 38.28125 72.90625 
L 38.28125 8.296875 
L 54.390625 8.296875 
L 54.390625 0 
L 12.40625 0 
z
" id="DejaVuSans-49"/>
       </defs>
       <use xlink:href="#DejaVuSans-49"/>
       <use x="63.623047" xlink:href="#DejaVuSans-48"/>
       <use x="127.246094" xlink:href="#DejaVuSans-48"/>
      </g>
     </g>
    </g>
    <g id="xtick_6">
     <g id="line2d_6">
      <g>
       <use style="stroke:#000000;stroke-width:0.8;" x="276.130032" xlink:href="#m2aa6a2343e" y="307.584"/>
      </g>
     </g>
     <g id="text_6">
      <!-- 125 -->
      <g transform="translate(266.586282 322.182437)scale(0.1 -0.1)">
       <use xlink:href="#DejaVuSans-49"/>
       <use x="63.623047" xlink:href="#DejaVuSans-50"/>
       <use x="127.246094" xlink:href="#DejaVuSans-53"/>
      </g>
     </g>
    </g>
    <g id="xtick_7">
     <g id="line2d_7">
      <g>
       <use style="stroke:#000000;stroke-width:0.8;" x="316.915779" xlink:href="#m2aa6a2343e" y="307.584"/>
      </g>
     </g>
     <g id="text_7">
      <!-- 150 -->
      <g transform="translate(307.372029 322.182437)scale(0.1 -0.1)">
       <use xlink:href="#DejaVuSans-49"/>
       <use x="63.623047" xlink:href="#DejaVuSans-53"/>
       <use x="127.246094" xlink:href="#DejaVuSans-48"/>
      </g>
     </g>
    </g>
    <g id="xtick_8">
     <g id="line2d_8">
      <g>
       <use style="stroke:#000000;stroke-width:0.8;" x="357.701526" xlink:href="#m2aa6a2343e" y="307.584"/>
      </g>
     </g>
     <g id="text_8">
      <!-- 175 -->
      <g transform="translate(348.157776 322.182437)scale(0.1 -0.1)">
       <use xlink:href="#DejaVuSans-49"/>
       <use x="63.623047" xlink:href="#DejaVuSans-55"/>
       <use x="127.246094" xlink:href="#DejaVuSans-53"/>
      </g>
     </g>
    </g>
    <g id="xtick_9">
     <g id="line2d_9">
      <g>
       <use style="stroke:#000000;stroke-width:0.8;" x="398.487273" xlink:href="#m2aa6a2343e" y="307.584"/>
      </g>
     </g>
     <g id="text_9">
      <!-- 200 -->
      <g transform="translate(388.943523 322.182437)scale(0.1 -0.1)">
       <use xlink:href="#DejaVuSans-50"/>
       <use x="63.623047" xlink:href="#DejaVuSans-48"/>
       <use x="127.246094" xlink:href="#DejaVuSans-48"/>
      </g>
     </g>
    </g>
    <g id="text_10">
     <!-- Numero de tirada -->
     <g transform="translate(192.165469 335.860562)scale(0.1 -0.1)">
      <defs>
       <path d="M 9.8125 72.90625 
L 23.09375 72.90625 
L 55.421875 11.921875 
L 55.421875 72.90625 
L 64.984375 72.90625 
L 64.984375 0 
L 51.703125 0 
L 19.390625 60.984375 
L 19.390625 0 
L 9.8125 0 
z
" id="DejaVuSans-78"/>
       <path d="M 8.5 21.578125 
L 8.5 54.6875 
L 17.484375 54.6875 
L 17.484375 21.921875 
Q 17.484375 14.15625 20.5 10.265625 
Q 23.53125 6.390625 29.59375 6.390625 
Q 36.859375 6.390625 41.078125 11.03125 
Q 45.3125 15.671875 45.3125 23.6875 
L 45.3125 54.6875 
L 54.296875 54.6875 
L 54.296875 0 
L 45.3125 0 
L 45.3125 8.40625 
Q 42.046875 3.421875 37.71875 1 
Q 33.40625 -1.421875 27.6875 -1.421875 
Q 18.265625 -1.421875 13.375 4.4375 
Q 8.5 10.296875 8.5 21.578125 
z
M 31.109375 56 
z
" id="DejaVuSans-117"/>
       <path d="M 52 44.1875 
Q 55.375 50.25 60.0625 53.125 
Q 64.75 56 71.09375 56 
Q 79.640625 56 84.28125 50.015625 
Q 88.921875 44.046875 88.921875 33.015625 
L 88.921875 0 
L 79.890625 0 
L 79.890625 32.71875 
Q 79.890625 40.578125 77.09375 44.375 
Q 74.3125 48.1875 68.609375 48.1875 
Q 61.625 48.1875 57.5625 43.546875 
Q 53.515625 38.921875 53.515625 30.90625 
L 53.515625 0 
L 44.484375 0 
L 44.484375 32.71875 
Q 44.484375 40.625 41.703125 44.40625 
Q 38.921875 48.1875 33.109375 48.1875 
Q 26.21875 48.1875 22.15625 43.53125 
Q 18.109375 38.875 18.109375 30.90625 
L 18.109375 0 
L 9.078125 0 
L 9.078125 54.6875 
L 18.109375 54.6875 
L 18.109375 46.1875 
Q 21.1875 51.21875 25.484375 53.609375 
Q 29.78125 56 35.6875 56 
Q 41.65625 56 45.828125 52.96875 
Q 50 49.953125 52 44.1875 
z
" id="DejaVuSans-109"/>
       <path d="M 56.203125 29.59375 
L 56.203125 25.203125 
L 14.890625 25.203125 
Q 15.484375 15.921875 20.484375 11.0625 
Q 25.484375 6.203125 34.421875 6.203125 
Q 39.59375 6.203125 44.453125 7.46875 
Q 49.3125 8.734375 54.109375 11.28125 
L 54.109375 2.78125 
Q 49.265625 0.734375 44.1875 -0.34375 
Q 39.109375 -1.421875 33.890625 -1.421875 
Q 20.796875 -1.421875 13.15625 6.1875 
Q 5.515625 13.8125 5.515625 26.8125 
Q 5.515625 40.234375 12.765625 48.109375 
Q 20.015625 56 32.328125 56 
Q 43.359375 56 49.78125 48.890625 
Q 56.203125 41.796875 56.203125 29.59375 
z
M 47.21875 32.234375 
Q 47.125 39.59375 43.09375 43.984375 
Q 39.0625 48.390625 32.421875 48.390625 
Q 24.90625 48.390625 20.390625 44.140625 
Q 15.875 39.890625 15.1875 32.171875 
z
" id="DejaVuSans-101"/>
       <path d="M 41.109375 46.296875 
Q 39.59375 47.171875 37.8125 47.578125 
Q 36.03125 48 33.890625 48 
Q 26.265625 48 22.1875 43.046875 
Q 18.109375 38.09375 18.109375 28.8125 
L 18.109375 0 
L 9.078125 0 
L 9.078125 54.6875 
L 18.109375 54.6875 
L 18.109375 46.1875 
Q 20.953125 51.171875 25.484375 53.578125 
Q 30.03125 56 36.53125 56 
Q 37.453125 56 38.578125 55.875 
Q 39.703125 55.765625 41.0625 55.515625 
z
" id="DejaVuSans-114"/>
       <path d="M 30.609375 48.390625 
Q 23.390625 48.390625 19.1875 42.75 
Q 14.984375 37.109375 14.984375 27.296875 
Q 14.984375 17.484375 19.15625 11.84375 
Q 23.34375 6.203125 30.609375 6.203125 
Q 37.796875 6.203125 41.984375 11.859375 
Q 46.1875 17.53125 46.1875 27.296875 
Q 46.1875 37.015625 41.984375 42.703125 
Q 37.796875 48.390625 30.609375 48.390625 
z
M 30.609375 56 
Q 42.328125 56 49.015625 48.375 
Q 55.71875 40.765625 55.71875 27.296875 
Q 55.71875 13.875 49.015625 6.21875 
Q 42.328125 -1.421875 30.609375 -1.421875 
Q 18.84375 -1.421875 12.171875 6.21875 
Q 5.515625 13.875 5.515625 27.296875 
Q 5.515625 40.765625 12.171875 48.375 
Q 18.84375 56 30.609375 56 
z
" id="DejaVuSans-111"/>
       <path id="DejaVuSans-32"/>
       <path d="M 45.40625 46.390625 
L 45.40625 75.984375 
L 54.390625 75.984375 
L 54.390625 0 
L 45.40625 0 
L 45.40625 8.203125 
Q 42.578125 3.328125 38.25 0.953125 
Q 33.9375 -1.421875 27.875 -1.421875 
Q 17.96875 -1.421875 11.734375 6.484375 
Q 5.515625 14.40625 5.515625 27.296875 
Q 5.515625 40.1875 11.734375 48.09375 
Q 17.96875 56 27.875 56 
Q 33.9375 56 38.25 53.625 
Q 42.578125 51.265625 45.40625 46.390625 
z
M 14.796875 27.296875 
Q 14.796875 17.390625 18.875 11.75 
Q 22.953125 6.109375 30.078125 6.109375 
Q 37.203125 6.109375 41.296875 11.75 
Q 45.40625 17.390625 45.40625 27.296875 
Q 45.40625 37.203125 41.296875 42.84375 
Q 37.203125 48.484375 30.078125 48.484375 
Q 22.953125 48.484375 18.875 42.84375 
Q 14.796875 37.203125 14.796875 27.296875 
z
" id="DejaVuSans-100"/>
       <path d="M 18.3125 70.21875 
L 18.3125 54.6875 
L 36.8125 54.6875 
L 36.8125 47.703125 
L 18.3125 47.703125 
L 18.3125 18.015625 
Q 18.3125 11.328125 20.140625 9.421875 
Q 21.96875 7.515625 27.59375 7.515625 
L 36.8125 7.515625 
L 36.8125 0 
L 27.59375 0 
Q 17.1875 0 13.234375 3.875 
Q 9.28125 7.765625 9.28125 18.015625 
L 9.28125 47.703125 
L 2.6875 47.703125 
L 2.6875 54.6875 
L 9.28125 54.6875 
L 9.28125 70.21875 
z
" id="DejaVuSans-116"/>
       <path d="M 9.421875 54.6875 
L 18.40625 54.6875 
L 18.40625 0 
L 9.421875 0 
z
M 9.421875 75.984375 
L 18.40625 75.984375 
L 18.40625 64.59375 
L 9.421875 64.59375 
z
" id="DejaVuSans-105"/>
       <path d="M 34.28125 27.484375 
Q 23.390625 27.484375 19.1875 25 
Q 14.984375 22.515625 14.984375 16.5 
Q 14.984375 11.71875 18.140625 8.90625 
Q 21.296875 6.109375 26.703125 6.109375 
Q 34.1875 6.109375 38.703125 11.40625 
Q 43.21875 16.703125 43.21875 25.484375 
L 43.21875 27.484375 
z
M 52.203125 31.203125 
L 52.203125 0 
L 43.21875 0 
L 43.21875 8.296875 
Q 40.140625 3.328125 35.546875 0.953125 
Q 30.953125 -1.421875 24.3125 -1.421875 
Q 15.921875 -1.421875 10.953125 3.296875 
Q 6 8.015625 6 15.921875 
Q 6 25.140625 12.171875 29.828125 
Q 18.359375 34.515625 30.609375 34.515625 
L 43.21875 34.515625 
L 43.21875 35.40625 
Q 43.21875 41.609375 39.140625 45 
Q 35.0625 48.390625 27.6875 48.390625 
Q 23 48.390625 18.546875 47.265625 
Q 14.109375 46.140625 10.015625 43.890625 
L 10.015625 52.203125 
Q 14.9375 54.109375 19.578125 55.046875 
Q 24.21875 56 28.609375 56 
Q 40.484375 56 46.34375 49.84375 
Q 52.203125 43.703125 52.203125 31.203125 
z
" id="DejaVuSans-97"/>
      </defs>
      <use xlink:href="#DejaVuSans-78"/>
      <use x="74.804688" xlink:href="#DejaVuSans-117"/>
      <use x="138.183594" xlink:href="#DejaVuSans-109"/>
      <use x="235.595703" xlink:href="#DejaVuSans-101"/>
      <use x="297.119141" xlink:href="#DejaVuSans-114"/>
      <use x="335.982422" xlink:href="#DejaVuSans-111"/>
      <use x="397.164062" xlink:href="#DejaVuSans-32"/>
      <use x="428.951172" xlink:href="#DejaVuSans-100"/>
      <use x="492.427734" xlink:href="#DejaVuSans-101"/>
      <use x="553.951172" xlink:href="#DejaVuSans-32"/>
      <use x="585.738281" xlink:href="#DejaVuSans-116"/>
      <use x="624.947266" xlink:href="#DejaVuSans-105"/>
      <use x="652.730469" xlink:href="#DejaVuSans-114"/>
      <use x="693.84375" xlink:href="#DejaVuSans-97"/>
      <use x="755.123047" xlink:href="#DejaVuSans-100"/>
      <use x="818.599609" xlink:href="#DejaVuSans-97"/>
     </g>
    </g>
   </g>
   <g id="matplotlib.axis_2">
    <g id="ytick_1">
     <g id="line2d_10">
      <defs>
       <path d="M 0 0 
L -3.5 0 
" id="m8fdbdb1e10" style="stroke:#000000;stroke-width:0.8;"/>
      </defs>
      <g>
       <use style="stroke:#000000;stroke-width:0.8;" x="57.6" xlink:href="#m8fdbdb1e10" y="272.54731"/>
      </g>
     </g>
     <g id="text_11">
      <!-- 144000 -->
      <g transform="translate(12.425 276.346529)scale(0.1 -0.1)">
       <defs>
        <path d="M 37.796875 64.3125 
L 12.890625 25.390625 
L 37.796875 25.390625 
z
M 35.203125 72.90625 
L 47.609375 72.90625 
L 47.609375 25.390625 
L 58.015625 25.390625 
L 58.015625 17.1875 
L 47.609375 17.1875 
L 47.609375 0 
L 37.796875 0 
L 37.796875 17.1875 
L 4.890625 17.1875 
L 4.890625 26.703125 
z
" id="DejaVuSans-52"/>
       </defs>
       <use xlink:href="#DejaVuSans-49"/>
       <use x="63.623047" xlink:href="#DejaVuSans-52"/>
       <use x="127.246094" xlink:href="#DejaVuSans-52"/>
       <use x="190.869141" xlink:href="#DejaVuSans-48"/>
       <use x="254.492188" xlink:href="#DejaVuSans-48"/>
       <use x="318.115234" xlink:href="#DejaVuSans-48"/>
      </g>
     </g>
    </g>
    <g id="ytick_2">
     <g id="line2d_11">
      <g>
       <use style="stroke:#000000;stroke-width:0.8;" x="57.6" xlink:href="#m8fdbdb1e10" y="230.836966"/>
      </g>
     </g>
     <g id="text_12">
      <!-- 146000 -->
      <g transform="translate(12.425 234.636184)scale(0.1 -0.1)">
       <defs>
        <path d="M 33.015625 40.375 
Q 26.375 40.375 22.484375 35.828125 
Q 18.609375 31.296875 18.609375 23.390625 
Q 18.609375 15.53125 22.484375 10.953125 
Q 26.375 6.390625 33.015625 6.390625 
Q 39.65625 6.390625 43.53125 10.953125 
Q 47.40625 15.53125 47.40625 23.390625 
Q 47.40625 31.296875 43.53125 35.828125 
Q 39.65625 40.375 33.015625 40.375 
z
M 52.59375 71.296875 
L 52.59375 62.3125 
Q 48.875 64.0625 45.09375 64.984375 
Q 41.3125 65.921875 37.59375 65.921875 
Q 27.828125 65.921875 22.671875 59.328125 
Q 17.53125 52.734375 16.796875 39.40625 
Q 19.671875 43.65625 24.015625 45.921875 
Q 28.375 48.1875 33.59375 48.1875 
Q 44.578125 48.1875 50.953125 41.515625 
Q 57.328125 34.859375 57.328125 23.390625 
Q 57.328125 12.15625 50.6875 5.359375 
Q 44.046875 -1.421875 33.015625 -1.421875 
Q 20.359375 -1.421875 13.671875 8.265625 
Q 6.984375 17.96875 6.984375 36.375 
Q 6.984375 53.65625 15.1875 63.9375 
Q 23.390625 74.21875 37.203125 74.21875 
Q 40.921875 74.21875 44.703125 73.484375 
Q 48.484375 72.75 52.59375 71.296875 
z
" id="DejaVuSans-54"/>
       </defs>
       <use xlink:href="#DejaVuSans-49"/>
       <use x="63.623047" xlink:href="#DejaVuSans-52"/>
       <use x="127.246094" xlink:href="#DejaVuSans-54"/>
       <use x="190.869141" xlink:href="#DejaVuSans-48"/>
       <use x="254.492188" xlink:href="#DejaVuSans-48"/>
       <use x="318.115234" xlink:href="#DejaVuSans-48"/>
      </g>
     </g>
    </g>
    <g id="ytick_3">
     <g id="line2d_12">
      <g>
       <use style="stroke:#000000;stroke-width:0.8;" x="57.6" xlink:href="#m8fdbdb1e10" y="189.126621"/>
      </g>
     </g>
     <g id="text_13">
      <!-- 148000 -->
      <g transform="translate(12.425 192.925839)scale(0.1 -0.1)">
       <defs>
        <path d="M 31.78125 34.625 
Q 24.75 34.625 20.71875 30.859375 
Q 16.703125 27.09375 16.703125 20.515625 
Q 16.703125 13.921875 20.71875 10.15625 
Q 24.75 6.390625 31.78125 6.390625 
Q 38.8125 6.390625 42.859375 10.171875 
Q 46.921875 13.96875 46.921875 20.515625 
Q 46.921875 27.09375 42.890625 30.859375 
Q 38.875 34.625 31.78125 34.625 
z
M 21.921875 38.8125 
Q 15.578125 40.375 12.03125 44.71875 
Q 8.5 49.078125 8.5 55.328125 
Q 8.5 64.0625 14.71875 69.140625 
Q 20.953125 74.21875 31.78125 74.21875 
Q 42.671875 74.21875 48.875 69.140625 
Q 55.078125 64.0625 55.078125 55.328125 
Q 55.078125 49.078125 51.53125 44.71875 
Q 48 40.375 41.703125 38.8125 
Q 48.828125 37.15625 52.796875 32.3125 
Q 56.78125 27.484375 56.78125 20.515625 
Q 56.78125 9.90625 50.3125 4.234375 
Q 43.84375 -1.421875 31.78125 -1.421875 
Q 19.734375 -1.421875 13.25 4.234375 
Q 6.78125 9.90625 6.78125 20.515625 
Q 6.78125 27.484375 10.78125 32.3125 
Q 14.796875 37.15625 21.921875 38.8125 
z
M 18.3125 54.390625 
Q 18.3125 48.734375 21.84375 45.5625 
Q 25.390625 42.390625 31.78125 42.390625 
Q 38.140625 42.390625 41.71875 45.5625 
Q 45.3125 48.734375 45.3125 54.390625 
Q 45.3125 60.0625 41.71875 63.234375 
Q 38.140625 66.40625 31.78125 66.40625 
Q 25.390625 66.40625 21.84375 63.234375 
Q 18.3125 60.0625 18.3125 54.390625 
z
" id="DejaVuSans-56"/>
       </defs>
       <use xlink:href="#DejaVuSans-49"/>
       <use x="63.623047" xlink:href="#DejaVuSans-52"/>
       <use x="127.246094" xlink:href="#DejaVuSans-56"/>
       <use x="190.869141" xlink:href="#DejaVuSans-48"/>
       <use x="254.492188" xlink:href="#DejaVuSans-48"/>
       <use x="318.115234" xlink:href="#DejaVuSans-48"/>
      </g>
     </g>
    </g>
    <g id="ytick_4">
     <g id="line2d_13">
      <g>
       <use style="stroke:#000000;stroke-width:0.8;" x="57.6" xlink:href="#m8fdbdb1e10" y="147.416276"/>
      </g>
     </g>
     <g id="text_14">
      <!-- 150000 -->
      <g transform="translate(12.425 151.215495)scale(0.1 -0.1)">
       <use xlink:href="#DejaVuSans-49"/>
       <use x="63.623047" xlink:href="#DejaVuSans-53"/>
       <use x="127.246094" xlink:href="#DejaVuSans-48"/>
       <use x="190.869141" xlink:href="#DejaVuSans-48"/>
       <use x="254.492188" xlink:href="#DejaVuSans-48"/>
       <use x="318.115234" xlink:href="#DejaVuSans-48"/>
      </g>
     </g>
    </g>
    <g id="ytick_5">
     <g id="line2d_14">
      <g>
       <use style="stroke:#000000;stroke-width:0.8;" x="57.6" xlink:href="#m8fdbdb1e10" y="105.705931"/>
      </g>
     </g>
     <g id="text_15">
      <!-- 152000 -->
      <g transform="translate(12.425 109.50515)scale(0.1 -0.1)">
       <use xlink:href="#DejaVuSans-49"/>
       <use x="63.623047" xlink:href="#DejaVuSans-53"/>
       <use x="127.246094" xlink:href="#DejaVuSans-50"/>
       <use x="190.869141" xlink:href="#DejaVuSans-48"/>
       <use x="254.492188" xlink:href="#DejaVuSans-48"/>
       <use x="318.115234" xlink:href="#DejaVuSans-48"/>
      </g>
     </g>
    </g>
    <g id="ytick_6">
     <g id="line2d_15">
      <g>
       <use style="stroke:#000000;stroke-width:0.8;" x="57.6" xlink:href="#m8fdbdb1e10" y="63.995586"/>
      </g>
     </g>
     <g id="text_16">
      <!-- 154000 -->
      <g transform="translate(12.425 67.794805)scale(0.1 -0.1)">
       <use xlink:href="#DejaVuSans-49"/>
       <use x="63.623047" xlink:href="#DejaVuSans-53"/>
       <use x="127.246094" xlink:href="#DejaVuSans-52"/>
       <use x="190.869141" xlink:href="#DejaVuSans-48"/>
       <use x="254.492188" xlink:href="#DejaVuSans-48"/>
       <use x="318.115234" xlink:href="#DejaVuSans-48"/>
      </g>
     </g>
    </g>
    <g id="text_17">
     <!-- Fondo en $ -->
     <g transform="translate(6.345312 202.288938)rotate(-90)scale(0.1 -0.1)">
      <defs>
       <path d="M 9.8125 72.90625 
L 51.703125 72.90625 
L 51.703125 64.59375 
L 19.671875 64.59375 
L 19.671875 43.109375 
L 48.578125 43.109375 
L 48.578125 34.8125 
L 19.671875 34.8125 
L 19.671875 0 
L 9.8125 0 
z
" id="DejaVuSans-70"/>
       <path d="M 54.890625 33.015625 
L 54.890625 0 
L 45.90625 0 
L 45.90625 32.71875 
Q 45.90625 40.484375 42.875 44.328125 
Q 39.84375 48.1875 33.796875 48.1875 
Q 26.515625 48.1875 22.3125 43.546875 
Q 18.109375 38.921875 18.109375 30.90625 
L 18.109375 0 
L 9.078125 0 
L 9.078125 54.6875 
L 18.109375 54.6875 
L 18.109375 46.1875 
Q 21.34375 51.125 25.703125 53.5625 
Q 30.078125 56 35.796875 56 
Q 45.21875 56 50.046875 50.171875 
Q 54.890625 44.34375 54.890625 33.015625 
z
" id="DejaVuSans-110"/>
       <path d="M 33.796875 -14.703125 
L 28.90625 -14.703125 
L 28.859375 0 
Q 23.734375 0.09375 18.609375 1.1875 
Q 13.484375 2.296875 8.296875 4.5 
L 8.296875 13.28125 
Q 13.28125 10.15625 18.375 8.5625 
Q 23.484375 6.984375 28.90625 6.9375 
L 28.90625 29.203125 
Q 18.109375 30.953125 13.203125 35.15625 
Q 8.296875 39.359375 8.296875 46.6875 
Q 8.296875 54.640625 13.625 59.21875 
Q 18.953125 63.8125 28.90625 64.5 
L 28.90625 75.984375 
L 33.796875 75.984375 
L 33.796875 64.65625 
Q 38.328125 64.453125 42.578125 63.6875 
Q 46.828125 62.9375 50.875 61.625 
L 50.875 53.078125 
Q 46.828125 55.125 42.546875 56.25 
Q 38.28125 57.375 33.796875 57.5625 
L 33.796875 36.71875 
Q 44.875 35.015625 50.09375 30.609375 
Q 55.328125 26.21875 55.328125 18.609375 
Q 55.328125 10.359375 49.78125 5.59375 
Q 44.234375 0.828125 33.796875 0.09375 
z
M 28.90625 37.59375 
L 28.90625 57.625 
Q 23.25 56.984375 20.265625 54.390625 
Q 17.28125 51.8125 17.28125 47.515625 
Q 17.28125 43.3125 20.03125 40.96875 
Q 22.796875 38.625 28.90625 37.59375 
z
M 33.796875 28.21875 
L 33.796875 7.078125 
Q 39.984375 7.90625 43.140625 10.59375 
Q 46.296875 13.28125 46.296875 17.671875 
Q 46.296875 21.96875 43.28125 24.5 
Q 40.28125 27.046875 33.796875 28.21875 
z
" id="DejaVuSans-36"/>
      </defs>
      <use xlink:href="#DejaVuSans-70"/>
      <use x="53.894531" xlink:href="#DejaVuSans-111"/>
      <use x="115.076172" xlink:href="#DejaVuSans-110"/>
      <use x="178.455078" xlink:href="#DejaVuSans-100"/>
      <use x="241.931641" xlink:href="#DejaVuSans-111"/>
      <use x="303.113281" xlink:href="#DejaVuSans-32"/>
      <use x="334.900391" xlink:href="#DejaVuSans-101"/>
      <use x="396.423828" xlink:href="#DejaVuSans-110"/>
      <use x="459.802734" xlink:href="#DejaVuSans-32"/>
      <use x="491.589844" xlink:href="#DejaVuSans-36"/>
     </g>
    </g>
   </g>
   <g id="line2d_16">
    <path clip-path="url(#p441ccbbeb7)" d="M 73.832727 143.245241 
L 77.095587 134.903172 
L 80.358447 139.074207 
L 85.252736 126.561103 
L 91.778456 134.903172 
L 96.672746 122.390069 
L 98.304175 124.475586 
L 101.567035 116.133517 
L 103.198465 118.219034 
L 104.829895 114.048 
L 106.461325 116.133517 
L 111.355614 103.620414 
L 114.618474 107.791448 
L 117.881334 99.449379 
L 124.407053 107.791448 
L 129.301343 95.278345 
L 132.564203 99.449379 
L 134.195633 95.278345 
L 140.721352 103.620414 
L 143.984212 95.278345 
L 150.509931 103.620414 
L 152.141361 99.449379 
L 153.772791 101.534897 
L 155.404221 97.363862 
L 158.667081 101.534897 
L 160.298511 97.363862 
L 168.45566 107.791448 
L 170.08709 103.620414 
L 178.244239 114.048 
L 179.875669 109.876966 
L 181.507099 111.962483 
L 183.138529 107.791448 
L 189.664249 116.133517 
L 192.927108 107.791448 
L 194.558538 109.876966 
L 197.821398 101.534897 
L 201.084258 105.705931 
L 205.978547 93.192828 
L 214.135697 103.620414 
L 215.767127 99.449379 
L 217.398556 101.534897 
L 220.661416 93.192828 
L 225.555706 99.449379 
L 227.187136 95.278345 
L 235.344285 105.705931 
L 240.238575 93.192828 
L 243.501434 97.363862 
L 245.132864 93.192828 
L 254.921444 105.705931 
L 258.184303 97.363862 
L 259.815733 99.449379 
L 264.710023 86.936276 
L 266.341453 89.021793 
L 269.604312 80.679724 
L 277.761462 91.10731 
L 282.655751 78.594207 
L 284.287181 80.679724 
L 285.918611 76.50869 
L 287.550041 78.594207 
L 292.444331 66.081103 
L 294.075761 68.166621 
L 297.33862 59.824552 
L 298.97005 61.910069 
L 302.23291 53.568 
L 312.021489 66.081103 
L 313.652919 61.910069 
L 315.284349 63.995586 
L 316.915779 59.824552 
L 323.441498 68.166621 
L 326.704358 59.824552 
L 328.335788 61.910069 
L 331.598648 53.568 
L 336.492937 59.824552 
L 338.124367 55.653517 
L 341.387227 59.824552 
L 343.018657 55.653517 
L 349.544376 63.995586 
L 351.175806 59.824552 
L 354.438666 63.995586 
L 356.070096 59.824552 
L 367.490105 74.423172 
L 369.121535 70.252138 
L 378.910114 82.765241 
L 383.804404 70.252138 
L 385.435834 72.337655 
L 387.067264 68.166621 
L 396.855843 80.679724 
L 398.487273 76.50869 
L 398.487273 76.50869 
" style="fill:none;stroke:#1f77b4;stroke-linecap:square;stroke-width:1.5;"/>
   </g>
   <g id="line2d_17">
    <path clip-path="url(#p441ccbbeb7)" d="M 73.832727 149.501793 
L 75.464157 145.330759 
L 80.358447 151.58731 
L 81.989877 147.416276 
L 85.252736 151.58731 
L 86.884166 147.416276 
L 93.409886 155.758345 
L 96.672746 147.416276 
L 101.567035 153.672828 
L 104.829895 145.330759 
L 108.092755 149.501793 
L 111.355614 141.159724 
L 112.987044 143.245241 
L 116.249904 134.903172 
L 124.407053 145.330759 
L 126.038483 141.159724 
L 129.301343 145.330759 
L 130.932773 141.159724 
L 134.195633 145.330759 
L 137.458492 136.98869 
L 142.352782 143.245241 
L 143.984212 139.074207 
L 150.509931 147.416276 
L 152.141361 143.245241 
L 153.772791 145.330759 
L 155.404221 141.159724 
L 157.035651 143.245241 
L 160.298511 134.903172 
L 188.032819 170.356966 
L 189.664249 166.185931 
L 191.295678 168.271448 
L 192.927108 164.100414 
L 196.189968 168.271448 
L 197.821398 164.100414 
L 199.452828 166.185931 
L 201.084258 162.014897 
L 217.398556 182.870069 
L 219.029986 178.699034 
L 223.924276 184.955586 
L 225.555706 180.784552 
L 228.818566 184.955586 
L 230.449995 180.784552 
L 233.712855 184.955586 
L 235.344285 180.784552 
L 238.607145 184.955586 
L 240.238575 180.784552 
L 243.501434 184.955586 
L 250.027154 168.271448 
L 253.290014 172.442483 
L 256.552873 164.100414 
L 258.184303 166.185931 
L 259.815733 162.014897 
L 263.078593 166.185931 
L 264.710023 162.014897 
L 267.972883 166.185931 
L 274.498602 149.501793 
L 277.761462 153.672828 
L 279.392892 149.501793 
L 282.655751 153.672828 
L 284.287181 149.501793 
L 285.918611 151.58731 
L 289.181471 143.245241 
L 290.812901 145.330759 
L 292.444331 141.159724 
L 302.23291 153.672828 
L 303.86434 149.501793 
L 310.390059 157.843862 
L 312.021489 153.672828 
L 316.915779 159.929379 
L 318.547209 155.758345 
L 320.178639 157.843862 
L 321.810069 153.672828 
L 329.967218 164.100414 
L 331.598648 159.929379 
L 341.387227 172.442483 
L 343.018657 168.271448 
L 347.912947 174.528 
L 349.544376 170.356966 
L 351.175806 172.442483 
L 352.807236 168.271448 
L 354.438666 170.356966 
L 356.070096 166.185931 
L 357.701526 168.271448 
L 359.332956 164.100414 
L 362.595815 168.271448 
L 364.227245 164.100414 
L 365.858675 166.185931 
L 367.490105 162.014897 
L 388.698693 189.126621 
L 390.330123 184.955586 
L 395.224413 191.212138 
L 396.855843 187.041103 
L 398.487273 189.126621 
L 398.487273 189.126621 
" style="fill:none;stroke:#ff7f0e;stroke-linecap:square;stroke-width:1.5;"/>
   </g>
   <g id="line2d_18">
    <path clip-path="url(#p441ccbbeb7)" d="M 73.832727 143.245241 
L 77.095587 147.416276 
L 78.727017 143.245241 
L 80.358447 145.330759 
L 81.989877 141.159724 
L 85.252736 145.330759 
L 88.515596 136.98869 
L 99.935605 151.58731 
L 101.567035 147.416276 
L 103.198465 149.501793 
L 104.829895 145.330759 
L 109.724185 151.58731 
L 111.355614 147.416276 
L 116.249904 153.672828 
L 117.881334 149.501793 
L 122.775624 155.758345 
L 124.407053 151.58731 
L 130.932773 159.929379 
L 134.195633 151.58731 
L 137.458492 155.758345 
L 143.984212 139.074207 
L 153.772791 151.58731 
L 157.035651 143.245241 
L 165.1928 153.672828 
L 166.82423 149.501793 
L 170.08709 153.672828 
L 174.98138 141.159724 
L 186.401389 155.758345 
L 188.032819 151.58731 
L 191.295678 155.758345 
L 192.927108 151.58731 
L 197.821398 157.843862 
L 199.452828 153.672828 
L 204.347117 159.929379 
L 207.609977 151.58731 
L 209.241407 153.672828 
L 212.504267 145.330759 
L 219.029986 153.672828 
L 222.292846 145.330759 
L 223.924276 147.416276 
L 225.555706 143.245241 
L 238.607145 159.929379 
L 240.238575 155.758345 
L 245.132864 162.014897 
L 246.764294 157.843862 
L 250.027154 162.014897 
L 256.552873 145.330759 
L 263.078593 153.672828 
L 264.710023 149.501793 
L 266.341453 151.58731 
L 267.972883 147.416276 
L 271.235742 151.58731 
L 272.867172 147.416276 
L 276.130032 151.58731 
L 279.392892 143.245241 
L 281.024322 145.330759 
L 282.655751 141.159724 
L 285.918611 145.330759 
L 289.181471 136.98869 
L 297.33862 147.416276 
L 298.97005 143.245241 
L 305.49577 151.58731 
L 308.75863 143.245241 
L 312.021489 147.416276 
L 313.652919 143.245241 
L 318.547209 149.501793 
L 320.178639 145.330759 
L 325.072928 151.58731 
L 326.704358 147.416276 
L 329.967218 151.58731 
L 331.598648 147.416276 
L 333.230078 149.501793 
L 334.861508 145.330759 
L 336.492937 147.416276 
L 339.755797 139.074207 
L 341.387227 141.159724 
L 343.018657 136.98869 
L 344.650087 139.074207 
L 346.281517 134.903172 
L 351.175806 141.159724 
L 352.807236 136.98869 
L 354.438666 139.074207 
L 356.070096 134.903172 
L 369.121535 151.58731 
L 374.015825 139.074207 
L 375.647254 141.159724 
L 377.278684 136.98869 
L 378.910114 139.074207 
L 380.541544 134.903172 
L 383.804404 139.074207 
L 385.435834 134.903172 
L 398.487273 151.58731 
L 398.487273 151.58731 
" style="fill:none;stroke:#2ca02c;stroke-linecap:square;stroke-width:1.5;"/>
   </g>
   <g id="line2d_19">
    <path clip-path="url(#p441ccbbeb7)" d="M 73.832727 149.501793 
L 75.464157 145.330759 
L 98.304175 174.528 
L 103.198465 162.014897 
L 108.092755 168.271448 
L 109.724185 164.100414 
L 111.355614 166.185931 
L 116.249904 153.672828 
L 137.458492 180.784552 
L 139.089922 176.613517 
L 140.721352 178.699034 
L 142.352782 174.528 
L 145.615642 178.699034 
L 148.878502 170.356966 
L 153.772791 176.613517 
L 155.404221 172.442483 
L 168.45566 189.126621 
L 170.08709 184.955586 
L 183.138529 201.639724 
L 184.769959 197.46869 
L 191.295678 205.810759 
L 194.558538 197.46869 
L 207.609977 214.152828 
L 209.241407 209.981793 
L 215.767127 218.323862 
L 217.398556 214.152828 
L 222.292846 220.409379 
L 223.924276 216.238345 
L 225.555706 218.323862 
L 230.449995 205.810759 
L 232.081425 207.896276 
L 233.712855 203.725241 
L 236.975715 207.896276 
L 238.607145 203.725241 
L 254.921444 224.580414 
L 259.815733 212.06731 
L 263.078593 216.238345 
L 264.710023 212.06731 
L 272.867172 222.494897 
L 274.498602 218.323862 
L 289.181471 237.093517 
L 290.812901 232.922483 
L 294.075761 237.093517 
L 295.70719 232.922483 
L 302.23291 241.264552 
L 305.49577 232.922483 
L 313.652919 243.350069 
L 315.284349 239.179034 
L 318.547209 243.350069 
L 321.810069 235.008 
L 325.072928 239.179034 
L 328.335788 230.836966 
L 339.755797 245.435586 
L 341.387227 241.264552 
L 364.227245 270.461793 
L 367.490105 262.119724 
L 377.278684 274.632828 
L 378.910114 270.461793 
L 398.487273 295.488 
L 398.487273 295.488 
" style="fill:none;stroke:#d62728;stroke-linecap:square;stroke-width:1.5;"/>
   </g>
   <g id="line2d_20">
    <path clip-path="url(#p441ccbbeb7)" d="M 73.832727 149.501793 
L 75.464157 145.330759 
L 80.358447 151.58731 
L 81.989877 147.416276 
L 93.409886 162.014897 
L 95.041316 157.843862 
L 106.461325 172.442483 
L 108.092755 168.271448 
L 109.724185 170.356966 
L 111.355614 166.185931 
L 112.987044 168.271448 
L 114.618474 164.100414 
L 117.881334 168.271448 
L 119.512764 164.100414 
L 132.564203 180.784552 
L 134.195633 176.613517 
L 135.827063 178.699034 
L 137.458492 174.528 
L 148.878502 189.126621 
L 150.509931 184.955586 
L 152.141361 187.041103 
L 153.772791 182.870069 
L 155.404221 184.955586 
L 160.298511 172.442483 
L 161.929941 174.528 
L 163.56137 170.356966 
L 166.82423 174.528 
L 168.45566 170.356966 
L 170.08709 172.442483 
L 171.71852 168.271448 
L 178.244239 176.613517 
L 179.875669 172.442483 
L 186.401389 180.784552 
L 189.664249 172.442483 
L 192.927108 176.613517 
L 194.558538 172.442483 
L 205.978547 187.041103 
L 207.609977 182.870069 
L 212.504267 189.126621 
L 214.135697 184.955586 
L 215.767127 187.041103 
L 219.029986 178.699034 
L 220.661416 180.784552 
L 222.292846 176.613517 
L 223.924276 178.699034 
L 227.187136 170.356966 
L 228.818566 172.442483 
L 233.712855 159.929379 
L 240.238575 168.271448 
L 241.870005 164.100414 
L 248.395724 172.442483 
L 251.658584 164.100414 
L 254.921444 168.271448 
L 258.184303 159.929379 
L 261.447163 164.100414 
L 264.710023 155.758345 
L 269.604312 162.014897 
L 272.867172 153.672828 
L 282.655751 166.185931 
L 284.287181 162.014897 
L 294.075761 174.528 
L 297.33862 166.185931 
L 300.60148 170.356966 
L 302.23291 166.185931 
L 315.284349 182.870069 
L 316.915779 178.699034 
L 320.178639 182.870069 
L 323.441498 174.528 
L 336.492937 191.212138 
L 343.018657 174.528 
L 349.544376 182.870069 
L 351.175806 178.699034 
L 354.438666 182.870069 
L 356.070096 178.699034 
L 359.332956 182.870069 
L 362.595815 174.528 
L 369.121535 182.870069 
L 375.647254 166.185931 
L 385.435834 178.699034 
L 387.067264 174.528 
L 390.330123 178.699034 
L 391.961553 174.528 
L 398.487273 182.870069 
L 398.487273 182.870069 
" style="fill:none;stroke:#9467bd;stroke-linecap:square;stroke-width:1.5;"/>
   </g>
   <g id="line2d_21">
    <path clip-path="url(#p441ccbbeb7)" d="M 73.832727 149.501793 
L 75.464157 145.330759 
L 77.095587 147.416276 
L 78.727017 143.245241 
L 80.358447 145.330759 
L 83.621307 136.98869 
L 86.884166 141.159724 
L 90.147026 132.817655 
L 99.935605 145.330759 
L 103.198465 136.98869 
L 106.461325 141.159724 
L 108.092755 136.98869 
L 132.564203 168.271448 
L 140.721352 147.416276 
L 142.352782 149.501793 
L 143.984212 145.330759 
L 145.615642 147.416276 
L 147.247072 143.245241 
L 150.509931 147.416276 
L 153.772791 139.074207 
L 155.404221 141.159724 
L 157.035651 136.98869 
L 165.1928 147.416276 
L 166.82423 143.245241 
L 170.08709 147.416276 
L 171.71852 143.245241 
L 178.244239 151.58731 
L 179.875669 147.416276 
L 183.138529 151.58731 
L 184.769959 147.416276 
L 188.032819 151.58731 
L 189.664249 147.416276 
L 194.558538 153.672828 
L 196.189968 149.501793 
L 197.821398 151.58731 
L 202.715688 139.074207 
L 204.347117 141.159724 
L 205.978547 136.98869 
L 210.872837 143.245241 
L 214.135697 134.903172 
L 219.029986 141.159724 
L 220.661416 136.98869 
L 230.449995 149.501793 
L 233.712855 141.159724 
L 235.344285 143.245241 
L 238.607145 134.903172 
L 246.764294 145.330759 
L 248.395724 141.159724 
L 266.341453 164.100414 
L 269.604312 155.758345 
L 281.024322 170.356966 
L 284.287181 162.014897 
L 285.918611 164.100414 
L 289.181471 155.758345 
L 292.444331 159.929379 
L 295.70719 151.58731 
L 298.97005 155.758345 
L 300.60148 151.58731 
L 303.86434 155.758345 
L 305.49577 151.58731 
L 307.1272 153.672828 
L 308.75863 149.501793 
L 313.652919 155.758345 
L 315.284349 151.58731 
L 321.810069 159.929379 
L 323.441498 155.758345 
L 325.072928 157.843862 
L 326.704358 153.672828 
L 329.967218 157.843862 
L 331.598648 153.672828 
L 336.492937 159.929379 
L 338.124367 155.758345 
L 347.912947 168.271448 
L 351.175806 159.929379 
L 354.438666 164.100414 
L 357.701526 155.758345 
L 360.964386 159.929379 
L 362.595815 155.758345 
L 365.858675 159.929379 
L 367.490105 155.758345 
L 370.752965 159.929379 
L 372.384395 155.758345 
L 375.647254 159.929379 
L 377.278684 155.758345 
L 380.541544 159.929379 
L 382.172974 155.758345 
L 390.330123 166.185931 
L 393.592983 157.843862 
L 395.224413 159.929379 
L 398.487273 151.58731 
L 398.487273 151.58731 
" style="fill:none;stroke:#8c564b;stroke-linecap:square;stroke-width:1.5;"/>
   </g>
   <g id="line2d_22">
    <path clip-path="url(#p441ccbbeb7)" d="M 73.832727 149.501793 
L 75.464157 151.58731 
L 77.095587 147.416276 
L 81.989877 153.672828 
L 86.884166 141.159724 
L 95.041316 151.58731 
L 96.672746 147.416276 
L 109.724185 164.100414 
L 112.987044 155.758345 
L 122.775624 168.271448 
L 124.407053 164.100414 
L 130.932773 172.442483 
L 135.827063 159.929379 
L 137.458492 162.014897 
L 142.352782 149.501793 
L 143.984212 151.58731 
L 145.615642 147.416276 
L 150.509931 153.672828 
L 153.772791 145.330759 
L 157.035651 149.501793 
L 158.667081 145.330759 
L 171.71852 162.014897 
L 173.34995 157.843862 
L 174.98138 159.929379 
L 176.61281 155.758345 
L 181.507099 162.014897 
L 183.138529 157.843862 
L 184.769959 159.929379 
L 191.295678 143.245241 
L 207.609977 164.100414 
L 210.872837 155.758345 
L 214.135697 159.929379 
L 215.767127 155.758345 
L 219.029986 159.929379 
L 220.661416 155.758345 
L 227.187136 164.100414 
L 228.818566 159.929379 
L 230.449995 162.014897 
L 232.081425 157.843862 
L 233.712855 159.929379 
L 235.344285 155.758345 
L 238.607145 159.929379 
L 240.238575 155.758345 
L 261.447163 182.870069 
L 264.710023 174.528 
L 269.604312 180.784552 
L 271.235742 176.613517 
L 272.867172 178.699034 
L 274.498602 174.528 
L 276.130032 176.613517 
L 281.024322 164.100414 
L 282.655751 166.185931 
L 284.287181 162.014897 
L 285.918611 164.100414 
L 287.550041 159.929379 
L 295.70719 170.356966 
L 297.33862 166.185931 
L 302.23291 172.442483 
L 303.86434 168.271448 
L 305.49577 170.356966 
L 307.1272 166.185931 
L 310.390059 170.356966 
L 313.652919 162.014897 
L 328.335788 180.784552 
L 329.967218 176.613517 
L 333.230078 180.784552 
L 338.124367 168.271448 
L 346.281517 178.699034 
L 347.912947 174.528 
L 349.544376 176.613517 
L 351.175806 172.442483 
L 354.438666 176.613517 
L 356.070096 172.442483 
L 359.332956 176.613517 
L 360.964386 172.442483 
L 364.227245 176.613517 
L 367.490105 168.271448 
L 369.121535 170.356966 
L 370.752965 166.185931 
L 387.067264 187.041103 
L 388.698693 182.870069 
L 391.961553 187.041103 
L 393.592983 182.870069 
L 395.224413 184.955586 
L 396.855843 180.784552 
L 398.487273 182.870069 
L 398.487273 182.870069 
" style="fill:none;stroke:#e377c2;stroke-linecap:square;stroke-width:1.5;"/>
   </g>
   <g id="line2d_23">
    <path clip-path="url(#p441ccbbeb7)" d="M 73.832727 149.501793 
L 77.095587 153.672828 
L 78.727017 149.501793 
L 80.358447 151.58731 
L 81.989877 147.416276 
L 83.621307 149.501793 
L 85.252736 145.330759 
L 93.409886 155.758345 
L 95.041316 151.58731 
L 98.304175 155.758345 
L 99.935605 151.58731 
L 103.198465 155.758345 
L 104.829895 151.58731 
L 106.461325 153.672828 
L 111.355614 141.159724 
L 117.881334 149.501793 
L 124.407053 132.817655 
L 140.721352 153.672828 
L 145.615642 141.159724 
L 148.878502 145.330759 
L 150.509931 141.159724 
L 160.298511 153.672828 
L 163.56137 145.330759 
L 166.82423 149.501793 
L 170.08709 141.159724 
L 176.61281 149.501793 
L 178.244239 145.330759 
L 181.507099 149.501793 
L 184.769959 141.159724 
L 186.401389 143.245241 
L 189.664249 134.903172 
L 194.558538 141.159724 
L 199.452828 128.646621 
L 201.084258 130.732138 
L 202.715688 126.561103 
L 212.504267 139.074207 
L 214.135697 134.903172 
L 220.661416 143.245241 
L 222.292846 139.074207 
L 223.924276 141.159724 
L 230.449995 124.475586 
L 235.344285 130.732138 
L 236.975715 126.561103 
L 241.870005 132.817655 
L 245.132864 124.475586 
L 248.395724 128.646621 
L 250.027154 124.475586 
L 251.658584 126.561103 
L 253.290014 122.390069 
L 258.184303 128.646621 
L 259.815733 124.475586 
L 269.604312 136.98869 
L 272.867172 128.646621 
L 285.918611 145.330759 
L 289.181471 136.98869 
L 292.444331 141.159724 
L 294.075761 136.98869 
L 297.33862 141.159724 
L 300.60148 132.817655 
L 302.23291 134.903172 
L 303.86434 130.732138 
L 305.49577 132.817655 
L 308.75863 124.475586 
L 312.021489 128.646621 
L 313.652919 124.475586 
L 325.072928 139.074207 
L 328.335788 130.732138 
L 329.967218 132.817655 
L 331.598648 128.646621 
L 333.230078 130.732138 
L 334.861508 126.561103 
L 341.387227 134.903172 
L 344.650087 126.561103 
L 349.544376 132.817655 
L 354.438666 120.304552 
L 357.701526 124.475586 
L 359.332956 120.304552 
L 360.964386 122.390069 
L 362.595815 118.219034 
L 374.015825 132.817655 
L 375.647254 128.646621 
L 383.804404 139.074207 
L 385.435834 134.903172 
L 391.961553 143.245241 
L 393.592983 139.074207 
L 398.487273 145.330759 
L 398.487273 145.330759 
" style="fill:none;stroke:#7f7f7f;stroke-linecap:square;stroke-width:1.5;"/>
   </g>
   <g id="line2d_24">
    <path clip-path="url(#p441ccbbeb7)" d="M 73.832727 143.245241 
L 75.464157 145.330759 
L 78.727017 136.98869 
L 86.884166 147.416276 
L 88.515596 143.245241 
L 95.041316 151.58731 
L 96.672746 147.416276 
L 103.198465 155.758345 
L 104.829895 151.58731 
L 109.724185 157.843862 
L 111.355614 153.672828 
L 117.881334 162.014897 
L 122.775624 149.501793 
L 132.564203 162.014897 
L 134.195633 157.843862 
L 135.827063 159.929379 
L 137.458492 155.758345 
L 152.141361 174.528 
L 155.404221 166.185931 
L 174.98138 191.212138 
L 176.61281 187.041103 
L 179.875669 191.212138 
L 181.507099 187.041103 
L 184.769959 191.212138 
L 188.032819 182.870069 
L 189.664249 184.955586 
L 192.927108 176.613517 
L 194.558538 178.699034 
L 197.821398 170.356966 
L 202.715688 176.613517 
L 204.347117 172.442483 
L 217.398556 189.126621 
L 219.029986 184.955586 
L 222.292846 189.126621 
L 223.924276 184.955586 
L 227.187136 189.126621 
L 228.818566 184.955586 
L 233.712855 191.212138 
L 235.344285 187.041103 
L 238.607145 191.212138 
L 241.870005 182.870069 
L 248.395724 191.212138 
L 250.027154 187.041103 
L 261.447163 201.639724 
L 263.078593 197.46869 
L 271.235742 207.896276 
L 272.867172 203.725241 
L 279.392892 212.06731 
L 282.655751 203.725241 
L 285.918611 207.896276 
L 289.181471 199.554207 
L 294.075761 205.810759 
L 300.60148 189.126621 
L 307.1272 197.46869 
L 308.75863 193.297655 
L 310.390059 195.383172 
L 312.021489 191.212138 
L 323.441498 205.810759 
L 325.072928 201.639724 
L 333.230078 212.06731 
L 336.492937 203.725241 
L 339.755797 207.896276 
L 341.387227 203.725241 
L 346.281517 209.981793 
L 349.544376 201.639724 
L 354.438666 207.896276 
L 356.070096 203.725241 
L 357.701526 205.810759 
L 364.227245 189.126621 
L 367.490105 193.297655 
L 370.752965 184.955586 
L 374.015825 189.126621 
L 375.647254 184.955586 
L 377.278684 187.041103 
L 378.910114 182.870069 
L 382.172974 187.041103 
L 383.804404 182.870069 
L 398.487273 201.639724 
L 398.487273 201.639724 
" style="fill:none;stroke:#bcbd22;stroke-linecap:square;stroke-width:1.5;"/>
   </g>
   <g id="line2d_25">
    <path clip-path="url(#p441ccbbeb7)" d="M 73.832727 143.245241 
L 75.464157 145.330759 
L 77.095587 141.159724 
L 86.884166 153.672828 
L 88.515596 149.501793 
L 91.778456 153.672828 
L 93.409886 149.501793 
L 98.304175 155.758345 
L 103.198465 143.245241 
L 111.355614 153.672828 
L 114.618474 145.330759 
L 129.301343 164.100414 
L 130.932773 159.929379 
L 139.089922 170.356966 
L 142.352782 162.014897 
L 155.404221 178.699034 
L 157.035651 174.528 
L 158.667081 176.613517 
L 161.929941 168.271448 
L 163.56137 170.356966 
L 173.34995 145.330759 
L 179.875669 153.672828 
L 183.138529 145.330759 
L 186.401389 149.501793 
L 189.664249 141.159724 
L 194.558538 147.416276 
L 196.189968 143.245241 
L 201.084258 149.501793 
L 202.715688 145.330759 
L 204.347117 147.416276 
L 209.241407 134.903172 
L 214.135697 141.159724 
L 215.767127 136.98869 
L 223.924276 147.416276 
L 225.555706 143.245241 
L 227.187136 145.330759 
L 228.818566 141.159724 
L 233.712855 147.416276 
L 236.975715 139.074207 
L 241.870005 145.330759 
L 243.501434 141.159724 
L 248.395724 147.416276 
L 253.290014 134.903172 
L 254.921444 136.98869 
L 256.552873 132.817655 
L 258.184303 134.903172 
L 261.447163 126.561103 
L 264.710023 130.732138 
L 266.341453 126.561103 
L 277.761462 141.159724 
L 279.392892 136.98869 
L 285.918611 145.330759 
L 289.181471 136.98869 
L 297.33862 147.416276 
L 298.97005 143.245241 
L 302.23291 147.416276 
L 303.86434 143.245241 
L 312.021489 153.672828 
L 313.652919 149.501793 
L 318.547209 155.758345 
L 323.441498 143.245241 
L 326.704358 147.416276 
L 331.598648 134.903172 
L 336.492937 141.159724 
L 338.124367 136.98869 
L 339.755797 139.074207 
L 341.387227 134.903172 
L 343.018657 136.98869 
L 344.650087 132.817655 
L 354.438666 145.330759 
L 356.070096 141.159724 
L 357.701526 143.245241 
L 359.332956 139.074207 
L 364.227245 145.330759 
L 370.752965 128.646621 
L 372.384395 130.732138 
L 375.647254 122.390069 
L 380.541544 128.646621 
L 382.172974 124.475586 
L 383.804404 126.561103 
L 387.067264 118.219034 
L 390.330123 122.390069 
L 393.592983 114.048 
L 395.224413 116.133517 
L 396.855843 111.962483 
L 398.487273 114.048 
L 398.487273 114.048 
" style="fill:none;stroke:#17becf;stroke-linecap:square;stroke-width:1.5;"/>
   </g>
   <g id="patch_3">
    <path d="M 57.6 307.584 
L 57.6 41.472 
" style="fill:none;stroke:#000000;stroke-linecap:square;stroke-linejoin:miter;stroke-width:0.8;"/>
   </g>
   <g id="patch_4">
    <path d="M 414.72 307.584 
L 414.72 41.472 
" style="fill:none;stroke:#000000;stroke-linecap:square;stroke-linejoin:miter;stroke-width:0.8;"/>
   </g>
   <g id="patch_5">
    <path d="M 57.6 307.584 
L 414.72 307.584 
" style="fill:none;stroke:#000000;stroke-linecap:square;stroke-linejoin:miter;stroke-width:0.8;"/>
   </g>
   <g id="patch_6">
    <path d="M 57.6 41.472 
L 414.72 41.472 
" style="fill:none;stroke:#000000;stroke-linecap:square;stroke-linejoin:miter;stroke-width:0.8;"/>
   </g>
   <g id="text_18">
    <!-- Grafico fondos docenas apuesta simple F.I: $150000.0 -->
    <g transform="translate(73.340625 35.472)scale(0.12 -0.12)">
     <defs>
      <path d="M 59.515625 10.40625 
L 59.515625 29.984375 
L 43.40625 29.984375 
L 43.40625 38.09375 
L 69.28125 38.09375 
L 69.28125 6.78125 
Q 63.578125 2.734375 56.6875 0.65625 
Q 49.8125 -1.421875 42 -1.421875 
Q 24.90625 -1.421875 15.25 8.5625 
Q 5.609375 18.5625 5.609375 36.375 
Q 5.609375 54.25 15.25 64.234375 
Q 24.90625 74.21875 42 74.21875 
Q 49.125 74.21875 55.546875 72.453125 
Q 61.96875 70.703125 67.390625 67.28125 
L 67.390625 56.78125 
Q 61.921875 61.421875 55.765625 63.765625 
Q 49.609375 66.109375 42.828125 66.109375 
Q 29.4375 66.109375 22.71875 58.640625 
Q 16.015625 51.171875 16.015625 36.375 
Q 16.015625 21.625 22.71875 14.15625 
Q 29.4375 6.6875 42.828125 6.6875 
Q 48.046875 6.6875 52.140625 7.59375 
Q 56.25 8.5 59.515625 10.40625 
z
" id="DejaVuSans-71"/>
      <path d="M 37.109375 75.984375 
L 37.109375 68.5 
L 28.515625 68.5 
Q 23.6875 68.5 21.796875 66.546875 
Q 19.921875 64.59375 19.921875 59.515625 
L 19.921875 54.6875 
L 34.71875 54.6875 
L 34.71875 47.703125 
L 19.921875 47.703125 
L 19.921875 0 
L 10.890625 0 
L 10.890625 47.703125 
L 2.296875 47.703125 
L 2.296875 54.6875 
L 10.890625 54.6875 
L 10.890625 58.5 
Q 10.890625 67.625 15.140625 71.796875 
Q 19.390625 75.984375 28.609375 75.984375 
z
" id="DejaVuSans-102"/>
      <path d="M 48.78125 52.59375 
L 48.78125 44.1875 
Q 44.96875 46.296875 41.140625 47.34375 
Q 37.3125 48.390625 33.40625 48.390625 
Q 24.65625 48.390625 19.8125 42.84375 
Q 14.984375 37.3125 14.984375 27.296875 
Q 14.984375 17.28125 19.8125 11.734375 
Q 24.65625 6.203125 33.40625 6.203125 
Q 37.3125 6.203125 41.140625 7.25 
Q 44.96875 8.296875 48.78125 10.40625 
L 48.78125 2.09375 
Q 45.015625 0.34375 40.984375 -0.53125 
Q 36.96875 -1.421875 32.421875 -1.421875 
Q 20.0625 -1.421875 12.78125 6.34375 
Q 5.515625 14.109375 5.515625 27.296875 
Q 5.515625 40.671875 12.859375 48.328125 
Q 20.21875 56 33.015625 56 
Q 37.15625 56 41.109375 55.140625 
Q 45.0625 54.296875 48.78125 52.59375 
z
" id="DejaVuSans-99"/>
      <path d="M 44.28125 53.078125 
L 44.28125 44.578125 
Q 40.484375 46.53125 36.375 47.5 
Q 32.28125 48.484375 27.875 48.484375 
Q 21.1875 48.484375 17.84375 46.4375 
Q 14.5 44.390625 14.5 40.28125 
Q 14.5 37.15625 16.890625 35.375 
Q 19.28125 33.59375 26.515625 31.984375 
L 29.59375 31.296875 
Q 39.15625 29.25 43.1875 25.515625 
Q 47.21875 21.78125 47.21875 15.09375 
Q 47.21875 7.46875 41.1875 3.015625 
Q 35.15625 -1.421875 24.609375 -1.421875 
Q 20.21875 -1.421875 15.453125 -0.5625 
Q 10.6875 0.296875 5.421875 2 
L 5.421875 11.28125 
Q 10.40625 8.6875 15.234375 7.390625 
Q 20.0625 6.109375 24.8125 6.109375 
Q 31.15625 6.109375 34.5625 8.28125 
Q 37.984375 10.453125 37.984375 14.40625 
Q 37.984375 18.0625 35.515625 20.015625 
Q 33.0625 21.96875 24.703125 23.78125 
L 21.578125 24.515625 
Q 13.234375 26.265625 9.515625 29.90625 
Q 5.8125 33.546875 5.8125 39.890625 
Q 5.8125 47.609375 11.28125 51.796875 
Q 16.75 56 26.8125 56 
Q 31.78125 56 36.171875 55.265625 
Q 40.578125 54.546875 44.28125 53.078125 
z
" id="DejaVuSans-115"/>
      <path d="M 18.109375 8.203125 
L 18.109375 -20.796875 
L 9.078125 -20.796875 
L 9.078125 54.6875 
L 18.109375 54.6875 
L 18.109375 46.390625 
Q 20.953125 51.265625 25.265625 53.625 
Q 29.59375 56 35.59375 56 
Q 45.5625 56 51.78125 48.09375 
Q 58.015625 40.1875 58.015625 27.296875 
Q 58.015625 14.40625 51.78125 6.484375 
Q 45.5625 -1.421875 35.59375 -1.421875 
Q 29.59375 -1.421875 25.265625 0.953125 
Q 20.953125 3.328125 18.109375 8.203125 
z
M 48.6875 27.296875 
Q 48.6875 37.203125 44.609375 42.84375 
Q 40.53125 48.484375 33.40625 48.484375 
Q 26.265625 48.484375 22.1875 42.84375 
Q 18.109375 37.203125 18.109375 27.296875 
Q 18.109375 17.390625 22.1875 11.75 
Q 26.265625 6.109375 33.40625 6.109375 
Q 40.53125 6.109375 44.609375 11.75 
Q 48.6875 17.390625 48.6875 27.296875 
z
" id="DejaVuSans-112"/>
      <path d="M 9.421875 75.984375 
L 18.40625 75.984375 
L 18.40625 0 
L 9.421875 0 
z
" id="DejaVuSans-108"/>
      <path d="M 10.6875 12.40625 
L 21 12.40625 
L 21 0 
L 10.6875 0 
z
" id="DejaVuSans-46"/>
      <path d="M 9.8125 72.90625 
L 19.671875 72.90625 
L 19.671875 0 
L 9.8125 0 
z
" id="DejaVuSans-73"/>
      <path d="M 11.71875 12.40625 
L 22.015625 12.40625 
L 22.015625 0 
L 11.71875 0 
z
M 11.71875 51.703125 
L 22.015625 51.703125 
L 22.015625 39.3125 
L 11.71875 39.3125 
z
" id="DejaVuSans-58"/>
     </defs>
     <use xlink:href="#DejaVuSans-71"/>
     <use x="77.490234" xlink:href="#DejaVuSans-114"/>
     <use x="118.603516" xlink:href="#DejaVuSans-97"/>
     <use x="179.882812" xlink:href="#DejaVuSans-102"/>
     <use x="215.087891" xlink:href="#DejaVuSans-105"/>
     <use x="242.871094" xlink:href="#DejaVuSans-99"/>
     <use x="297.851562" xlink:href="#DejaVuSans-111"/>
     <use x="359.033203" xlink:href="#DejaVuSans-32"/>
     <use x="390.820312" xlink:href="#DejaVuSans-102"/>
     <use x="426.025391" xlink:href="#DejaVuSans-111"/>
     <use x="487.207031" xlink:href="#DejaVuSans-110"/>
     <use x="550.585938" xlink:href="#DejaVuSans-100"/>
     <use x="614.0625" xlink:href="#DejaVuSans-111"/>
     <use x="675.244141" xlink:href="#DejaVuSans-115"/>
     <use x="727.34375" xlink:href="#DejaVuSans-32"/>
     <use x="759.130859" xlink:href="#DejaVuSans-100"/>
     <use x="822.607422" xlink:href="#DejaVuSans-111"/>
     <use x="883.789062" xlink:href="#DejaVuSans-99"/>
     <use x="938.769531" xlink:href="#DejaVuSans-101"/>
     <use x="1000.292969" xlink:href="#DejaVuSans-110"/>
     <use x="1063.671875" xlink:href="#DejaVuSans-97"/>
     <use x="1124.951172" xlink:href="#DejaVuSans-115"/>
     <use x="1177.050781" xlink:href="#DejaVuSans-32"/>
     <use x="1208.837891" xlink:href="#DejaVuSans-97"/>
     <use x="1270.117188" xlink:href="#DejaVuSans-112"/>
     <use x="1333.59375" xlink:href="#DejaVuSans-117"/>
     <use x="1396.972656" xlink:href="#DejaVuSans-101"/>
     <use x="1458.496094" xlink:href="#DejaVuSans-115"/>
     <use x="1510.595703" xlink:href="#DejaVuSans-116"/>
     <use x="1549.804688" xlink:href="#DejaVuSans-97"/>
     <use x="1611.083984" xlink:href="#DejaVuSans-32"/>
     <use x="1642.871094" xlink:href="#DejaVuSans-115"/>
     <use x="1694.970703" xlink:href="#DejaVuSans-105"/>
     <use x="1722.753906" xlink:href="#DejaVuSans-109"/>
     <use x="1820.166016" xlink:href="#DejaVuSans-112"/>
     <use x="1883.642578" xlink:href="#DejaVuSans-108"/>
     <use x="1911.425781" xlink:href="#DejaVuSans-101"/>
     <use x="1972.949219" xlink:href="#DejaVuSans-32"/>
     <use x="2004.736328" xlink:href="#DejaVuSans-70"/>
     <use x="2046.130859" xlink:href="#DejaVuSans-46"/>
     <use x="2077.917969" xlink:href="#DejaVuSans-73"/>
     <use x="2107.410156" xlink:href="#DejaVuSans-58"/>
     <use x="2141.101562" xlink:href="#DejaVuSans-32"/>
     <use x="2172.888672" xlink:href="#DejaVuSans-36"/>
     <use x="2236.511719" xlink:href="#DejaVuSans-49"/>
     <use x="2300.134766" xlink:href="#DejaVuSans-53"/>
     <use x="2363.757812" xlink:href="#DejaVuSans-48"/>
     <use x="2427.380859" xlink:href="#DejaVuSans-48"/>
     <use x="2491.003906" xlink:href="#DejaVuSans-48"/>
     <use x="2554.626953" xlink:href="#DejaVuSans-48"/>
     <use x="2618.25" xlink:href="#DejaVuSans-46"/>
     <use x="2650.037109" xlink:href="#DejaVuSans-48"/>
    </g>
   </g>
   <g id="legend_1">
    <g id="patch_7">
     <path d="M 64.6 302.584 
L 148.025 302.584 
Q 150.025 302.584 150.025 300.584 
L 150.025 154.80275 
Q 150.025 152.80275 148.025 152.80275 
L 64.6 152.80275 
Q 62.6 152.80275 62.6 154.80275 
L 62.6 300.584 
Q 62.6 302.584 64.6 302.584 
z
" style="fill:#ffffff;opacity:0.8;stroke:#cccccc;stroke-linejoin:miter;"/>
    </g>
    <g id="line2d_26">
     <path d="M 66.6 160.901187 
L 86.6 160.901187 
" style="fill:none;stroke:#1f77b4;stroke-linecap:square;stroke-width:1.5;"/>
    </g>
    <g id="line2d_27"/>
    <g id="text_19">
     <!-- Fondos 1 -->
     <g transform="translate(94.6 164.401187)scale(0.1 -0.1)">
      <use xlink:href="#DejaVuSans-70"/>
      <use x="53.894531" xlink:href="#DejaVuSans-111"/>
      <use x="115.076172" xlink:href="#DejaVuSans-110"/>
      <use x="178.455078" xlink:href="#DejaVuSans-100"/>
      <use x="241.931641" xlink:href="#DejaVuSans-111"/>
      <use x="303.113281" xlink:href="#DejaVuSans-115"/>
      <use x="355.212891" xlink:href="#DejaVuSans-32"/>
      <use x="387" xlink:href="#DejaVuSans-49"/>
     </g>
    </g>
    <g id="line2d_28">
     <path d="M 66.6 175.579313 
L 86.6 175.579313 
" style="fill:none;stroke:#ff7f0e;stroke-linecap:square;stroke-width:1.5;"/>
    </g>
    <g id="line2d_29"/>
    <g id="text_20">
     <!-- Fondos 2 -->
     <g transform="translate(94.6 179.079313)scale(0.1 -0.1)">
      <use xlink:href="#DejaVuSans-70"/>
      <use x="53.894531" xlink:href="#DejaVuSans-111"/>
      <use x="115.076172" xlink:href="#DejaVuSans-110"/>
      <use x="178.455078" xlink:href="#DejaVuSans-100"/>
      <use x="241.931641" xlink:href="#DejaVuSans-111"/>
      <use x="303.113281" xlink:href="#DejaVuSans-115"/>
      <use x="355.212891" xlink:href="#DejaVuSans-32"/>
      <use x="387" xlink:href="#DejaVuSans-50"/>
     </g>
    </g>
    <g id="line2d_30">
     <path d="M 66.6 190.257438 
L 86.6 190.257438 
" style="fill:none;stroke:#2ca02c;stroke-linecap:square;stroke-width:1.5;"/>
    </g>
    <g id="line2d_31"/>
    <g id="text_21">
     <!-- Fondos 3 -->
     <g transform="translate(94.6 193.757438)scale(0.1 -0.1)">
      <defs>
       <path d="M 40.578125 39.3125 
Q 47.65625 37.796875 51.625 33 
Q 55.609375 28.21875 55.609375 21.1875 
Q 55.609375 10.40625 48.1875 4.484375 
Q 40.765625 -1.421875 27.09375 -1.421875 
Q 22.515625 -1.421875 17.65625 -0.515625 
Q 12.796875 0.390625 7.625 2.203125 
L 7.625 11.71875 
Q 11.71875 9.328125 16.59375 8.109375 
Q 21.484375 6.890625 26.8125 6.890625 
Q 36.078125 6.890625 40.9375 10.546875 
Q 45.796875 14.203125 45.796875 21.1875 
Q 45.796875 27.640625 41.28125 31.265625 
Q 36.765625 34.90625 28.71875 34.90625 
L 20.21875 34.90625 
L 20.21875 43.015625 
L 29.109375 43.015625 
Q 36.375 43.015625 40.234375 45.921875 
Q 44.09375 48.828125 44.09375 54.296875 
Q 44.09375 59.90625 40.109375 62.90625 
Q 36.140625 65.921875 28.71875 65.921875 
Q 24.65625 65.921875 20.015625 65.03125 
Q 15.375 64.15625 9.8125 62.3125 
L 9.8125 71.09375 
Q 15.4375 72.65625 20.34375 73.4375 
Q 25.25 74.21875 29.59375 74.21875 
Q 40.828125 74.21875 47.359375 69.109375 
Q 53.90625 64.015625 53.90625 55.328125 
Q 53.90625 49.265625 50.4375 45.09375 
Q 46.96875 40.921875 40.578125 39.3125 
z
" id="DejaVuSans-51"/>
      </defs>
      <use xlink:href="#DejaVuSans-70"/>
      <use x="53.894531" xlink:href="#DejaVuSans-111"/>
      <use x="115.076172" xlink:href="#DejaVuSans-110"/>
      <use x="178.455078" xlink:href="#DejaVuSans-100"/>
      <use x="241.931641" xlink:href="#DejaVuSans-111"/>
      <use x="303.113281" xlink:href="#DejaVuSans-115"/>
      <use x="355.212891" xlink:href="#DejaVuSans-32"/>
      <use x="387" xlink:href="#DejaVuSans-51"/>
     </g>
    </g>
    <g id="line2d_32">
     <path d="M 66.6 204.935563 
L 86.6 204.935563 
" style="fill:none;stroke:#d62728;stroke-linecap:square;stroke-width:1.5;"/>
    </g>
    <g id="line2d_33"/>
    <g id="text_22">
     <!-- Fondos 4 -->
     <g transform="translate(94.6 208.435563)scale(0.1 -0.1)">
      <use xlink:href="#DejaVuSans-70"/>
      <use x="53.894531" xlink:href="#DejaVuSans-111"/>
      <use x="115.076172" xlink:href="#DejaVuSans-110"/>
      <use x="178.455078" xlink:href="#DejaVuSans-100"/>
      <use x="241.931641" xlink:href="#DejaVuSans-111"/>
      <use x="303.113281" xlink:href="#DejaVuSans-115"/>
      <use x="355.212891" xlink:href="#DejaVuSans-32"/>
      <use x="387" xlink:href="#DejaVuSans-52"/>
     </g>
    </g>
    <g id="line2d_34">
     <path d="M 66.6 219.613688 
L 86.6 219.613688 
" style="fill:none;stroke:#9467bd;stroke-linecap:square;stroke-width:1.5;"/>
    </g>
    <g id="line2d_35"/>
    <g id="text_23">
     <!-- Fondos 5 -->
     <g transform="translate(94.6 223.113688)scale(0.1 -0.1)">
      <use xlink:href="#DejaVuSans-70"/>
      <use x="53.894531" xlink:href="#DejaVuSans-111"/>
      <use x="115.076172" xlink:href="#DejaVuSans-110"/>
      <use x="178.455078" xlink:href="#DejaVuSans-100"/>
      <use x="241.931641" xlink:href="#DejaVuSans-111"/>
      <use x="303.113281" xlink:href="#DejaVuSans-115"/>
      <use x="355.212891" xlink:href="#DejaVuSans-32"/>
      <use x="387" xlink:href="#DejaVuSans-53"/>
     </g>
    </g>
    <g id="line2d_36">
     <path d="M 66.6 234.291812 
L 86.6 234.291812 
" style="fill:none;stroke:#8c564b;stroke-linecap:square;stroke-width:1.5;"/>
    </g>
    <g id="line2d_37"/>
    <g id="text_24">
     <!-- Fondos 6 -->
     <g transform="translate(94.6 237.791812)scale(0.1 -0.1)">
      <use xlink:href="#DejaVuSans-70"/>
      <use x="53.894531" xlink:href="#DejaVuSans-111"/>
      <use x="115.076172" xlink:href="#DejaVuSans-110"/>
      <use x="178.455078" xlink:href="#DejaVuSans-100"/>
      <use x="241.931641" xlink:href="#DejaVuSans-111"/>
      <use x="303.113281" xlink:href="#DejaVuSans-115"/>
      <use x="355.212891" xlink:href="#DejaVuSans-32"/>
      <use x="387" xlink:href="#DejaVuSans-54"/>
     </g>
    </g>
    <g id="line2d_38">
     <path d="M 66.6 248.969938 
L 86.6 248.969938 
" style="fill:none;stroke:#e377c2;stroke-linecap:square;stroke-width:1.5;"/>
    </g>
    <g id="line2d_39"/>
    <g id="text_25">
     <!-- Fondos 7 -->
     <g transform="translate(94.6 252.469938)scale(0.1 -0.1)">
      <use xlink:href="#DejaVuSans-70"/>
      <use x="53.894531" xlink:href="#DejaVuSans-111"/>
      <use x="115.076172" xlink:href="#DejaVuSans-110"/>
      <use x="178.455078" xlink:href="#DejaVuSans-100"/>
      <use x="241.931641" xlink:href="#DejaVuSans-111"/>
      <use x="303.113281" xlink:href="#DejaVuSans-115"/>
      <use x="355.212891" xlink:href="#DejaVuSans-32"/>
      <use x="387" xlink:href="#DejaVuSans-55"/>
     </g>
    </g>
    <g id="line2d_40">
     <path d="M 66.6 263.648062 
L 86.6 263.648062 
" style="fill:none;stroke:#7f7f7f;stroke-linecap:square;stroke-width:1.5;"/>
    </g>
    <g id="line2d_41"/>
    <g id="text_26">
     <!-- Fondos 8 -->
     <g transform="translate(94.6 267.148062)scale(0.1 -0.1)">
      <use xlink:href="#DejaVuSans-70"/>
      <use x="53.894531" xlink:href="#DejaVuSans-111"/>
      <use x="115.076172" xlink:href="#DejaVuSans-110"/>
      <use x="178.455078" xlink:href="#DejaVuSans-100"/>
      <use x="241.931641" xlink:href="#DejaVuSans-111"/>
      <use x="303.113281" xlink:href="#DejaVuSans-115"/>
      <use x="355.212891" xlink:href="#DejaVuSans-32"/>
      <use x="387" xlink:href="#DejaVuSans-56"/>
     </g>
    </g>
    <g id="line2d_42">
     <path d="M 66.6 278.326188 
L 86.6 278.326188 
" style="fill:none;stroke:#bcbd22;stroke-linecap:square;stroke-width:1.5;"/>
    </g>
    <g id="line2d_43"/>
    <g id="text_27">
     <!-- Fondos 9 -->
     <g transform="translate(94.6 281.826188)scale(0.1 -0.1)">
      <defs>
       <path d="M 10.984375 1.515625 
L 10.984375 10.5 
Q 14.703125 8.734375 18.5 7.8125 
Q 22.3125 6.890625 25.984375 6.890625 
Q 35.75 6.890625 40.890625 13.453125 
Q 46.046875 20.015625 46.78125 33.40625 
Q 43.953125 29.203125 39.59375 26.953125 
Q 35.25 24.703125 29.984375 24.703125 
Q 19.046875 24.703125 12.671875 31.3125 
Q 6.296875 37.9375 6.296875 49.421875 
Q 6.296875 60.640625 12.9375 67.421875 
Q 19.578125 74.21875 30.609375 74.21875 
Q 43.265625 74.21875 49.921875 64.515625 
Q 56.59375 54.828125 56.59375 36.375 
Q 56.59375 19.140625 48.40625 8.859375 
Q 40.234375 -1.421875 26.421875 -1.421875 
Q 22.703125 -1.421875 18.890625 -0.6875 
Q 15.09375 0.046875 10.984375 1.515625 
z
M 30.609375 32.421875 
Q 37.25 32.421875 41.125 36.953125 
Q 45.015625 41.5 45.015625 49.421875 
Q 45.015625 57.28125 41.125 61.84375 
Q 37.25 66.40625 30.609375 66.40625 
Q 23.96875 66.40625 20.09375 61.84375 
Q 16.21875 57.28125 16.21875 49.421875 
Q 16.21875 41.5 20.09375 36.953125 
Q 23.96875 32.421875 30.609375 32.421875 
z
" id="DejaVuSans-57"/>
      </defs>
      <use xlink:href="#DejaVuSans-70"/>
      <use x="53.894531" xlink:href="#DejaVuSans-111"/>
      <use x="115.076172" xlink:href="#DejaVuSans-110"/>
      <use x="178.455078" xlink:href="#DejaVuSans-100"/>
      <use x="241.931641" xlink:href="#DejaVuSans-111"/>
      <use x="303.113281" xlink:href="#DejaVuSans-115"/>
      <use x="355.212891" xlink:href="#DejaVuSans-32"/>
      <use x="387" xlink:href="#DejaVuSans-57"/>
     </g>
    </g>
    <g id="line2d_44">
     <path d="M 66.6 293.004312 
L 86.6 293.004312 
" style="fill:none;stroke:#17becf;stroke-linecap:square;stroke-width:1.5;"/>
    </g>
    <g id="line2d_45"/>
    <g id="text_28">
     <!-- Fondos 10 -->
     <g transform="translate(94.6 296.504312)scale(0.1 -0.1)">
      <use xlink:href="#DejaVuSans-70"/>
      <use x="53.894531" xlink:href="#DejaVuSans-111"/>
      <use x="115.076172" xlink:href="#DejaVuSans-110"/>
      <use x="178.455078" xlink:href="#DejaVuSans-100"/>
      <use x="241.931641" xlink:href="#DejaVuSans-111"/>
      <use x="303.113281" xlink:href="#DejaVuSans-115"/>
      <use x="355.212891" xlink:href="#DejaVuSans-32"/>
      <use x="387" xlink:href="#DejaVuSans-49"/>
      <use x="450.623047" xlink:href="#DejaVuSans-48"/>
     </g>
    </g>
   </g>
  </g>
 </g>
 <defs>
  <clipPath id="p441ccbbeb7">
   <rect height="266.112" width="357.12" x="57.6" y="41.472"/>
  </clipPath>
 </defs>
</svg>
