<?xml version="1.0" encoding="utf-8" standalone="no"?>
<!DOCTYPE svg PUBLIC "-//W3C//DTD SVG 1.1//EN"
  "http://www.w3.org/Graphics/SVG/1.1/DTD/svg11.dtd">
<!-- Created with matplotlib (https://matplotlib.org/) -->
<svg height="345.6pt" version="1.1" viewBox="0 0 460.8 345.6" width="460.8pt" xmlns="http://www.w3.org/2000/svg" xmlns:xlink="http://www.w3.org/1999/xlink">
 <metadata>
  <rdf:RDF xmlns:cc="http://creativecommons.org/ns#" xmlns:dc="http://purl.org/dc/elements/1.1/" xmlns:rdf="http://www.w3.org/1999/02/22-rdf-syntax-ns#">
   <cc:Work>
    <dc:type rdf:resource="http://purl.org/dc/dcmitype/StillImage"/>
    <dc:date>2021-04-07T20:02:38.473043</dc:date>
    <dc:format>image/svg+xml</dc:format>
    <dc:creator>
     <cc:Agent>
      <dc:title>Matplotlib v3.3.4, https://matplotlib.org/</dc:title>
     </cc:Agent>
    </dc:creator>
   </cc:Work>
  </rdf:RDF>
 </metadata>
 <defs>
  <style type="text/css">*{stroke-linecap:butt;stroke-linejoin:round;}</style>
 </defs>
 <g id="figure_1">
  <g id="patch_1">
   <path d="M 0 345.6 
L 460.8 345.6 
L 460.8 0 
L 0 0 
z
" style="fill:#ffffff;"/>
  </g>
  <g id="axes_1">
   <g id="patch_2">
    <path d="M 57.6 307.584 
L 414.72 307.584 
L 414.72 41.472 
L 57.6 41.472 
z
" style="fill:#ffffff;"/>
   </g>
   <g id="matplotlib.axis_1">
    <g id="xtick_1">
     <g id="line2d_1">
      <defs>
       <path d="M 0 0 
L 0 3.5 
" id="mb476d6aae5" style="stroke:#000000;stroke-width:0.8;"/>
      </defs>
      <g>
       <use style="stroke:#000000;stroke-width:0.8;" x="70.553388" xlink:href="#mb476d6aae5" y="307.584"/>
      </g>
     </g>
     <g id="text_1">
      <!-- 0 -->
      <g transform="translate(67.372138 322.182437)scale(0.1 -0.1)">
       <defs>
        <path d="M 31.78125 66.40625 
Q 24.171875 66.40625 20.328125 58.90625 
Q 16.5 51.421875 16.5 36.375 
Q 16.5 21.390625 20.328125 13.890625 
Q 24.171875 6.390625 31.78125 6.390625 
Q 39.453125 6.390625 43.28125 13.890625 
Q 47.125 21.390625 47.125 36.375 
Q 47.125 51.421875 43.28125 58.90625 
Q 39.453125 66.40625 31.78125 66.40625 
z
M 31.78125 74.21875 
Q 44.046875 74.21875 50.515625 64.515625 
Q 56.984375 54.828125 56.984375 36.375 
Q 56.984375 17.96875 50.515625 8.265625 
Q 44.046875 -1.421875 31.78125 -1.421875 
Q 19.53125 -1.421875 13.0625 8.265625 
Q 6.59375 17.96875 6.59375 36.375 
Q 6.59375 54.828125 13.0625 64.515625 
Q 19.53125 74.21875 31.78125 74.21875 
z
" id="DejaVuSans-48"/>
       </defs>
       <use xlink:href="#DejaVuSans-48"/>
      </g>
     </g>
    </g>
    <g id="xtick_2">
     <g id="line2d_2">
      <g>
       <use style="stroke:#000000;stroke-width:0.8;" x="136.140165" xlink:href="#mb476d6aae5" y="307.584"/>
      </g>
     </g>
     <g id="text_2">
      <!-- 20 -->
      <g transform="translate(129.777665 322.182437)scale(0.1 -0.1)">
       <defs>
        <path d="M 19.1875 8.296875 
L 53.609375 8.296875 
L 53.609375 0 
L 7.328125 0 
L 7.328125 8.296875 
Q 12.9375 14.109375 22.625 23.890625 
Q 32.328125 33.6875 34.8125 36.53125 
Q 39.546875 41.84375 41.421875 45.53125 
Q 43.3125 49.21875 43.3125 52.78125 
Q 43.3125 58.59375 39.234375 62.25 
Q 35.15625 65.921875 28.609375 65.921875 
Q 23.96875 65.921875 18.8125 64.3125 
Q 13.671875 62.703125 7.8125 59.421875 
L 7.8125 69.390625 
Q 13.765625 71.78125 18.9375 73 
Q 24.125 74.21875 28.421875 74.21875 
Q 39.75 74.21875 46.484375 68.546875 
Q 53.21875 62.890625 53.21875 53.421875 
Q 53.21875 48.921875 51.53125 44.890625 
Q 49.859375 40.875 45.40625 35.40625 
Q 44.1875 33.984375 37.640625 27.21875 
Q 31.109375 20.453125 19.1875 8.296875 
z
" id="DejaVuSans-50"/>
       </defs>
       <use xlink:href="#DejaVuSans-50"/>
       <use x="63.623047" xlink:href="#DejaVuSans-48"/>
      </g>
     </g>
    </g>
    <g id="xtick_3">
     <g id="line2d_3">
      <g>
       <use style="stroke:#000000;stroke-width:0.8;" x="201.726942" xlink:href="#mb476d6aae5" y="307.584"/>
      </g>
     </g>
     <g id="text_3">
      <!-- 40 -->
      <g transform="translate(195.364442 322.182437)scale(0.1 -0.1)">
       <defs>
        <path d="M 37.796875 64.3125 
L 12.890625 25.390625 
L 37.796875 25.390625 
z
M 35.203125 72.90625 
L 47.609375 72.90625 
L 47.609375 25.390625 
L 58.015625 25.390625 
L 58.015625 17.1875 
L 47.609375 17.1875 
L 47.609375 0 
L 37.796875 0 
L 37.796875 17.1875 
L 4.890625 17.1875 
L 4.890625 26.703125 
z
" id="DejaVuSans-52"/>
       </defs>
       <use xlink:href="#DejaVuSans-52"/>
       <use x="63.623047" xlink:href="#DejaVuSans-48"/>
      </g>
     </g>
    </g>
    <g id="xtick_4">
     <g id="line2d_4">
      <g>
       <use style="stroke:#000000;stroke-width:0.8;" x="267.313719" xlink:href="#mb476d6aae5" y="307.584"/>
      </g>
     </g>
     <g id="text_4">
      <!-- 60 -->
      <g transform="translate(260.951219 322.182437)scale(0.1 -0.1)">
       <defs>
        <path d="M 33.015625 40.375 
Q 26.375 40.375 22.484375 35.828125 
Q 18.609375 31.296875 18.609375 23.390625 
Q 18.609375 15.53125 22.484375 10.953125 
Q 26.375 6.390625 33.015625 6.390625 
Q 39.65625 6.390625 43.53125 10.953125 
Q 47.40625 15.53125 47.40625 23.390625 
Q 47.40625 31.296875 43.53125 35.828125 
Q 39.65625 40.375 33.015625 40.375 
z
M 52.59375 71.296875 
L 52.59375 62.3125 
Q 48.875 64.0625 45.09375 64.984375 
Q 41.3125 65.921875 37.59375 65.921875 
Q 27.828125 65.921875 22.671875 59.328125 
Q 17.53125 52.734375 16.796875 39.40625 
Q 19.671875 43.65625 24.015625 45.921875 
Q 28.375 48.1875 33.59375 48.1875 
Q 44.578125 48.1875 50.953125 41.515625 
Q 57.328125 34.859375 57.328125 23.390625 
Q 57.328125 12.15625 50.6875 5.359375 
Q 44.046875 -1.421875 33.015625 -1.421875 
Q 20.359375 -1.421875 13.671875 8.265625 
Q 6.984375 17.96875 6.984375 36.375 
Q 6.984375 53.65625 15.1875 63.9375 
Q 23.390625 74.21875 37.203125 74.21875 
Q 40.921875 74.21875 44.703125 73.484375 
Q 48.484375 72.75 52.59375 71.296875 
z
" id="DejaVuSans-54"/>
       </defs>
       <use xlink:href="#DejaVuSans-54"/>
       <use x="63.623047" xlink:href="#DejaVuSans-48"/>
      </g>
     </g>
    </g>
    <g id="xtick_5">
     <g id="line2d_5">
      <g>
       <use style="stroke:#000000;stroke-width:0.8;" x="332.900496" xlink:href="#mb476d6aae5" y="307.584"/>
      </g>
     </g>
     <g id="text_5">
      <!-- 80 -->
      <g transform="translate(326.537996 322.182437)scale(0.1 -0.1)">
       <defs>
        <path d="M 31.78125 34.625 
Q 24.75 34.625 20.71875 30.859375 
Q 16.703125 27.09375 16.703125 20.515625 
Q 16.703125 13.921875 20.71875 10.15625 
Q 24.75 6.390625 31.78125 6.390625 
Q 38.8125 6.390625 42.859375 10.171875 
Q 46.921875 13.96875 46.921875 20.515625 
Q 46.921875 27.09375 42.890625 30.859375 
Q 38.875 34.625 31.78125 34.625 
z
M 21.921875 38.8125 
Q 15.578125 40.375 12.03125 44.71875 
Q 8.5 49.078125 8.5 55.328125 
Q 8.5 64.0625 14.71875 69.140625 
Q 20.953125 74.21875 31.78125 74.21875 
Q 42.671875 74.21875 48.875 69.140625 
Q 55.078125 64.0625 55.078125 55.328125 
Q 55.078125 49.078125 51.53125 44.71875 
Q 48 40.375 41.703125 38.8125 
Q 48.828125 37.15625 52.796875 32.3125 
Q 56.78125 27.484375 56.78125 20.515625 
Q 56.78125 9.90625 50.3125 4.234375 
Q 43.84375 -1.421875 31.78125 -1.421875 
Q 19.734375 -1.421875 13.25 4.234375 
Q 6.78125 9.90625 6.78125 20.515625 
Q 6.78125 27.484375 10.78125 32.3125 
Q 14.796875 37.15625 21.921875 38.8125 
z
M 18.3125 54.390625 
Q 18.3125 48.734375 21.84375 45.5625 
Q 25.390625 42.390625 31.78125 42.390625 
Q 38.140625 42.390625 41.71875 45.5625 
Q 45.3125 48.734375 45.3125 54.390625 
Q 45.3125 60.0625 41.71875 63.234375 
Q 38.140625 66.40625 31.78125 66.40625 
Q 25.390625 66.40625 21.84375 63.234375 
Q 18.3125 60.0625 18.3125 54.390625 
z
" id="DejaVuSans-56"/>
       </defs>
       <use xlink:href="#DejaVuSans-56"/>
       <use x="63.623047" xlink:href="#DejaVuSans-48"/>
      </g>
     </g>
    </g>
    <g id="xtick_6">
     <g id="line2d_6">
      <g>
       <use style="stroke:#000000;stroke-width:0.8;" x="398.487273" xlink:href="#mb476d6aae5" y="307.584"/>
      </g>
     </g>
     <g id="text_6">
      <!-- 100 -->
      <g transform="translate(388.943523 322.182437)scale(0.1 -0.1)">
       <defs>
        <path d="M 12.40625 8.296875 
L 28.515625 8.296875 
L 28.515625 63.921875 
L 10.984375 60.40625 
L 10.984375 69.390625 
L 28.421875 72.90625 
L 38.28125 72.90625 
L 38.28125 8.296875 
L 54.390625 8.296875 
L 54.390625 0 
L 12.40625 0 
z
" id="DejaVuSans-49"/>
       </defs>
       <use xlink:href="#DejaVuSans-49"/>
       <use x="63.623047" xlink:href="#DejaVuSans-48"/>
       <use x="127.246094" xlink:href="#DejaVuSans-48"/>
      </g>
     </g>
    </g>
    <g id="text_7">
     <!-- Tiradas -->
     <g transform="translate(217.910781 335.860562)scale(0.1 -0.1)">
      <defs>
       <path d="M -0.296875 72.90625 
L 61.375 72.90625 
L 61.375 64.59375 
L 35.5 64.59375 
L 35.5 0 
L 25.59375 0 
L 25.59375 64.59375 
L -0.296875 64.59375 
z
" id="DejaVuSans-84"/>
       <path d="M 9.421875 54.6875 
L 18.40625 54.6875 
L 18.40625 0 
L 9.421875 0 
z
M 9.421875 75.984375 
L 18.40625 75.984375 
L 18.40625 64.59375 
L 9.421875 64.59375 
z
" id="DejaVuSans-105"/>
       <path d="M 41.109375 46.296875 
Q 39.59375 47.171875 37.8125 47.578125 
Q 36.03125 48 33.890625 48 
Q 26.265625 48 22.1875 43.046875 
Q 18.109375 38.09375 18.109375 28.8125 
L 18.109375 0 
L 9.078125 0 
L 9.078125 54.6875 
L 18.109375 54.6875 
L 18.109375 46.1875 
Q 20.953125 51.171875 25.484375 53.578125 
Q 30.03125 56 36.53125 56 
Q 37.453125 56 38.578125 55.875 
Q 39.703125 55.765625 41.0625 55.515625 
z
" id="DejaVuSans-114"/>
       <path d="M 34.28125 27.484375 
Q 23.390625 27.484375 19.1875 25 
Q 14.984375 22.515625 14.984375 16.5 
Q 14.984375 11.71875 18.140625 8.90625 
Q 21.296875 6.109375 26.703125 6.109375 
Q 34.1875 6.109375 38.703125 11.40625 
Q 43.21875 16.703125 43.21875 25.484375 
L 43.21875 27.484375 
z
M 52.203125 31.203125 
L 52.203125 0 
L 43.21875 0 
L 43.21875 8.296875 
Q 40.140625 3.328125 35.546875 0.953125 
Q 30.953125 -1.421875 24.3125 -1.421875 
Q 15.921875 -1.421875 10.953125 3.296875 
Q 6 8.015625 6 15.921875 
Q 6 25.140625 12.171875 29.828125 
Q 18.359375 34.515625 30.609375 34.515625 
L 43.21875 34.515625 
L 43.21875 35.40625 
Q 43.21875 41.609375 39.140625 45 
Q 35.0625 48.390625 27.6875 48.390625 
Q 23 48.390625 18.546875 47.265625 
Q 14.109375 46.140625 10.015625 43.890625 
L 10.015625 52.203125 
Q 14.9375 54.109375 19.578125 55.046875 
Q 24.21875 56 28.609375 56 
Q 40.484375 56 46.34375 49.84375 
Q 52.203125 43.703125 52.203125 31.203125 
z
" id="DejaVuSans-97"/>
       <path d="M 45.40625 46.390625 
L 45.40625 75.984375 
L 54.390625 75.984375 
L 54.390625 0 
L 45.40625 0 
L 45.40625 8.203125 
Q 42.578125 3.328125 38.25 0.953125 
Q 33.9375 -1.421875 27.875 -1.421875 
Q 17.96875 -1.421875 11.734375 6.484375 
Q 5.515625 14.40625 5.515625 27.296875 
Q 5.515625 40.1875 11.734375 48.09375 
Q 17.96875 56 27.875 56 
Q 33.9375 56 38.25 53.625 
Q 42.578125 51.265625 45.40625 46.390625 
z
M 14.796875 27.296875 
Q 14.796875 17.390625 18.875 11.75 
Q 22.953125 6.109375 30.078125 6.109375 
Q 37.203125 6.109375 41.296875 11.75 
Q 45.40625 17.390625 45.40625 27.296875 
Q 45.40625 37.203125 41.296875 42.84375 
Q 37.203125 48.484375 30.078125 48.484375 
Q 22.953125 48.484375 18.875 42.84375 
Q 14.796875 37.203125 14.796875 27.296875 
z
" id="DejaVuSans-100"/>
       <path d="M 44.28125 53.078125 
L 44.28125 44.578125 
Q 40.484375 46.53125 36.375 47.5 
Q 32.28125 48.484375 27.875 48.484375 
Q 21.1875 48.484375 17.84375 46.4375 
Q 14.5 44.390625 14.5 40.28125 
Q 14.5 37.15625 16.890625 35.375 
Q 19.28125 33.59375 26.515625 31.984375 
L 29.59375 31.296875 
Q 39.15625 29.25 43.1875 25.515625 
Q 47.21875 21.78125 47.21875 15.09375 
Q 47.21875 7.46875 41.1875 3.015625 
Q 35.15625 -1.421875 24.609375 -1.421875 
Q 20.21875 -1.421875 15.453125 -0.5625 
Q 10.6875 0.296875 5.421875 2 
L 5.421875 11.28125 
Q 10.40625 8.6875 15.234375 7.390625 
Q 20.0625 6.109375 24.8125 6.109375 
Q 31.15625 6.109375 34.5625 8.28125 
Q 37.984375 10.453125 37.984375 14.40625 
Q 37.984375 18.0625 35.515625 20.015625 
Q 33.0625 21.96875 24.703125 23.78125 
L 21.578125 24.515625 
Q 13.234375 26.265625 9.515625 29.90625 
Q 5.8125 33.546875 5.8125 39.890625 
Q 5.8125 47.609375 11.28125 51.796875 
Q 16.75 56 26.8125 56 
Q 31.78125 56 36.171875 55.265625 
Q 40.578125 54.546875 44.28125 53.078125 
z
" id="DejaVuSans-115"/>
      </defs>
      <use xlink:href="#DejaVuSans-84"/>
      <use x="57.958984" xlink:href="#DejaVuSans-105"/>
      <use x="85.742188" xlink:href="#DejaVuSans-114"/>
      <use x="126.855469" xlink:href="#DejaVuSans-97"/>
      <use x="188.134766" xlink:href="#DejaVuSans-100"/>
      <use x="251.611328" xlink:href="#DejaVuSans-97"/>
      <use x="312.890625" xlink:href="#DejaVuSans-115"/>
     </g>
    </g>
   </g>
   <g id="matplotlib.axis_2">
    <g id="ytick_1">
     <g id="line2d_7">
      <defs>
       <path d="M 0 0 
L -3.5 0 
" id="m6f469f5c1d" style="stroke:#000000;stroke-width:0.8;"/>
      </defs>
      <g>
       <use style="stroke:#000000;stroke-width:0.8;" x="57.6" xlink:href="#m6f469f5c1d" y="295.488"/>
      </g>
     </g>
     <g id="text_8">
      <!-- 0.0 -->
      <g transform="translate(34.696875 299.287219)scale(0.1 -0.1)">
       <defs>
        <path d="M 10.6875 12.40625 
L 21 12.40625 
L 21 0 
L 10.6875 0 
z
" id="DejaVuSans-46"/>
       </defs>
       <use xlink:href="#DejaVuSans-48"/>
       <use x="63.623047" xlink:href="#DejaVuSans-46"/>
       <use x="95.410156" xlink:href="#DejaVuSans-48"/>
      </g>
     </g>
    </g>
    <g id="ytick_2">
     <g id="line2d_8">
      <g>
       <use style="stroke:#000000;stroke-width:0.8;" x="57.6" xlink:href="#m6f469f5c1d" y="259.2"/>
      </g>
     </g>
     <g id="text_9">
      <!-- 0.1 -->
      <g transform="translate(34.696875 262.999219)scale(0.1 -0.1)">
       <use xlink:href="#DejaVuSans-48"/>
       <use x="63.623047" xlink:href="#DejaVuSans-46"/>
       <use x="95.410156" xlink:href="#DejaVuSans-49"/>
      </g>
     </g>
    </g>
    <g id="ytick_3">
     <g id="line2d_9">
      <g>
       <use style="stroke:#000000;stroke-width:0.8;" x="57.6" xlink:href="#m6f469f5c1d" y="222.912"/>
      </g>
     </g>
     <g id="text_10">
      <!-- 0.2 -->
      <g transform="translate(34.696875 226.711219)scale(0.1 -0.1)">
       <use xlink:href="#DejaVuSans-48"/>
       <use x="63.623047" xlink:href="#DejaVuSans-46"/>
       <use x="95.410156" xlink:href="#DejaVuSans-50"/>
      </g>
     </g>
    </g>
    <g id="ytick_4">
     <g id="line2d_10">
      <g>
       <use style="stroke:#000000;stroke-width:0.8;" x="57.6" xlink:href="#m6f469f5c1d" y="186.624"/>
      </g>
     </g>
     <g id="text_11">
      <!-- 0.3 -->
      <g transform="translate(34.696875 190.423219)scale(0.1 -0.1)">
       <defs>
        <path d="M 40.578125 39.3125 
Q 47.65625 37.796875 51.625 33 
Q 55.609375 28.21875 55.609375 21.1875 
Q 55.609375 10.40625 48.1875 4.484375 
Q 40.765625 -1.421875 27.09375 -1.421875 
Q 22.515625 -1.421875 17.65625 -0.515625 
Q 12.796875 0.390625 7.625 2.203125 
L 7.625 11.71875 
Q 11.71875 9.328125 16.59375 8.109375 
Q 21.484375 6.890625 26.8125 6.890625 
Q 36.078125 6.890625 40.9375 10.546875 
Q 45.796875 14.203125 45.796875 21.1875 
Q 45.796875 27.640625 41.28125 31.265625 
Q 36.765625 34.90625 28.71875 34.90625 
L 20.21875 34.90625 
L 20.21875 43.015625 
L 29.109375 43.015625 
Q 36.375 43.015625 40.234375 45.921875 
Q 44.09375 48.828125 44.09375 54.296875 
Q 44.09375 59.90625 40.109375 62.90625 
Q 36.140625 65.921875 28.71875 65.921875 
Q 24.65625 65.921875 20.015625 65.03125 
Q 15.375 64.15625 9.8125 62.3125 
L 9.8125 71.09375 
Q 15.4375 72.65625 20.34375 73.4375 
Q 25.25 74.21875 29.59375 74.21875 
Q 40.828125 74.21875 47.359375 69.109375 
Q 53.90625 64.015625 53.90625 55.328125 
Q 53.90625 49.265625 50.4375 45.09375 
Q 46.96875 40.921875 40.578125 39.3125 
z
" id="DejaVuSans-51"/>
       </defs>
       <use xlink:href="#DejaVuSans-48"/>
       <use x="63.623047" xlink:href="#DejaVuSans-46"/>
       <use x="95.410156" xlink:href="#DejaVuSans-51"/>
      </g>
     </g>
    </g>
    <g id="ytick_5">
     <g id="line2d_11">
      <g>
       <use style="stroke:#000000;stroke-width:0.8;" x="57.6" xlink:href="#m6f469f5c1d" y="150.336"/>
      </g>
     </g>
     <g id="text_12">
      <!-- 0.4 -->
      <g transform="translate(34.696875 154.135219)scale(0.1 -0.1)">
       <use xlink:href="#DejaVuSans-48"/>
       <use x="63.623047" xlink:href="#DejaVuSans-46"/>
       <use x="95.410156" xlink:href="#DejaVuSans-52"/>
      </g>
     </g>
    </g>
    <g id="ytick_6">
     <g id="line2d_12">
      <g>
       <use style="stroke:#000000;stroke-width:0.8;" x="57.6" xlink:href="#m6f469f5c1d" y="114.048"/>
      </g>
     </g>
     <g id="text_13">
      <!-- 0.5 -->
      <g transform="translate(34.696875 117.847219)scale(0.1 -0.1)">
       <defs>
        <path d="M 10.796875 72.90625 
L 49.515625 72.90625 
L 49.515625 64.59375 
L 19.828125 64.59375 
L 19.828125 46.734375 
Q 21.96875 47.46875 24.109375 47.828125 
Q 26.265625 48.1875 28.421875 48.1875 
Q 40.625 48.1875 47.75 41.5 
Q 54.890625 34.8125 54.890625 23.390625 
Q 54.890625 11.625 47.5625 5.09375 
Q 40.234375 -1.421875 26.90625 -1.421875 
Q 22.3125 -1.421875 17.546875 -0.640625 
Q 12.796875 0.140625 7.71875 1.703125 
L 7.71875 11.625 
Q 12.109375 9.234375 16.796875 8.0625 
Q 21.484375 6.890625 26.703125 6.890625 
Q 35.15625 6.890625 40.078125 11.328125 
Q 45.015625 15.765625 45.015625 23.390625 
Q 45.015625 31 40.078125 35.4375 
Q 35.15625 39.890625 26.703125 39.890625 
Q 22.75 39.890625 18.8125 39.015625 
Q 14.890625 38.140625 10.796875 36.28125 
z
" id="DejaVuSans-53"/>
       </defs>
       <use xlink:href="#DejaVuSans-48"/>
       <use x="63.623047" xlink:href="#DejaVuSans-46"/>
       <use x="95.410156" xlink:href="#DejaVuSans-53"/>
      </g>
     </g>
    </g>
    <g id="ytick_7">
     <g id="line2d_13">
      <g>
       <use style="stroke:#000000;stroke-width:0.8;" x="57.6" xlink:href="#m6f469f5c1d" y="77.76"/>
      </g>
     </g>
     <g id="text_14">
      <!-- 0.6 -->
      <g transform="translate(34.696875 81.559219)scale(0.1 -0.1)">
       <use xlink:href="#DejaVuSans-48"/>
       <use x="63.623047" xlink:href="#DejaVuSans-46"/>
       <use x="95.410156" xlink:href="#DejaVuSans-54"/>
      </g>
     </g>
    </g>
    <g id="ytick_8">
     <g id="line2d_14">
      <g>
       <use style="stroke:#000000;stroke-width:0.8;" x="57.6" xlink:href="#m6f469f5c1d" y="41.472"/>
      </g>
     </g>
     <g id="text_15">
      <!-- 0.7 -->
      <g transform="translate(34.696875 45.271219)scale(0.1 -0.1)">
       <defs>
        <path d="M 8.203125 72.90625 
L 55.078125 72.90625 
L 55.078125 68.703125 
L 28.609375 0 
L 18.3125 0 
L 43.21875 64.59375 
L 8.203125 64.59375 
z
" id="DejaVuSans-55"/>
       </defs>
       <use xlink:href="#DejaVuSans-48"/>
       <use x="63.623047" xlink:href="#DejaVuSans-46"/>
       <use x="95.410156" xlink:href="#DejaVuSans-55"/>
      </g>
     </g>
    </g>
    <g id="text_16">
     <!-- Frecuencias relativas -->
     <g transform="translate(28.617187 227.070188)rotate(-90)scale(0.1 -0.1)">
      <defs>
       <path d="M 9.8125 72.90625 
L 51.703125 72.90625 
L 51.703125 64.59375 
L 19.671875 64.59375 
L 19.671875 43.109375 
L 48.578125 43.109375 
L 48.578125 34.8125 
L 19.671875 34.8125 
L 19.671875 0 
L 9.8125 0 
z
" id="DejaVuSans-70"/>
       <path d="M 56.203125 29.59375 
L 56.203125 25.203125 
L 14.890625 25.203125 
Q 15.484375 15.921875 20.484375 11.0625 
Q 25.484375 6.203125 34.421875 6.203125 
Q 39.59375 6.203125 44.453125 7.46875 
Q 49.3125 8.734375 54.109375 11.28125 
L 54.109375 2.78125 
Q 49.265625 0.734375 44.1875 -0.34375 
Q 39.109375 -1.421875 33.890625 -1.421875 
Q 20.796875 -1.421875 13.15625 6.1875 
Q 5.515625 13.8125 5.515625 26.8125 
Q 5.515625 40.234375 12.765625 48.109375 
Q 20.015625 56 32.328125 56 
Q 43.359375 56 49.78125 48.890625 
Q 56.203125 41.796875 56.203125 29.59375 
z
M 47.21875 32.234375 
Q 47.125 39.59375 43.09375 43.984375 
Q 39.0625 48.390625 32.421875 48.390625 
Q 24.90625 48.390625 20.390625 44.140625 
Q 15.875 39.890625 15.1875 32.171875 
z
" id="DejaVuSans-101"/>
       <path d="M 48.78125 52.59375 
L 48.78125 44.1875 
Q 44.96875 46.296875 41.140625 47.34375 
Q 37.3125 48.390625 33.40625 48.390625 
Q 24.65625 48.390625 19.8125 42.84375 
Q 14.984375 37.3125 14.984375 27.296875 
Q 14.984375 17.28125 19.8125 11.734375 
Q 24.65625 6.203125 33.40625 6.203125 
Q 37.3125 6.203125 41.140625 7.25 
Q 44.96875 8.296875 48.78125 10.40625 
L 48.78125 2.09375 
Q 45.015625 0.34375 40.984375 -0.53125 
Q 36.96875 -1.421875 32.421875 -1.421875 
Q 20.0625 -1.421875 12.78125 6.34375 
Q 5.515625 14.109375 5.515625 27.296875 
Q 5.515625 40.671875 12.859375 48.328125 
Q 20.21875 56 33.015625 56 
Q 37.15625 56 41.109375 55.140625 
Q 45.0625 54.296875 48.78125 52.59375 
z
" id="DejaVuSans-99"/>
       <path d="M 8.5 21.578125 
L 8.5 54.6875 
L 17.484375 54.6875 
L 17.484375 21.921875 
Q 17.484375 14.15625 20.5 10.265625 
Q 23.53125 6.390625 29.59375 6.390625 
Q 36.859375 6.390625 41.078125 11.03125 
Q 45.3125 15.671875 45.3125 23.6875 
L 45.3125 54.6875 
L 54.296875 54.6875 
L 54.296875 0 
L 45.3125 0 
L 45.3125 8.40625 
Q 42.046875 3.421875 37.71875 1 
Q 33.40625 -1.421875 27.6875 -1.421875 
Q 18.265625 -1.421875 13.375 4.4375 
Q 8.5 10.296875 8.5 21.578125 
z
M 31.109375 56 
z
" id="DejaVuSans-117"/>
       <path d="M 54.890625 33.015625 
L 54.890625 0 
L 45.90625 0 
L 45.90625 32.71875 
Q 45.90625 40.484375 42.875 44.328125 
Q 39.84375 48.1875 33.796875 48.1875 
Q 26.515625 48.1875 22.3125 43.546875 
Q 18.109375 38.921875 18.109375 30.90625 
L 18.109375 0 
L 9.078125 0 
L 9.078125 54.6875 
L 18.109375 54.6875 
L 18.109375 46.1875 
Q 21.34375 51.125 25.703125 53.5625 
Q 30.078125 56 35.796875 56 
Q 45.21875 56 50.046875 50.171875 
Q 54.890625 44.34375 54.890625 33.015625 
z
" id="DejaVuSans-110"/>
       <path id="DejaVuSans-32"/>
       <path d="M 9.421875 75.984375 
L 18.40625 75.984375 
L 18.40625 0 
L 9.421875 0 
z
" id="DejaVuSans-108"/>
       <path d="M 18.3125 70.21875 
L 18.3125 54.6875 
L 36.8125 54.6875 
L 36.8125 47.703125 
L 18.3125 47.703125 
L 18.3125 18.015625 
Q 18.3125 11.328125 20.140625 9.421875 
Q 21.96875 7.515625 27.59375 7.515625 
L 36.8125 7.515625 
L 36.8125 0 
L 27.59375 0 
Q 17.1875 0 13.234375 3.875 
Q 9.28125 7.765625 9.28125 18.015625 
L 9.28125 47.703125 
L 2.6875 47.703125 
L 2.6875 54.6875 
L 9.28125 54.6875 
L 9.28125 70.21875 
z
" id="DejaVuSans-116"/>
       <path d="M 2.984375 54.6875 
L 12.5 54.6875 
L 29.59375 8.796875 
L 46.6875 54.6875 
L 56.203125 54.6875 
L 35.6875 0 
L 23.484375 0 
z
" id="DejaVuSans-118"/>
      </defs>
      <use xlink:href="#DejaVuSans-70"/>
      <use x="50.269531" xlink:href="#DejaVuSans-114"/>
      <use x="89.132812" xlink:href="#DejaVuSans-101"/>
      <use x="150.65625" xlink:href="#DejaVuSans-99"/>
      <use x="205.636719" xlink:href="#DejaVuSans-117"/>
      <use x="269.015625" xlink:href="#DejaVuSans-101"/>
      <use x="330.539062" xlink:href="#DejaVuSans-110"/>
      <use x="393.917969" xlink:href="#DejaVuSans-99"/>
      <use x="448.898438" xlink:href="#DejaVuSans-105"/>
      <use x="476.681641" xlink:href="#DejaVuSans-97"/>
      <use x="537.960938" xlink:href="#DejaVuSans-115"/>
      <use x="590.060547" xlink:href="#DejaVuSans-32"/>
      <use x="621.847656" xlink:href="#DejaVuSans-114"/>
      <use x="660.710938" xlink:href="#DejaVuSans-101"/>
      <use x="722.234375" xlink:href="#DejaVuSans-108"/>
      <use x="750.017578" xlink:href="#DejaVuSans-97"/>
      <use x="811.296875" xlink:href="#DejaVuSans-116"/>
      <use x="850.505859" xlink:href="#DejaVuSans-105"/>
      <use x="878.289062" xlink:href="#DejaVuSans-118"/>
      <use x="937.46875" xlink:href="#DejaVuSans-97"/>
      <use x="998.748047" xlink:href="#DejaVuSans-115"/>
     </g>
    </g>
   </g>
   <g id="line2d_15">
    <path clip-path="url(#pbb2eab2766)" d="M 73.832727 295.488 
L 77.112066 295.488 
L 80.391405 174.528 
L 83.670744 204.768 
L 86.950083 222.912 
L 90.229421 235.008 
L 93.50876 243.648 
L 96.788099 250.128 
L 100.067438 214.848 
L 103.346777 222.912 
L 106.626116 229.509818 
L 109.905455 235.008 
L 113.184793 239.660308 
L 116.464132 243.648 
L 119.743471 247.104 
L 123.02281 250.128 
L 126.302149 231.450353 
L 129.581488 214.848 
L 132.860826 219.092211 
L 136.140165 204.768 
L 139.419504 191.808 
L 142.698843 196.520727 
L 145.978182 200.823652 
L 149.257521 189.648 
L 152.53686 193.8816 
L 155.816198 197.789538 
L 159.095537 201.408 
L 162.374876 191.808 
L 165.654215 195.383172 
L 168.933554 186.624 
L 172.212893 190.135742 
L 175.492231 193.428 
L 178.77157 196.520727 
L 182.050909 199.431529 
L 185.330248 202.176 
L 188.609587 204.768 
L 191.888926 207.219892 
L 195.168264 209.542737 
L 198.447603 211.746462 
L 201.726942 213.84 
L 205.006281 215.831415 
L 208.28562 217.728 
L 211.564959 219.536372 
L 214.844298 221.262545 
L 218.123636 222.912 
L 221.402975 224.489739 
L 224.682314 226.00034 
L 227.961653 227.448 
L 231.240992 228.836571 
L 234.520331 230.1696 
L 237.799669 231.450353 
L 241.079008 232.681846 
L 244.358347 233.866868 
L 247.637686 235.008 
L 250.917025 236.107636 
L 254.196364 237.168 
L 257.475702 238.191158 
L 260.755041 239.179034 
L 264.03438 240.133424 
L 267.313719 241.056 
L 270.593058 241.948328 
L 273.872397 242.811871 
L 277.151736 243.648 
L 280.431074 244.458 
L 283.710413 245.243077 
L 286.989752 246.004364 
L 290.269091 246.742925 
L 293.54843 247.459765 
L 296.827769 248.155826 
L 300.107107 248.832 
L 303.386446 249.489127 
L 306.665785 250.128 
L 309.945124 250.74937 
L 313.224463 251.353946 
L 316.503802 251.9424 
L 319.78314 252.515368 
L 323.062479 253.073455 
L 326.341818 253.617231 
L 329.621157 254.147241 
L 332.900496 254.664 
L 336.179835 255.168 
L 339.459174 255.659707 
L 342.738512 256.139566 
L 346.017851 256.608 
L 349.29719 257.065412 
L 352.576529 257.512186 
L 355.855868 257.94869 
L 359.135207 258.375273 
L 362.414545 258.79227 
L 365.693884 259.2 
L 368.973223 259.598769 
L 372.252562 259.98887 
L 375.531901 260.370581 
L 378.81124 260.74417 
L 382.090579 261.109895 
L 385.369917 261.468 
L 388.649256 261.818722 
L 391.928595 262.162286 
L 395.207934 262.498909 
L 398.487273 262.8288 
" style="fill:none;stroke:#1f77b4;stroke-linecap:square;stroke-width:1.5;"/>
   </g>
   <g id="line2d_16">
    <path clip-path="url(#pbb2eab2766)" d="M 73.832727 295.488 
L 77.112066 295.488 
L 80.391405 295.488 
L 83.670744 204.768 
L 86.950083 222.912 
L 90.229421 174.528 
L 93.50876 191.808 
L 96.788099 204.768 
L 100.067438 174.528 
L 103.346777 186.624 
L 106.626116 163.531636 
L 109.905455 144.288 
L 113.184793 128.004923 
L 116.464132 139.968 
L 119.743471 126.144 
L 123.02281 136.728 
L 126.302149 146.066824 
L 129.581488 134.208 
L 132.860826 123.597474 
L 136.140165 132.192 
L 139.419504 139.968 
L 142.698843 147.037091 
L 145.978182 137.714087 
L 149.257521 144.288 
L 152.53686 150.336 
L 155.816198 141.961846 
L 159.095537 147.648 
L 162.374876 152.928 
L 165.654215 157.843862 
L 168.933554 162.432 
L 172.212893 166.724129 
L 175.492231 159.408 
L 178.77157 163.531636 
L 182.050909 167.412706 
L 185.330248 171.072 
L 188.609587 164.448 
L 191.888926 167.989622 
L 195.168264 161.795368 
L 198.447603 165.223385 
L 201.726942 168.48 
L 205.006281 171.577756 
L 208.28562 174.528 
L 211.564959 168.901953 
L 214.844298 171.778909 
L 218.123636 174.528 
L 221.402975 177.157565 
L 224.682314 179.675234 
L 227.961653 182.088 
L 231.240992 184.402286 
L 234.520331 186.624 
L 237.799669 188.758588 
L 241.079008 190.811077 
L 244.358347 192.786113 
L 247.637686 194.688 
L 250.917025 196.520727 
L 254.196364 198.288 
L 257.475702 199.993263 
L 260.755041 201.639724 
L 264.03438 203.230373 
L 267.313719 204.768 
L 270.593058 206.255213 
L 273.872397 207.694452 
L 277.151736 209.088 
L 280.431074 210.438 
L 283.710413 211.746462 
L 286.989752 213.015273 
L 290.269091 214.246209 
L 293.54843 215.440941 
L 296.827769 216.601043 
L 300.107107 217.728 
L 303.386446 218.823211 
L 306.665785 219.888 
L 309.945124 220.923616 
L 313.224463 221.931243 
L 316.503802 222.912 
L 319.78314 223.866947 
L 323.062479 224.797091 
L 326.341818 225.703385 
L 329.621157 226.586734 
L 332.900496 227.448 
L 336.179835 228.288 
L 339.459174 229.107512 
L 342.738512 229.907277 
L 346.017851 230.688 
L 349.29719 231.450353 
L 352.576529 232.194977 
L 355.855868 232.922483 
L 359.135207 233.633455 
L 362.414545 234.328449 
L 365.693884 235.008 
L 368.973223 235.672615 
L 372.252562 236.322783 
L 375.531901 236.958968 
L 378.81124 237.581617 
L 382.090579 238.191158 
L 385.369917 238.788 
L 388.649256 239.372536 
L 391.928595 239.945143 
L 395.207934 240.506182 
L 398.487273 241.056 
" style="fill:none;stroke:#ff7f0e;stroke-linecap:square;stroke-width:1.5;"/>
   </g>
   <g id="line2d_17">
    <path clip-path="url(#pbb2eab2766)" d="M 73.832727 295.488 
L 77.112066 295.488 
L 80.391405 295.488 
L 83.670744 295.488 
L 86.950083 295.488 
L 90.229421 295.488 
L 93.50876 243.648 
L 96.788099 250.128 
L 100.067438 255.168 
L 103.346777 259.2 
L 106.626116 229.509818 
L 109.905455 235.008 
L 113.184793 239.660308 
L 116.464132 243.648 
L 119.743471 247.104 
L 123.02281 227.448 
L 126.302149 210.104471 
L 129.581488 214.848 
L 132.860826 219.092211 
L 136.140165 204.768 
L 139.419504 209.088 
L 142.698843 196.520727 
L 145.978182 200.823652 
L 149.257521 189.648 
L 152.53686 179.3664 
L 155.816198 183.832615 
L 159.095537 187.968 
L 162.374876 191.808 
L 165.654215 195.383172 
L 168.933554 198.72 
L 172.212893 201.841548 
L 175.492231 204.768 
L 178.77157 207.517091 
L 182.050909 210.104471 
L 185.330248 212.544 
L 188.609587 214.848 
L 191.888926 217.027459 
L 195.168264 219.092211 
L 198.447603 221.051077 
L 201.726942 222.912 
L 205.006281 224.682146 
L 208.28562 226.368 
L 211.564959 227.975442 
L 214.844298 229.509818 
L 218.123636 230.976 
L 221.402975 232.378435 
L 224.682314 233.721191 
L 227.961653 235.008 
L 231.240992 236.242286 
L 234.520331 237.4272 
L 237.799669 238.565647 
L 241.079008 239.660308 
L 244.358347 240.71366 
L 247.637686 241.728 
L 250.917025 242.705455 
L 254.196364 243.648 
L 257.475702 244.557474 
L 260.755041 245.435586 
L 264.03438 246.283932 
L 267.313719 247.104 
L 270.593058 247.89718 
L 273.872397 248.664774 
L 277.151736 249.408 
L 280.431074 250.128 
L 283.710413 250.825846 
L 286.989752 251.502545 
L 290.269091 252.159045 
L 293.54843 252.796235 
L 296.827769 253.414957 
L 300.107107 254.016 
L 303.386446 254.600113 
L 306.665785 255.168 
L 309.945124 255.720329 
L 313.224463 256.25773 
L 316.503802 256.7808 
L 319.78314 257.290105 
L 323.062479 257.786182 
L 326.341818 258.269538 
L 329.621157 258.740658 
L 332.900496 259.2 
L 336.179835 259.648 
L 339.459174 260.085073 
L 342.738512 260.511614 
L 346.017851 260.928 
L 349.29719 261.334588 
L 352.576529 261.731721 
L 355.855868 262.119724 
L 359.135207 262.498909 
L 362.414545 262.869573 
L 365.693884 263.232 
L 368.973223 263.586462 
L 372.252562 263.933217 
L 375.531901 264.272516 
L 378.81124 264.604596 
L 382.090579 264.929684 
L 385.369917 265.248 
L 388.649256 265.559753 
L 391.928595 265.865143 
L 395.207934 266.164364 
L 398.487273 266.4576 
" style="fill:none;stroke:#2ca02c;stroke-linecap:square;stroke-width:1.5;"/>
   </g>
   <g id="line2d_18">
    <path clip-path="url(#pbb2eab2766)" d="M 73.832727 295.488 
L 77.112066 295.488 
L 80.391405 295.488 
L 83.670744 204.768 
L 86.950083 222.912 
L 90.229421 235.008 
L 93.50876 243.648 
L 96.788099 204.768 
L 100.067438 214.848 
L 103.346777 222.912 
L 106.626116 229.509818 
L 109.905455 204.768 
L 113.184793 211.746462 
L 116.464132 191.808 
L 119.743471 174.528 
L 123.02281 182.088 
L 126.302149 167.412706 
L 129.581488 174.528 
L 132.860826 180.894316 
L 136.140165 186.624 
L 139.419504 191.808 
L 142.698843 180.026182 
L 145.978182 185.046261 
L 149.257521 189.648 
L 152.53686 193.8816 
L 155.816198 197.789538 
L 159.095537 201.408 
L 162.374876 191.808 
L 165.654215 182.870069 
L 168.933554 186.624 
L 172.212893 178.429935 
L 175.492231 182.088 
L 178.77157 185.524364 
L 182.050909 188.758588 
L 185.330248 191.808 
L 188.609587 184.608 
L 191.888926 177.797189 
L 195.168264 180.894316 
L 198.447603 183.832615 
L 201.726942 177.552 
L 205.006281 180.428488 
L 208.28562 174.528 
L 211.564959 177.341023 
L 214.844298 180.026182 
L 218.123636 182.592 
L 221.402975 185.046261 
L 224.682314 187.396085 
L 227.961653 189.648 
L 231.240992 191.808 
L 234.520331 193.8816 
L 237.799669 195.873882 
L 241.079008 197.789538 
L 244.358347 199.632906 
L 247.637686 201.408 
L 250.917025 203.118545 
L 254.196364 204.768 
L 257.475702 206.359579 
L 260.755041 207.896276 
L 264.03438 209.380881 
L 267.313719 210.816 
L 270.593058 212.204066 
L 273.872397 213.547355 
L 277.151736 214.848 
L 280.431074 216.108 
L 283.710413 217.329231 
L 286.989752 218.513455 
L 290.269091 219.662328 
L 293.54843 220.777412 
L 296.827769 221.860174 
L 300.107107 222.912 
L 303.386446 223.934197 
L 306.665785 224.928 
L 309.945124 225.894575 
L 313.224463 226.835027 
L 316.503802 227.7504 
L 319.78314 228.641684 
L 323.062479 229.509818 
L 326.341818 230.355692 
L 329.621157 231.180152 
L 332.900496 231.984 
L 336.179835 232.768 
L 339.459174 233.532878 
L 342.738512 234.279325 
L 346.017851 235.008 
L 349.29719 235.719529 
L 352.576529 236.414512 
L 355.855868 237.093517 
L 359.135207 237.757091 
L 362.414545 238.405753 
L 365.693884 239.04 
L 368.973223 239.660308 
L 372.252562 240.26713 
L 375.531901 240.860903 
L 378.81124 241.442043 
L 382.090579 242.010947 
L 385.369917 242.568 
L 388.649256 243.113567 
L 391.928595 243.648 
L 395.207934 244.171636 
L 398.487273 244.6848 
" style="fill:none;stroke:#d62728;stroke-linecap:square;stroke-width:1.5;"/>
   </g>
   <g id="line2d_19">
    <path clip-path="url(#pbb2eab2766)" d="M 73.832727 295.488 
L 77.112066 295.488 
L 80.391405 295.488 
L 83.670744 295.488 
L 86.950083 222.912 
L 90.229421 235.008 
L 93.50876 243.648 
L 96.788099 250.128 
L 100.067438 214.848 
L 103.346777 222.912 
L 106.626116 229.509818 
L 109.905455 235.008 
L 113.184793 239.660308 
L 116.464132 243.648 
L 119.743471 247.104 
L 123.02281 227.448 
L 126.302149 231.450353 
L 129.581488 235.008 
L 132.860826 238.191158 
L 136.140165 241.056 
L 139.419504 243.648 
L 142.698843 246.004364 
L 145.978182 248.155826 
L 149.257521 250.128 
L 152.53686 251.9424 
L 155.816198 253.617231 
L 159.095537 255.168 
L 162.374876 256.608 
L 165.654215 257.94869 
L 168.933554 259.2 
L 172.212893 260.370581 
L 175.492231 261.468 
L 178.77157 262.498909 
L 182.050909 263.469176 
L 185.330248 264.384 
L 188.609587 265.248 
L 191.888926 266.065297 
L 195.168264 266.839579 
L 198.447603 267.574154 
L 201.726942 268.272 
L 205.006281 268.935805 
L 208.28562 269.568 
L 211.564959 270.170791 
L 214.844298 270.746182 
L 218.123636 271.296 
L 221.402975 271.821913 
L 224.682314 272.325447 
L 227.961653 272.808 
L 231.240992 273.270857 
L 234.520331 273.7152 
L 237.799669 274.142118 
L 241.079008 274.552615 
L 244.358347 274.947623 
L 247.637686 275.328 
L 250.917025 275.694545 
L 254.196364 276.048 
L 257.475702 276.389053 
L 260.755041 276.718345 
L 264.03438 277.036475 
L 267.313719 277.344 
L 270.593058 277.641443 
L 273.872397 277.92929 
L 277.151736 278.208 
L 280.431074 278.478 
L 283.710413 278.739692 
L 286.989752 278.993455 
L 290.269091 279.239642 
L 293.54843 279.478588 
L 296.827769 279.710609 
L 300.107107 279.936 
L 303.386446 280.155042 
L 306.665785 280.368 
L 309.945124 280.575123 
L 313.224463 280.776649 
L 316.503802 280.9728 
L 319.78314 281.163789 
L 323.062479 281.349818 
L 326.341818 281.531077 
L 329.621157 281.707747 
L 332.900496 281.88 
L 336.179835 282.048 
L 339.459174 282.211902 
L 342.738512 282.371855 
L 346.017851 282.528 
L 349.29719 282.680471 
L 352.576529 282.829395 
L 355.855868 282.974897 
L 359.135207 283.117091 
L 362.414545 283.25609 
L 365.693884 283.392 
L 368.973223 283.524923 
L 372.252562 283.654957 
L 375.531901 283.782194 
L 378.81124 283.906723 
L 382.090579 284.028632 
L 385.369917 284.148 
L 388.649256 284.264907 
L 391.928595 284.379429 
L 395.207934 284.491636 
L 398.487273 284.6016 
" style="fill:none;stroke:#9467bd;stroke-linecap:square;stroke-width:1.5;"/>
   </g>
   <g id="line2d_20">
    <path clip-path="url(#pbb2eab2766)" d="M 73.832727 295.488 
L 77.112066 295.488 
L 80.391405 295.488 
L 83.670744 295.488 
L 86.950083 222.912 
L 90.229421 235.008 
L 93.50876 243.648 
L 96.788099 250.128 
L 100.067438 214.848 
L 103.346777 222.912 
L 106.626116 196.520727 
L 109.905455 174.528 
L 113.184793 183.832615 
L 116.464132 191.808 
L 119.743471 174.528 
L 123.02281 182.088 
L 126.302149 167.412706 
L 129.581488 174.528 
L 132.860826 180.894316 
L 136.140165 186.624 
L 139.419504 174.528 
L 142.698843 180.026182 
L 145.978182 185.046261 
L 149.257521 189.648 
L 152.53686 193.8816 
L 155.816198 197.789538 
L 159.095537 187.968 
L 162.374876 191.808 
L 165.654215 195.383172 
L 168.933554 198.72 
L 172.212893 201.841548 
L 175.492231 204.768 
L 178.77157 207.517091 
L 182.050909 210.104471 
L 185.330248 212.544 
L 188.609587 214.848 
L 191.888926 217.027459 
L 195.168264 219.092211 
L 198.447603 221.051077 
L 201.726942 222.912 
L 205.006281 224.682146 
L 208.28562 226.368 
L 211.564959 227.975442 
L 214.844298 229.509818 
L 218.123636 230.976 
L 221.402975 232.378435 
L 224.682314 233.721191 
L 227.961653 235.008 
L 231.240992 236.242286 
L 234.520331 237.4272 
L 237.799669 238.565647 
L 241.079008 239.660308 
L 244.358347 240.71366 
L 247.637686 241.728 
L 250.917025 242.705455 
L 254.196364 243.648 
L 257.475702 244.557474 
L 260.755041 245.435586 
L 264.03438 246.283932 
L 267.313719 247.104 
L 270.593058 247.89718 
L 273.872397 248.664774 
L 277.151736 249.408 
L 280.431074 250.128 
L 283.710413 250.825846 
L 286.989752 251.502545 
L 290.269091 252.159045 
L 293.54843 252.796235 
L 296.827769 253.414957 
L 300.107107 254.016 
L 303.386446 254.600113 
L 306.665785 255.168 
L 309.945124 255.720329 
L 313.224463 256.25773 
L 316.503802 256.7808 
L 319.78314 257.290105 
L 323.062479 257.786182 
L 326.341818 258.269538 
L 329.621157 258.740658 
L 332.900496 259.2 
L 336.179835 259.648 
L 339.459174 260.085073 
L 342.738512 260.511614 
L 346.017851 260.928 
L 349.29719 261.334588 
L 352.576529 261.731721 
L 355.855868 262.119724 
L 359.135207 262.498909 
L 362.414545 262.869573 
L 365.693884 263.232 
L 368.973223 263.586462 
L 372.252562 263.933217 
L 375.531901 264.272516 
L 378.81124 264.604596 
L 382.090579 264.929684 
L 385.369917 265.248 
L 388.649256 265.559753 
L 391.928595 265.865143 
L 395.207934 266.164364 
L 398.487273 266.4576 
" style="fill:none;stroke:#8c564b;stroke-linecap:square;stroke-width:1.5;"/>
   </g>
   <g id="line2d_21">
    <path clip-path="url(#pbb2eab2766)" d="M 73.832727 295.488 
L 77.112066 295.488 
L 80.391405 295.488 
L 83.670744 295.488 
L 86.950083 295.488 
L 90.229421 295.488 
L 93.50876 295.488 
L 96.788099 295.488 
L 100.067438 255.168 
L 103.346777 259.2 
L 106.626116 262.498909 
L 109.905455 265.248 
L 113.184793 267.574154 
L 116.464132 269.568 
L 119.743471 271.296 
L 123.02281 272.808 
L 126.302149 274.142118 
L 129.581488 275.328 
L 132.860826 276.389053 
L 136.140165 277.344 
L 139.419504 278.208 
L 142.698843 278.993455 
L 145.978182 279.710609 
L 149.257521 280.368 
L 152.53686 280.9728 
L 155.816198 281.531077 
L 159.095537 282.048 
L 162.374876 282.528 
L 165.654215 282.974897 
L 168.933554 283.392 
L 172.212893 283.782194 
L 175.492231 284.148 
L 178.77157 284.491636 
L 182.050909 284.815059 
L 185.330248 285.12 
L 188.609587 285.408 
L 191.888926 285.680432 
L 195.168264 285.938526 
L 198.447603 286.183385 
L 201.726942 286.416 
L 205.006281 286.637268 
L 208.28562 286.848 
L 211.564959 287.04893 
L 214.844298 287.240727 
L 218.123636 287.424 
L 221.402975 287.599304 
L 224.682314 287.767149 
L 227.961653 287.928 
L 231.240992 288.082286 
L 234.520331 288.2304 
L 237.799669 288.372706 
L 241.079008 288.509538 
L 244.358347 288.641208 
L 247.637686 288.768 
L 250.917025 288.890182 
L 254.196364 289.008 
L 257.475702 289.121684 
L 260.755041 289.231448 
L 264.03438 289.337492 
L 267.313719 289.44 
L 270.593058 289.539148 
L 273.872397 289.635097 
L 277.151736 289.728 
L 280.431074 289.818 
L 283.710413 289.905231 
L 286.989752 289.989818 
L 290.269091 290.071881 
L 293.54843 290.151529 
L 296.827769 290.22887 
L 300.107107 290.304 
L 303.386446 290.377014 
L 306.665785 290.448 
L 309.945124 290.517041 
L 313.224463 290.584216 
L 316.503802 290.6496 
L 319.78314 290.713263 
L 323.062479 290.775273 
L 326.341818 290.835692 
L 329.621157 290.894582 
L 332.900496 290.952 
L 336.179835 291.008 
L 339.459174 291.062634 
L 342.738512 291.115952 
L 346.017851 291.168 
L 349.29719 291.218824 
L 352.576529 291.268465 
L 355.855868 291.316966 
L 359.135207 291.364364 
L 362.414545 291.410697 
L 365.693884 291.456 
L 368.973223 291.500308 
L 372.252562 291.543652 
L 375.531901 291.586065 
L 378.81124 291.627574 
L 382.090579 291.668211 
L 385.369917 291.708 
L 388.649256 291.746969 
L 391.928595 291.785143 
L 395.207934 291.822545 
L 398.487273 291.8592 
" style="fill:none;stroke:#e377c2;stroke-linecap:square;stroke-width:1.5;"/>
   </g>
   <g id="line2d_22">
    <path clip-path="url(#pbb2eab2766)" d="M 73.832727 295.488 
L 77.112066 114.048 
L 80.391405 53.568 
L 83.670744 114.048 
L 86.950083 150.336 
L 90.229421 174.528 
L 93.50876 191.808 
L 96.788099 159.408 
L 100.067438 134.208 
L 103.346777 150.336 
L 106.626116 130.542545 
L 109.905455 144.288 
L 113.184793 155.918769 
L 116.464132 139.968 
L 119.743471 150.336 
L 123.02281 136.728 
L 126.302149 146.066824 
L 129.581488 154.368 
L 132.860826 161.795368 
L 136.140165 168.48 
L 139.419504 174.528 
L 142.698843 180.026182 
L 145.978182 169.26887 
L 149.257521 174.528 
L 152.53686 179.3664 
L 155.816198 183.832615 
L 159.095537 174.528 
L 162.374876 178.848 
L 165.654215 170.356966 
L 168.933554 174.528 
L 172.212893 178.429935 
L 175.492231 182.088 
L 178.77157 185.524364 
L 182.050909 178.085647 
L 185.330248 171.072 
L 188.609587 174.528 
L 191.888926 167.989622 
L 195.168264 171.344842 
L 198.447603 174.528 
L 201.726942 177.552 
L 205.006281 180.428488 
L 208.28562 183.168 
L 211.564959 185.780093 
L 214.844298 188.273455 
L 218.123636 190.656 
L 221.402975 192.934957 
L 224.682314 195.116936 
L 227.961653 197.208 
L 231.240992 199.213714 
L 234.520331 201.1392 
L 237.799669 202.989176 
L 241.079008 204.768 
L 244.358347 206.479698 
L 247.637686 208.128 
L 250.917025 209.716364 
L 254.196364 211.248 
L 257.475702 212.725895 
L 260.755041 214.152828 
L 264.03438 215.53139 
L 267.313719 216.864 
L 270.593058 218.152918 
L 273.872397 219.400258 
L 277.151736 220.608 
L 280.431074 221.778 
L 283.710413 222.912 
L 286.989752 224.011636 
L 290.269091 225.078448 
L 293.54843 226.113882 
L 296.827769 227.119304 
L 300.107107 228.096 
L 303.386446 229.045183 
L 306.665785 229.968 
L 309.945124 230.865534 
L 313.224463 231.738811 
L 316.503802 232.5888 
L 319.78314 233.416421 
L 323.062479 234.222545 
L 326.341818 235.008 
L 329.621157 235.77357 
L 332.900496 236.52 
L 336.179835 237.248 
L 339.459174 237.958244 
L 342.738512 238.651373 
L 346.017851 239.328 
L 349.29719 239.988706 
L 352.576529 240.634047 
L 355.855868 241.264552 
L 359.135207 241.880727 
L 362.414545 242.483056 
L 365.693884 243.072 
L 368.973223 243.648 
L 372.252562 244.211478 
L 375.531901 244.762839 
L 378.81124 245.302468 
L 382.090579 245.830737 
L 385.369917 246.348 
L 388.649256 246.854598 
L 391.928595 247.350857 
L 395.207934 247.837091 
L 398.487273 248.3136 
" style="fill:none;stroke:#7f7f7f;stroke-linecap:square;stroke-width:1.5;"/>
   </g>
   <g id="line2d_23">
    <path clip-path="url(#pbb2eab2766)" d="M 73.832727 295.488 
L 77.112066 114.048 
L 80.391405 174.528 
L 83.670744 204.768 
L 86.950083 222.912 
L 90.229421 174.528 
L 93.50876 191.808 
L 96.788099 204.768 
L 100.067438 214.848 
L 103.346777 222.912 
L 106.626116 229.509818 
L 109.905455 204.768 
L 113.184793 211.746462 
L 116.464132 217.728 
L 119.743471 198.72 
L 123.02281 204.768 
L 126.302149 188.758588 
L 129.581488 174.528 
L 132.860826 161.795368 
L 136.140165 168.48 
L 139.419504 157.248 
L 142.698843 163.531636 
L 145.978182 169.26887 
L 149.257521 174.528 
L 152.53686 179.3664 
L 155.816198 183.832615 
L 159.095537 187.968 
L 162.374876 178.848 
L 165.654215 170.356966 
L 168.933554 162.432 
L 172.212893 155.018323 
L 175.492231 159.408 
L 178.77157 163.531636 
L 182.050909 156.739765 
L 185.330248 160.704 
L 188.609587 164.448 
L 191.888926 158.182054 
L 195.168264 161.795368 
L 198.447603 155.918769 
L 201.726942 150.336 
L 205.006281 153.876293 
L 208.28562 148.608 
L 211.564959 143.584744 
L 214.844298 147.037091 
L 218.123636 150.336 
L 221.402975 153.491478 
L 224.682314 148.79183 
L 227.961653 151.848 
L 231.240992 147.373714 
L 234.520331 150.336 
L 237.799669 153.182118 
L 241.079008 155.918769 
L 244.358347 158.552151 
L 247.637686 154.368 
L 250.917025 156.933818 
L 254.196364 152.928 
L 257.475702 155.429053 
L 260.755041 151.58731 
L 264.03438 154.026305 
L 267.313719 156.384 
L 270.593058 158.664393 
L 273.872397 160.871226 
L 277.151736 163.008 
L 280.431074 165.078 
L 283.710413 167.084308 
L 286.989752 169.029818 
L 290.269091 170.917254 
L 293.54843 172.749176 
L 296.827769 174.528 
L 300.107107 176.256 
L 303.386446 177.935324 
L 306.665785 179.568 
L 309.945124 181.155945 
L 313.224463 182.700973 
L 316.503802 184.2048 
L 319.78314 185.669053 
L 323.062479 187.095273 
L 326.341818 188.484923 
L 329.621157 189.839392 
L 332.900496 191.16 
L 336.179835 192.448 
L 339.459174 193.704585 
L 342.738512 194.930892 
L 346.017851 196.128 
L 349.29719 197.296941 
L 352.576529 198.438698 
L 355.855868 199.554207 
L 359.135207 200.644364 
L 362.414545 201.710022 
L 365.693884 202.752 
L 368.973223 203.771077 
L 372.252562 204.768 
L 375.531901 205.743484 
L 378.81124 206.698213 
L 382.090579 207.632842 
L 385.369917 208.548 
L 388.649256 209.444289 
L 391.928595 210.322286 
L 395.207934 211.182545 
L 398.487273 212.0256 
" style="fill:none;stroke:#bcbd22;stroke-linecap:square;stroke-width:1.5;"/>
   </g>
   <g id="line2d_24">
    <path clip-path="url(#pbb2eab2766)" d="M 73.832727 295.488 
L 77.112066 114.048 
L 80.391405 174.528 
L 83.670744 204.768 
L 86.950083 222.912 
L 90.229421 174.528 
L 93.50876 191.808 
L 96.788099 204.768 
L 100.067438 174.528 
L 103.346777 150.336 
L 106.626116 130.542545 
L 109.905455 144.288 
L 113.184793 155.918769 
L 116.464132 165.888 
L 119.743471 174.528 
L 123.02281 159.408 
L 126.302149 167.412706 
L 129.581488 154.368 
L 132.860826 142.696421 
L 136.140165 150.336 
L 139.419504 157.248 
L 142.698843 147.037091 
L 145.978182 153.491478 
L 149.257521 144.288 
L 152.53686 150.336 
L 155.816198 155.918769 
L 159.095537 161.088 
L 162.374876 165.888 
L 165.654215 170.356966 
L 168.933554 162.432 
L 172.212893 166.724129 
L 175.492231 159.408 
L 178.77157 163.531636 
L 182.050909 167.412706 
L 185.330248 171.072 
L 188.609587 164.448 
L 191.888926 167.989622 
L 195.168264 171.344842 
L 198.447603 165.223385 
L 201.726942 168.48 
L 205.006281 162.727024 
L 208.28562 157.248 
L 211.564959 152.023814 
L 214.844298 147.037091 
L 218.123636 142.272 
L 221.402975 145.602783 
L 224.682314 141.070979 
L 227.961653 144.288 
L 231.240992 147.373714 
L 234.520331 150.336 
L 237.799669 153.182118 
L 241.079008 155.918769 
L 244.358347 151.705358 
L 247.637686 154.368 
L 250.917025 156.933818 
L 254.196364 159.408 
L 257.475702 155.429053 
L 260.755041 157.843862 
L 264.03438 160.176814 
L 267.313719 162.432 
L 270.593058 164.613246 
L 273.872397 166.724129 
L 277.151736 168.768 
L 280.431074 170.748 
L 283.710413 172.667077 
L 286.989752 174.528 
L 290.269091 176.333373 
L 293.54843 178.085647 
L 296.827769 179.78713 
L 300.107107 181.44 
L 303.386446 183.04631 
L 306.665785 184.608 
L 309.945124 186.126904 
L 313.224463 187.604757 
L 316.503802 189.0432 
L 319.78314 190.443789 
L 323.062479 191.808 
L 326.341818 193.137231 
L 329.621157 194.43281 
L 332.900496 195.696 
L 336.179835 196.928 
L 339.459174 198.129951 
L 342.738512 199.30294 
L 346.017851 200.448 
L 349.29719 201.566118 
L 352.576529 202.658233 
L 355.855868 203.725241 
L 359.135207 204.768 
L 362.414545 205.787326 
L 365.693884 206.784 
L 368.973223 207.758769 
L 372.252562 208.712348 
L 375.531901 209.645419 
L 378.81124 210.558638 
L 382.090579 211.452632 
L 385.369917 212.328 
L 388.649256 213.18532 
L 391.928595 214.025143 
L 395.207934 214.848 
L 398.487273 215.6544 
" style="fill:none;stroke:#17becf;stroke-linecap:square;stroke-width:1.5;"/>
   </g>
   <g id="patch_3">
    <path d="M 57.6 307.584 
L 57.6 41.472 
" style="fill:none;stroke:#000000;stroke-linecap:square;stroke-linejoin:miter;stroke-width:0.8;"/>
   </g>
   <g id="patch_4">
    <path d="M 414.72 307.584 
L 414.72 41.472 
" style="fill:none;stroke:#000000;stroke-linecap:square;stroke-linejoin:miter;stroke-width:0.8;"/>
   </g>
   <g id="patch_5">
    <path d="M 57.6 307.584 
L 414.72 307.584 
" style="fill:none;stroke:#000000;stroke-linecap:square;stroke-linejoin:miter;stroke-width:0.8;"/>
   </g>
   <g id="patch_6">
    <path d="M 57.6 41.472 
L 414.72 41.472 
" style="fill:none;stroke:#000000;stroke-linecap:square;stroke-linejoin:miter;stroke-width:0.8;"/>
   </g>
   <g id="text_17">
    <!-- Grafico frecuencias relativas docenas fibonacci F.I: $150000.0 -->
    <g transform="translate(50.228438 35.472)scale(0.12 -0.12)">
     <defs>
      <path d="M 59.515625 10.40625 
L 59.515625 29.984375 
L 43.40625 29.984375 
L 43.40625 38.09375 
L 69.28125 38.09375 
L 69.28125 6.78125 
Q 63.578125 2.734375 56.6875 0.65625 
Q 49.8125 -1.421875 42 -1.421875 
Q 24.90625 -1.421875 15.25 8.5625 
Q 5.609375 18.5625 5.609375 36.375 
Q 5.609375 54.25 15.25 64.234375 
Q 24.90625 74.21875 42 74.21875 
Q 49.125 74.21875 55.546875 72.453125 
Q 61.96875 70.703125 67.390625 67.28125 
L 67.390625 56.78125 
Q 61.921875 61.421875 55.765625 63.765625 
Q 49.609375 66.109375 42.828125 66.109375 
Q 29.4375 66.109375 22.71875 58.640625 
Q 16.015625 51.171875 16.015625 36.375 
Q 16.015625 21.625 22.71875 14.15625 
Q 29.4375 6.6875 42.828125 6.6875 
Q 48.046875 6.6875 52.140625 7.59375 
Q 56.25 8.5 59.515625 10.40625 
z
" id="DejaVuSans-71"/>
      <path d="M 37.109375 75.984375 
L 37.109375 68.5 
L 28.515625 68.5 
Q 23.6875 68.5 21.796875 66.546875 
Q 19.921875 64.59375 19.921875 59.515625 
L 19.921875 54.6875 
L 34.71875 54.6875 
L 34.71875 47.703125 
L 19.921875 47.703125 
L 19.921875 0 
L 10.890625 0 
L 10.890625 47.703125 
L 2.296875 47.703125 
L 2.296875 54.6875 
L 10.890625 54.6875 
L 10.890625 58.5 
Q 10.890625 67.625 15.140625 71.796875 
Q 19.390625 75.984375 28.609375 75.984375 
z
" id="DejaVuSans-102"/>
      <path d="M 30.609375 48.390625 
Q 23.390625 48.390625 19.1875 42.75 
Q 14.984375 37.109375 14.984375 27.296875 
Q 14.984375 17.484375 19.15625 11.84375 
Q 23.34375 6.203125 30.609375 6.203125 
Q 37.796875 6.203125 41.984375 11.859375 
Q 46.1875 17.53125 46.1875 27.296875 
Q 46.1875 37.015625 41.984375 42.703125 
Q 37.796875 48.390625 30.609375 48.390625 
z
M 30.609375 56 
Q 42.328125 56 49.015625 48.375 
Q 55.71875 40.765625 55.71875 27.296875 
Q 55.71875 13.875 49.015625 6.21875 
Q 42.328125 -1.421875 30.609375 -1.421875 
Q 18.84375 -1.421875 12.171875 6.21875 
Q 5.515625 13.875 5.515625 27.296875 
Q 5.515625 40.765625 12.171875 48.375 
Q 18.84375 56 30.609375 56 
z
" id="DejaVuSans-111"/>
      <path d="M 48.6875 27.296875 
Q 48.6875 37.203125 44.609375 42.84375 
Q 40.53125 48.484375 33.40625 48.484375 
Q 26.265625 48.484375 22.1875 42.84375 
Q 18.109375 37.203125 18.109375 27.296875 
Q 18.109375 17.390625 22.1875 11.75 
Q 26.265625 6.109375 33.40625 6.109375 
Q 40.53125 6.109375 44.609375 11.75 
Q 48.6875 17.390625 48.6875 27.296875 
z
M 18.109375 46.390625 
Q 20.953125 51.265625 25.265625 53.625 
Q 29.59375 56 35.59375 56 
Q 45.5625 56 51.78125 48.09375 
Q 58.015625 40.1875 58.015625 27.296875 
Q 58.015625 14.40625 51.78125 6.484375 
Q 45.5625 -1.421875 35.59375 -1.421875 
Q 29.59375 -1.421875 25.265625 0.953125 
Q 20.953125 3.328125 18.109375 8.203125 
L 18.109375 0 
L 9.078125 0 
L 9.078125 75.984375 
L 18.109375 75.984375 
z
" id="DejaVuSans-98"/>
      <path d="M 9.8125 72.90625 
L 19.671875 72.90625 
L 19.671875 0 
L 9.8125 0 
z
" id="DejaVuSans-73"/>
      <path d="M 11.71875 12.40625 
L 22.015625 12.40625 
L 22.015625 0 
L 11.71875 0 
z
M 11.71875 51.703125 
L 22.015625 51.703125 
L 22.015625 39.3125 
L 11.71875 39.3125 
z
" id="DejaVuSans-58"/>
      <path d="M 33.796875 -14.703125 
L 28.90625 -14.703125 
L 28.859375 0 
Q 23.734375 0.09375 18.609375 1.1875 
Q 13.484375 2.296875 8.296875 4.5 
L 8.296875 13.28125 
Q 13.28125 10.15625 18.375 8.5625 
Q 23.484375 6.984375 28.90625 6.9375 
L 28.90625 29.203125 
Q 18.109375 30.953125 13.203125 35.15625 
Q 8.296875 39.359375 8.296875 46.6875 
Q 8.296875 54.640625 13.625 59.21875 
Q 18.953125 63.8125 28.90625 64.5 
L 28.90625 75.984375 
L 33.796875 75.984375 
L 33.796875 64.65625 
Q 38.328125 64.453125 42.578125 63.6875 
Q 46.828125 62.9375 50.875 61.625 
L 50.875 53.078125 
Q 46.828125 55.125 42.546875 56.25 
Q 38.28125 57.375 33.796875 57.5625 
L 33.796875 36.71875 
Q 44.875 35.015625 50.09375 30.609375 
Q 55.328125 26.21875 55.328125 18.609375 
Q 55.328125 10.359375 49.78125 5.59375 
Q 44.234375 0.828125 33.796875 0.09375 
z
M 28.90625 37.59375 
L 28.90625 57.625 
Q 23.25 56.984375 20.265625 54.390625 
Q 17.28125 51.8125 17.28125 47.515625 
Q 17.28125 43.3125 20.03125 40.96875 
Q 22.796875 38.625 28.90625 37.59375 
z
M 33.796875 28.21875 
L 33.796875 7.078125 
Q 39.984375 7.90625 43.140625 10.59375 
Q 46.296875 13.28125 46.296875 17.671875 
Q 46.296875 21.96875 43.28125 24.5 
Q 40.28125 27.046875 33.796875 28.21875 
z
" id="DejaVuSans-36"/>
     </defs>
     <use xlink:href="#DejaVuSans-71"/>
     <use x="77.490234" xlink:href="#DejaVuSans-114"/>
     <use x="118.603516" xlink:href="#DejaVuSans-97"/>
     <use x="179.882812" xlink:href="#DejaVuSans-102"/>
     <use x="215.087891" xlink:href="#DejaVuSans-105"/>
     <use x="242.871094" xlink:href="#DejaVuSans-99"/>
     <use x="297.851562" xlink:href="#DejaVuSans-111"/>
     <use x="359.033203" xlink:href="#DejaVuSans-32"/>
     <use x="390.820312" xlink:href="#DejaVuSans-102"/>
     <use x="426.025391" xlink:href="#DejaVuSans-114"/>
     <use x="464.888672" xlink:href="#DejaVuSans-101"/>
     <use x="526.412109" xlink:href="#DejaVuSans-99"/>
     <use x="581.392578" xlink:href="#DejaVuSans-117"/>
     <use x="644.771484" xlink:href="#DejaVuSans-101"/>
     <use x="706.294922" xlink:href="#DejaVuSans-110"/>
     <use x="769.673828" xlink:href="#DejaVuSans-99"/>
     <use x="824.654297" xlink:href="#DejaVuSans-105"/>
     <use x="852.4375" xlink:href="#DejaVuSans-97"/>
     <use x="913.716797" xlink:href="#DejaVuSans-115"/>
     <use x="965.816406" xlink:href="#DejaVuSans-32"/>
     <use x="997.603516" xlink:href="#DejaVuSans-114"/>
     <use x="1036.466797" xlink:href="#DejaVuSans-101"/>
     <use x="1097.990234" xlink:href="#DejaVuSans-108"/>
     <use x="1125.773438" xlink:href="#DejaVuSans-97"/>
     <use x="1187.052734" xlink:href="#DejaVuSans-116"/>
     <use x="1226.261719" xlink:href="#DejaVuSans-105"/>
     <use x="1254.044922" xlink:href="#DejaVuSans-118"/>
     <use x="1313.224609" xlink:href="#DejaVuSans-97"/>
     <use x="1374.503906" xlink:href="#DejaVuSans-115"/>
     <use x="1426.603516" xlink:href="#DejaVuSans-32"/>
     <use x="1458.390625" xlink:href="#DejaVuSans-100"/>
     <use x="1521.867188" xlink:href="#DejaVuSans-111"/>
     <use x="1583.048828" xlink:href="#DejaVuSans-99"/>
     <use x="1638.029297" xlink:href="#DejaVuSans-101"/>
     <use x="1699.552734" xlink:href="#DejaVuSans-110"/>
     <use x="1762.931641" xlink:href="#DejaVuSans-97"/>
     <use x="1824.210938" xlink:href="#DejaVuSans-115"/>
     <use x="1876.310547" xlink:href="#DejaVuSans-32"/>
     <use x="1908.097656" xlink:href="#DejaVuSans-102"/>
     <use x="1943.302734" xlink:href="#DejaVuSans-105"/>
     <use x="1971.085938" xlink:href="#DejaVuSans-98"/>
     <use x="2034.5625" xlink:href="#DejaVuSans-111"/>
     <use x="2095.744141" xlink:href="#DejaVuSans-110"/>
     <use x="2159.123047" xlink:href="#DejaVuSans-97"/>
     <use x="2220.402344" xlink:href="#DejaVuSans-99"/>
     <use x="2275.382812" xlink:href="#DejaVuSans-99"/>
     <use x="2330.363281" xlink:href="#DejaVuSans-105"/>
     <use x="2358.146484" xlink:href="#DejaVuSans-32"/>
     <use x="2389.933594" xlink:href="#DejaVuSans-70"/>
     <use x="2431.328125" xlink:href="#DejaVuSans-46"/>
     <use x="2463.115234" xlink:href="#DejaVuSans-73"/>
     <use x="2492.607422" xlink:href="#DejaVuSans-58"/>
     <use x="2526.298828" xlink:href="#DejaVuSans-32"/>
     <use x="2558.085938" xlink:href="#DejaVuSans-36"/>
     <use x="2621.708984" xlink:href="#DejaVuSans-49"/>
     <use x="2685.332031" xlink:href="#DejaVuSans-53"/>
     <use x="2748.955078" xlink:href="#DejaVuSans-48"/>
     <use x="2812.578125" xlink:href="#DejaVuSans-48"/>
     <use x="2876.201172" xlink:href="#DejaVuSans-48"/>
     <use x="2939.824219" xlink:href="#DejaVuSans-48"/>
     <use x="3003.447266" xlink:href="#DejaVuSans-46"/>
     <use x="3035.234375" xlink:href="#DejaVuSans-48"/>
    </g>
   </g>
   <g id="legend_1">
    <g id="patch_7">
     <path d="M 347.116875 196.25325 
L 407.72 196.25325 
Q 409.72 196.25325 409.72 194.25325 
L 409.72 48.472 
Q 409.72 46.472 407.72 46.472 
L 347.116875 46.472 
Q 345.116875 46.472 345.116875 48.472 
L 345.116875 194.25325 
Q 345.116875 196.25325 347.116875 196.25325 
z
" style="fill:#ffffff;opacity:0.8;stroke:#cccccc;stroke-linejoin:miter;"/>
    </g>
    <g id="line2d_25">
     <path d="M 349.116875 54.570437 
L 369.116875 54.570437 
" style="fill:none;stroke:#1f77b4;stroke-linecap:square;stroke-width:1.5;"/>
    </g>
    <g id="line2d_26"/>
    <g id="text_18">
     <!-- FR 1 -->
     <g transform="translate(377.116875 58.070437)scale(0.1 -0.1)">
      <defs>
       <path d="M 44.390625 34.1875 
Q 47.5625 33.109375 50.5625 29.59375 
Q 53.5625 26.078125 56.59375 19.921875 
L 66.609375 0 
L 56 0 
L 46.6875 18.703125 
Q 43.0625 26.03125 39.671875 28.421875 
Q 36.28125 30.8125 30.421875 30.8125 
L 19.671875 30.8125 
L 19.671875 0 
L 9.8125 0 
L 9.8125 72.90625 
L 32.078125 72.90625 
Q 44.578125 72.90625 50.734375 67.671875 
Q 56.890625 62.453125 56.890625 51.90625 
Q 56.890625 45.015625 53.6875 40.46875 
Q 50.484375 35.9375 44.390625 34.1875 
z
M 19.671875 64.796875 
L 19.671875 38.921875 
L 32.078125 38.921875 
Q 39.203125 38.921875 42.84375 42.21875 
Q 46.484375 45.515625 46.484375 51.90625 
Q 46.484375 58.296875 42.84375 61.546875 
Q 39.203125 64.796875 32.078125 64.796875 
z
" id="DejaVuSans-82"/>
      </defs>
      <use xlink:href="#DejaVuSans-70"/>
      <use x="57.519531" xlink:href="#DejaVuSans-82"/>
      <use x="127.001953" xlink:href="#DejaVuSans-32"/>
      <use x="158.789062" xlink:href="#DejaVuSans-49"/>
     </g>
    </g>
    <g id="line2d_27">
     <path d="M 349.116875 69.248562 
L 369.116875 69.248562 
" style="fill:none;stroke:#ff7f0e;stroke-linecap:square;stroke-width:1.5;"/>
    </g>
    <g id="line2d_28"/>
    <g id="text_19">
     <!-- FR 2 -->
     <g transform="translate(377.116875 72.748562)scale(0.1 -0.1)">
      <use xlink:href="#DejaVuSans-70"/>
      <use x="57.519531" xlink:href="#DejaVuSans-82"/>
      <use x="127.001953" xlink:href="#DejaVuSans-32"/>
      <use x="158.789062" xlink:href="#DejaVuSans-50"/>
     </g>
    </g>
    <g id="line2d_29">
     <path d="M 349.116875 83.926688 
L 369.116875 83.926688 
" style="fill:none;stroke:#2ca02c;stroke-linecap:square;stroke-width:1.5;"/>
    </g>
    <g id="line2d_30"/>
    <g id="text_20">
     <!-- FR 3 -->
     <g transform="translate(377.116875 87.426688)scale(0.1 -0.1)">
      <use xlink:href="#DejaVuSans-70"/>
      <use x="57.519531" xlink:href="#DejaVuSans-82"/>
      <use x="127.001953" xlink:href="#DejaVuSans-32"/>
      <use x="158.789062" xlink:href="#DejaVuSans-51"/>
     </g>
    </g>
    <g id="line2d_31">
     <path d="M 349.116875 98.604812 
L 369.116875 98.604812 
" style="fill:none;stroke:#d62728;stroke-linecap:square;stroke-width:1.5;"/>
    </g>
    <g id="line2d_32"/>
    <g id="text_21">
     <!-- FR 4 -->
     <g transform="translate(377.116875 102.104812)scale(0.1 -0.1)">
      <use xlink:href="#DejaVuSans-70"/>
      <use x="57.519531" xlink:href="#DejaVuSans-82"/>
      <use x="127.001953" xlink:href="#DejaVuSans-32"/>
      <use x="158.789062" xlink:href="#DejaVuSans-52"/>
     </g>
    </g>
    <g id="line2d_33">
     <path d="M 349.116875 113.282938 
L 369.116875 113.282938 
" style="fill:none;stroke:#9467bd;stroke-linecap:square;stroke-width:1.5;"/>
    </g>
    <g id="line2d_34"/>
    <g id="text_22">
     <!-- FR 5 -->
     <g transform="translate(377.116875 116.782938)scale(0.1 -0.1)">
      <use xlink:href="#DejaVuSans-70"/>
      <use x="57.519531" xlink:href="#DejaVuSans-82"/>
      <use x="127.001953" xlink:href="#DejaVuSans-32"/>
      <use x="158.789062" xlink:href="#DejaVuSans-53"/>
     </g>
    </g>
    <g id="line2d_35">
     <path d="M 349.116875 127.961062 
L 369.116875 127.961062 
" style="fill:none;stroke:#8c564b;stroke-linecap:square;stroke-width:1.5;"/>
    </g>
    <g id="line2d_36"/>
    <g id="text_23">
     <!-- FR 6 -->
     <g transform="translate(377.116875 131.461062)scale(0.1 -0.1)">
      <use xlink:href="#DejaVuSans-70"/>
      <use x="57.519531" xlink:href="#DejaVuSans-82"/>
      <use x="127.001953" xlink:href="#DejaVuSans-32"/>
      <use x="158.789062" xlink:href="#DejaVuSans-54"/>
     </g>
    </g>
    <g id="line2d_37">
     <path d="M 349.116875 142.639187 
L 369.116875 142.639187 
" style="fill:none;stroke:#e377c2;stroke-linecap:square;stroke-width:1.5;"/>
    </g>
    <g id="line2d_38"/>
    <g id="text_24">
     <!-- FR 7 -->
     <g transform="translate(377.116875 146.139187)scale(0.1 -0.1)">
      <use xlink:href="#DejaVuSans-70"/>
      <use x="57.519531" xlink:href="#DejaVuSans-82"/>
      <use x="127.001953" xlink:href="#DejaVuSans-32"/>
      <use x="158.789062" xlink:href="#DejaVuSans-55"/>
     </g>
    </g>
    <g id="line2d_39">
     <path d="M 349.116875 157.317312 
L 369.116875 157.317312 
" style="fill:none;stroke:#7f7f7f;stroke-linecap:square;stroke-width:1.5;"/>
    </g>
    <g id="line2d_40"/>
    <g id="text_25">
     <!-- FR 8 -->
     <g transform="translate(377.116875 160.817312)scale(0.1 -0.1)">
      <use xlink:href="#DejaVuSans-70"/>
      <use x="57.519531" xlink:href="#DejaVuSans-82"/>
      <use x="127.001953" xlink:href="#DejaVuSans-32"/>
      <use x="158.789062" xlink:href="#DejaVuSans-56"/>
     </g>
    </g>
    <g id="line2d_41">
     <path d="M 349.116875 171.995437 
L 369.116875 171.995437 
" style="fill:none;stroke:#bcbd22;stroke-linecap:square;stroke-width:1.5;"/>
    </g>
    <g id="line2d_42"/>
    <g id="text_26">
     <!-- FR 9 -->
     <g transform="translate(377.116875 175.495437)scale(0.1 -0.1)">
      <defs>
       <path d="M 10.984375 1.515625 
L 10.984375 10.5 
Q 14.703125 8.734375 18.5 7.8125 
Q 22.3125 6.890625 25.984375 6.890625 
Q 35.75 6.890625 40.890625 13.453125 
Q 46.046875 20.015625 46.78125 33.40625 
Q 43.953125 29.203125 39.59375 26.953125 
Q 35.25 24.703125 29.984375 24.703125 
Q 19.046875 24.703125 12.671875 31.3125 
Q 6.296875 37.9375 6.296875 49.421875 
Q 6.296875 60.640625 12.9375 67.421875 
Q 19.578125 74.21875 30.609375 74.21875 
Q 43.265625 74.21875 49.921875 64.515625 
Q 56.59375 54.828125 56.59375 36.375 
Q 56.59375 19.140625 48.40625 8.859375 
Q 40.234375 -1.421875 26.421875 -1.421875 
Q 22.703125 -1.421875 18.890625 -0.6875 
Q 15.09375 0.046875 10.984375 1.515625 
z
M 30.609375 32.421875 
Q 37.25 32.421875 41.125 36.953125 
Q 45.015625 41.5 45.015625 49.421875 
Q 45.015625 57.28125 41.125 61.84375 
Q 37.25 66.40625 30.609375 66.40625 
Q 23.96875 66.40625 20.09375 61.84375 
Q 16.21875 57.28125 16.21875 49.421875 
Q 16.21875 41.5 20.09375 36.953125 
Q 23.96875 32.421875 30.609375 32.421875 
z
" id="DejaVuSans-57"/>
      </defs>
      <use xlink:href="#DejaVuSans-70"/>
      <use x="57.519531" xlink:href="#DejaVuSans-82"/>
      <use x="127.001953" xlink:href="#DejaVuSans-32"/>
      <use x="158.789062" xlink:href="#DejaVuSans-57"/>
     </g>
    </g>
    <g id="line2d_43">
     <path d="M 349.116875 186.673562 
L 369.116875 186.673562 
" style="fill:none;stroke:#17becf;stroke-linecap:square;stroke-width:1.5;"/>
    </g>
    <g id="line2d_44"/>
    <g id="text_27">
     <!-- FR 10 -->
     <g transform="translate(377.116875 190.173562)scale(0.1 -0.1)">
      <use xlink:href="#DejaVuSans-70"/>
      <use x="57.519531" xlink:href="#DejaVuSans-82"/>
      <use x="127.001953" xlink:href="#DejaVuSans-32"/>
      <use x="158.789062" xlink:href="#DejaVuSans-49"/>
      <use x="222.412109" xlink:href="#DejaVuSans-48"/>
     </g>
    </g>
   </g>
  </g>
 </g>
 <defs>
  <clipPath id="pbb2eab2766">
   <rect height="266.112" width="357.12" x="57.6" y="41.472"/>
  </clipPath>
 </defs>
</svg>
