<?xml version="1.0" encoding="utf-8" standalone="no"?>
<!DOCTYPE svg PUBLIC "-//W3C//DTD SVG 1.1//EN"
  "http://www.w3.org/Graphics/SVG/1.1/DTD/svg11.dtd">
<!-- Created with matplotlib (https://matplotlib.org/) -->
<svg height="345.6pt" version="1.1" viewBox="0 0 460.8 345.6" width="460.8pt" xmlns="http://www.w3.org/2000/svg" xmlns:xlink="http://www.w3.org/1999/xlink">
 <metadata>
  <rdf:RDF xmlns:cc="http://creativecommons.org/ns#" xmlns:dc="http://purl.org/dc/elements/1.1/" xmlns:rdf="http://www.w3.org/1999/02/22-rdf-syntax-ns#">
   <cc:Work>
    <dc:type rdf:resource="http://purl.org/dc/dcmitype/StillImage"/>
    <dc:date>2021-04-07T21:24:31.728396</dc:date>
    <dc:format>image/svg+xml</dc:format>
    <dc:creator>
     <cc:Agent>
      <dc:title>Matplotlib v3.3.4, https://matplotlib.org/</dc:title>
     </cc:Agent>
    </dc:creator>
   </cc:Work>
  </rdf:RDF>
 </metadata>
 <defs>
  <style type="text/css">*{stroke-linecap:butt;stroke-linejoin:round;}</style>
 </defs>
 <g id="figure_1">
  <g id="patch_1">
   <path d="M 0 345.6 
L 460.8 345.6 
L 460.8 0 
L 0 0 
z
" style="fill:#ffffff;"/>
  </g>
  <g id="axes_1">
   <g id="patch_2">
    <path d="M 57.6 307.584 
L 414.72 307.584 
L 414.72 41.472 
L 57.6 41.472 
z
" style="fill:#ffffff;"/>
   </g>
   <g id="matplotlib.axis_1">
    <g id="xtick_1">
     <g id="line2d_1">
      <defs>
       <path d="M 0 0 
L 0 3.5 
" id="me63282a698" style="stroke:#000000;stroke-width:0.8;"/>
      </defs>
      <g>
       <use style="stroke:#000000;stroke-width:0.8;" x="72.201297" xlink:href="#me63282a698" y="307.584"/>
      </g>
     </g>
     <g id="text_1">
      <!-- 0 -->
      <g transform="translate(69.020047 322.182437)scale(0.1 -0.1)">
       <defs>
        <path d="M 31.78125 66.40625 
Q 24.171875 66.40625 20.328125 58.90625 
Q 16.5 51.421875 16.5 36.375 
Q 16.5 21.390625 20.328125 13.890625 
Q 24.171875 6.390625 31.78125 6.390625 
Q 39.453125 6.390625 43.28125 13.890625 
Q 47.125 21.390625 47.125 36.375 
Q 47.125 51.421875 43.28125 58.90625 
Q 39.453125 66.40625 31.78125 66.40625 
z
M 31.78125 74.21875 
Q 44.046875 74.21875 50.515625 64.515625 
Q 56.984375 54.828125 56.984375 36.375 
Q 56.984375 17.96875 50.515625 8.265625 
Q 44.046875 -1.421875 31.78125 -1.421875 
Q 19.53125 -1.421875 13.0625 8.265625 
Q 6.59375 17.96875 6.59375 36.375 
Q 6.59375 54.828125 13.0625 64.515625 
Q 19.53125 74.21875 31.78125 74.21875 
z
" id="DejaVuSans-48"/>
       </defs>
       <use xlink:href="#DejaVuSans-48"/>
      </g>
     </g>
    </g>
    <g id="xtick_2">
     <g id="line2d_2">
      <g>
       <use style="stroke:#000000;stroke-width:0.8;" x="112.987044" xlink:href="#me63282a698" y="307.584"/>
      </g>
     </g>
     <g id="text_2">
      <!-- 25 -->
      <g transform="translate(106.624544 322.182437)scale(0.1 -0.1)">
       <defs>
        <path d="M 19.1875 8.296875 
L 53.609375 8.296875 
L 53.609375 0 
L 7.328125 0 
L 7.328125 8.296875 
Q 12.9375 14.109375 22.625 23.890625 
Q 32.328125 33.6875 34.8125 36.53125 
Q 39.546875 41.84375 41.421875 45.53125 
Q 43.3125 49.21875 43.3125 52.78125 
Q 43.3125 58.59375 39.234375 62.25 
Q 35.15625 65.921875 28.609375 65.921875 
Q 23.96875 65.921875 18.8125 64.3125 
Q 13.671875 62.703125 7.8125 59.421875 
L 7.8125 69.390625 
Q 13.765625 71.78125 18.9375 73 
Q 24.125 74.21875 28.421875 74.21875 
Q 39.75 74.21875 46.484375 68.546875 
Q 53.21875 62.890625 53.21875 53.421875 
Q 53.21875 48.921875 51.53125 44.890625 
Q 49.859375 40.875 45.40625 35.40625 
Q 44.1875 33.984375 37.640625 27.21875 
Q 31.109375 20.453125 19.1875 8.296875 
z
" id="DejaVuSans-50"/>
        <path d="M 10.796875 72.90625 
L 49.515625 72.90625 
L 49.515625 64.59375 
L 19.828125 64.59375 
L 19.828125 46.734375 
Q 21.96875 47.46875 24.109375 47.828125 
Q 26.265625 48.1875 28.421875 48.1875 
Q 40.625 48.1875 47.75 41.5 
Q 54.890625 34.8125 54.890625 23.390625 
Q 54.890625 11.625 47.5625 5.09375 
Q 40.234375 -1.421875 26.90625 -1.421875 
Q 22.3125 -1.421875 17.546875 -0.640625 
Q 12.796875 0.140625 7.71875 1.703125 
L 7.71875 11.625 
Q 12.109375 9.234375 16.796875 8.0625 
Q 21.484375 6.890625 26.703125 6.890625 
Q 35.15625 6.890625 40.078125 11.328125 
Q 45.015625 15.765625 45.015625 23.390625 
Q 45.015625 31 40.078125 35.4375 
Q 35.15625 39.890625 26.703125 39.890625 
Q 22.75 39.890625 18.8125 39.015625 
Q 14.890625 38.140625 10.796875 36.28125 
z
" id="DejaVuSans-53"/>
       </defs>
       <use xlink:href="#DejaVuSans-50"/>
       <use x="63.623047" xlink:href="#DejaVuSans-53"/>
      </g>
     </g>
    </g>
    <g id="xtick_3">
     <g id="line2d_3">
      <g>
       <use style="stroke:#000000;stroke-width:0.8;" x="153.772791" xlink:href="#me63282a698" y="307.584"/>
      </g>
     </g>
     <g id="text_3">
      <!-- 50 -->
      <g transform="translate(147.410291 322.182437)scale(0.1 -0.1)">
       <use xlink:href="#DejaVuSans-53"/>
       <use x="63.623047" xlink:href="#DejaVuSans-48"/>
      </g>
     </g>
    </g>
    <g id="xtick_4">
     <g id="line2d_4">
      <g>
       <use style="stroke:#000000;stroke-width:0.8;" x="194.558538" xlink:href="#me63282a698" y="307.584"/>
      </g>
     </g>
     <g id="text_4">
      <!-- 75 -->
      <g transform="translate(188.196038 322.182437)scale(0.1 -0.1)">
       <defs>
        <path d="M 8.203125 72.90625 
L 55.078125 72.90625 
L 55.078125 68.703125 
L 28.609375 0 
L 18.3125 0 
L 43.21875 64.59375 
L 8.203125 64.59375 
z
" id="DejaVuSans-55"/>
       </defs>
       <use xlink:href="#DejaVuSans-55"/>
       <use x="63.623047" xlink:href="#DejaVuSans-53"/>
      </g>
     </g>
    </g>
    <g id="xtick_5">
     <g id="line2d_5">
      <g>
       <use style="stroke:#000000;stroke-width:0.8;" x="235.344285" xlink:href="#me63282a698" y="307.584"/>
      </g>
     </g>
     <g id="text_5">
      <!-- 100 -->
      <g transform="translate(225.800535 322.182437)scale(0.1 -0.1)">
       <defs>
        <path d="M 12.40625 8.296875 
L 28.515625 8.296875 
L 28.515625 63.921875 
L 10.984375 60.40625 
L 10.984375 69.390625 
L 28.421875 72.90625 
L 38.28125 72.90625 
L 38.28125 8.296875 
L 54.390625 8.296875 
L 54.390625 0 
L 12.40625 0 
z
" id="DejaVuSans-49"/>
       </defs>
       <use xlink:href="#DejaVuSans-49"/>
       <use x="63.623047" xlink:href="#DejaVuSans-48"/>
       <use x="127.246094" xlink:href="#DejaVuSans-48"/>
      </g>
     </g>
    </g>
    <g id="xtick_6">
     <g id="line2d_6">
      <g>
       <use style="stroke:#000000;stroke-width:0.8;" x="276.130032" xlink:href="#me63282a698" y="307.584"/>
      </g>
     </g>
     <g id="text_6">
      <!-- 125 -->
      <g transform="translate(266.586282 322.182437)scale(0.1 -0.1)">
       <use xlink:href="#DejaVuSans-49"/>
       <use x="63.623047" xlink:href="#DejaVuSans-50"/>
       <use x="127.246094" xlink:href="#DejaVuSans-53"/>
      </g>
     </g>
    </g>
    <g id="xtick_7">
     <g id="line2d_7">
      <g>
       <use style="stroke:#000000;stroke-width:0.8;" x="316.915779" xlink:href="#me63282a698" y="307.584"/>
      </g>
     </g>
     <g id="text_7">
      <!-- 150 -->
      <g transform="translate(307.372029 322.182437)scale(0.1 -0.1)">
       <use xlink:href="#DejaVuSans-49"/>
       <use x="63.623047" xlink:href="#DejaVuSans-53"/>
       <use x="127.246094" xlink:href="#DejaVuSans-48"/>
      </g>
     </g>
    </g>
    <g id="xtick_8">
     <g id="line2d_8">
      <g>
       <use style="stroke:#000000;stroke-width:0.8;" x="357.701526" xlink:href="#me63282a698" y="307.584"/>
      </g>
     </g>
     <g id="text_8">
      <!-- 175 -->
      <g transform="translate(348.157776 322.182437)scale(0.1 -0.1)">
       <use xlink:href="#DejaVuSans-49"/>
       <use x="63.623047" xlink:href="#DejaVuSans-55"/>
       <use x="127.246094" xlink:href="#DejaVuSans-53"/>
      </g>
     </g>
    </g>
    <g id="xtick_9">
     <g id="line2d_9">
      <g>
       <use style="stroke:#000000;stroke-width:0.8;" x="398.487273" xlink:href="#me63282a698" y="307.584"/>
      </g>
     </g>
     <g id="text_9">
      <!-- 200 -->
      <g transform="translate(388.943523 322.182437)scale(0.1 -0.1)">
       <use xlink:href="#DejaVuSans-50"/>
       <use x="63.623047" xlink:href="#DejaVuSans-48"/>
       <use x="127.246094" xlink:href="#DejaVuSans-48"/>
      </g>
     </g>
    </g>
    <g id="text_10">
     <!-- Numero de tirada -->
     <g transform="translate(192.165469 335.860562)scale(0.1 -0.1)">
      <defs>
       <path d="M 9.8125 72.90625 
L 23.09375 72.90625 
L 55.421875 11.921875 
L 55.421875 72.90625 
L 64.984375 72.90625 
L 64.984375 0 
L 51.703125 0 
L 19.390625 60.984375 
L 19.390625 0 
L 9.8125 0 
z
" id="DejaVuSans-78"/>
       <path d="M 8.5 21.578125 
L 8.5 54.6875 
L 17.484375 54.6875 
L 17.484375 21.921875 
Q 17.484375 14.15625 20.5 10.265625 
Q 23.53125 6.390625 29.59375 6.390625 
Q 36.859375 6.390625 41.078125 11.03125 
Q 45.3125 15.671875 45.3125 23.6875 
L 45.3125 54.6875 
L 54.296875 54.6875 
L 54.296875 0 
L 45.3125 0 
L 45.3125 8.40625 
Q 42.046875 3.421875 37.71875 1 
Q 33.40625 -1.421875 27.6875 -1.421875 
Q 18.265625 -1.421875 13.375 4.4375 
Q 8.5 10.296875 8.5 21.578125 
z
M 31.109375 56 
z
" id="DejaVuSans-117"/>
       <path d="M 52 44.1875 
Q 55.375 50.25 60.0625 53.125 
Q 64.75 56 71.09375 56 
Q 79.640625 56 84.28125 50.015625 
Q 88.921875 44.046875 88.921875 33.015625 
L 88.921875 0 
L 79.890625 0 
L 79.890625 32.71875 
Q 79.890625 40.578125 77.09375 44.375 
Q 74.3125 48.1875 68.609375 48.1875 
Q 61.625 48.1875 57.5625 43.546875 
Q 53.515625 38.921875 53.515625 30.90625 
L 53.515625 0 
L 44.484375 0 
L 44.484375 32.71875 
Q 44.484375 40.625 41.703125 44.40625 
Q 38.921875 48.1875 33.109375 48.1875 
Q 26.21875 48.1875 22.15625 43.53125 
Q 18.109375 38.875 18.109375 30.90625 
L 18.109375 0 
L 9.078125 0 
L 9.078125 54.6875 
L 18.109375 54.6875 
L 18.109375 46.1875 
Q 21.1875 51.21875 25.484375 53.609375 
Q 29.78125 56 35.6875 56 
Q 41.65625 56 45.828125 52.96875 
Q 50 49.953125 52 44.1875 
z
" id="DejaVuSans-109"/>
       <path d="M 56.203125 29.59375 
L 56.203125 25.203125 
L 14.890625 25.203125 
Q 15.484375 15.921875 20.484375 11.0625 
Q 25.484375 6.203125 34.421875 6.203125 
Q 39.59375 6.203125 44.453125 7.46875 
Q 49.3125 8.734375 54.109375 11.28125 
L 54.109375 2.78125 
Q 49.265625 0.734375 44.1875 -0.34375 
Q 39.109375 -1.421875 33.890625 -1.421875 
Q 20.796875 -1.421875 13.15625 6.1875 
Q 5.515625 13.8125 5.515625 26.8125 
Q 5.515625 40.234375 12.765625 48.109375 
Q 20.015625 56 32.328125 56 
Q 43.359375 56 49.78125 48.890625 
Q 56.203125 41.796875 56.203125 29.59375 
z
M 47.21875 32.234375 
Q 47.125 39.59375 43.09375 43.984375 
Q 39.0625 48.390625 32.421875 48.390625 
Q 24.90625 48.390625 20.390625 44.140625 
Q 15.875 39.890625 15.1875 32.171875 
z
" id="DejaVuSans-101"/>
       <path d="M 41.109375 46.296875 
Q 39.59375 47.171875 37.8125 47.578125 
Q 36.03125 48 33.890625 48 
Q 26.265625 48 22.1875 43.046875 
Q 18.109375 38.09375 18.109375 28.8125 
L 18.109375 0 
L 9.078125 0 
L 9.078125 54.6875 
L 18.109375 54.6875 
L 18.109375 46.1875 
Q 20.953125 51.171875 25.484375 53.578125 
Q 30.03125 56 36.53125 56 
Q 37.453125 56 38.578125 55.875 
Q 39.703125 55.765625 41.0625 55.515625 
z
" id="DejaVuSans-114"/>
       <path d="M 30.609375 48.390625 
Q 23.390625 48.390625 19.1875 42.75 
Q 14.984375 37.109375 14.984375 27.296875 
Q 14.984375 17.484375 19.15625 11.84375 
Q 23.34375 6.203125 30.609375 6.203125 
Q 37.796875 6.203125 41.984375 11.859375 
Q 46.1875 17.53125 46.1875 27.296875 
Q 46.1875 37.015625 41.984375 42.703125 
Q 37.796875 48.390625 30.609375 48.390625 
z
M 30.609375 56 
Q 42.328125 56 49.015625 48.375 
Q 55.71875 40.765625 55.71875 27.296875 
Q 55.71875 13.875 49.015625 6.21875 
Q 42.328125 -1.421875 30.609375 -1.421875 
Q 18.84375 -1.421875 12.171875 6.21875 
Q 5.515625 13.875 5.515625 27.296875 
Q 5.515625 40.765625 12.171875 48.375 
Q 18.84375 56 30.609375 56 
z
" id="DejaVuSans-111"/>
       <path id="DejaVuSans-32"/>
       <path d="M 45.40625 46.390625 
L 45.40625 75.984375 
L 54.390625 75.984375 
L 54.390625 0 
L 45.40625 0 
L 45.40625 8.203125 
Q 42.578125 3.328125 38.25 0.953125 
Q 33.9375 -1.421875 27.875 -1.421875 
Q 17.96875 -1.421875 11.734375 6.484375 
Q 5.515625 14.40625 5.515625 27.296875 
Q 5.515625 40.1875 11.734375 48.09375 
Q 17.96875 56 27.875 56 
Q 33.9375 56 38.25 53.625 
Q 42.578125 51.265625 45.40625 46.390625 
z
M 14.796875 27.296875 
Q 14.796875 17.390625 18.875 11.75 
Q 22.953125 6.109375 30.078125 6.109375 
Q 37.203125 6.109375 41.296875 11.75 
Q 45.40625 17.390625 45.40625 27.296875 
Q 45.40625 37.203125 41.296875 42.84375 
Q 37.203125 48.484375 30.078125 48.484375 
Q 22.953125 48.484375 18.875 42.84375 
Q 14.796875 37.203125 14.796875 27.296875 
z
" id="DejaVuSans-100"/>
       <path d="M 18.3125 70.21875 
L 18.3125 54.6875 
L 36.8125 54.6875 
L 36.8125 47.703125 
L 18.3125 47.703125 
L 18.3125 18.015625 
Q 18.3125 11.328125 20.140625 9.421875 
Q 21.96875 7.515625 27.59375 7.515625 
L 36.8125 7.515625 
L 36.8125 0 
L 27.59375 0 
Q 17.1875 0 13.234375 3.875 
Q 9.28125 7.765625 9.28125 18.015625 
L 9.28125 47.703125 
L 2.6875 47.703125 
L 2.6875 54.6875 
L 9.28125 54.6875 
L 9.28125 70.21875 
z
" id="DejaVuSans-116"/>
       <path d="M 9.421875 54.6875 
L 18.40625 54.6875 
L 18.40625 0 
L 9.421875 0 
z
M 9.421875 75.984375 
L 18.40625 75.984375 
L 18.40625 64.59375 
L 9.421875 64.59375 
z
" id="DejaVuSans-105"/>
       <path d="M 34.28125 27.484375 
Q 23.390625 27.484375 19.1875 25 
Q 14.984375 22.515625 14.984375 16.5 
Q 14.984375 11.71875 18.140625 8.90625 
Q 21.296875 6.109375 26.703125 6.109375 
Q 34.1875 6.109375 38.703125 11.40625 
Q 43.21875 16.703125 43.21875 25.484375 
L 43.21875 27.484375 
z
M 52.203125 31.203125 
L 52.203125 0 
L 43.21875 0 
L 43.21875 8.296875 
Q 40.140625 3.328125 35.546875 0.953125 
Q 30.953125 -1.421875 24.3125 -1.421875 
Q 15.921875 -1.421875 10.953125 3.296875 
Q 6 8.015625 6 15.921875 
Q 6 25.140625 12.171875 29.828125 
Q 18.359375 34.515625 30.609375 34.515625 
L 43.21875 34.515625 
L 43.21875 35.40625 
Q 43.21875 41.609375 39.140625 45 
Q 35.0625 48.390625 27.6875 48.390625 
Q 23 48.390625 18.546875 47.265625 
Q 14.109375 46.140625 10.015625 43.890625 
L 10.015625 52.203125 
Q 14.9375 54.109375 19.578125 55.046875 
Q 24.21875 56 28.609375 56 
Q 40.484375 56 46.34375 49.84375 
Q 52.203125 43.703125 52.203125 31.203125 
z
" id="DejaVuSans-97"/>
      </defs>
      <use xlink:href="#DejaVuSans-78"/>
      <use x="74.804688" xlink:href="#DejaVuSans-117"/>
      <use x="138.183594" xlink:href="#DejaVuSans-109"/>
      <use x="235.595703" xlink:href="#DejaVuSans-101"/>
      <use x="297.119141" xlink:href="#DejaVuSans-114"/>
      <use x="335.982422" xlink:href="#DejaVuSans-111"/>
      <use x="397.164062" xlink:href="#DejaVuSans-32"/>
      <use x="428.951172" xlink:href="#DejaVuSans-100"/>
      <use x="492.427734" xlink:href="#DejaVuSans-101"/>
      <use x="553.951172" xlink:href="#DejaVuSans-32"/>
      <use x="585.738281" xlink:href="#DejaVuSans-116"/>
      <use x="624.947266" xlink:href="#DejaVuSans-105"/>
      <use x="652.730469" xlink:href="#DejaVuSans-114"/>
      <use x="693.84375" xlink:href="#DejaVuSans-97"/>
      <use x="755.123047" xlink:href="#DejaVuSans-100"/>
      <use x="818.599609" xlink:href="#DejaVuSans-97"/>
     </g>
    </g>
   </g>
   <g id="matplotlib.axis_2">
    <g id="ytick_1">
     <g id="line2d_10">
      <defs>
       <path d="M 0 0 
L -3.5 0 
" id="meccc9aa9ba" style="stroke:#000000;stroke-width:0.8;"/>
      </defs>
      <g>
       <use style="stroke:#000000;stroke-width:0.8;" x="57.6" xlink:href="#meccc9aa9ba" y="298.623251"/>
      </g>
     </g>
     <g id="text_11">
      <!-- 0 -->
      <g transform="translate(44.2375 302.42247)scale(0.1 -0.1)">
       <use xlink:href="#DejaVuSans-48"/>
      </g>
     </g>
    </g>
    <g id="ytick_2">
     <g id="line2d_11">
      <g>
       <use style="stroke:#000000;stroke-width:0.8;" x="57.6" xlink:href="#meccc9aa9ba" y="248.054689"/>
      </g>
     </g>
     <g id="text_12">
      <!-- 100000 -->
      <g transform="translate(12.425 251.853908)scale(0.1 -0.1)">
       <use xlink:href="#DejaVuSans-49"/>
       <use x="63.623047" xlink:href="#DejaVuSans-48"/>
       <use x="127.246094" xlink:href="#DejaVuSans-48"/>
       <use x="190.869141" xlink:href="#DejaVuSans-48"/>
       <use x="254.492188" xlink:href="#DejaVuSans-48"/>
       <use x="318.115234" xlink:href="#DejaVuSans-48"/>
      </g>
     </g>
    </g>
    <g id="ytick_3">
     <g id="line2d_12">
      <g>
       <use style="stroke:#000000;stroke-width:0.8;" x="57.6" xlink:href="#meccc9aa9ba" y="197.486127"/>
      </g>
     </g>
     <g id="text_13">
      <!-- 200000 -->
      <g transform="translate(12.425 201.285346)scale(0.1 -0.1)">
       <use xlink:href="#DejaVuSans-50"/>
       <use x="63.623047" xlink:href="#DejaVuSans-48"/>
       <use x="127.246094" xlink:href="#DejaVuSans-48"/>
       <use x="190.869141" xlink:href="#DejaVuSans-48"/>
       <use x="254.492188" xlink:href="#DejaVuSans-48"/>
       <use x="318.115234" xlink:href="#DejaVuSans-48"/>
      </g>
     </g>
    </g>
    <g id="ytick_4">
     <g id="line2d_13">
      <g>
       <use style="stroke:#000000;stroke-width:0.8;" x="57.6" xlink:href="#meccc9aa9ba" y="146.917565"/>
      </g>
     </g>
     <g id="text_14">
      <!-- 300000 -->
      <g transform="translate(12.425 150.716784)scale(0.1 -0.1)">
       <defs>
        <path d="M 40.578125 39.3125 
Q 47.65625 37.796875 51.625 33 
Q 55.609375 28.21875 55.609375 21.1875 
Q 55.609375 10.40625 48.1875 4.484375 
Q 40.765625 -1.421875 27.09375 -1.421875 
Q 22.515625 -1.421875 17.65625 -0.515625 
Q 12.796875 0.390625 7.625 2.203125 
L 7.625 11.71875 
Q 11.71875 9.328125 16.59375 8.109375 
Q 21.484375 6.890625 26.8125 6.890625 
Q 36.078125 6.890625 40.9375 10.546875 
Q 45.796875 14.203125 45.796875 21.1875 
Q 45.796875 27.640625 41.28125 31.265625 
Q 36.765625 34.90625 28.71875 34.90625 
L 20.21875 34.90625 
L 20.21875 43.015625 
L 29.109375 43.015625 
Q 36.375 43.015625 40.234375 45.921875 
Q 44.09375 48.828125 44.09375 54.296875 
Q 44.09375 59.90625 40.109375 62.90625 
Q 36.140625 65.921875 28.71875 65.921875 
Q 24.65625 65.921875 20.015625 65.03125 
Q 15.375 64.15625 9.8125 62.3125 
L 9.8125 71.09375 
Q 15.4375 72.65625 20.34375 73.4375 
Q 25.25 74.21875 29.59375 74.21875 
Q 40.828125 74.21875 47.359375 69.109375 
Q 53.90625 64.015625 53.90625 55.328125 
Q 53.90625 49.265625 50.4375 45.09375 
Q 46.96875 40.921875 40.578125 39.3125 
z
" id="DejaVuSans-51"/>
       </defs>
       <use xlink:href="#DejaVuSans-51"/>
       <use x="63.623047" xlink:href="#DejaVuSans-48"/>
       <use x="127.246094" xlink:href="#DejaVuSans-48"/>
       <use x="190.869141" xlink:href="#DejaVuSans-48"/>
       <use x="254.492188" xlink:href="#DejaVuSans-48"/>
       <use x="318.115234" xlink:href="#DejaVuSans-48"/>
      </g>
     </g>
    </g>
    <g id="ytick_5">
     <g id="line2d_14">
      <g>
       <use style="stroke:#000000;stroke-width:0.8;" x="57.6" xlink:href="#meccc9aa9ba" y="96.349003"/>
      </g>
     </g>
     <g id="text_15">
      <!-- 400000 -->
      <g transform="translate(12.425 100.148222)scale(0.1 -0.1)">
       <defs>
        <path d="M 37.796875 64.3125 
L 12.890625 25.390625 
L 37.796875 25.390625 
z
M 35.203125 72.90625 
L 47.609375 72.90625 
L 47.609375 25.390625 
L 58.015625 25.390625 
L 58.015625 17.1875 
L 47.609375 17.1875 
L 47.609375 0 
L 37.796875 0 
L 37.796875 17.1875 
L 4.890625 17.1875 
L 4.890625 26.703125 
z
" id="DejaVuSans-52"/>
       </defs>
       <use xlink:href="#DejaVuSans-52"/>
       <use x="63.623047" xlink:href="#DejaVuSans-48"/>
       <use x="127.246094" xlink:href="#DejaVuSans-48"/>
       <use x="190.869141" xlink:href="#DejaVuSans-48"/>
       <use x="254.492188" xlink:href="#DejaVuSans-48"/>
       <use x="318.115234" xlink:href="#DejaVuSans-48"/>
      </g>
     </g>
    </g>
    <g id="ytick_6">
     <g id="line2d_15">
      <g>
       <use style="stroke:#000000;stroke-width:0.8;" x="57.6" xlink:href="#meccc9aa9ba" y="45.780441"/>
      </g>
     </g>
     <g id="text_16">
      <!-- 500000 -->
      <g transform="translate(12.425 49.57966)scale(0.1 -0.1)">
       <use xlink:href="#DejaVuSans-53"/>
       <use x="63.623047" xlink:href="#DejaVuSans-48"/>
       <use x="127.246094" xlink:href="#DejaVuSans-48"/>
       <use x="190.869141" xlink:href="#DejaVuSans-48"/>
       <use x="254.492188" xlink:href="#DejaVuSans-48"/>
       <use x="318.115234" xlink:href="#DejaVuSans-48"/>
      </g>
     </g>
    </g>
    <g id="text_17">
     <!-- Fondo en $ -->
     <g transform="translate(6.345312 202.288938)rotate(-90)scale(0.1 -0.1)">
      <defs>
       <path d="M 9.8125 72.90625 
L 51.703125 72.90625 
L 51.703125 64.59375 
L 19.671875 64.59375 
L 19.671875 43.109375 
L 48.578125 43.109375 
L 48.578125 34.8125 
L 19.671875 34.8125 
L 19.671875 0 
L 9.8125 0 
z
" id="DejaVuSans-70"/>
       <path d="M 54.890625 33.015625 
L 54.890625 0 
L 45.90625 0 
L 45.90625 32.71875 
Q 45.90625 40.484375 42.875 44.328125 
Q 39.84375 48.1875 33.796875 48.1875 
Q 26.515625 48.1875 22.3125 43.546875 
Q 18.109375 38.921875 18.109375 30.90625 
L 18.109375 0 
L 9.078125 0 
L 9.078125 54.6875 
L 18.109375 54.6875 
L 18.109375 46.1875 
Q 21.34375 51.125 25.703125 53.5625 
Q 30.078125 56 35.796875 56 
Q 45.21875 56 50.046875 50.171875 
Q 54.890625 44.34375 54.890625 33.015625 
z
" id="DejaVuSans-110"/>
       <path d="M 33.796875 -14.703125 
L 28.90625 -14.703125 
L 28.859375 0 
Q 23.734375 0.09375 18.609375 1.1875 
Q 13.484375 2.296875 8.296875 4.5 
L 8.296875 13.28125 
Q 13.28125 10.15625 18.375 8.5625 
Q 23.484375 6.984375 28.90625 6.9375 
L 28.90625 29.203125 
Q 18.109375 30.953125 13.203125 35.15625 
Q 8.296875 39.359375 8.296875 46.6875 
Q 8.296875 54.640625 13.625 59.21875 
Q 18.953125 63.8125 28.90625 64.5 
L 28.90625 75.984375 
L 33.796875 75.984375 
L 33.796875 64.65625 
Q 38.328125 64.453125 42.578125 63.6875 
Q 46.828125 62.9375 50.875 61.625 
L 50.875 53.078125 
Q 46.828125 55.125 42.546875 56.25 
Q 38.28125 57.375 33.796875 57.5625 
L 33.796875 36.71875 
Q 44.875 35.015625 50.09375 30.609375 
Q 55.328125 26.21875 55.328125 18.609375 
Q 55.328125 10.359375 49.78125 5.59375 
Q 44.234375 0.828125 33.796875 0.09375 
z
M 28.90625 37.59375 
L 28.90625 57.625 
Q 23.25 56.984375 20.265625 54.390625 
Q 17.28125 51.8125 17.28125 47.515625 
Q 17.28125 43.3125 20.03125 40.96875 
Q 22.796875 38.625 28.90625 37.59375 
z
M 33.796875 28.21875 
L 33.796875 7.078125 
Q 39.984375 7.90625 43.140625 10.59375 
Q 46.296875 13.28125 46.296875 17.671875 
Q 46.296875 21.96875 43.28125 24.5 
Q 40.28125 27.046875 33.796875 28.21875 
z
" id="DejaVuSans-36"/>
      </defs>
      <use xlink:href="#DejaVuSans-70"/>
      <use x="53.894531" xlink:href="#DejaVuSans-111"/>
      <use x="115.076172" xlink:href="#DejaVuSans-110"/>
      <use x="178.455078" xlink:href="#DejaVuSans-100"/>
      <use x="241.931641" xlink:href="#DejaVuSans-111"/>
      <use x="303.113281" xlink:href="#DejaVuSans-32"/>
      <use x="334.900391" xlink:href="#DejaVuSans-101"/>
      <use x="396.423828" xlink:href="#DejaVuSans-110"/>
      <use x="459.802734" xlink:href="#DejaVuSans-32"/>
      <use x="491.589844" xlink:href="#DejaVuSans-36"/>
     </g>
    </g>
   </g>
   <g id="line2d_16">
    <path clip-path="url(#p4513791f8d)" d="M 73.832727 222.719839 
L 80.358447 222.618702 
L 85.252736 222.820977 
L 88.515596 223.225525 
L 90.147026 222.820977 
L 91.778456 222.568134 
L 93.409886 222.719839 
L 95.041316 222.466997 
L 96.672746 222.618702 
L 99.935605 222.214154 
L 103.198465 222.466997 
L 106.461325 222.062448 
L 109.724185 222.315291 
L 112.987044 221.910742 
L 116.249904 222.163585 
L 117.881334 222.416428 
L 119.512764 222.01188 
L 121.144194 222.264722 
L 122.775624 222.669271 
L 124.407053 223.326662 
L 126.038483 224.388602 
L 127.669913 226.107933 
L 129.301343 223.326662 
L 130.932773 225.045993 
L 132.564203 222.264722 
L 134.195633 220.545391 
L 135.827063 221.607331 
L 137.458492 223.326662 
L 139.089922 226.107933 
L 140.721352 221.607331 
L 142.352782 218.82606 
L 143.984212 217.106729 
L 145.615642 218.168669 
L 147.247072 216.449338 
L 148.878502 217.511278 
L 150.509931 219.230609 
L 152.141361 222.01188 
L 153.772791 226.512482 
L 155.404221 233.794355 
L 157.035651 245.576829 
L 158.667081 264.641177 
L 160.298511 295.488 
L 398.487273 295.488 
L 398.487273 295.488 
" style="fill:none;stroke:#1f77b4;stroke-linecap:square;stroke-width:1.5;"/>
   </g>
   <g id="line2d_17">
    <path clip-path="url(#p4513791f8d)" d="M 73.832727 222.820977 
L 75.464157 222.871545 
L 80.358447 222.669271 
L 85.252736 222.719839 
L 96.672746 222.466997 
L 101.567035 222.669271 
L 103.198465 222.517565 
L 104.829895 222.618702 
L 106.461325 222.466997 
L 109.724185 222.719839 
L 111.355614 222.972682 
L 112.987044 222.568134 
L 114.618474 222.315291 
L 117.881334 222.719839 
L 119.512764 222.315291 
L 121.144194 222.568134 
L 122.775624 222.972682 
L 124.407053 222.315291 
L 126.038483 222.719839 
L 127.669913 222.062448 
L 129.301343 221.6579 
L 130.932773 221.910742 
L 132.564203 221.506194 
L 134.195633 221.759037 
L 135.827063 222.163585 
L 137.458492 221.506194 
L 139.089922 221.101645 
L 142.352782 220.697097 
L 145.615642 220.545391 
L 150.509931 220.747666 
L 153.772791 220.494823 
L 158.667081 220.444254 
L 160.298511 220.494823 
L 163.56137 220.343117 
L 166.82423 220.444254 
L 168.45566 220.343117 
L 171.71852 220.494823 
L 174.98138 220.899371 
L 176.61281 220.494823 
L 178.244239 220.747666 
L 179.875669 221.152214 
L 181.507099 220.494823 
L 183.138529 220.090274 
L 184.769959 219.837431 
L 186.401389 219.989137 
L 188.032819 219.736294 
L 189.664249 219.888 
L 192.927108 219.483452 
L 196.189968 219.736294 
L 197.821398 219.989137 
L 199.452828 219.584589 
L 201.084258 219.837431 
L 202.715688 219.432883 
L 204.347117 219.685726 
L 205.978547 219.281177 
L 209.241407 218.876629 
L 212.504267 219.129472 
L 214.135697 218.876629 
L 215.767127 219.028334 
L 217.398556 218.775492 
L 219.029986 218.927197 
L 220.661416 218.674355 
L 223.924276 219.078903 
L 225.555706 219.483452 
L 227.187136 218.82606 
L 228.818566 219.230609 
L 230.449995 218.573217 
L 232.081425 218.977766 
L 233.712855 218.320375 
L 235.344285 217.915826 
L 236.975715 218.168669 
L 238.607145 217.76412 
L 240.238575 218.016963 
L 241.870005 217.612415 
L 243.501434 217.865258 
L 245.132864 217.460709 
L 248.395724 217.056161 
L 251.658584 216.904455 
L 258.184303 217.005592 
L 263.078593 216.803318 
L 272.867172 216.601043 
L 277.761462 216.651612 
L 282.655751 216.601043 
L 285.918611 216.601043 
L 292.444331 216.499906 
L 295.70719 216.651612 
L 297.33862 216.499906 
L 298.97005 216.601043 
L 302.23291 216.348201 
L 313.652919 216.095358 
L 318.547209 216.297632 
L 320.178639 216.449338 
L 321.810069 216.196495 
L 325.072928 216.601043 
L 326.704358 217.005592 
L 328.335788 216.348201 
L 329.967218 216.752749 
L 331.598648 216.095358 
L 333.230078 216.499906 
L 334.861508 217.157298 
L 336.492937 218.219237 
L 338.124367 219.938569 
L 339.755797 222.719839 
L 341.387227 218.219237 
L 343.018657 215.437967 
L 344.650087 217.157298 
L 346.281517 214.376027 
L 347.912947 216.095358 
L 349.544376 218.876629 
L 351.175806 214.376027 
L 352.807236 217.157298 
L 354.438666 221.6579 
L 356.070096 228.939773 
L 357.701526 217.157298 
L 359.332956 224.439171 
L 360.964386 212.656696 
L 362.595815 219.938569 
L 364.227245 208.156094 
L 365.858675 215.437967 
L 367.490105 227.220441 
L 369.121535 246.284789 
L 370.752965 215.437967 
L 372.384395 234.502314 
L 374.015825 265.349137 
L 398.487273 265.349137 
L 398.487273 265.349137 
" style="fill:none;stroke:#ff7f0e;stroke-linecap:square;stroke-width:1.5;"/>
   </g>
   <g id="line2d_18">
    <path clip-path="url(#p4513791f8d)" d="M 73.832727 222.719839 
L 78.727017 222.922114 
L 80.358447 222.770408 
L 83.621307 223.023251 
L 85.252736 223.276094 
L 86.884166 223.680642 
L 88.515596 223.023251 
L 90.147026 222.618702 
L 91.778456 222.871545 
L 93.409886 222.466997 
L 96.672746 222.062448 
L 99.935605 221.910742 
L 104.829895 221.961311 
L 121.144194 221.556763 
L 124.407053 221.556763 
L 127.669913 221.556763 
L 129.301343 221.607331 
L 134.195633 221.405057 
L 137.458492 221.506194 
L 142.352782 221.30392 
L 150.509931 221.152214 
L 155.404221 221.354488 
L 158.667081 221.759037 
L 160.298511 221.354488 
L 161.929941 221.101645 
L 163.56137 221.253351 
L 166.82423 220.848803 
L 170.08709 220.697097 
L 173.34995 220.697097 
L 176.61281 220.697097 
L 178.244239 220.747666 
L 179.875669 220.646528 
L 183.138529 220.798234 
L 186.401389 220.545391 
L 189.664249 220.697097 
L 192.927108 221.101645 
L 194.558538 220.697097 
L 196.189968 220.94994 
L 197.821398 221.354488 
L 199.452828 222.01188 
L 201.084258 220.94994 
L 202.715688 221.607331 
L 204.347117 222.669271 
L 205.978547 224.388602 
L 207.609977 221.607331 
L 209.241407 223.326662 
L 210.872837 220.545391 
L 212.504267 218.82606 
L 214.135697 219.888 
L 215.767127 218.168669 
L 217.398556 219.230609 
L 219.029986 217.511278 
L 220.661416 216.449338 
L 222.292846 215.791946 
L 223.924276 215.387398 
L 225.555706 215.640241 
L 227.187136 216.044789 
L 228.818566 216.702181 
L 230.449995 217.76412 
L 232.081425 219.483452 
L 233.712855 216.702181 
L 235.344285 218.421512 
L 236.975715 221.202783 
L 238.607145 216.702181 
L 240.238575 219.483452 
L 241.870005 214.982849 
L 243.501434 217.76412 
L 245.132864 213.263518 
L 246.764294 210.482247 
L 248.395724 208.762916 
L 250.027154 209.824856 
L 251.658584 208.105525 
L 253.290014 209.167465 
L 254.921444 207.448134 
L 256.552873 206.386194 
L 258.184303 207.043585 
L 259.815733 205.981645 
L 261.447163 205.324254 
L 263.078593 204.919706 
L 266.341453 204.515157 
L 267.972883 204.616294 
L 271.235742 204.363452 
L 274.498602 204.515157 
L 276.130032 204.666863 
L 277.761462 204.41402 
L 279.392892 204.565726 
L 281.024322 204.312883 
L 282.655751 204.464589 
L 285.918611 204.06004 
L 289.181471 203.908334 
L 298.97005 204.262314 
L 300.60148 204.515157 
L 302.23291 204.919706 
L 303.86434 204.262314 
L 305.49577 203.857766 
L 307.1272 204.110609 
L 308.75863 204.515157 
L 310.390059 205.172548 
L 312.021489 206.234488 
L 313.652919 207.953819 
L 315.284349 210.73509 
L 316.915779 215.235692 
L 318.547209 207.953819 
L 320.178639 203.453217 
L 321.810069 200.671946 
L 323.441498 198.952615 
L 325.072928 197.890676 
L 326.704358 198.548067 
L 328.335788 199.610007 
L 329.967218 197.890676 
L 331.598648 196.828736 
L 333.230078 196.171344 
L 334.861508 196.575893 
L 336.492937 195.918502 
L 338.124367 196.32305 
L 339.755797 196.980441 
L 341.387227 195.918502 
L 343.018657 195.26111 
L 344.650087 195.665659 
L 346.281517 195.008268 
L 347.912947 194.603719 
L 349.544376 194.856562 
L 351.175806 194.452013 
L 352.807236 194.704856 
L 354.438666 195.109405 
L 356.070096 194.452013 
L 357.701526 194.047465 
L 360.964386 193.642916 
L 362.595815 193.744054 
L 365.858675 193.491211 
L 367.490105 193.541779 
L 372.384395 193.339505 
L 375.647254 193.440642 
L 380.541544 193.238368 
L 383.804404 193.339505 
L 387.067264 193.187799 
L 396.855843 193.541779 
L 398.487273 193.794622 
L 398.487273 193.794622 
" style="fill:none;stroke:#2ca02c;stroke-linecap:square;stroke-width:1.5;"/>
   </g>
   <g id="line2d_19">
    <path clip-path="url(#p4513791f8d)" d="M 73.832727 222.719839 
L 78.727017 222.922114 
L 80.358447 222.770408 
L 81.989877 222.871545 
L 83.621307 222.719839 
L 86.884166 222.972682 
L 88.515596 222.719839 
L 91.778456 223.124388 
L 93.409886 222.719839 
L 95.041316 222.972682 
L 96.672746 222.568134 
L 99.935605 222.163585 
L 101.567035 222.062448 
L 103.198465 222.113017 
L 106.461325 221.961311 
L 109.724185 221.961311 
L 116.249904 221.860174 
L 119.512764 222.01188 
L 122.775624 222.416428 
L 124.407053 222.01188 
L 126.038483 221.759037 
L 127.669913 221.910742 
L 129.301343 221.6579 
L 130.932773 221.809605 
L 132.564203 221.556763 
L 134.195633 221.708468 
L 137.458492 221.30392 
L 140.721352 221.556763 
L 142.352782 221.809605 
L 143.984212 222.214154 
L 145.615642 221.556763 
L 147.247072 221.961311 
L 148.878502 221.30392 
L 150.509931 220.899371 
L 152.141361 221.152214 
L 153.772791 220.747666 
L 155.404221 221.000508 
L 157.035651 220.59596 
L 158.667081 220.848803 
L 160.298511 221.253351 
L 161.929941 221.910742 
L 163.56137 222.972682 
L 165.1928 221.253351 
L 166.82423 222.315291 
L 168.45566 220.59596 
L 170.08709 219.53402 
L 171.71852 220.191411 
L 173.34995 219.129472 
L 174.98138 218.47208 
L 176.61281 218.067532 
L 178.244239 218.320375 
L 179.875669 217.915826 
L 181.507099 218.168669 
L 183.138529 218.573217 
L 184.769959 219.230609 
L 186.401389 220.292548 
L 188.032819 218.573217 
L 189.664249 217.511278 
L 191.295678 216.853886 
L 192.927108 216.449338 
L 194.558538 216.702181 
L 196.189968 217.106729 
L 197.821398 217.76412 
L 199.452828 216.702181 
L 201.084258 216.044789 
L 202.715688 215.640241 
L 204.347117 215.893084 
L 205.978547 216.297632 
L 207.609977 216.955023 
L 209.241407 215.893084 
L 210.872837 215.235692 
L 212.504267 215.640241 
L 214.135697 216.297632 
L 215.767127 215.235692 
L 217.398556 215.893084 
L 219.029986 216.955023 
L 220.661416 218.674355 
L 222.292846 221.455625 
L 223.924276 225.956227 
L 225.555706 218.674355 
L 227.187136 223.174957 
L 228.818566 215.893084 
L 230.449995 220.393686 
L 232.081425 227.675559 
L 233.712855 239.458033 
L 235.344285 258.522381 
L 236.975715 227.675559 
L 238.607145 246.739906 
L 240.238575 215.893084 
L 241.870005 196.828736 
L 243.501434 185.046261 
L 245.132864 177.764388 
L 246.764294 173.263786 
L 248.395724 176.045057 
L 250.027154 180.545659 
L 251.658584 173.263786 
L 253.290014 177.764388 
L 254.921444 185.046261 
L 256.552873 196.828736 
L 258.184303 215.893084 
L 259.815733 185.046261 
L 261.447163 204.110609 
L 263.078593 234.957431 
L 264.710023 185.046261 
L 266.341453 215.893084 
L 267.972883 265.804254 
L 398.487273 265.804254 
L 398.487273 265.804254 
" style="fill:none;stroke:#d62728;stroke-linecap:square;stroke-width:1.5;"/>
   </g>
   <g id="line2d_20">
    <path clip-path="url(#p4513791f8d)" d="M 73.832727 222.719839 
L 77.095587 222.719839 
L 88.515596 222.466997 
L 95.041316 222.568134 
L 96.672746 222.466997 
L 99.935605 222.618702 
L 101.567035 222.466997 
L 103.198465 222.568134 
L 104.829895 222.416428 
L 106.461325 222.517565 
L 108.092755 222.36586 
L 111.355614 222.618702 
L 114.618474 222.214154 
L 117.881334 222.466997 
L 119.512764 222.719839 
L 121.144194 223.124388 
L 122.775624 223.781779 
L 124.407053 224.843719 
L 126.038483 223.124388 
L 127.669913 222.062448 
L 129.301343 222.719839 
L 130.932773 221.6579 
L 132.564203 222.315291 
L 134.195633 223.377231 
L 135.827063 225.096562 
L 137.458492 222.315291 
L 139.089922 220.59596 
L 140.721352 221.6579 
L 142.352782 219.938569 
L 143.984212 221.000508 
L 145.615642 219.281177 
L 147.247072 218.219237 
L 148.878502 217.561846 
L 150.509931 217.157298 
L 152.141361 216.904455 
L 155.404221 217.309003 
L 157.035651 216.904455 
L 160.298511 216.499906 
L 161.929941 216.601043 
L 163.56137 216.449338 
L 166.82423 216.702181 
L 168.45566 216.955023 
L 170.08709 216.550475 
L 171.71852 216.803318 
L 173.34995 216.398769 
L 174.98138 216.145926 
L 176.61281 216.297632 
L 178.244239 216.044789 
L 181.507099 216.449338 
L 183.138529 216.853886 
L 184.769959 216.196495 
L 186.401389 215.791946 
L 188.032819 216.044789 
L 189.664249 215.640241 
L 191.295678 215.387398 
L 192.927108 215.539104 
L 196.189968 215.134555 
L 199.452828 214.982849 
L 204.347117 215.185124 
L 207.609977 215.589672 
L 209.241407 215.994221 
L 210.872837 215.336829 
L 212.504267 214.932281 
L 215.767127 214.527732 
L 217.398556 214.62887 
L 220.661416 214.376027 
L 222.292846 214.426595 
L 223.924276 214.325458 
L 225.555706 214.376027 
L 230.449995 214.173753 
L 233.712855 214.173753 
L 236.975715 214.325458 
L 238.607145 214.173753 
L 241.870005 214.426595 
L 243.501434 214.679438 
L 245.132864 214.27489 
L 246.764294 214.527732 
L 248.395724 214.932281 
L 250.027154 214.27489 
L 251.658584 214.679438 
L 253.290014 215.336829 
L 254.921444 216.398769 
L 256.552873 218.1181 
L 258.184303 215.336829 
L 259.815733 213.617498 
L 261.447163 214.679438 
L 263.078593 212.960107 
L 264.710023 214.022047 
L 266.341453 215.741378 
L 267.972883 218.522649 
L 269.604312 214.022047 
L 271.235742 216.803318 
L 272.867172 221.30392 
L 274.498602 214.022047 
L 276.130032 218.522649 
L 277.761462 211.240776 
L 279.392892 206.740174 
L 281.024322 209.521445 
L 282.655751 205.020843 
L 284.287181 202.239572 
L 285.918611 203.958903 
L 287.550041 201.177632 
L 289.181471 202.896963 
L 290.812901 200.115692 
L 292.444331 198.396361 
L 294.075761 199.458301 
L 295.70719 197.73897 
L 297.33862 198.80091 
L 298.97005 197.081579 
L 300.60148 198.143518 
L 302.23291 196.424187 
L 303.86434 195.362247 
L 305.49577 194.704856 
L 307.1272 194.300308 
L 310.390059 193.895759 
L 312.021489 193.794622 
L 315.284349 193.946328 
L 316.915779 194.098033 
L 320.178639 193.693485 
L 323.441498 193.946328 
L 325.072928 194.199171 
L 326.704358 194.603719 
L 328.335788 193.946328 
L 329.967218 193.541779 
L 331.598648 193.794622 
L 333.230078 194.199171 
L 334.861508 194.856562 
L 336.492937 193.794622 
L 338.124367 194.452013 
L 339.755797 193.390074 
L 341.387227 194.047465 
L 343.018657 195.109405 
L 344.650087 196.828736 
L 346.281517 194.047465 
L 347.912947 195.766796 
L 349.544376 192.985525 
L 351.175806 194.704856 
L 352.807236 197.486127 
L 354.438666 201.986729 
L 356.070096 209.268602 
L 357.701526 221.051077 
L 359.332956 240.115425 
L 360.964386 209.268602 
L 362.595815 228.33295 
L 364.227245 259.179773 
L 398.487273 259.179773 
L 398.487273 259.179773 
" style="fill:none;stroke:#9467bd;stroke-linecap:square;stroke-width:1.5;"/>
   </g>
   <g id="line2d_21">
    <path clip-path="url(#p4513791f8d)" d="M 73.832727 222.719839 
L 77.095587 222.719839 
L 80.358447 222.871545 
L 83.621307 222.618702 
L 85.252736 222.669271 
L 86.884166 222.568134 
L 90.147026 222.719839 
L 93.409886 222.466997 
L 103.198465 222.264722 
L 106.461325 222.416428 
L 108.092755 222.568134 
L 111.355614 222.163585 
L 112.987044 222.062448 
L 114.618474 222.113017 
L 116.249904 222.01188 
L 117.881334 222.062448 
L 121.144194 221.910742 
L 124.407053 222.01188 
L 126.038483 221.910742 
L 129.301343 222.062448 
L 130.932773 222.214154 
L 132.564203 221.961311 
L 134.195633 222.113017 
L 135.827063 221.860174 
L 137.458492 222.01188 
L 140.721352 221.607331 
L 142.352782 221.506194 
L 143.984212 221.556763 
L 148.878502 221.354488 
L 153.772791 221.556763 
L 157.035651 221.961311 
L 158.667081 222.36586 
L 160.298511 221.708468 
L 161.929941 221.30392 
L 163.56137 221.556763 
L 165.1928 221.152214 
L 166.82423 221.405057 
L 168.45566 221.809605 
L 170.08709 221.152214 
L 171.71852 221.556763 
L 173.34995 222.214154 
L 174.98138 221.152214 
L 176.61281 221.809605 
L 178.244239 222.871545 
L 179.875669 224.590876 
L 181.507099 227.372147 
L 183.138529 222.871545 
L 184.769959 225.652816 
L 186.401389 221.152214 
L 188.032819 218.370943 
L 189.664249 220.090274 
L 191.295678 222.871545 
L 192.927108 227.372147 
L 194.558538 220.090274 
L 196.189968 224.590876 
L 197.821398 231.872749 
L 199.452828 243.655224 
L 201.084258 262.719572 
L 202.715688 293.566395 
L 398.487273 293.566395 
L 398.487273 293.566395 
" style="fill:none;stroke:#8c564b;stroke-linecap:square;stroke-width:1.5;"/>
   </g>
   <g id="line2d_22">
    <path clip-path="url(#p4513791f8d)" d="M 73.832727 222.820977 
L 77.095587 222.972682 
L 80.358447 223.377231 
L 81.989877 223.781779 
L 83.621307 224.439171 
L 85.252736 225.50111 
L 86.884166 223.781779 
L 88.515596 222.719839 
L 90.147026 223.377231 
L 91.778456 222.315291 
L 93.409886 222.972682 
L 95.041316 221.910742 
L 96.672746 221.253351 
L 98.304175 220.848803 
L 99.935605 220.59596 
L 103.198465 221.000508 
L 104.829895 220.59596 
L 106.461325 220.848803 
L 108.092755 220.444254 
L 109.724185 220.191411 
L 112.987044 220.59596 
L 114.618474 220.191411 
L 116.249904 220.444254 
L 117.881334 220.848803 
L 119.512764 220.191411 
L 121.144194 220.59596 
L 122.775624 219.938569 
L 124.407053 220.343117 
L 126.038483 221.000508 
L 127.669913 222.062448 
L 129.301343 220.343117 
L 130.932773 221.405057 
L 132.564203 219.685726 
L 134.195633 218.623786 
L 135.827063 219.281177 
L 137.458492 220.343117 
L 139.089922 218.623786 
L 140.721352 217.561846 
L 142.352782 218.219237 
L 143.984212 219.281177 
L 145.615642 217.561846 
L 147.247072 216.499906 
L 148.878502 217.157298 
L 150.509931 218.219237 
L 152.141361 219.938569 
L 153.772791 222.719839 
L 155.404221 218.219237 
L 157.035651 215.437967 
L 158.667081 217.157298 
L 160.298511 219.938569 
L 161.929941 215.437967 
L 163.56137 212.656696 
L 165.1928 210.937365 
L 166.82423 211.999304 
L 168.45566 210.279973 
L 170.08709 209.218033 
L 171.71852 208.560642 
L 173.34995 208.965191 
L 174.98138 208.307799 
L 176.61281 208.712348 
L 178.244239 209.369739 
L 179.875669 210.431679 
L 181.507099 212.15101 
L 183.138529 214.932281 
L 184.769959 210.431679 
L 186.401389 207.650408 
L 188.032819 205.931077 
L 189.664249 206.993017 
L 191.295678 205.273686 
L 192.927108 204.211746 
L 194.558538 204.869137 
L 196.189968 205.931077 
L 197.821398 207.650408 
L 199.452828 204.869137 
L 201.084258 206.588468 
L 202.715688 209.369739 
L 204.347117 213.870341 
L 205.978547 221.152214 
L 207.609977 232.934689 
L 209.241407 213.870341 
L 210.872837 225.652816 
L 212.504267 206.588468 
L 214.135697 218.370943 
L 215.767127 237.435291 
L 217.398556 206.588468 
L 219.029986 187.52412 
L 220.661416 175.741645 
L 222.292846 183.023518 
L 223.924276 194.805993 
L 225.555706 175.741645 
L 227.187136 163.959171 
L 228.818566 156.677298 
L 230.449995 161.1779 
L 232.081425 153.896027 
L 233.712855 158.396629 
L 235.344285 165.678502 
L 236.975715 153.896027 
L 238.607145 161.1779 
L 240.238575 172.960375 
L 241.870005 192.024722 
L 243.501434 161.1779 
L 245.132864 180.242247 
L 246.764294 149.395425 
L 248.395724 168.459773 
L 250.027154 137.61295 
L 251.658584 118.548602 
L 253.290014 106.766127 
L 254.921444 99.484254 
L 256.552873 94.983652 
L 258.184303 97.764923 
L 259.815733 93.264321 
L 261.447163 90.48305 
L 263.078593 92.202381 
L 264.710023 89.42111 
L 266.341453 87.701779 
L 267.972883 88.763719 
L 269.604312 87.044388 
L 271.235742 85.982448 
L 272.867172 86.639839 
L 274.498602 85.5779 
L 276.130032 84.920508 
L 277.761462 84.51596 
L 279.392892 84.768803 
L 281.024322 85.173351 
L 282.655751 84.51596 
L 284.287181 84.920508 
L 285.918611 84.263117 
L 287.550041 84.667666 
L 289.181471 85.325057 
L 290.812901 86.386997 
L 292.444331 88.106328 
L 294.075761 85.325057 
L 295.70719 83.605726 
L 297.33862 82.543786 
L 298.97005 83.201177 
L 300.60148 84.263117 
L 302.23291 82.543786 
L 303.86434 83.605726 
L 305.49577 81.886395 
L 307.1272 80.824455 
L 308.75863 80.167064 
L 310.390059 79.762515 
L 312.021489 79.509672 
L 315.284349 79.914221 
L 316.915779 79.509672 
L 318.547209 79.762515 
L 320.178639 79.357967 
L 321.810069 79.105124 
L 325.072928 79.509672 
L 326.704358 79.914221 
L 328.335788 80.571612 
L 329.967218 79.509672 
L 331.598648 80.167064 
L 333.230078 81.229003 
L 334.861508 79.509672 
L 336.492937 80.571612 
L 338.124367 82.290943 
L 339.755797 79.509672 
L 341.387227 81.229003 
L 343.018657 78.447732 
L 344.650087 80.167064 
L 346.281517 82.948334 
L 347.912947 78.447732 
L 349.544376 81.229003 
L 351.175806 76.728401 
L 352.807236 79.509672 
L 354.438666 84.010274 
L 356.070096 76.728401 
L 357.701526 72.227799 
L 359.332956 69.446528 
L 360.964386 67.727197 
L 362.595815 68.789137 
L 364.227245 67.069806 
L 365.858675 68.131746 
L 367.490105 69.851077 
L 369.121535 67.069806 
L 370.752965 65.350475 
L 372.384395 66.412415 
L 374.015825 68.131746 
L 375.647254 70.913017 
L 377.278684 66.412415 
L 378.910114 63.631144 
L 380.541544 65.350475 
L 382.172974 68.131746 
L 383.804404 72.632348 
L 385.435834 65.350475 
L 387.067264 69.851077 
L 388.698693 77.13295 
L 390.330123 65.350475 
L 391.961553 72.632348 
L 393.592983 60.849873 
L 395.224413 53.568 
L 396.855843 58.068602 
L 398.487273 65.350475 
L 398.487273 65.350475 
" style="fill:none;stroke:#e377c2;stroke-linecap:square;stroke-width:1.5;"/>
   </g>
   <g id="line2d_23">
    <path clip-path="url(#p4513791f8d)" d="M 73.832727 222.820977 
L 77.095587 222.972682 
L 78.727017 222.820977 
L 80.358447 222.922114 
L 83.621307 222.669271 
L 88.515596 222.618702 
L 90.147026 222.669271 
L 93.409886 222.517565 
L 96.672746 222.618702 
L 98.304175 222.517565 
L 99.935605 222.568134 
L 101.567035 222.466997 
L 104.829895 222.618702 
L 108.092755 222.36586 
L 111.355614 222.517565 
L 112.987044 222.36586 
L 116.249904 222.618702 
L 119.512764 222.214154 
L 121.144194 222.113017 
L 122.775624 222.163585 
L 127.669913 221.961311 
L 134.195633 221.860174 
L 135.827063 221.910742 
L 137.458492 221.809605 
L 140.721352 221.961311 
L 142.352782 221.809605 
L 143.984212 221.910742 
L 145.615642 221.759037 
L 148.878502 222.01188 
L 152.141361 221.607331 
L 153.772791 221.506194 
L 155.404221 221.556763 
L 157.035651 221.455625 
L 160.298511 221.607331 
L 161.929941 221.759037 
L 163.56137 221.506194 
L 165.1928 221.6579 
L 168.45566 221.253351 
L 171.71852 221.506194 
L 173.34995 221.759037 
L 174.98138 222.163585 
L 176.61281 221.506194 
L 178.244239 221.101645 
L 179.875669 220.848803 
L 181.507099 221.000508 
L 183.138529 220.747666 
L 186.401389 221.152214 
L 188.032819 221.556763 
L 189.664249 220.899371 
L 191.295678 221.30392 
L 192.927108 220.646528 
L 194.558538 221.051077 
L 196.189968 220.393686 
L 197.821398 220.798234 
L 199.452828 221.455625 
L 201.084258 220.393686 
L 202.715688 219.736294 
L 204.347117 220.140843 
L 205.978547 219.483452 
L 207.609977 219.078903 
L 209.241407 219.331746 
L 210.872837 218.927197 
L 212.504267 219.18004 
L 214.135697 219.584589 
L 215.767127 218.927197 
L 217.398556 218.522649 
L 220.661416 218.1181 
L 222.292846 218.016963 
L 225.555706 218.168669 
L 228.818566 217.915826 
L 236.975715 217.76412 
L 240.238575 217.865258 
L 245.132864 217.662983 
L 250.027154 217.612415 
L 251.658584 217.662983 
L 256.552873 217.460709 
L 261.447163 217.511278 
L 264.710023 217.511278 
L 267.972883 217.662983 
L 271.235742 218.067532 
L 272.867172 218.47208 
L 274.498602 219.129472 
L 276.130032 220.191411 
L 277.761462 221.910742 
L 279.392892 219.129472 
L 281.024322 220.848803 
L 282.655751 223.630074 
L 284.287181 219.129472 
L 285.918611 216.348201 
L 287.550041 214.62887 
L 289.181471 213.56693 
L 290.812901 214.224321 
L 292.444331 213.162381 
L 294.075761 212.50499 
L 295.70719 212.100441 
L 298.97005 211.695893 
L 300.60148 211.594756 
L 302.23291 211.645324 
L 303.86434 211.544187 
L 305.49577 211.594756 
L 308.75863 211.44305 
L 313.652919 211.645324 
L 316.915779 212.049873 
L 318.547209 212.454421 
L 320.178639 211.79703 
L 321.810069 212.201579 
L 323.441498 211.544187 
L 325.072928 211.139639 
L 326.704358 211.392482 
L 328.335788 211.79703 
L 329.967218 211.139639 
L 331.598648 211.544187 
L 333.230078 210.886796 
L 334.861508 211.291344 
L 336.492937 210.633953 
L 338.124367 210.229405 
L 341.387227 209.824856 
L 343.018657 209.925993 
L 346.281517 209.673151 
L 349.544376 209.673151 
L 352.807236 209.824856 
L 354.438666 209.976562 
L 356.070096 209.723719 
L 359.332956 210.128268 
L 360.964386 210.532816 
L 362.595815 211.190207 
L 364.227245 212.252147 
L 365.858675 213.971478 
L 367.490105 211.190207 
L 369.121535 212.909538 
L 370.752965 210.128268 
L 372.384395 208.408936 
L 374.015825 207.346997 
L 375.647254 208.004388 
L 377.278684 206.942448 
L 378.910114 206.285057 
L 380.541544 206.689605 
L 382.172974 206.032214 
L 383.804404 205.627666 
L 385.435834 205.880508 
L 387.067264 206.285057 
L 388.698693 205.627666 
L 390.330123 205.223117 
L 393.592983 204.818569 
L 395.224413 204.717431 
L 396.855843 204.768 
L 398.487273 204.666863 
L 398.487273 204.666863 
" style="fill:none;stroke:#7f7f7f;stroke-linecap:square;stroke-width:1.5;"/>
   </g>
   <g id="line2d_24">
    <path clip-path="url(#p4513791f8d)" d="M 73.832727 222.719839 
L 80.358447 222.618702 
L 83.621307 222.770408 
L 86.884166 223.174957 
L 88.515596 222.770408 
L 91.778456 222.36586 
L 95.041316 222.214154 
L 98.304175 222.315291 
L 103.198465 222.113017 
L 108.092755 222.163585 
L 111.355614 222.163585 
L 112.987044 222.214154 
L 116.249904 222.062448 
L 126.038483 222.416428 
L 127.669913 222.669271 
L 129.301343 223.073819 
L 130.932773 222.416428 
L 132.564203 222.01188 
L 135.827063 221.607331 
L 137.458492 221.708468 
L 140.721352 221.455625 
L 150.509931 221.253351 
L 153.772791 221.253351 
L 158.667081 221.202783 
L 163.56137 221.405057 
L 165.1928 221.253351 
L 166.82423 221.354488 
L 170.08709 221.101645 
L 173.34995 221.253351 
L 176.61281 221.6579 
L 178.244239 221.253351 
L 179.875669 221.506194 
L 181.507099 221.101645 
L 183.138529 220.848803 
L 184.769959 221.000508 
L 186.401389 220.747666 
L 189.664249 221.152214 
L 191.295678 221.556763 
L 192.927108 220.899371 
L 194.558538 220.494823 
L 196.189968 220.24198 
L 199.452828 220.646528 
L 201.084258 220.24198 
L 202.715688 220.494823 
L 204.347117 220.090274 
L 205.978547 219.837431 
L 207.609977 219.989137 
L 209.241407 219.736294 
L 212.504267 220.140843 
L 214.135697 219.736294 
L 215.767127 219.989137 
L 217.398556 220.393686 
L 219.029986 221.051077 
L 220.661416 219.989137 
L 222.292846 219.331746 
L 223.924276 219.736294 
L 225.555706 219.078903 
L 227.187136 218.674355 
L 228.818566 218.927197 
L 230.449995 219.331746 
L 232.081425 218.674355 
L 233.712855 218.269806 
L 236.975715 217.865258 
L 238.607145 217.966395 
L 241.870005 217.713552 
L 245.132864 217.713552 
L 246.764294 217.76412 
L 248.395724 217.662983 
L 251.658584 217.814689 
L 254.921444 218.219237 
L 256.552873 217.814689 
L 258.184303 218.067532 
L 259.815733 218.47208 
L 261.447163 217.814689 
L 263.078593 218.219237 
L 264.710023 217.561846 
L 266.341453 217.966395 
L 267.972883 217.309003 
L 269.604312 216.904455 
L 272.867172 216.499906 
L 277.761462 216.297632 
L 285.918611 216.145926 
L 290.812901 216.348201 
L 292.444331 216.196495 
L 295.70719 216.449338 
L 298.97005 216.044789 
L 302.23291 216.297632 
L 305.49577 215.893084 
L 308.75863 216.145926 
L 310.390059 216.398769 
L 312.021489 215.994221 
L 313.652919 216.247064 
L 315.284349 215.842515 
L 316.915779 216.095358 
L 318.547209 215.690809 
L 320.178639 215.943652 
L 321.810069 216.348201 
L 323.441498 217.005592 
L 325.072928 218.067532 
L 326.704358 216.348201 
L 328.335788 215.286261 
L 329.967218 214.62887 
L 331.598648 215.033418 
L 333.230078 214.376027 
L 334.861508 213.971478 
L 336.492937 214.224321 
L 338.124367 214.62887 
L 339.755797 215.286261 
L 341.387227 216.348201 
L 343.018657 218.067532 
L 344.650087 215.286261 
L 346.281517 213.56693 
L 347.912947 214.62887 
L 349.544376 216.348201 
L 351.175806 213.56693 
L 352.807236 215.286261 
L 354.438666 218.067532 
L 356.070096 213.56693 
L 357.701526 216.348201 
L 359.332956 211.847599 
L 360.964386 214.62887 
L 362.595815 210.128268 
L 364.227245 207.346997 
L 365.858675 205.627666 
L 367.490105 204.565726 
L 369.121535 203.908334 
L 370.752965 203.503786 
L 372.384395 203.756629 
L 374.015825 203.35208 
L 375.647254 203.099237 
L 378.910114 203.503786 
L 380.541544 203.908334 
L 382.172974 204.565726 
L 383.804404 203.503786 
L 385.435834 202.846395 
L 387.067264 202.441846 
L 388.698693 202.694689 
L 390.330123 203.099237 
L 391.961553 202.441846 
L 393.592983 202.037298 
L 395.224413 202.29014 
L 396.855843 202.694689 
L 398.487273 203.35208 
L 398.487273 203.35208 
" style="fill:none;stroke:#bcbd22;stroke-linecap:square;stroke-width:1.5;"/>
   </g>
   <g id="line2d_25">
    <path clip-path="url(#p4513791f8d)" d="M 73.832727 222.820977 
L 75.464157 222.871545 
L 80.358447 222.669271 
L 90.147026 223.023251 
L 91.778456 223.276094 
L 93.409886 223.680642 
L 95.041316 223.023251 
L 96.672746 222.618702 
L 98.304175 222.871545 
L 99.935605 222.466997 
L 101.567035 222.719839 
L 103.198465 223.124388 
L 104.829895 222.466997 
L 106.461325 222.871545 
L 108.092755 223.528936 
L 109.724185 222.466997 
L 111.355614 223.124388 
L 112.987044 224.186328 
L 114.618474 225.905659 
L 116.249904 228.68693 
L 117.881334 233.187532 
L 119.512764 240.469405 
L 121.144194 228.68693 
L 122.775624 221.405057 
L 124.407053 216.904455 
L 126.038483 219.685726 
L 127.669913 215.185124 
L 129.301343 212.403853 
L 130.932773 214.123184 
L 132.564203 216.904455 
L 134.195633 212.403853 
L 135.827063 215.185124 
L 137.458492 210.684522 
L 139.089922 213.465793 
L 140.721352 217.966395 
L 142.352782 210.684522 
L 143.984212 206.18392 
L 145.615642 203.402649 
L 147.247072 201.683318 
L 148.878502 200.621378 
L 150.509931 201.278769 
L 152.141361 202.340709 
L 153.772791 204.06004 
L 155.404221 201.278769 
L 157.035651 202.9981 
L 158.667081 205.779371 
L 160.298511 210.279973 
L 161.929941 217.561846 
L 163.56137 229.344321 
L 165.1928 248.408669 
L 166.82423 279.255492 
L 398.487273 279.255492 
L 398.487273 279.255492 
" style="fill:none;stroke:#17becf;stroke-linecap:square;stroke-width:1.5;"/>
   </g>
   <g id="patch_3">
    <path d="M 57.6 307.584 
L 57.6 41.472 
" style="fill:none;stroke:#000000;stroke-linecap:square;stroke-linejoin:miter;stroke-width:0.8;"/>
   </g>
   <g id="patch_4">
    <path d="M 414.72 307.584 
L 414.72 41.472 
" style="fill:none;stroke:#000000;stroke-linecap:square;stroke-linejoin:miter;stroke-width:0.8;"/>
   </g>
   <g id="patch_5">
    <path d="M 57.6 307.584 
L 414.72 307.584 
" style="fill:none;stroke:#000000;stroke-linecap:square;stroke-linejoin:miter;stroke-width:0.8;"/>
   </g>
   <g id="patch_6">
    <path d="M 57.6 41.472 
L 414.72 41.472 
" style="fill:none;stroke:#000000;stroke-linecap:square;stroke-linejoin:miter;stroke-width:0.8;"/>
   </g>
   <g id="text_18">
    <!-- Grafico fondos rojos fibonacci F.I: $150000.0 -->
    <g transform="translate(102.793125 35.472)scale(0.12 -0.12)">
     <defs>
      <path d="M 59.515625 10.40625 
L 59.515625 29.984375 
L 43.40625 29.984375 
L 43.40625 38.09375 
L 69.28125 38.09375 
L 69.28125 6.78125 
Q 63.578125 2.734375 56.6875 0.65625 
Q 49.8125 -1.421875 42 -1.421875 
Q 24.90625 -1.421875 15.25 8.5625 
Q 5.609375 18.5625 5.609375 36.375 
Q 5.609375 54.25 15.25 64.234375 
Q 24.90625 74.21875 42 74.21875 
Q 49.125 74.21875 55.546875 72.453125 
Q 61.96875 70.703125 67.390625 67.28125 
L 67.390625 56.78125 
Q 61.921875 61.421875 55.765625 63.765625 
Q 49.609375 66.109375 42.828125 66.109375 
Q 29.4375 66.109375 22.71875 58.640625 
Q 16.015625 51.171875 16.015625 36.375 
Q 16.015625 21.625 22.71875 14.15625 
Q 29.4375 6.6875 42.828125 6.6875 
Q 48.046875 6.6875 52.140625 7.59375 
Q 56.25 8.5 59.515625 10.40625 
z
" id="DejaVuSans-71"/>
      <path d="M 37.109375 75.984375 
L 37.109375 68.5 
L 28.515625 68.5 
Q 23.6875 68.5 21.796875 66.546875 
Q 19.921875 64.59375 19.921875 59.515625 
L 19.921875 54.6875 
L 34.71875 54.6875 
L 34.71875 47.703125 
L 19.921875 47.703125 
L 19.921875 0 
L 10.890625 0 
L 10.890625 47.703125 
L 2.296875 47.703125 
L 2.296875 54.6875 
L 10.890625 54.6875 
L 10.890625 58.5 
Q 10.890625 67.625 15.140625 71.796875 
Q 19.390625 75.984375 28.609375 75.984375 
z
" id="DejaVuSans-102"/>
      <path d="M 48.78125 52.59375 
L 48.78125 44.1875 
Q 44.96875 46.296875 41.140625 47.34375 
Q 37.3125 48.390625 33.40625 48.390625 
Q 24.65625 48.390625 19.8125 42.84375 
Q 14.984375 37.3125 14.984375 27.296875 
Q 14.984375 17.28125 19.8125 11.734375 
Q 24.65625 6.203125 33.40625 6.203125 
Q 37.3125 6.203125 41.140625 7.25 
Q 44.96875 8.296875 48.78125 10.40625 
L 48.78125 2.09375 
Q 45.015625 0.34375 40.984375 -0.53125 
Q 36.96875 -1.421875 32.421875 -1.421875 
Q 20.0625 -1.421875 12.78125 6.34375 
Q 5.515625 14.109375 5.515625 27.296875 
Q 5.515625 40.671875 12.859375 48.328125 
Q 20.21875 56 33.015625 56 
Q 37.15625 56 41.109375 55.140625 
Q 45.0625 54.296875 48.78125 52.59375 
z
" id="DejaVuSans-99"/>
      <path d="M 44.28125 53.078125 
L 44.28125 44.578125 
Q 40.484375 46.53125 36.375 47.5 
Q 32.28125 48.484375 27.875 48.484375 
Q 21.1875 48.484375 17.84375 46.4375 
Q 14.5 44.390625 14.5 40.28125 
Q 14.5 37.15625 16.890625 35.375 
Q 19.28125 33.59375 26.515625 31.984375 
L 29.59375 31.296875 
Q 39.15625 29.25 43.1875 25.515625 
Q 47.21875 21.78125 47.21875 15.09375 
Q 47.21875 7.46875 41.1875 3.015625 
Q 35.15625 -1.421875 24.609375 -1.421875 
Q 20.21875 -1.421875 15.453125 -0.5625 
Q 10.6875 0.296875 5.421875 2 
L 5.421875 11.28125 
Q 10.40625 8.6875 15.234375 7.390625 
Q 20.0625 6.109375 24.8125 6.109375 
Q 31.15625 6.109375 34.5625 8.28125 
Q 37.984375 10.453125 37.984375 14.40625 
Q 37.984375 18.0625 35.515625 20.015625 
Q 33.0625 21.96875 24.703125 23.78125 
L 21.578125 24.515625 
Q 13.234375 26.265625 9.515625 29.90625 
Q 5.8125 33.546875 5.8125 39.890625 
Q 5.8125 47.609375 11.28125 51.796875 
Q 16.75 56 26.8125 56 
Q 31.78125 56 36.171875 55.265625 
Q 40.578125 54.546875 44.28125 53.078125 
z
" id="DejaVuSans-115"/>
      <path d="M 9.421875 54.6875 
L 18.40625 54.6875 
L 18.40625 -0.984375 
Q 18.40625 -11.421875 14.421875 -16.109375 
Q 10.453125 -20.796875 1.609375 -20.796875 
L -1.8125 -20.796875 
L -1.8125 -13.1875 
L 0.59375 -13.1875 
Q 5.71875 -13.1875 7.5625 -10.8125 
Q 9.421875 -8.453125 9.421875 -0.984375 
z
M 9.421875 75.984375 
L 18.40625 75.984375 
L 18.40625 64.59375 
L 9.421875 64.59375 
z
" id="DejaVuSans-106"/>
      <path d="M 48.6875 27.296875 
Q 48.6875 37.203125 44.609375 42.84375 
Q 40.53125 48.484375 33.40625 48.484375 
Q 26.265625 48.484375 22.1875 42.84375 
Q 18.109375 37.203125 18.109375 27.296875 
Q 18.109375 17.390625 22.1875 11.75 
Q 26.265625 6.109375 33.40625 6.109375 
Q 40.53125 6.109375 44.609375 11.75 
Q 48.6875 17.390625 48.6875 27.296875 
z
M 18.109375 46.390625 
Q 20.953125 51.265625 25.265625 53.625 
Q 29.59375 56 35.59375 56 
Q 45.5625 56 51.78125 48.09375 
Q 58.015625 40.1875 58.015625 27.296875 
Q 58.015625 14.40625 51.78125 6.484375 
Q 45.5625 -1.421875 35.59375 -1.421875 
Q 29.59375 -1.421875 25.265625 0.953125 
Q 20.953125 3.328125 18.109375 8.203125 
L 18.109375 0 
L 9.078125 0 
L 9.078125 75.984375 
L 18.109375 75.984375 
z
" id="DejaVuSans-98"/>
      <path d="M 10.6875 12.40625 
L 21 12.40625 
L 21 0 
L 10.6875 0 
z
" id="DejaVuSans-46"/>
      <path d="M 9.8125 72.90625 
L 19.671875 72.90625 
L 19.671875 0 
L 9.8125 0 
z
" id="DejaVuSans-73"/>
      <path d="M 11.71875 12.40625 
L 22.015625 12.40625 
L 22.015625 0 
L 11.71875 0 
z
M 11.71875 51.703125 
L 22.015625 51.703125 
L 22.015625 39.3125 
L 11.71875 39.3125 
z
" id="DejaVuSans-58"/>
     </defs>
     <use xlink:href="#DejaVuSans-71"/>
     <use x="77.490234" xlink:href="#DejaVuSans-114"/>
     <use x="118.603516" xlink:href="#DejaVuSans-97"/>
     <use x="179.882812" xlink:href="#DejaVuSans-102"/>
     <use x="215.087891" xlink:href="#DejaVuSans-105"/>
     <use x="242.871094" xlink:href="#DejaVuSans-99"/>
     <use x="297.851562" xlink:href="#DejaVuSans-111"/>
     <use x="359.033203" xlink:href="#DejaVuSans-32"/>
     <use x="390.820312" xlink:href="#DejaVuSans-102"/>
     <use x="426.025391" xlink:href="#DejaVuSans-111"/>
     <use x="487.207031" xlink:href="#DejaVuSans-110"/>
     <use x="550.585938" xlink:href="#DejaVuSans-100"/>
     <use x="614.0625" xlink:href="#DejaVuSans-111"/>
     <use x="675.244141" xlink:href="#DejaVuSans-115"/>
     <use x="727.34375" xlink:href="#DejaVuSans-32"/>
     <use x="759.130859" xlink:href="#DejaVuSans-114"/>
     <use x="797.994141" xlink:href="#DejaVuSans-111"/>
     <use x="859.175781" xlink:href="#DejaVuSans-106"/>
     <use x="886.958984" xlink:href="#DejaVuSans-111"/>
     <use x="948.140625" xlink:href="#DejaVuSans-115"/>
     <use x="1000.240234" xlink:href="#DejaVuSans-32"/>
     <use x="1032.027344" xlink:href="#DejaVuSans-102"/>
     <use x="1067.232422" xlink:href="#DejaVuSans-105"/>
     <use x="1095.015625" xlink:href="#DejaVuSans-98"/>
     <use x="1158.492188" xlink:href="#DejaVuSans-111"/>
     <use x="1219.673828" xlink:href="#DejaVuSans-110"/>
     <use x="1283.052734" xlink:href="#DejaVuSans-97"/>
     <use x="1344.332031" xlink:href="#DejaVuSans-99"/>
     <use x="1399.3125" xlink:href="#DejaVuSans-99"/>
     <use x="1454.292969" xlink:href="#DejaVuSans-105"/>
     <use x="1482.076172" xlink:href="#DejaVuSans-32"/>
     <use x="1513.863281" xlink:href="#DejaVuSans-70"/>
     <use x="1555.257812" xlink:href="#DejaVuSans-46"/>
     <use x="1587.044922" xlink:href="#DejaVuSans-73"/>
     <use x="1616.537109" xlink:href="#DejaVuSans-58"/>
     <use x="1650.228516" xlink:href="#DejaVuSans-32"/>
     <use x="1682.015625" xlink:href="#DejaVuSans-36"/>
     <use x="1745.638672" xlink:href="#DejaVuSans-49"/>
     <use x="1809.261719" xlink:href="#DejaVuSans-53"/>
     <use x="1872.884766" xlink:href="#DejaVuSans-48"/>
     <use x="1936.507812" xlink:href="#DejaVuSans-48"/>
     <use x="2000.130859" xlink:href="#DejaVuSans-48"/>
     <use x="2063.753906" xlink:href="#DejaVuSans-48"/>
     <use x="2127.376953" xlink:href="#DejaVuSans-46"/>
     <use x="2159.164062" xlink:href="#DejaVuSans-48"/>
    </g>
   </g>
   <g id="legend_1">
    <g id="patch_7">
     <path d="M 64.6 196.25325 
L 148.025 196.25325 
Q 150.025 196.25325 150.025 194.25325 
L 150.025 48.472 
Q 150.025 46.472 148.025 46.472 
L 64.6 46.472 
Q 62.6 46.472 62.6 48.472 
L 62.6 194.25325 
Q 62.6 196.25325 64.6 196.25325 
z
" style="fill:#ffffff;opacity:0.8;stroke:#cccccc;stroke-linejoin:miter;"/>
    </g>
    <g id="line2d_26">
     <path d="M 66.6 54.570437 
L 86.6 54.570437 
" style="fill:none;stroke:#1f77b4;stroke-linecap:square;stroke-width:1.5;"/>
    </g>
    <g id="line2d_27"/>
    <g id="text_19">
     <!-- Fondos 1 -->
     <g transform="translate(94.6 58.070437)scale(0.1 -0.1)">
      <use xlink:href="#DejaVuSans-70"/>
      <use x="53.894531" xlink:href="#DejaVuSans-111"/>
      <use x="115.076172" xlink:href="#DejaVuSans-110"/>
      <use x="178.455078" xlink:href="#DejaVuSans-100"/>
      <use x="241.931641" xlink:href="#DejaVuSans-111"/>
      <use x="303.113281" xlink:href="#DejaVuSans-115"/>
      <use x="355.212891" xlink:href="#DejaVuSans-32"/>
      <use x="387" xlink:href="#DejaVuSans-49"/>
     </g>
    </g>
    <g id="line2d_28">
     <path d="M 66.6 69.248562 
L 86.6 69.248562 
" style="fill:none;stroke:#ff7f0e;stroke-linecap:square;stroke-width:1.5;"/>
    </g>
    <g id="line2d_29"/>
    <g id="text_20">
     <!-- Fondos 2 -->
     <g transform="translate(94.6 72.748562)scale(0.1 -0.1)">
      <use xlink:href="#DejaVuSans-70"/>
      <use x="53.894531" xlink:href="#DejaVuSans-111"/>
      <use x="115.076172" xlink:href="#DejaVuSans-110"/>
      <use x="178.455078" xlink:href="#DejaVuSans-100"/>
      <use x="241.931641" xlink:href="#DejaVuSans-111"/>
      <use x="303.113281" xlink:href="#DejaVuSans-115"/>
      <use x="355.212891" xlink:href="#DejaVuSans-32"/>
      <use x="387" xlink:href="#DejaVuSans-50"/>
     </g>
    </g>
    <g id="line2d_30">
     <path d="M 66.6 83.926688 
L 86.6 83.926688 
" style="fill:none;stroke:#2ca02c;stroke-linecap:square;stroke-width:1.5;"/>
    </g>
    <g id="line2d_31"/>
    <g id="text_21">
     <!-- Fondos 3 -->
     <g transform="translate(94.6 87.426688)scale(0.1 -0.1)">
      <use xlink:href="#DejaVuSans-70"/>
      <use x="53.894531" xlink:href="#DejaVuSans-111"/>
      <use x="115.076172" xlink:href="#DejaVuSans-110"/>
      <use x="178.455078" xlink:href="#DejaVuSans-100"/>
      <use x="241.931641" xlink:href="#DejaVuSans-111"/>
      <use x="303.113281" xlink:href="#DejaVuSans-115"/>
      <use x="355.212891" xlink:href="#DejaVuSans-32"/>
      <use x="387" xlink:href="#DejaVuSans-51"/>
     </g>
    </g>
    <g id="line2d_32">
     <path d="M 66.6 98.604812 
L 86.6 98.604812 
" style="fill:none;stroke:#d62728;stroke-linecap:square;stroke-width:1.5;"/>
    </g>
    <g id="line2d_33"/>
    <g id="text_22">
     <!-- Fondos 4 -->
     <g transform="translate(94.6 102.104812)scale(0.1 -0.1)">
      <use xlink:href="#DejaVuSans-70"/>
      <use x="53.894531" xlink:href="#DejaVuSans-111"/>
      <use x="115.076172" xlink:href="#DejaVuSans-110"/>
      <use x="178.455078" xlink:href="#DejaVuSans-100"/>
      <use x="241.931641" xlink:href="#DejaVuSans-111"/>
      <use x="303.113281" xlink:href="#DejaVuSans-115"/>
      <use x="355.212891" xlink:href="#DejaVuSans-32"/>
      <use x="387" xlink:href="#DejaVuSans-52"/>
     </g>
    </g>
    <g id="line2d_34">
     <path d="M 66.6 113.282938 
L 86.6 113.282938 
" style="fill:none;stroke:#9467bd;stroke-linecap:square;stroke-width:1.5;"/>
    </g>
    <g id="line2d_35"/>
    <g id="text_23">
     <!-- Fondos 5 -->
     <g transform="translate(94.6 116.782938)scale(0.1 -0.1)">
      <use xlink:href="#DejaVuSans-70"/>
      <use x="53.894531" xlink:href="#DejaVuSans-111"/>
      <use x="115.076172" xlink:href="#DejaVuSans-110"/>
      <use x="178.455078" xlink:href="#DejaVuSans-100"/>
      <use x="241.931641" xlink:href="#DejaVuSans-111"/>
      <use x="303.113281" xlink:href="#DejaVuSans-115"/>
      <use x="355.212891" xlink:href="#DejaVuSans-32"/>
      <use x="387" xlink:href="#DejaVuSans-53"/>
     </g>
    </g>
    <g id="line2d_36">
     <path d="M 66.6 127.961062 
L 86.6 127.961062 
" style="fill:none;stroke:#8c564b;stroke-linecap:square;stroke-width:1.5;"/>
    </g>
    <g id="line2d_37"/>
    <g id="text_24">
     <!-- Fondos 6 -->
     <g transform="translate(94.6 131.461062)scale(0.1 -0.1)">
      <defs>
       <path d="M 33.015625 40.375 
Q 26.375 40.375 22.484375 35.828125 
Q 18.609375 31.296875 18.609375 23.390625 
Q 18.609375 15.53125 22.484375 10.953125 
Q 26.375 6.390625 33.015625 6.390625 
Q 39.65625 6.390625 43.53125 10.953125 
Q 47.40625 15.53125 47.40625 23.390625 
Q 47.40625 31.296875 43.53125 35.828125 
Q 39.65625 40.375 33.015625 40.375 
z
M 52.59375 71.296875 
L 52.59375 62.3125 
Q 48.875 64.0625 45.09375 64.984375 
Q 41.3125 65.921875 37.59375 65.921875 
Q 27.828125 65.921875 22.671875 59.328125 
Q 17.53125 52.734375 16.796875 39.40625 
Q 19.671875 43.65625 24.015625 45.921875 
Q 28.375 48.1875 33.59375 48.1875 
Q 44.578125 48.1875 50.953125 41.515625 
Q 57.328125 34.859375 57.328125 23.390625 
Q 57.328125 12.15625 50.6875 5.359375 
Q 44.046875 -1.421875 33.015625 -1.421875 
Q 20.359375 -1.421875 13.671875 8.265625 
Q 6.984375 17.96875 6.984375 36.375 
Q 6.984375 53.65625 15.1875 63.9375 
Q 23.390625 74.21875 37.203125 74.21875 
Q 40.921875 74.21875 44.703125 73.484375 
Q 48.484375 72.75 52.59375 71.296875 
z
" id="DejaVuSans-54"/>
      </defs>
      <use xlink:href="#DejaVuSans-70"/>
      <use x="53.894531" xlink:href="#DejaVuSans-111"/>
      <use x="115.076172" xlink:href="#DejaVuSans-110"/>
      <use x="178.455078" xlink:href="#DejaVuSans-100"/>
      <use x="241.931641" xlink:href="#DejaVuSans-111"/>
      <use x="303.113281" xlink:href="#DejaVuSans-115"/>
      <use x="355.212891" xlink:href="#DejaVuSans-32"/>
      <use x="387" xlink:href="#DejaVuSans-54"/>
     </g>
    </g>
    <g id="line2d_38">
     <path d="M 66.6 142.639187 
L 86.6 142.639187 
" style="fill:none;stroke:#e377c2;stroke-linecap:square;stroke-width:1.5;"/>
    </g>
    <g id="line2d_39"/>
    <g id="text_25">
     <!-- Fondos 7 -->
     <g transform="translate(94.6 146.139187)scale(0.1 -0.1)">
      <use xlink:href="#DejaVuSans-70"/>
      <use x="53.894531" xlink:href="#DejaVuSans-111"/>
      <use x="115.076172" xlink:href="#DejaVuSans-110"/>
      <use x="178.455078" xlink:href="#DejaVuSans-100"/>
      <use x="241.931641" xlink:href="#DejaVuSans-111"/>
      <use x="303.113281" xlink:href="#DejaVuSans-115"/>
      <use x="355.212891" xlink:href="#DejaVuSans-32"/>
      <use x="387" xlink:href="#DejaVuSans-55"/>
     </g>
    </g>
    <g id="line2d_40">
     <path d="M 66.6 157.317312 
L 86.6 157.317312 
" style="fill:none;stroke:#7f7f7f;stroke-linecap:square;stroke-width:1.5;"/>
    </g>
    <g id="line2d_41"/>
    <g id="text_26">
     <!-- Fondos 8 -->
     <g transform="translate(94.6 160.817312)scale(0.1 -0.1)">
      <defs>
       <path d="M 31.78125 34.625 
Q 24.75 34.625 20.71875 30.859375 
Q 16.703125 27.09375 16.703125 20.515625 
Q 16.703125 13.921875 20.71875 10.15625 
Q 24.75 6.390625 31.78125 6.390625 
Q 38.8125 6.390625 42.859375 10.171875 
Q 46.921875 13.96875 46.921875 20.515625 
Q 46.921875 27.09375 42.890625 30.859375 
Q 38.875 34.625 31.78125 34.625 
z
M 21.921875 38.8125 
Q 15.578125 40.375 12.03125 44.71875 
Q 8.5 49.078125 8.5 55.328125 
Q 8.5 64.0625 14.71875 69.140625 
Q 20.953125 74.21875 31.78125 74.21875 
Q 42.671875 74.21875 48.875 69.140625 
Q 55.078125 64.0625 55.078125 55.328125 
Q 55.078125 49.078125 51.53125 44.71875 
Q 48 40.375 41.703125 38.8125 
Q 48.828125 37.15625 52.796875 32.3125 
Q 56.78125 27.484375 56.78125 20.515625 
Q 56.78125 9.90625 50.3125 4.234375 
Q 43.84375 -1.421875 31.78125 -1.421875 
Q 19.734375 -1.421875 13.25 4.234375 
Q 6.78125 9.90625 6.78125 20.515625 
Q 6.78125 27.484375 10.78125 32.3125 
Q 14.796875 37.15625 21.921875 38.8125 
z
M 18.3125 54.390625 
Q 18.3125 48.734375 21.84375 45.5625 
Q 25.390625 42.390625 31.78125 42.390625 
Q 38.140625 42.390625 41.71875 45.5625 
Q 45.3125 48.734375 45.3125 54.390625 
Q 45.3125 60.0625 41.71875 63.234375 
Q 38.140625 66.40625 31.78125 66.40625 
Q 25.390625 66.40625 21.84375 63.234375 
Q 18.3125 60.0625 18.3125 54.390625 
z
" id="DejaVuSans-56"/>
      </defs>
      <use xlink:href="#DejaVuSans-70"/>
      <use x="53.894531" xlink:href="#DejaVuSans-111"/>
      <use x="115.076172" xlink:href="#DejaVuSans-110"/>
      <use x="178.455078" xlink:href="#DejaVuSans-100"/>
      <use x="241.931641" xlink:href="#DejaVuSans-111"/>
      <use x="303.113281" xlink:href="#DejaVuSans-115"/>
      <use x="355.212891" xlink:href="#DejaVuSans-32"/>
      <use x="387" xlink:href="#DejaVuSans-56"/>
     </g>
    </g>
    <g id="line2d_42">
     <path d="M 66.6 171.995437 
L 86.6 171.995437 
" style="fill:none;stroke:#bcbd22;stroke-linecap:square;stroke-width:1.5;"/>
    </g>
    <g id="line2d_43"/>
    <g id="text_27">
     <!-- Fondos 9 -->
     <g transform="translate(94.6 175.495437)scale(0.1 -0.1)">
      <defs>
       <path d="M 10.984375 1.515625 
L 10.984375 10.5 
Q 14.703125 8.734375 18.5 7.8125 
Q 22.3125 6.890625 25.984375 6.890625 
Q 35.75 6.890625 40.890625 13.453125 
Q 46.046875 20.015625 46.78125 33.40625 
Q 43.953125 29.203125 39.59375 26.953125 
Q 35.25 24.703125 29.984375 24.703125 
Q 19.046875 24.703125 12.671875 31.3125 
Q 6.296875 37.9375 6.296875 49.421875 
Q 6.296875 60.640625 12.9375 67.421875 
Q 19.578125 74.21875 30.609375 74.21875 
Q 43.265625 74.21875 49.921875 64.515625 
Q 56.59375 54.828125 56.59375 36.375 
Q 56.59375 19.140625 48.40625 8.859375 
Q 40.234375 -1.421875 26.421875 -1.421875 
Q 22.703125 -1.421875 18.890625 -0.6875 
Q 15.09375 0.046875 10.984375 1.515625 
z
M 30.609375 32.421875 
Q 37.25 32.421875 41.125 36.953125 
Q 45.015625 41.5 45.015625 49.421875 
Q 45.015625 57.28125 41.125 61.84375 
Q 37.25 66.40625 30.609375 66.40625 
Q 23.96875 66.40625 20.09375 61.84375 
Q 16.21875 57.28125 16.21875 49.421875 
Q 16.21875 41.5 20.09375 36.953125 
Q 23.96875 32.421875 30.609375 32.421875 
z
" id="DejaVuSans-57"/>
      </defs>
      <use xlink:href="#DejaVuSans-70"/>
      <use x="53.894531" xlink:href="#DejaVuSans-111"/>
      <use x="115.076172" xlink:href="#DejaVuSans-110"/>
      <use x="178.455078" xlink:href="#DejaVuSans-100"/>
      <use x="241.931641" xlink:href="#DejaVuSans-111"/>
      <use x="303.113281" xlink:href="#DejaVuSans-115"/>
      <use x="355.212891" xlink:href="#DejaVuSans-32"/>
      <use x="387" xlink:href="#DejaVuSans-57"/>
     </g>
    </g>
    <g id="line2d_44">
     <path d="M 66.6 186.673562 
L 86.6 186.673562 
" style="fill:none;stroke:#17becf;stroke-linecap:square;stroke-width:1.5;"/>
    </g>
    <g id="line2d_45"/>
    <g id="text_28">
     <!-- Fondos 10 -->
     <g transform="translate(94.6 190.173562)scale(0.1 -0.1)">
      <use xlink:href="#DejaVuSans-70"/>
      <use x="53.894531" xlink:href="#DejaVuSans-111"/>
      <use x="115.076172" xlink:href="#DejaVuSans-110"/>
      <use x="178.455078" xlink:href="#DejaVuSans-100"/>
      <use x="241.931641" xlink:href="#DejaVuSans-111"/>
      <use x="303.113281" xlink:href="#DejaVuSans-115"/>
      <use x="355.212891" xlink:href="#DejaVuSans-32"/>
      <use x="387" xlink:href="#DejaVuSans-49"/>
      <use x="450.623047" xlink:href="#DejaVuSans-48"/>
     </g>
    </g>
   </g>
  </g>
 </g>
 <defs>
  <clipPath id="p4513791f8d">
   <rect height="266.112" width="357.12" x="57.6" y="41.472"/>
  </clipPath>
 </defs>
</svg>
