<?xml version="1.0" encoding="utf-8" standalone="no"?>
<!DOCTYPE svg PUBLIC "-//W3C//DTD SVG 1.1//EN"
  "http://www.w3.org/Graphics/SVG/1.1/DTD/svg11.dtd">
<!-- Created with matplotlib (https://matplotlib.org/) -->
<svg height="345.6pt" version="1.1" viewBox="0 0 460.8 345.6" width="460.8pt" xmlns="http://www.w3.org/2000/svg" xmlns:xlink="http://www.w3.org/1999/xlink">
 <metadata>
  <rdf:RDF xmlns:cc="http://creativecommons.org/ns#" xmlns:dc="http://purl.org/dc/elements/1.1/" xmlns:rdf="http://www.w3.org/1999/02/22-rdf-syntax-ns#">
   <cc:Work>
    <dc:type rdf:resource="http://purl.org/dc/dcmitype/StillImage"/>
    <dc:date>2021-04-07T21:24:35.257045</dc:date>
    <dc:format>image/svg+xml</dc:format>
    <dc:creator>
     <cc:Agent>
      <dc:title>Matplotlib v3.3.4, https://matplotlib.org/</dc:title>
     </cc:Agent>
    </dc:creator>
   </cc:Work>
  </rdf:RDF>
 </metadata>
 <defs>
  <style type="text/css">*{stroke-linecap:butt;stroke-linejoin:round;}</style>
 </defs>
 <g id="figure_1">
  <g id="patch_1">
   <path d="M 0 345.6 
L 460.8 345.6 
L 460.8 0 
L 0 0 
z
" style="fill:#ffffff;"/>
  </g>
  <g id="axes_1">
   <g id="patch_2">
    <path d="M 57.6 307.584 
L 414.72 307.584 
L 414.72 41.472 
L 57.6 41.472 
z
" style="fill:#ffffff;"/>
   </g>
   <g id="matplotlib.axis_1">
    <g id="xtick_1">
     <g id="line2d_1">
      <defs>
       <path d="M 0 0 
L 0 3.5 
" id="m11f20a8095" style="stroke:#000000;stroke-width:0.8;"/>
      </defs>
      <g>
       <use style="stroke:#000000;stroke-width:0.8;" x="72.201297" xlink:href="#m11f20a8095" y="307.584"/>
      </g>
     </g>
     <g id="text_1">
      <!-- 0 -->
      <g transform="translate(69.020047 322.182437)scale(0.1 -0.1)">
       <defs>
        <path d="M 31.78125 66.40625 
Q 24.171875 66.40625 20.328125 58.90625 
Q 16.5 51.421875 16.5 36.375 
Q 16.5 21.390625 20.328125 13.890625 
Q 24.171875 6.390625 31.78125 6.390625 
Q 39.453125 6.390625 43.28125 13.890625 
Q 47.125 21.390625 47.125 36.375 
Q 47.125 51.421875 43.28125 58.90625 
Q 39.453125 66.40625 31.78125 66.40625 
z
M 31.78125 74.21875 
Q 44.046875 74.21875 50.515625 64.515625 
Q 56.984375 54.828125 56.984375 36.375 
Q 56.984375 17.96875 50.515625 8.265625 
Q 44.046875 -1.421875 31.78125 -1.421875 
Q 19.53125 -1.421875 13.0625 8.265625 
Q 6.59375 17.96875 6.59375 36.375 
Q 6.59375 54.828125 13.0625 64.515625 
Q 19.53125 74.21875 31.78125 74.21875 
z
" id="DejaVuSans-48"/>
       </defs>
       <use xlink:href="#DejaVuSans-48"/>
      </g>
     </g>
    </g>
    <g id="xtick_2">
     <g id="line2d_2">
      <g>
       <use style="stroke:#000000;stroke-width:0.8;" x="112.987044" xlink:href="#m11f20a8095" y="307.584"/>
      </g>
     </g>
     <g id="text_2">
      <!-- 25 -->
      <g transform="translate(106.624544 322.182437)scale(0.1 -0.1)">
       <defs>
        <path d="M 19.1875 8.296875 
L 53.609375 8.296875 
L 53.609375 0 
L 7.328125 0 
L 7.328125 8.296875 
Q 12.9375 14.109375 22.625 23.890625 
Q 32.328125 33.6875 34.8125 36.53125 
Q 39.546875 41.84375 41.421875 45.53125 
Q 43.3125 49.21875 43.3125 52.78125 
Q 43.3125 58.59375 39.234375 62.25 
Q 35.15625 65.921875 28.609375 65.921875 
Q 23.96875 65.921875 18.8125 64.3125 
Q 13.671875 62.703125 7.8125 59.421875 
L 7.8125 69.390625 
Q 13.765625 71.78125 18.9375 73 
Q 24.125 74.21875 28.421875 74.21875 
Q 39.75 74.21875 46.484375 68.546875 
Q 53.21875 62.890625 53.21875 53.421875 
Q 53.21875 48.921875 51.53125 44.890625 
Q 49.859375 40.875 45.40625 35.40625 
Q 44.1875 33.984375 37.640625 27.21875 
Q 31.109375 20.453125 19.1875 8.296875 
z
" id="DejaVuSans-50"/>
        <path d="M 10.796875 72.90625 
L 49.515625 72.90625 
L 49.515625 64.59375 
L 19.828125 64.59375 
L 19.828125 46.734375 
Q 21.96875 47.46875 24.109375 47.828125 
Q 26.265625 48.1875 28.421875 48.1875 
Q 40.625 48.1875 47.75 41.5 
Q 54.890625 34.8125 54.890625 23.390625 
Q 54.890625 11.625 47.5625 5.09375 
Q 40.234375 -1.421875 26.90625 -1.421875 
Q 22.3125 -1.421875 17.546875 -0.640625 
Q 12.796875 0.140625 7.71875 1.703125 
L 7.71875 11.625 
Q 12.109375 9.234375 16.796875 8.0625 
Q 21.484375 6.890625 26.703125 6.890625 
Q 35.15625 6.890625 40.078125 11.328125 
Q 45.015625 15.765625 45.015625 23.390625 
Q 45.015625 31 40.078125 35.4375 
Q 35.15625 39.890625 26.703125 39.890625 
Q 22.75 39.890625 18.8125 39.015625 
Q 14.890625 38.140625 10.796875 36.28125 
z
" id="DejaVuSans-53"/>
       </defs>
       <use xlink:href="#DejaVuSans-50"/>
       <use x="63.623047" xlink:href="#DejaVuSans-53"/>
      </g>
     </g>
    </g>
    <g id="xtick_3">
     <g id="line2d_3">
      <g>
       <use style="stroke:#000000;stroke-width:0.8;" x="153.772791" xlink:href="#m11f20a8095" y="307.584"/>
      </g>
     </g>
     <g id="text_3">
      <!-- 50 -->
      <g transform="translate(147.410291 322.182437)scale(0.1 -0.1)">
       <use xlink:href="#DejaVuSans-53"/>
       <use x="63.623047" xlink:href="#DejaVuSans-48"/>
      </g>
     </g>
    </g>
    <g id="xtick_4">
     <g id="line2d_4">
      <g>
       <use style="stroke:#000000;stroke-width:0.8;" x="194.558538" xlink:href="#m11f20a8095" y="307.584"/>
      </g>
     </g>
     <g id="text_4">
      <!-- 75 -->
      <g transform="translate(188.196038 322.182437)scale(0.1 -0.1)">
       <defs>
        <path d="M 8.203125 72.90625 
L 55.078125 72.90625 
L 55.078125 68.703125 
L 28.609375 0 
L 18.3125 0 
L 43.21875 64.59375 
L 8.203125 64.59375 
z
" id="DejaVuSans-55"/>
       </defs>
       <use xlink:href="#DejaVuSans-55"/>
       <use x="63.623047" xlink:href="#DejaVuSans-53"/>
      </g>
     </g>
    </g>
    <g id="xtick_5">
     <g id="line2d_5">
      <g>
       <use style="stroke:#000000;stroke-width:0.8;" x="235.344285" xlink:href="#m11f20a8095" y="307.584"/>
      </g>
     </g>
     <g id="text_5">
      <!-- 100 -->
      <g transform="translate(225.800535 322.182437)scale(0.1 -0.1)">
       <defs>
        <path d="M 12.40625 8.296875 
L 28.515625 8.296875 
L 28.515625 63.921875 
L 10.984375 60.40625 
L 10.984375 69.390625 
L 28.421875 72.90625 
L 38.28125 72.90625 
L 38.28125 8.296875 
L 54.390625 8.296875 
L 54.390625 0 
L 12.40625 0 
z
" id="DejaVuSans-49"/>
       </defs>
       <use xlink:href="#DejaVuSans-49"/>
       <use x="63.623047" xlink:href="#DejaVuSans-48"/>
       <use x="127.246094" xlink:href="#DejaVuSans-48"/>
      </g>
     </g>
    </g>
    <g id="xtick_6">
     <g id="line2d_6">
      <g>
       <use style="stroke:#000000;stroke-width:0.8;" x="276.130032" xlink:href="#m11f20a8095" y="307.584"/>
      </g>
     </g>
     <g id="text_6">
      <!-- 125 -->
      <g transform="translate(266.586282 322.182437)scale(0.1 -0.1)">
       <use xlink:href="#DejaVuSans-49"/>
       <use x="63.623047" xlink:href="#DejaVuSans-50"/>
       <use x="127.246094" xlink:href="#DejaVuSans-53"/>
      </g>
     </g>
    </g>
    <g id="xtick_7">
     <g id="line2d_7">
      <g>
       <use style="stroke:#000000;stroke-width:0.8;" x="316.915779" xlink:href="#m11f20a8095" y="307.584"/>
      </g>
     </g>
     <g id="text_7">
      <!-- 150 -->
      <g transform="translate(307.372029 322.182437)scale(0.1 -0.1)">
       <use xlink:href="#DejaVuSans-49"/>
       <use x="63.623047" xlink:href="#DejaVuSans-53"/>
       <use x="127.246094" xlink:href="#DejaVuSans-48"/>
      </g>
     </g>
    </g>
    <g id="xtick_8">
     <g id="line2d_8">
      <g>
       <use style="stroke:#000000;stroke-width:0.8;" x="357.701526" xlink:href="#m11f20a8095" y="307.584"/>
      </g>
     </g>
     <g id="text_8">
      <!-- 175 -->
      <g transform="translate(348.157776 322.182437)scale(0.1 -0.1)">
       <use xlink:href="#DejaVuSans-49"/>
       <use x="63.623047" xlink:href="#DejaVuSans-55"/>
       <use x="127.246094" xlink:href="#DejaVuSans-53"/>
      </g>
     </g>
    </g>
    <g id="xtick_9">
     <g id="line2d_9">
      <g>
       <use style="stroke:#000000;stroke-width:0.8;" x="398.487273" xlink:href="#m11f20a8095" y="307.584"/>
      </g>
     </g>
     <g id="text_9">
      <!-- 200 -->
      <g transform="translate(388.943523 322.182437)scale(0.1 -0.1)">
       <use xlink:href="#DejaVuSans-50"/>
       <use x="63.623047" xlink:href="#DejaVuSans-48"/>
       <use x="127.246094" xlink:href="#DejaVuSans-48"/>
      </g>
     </g>
    </g>
    <g id="text_10">
     <!-- Numero de tirada -->
     <g transform="translate(192.165469 335.860562)scale(0.1 -0.1)">
      <defs>
       <path d="M 9.8125 72.90625 
L 23.09375 72.90625 
L 55.421875 11.921875 
L 55.421875 72.90625 
L 64.984375 72.90625 
L 64.984375 0 
L 51.703125 0 
L 19.390625 60.984375 
L 19.390625 0 
L 9.8125 0 
z
" id="DejaVuSans-78"/>
       <path d="M 8.5 21.578125 
L 8.5 54.6875 
L 17.484375 54.6875 
L 17.484375 21.921875 
Q 17.484375 14.15625 20.5 10.265625 
Q 23.53125 6.390625 29.59375 6.390625 
Q 36.859375 6.390625 41.078125 11.03125 
Q 45.3125 15.671875 45.3125 23.6875 
L 45.3125 54.6875 
L 54.296875 54.6875 
L 54.296875 0 
L 45.3125 0 
L 45.3125 8.40625 
Q 42.046875 3.421875 37.71875 1 
Q 33.40625 -1.421875 27.6875 -1.421875 
Q 18.265625 -1.421875 13.375 4.4375 
Q 8.5 10.296875 8.5 21.578125 
z
M 31.109375 56 
z
" id="DejaVuSans-117"/>
       <path d="M 52 44.1875 
Q 55.375 50.25 60.0625 53.125 
Q 64.75 56 71.09375 56 
Q 79.640625 56 84.28125 50.015625 
Q 88.921875 44.046875 88.921875 33.015625 
L 88.921875 0 
L 79.890625 0 
L 79.890625 32.71875 
Q 79.890625 40.578125 77.09375 44.375 
Q 74.3125 48.1875 68.609375 48.1875 
Q 61.625 48.1875 57.5625 43.546875 
Q 53.515625 38.921875 53.515625 30.90625 
L 53.515625 0 
L 44.484375 0 
L 44.484375 32.71875 
Q 44.484375 40.625 41.703125 44.40625 
Q 38.921875 48.1875 33.109375 48.1875 
Q 26.21875 48.1875 22.15625 43.53125 
Q 18.109375 38.875 18.109375 30.90625 
L 18.109375 0 
L 9.078125 0 
L 9.078125 54.6875 
L 18.109375 54.6875 
L 18.109375 46.1875 
Q 21.1875 51.21875 25.484375 53.609375 
Q 29.78125 56 35.6875 56 
Q 41.65625 56 45.828125 52.96875 
Q 50 49.953125 52 44.1875 
z
" id="DejaVuSans-109"/>
       <path d="M 56.203125 29.59375 
L 56.203125 25.203125 
L 14.890625 25.203125 
Q 15.484375 15.921875 20.484375 11.0625 
Q 25.484375 6.203125 34.421875 6.203125 
Q 39.59375 6.203125 44.453125 7.46875 
Q 49.3125 8.734375 54.109375 11.28125 
L 54.109375 2.78125 
Q 49.265625 0.734375 44.1875 -0.34375 
Q 39.109375 -1.421875 33.890625 -1.421875 
Q 20.796875 -1.421875 13.15625 6.1875 
Q 5.515625 13.8125 5.515625 26.8125 
Q 5.515625 40.234375 12.765625 48.109375 
Q 20.015625 56 32.328125 56 
Q 43.359375 56 49.78125 48.890625 
Q 56.203125 41.796875 56.203125 29.59375 
z
M 47.21875 32.234375 
Q 47.125 39.59375 43.09375 43.984375 
Q 39.0625 48.390625 32.421875 48.390625 
Q 24.90625 48.390625 20.390625 44.140625 
Q 15.875 39.890625 15.1875 32.171875 
z
" id="DejaVuSans-101"/>
       <path d="M 41.109375 46.296875 
Q 39.59375 47.171875 37.8125 47.578125 
Q 36.03125 48 33.890625 48 
Q 26.265625 48 22.1875 43.046875 
Q 18.109375 38.09375 18.109375 28.8125 
L 18.109375 0 
L 9.078125 0 
L 9.078125 54.6875 
L 18.109375 54.6875 
L 18.109375 46.1875 
Q 20.953125 51.171875 25.484375 53.578125 
Q 30.03125 56 36.53125 56 
Q 37.453125 56 38.578125 55.875 
Q 39.703125 55.765625 41.0625 55.515625 
z
" id="DejaVuSans-114"/>
       <path d="M 30.609375 48.390625 
Q 23.390625 48.390625 19.1875 42.75 
Q 14.984375 37.109375 14.984375 27.296875 
Q 14.984375 17.484375 19.15625 11.84375 
Q 23.34375 6.203125 30.609375 6.203125 
Q 37.796875 6.203125 41.984375 11.859375 
Q 46.1875 17.53125 46.1875 27.296875 
Q 46.1875 37.015625 41.984375 42.703125 
Q 37.796875 48.390625 30.609375 48.390625 
z
M 30.609375 56 
Q 42.328125 56 49.015625 48.375 
Q 55.71875 40.765625 55.71875 27.296875 
Q 55.71875 13.875 49.015625 6.21875 
Q 42.328125 -1.421875 30.609375 -1.421875 
Q 18.84375 -1.421875 12.171875 6.21875 
Q 5.515625 13.875 5.515625 27.296875 
Q 5.515625 40.765625 12.171875 48.375 
Q 18.84375 56 30.609375 56 
z
" id="DejaVuSans-111"/>
       <path id="DejaVuSans-32"/>
       <path d="M 45.40625 46.390625 
L 45.40625 75.984375 
L 54.390625 75.984375 
L 54.390625 0 
L 45.40625 0 
L 45.40625 8.203125 
Q 42.578125 3.328125 38.25 0.953125 
Q 33.9375 -1.421875 27.875 -1.421875 
Q 17.96875 -1.421875 11.734375 6.484375 
Q 5.515625 14.40625 5.515625 27.296875 
Q 5.515625 40.1875 11.734375 48.09375 
Q 17.96875 56 27.875 56 
Q 33.9375 56 38.25 53.625 
Q 42.578125 51.265625 45.40625 46.390625 
z
M 14.796875 27.296875 
Q 14.796875 17.390625 18.875 11.75 
Q 22.953125 6.109375 30.078125 6.109375 
Q 37.203125 6.109375 41.296875 11.75 
Q 45.40625 17.390625 45.40625 27.296875 
Q 45.40625 37.203125 41.296875 42.84375 
Q 37.203125 48.484375 30.078125 48.484375 
Q 22.953125 48.484375 18.875 42.84375 
Q 14.796875 37.203125 14.796875 27.296875 
z
" id="DejaVuSans-100"/>
       <path d="M 18.3125 70.21875 
L 18.3125 54.6875 
L 36.8125 54.6875 
L 36.8125 47.703125 
L 18.3125 47.703125 
L 18.3125 18.015625 
Q 18.3125 11.328125 20.140625 9.421875 
Q 21.96875 7.515625 27.59375 7.515625 
L 36.8125 7.515625 
L 36.8125 0 
L 27.59375 0 
Q 17.1875 0 13.234375 3.875 
Q 9.28125 7.765625 9.28125 18.015625 
L 9.28125 47.703125 
L 2.6875 47.703125 
L 2.6875 54.6875 
L 9.28125 54.6875 
L 9.28125 70.21875 
z
" id="DejaVuSans-116"/>
       <path d="M 9.421875 54.6875 
L 18.40625 54.6875 
L 18.40625 0 
L 9.421875 0 
z
M 9.421875 75.984375 
L 18.40625 75.984375 
L 18.40625 64.59375 
L 9.421875 64.59375 
z
" id="DejaVuSans-105"/>
       <path d="M 34.28125 27.484375 
Q 23.390625 27.484375 19.1875 25 
Q 14.984375 22.515625 14.984375 16.5 
Q 14.984375 11.71875 18.140625 8.90625 
Q 21.296875 6.109375 26.703125 6.109375 
Q 34.1875 6.109375 38.703125 11.40625 
Q 43.21875 16.703125 43.21875 25.484375 
L 43.21875 27.484375 
z
M 52.203125 31.203125 
L 52.203125 0 
L 43.21875 0 
L 43.21875 8.296875 
Q 40.140625 3.328125 35.546875 0.953125 
Q 30.953125 -1.421875 24.3125 -1.421875 
Q 15.921875 -1.421875 10.953125 3.296875 
Q 6 8.015625 6 15.921875 
Q 6 25.140625 12.171875 29.828125 
Q 18.359375 34.515625 30.609375 34.515625 
L 43.21875 34.515625 
L 43.21875 35.40625 
Q 43.21875 41.609375 39.140625 45 
Q 35.0625 48.390625 27.6875 48.390625 
Q 23 48.390625 18.546875 47.265625 
Q 14.109375 46.140625 10.015625 43.890625 
L 10.015625 52.203125 
Q 14.9375 54.109375 19.578125 55.046875 
Q 24.21875 56 28.609375 56 
Q 40.484375 56 46.34375 49.84375 
Q 52.203125 43.703125 52.203125 31.203125 
z
" id="DejaVuSans-97"/>
      </defs>
      <use xlink:href="#DejaVuSans-78"/>
      <use x="74.804688" xlink:href="#DejaVuSans-117"/>
      <use x="138.183594" xlink:href="#DejaVuSans-109"/>
      <use x="235.595703" xlink:href="#DejaVuSans-101"/>
      <use x="297.119141" xlink:href="#DejaVuSans-114"/>
      <use x="335.982422" xlink:href="#DejaVuSans-111"/>
      <use x="397.164062" xlink:href="#DejaVuSans-32"/>
      <use x="428.951172" xlink:href="#DejaVuSans-100"/>
      <use x="492.427734" xlink:href="#DejaVuSans-101"/>
      <use x="553.951172" xlink:href="#DejaVuSans-32"/>
      <use x="585.738281" xlink:href="#DejaVuSans-116"/>
      <use x="624.947266" xlink:href="#DejaVuSans-105"/>
      <use x="652.730469" xlink:href="#DejaVuSans-114"/>
      <use x="693.84375" xlink:href="#DejaVuSans-97"/>
      <use x="755.123047" xlink:href="#DejaVuSans-100"/>
      <use x="818.599609" xlink:href="#DejaVuSans-97"/>
     </g>
    </g>
   </g>
   <g id="matplotlib.axis_2">
    <g id="ytick_1">
     <g id="line2d_10">
      <defs>
       <path d="M 0 0 
L -3.5 0 
" id="m8c944795e5" style="stroke:#000000;stroke-width:0.8;"/>
      </defs>
      <g>
       <use style="stroke:#000000;stroke-width:0.8;" x="57.6" xlink:href="#m8c944795e5" y="295.938863"/>
      </g>
     </g>
     <g id="text_11">
      <!-- 0 -->
      <g transform="translate(44.2375 299.738081)scale(0.1 -0.1)">
       <use xlink:href="#DejaVuSans-48"/>
      </g>
     </g>
    </g>
    <g id="ytick_2">
     <g id="line2d_11">
      <g>
       <use style="stroke:#000000;stroke-width:0.8;" x="57.6" xlink:href="#m8c944795e5" y="263.73439"/>
      </g>
     </g>
     <g id="text_12">
      <!-- 50000 -->
      <g transform="translate(18.7875 267.533609)scale(0.1 -0.1)">
       <use xlink:href="#DejaVuSans-53"/>
       <use x="63.623047" xlink:href="#DejaVuSans-48"/>
       <use x="127.246094" xlink:href="#DejaVuSans-48"/>
       <use x="190.869141" xlink:href="#DejaVuSans-48"/>
       <use x="254.492188" xlink:href="#DejaVuSans-48"/>
      </g>
     </g>
    </g>
    <g id="ytick_3">
     <g id="line2d_12">
      <g>
       <use style="stroke:#000000;stroke-width:0.8;" x="57.6" xlink:href="#m8c944795e5" y="231.529917"/>
      </g>
     </g>
     <g id="text_13">
      <!-- 100000 -->
      <g transform="translate(12.425 235.329136)scale(0.1 -0.1)">
       <use xlink:href="#DejaVuSans-49"/>
       <use x="63.623047" xlink:href="#DejaVuSans-48"/>
       <use x="127.246094" xlink:href="#DejaVuSans-48"/>
       <use x="190.869141" xlink:href="#DejaVuSans-48"/>
       <use x="254.492188" xlink:href="#DejaVuSans-48"/>
       <use x="318.115234" xlink:href="#DejaVuSans-48"/>
      </g>
     </g>
    </g>
    <g id="ytick_4">
     <g id="line2d_13">
      <g>
       <use style="stroke:#000000;stroke-width:0.8;" x="57.6" xlink:href="#m8c944795e5" y="199.325444"/>
      </g>
     </g>
     <g id="text_14">
      <!-- 150000 -->
      <g transform="translate(12.425 203.124663)scale(0.1 -0.1)">
       <use xlink:href="#DejaVuSans-49"/>
       <use x="63.623047" xlink:href="#DejaVuSans-53"/>
       <use x="127.246094" xlink:href="#DejaVuSans-48"/>
       <use x="190.869141" xlink:href="#DejaVuSans-48"/>
       <use x="254.492188" xlink:href="#DejaVuSans-48"/>
       <use x="318.115234" xlink:href="#DejaVuSans-48"/>
      </g>
     </g>
    </g>
    <g id="ytick_5">
     <g id="line2d_14">
      <g>
       <use style="stroke:#000000;stroke-width:0.8;" x="57.6" xlink:href="#m8c944795e5" y="167.120971"/>
      </g>
     </g>
     <g id="text_15">
      <!-- 200000 -->
      <g transform="translate(12.425 170.92019)scale(0.1 -0.1)">
       <use xlink:href="#DejaVuSans-50"/>
       <use x="63.623047" xlink:href="#DejaVuSans-48"/>
       <use x="127.246094" xlink:href="#DejaVuSans-48"/>
       <use x="190.869141" xlink:href="#DejaVuSans-48"/>
       <use x="254.492188" xlink:href="#DejaVuSans-48"/>
       <use x="318.115234" xlink:href="#DejaVuSans-48"/>
      </g>
     </g>
    </g>
    <g id="ytick_6">
     <g id="line2d_15">
      <g>
       <use style="stroke:#000000;stroke-width:0.8;" x="57.6" xlink:href="#m8c944795e5" y="134.916498"/>
      </g>
     </g>
     <g id="text_16">
      <!-- 250000 -->
      <g transform="translate(12.425 138.715717)scale(0.1 -0.1)">
       <use xlink:href="#DejaVuSans-50"/>
       <use x="63.623047" xlink:href="#DejaVuSans-53"/>
       <use x="127.246094" xlink:href="#DejaVuSans-48"/>
       <use x="190.869141" xlink:href="#DejaVuSans-48"/>
       <use x="254.492188" xlink:href="#DejaVuSans-48"/>
       <use x="318.115234" xlink:href="#DejaVuSans-48"/>
      </g>
     </g>
    </g>
    <g id="ytick_7">
     <g id="line2d_16">
      <g>
       <use style="stroke:#000000;stroke-width:0.8;" x="57.6" xlink:href="#m8c944795e5" y="102.712026"/>
      </g>
     </g>
     <g id="text_17">
      <!-- 300000 -->
      <g transform="translate(12.425 106.511244)scale(0.1 -0.1)">
       <defs>
        <path d="M 40.578125 39.3125 
Q 47.65625 37.796875 51.625 33 
Q 55.609375 28.21875 55.609375 21.1875 
Q 55.609375 10.40625 48.1875 4.484375 
Q 40.765625 -1.421875 27.09375 -1.421875 
Q 22.515625 -1.421875 17.65625 -0.515625 
Q 12.796875 0.390625 7.625 2.203125 
L 7.625 11.71875 
Q 11.71875 9.328125 16.59375 8.109375 
Q 21.484375 6.890625 26.8125 6.890625 
Q 36.078125 6.890625 40.9375 10.546875 
Q 45.796875 14.203125 45.796875 21.1875 
Q 45.796875 27.640625 41.28125 31.265625 
Q 36.765625 34.90625 28.71875 34.90625 
L 20.21875 34.90625 
L 20.21875 43.015625 
L 29.109375 43.015625 
Q 36.375 43.015625 40.234375 45.921875 
Q 44.09375 48.828125 44.09375 54.296875 
Q 44.09375 59.90625 40.109375 62.90625 
Q 36.140625 65.921875 28.71875 65.921875 
Q 24.65625 65.921875 20.015625 65.03125 
Q 15.375 64.15625 9.8125 62.3125 
L 9.8125 71.09375 
Q 15.4375 72.65625 20.34375 73.4375 
Q 25.25 74.21875 29.59375 74.21875 
Q 40.828125 74.21875 47.359375 69.109375 
Q 53.90625 64.015625 53.90625 55.328125 
Q 53.90625 49.265625 50.4375 45.09375 
Q 46.96875 40.921875 40.578125 39.3125 
z
" id="DejaVuSans-51"/>
       </defs>
       <use xlink:href="#DejaVuSans-51"/>
       <use x="63.623047" xlink:href="#DejaVuSans-48"/>
       <use x="127.246094" xlink:href="#DejaVuSans-48"/>
       <use x="190.869141" xlink:href="#DejaVuSans-48"/>
       <use x="254.492188" xlink:href="#DejaVuSans-48"/>
       <use x="318.115234" xlink:href="#DejaVuSans-48"/>
      </g>
     </g>
    </g>
    <g id="ytick_8">
     <g id="line2d_17">
      <g>
       <use style="stroke:#000000;stroke-width:0.8;" x="57.6" xlink:href="#m8c944795e5" y="70.507553"/>
      </g>
     </g>
     <g id="text_18">
      <!-- 350000 -->
      <g transform="translate(12.425 74.306771)scale(0.1 -0.1)">
       <use xlink:href="#DejaVuSans-51"/>
       <use x="63.623047" xlink:href="#DejaVuSans-53"/>
       <use x="127.246094" xlink:href="#DejaVuSans-48"/>
       <use x="190.869141" xlink:href="#DejaVuSans-48"/>
       <use x="254.492188" xlink:href="#DejaVuSans-48"/>
       <use x="318.115234" xlink:href="#DejaVuSans-48"/>
      </g>
     </g>
    </g>
    <g id="text_19">
     <!-- Fondo en $ -->
     <g transform="translate(6.345312 202.288938)rotate(-90)scale(0.1 -0.1)">
      <defs>
       <path d="M 9.8125 72.90625 
L 51.703125 72.90625 
L 51.703125 64.59375 
L 19.671875 64.59375 
L 19.671875 43.109375 
L 48.578125 43.109375 
L 48.578125 34.8125 
L 19.671875 34.8125 
L 19.671875 0 
L 9.8125 0 
z
" id="DejaVuSans-70"/>
       <path d="M 54.890625 33.015625 
L 54.890625 0 
L 45.90625 0 
L 45.90625 32.71875 
Q 45.90625 40.484375 42.875 44.328125 
Q 39.84375 48.1875 33.796875 48.1875 
Q 26.515625 48.1875 22.3125 43.546875 
Q 18.109375 38.921875 18.109375 30.90625 
L 18.109375 0 
L 9.078125 0 
L 9.078125 54.6875 
L 18.109375 54.6875 
L 18.109375 46.1875 
Q 21.34375 51.125 25.703125 53.5625 
Q 30.078125 56 35.796875 56 
Q 45.21875 56 50.046875 50.171875 
Q 54.890625 44.34375 54.890625 33.015625 
z
" id="DejaVuSans-110"/>
       <path d="M 33.796875 -14.703125 
L 28.90625 -14.703125 
L 28.859375 0 
Q 23.734375 0.09375 18.609375 1.1875 
Q 13.484375 2.296875 8.296875 4.5 
L 8.296875 13.28125 
Q 13.28125 10.15625 18.375 8.5625 
Q 23.484375 6.984375 28.90625 6.9375 
L 28.90625 29.203125 
Q 18.109375 30.953125 13.203125 35.15625 
Q 8.296875 39.359375 8.296875 46.6875 
Q 8.296875 54.640625 13.625 59.21875 
Q 18.953125 63.8125 28.90625 64.5 
L 28.90625 75.984375 
L 33.796875 75.984375 
L 33.796875 64.65625 
Q 38.328125 64.453125 42.578125 63.6875 
Q 46.828125 62.9375 50.875 61.625 
L 50.875 53.078125 
Q 46.828125 55.125 42.546875 56.25 
Q 38.28125 57.375 33.796875 57.5625 
L 33.796875 36.71875 
Q 44.875 35.015625 50.09375 30.609375 
Q 55.328125 26.21875 55.328125 18.609375 
Q 55.328125 10.359375 49.78125 5.59375 
Q 44.234375 0.828125 33.796875 0.09375 
z
M 28.90625 37.59375 
L 28.90625 57.625 
Q 23.25 56.984375 20.265625 54.390625 
Q 17.28125 51.8125 17.28125 47.515625 
Q 17.28125 43.3125 20.03125 40.96875 
Q 22.796875 38.625 28.90625 37.59375 
z
M 33.796875 28.21875 
L 33.796875 7.078125 
Q 39.984375 7.90625 43.140625 10.59375 
Q 46.296875 13.28125 46.296875 17.671875 
Q 46.296875 21.96875 43.28125 24.5 
Q 40.28125 27.046875 33.796875 28.21875 
z
" id="DejaVuSans-36"/>
      </defs>
      <use xlink:href="#DejaVuSans-70"/>
      <use x="53.894531" xlink:href="#DejaVuSans-111"/>
      <use x="115.076172" xlink:href="#DejaVuSans-110"/>
      <use x="178.455078" xlink:href="#DejaVuSans-100"/>
      <use x="241.931641" xlink:href="#DejaVuSans-111"/>
      <use x="303.113281" xlink:href="#DejaVuSans-32"/>
      <use x="334.900391" xlink:href="#DejaVuSans-101"/>
      <use x="396.423828" xlink:href="#DejaVuSans-110"/>
      <use x="459.802734" xlink:href="#DejaVuSans-32"/>
      <use x="491.589844" xlink:href="#DejaVuSans-36"/>
     </g>
    </g>
   </g>
   <g id="line2d_18">
    <path clip-path="url(#pd3bfe82ee4)" d="M 73.832727 199.389853 
L 75.464157 199.518671 
L 77.095587 199.776307 
L 78.727017 200.291578 
L 80.358447 201.322121 
L 81.989877 203.383208 
L 83.621307 207.50538 
L 85.252736 215.749725 
L 86.884166 232.238415 
L 88.515596 166.283655 
L 91.778456 166.026019 
L 95.041316 166.219246 
L 96.672746 166.476882 
L 98.304175 166.992153 
L 99.935605 164.931067 
L 103.198465 165.124294 
L 104.829895 165.38193 
L 106.461325 165.897201 
L 108.092755 166.927744 
L 109.724185 168.988831 
L 111.355614 173.111003 
L 112.987044 181.355348 
L 114.618474 197.844038 
L 116.249904 230.821419 
L 398.487273 230.821419 
L 398.487273 230.821419 
" style="fill:none;stroke:#1f77b4;stroke-linecap:square;stroke-width:1.5;"/>
   </g>
   <g id="line2d_19">
    <path clip-path="url(#pd3bfe82ee4)" d="M 73.832727 199.196626 
L 77.095587 199.389853 
L 78.727017 199.647489 
L 80.358447 200.16276 
L 81.989877 201.193304 
L 83.621307 203.25439 
L 85.252736 195.010045 
L 86.884166 194.881227 
L 90.147026 195.074454 
L 91.778456 194.559182 
L 93.409886 194.430364 
L 96.672746 194.623591 
L 98.304175 194.881227 
L 99.935605 193.850684 
L 103.198465 194.043911 
L 104.829895 194.301546 
L 106.461325 194.816818 
L 108.092755 192.755732 
L 109.724185 192.820141 
L 111.355614 192.562505 
L 114.618474 192.304869 
L 117.881334 192.498096 
L 119.512764 192.755732 
L 121.144194 193.271003 
L 122.775624 194.301546 
L 124.407053 196.362633 
L 126.038483 200.484805 
L 127.669913 183.996115 
L 129.301343 183.867297 
L 132.564203 184.060524 
L 134.195633 184.31816 
L 135.827063 184.833431 
L 137.458492 182.772345 
L 140.721352 182.965572 
L 142.352782 183.223208 
L 143.984212 182.192665 
L 145.615642 182.063847 
L 148.878502 182.257073 
L 150.509931 182.514709 
L 152.141361 181.484166 
L 153.772791 181.548575 
L 155.404221 181.290939 
L 158.667081 181.484166 
L 160.298511 181.741802 
L 161.929941 180.711259 
L 166.82423 180.324805 
L 170.08709 180.518032 
L 171.71852 180.775668 
L 173.34995 181.290939 
L 174.98138 182.321482 
L 176.61281 184.382569 
L 178.244239 188.504741 
L 179.875669 196.749086 
L 181.507099 213.237776 
L 183.138529 147.283016 
L 184.769959 147.347425 
L 186.401389 147.089789 
L 188.032819 146.960971 
L 191.295678 147.154198 
L 192.927108 146.638927 
L 196.189968 146.832153 
L 197.821398 147.089789 
L 199.452828 146.059246 
L 202.715688 146.252473 
L 204.347117 145.737201 
L 205.978547 145.608383 
L 207.609977 145.672792 
L 209.241407 145.415157 
L 212.504267 145.608383 
L 214.135697 145.093112 
L 217.398556 145.286339 
L 219.029986 145.543974 
L 220.661416 144.513431 
L 223.924276 144.255796 
L 227.187136 144.449022 
L 228.818566 144.706658 
L 230.449995 145.22193 
L 232.081425 146.252473 
L 233.712855 148.313559 
L 235.344285 152.435732 
L 236.975715 160.680077 
L 238.607145 177.168767 
L 240.238575 210.146147 
L 241.870005 276.100907 
L 398.487273 276.100907 
L 398.487273 276.100907 
" style="fill:none;stroke:#ff7f0e;stroke-linecap:square;stroke-width:1.5;"/>
   </g>
   <g id="line2d_20">
    <path clip-path="url(#pd3bfe82ee4)" d="M 73.832727 199.389853 
L 75.464157 199.518671 
L 77.095587 199.776307 
L 78.727017 200.291578 
L 80.358447 198.230492 
L 83.621307 198.423719 
L 85.252736 198.681355 
L 86.884166 199.196626 
L 88.515596 200.227169 
L 90.147026 196.104997 
L 91.778456 195.976179 
L 93.409886 196.040588 
L 95.041316 195.782952 
L 96.672746 195.654134 
L 99.935605 195.847361 
L 101.567035 196.104997 
L 103.198465 196.620268 
L 104.829895 194.559182 
L 106.461325 194.430364 
L 108.092755 194.494773 
L 109.724185 194.237137 
L 111.355614 194.301546 
L 112.987044 194.043911 
L 114.618474 194.108319 
L 116.249904 193.850684 
L 119.512764 193.593048 
L 122.775624 193.786275 
L 124.407053 193.271003 
L 127.669913 193.013367 
L 130.932773 193.206594 
L 132.564203 193.46423 
L 134.195633 193.979502 
L 135.827063 195.010045 
L 137.458492 197.071131 
L 139.089922 201.193304 
L 140.721352 184.704613 
L 143.984212 184.89784 
L 145.615642 185.155476 
L 147.247072 185.670748 
L 148.878502 186.701291 
L 150.509931 188.762377 
L 152.141361 180.518032 
L 155.404221 180.711259 
L 157.035651 180.195987 
L 158.667081 180.067169 
L 161.929941 180.260396 
L 163.56137 180.518032 
L 165.1928 181.033304 
L 166.82423 182.063847 
L 168.45566 184.124933 
L 170.08709 188.247105 
L 171.71852 196.49145 
L 173.34995 212.980141 
L 174.98138 245.957521 
L 398.487273 245.957521 
L 398.487273 245.957521 
" style="fill:none;stroke:#2ca02c;stroke-linecap:square;stroke-width:1.5;"/>
   </g>
   <g id="line2d_21">
    <path clip-path="url(#pd3bfe82ee4)" d="M 73.832727 199.389853 
L 75.464157 199.518671 
L 77.095587 199.776307 
L 78.727017 200.291578 
L 80.358447 198.230492 
L 83.621307 198.423719 
L 85.252736 198.681355 
L 86.884166 199.196626 
L 88.515596 197.13554 
L 91.778456 197.328767 
L 93.409886 197.586403 
L 95.041316 196.555859 
L 98.304175 196.749086 
L 99.935605 197.006722 
L 101.567035 197.521994 
L 103.198465 198.552537 
L 104.829895 200.613623 
L 106.461325 204.735796 
L 108.092755 212.980141 
L 109.724185 180.00276 
L 111.355614 179.873942 
L 112.987044 179.938351 
L 114.618474 179.680716 
L 116.249904 179.551898 
L 117.881334 179.616307 
L 119.512764 179.358671 
L 124.407053 178.972217 
L 127.669913 179.165444 
L 129.301343 179.42308 
L 130.932773 178.392537 
L 134.195633 178.585764 
L 135.827063 178.070492 
L 137.458492 177.941674 
L 140.721352 178.134901 
L 142.352782 177.619629 
L 145.615642 177.812856 
L 147.247072 178.070492 
L 148.878502 178.585764 
L 150.509931 179.616307 
L 152.141361 181.677393 
L 153.772791 185.799565 
L 155.404221 169.310875 
L 158.667081 169.504102 
L 160.298511 169.761738 
L 161.929941 170.27701 
L 163.56137 168.215923 
L 166.82423 168.40915 
L 168.45566 168.666786 
L 170.08709 169.182058 
L 171.71852 170.212601 
L 173.34995 166.090428 
L 174.98138 166.154837 
L 176.61281 165.897201 
L 179.875669 165.639565 
L 181.507099 165.703974 
L 183.138529 165.446339 
L 186.401389 165.639565 
L 188.032819 165.897201 
L 189.664249 166.412473 
L 191.295678 167.443016 
L 192.927108 169.504102 
L 194.558538 173.626275 
L 196.189968 181.87062 
L 197.821398 198.35931 
L 199.452828 231.33669 
L 398.487273 231.33669 
L 398.487273 231.33669 
" style="fill:none;stroke:#d62728;stroke-linecap:square;stroke-width:1.5;"/>
   </g>
   <g id="line2d_22">
    <path clip-path="url(#pd3bfe82ee4)" d="M 73.832727 199.196626 
L 75.464157 199.067808 
L 78.727017 199.261035 
L 80.358447 199.518671 
L 81.989877 200.033942 
L 83.621307 201.064486 
L 85.252736 196.942313 
L 88.515596 197.13554 
L 90.147026 196.620268 
L 91.778456 196.49145 
L 93.409886 196.555859 
L 95.041316 196.298224 
L 98.304175 196.49145 
L 99.935605 196.749086 
L 101.567035 195.718543 
L 104.829895 195.91177 
L 106.461325 195.396498 
L 108.092755 195.267681 
L 111.355614 195.460907 
L 112.987044 195.718543 
L 114.618474 196.233815 
L 116.249904 197.264358 
L 117.881334 193.142185 
L 119.512764 193.206594 
L 121.144194 192.948958 
L 122.775624 193.013367 
L 124.407053 192.755732 
L 126.038483 192.820141 
L 127.669913 192.562505 
L 129.301343 192.433687 
L 132.564203 192.626914 
L 134.195633 192.88455 
L 135.827063 191.854006 
L 137.458492 191.918415 
L 139.089922 191.66078 
L 142.352782 191.854006 
L 143.984212 192.111642 
L 145.615642 192.626914 
L 147.247072 193.657457 
L 148.878502 195.718543 
L 150.509931 199.840716 
L 152.141361 208.085061 
L 153.772791 224.573751 
L 155.404221 257.551131 
L 398.487273 257.551131 
L 398.487273 257.551131 
" style="fill:none;stroke:#9467bd;stroke-linecap:square;stroke-width:1.5;"/>
   </g>
   <g id="line2d_23">
    <path clip-path="url(#pd3bfe82ee4)" d="M 73.832727 199.389853 
L 75.464157 199.518671 
L 77.095587 199.776307 
L 78.727017 200.291578 
L 80.358447 201.322121 
L 81.989877 197.199949 
L 86.884166 196.813495 
L 90.147026 197.006722 
L 91.778456 197.264358 
L 93.409886 197.779629 
L 95.041316 195.718543 
L 96.672746 195.589725 
L 99.935605 195.782952 
L 101.567035 196.040588 
L 103.198465 195.010045 
L 106.461325 195.203272 
L 108.092755 195.460907 
L 109.724185 195.976179 
L 111.355614 193.915093 
L 117.881334 193.399821 
L 121.144194 193.593048 
L 122.775624 193.850684 
L 124.407053 194.365955 
L 126.038483 192.304869 
L 129.301343 192.498096 
L 130.932773 191.982824 
L 134.195633 192.176051 
L 135.827063 192.433687 
L 137.458492 191.403144 
L 139.089922 191.274326 
L 140.721352 191.338735 
L 142.352782 191.081099 
L 145.615642 191.274326 
L 147.247072 191.531962 
L 148.878502 192.047233 
L 150.509931 193.077776 
L 152.141361 188.955604 
L 155.404221 189.148831 
L 157.035651 188.633559 
L 158.667081 188.504741 
L 161.929941 188.697968 
L 163.56137 188.955604 
L 165.1928 189.470875 
L 166.82423 190.501419 
L 168.45566 186.379246 
L 171.71852 186.572473 
L 173.34995 186.057201 
L 176.61281 186.250428 
L 178.244239 185.735157 
L 181.507099 185.928383 
L 183.138529 185.413112 
L 184.769959 185.477521 
L 186.401389 185.219885 
L 189.664249 185.413112 
L 191.295678 184.89784 
L 192.927108 184.769022 
L 196.189968 184.962249 
L 197.821398 184.446978 
L 201.084258 184.640204 
L 202.715688 184.89784 
L 204.347117 185.413112 
L 205.978547 186.443655 
L 207.609977 182.321482 
L 209.241407 182.385891 
L 210.872837 182.128256 
L 212.504267 182.192665 
L 214.135697 181.935029 
L 215.767127 181.806211 
L 219.029986 181.999438 
L 220.661416 182.257073 
L 222.292846 182.772345 
L 223.924276 183.802888 
L 225.555706 185.863974 
L 227.187136 189.986147 
L 228.818566 198.230492 
L 230.449995 165.253112 
L 233.712855 164.995476 
L 236.975715 165.188703 
L 238.607145 165.446339 
L 240.238575 165.96161 
L 241.870005 166.992153 
L 243.501434 162.869981 
L 248.395724 162.483527 
L 251.658584 162.676754 
L 253.290014 162.93439 
L 254.921444 161.903847 
L 258.184303 162.097073 
L 259.815733 162.354709 
L 261.447163 162.869981 
L 263.078593 163.900524 
L 264.710023 165.96161 
L 266.341453 157.717265 
L 267.972883 157.588447 
L 271.235742 157.781674 
L 272.867172 157.266403 
L 274.498602 157.137585 
L 276.130032 157.201994 
L 277.761462 156.944358 
L 284.287181 156.429086 
L 285.918611 156.493495 
L 287.550041 156.235859 
L 289.181471 156.107042 
L 292.444331 156.300268 
L 294.075761 155.784997 
L 295.70719 155.656179 
L 298.97005 155.849406 
L 300.60148 155.334134 
L 302.23291 155.205316 
L 303.86434 155.269725 
L 305.49577 155.012089 
L 308.75863 155.205316 
L 310.390059 155.462952 
L 312.021489 154.432409 
L 315.284349 154.174773 
L 316.915779 154.239182 
L 318.547209 153.981546 
L 320.178639 153.852728 
L 323.441498 154.045955 
L 325.072928 154.303591 
L 326.704358 154.818863 
L 328.335788 155.849406 
L 329.967218 157.910492 
L 331.598648 162.032665 
L 333.230078 170.27701 
L 334.861508 137.299629 
L 336.492937 137.170812 
L 339.755797 137.364038 
L 341.387227 136.848767 
L 344.650087 137.041994 
L 346.281517 136.526722 
L 347.912947 136.591131 
L 349.544376 136.333495 
L 352.807236 136.526722 
L 354.438666 136.784358 
L 356.070096 137.299629 
L 357.701526 138.330173 
L 359.332956 134.208 
L 360.964386 134.079182 
L 364.227245 134.272409 
L 365.858675 133.757137 
L 369.121535 133.950364 
L 370.752965 133.435093 
L 372.384395 133.306275 
L 375.647254 133.499502 
L 377.278684 133.757137 
L 378.910114 132.726594 
L 380.541544 132.597776 
L 383.804404 132.791003 
L 385.435834 133.048639 
L 387.067264 133.563911 
L 388.698693 131.502824 
L 391.961553 131.696051 
L 393.592983 131.953687 
L 395.224413 130.923144 
L 398.487273 131.116371 
L 398.487273 131.116371 
" style="fill:none;stroke:#8c564b;stroke-linecap:square;stroke-width:1.5;"/>
   </g>
   <g id="line2d_24">
    <path clip-path="url(#pd3bfe82ee4)" d="M 73.832727 199.196626 
L 75.464157 199.067808 
L 78.727017 199.261035 
L 80.358447 199.518671 
L 81.989877 198.488128 
L 85.252736 198.681355 
L 86.884166 198.166083 
L 90.147026 198.35931 
L 91.778456 198.616946 
L 93.409886 197.586403 
L 96.672746 197.779629 
L 98.304175 198.037265 
L 99.935605 198.552537 
L 101.567035 199.58308 
L 103.198465 201.644166 
L 104.829895 205.766339 
L 106.461325 214.010684 
L 108.092755 181.033304 
L 109.724185 181.097712 
L 111.355614 180.840077 
L 114.618474 181.033304 
L 116.249904 180.518032 
L 119.512764 180.711259 
L 121.144194 180.968895 
L 122.775624 179.938351 
L 124.407053 180.00276 
L 126.038483 179.745125 
L 127.669913 179.616307 
L 130.932773 179.809534 
L 132.564203 180.067169 
L 134.195633 180.582441 
L 135.827063 178.521355 
L 137.458492 178.392537 
L 139.089922 178.456946 
L 140.721352 178.19931 
L 142.352782 178.070492 
L 145.615642 178.263719 
L 147.247072 177.748447 
L 150.509931 177.941674 
L 152.141361 177.426403 
L 153.772791 177.297585 
L 157.035651 177.490812 
L 158.667081 177.748447 
L 160.298511 176.717904 
L 161.929941 176.589086 
L 165.1928 176.782313 
L 166.82423 176.267042 
L 170.08709 176.460268 
L 171.71852 175.944997 
L 174.98138 176.138224 
L 176.61281 176.395859 
L 178.244239 176.911131 
L 179.875669 177.941674 
L 181.507099 180.00276 
L 183.138529 184.124933 
L 184.769959 167.636243 
L 188.032819 167.82947 
L 189.664249 167.314198 
L 191.295678 167.18538 
L 192.927108 167.249789 
L 194.558538 166.992153 
L 196.189968 166.863335 
L 199.452828 167.056562 
L 201.084258 167.314198 
L 202.715688 166.283655 
L 205.978547 166.476882 
L 207.609977 166.734518 
L 209.241407 167.249789 
L 210.872837 165.188703 
L 212.504267 165.253112 
L 214.135697 164.995476 
L 217.398556 165.188703 
L 219.029986 165.446339 
L 220.661416 165.96161 
L 222.292846 166.992153 
L 223.924276 162.869981 
L 225.555706 162.741163 
L 228.818566 162.93439 
L 230.449995 163.192026 
L 232.081425 163.707297 
L 233.712855 161.646211 
L 238.607145 161.259757 
L 240.238575 161.324166 
L 241.870005 161.06653 
L 243.501434 161.130939 
L 245.132864 160.873304 
L 246.764294 160.744486 
L 250.027154 160.937712 
L 251.658584 160.422441 
L 253.290014 160.48685 
L 254.921444 160.229214 
L 256.552873 160.100396 
L 259.815733 160.293623 
L 261.447163 160.551259 
L 263.078593 159.520716 
L 266.341453 159.713942 
L 267.972883 159.971578 
L 269.604312 160.48685 
L 271.235742 161.517393 
L 272.867172 163.578479 
L 274.498602 167.700652 
L 276.130032 175.944997 
L 277.761462 192.433687 
L 279.392892 225.411067 
L 281.024322 291.365827 
L 398.487273 291.365827 
L 398.487273 291.365827 
" style="fill:none;stroke:#e377c2;stroke-linecap:square;stroke-width:1.5;"/>
   </g>
   <g id="line2d_25">
    <path clip-path="url(#pd3bfe82ee4)" d="M 73.832727 199.389853 
L 75.464157 199.518671 
L 77.095587 199.776307 
L 78.727017 198.745764 
L 81.989877 198.93899 
L 83.621307 199.196626 
L 85.252736 199.711898 
L 86.884166 200.742441 
L 88.515596 202.803527 
L 90.147026 206.9257 
L 91.778456 215.170045 
L 93.409886 231.658735 
L 95.041316 165.703974 
L 98.304175 165.897201 
L 99.935605 166.154837 
L 101.567035 165.124294 
L 103.198465 165.188703 
L 104.829895 164.931067 
L 106.461325 164.802249 
L 109.724185 164.995476 
L 111.355614 165.253112 
L 112.987044 164.222569 
L 116.249904 164.415796 
L 117.881334 164.673431 
L 119.512764 163.642888 
L 122.775624 163.836115 
L 124.407053 164.093751 
L 126.038483 164.609022 
L 127.669913 165.639565 
L 129.301343 167.700652 
L 130.932773 171.822824 
L 132.564203 180.067169 
L 134.195633 196.555859 
L 135.827063 229.53324 
L 137.458492 295.488 
L 398.487273 295.488 
L 398.487273 295.488 
" style="fill:none;stroke:#7f7f7f;stroke-linecap:square;stroke-width:1.5;"/>
   </g>
   <g id="line2d_26">
    <path clip-path="url(#pd3bfe82ee4)" d="M 73.832727 199.389853 
L 75.464157 199.132217 
L 77.095587 199.003399 
L 78.727017 199.067808 
L 80.358447 198.810173 
L 83.621307 199.003399 
L 85.252736 199.261035 
L 86.884166 198.230492 
L 91.778456 197.844038 
L 95.041316 198.037265 
L 96.672746 198.294901 
L 98.304175 198.810173 
L 99.935605 199.840716 
L 101.567035 195.718543 
L 103.198465 195.589725 
L 106.461325 195.782952 
L 108.092755 195.267681 
L 111.355614 195.460907 
L 112.987044 195.718543 
L 114.618474 196.233815 
L 116.249904 197.264358 
L 117.881334 193.142185 
L 119.512764 193.206594 
L 121.144194 192.948958 
L 124.407053 193.142185 
L 126.038483 192.626914 
L 129.301343 192.369278 
L 130.932773 192.433687 
L 132.564203 192.176051 
L 134.195633 192.24046 
L 135.827063 191.982824 
L 139.089922 192.176051 
L 140.721352 191.66078 
L 143.984212 191.854006 
L 145.615642 192.111642 
L 147.247072 192.626914 
L 148.878502 190.565827 
L 152.141361 190.759054 
L 153.772791 191.01669 
L 155.404221 191.531962 
L 157.035651 192.562505 
L 158.667081 194.623591 
L 160.298511 198.745764 
L 161.929941 206.990109 
L 163.56137 223.478799 
L 165.1928 256.456179 
L 398.487273 256.456179 
L 398.487273 256.456179 
" style="fill:none;stroke:#bcbd22;stroke-linecap:square;stroke-width:1.5;"/>
   </g>
   <g id="line2d_27">
    <path clip-path="url(#pd3bfe82ee4)" d="M 73.832727 199.389853 
L 75.464157 199.518671 
L 77.095587 199.003399 
L 80.358447 199.196626 
L 81.989877 199.454262 
L 83.621307 199.969534 
L 85.252736 201.000077 
L 86.884166 203.061163 
L 88.515596 207.183335 
L 90.147026 190.694645 
L 93.409886 190.887872 
L 95.041316 190.372601 
L 98.304175 190.565827 
L 99.935605 190.823463 
L 101.567035 191.338735 
L 103.198465 189.277649 
L 106.461325 189.470875 
L 108.092755 188.955604 
L 111.355614 189.148831 
L 112.987044 189.406466 
L 114.618474 189.921738 
L 116.249904 190.952281 
L 117.881334 193.013367 
L 119.512764 197.13554 
L 121.144194 205.379885 
L 122.775624 172.402505 
L 124.407053 172.466914 
L 126.038483 172.209278 
L 127.669913 172.08046 
L 129.301343 172.144869 
L 130.932773 171.887233 
L 134.195633 172.08046 
L 135.827063 171.565188 
L 139.089922 171.307553 
L 140.721352 171.371962 
L 142.352782 171.114326 
L 143.984212 170.985508 
L 147.247072 171.178735 
L 148.878502 171.436371 
L 150.509931 171.951642 
L 152.141361 169.890556 
L 153.772791 169.761738 
L 157.035651 169.954965 
L 158.667081 170.212601 
L 160.298511 170.727872 
L 161.929941 168.666786 
L 165.1928 168.860013 
L 166.82423 169.117649 
L 168.45566 169.63292 
L 170.08709 170.663463 
L 171.71852 172.72455 
L 173.34995 176.846722 
L 174.98138 160.358032 
L 176.61281 160.229214 
L 179.875669 160.422441 
L 181.507099 159.907169 
L 183.138529 159.778351 
L 184.769959 159.84276 
L 186.401389 159.585125 
L 188.032819 159.649534 
L 189.664249 159.391898 
L 192.927108 159.585125 
L 194.558538 159.069853 
L 197.821398 159.26308 
L 199.452828 158.747808 
L 202.715688 158.490173 
L 205.978547 158.683399 
L 207.609977 158.941035 
L 209.241407 159.456307 
L 210.872837 160.48685 
L 212.504267 162.547936 
L 214.135697 166.670109 
L 215.767127 174.914454 
L 217.398556 191.403144 
L 219.029986 224.380524 
L 220.661416 92.471003 
L 223.924276 92.66423 
L 225.555706 92.921866 
L 227.187136 91.891323 
L 228.818566 91.762505 
L 232.081425 91.955732 
L 233.712855 92.213367 
L 235.344285 91.182824 
L 238.607145 91.376051 
L 240.238575 90.86078 
L 241.870005 90.925188 
L 243.501434 90.667553 
L 245.132864 90.538735 
L 248.395724 90.731962 
L 250.027154 90.21669 
L 253.290014 90.409917 
L 254.921444 89.894645 
L 258.184303 90.087872 
L 259.815733 89.572601 
L 263.078593 89.765827 
L 264.710023 90.023463 
L 266.341453 88.99292 
L 269.604312 89.186147 
L 271.235742 88.670875 
L 274.498602 88.864102 
L 276.130032 88.348831 
L 277.761462 88.41324 
L 279.392892 88.155604 
L 282.655751 88.348831 
L 284.287181 87.833559 
L 287.550041 88.026786 
L 289.181471 88.284422 
L 290.812901 88.799693 
L 292.444331 89.830236 
L 294.075761 91.891323 
L 295.70719 96.013495 
L 297.33862 79.524805 
L 300.60148 79.718032 
L 302.23291 79.975668 
L 303.86434 78.945125 
L 305.49577 79.009534 
L 307.1272 78.751898 
L 310.390059 78.945125 
L 312.021489 78.429853 
L 315.284349 78.62308 
L 316.915779 78.880716 
L 318.547209 77.850173 
L 321.810069 78.043399 
L 323.441498 78.301035 
L 325.072928 78.816307 
L 326.704358 79.84685 
L 328.335788 75.724677 
L 331.598648 75.917904 
L 333.230078 76.17554 
L 334.861508 76.690812 
L 336.492937 77.721355 
L 338.124367 79.782441 
L 339.755797 83.904613 
L 341.387227 92.148958 
L 343.018657 59.171578 
L 344.650087 59.04276 
L 346.281517 59.107169 
L 347.912947 58.849534 
L 351.175806 59.04276 
L 352.807236 59.300396 
L 354.438666 58.269853 
L 357.701526 58.46308 
L 359.332956 58.720716 
L 360.964386 59.235987 
L 362.595815 60.26653 
L 364.227245 62.327617 
L 365.858675 54.083272 
L 367.490105 54.147681 
L 369.121535 53.890045 
L 370.752965 53.761227 
L 372.384395 53.825636 
L 374.015825 53.568 
L 377.278684 53.761227 
L 378.910114 54.018863 
L 380.541544 54.534134 
L 382.172974 55.564677 
L 383.804404 57.625764 
L 385.435834 61.747936 
L 387.067264 69.992281 
L 388.698693 86.480971 
L 390.330123 119.458351 
L 391.961553 185.413112 
L 398.487273 185.413112 
L 398.487273 185.413112 
" style="fill:none;stroke:#17becf;stroke-linecap:square;stroke-width:1.5;"/>
   </g>
   <g id="patch_3">
    <path d="M 57.6 307.584 
L 57.6 41.472 
" style="fill:none;stroke:#000000;stroke-linecap:square;stroke-linejoin:miter;stroke-width:0.8;"/>
   </g>
   <g id="patch_4">
    <path d="M 414.72 307.584 
L 414.72 41.472 
" style="fill:none;stroke:#000000;stroke-linecap:square;stroke-linejoin:miter;stroke-width:0.8;"/>
   </g>
   <g id="patch_5">
    <path d="M 57.6 307.584 
L 414.72 307.584 
" style="fill:none;stroke:#000000;stroke-linecap:square;stroke-linejoin:miter;stroke-width:0.8;"/>
   </g>
   <g id="patch_6">
    <path d="M 57.6 41.472 
L 414.72 41.472 
" style="fill:none;stroke:#000000;stroke-linecap:square;stroke-linejoin:miter;stroke-width:0.8;"/>
   </g>
   <g id="text_20">
    <!-- Grafico fondos columnas martin gala F.I: $150000.0 -->
    <g transform="translate(80.828438 35.472)scale(0.12 -0.12)">
     <defs>
      <path d="M 59.515625 10.40625 
L 59.515625 29.984375 
L 43.40625 29.984375 
L 43.40625 38.09375 
L 69.28125 38.09375 
L 69.28125 6.78125 
Q 63.578125 2.734375 56.6875 0.65625 
Q 49.8125 -1.421875 42 -1.421875 
Q 24.90625 -1.421875 15.25 8.5625 
Q 5.609375 18.5625 5.609375 36.375 
Q 5.609375 54.25 15.25 64.234375 
Q 24.90625 74.21875 42 74.21875 
Q 49.125 74.21875 55.546875 72.453125 
Q 61.96875 70.703125 67.390625 67.28125 
L 67.390625 56.78125 
Q 61.921875 61.421875 55.765625 63.765625 
Q 49.609375 66.109375 42.828125 66.109375 
Q 29.4375 66.109375 22.71875 58.640625 
Q 16.015625 51.171875 16.015625 36.375 
Q 16.015625 21.625 22.71875 14.15625 
Q 29.4375 6.6875 42.828125 6.6875 
Q 48.046875 6.6875 52.140625 7.59375 
Q 56.25 8.5 59.515625 10.40625 
z
" id="DejaVuSans-71"/>
      <path d="M 37.109375 75.984375 
L 37.109375 68.5 
L 28.515625 68.5 
Q 23.6875 68.5 21.796875 66.546875 
Q 19.921875 64.59375 19.921875 59.515625 
L 19.921875 54.6875 
L 34.71875 54.6875 
L 34.71875 47.703125 
L 19.921875 47.703125 
L 19.921875 0 
L 10.890625 0 
L 10.890625 47.703125 
L 2.296875 47.703125 
L 2.296875 54.6875 
L 10.890625 54.6875 
L 10.890625 58.5 
Q 10.890625 67.625 15.140625 71.796875 
Q 19.390625 75.984375 28.609375 75.984375 
z
" id="DejaVuSans-102"/>
      <path d="M 48.78125 52.59375 
L 48.78125 44.1875 
Q 44.96875 46.296875 41.140625 47.34375 
Q 37.3125 48.390625 33.40625 48.390625 
Q 24.65625 48.390625 19.8125 42.84375 
Q 14.984375 37.3125 14.984375 27.296875 
Q 14.984375 17.28125 19.8125 11.734375 
Q 24.65625 6.203125 33.40625 6.203125 
Q 37.3125 6.203125 41.140625 7.25 
Q 44.96875 8.296875 48.78125 10.40625 
L 48.78125 2.09375 
Q 45.015625 0.34375 40.984375 -0.53125 
Q 36.96875 -1.421875 32.421875 -1.421875 
Q 20.0625 -1.421875 12.78125 6.34375 
Q 5.515625 14.109375 5.515625 27.296875 
Q 5.515625 40.671875 12.859375 48.328125 
Q 20.21875 56 33.015625 56 
Q 37.15625 56 41.109375 55.140625 
Q 45.0625 54.296875 48.78125 52.59375 
z
" id="DejaVuSans-99"/>
      <path d="M 44.28125 53.078125 
L 44.28125 44.578125 
Q 40.484375 46.53125 36.375 47.5 
Q 32.28125 48.484375 27.875 48.484375 
Q 21.1875 48.484375 17.84375 46.4375 
Q 14.5 44.390625 14.5 40.28125 
Q 14.5 37.15625 16.890625 35.375 
Q 19.28125 33.59375 26.515625 31.984375 
L 29.59375 31.296875 
Q 39.15625 29.25 43.1875 25.515625 
Q 47.21875 21.78125 47.21875 15.09375 
Q 47.21875 7.46875 41.1875 3.015625 
Q 35.15625 -1.421875 24.609375 -1.421875 
Q 20.21875 -1.421875 15.453125 -0.5625 
Q 10.6875 0.296875 5.421875 2 
L 5.421875 11.28125 
Q 10.40625 8.6875 15.234375 7.390625 
Q 20.0625 6.109375 24.8125 6.109375 
Q 31.15625 6.109375 34.5625 8.28125 
Q 37.984375 10.453125 37.984375 14.40625 
Q 37.984375 18.0625 35.515625 20.015625 
Q 33.0625 21.96875 24.703125 23.78125 
L 21.578125 24.515625 
Q 13.234375 26.265625 9.515625 29.90625 
Q 5.8125 33.546875 5.8125 39.890625 
Q 5.8125 47.609375 11.28125 51.796875 
Q 16.75 56 26.8125 56 
Q 31.78125 56 36.171875 55.265625 
Q 40.578125 54.546875 44.28125 53.078125 
z
" id="DejaVuSans-115"/>
      <path d="M 9.421875 75.984375 
L 18.40625 75.984375 
L 18.40625 0 
L 9.421875 0 
z
" id="DejaVuSans-108"/>
      <path d="M 45.40625 27.984375 
Q 45.40625 37.75 41.375 43.109375 
Q 37.359375 48.484375 30.078125 48.484375 
Q 22.859375 48.484375 18.828125 43.109375 
Q 14.796875 37.75 14.796875 27.984375 
Q 14.796875 18.265625 18.828125 12.890625 
Q 22.859375 7.515625 30.078125 7.515625 
Q 37.359375 7.515625 41.375 12.890625 
Q 45.40625 18.265625 45.40625 27.984375 
z
M 54.390625 6.78125 
Q 54.390625 -7.171875 48.1875 -13.984375 
Q 42 -20.796875 29.203125 -20.796875 
Q 24.46875 -20.796875 20.265625 -20.09375 
Q 16.0625 -19.390625 12.109375 -17.921875 
L 12.109375 -9.1875 
Q 16.0625 -11.328125 19.921875 -12.34375 
Q 23.78125 -13.375 27.78125 -13.375 
Q 36.625 -13.375 41.015625 -8.765625 
Q 45.40625 -4.15625 45.40625 5.171875 
L 45.40625 9.625 
Q 42.625 4.78125 38.28125 2.390625 
Q 33.9375 0 27.875 0 
Q 17.828125 0 11.671875 7.65625 
Q 5.515625 15.328125 5.515625 27.984375 
Q 5.515625 40.671875 11.671875 48.328125 
Q 17.828125 56 27.875 56 
Q 33.9375 56 38.28125 53.609375 
Q 42.625 51.21875 45.40625 46.390625 
L 45.40625 54.6875 
L 54.390625 54.6875 
z
" id="DejaVuSans-103"/>
      <path d="M 10.6875 12.40625 
L 21 12.40625 
L 21 0 
L 10.6875 0 
z
" id="DejaVuSans-46"/>
      <path d="M 9.8125 72.90625 
L 19.671875 72.90625 
L 19.671875 0 
L 9.8125 0 
z
" id="DejaVuSans-73"/>
      <path d="M 11.71875 12.40625 
L 22.015625 12.40625 
L 22.015625 0 
L 11.71875 0 
z
M 11.71875 51.703125 
L 22.015625 51.703125 
L 22.015625 39.3125 
L 11.71875 39.3125 
z
" id="DejaVuSans-58"/>
     </defs>
     <use xlink:href="#DejaVuSans-71"/>
     <use x="77.490234" xlink:href="#DejaVuSans-114"/>
     <use x="118.603516" xlink:href="#DejaVuSans-97"/>
     <use x="179.882812" xlink:href="#DejaVuSans-102"/>
     <use x="215.087891" xlink:href="#DejaVuSans-105"/>
     <use x="242.871094" xlink:href="#DejaVuSans-99"/>
     <use x="297.851562" xlink:href="#DejaVuSans-111"/>
     <use x="359.033203" xlink:href="#DejaVuSans-32"/>
     <use x="390.820312" xlink:href="#DejaVuSans-102"/>
     <use x="426.025391" xlink:href="#DejaVuSans-111"/>
     <use x="487.207031" xlink:href="#DejaVuSans-110"/>
     <use x="550.585938" xlink:href="#DejaVuSans-100"/>
     <use x="614.0625" xlink:href="#DejaVuSans-111"/>
     <use x="675.244141" xlink:href="#DejaVuSans-115"/>
     <use x="727.34375" xlink:href="#DejaVuSans-32"/>
     <use x="759.130859" xlink:href="#DejaVuSans-99"/>
     <use x="814.111328" xlink:href="#DejaVuSans-111"/>
     <use x="875.292969" xlink:href="#DejaVuSans-108"/>
     <use x="903.076172" xlink:href="#DejaVuSans-117"/>
     <use x="966.455078" xlink:href="#DejaVuSans-109"/>
     <use x="1063.867188" xlink:href="#DejaVuSans-110"/>
     <use x="1127.246094" xlink:href="#DejaVuSans-97"/>
     <use x="1188.525391" xlink:href="#DejaVuSans-115"/>
     <use x="1240.625" xlink:href="#DejaVuSans-32"/>
     <use x="1272.412109" xlink:href="#DejaVuSans-109"/>
     <use x="1369.824219" xlink:href="#DejaVuSans-97"/>
     <use x="1431.103516" xlink:href="#DejaVuSans-114"/>
     <use x="1472.216797" xlink:href="#DejaVuSans-116"/>
     <use x="1511.425781" xlink:href="#DejaVuSans-105"/>
     <use x="1539.208984" xlink:href="#DejaVuSans-110"/>
     <use x="1602.587891" xlink:href="#DejaVuSans-32"/>
     <use x="1634.375" xlink:href="#DejaVuSans-103"/>
     <use x="1697.851562" xlink:href="#DejaVuSans-97"/>
     <use x="1759.130859" xlink:href="#DejaVuSans-108"/>
     <use x="1786.914062" xlink:href="#DejaVuSans-97"/>
     <use x="1848.193359" xlink:href="#DejaVuSans-32"/>
     <use x="1879.980469" xlink:href="#DejaVuSans-70"/>
     <use x="1921.375" xlink:href="#DejaVuSans-46"/>
     <use x="1953.162109" xlink:href="#DejaVuSans-73"/>
     <use x="1982.654297" xlink:href="#DejaVuSans-58"/>
     <use x="2016.345703" xlink:href="#DejaVuSans-32"/>
     <use x="2048.132812" xlink:href="#DejaVuSans-36"/>
     <use x="2111.755859" xlink:href="#DejaVuSans-49"/>
     <use x="2175.378906" xlink:href="#DejaVuSans-53"/>
     <use x="2239.001953" xlink:href="#DejaVuSans-48"/>
     <use x="2302.625" xlink:href="#DejaVuSans-48"/>
     <use x="2366.248047" xlink:href="#DejaVuSans-48"/>
     <use x="2429.871094" xlink:href="#DejaVuSans-48"/>
     <use x="2493.494141" xlink:href="#DejaVuSans-46"/>
     <use x="2525.28125" xlink:href="#DejaVuSans-48"/>
    </g>
   </g>
   <g id="legend_1">
    <g id="patch_7">
     <path d="M 324.295 196.25325 
L 407.72 196.25325 
Q 409.72 196.25325 409.72 194.25325 
L 409.72 48.472 
Q 409.72 46.472 407.72 46.472 
L 324.295 46.472 
Q 322.295 46.472 322.295 48.472 
L 322.295 194.25325 
Q 322.295 196.25325 324.295 196.25325 
z
" style="fill:#ffffff;opacity:0.8;stroke:#cccccc;stroke-linejoin:miter;"/>
    </g>
    <g id="line2d_28">
     <path d="M 326.295 54.570437 
L 346.295 54.570437 
" style="fill:none;stroke:#1f77b4;stroke-linecap:square;stroke-width:1.5;"/>
    </g>
    <g id="line2d_29"/>
    <g id="text_21">
     <!-- Fondos 1 -->
     <g transform="translate(354.295 58.070437)scale(0.1 -0.1)">
      <use xlink:href="#DejaVuSans-70"/>
      <use x="53.894531" xlink:href="#DejaVuSans-111"/>
      <use x="115.076172" xlink:href="#DejaVuSans-110"/>
      <use x="178.455078" xlink:href="#DejaVuSans-100"/>
      <use x="241.931641" xlink:href="#DejaVuSans-111"/>
      <use x="303.113281" xlink:href="#DejaVuSans-115"/>
      <use x="355.212891" xlink:href="#DejaVuSans-32"/>
      <use x="387" xlink:href="#DejaVuSans-49"/>
     </g>
    </g>
    <g id="line2d_30">
     <path d="M 326.295 69.248562 
L 346.295 69.248562 
" style="fill:none;stroke:#ff7f0e;stroke-linecap:square;stroke-width:1.5;"/>
    </g>
    <g id="line2d_31"/>
    <g id="text_22">
     <!-- Fondos 2 -->
     <g transform="translate(354.295 72.748562)scale(0.1 -0.1)">
      <use xlink:href="#DejaVuSans-70"/>
      <use x="53.894531" xlink:href="#DejaVuSans-111"/>
      <use x="115.076172" xlink:href="#DejaVuSans-110"/>
      <use x="178.455078" xlink:href="#DejaVuSans-100"/>
      <use x="241.931641" xlink:href="#DejaVuSans-111"/>
      <use x="303.113281" xlink:href="#DejaVuSans-115"/>
      <use x="355.212891" xlink:href="#DejaVuSans-32"/>
      <use x="387" xlink:href="#DejaVuSans-50"/>
     </g>
    </g>
    <g id="line2d_32">
     <path d="M 326.295 83.926688 
L 346.295 83.926688 
" style="fill:none;stroke:#2ca02c;stroke-linecap:square;stroke-width:1.5;"/>
    </g>
    <g id="line2d_33"/>
    <g id="text_23">
     <!-- Fondos 3 -->
     <g transform="translate(354.295 87.426688)scale(0.1 -0.1)">
      <use xlink:href="#DejaVuSans-70"/>
      <use x="53.894531" xlink:href="#DejaVuSans-111"/>
      <use x="115.076172" xlink:href="#DejaVuSans-110"/>
      <use x="178.455078" xlink:href="#DejaVuSans-100"/>
      <use x="241.931641" xlink:href="#DejaVuSans-111"/>
      <use x="303.113281" xlink:href="#DejaVuSans-115"/>
      <use x="355.212891" xlink:href="#DejaVuSans-32"/>
      <use x="387" xlink:href="#DejaVuSans-51"/>
     </g>
    </g>
    <g id="line2d_34">
     <path d="M 326.295 98.604812 
L 346.295 98.604812 
" style="fill:none;stroke:#d62728;stroke-linecap:square;stroke-width:1.5;"/>
    </g>
    <g id="line2d_35"/>
    <g id="text_24">
     <!-- Fondos 4 -->
     <g transform="translate(354.295 102.104812)scale(0.1 -0.1)">
      <defs>
       <path d="M 37.796875 64.3125 
L 12.890625 25.390625 
L 37.796875 25.390625 
z
M 35.203125 72.90625 
L 47.609375 72.90625 
L 47.609375 25.390625 
L 58.015625 25.390625 
L 58.015625 17.1875 
L 47.609375 17.1875 
L 47.609375 0 
L 37.796875 0 
L 37.796875 17.1875 
L 4.890625 17.1875 
L 4.890625 26.703125 
z
" id="DejaVuSans-52"/>
      </defs>
      <use xlink:href="#DejaVuSans-70"/>
      <use x="53.894531" xlink:href="#DejaVuSans-111"/>
      <use x="115.076172" xlink:href="#DejaVuSans-110"/>
      <use x="178.455078" xlink:href="#DejaVuSans-100"/>
      <use x="241.931641" xlink:href="#DejaVuSans-111"/>
      <use x="303.113281" xlink:href="#DejaVuSans-115"/>
      <use x="355.212891" xlink:href="#DejaVuSans-32"/>
      <use x="387" xlink:href="#DejaVuSans-52"/>
     </g>
    </g>
    <g id="line2d_36">
     <path d="M 326.295 113.282938 
L 346.295 113.282938 
" style="fill:none;stroke:#9467bd;stroke-linecap:square;stroke-width:1.5;"/>
    </g>
    <g id="line2d_37"/>
    <g id="text_25">
     <!-- Fondos 5 -->
     <g transform="translate(354.295 116.782938)scale(0.1 -0.1)">
      <use xlink:href="#DejaVuSans-70"/>
      <use x="53.894531" xlink:href="#DejaVuSans-111"/>
      <use x="115.076172" xlink:href="#DejaVuSans-110"/>
      <use x="178.455078" xlink:href="#DejaVuSans-100"/>
      <use x="241.931641" xlink:href="#DejaVuSans-111"/>
      <use x="303.113281" xlink:href="#DejaVuSans-115"/>
      <use x="355.212891" xlink:href="#DejaVuSans-32"/>
      <use x="387" xlink:href="#DejaVuSans-53"/>
     </g>
    </g>
    <g id="line2d_38">
     <path d="M 326.295 127.961062 
L 346.295 127.961062 
" style="fill:none;stroke:#8c564b;stroke-linecap:square;stroke-width:1.5;"/>
    </g>
    <g id="line2d_39"/>
    <g id="text_26">
     <!-- Fondos 6 -->
     <g transform="translate(354.295 131.461062)scale(0.1 -0.1)">
      <defs>
       <path d="M 33.015625 40.375 
Q 26.375 40.375 22.484375 35.828125 
Q 18.609375 31.296875 18.609375 23.390625 
Q 18.609375 15.53125 22.484375 10.953125 
Q 26.375 6.390625 33.015625 6.390625 
Q 39.65625 6.390625 43.53125 10.953125 
Q 47.40625 15.53125 47.40625 23.390625 
Q 47.40625 31.296875 43.53125 35.828125 
Q 39.65625 40.375 33.015625 40.375 
z
M 52.59375 71.296875 
L 52.59375 62.3125 
Q 48.875 64.0625 45.09375 64.984375 
Q 41.3125 65.921875 37.59375 65.921875 
Q 27.828125 65.921875 22.671875 59.328125 
Q 17.53125 52.734375 16.796875 39.40625 
Q 19.671875 43.65625 24.015625 45.921875 
Q 28.375 48.1875 33.59375 48.1875 
Q 44.578125 48.1875 50.953125 41.515625 
Q 57.328125 34.859375 57.328125 23.390625 
Q 57.328125 12.15625 50.6875 5.359375 
Q 44.046875 -1.421875 33.015625 -1.421875 
Q 20.359375 -1.421875 13.671875 8.265625 
Q 6.984375 17.96875 6.984375 36.375 
Q 6.984375 53.65625 15.1875 63.9375 
Q 23.390625 74.21875 37.203125 74.21875 
Q 40.921875 74.21875 44.703125 73.484375 
Q 48.484375 72.75 52.59375 71.296875 
z
" id="DejaVuSans-54"/>
      </defs>
      <use xlink:href="#DejaVuSans-70"/>
      <use x="53.894531" xlink:href="#DejaVuSans-111"/>
      <use x="115.076172" xlink:href="#DejaVuSans-110"/>
      <use x="178.455078" xlink:href="#DejaVuSans-100"/>
      <use x="241.931641" xlink:href="#DejaVuSans-111"/>
      <use x="303.113281" xlink:href="#DejaVuSans-115"/>
      <use x="355.212891" xlink:href="#DejaVuSans-32"/>
      <use x="387" xlink:href="#DejaVuSans-54"/>
     </g>
    </g>
    <g id="line2d_40">
     <path d="M 326.295 142.639187 
L 346.295 142.639187 
" style="fill:none;stroke:#e377c2;stroke-linecap:square;stroke-width:1.5;"/>
    </g>
    <g id="line2d_41"/>
    <g id="text_27">
     <!-- Fondos 7 -->
     <g transform="translate(354.295 146.139187)scale(0.1 -0.1)">
      <use xlink:href="#DejaVuSans-70"/>
      <use x="53.894531" xlink:href="#DejaVuSans-111"/>
      <use x="115.076172" xlink:href="#DejaVuSans-110"/>
      <use x="178.455078" xlink:href="#DejaVuSans-100"/>
      <use x="241.931641" xlink:href="#DejaVuSans-111"/>
      <use x="303.113281" xlink:href="#DejaVuSans-115"/>
      <use x="355.212891" xlink:href="#DejaVuSans-32"/>
      <use x="387" xlink:href="#DejaVuSans-55"/>
     </g>
    </g>
    <g id="line2d_42">
     <path d="M 326.295 157.317312 
L 346.295 157.317312 
" style="fill:none;stroke:#7f7f7f;stroke-linecap:square;stroke-width:1.5;"/>
    </g>
    <g id="line2d_43"/>
    <g id="text_28">
     <!-- Fondos 8 -->
     <g transform="translate(354.295 160.817312)scale(0.1 -0.1)">
      <defs>
       <path d="M 31.78125 34.625 
Q 24.75 34.625 20.71875 30.859375 
Q 16.703125 27.09375 16.703125 20.515625 
Q 16.703125 13.921875 20.71875 10.15625 
Q 24.75 6.390625 31.78125 6.390625 
Q 38.8125 6.390625 42.859375 10.171875 
Q 46.921875 13.96875 46.921875 20.515625 
Q 46.921875 27.09375 42.890625 30.859375 
Q 38.875 34.625 31.78125 34.625 
z
M 21.921875 38.8125 
Q 15.578125 40.375 12.03125 44.71875 
Q 8.5 49.078125 8.5 55.328125 
Q 8.5 64.0625 14.71875 69.140625 
Q 20.953125 74.21875 31.78125 74.21875 
Q 42.671875 74.21875 48.875 69.140625 
Q 55.078125 64.0625 55.078125 55.328125 
Q 55.078125 49.078125 51.53125 44.71875 
Q 48 40.375 41.703125 38.8125 
Q 48.828125 37.15625 52.796875 32.3125 
Q 56.78125 27.484375 56.78125 20.515625 
Q 56.78125 9.90625 50.3125 4.234375 
Q 43.84375 -1.421875 31.78125 -1.421875 
Q 19.734375 -1.421875 13.25 4.234375 
Q 6.78125 9.90625 6.78125 20.515625 
Q 6.78125 27.484375 10.78125 32.3125 
Q 14.796875 37.15625 21.921875 38.8125 
z
M 18.3125 54.390625 
Q 18.3125 48.734375 21.84375 45.5625 
Q 25.390625 42.390625 31.78125 42.390625 
Q 38.140625 42.390625 41.71875 45.5625 
Q 45.3125 48.734375 45.3125 54.390625 
Q 45.3125 60.0625 41.71875 63.234375 
Q 38.140625 66.40625 31.78125 66.40625 
Q 25.390625 66.40625 21.84375 63.234375 
Q 18.3125 60.0625 18.3125 54.390625 
z
" id="DejaVuSans-56"/>
      </defs>
      <use xlink:href="#DejaVuSans-70"/>
      <use x="53.894531" xlink:href="#DejaVuSans-111"/>
      <use x="115.076172" xlink:href="#DejaVuSans-110"/>
      <use x="178.455078" xlink:href="#DejaVuSans-100"/>
      <use x="241.931641" xlink:href="#DejaVuSans-111"/>
      <use x="303.113281" xlink:href="#DejaVuSans-115"/>
      <use x="355.212891" xlink:href="#DejaVuSans-32"/>
      <use x="387" xlink:href="#DejaVuSans-56"/>
     </g>
    </g>
    <g id="line2d_44">
     <path d="M 326.295 171.995437 
L 346.295 171.995437 
" style="fill:none;stroke:#bcbd22;stroke-linecap:square;stroke-width:1.5;"/>
    </g>
    <g id="line2d_45"/>
    <g id="text_29">
     <!-- Fondos 9 -->
     <g transform="translate(354.295 175.495437)scale(0.1 -0.1)">
      <defs>
       <path d="M 10.984375 1.515625 
L 10.984375 10.5 
Q 14.703125 8.734375 18.5 7.8125 
Q 22.3125 6.890625 25.984375 6.890625 
Q 35.75 6.890625 40.890625 13.453125 
Q 46.046875 20.015625 46.78125 33.40625 
Q 43.953125 29.203125 39.59375 26.953125 
Q 35.25 24.703125 29.984375 24.703125 
Q 19.046875 24.703125 12.671875 31.3125 
Q 6.296875 37.9375 6.296875 49.421875 
Q 6.296875 60.640625 12.9375 67.421875 
Q 19.578125 74.21875 30.609375 74.21875 
Q 43.265625 74.21875 49.921875 64.515625 
Q 56.59375 54.828125 56.59375 36.375 
Q 56.59375 19.140625 48.40625 8.859375 
Q 40.234375 -1.421875 26.421875 -1.421875 
Q 22.703125 -1.421875 18.890625 -0.6875 
Q 15.09375 0.046875 10.984375 1.515625 
z
M 30.609375 32.421875 
Q 37.25 32.421875 41.125 36.953125 
Q 45.015625 41.5 45.015625 49.421875 
Q 45.015625 57.28125 41.125 61.84375 
Q 37.25 66.40625 30.609375 66.40625 
Q 23.96875 66.40625 20.09375 61.84375 
Q 16.21875 57.28125 16.21875 49.421875 
Q 16.21875 41.5 20.09375 36.953125 
Q 23.96875 32.421875 30.609375 32.421875 
z
" id="DejaVuSans-57"/>
      </defs>
      <use xlink:href="#DejaVuSans-70"/>
      <use x="53.894531" xlink:href="#DejaVuSans-111"/>
      <use x="115.076172" xlink:href="#DejaVuSans-110"/>
      <use x="178.455078" xlink:href="#DejaVuSans-100"/>
      <use x="241.931641" xlink:href="#DejaVuSans-111"/>
      <use x="303.113281" xlink:href="#DejaVuSans-115"/>
      <use x="355.212891" xlink:href="#DejaVuSans-32"/>
      <use x="387" xlink:href="#DejaVuSans-57"/>
     </g>
    </g>
    <g id="line2d_46">
     <path d="M 326.295 186.673562 
L 346.295 186.673562 
" style="fill:none;stroke:#17becf;stroke-linecap:square;stroke-width:1.5;"/>
    </g>
    <g id="line2d_47"/>
    <g id="text_30">
     <!-- Fondos 10 -->
     <g transform="translate(354.295 190.173562)scale(0.1 -0.1)">
      <use xlink:href="#DejaVuSans-70"/>
      <use x="53.894531" xlink:href="#DejaVuSans-111"/>
      <use x="115.076172" xlink:href="#DejaVuSans-110"/>
      <use x="178.455078" xlink:href="#DejaVuSans-100"/>
      <use x="241.931641" xlink:href="#DejaVuSans-111"/>
      <use x="303.113281" xlink:href="#DejaVuSans-115"/>
      <use x="355.212891" xlink:href="#DejaVuSans-32"/>
      <use x="387" xlink:href="#DejaVuSans-49"/>
      <use x="450.623047" xlink:href="#DejaVuSans-48"/>
     </g>
    </g>
   </g>
  </g>
 </g>
 <defs>
  <clipPath id="pd3bfe82ee4">
   <rect height="266.112" width="357.12" x="57.6" y="41.472"/>
  </clipPath>
 </defs>
</svg>
