<?xml version="1.0" encoding="utf-8" standalone="no"?>
<!DOCTYPE svg PUBLIC "-//W3C//DTD SVG 1.1//EN"
  "http://www.w3.org/Graphics/SVG/1.1/DTD/svg11.dtd">
<!-- Created with matplotlib (https://matplotlib.org/) -->
<svg height="345.6pt" version="1.1" viewBox="0 0 460.8 345.6" width="460.8pt" xmlns="http://www.w3.org/2000/svg" xmlns:xlink="http://www.w3.org/1999/xlink">
 <metadata>
  <rdf:RDF xmlns:cc="http://creativecommons.org/ns#" xmlns:dc="http://purl.org/dc/elements/1.1/" xmlns:rdf="http://www.w3.org/1999/02/22-rdf-syntax-ns#">
   <cc:Work>
    <dc:type rdf:resource="http://purl.org/dc/dcmitype/StillImage"/>
    <dc:date>2021-04-07T21:24:33.077064</dc:date>
    <dc:format>image/svg+xml</dc:format>
    <dc:creator>
     <cc:Agent>
      <dc:title>Matplotlib v3.3.4, https://matplotlib.org/</dc:title>
     </cc:Agent>
    </dc:creator>
   </cc:Work>
  </rdf:RDF>
 </metadata>
 <defs>
  <style type="text/css">*{stroke-linecap:butt;stroke-linejoin:round;}</style>
 </defs>
 <g id="figure_1">
  <g id="patch_1">
   <path d="M 0 345.6 
L 460.8 345.6 
L 460.8 0 
L 0 0 
z
" style="fill:#ffffff;"/>
  </g>
  <g id="axes_1">
   <g id="patch_2">
    <path d="M 57.6 307.584 
L 414.72 307.584 
L 414.72 41.472 
L 57.6 41.472 
z
" style="fill:#ffffff;"/>
   </g>
   <g id="matplotlib.axis_1">
    <g id="xtick_1">
     <g id="line2d_1">
      <defs>
       <path d="M 0 0 
L 0 3.5 
" id="mc305ab086c" style="stroke:#000000;stroke-width:0.8;"/>
      </defs>
      <g>
       <use style="stroke:#000000;stroke-width:0.8;" x="72.201297" xlink:href="#mc305ab086c" y="307.584"/>
      </g>
     </g>
     <g id="text_1">
      <!-- 0 -->
      <g transform="translate(69.020047 322.182437)scale(0.1 -0.1)">
       <defs>
        <path d="M 31.78125 66.40625 
Q 24.171875 66.40625 20.328125 58.90625 
Q 16.5 51.421875 16.5 36.375 
Q 16.5 21.390625 20.328125 13.890625 
Q 24.171875 6.390625 31.78125 6.390625 
Q 39.453125 6.390625 43.28125 13.890625 
Q 47.125 21.390625 47.125 36.375 
Q 47.125 51.421875 43.28125 58.90625 
Q 39.453125 66.40625 31.78125 66.40625 
z
M 31.78125 74.21875 
Q 44.046875 74.21875 50.515625 64.515625 
Q 56.984375 54.828125 56.984375 36.375 
Q 56.984375 17.96875 50.515625 8.265625 
Q 44.046875 -1.421875 31.78125 -1.421875 
Q 19.53125 -1.421875 13.0625 8.265625 
Q 6.59375 17.96875 6.59375 36.375 
Q 6.59375 54.828125 13.0625 64.515625 
Q 19.53125 74.21875 31.78125 74.21875 
z
" id="DejaVuSans-48"/>
       </defs>
       <use xlink:href="#DejaVuSans-48"/>
      </g>
     </g>
    </g>
    <g id="xtick_2">
     <g id="line2d_2">
      <g>
       <use style="stroke:#000000;stroke-width:0.8;" x="112.987044" xlink:href="#mc305ab086c" y="307.584"/>
      </g>
     </g>
     <g id="text_2">
      <!-- 25 -->
      <g transform="translate(106.624544 322.182437)scale(0.1 -0.1)">
       <defs>
        <path d="M 19.1875 8.296875 
L 53.609375 8.296875 
L 53.609375 0 
L 7.328125 0 
L 7.328125 8.296875 
Q 12.9375 14.109375 22.625 23.890625 
Q 32.328125 33.6875 34.8125 36.53125 
Q 39.546875 41.84375 41.421875 45.53125 
Q 43.3125 49.21875 43.3125 52.78125 
Q 43.3125 58.59375 39.234375 62.25 
Q 35.15625 65.921875 28.609375 65.921875 
Q 23.96875 65.921875 18.8125 64.3125 
Q 13.671875 62.703125 7.8125 59.421875 
L 7.8125 69.390625 
Q 13.765625 71.78125 18.9375 73 
Q 24.125 74.21875 28.421875 74.21875 
Q 39.75 74.21875 46.484375 68.546875 
Q 53.21875 62.890625 53.21875 53.421875 
Q 53.21875 48.921875 51.53125 44.890625 
Q 49.859375 40.875 45.40625 35.40625 
Q 44.1875 33.984375 37.640625 27.21875 
Q 31.109375 20.453125 19.1875 8.296875 
z
" id="DejaVuSans-50"/>
        <path d="M 10.796875 72.90625 
L 49.515625 72.90625 
L 49.515625 64.59375 
L 19.828125 64.59375 
L 19.828125 46.734375 
Q 21.96875 47.46875 24.109375 47.828125 
Q 26.265625 48.1875 28.421875 48.1875 
Q 40.625 48.1875 47.75 41.5 
Q 54.890625 34.8125 54.890625 23.390625 
Q 54.890625 11.625 47.5625 5.09375 
Q 40.234375 -1.421875 26.90625 -1.421875 
Q 22.3125 -1.421875 17.546875 -0.640625 
Q 12.796875 0.140625 7.71875 1.703125 
L 7.71875 11.625 
Q 12.109375 9.234375 16.796875 8.0625 
Q 21.484375 6.890625 26.703125 6.890625 
Q 35.15625 6.890625 40.078125 11.328125 
Q 45.015625 15.765625 45.015625 23.390625 
Q 45.015625 31 40.078125 35.4375 
Q 35.15625 39.890625 26.703125 39.890625 
Q 22.75 39.890625 18.8125 39.015625 
Q 14.890625 38.140625 10.796875 36.28125 
z
" id="DejaVuSans-53"/>
       </defs>
       <use xlink:href="#DejaVuSans-50"/>
       <use x="63.623047" xlink:href="#DejaVuSans-53"/>
      </g>
     </g>
    </g>
    <g id="xtick_3">
     <g id="line2d_3">
      <g>
       <use style="stroke:#000000;stroke-width:0.8;" x="153.772791" xlink:href="#mc305ab086c" y="307.584"/>
      </g>
     </g>
     <g id="text_3">
      <!-- 50 -->
      <g transform="translate(147.410291 322.182437)scale(0.1 -0.1)">
       <use xlink:href="#DejaVuSans-53"/>
       <use x="63.623047" xlink:href="#DejaVuSans-48"/>
      </g>
     </g>
    </g>
    <g id="xtick_4">
     <g id="line2d_4">
      <g>
       <use style="stroke:#000000;stroke-width:0.8;" x="194.558538" xlink:href="#mc305ab086c" y="307.584"/>
      </g>
     </g>
     <g id="text_4">
      <!-- 75 -->
      <g transform="translate(188.196038 322.182437)scale(0.1 -0.1)">
       <defs>
        <path d="M 8.203125 72.90625 
L 55.078125 72.90625 
L 55.078125 68.703125 
L 28.609375 0 
L 18.3125 0 
L 43.21875 64.59375 
L 8.203125 64.59375 
z
" id="DejaVuSans-55"/>
       </defs>
       <use xlink:href="#DejaVuSans-55"/>
       <use x="63.623047" xlink:href="#DejaVuSans-53"/>
      </g>
     </g>
    </g>
    <g id="xtick_5">
     <g id="line2d_5">
      <g>
       <use style="stroke:#000000;stroke-width:0.8;" x="235.344285" xlink:href="#mc305ab086c" y="307.584"/>
      </g>
     </g>
     <g id="text_5">
      <!-- 100 -->
      <g transform="translate(225.800535 322.182437)scale(0.1 -0.1)">
       <defs>
        <path d="M 12.40625 8.296875 
L 28.515625 8.296875 
L 28.515625 63.921875 
L 10.984375 60.40625 
L 10.984375 69.390625 
L 28.421875 72.90625 
L 38.28125 72.90625 
L 38.28125 8.296875 
L 54.390625 8.296875 
L 54.390625 0 
L 12.40625 0 
z
" id="DejaVuSans-49"/>
       </defs>
       <use xlink:href="#DejaVuSans-49"/>
       <use x="63.623047" xlink:href="#DejaVuSans-48"/>
       <use x="127.246094" xlink:href="#DejaVuSans-48"/>
      </g>
     </g>
    </g>
    <g id="xtick_6">
     <g id="line2d_6">
      <g>
       <use style="stroke:#000000;stroke-width:0.8;" x="276.130032" xlink:href="#mc305ab086c" y="307.584"/>
      </g>
     </g>
     <g id="text_6">
      <!-- 125 -->
      <g transform="translate(266.586282 322.182437)scale(0.1 -0.1)">
       <use xlink:href="#DejaVuSans-49"/>
       <use x="63.623047" xlink:href="#DejaVuSans-50"/>
       <use x="127.246094" xlink:href="#DejaVuSans-53"/>
      </g>
     </g>
    </g>
    <g id="xtick_7">
     <g id="line2d_7">
      <g>
       <use style="stroke:#000000;stroke-width:0.8;" x="316.915779" xlink:href="#mc305ab086c" y="307.584"/>
      </g>
     </g>
     <g id="text_7">
      <!-- 150 -->
      <g transform="translate(307.372029 322.182437)scale(0.1 -0.1)">
       <use xlink:href="#DejaVuSans-49"/>
       <use x="63.623047" xlink:href="#DejaVuSans-53"/>
       <use x="127.246094" xlink:href="#DejaVuSans-48"/>
      </g>
     </g>
    </g>
    <g id="xtick_8">
     <g id="line2d_8">
      <g>
       <use style="stroke:#000000;stroke-width:0.8;" x="357.701526" xlink:href="#mc305ab086c" y="307.584"/>
      </g>
     </g>
     <g id="text_8">
      <!-- 175 -->
      <g transform="translate(348.157776 322.182437)scale(0.1 -0.1)">
       <use xlink:href="#DejaVuSans-49"/>
       <use x="63.623047" xlink:href="#DejaVuSans-55"/>
       <use x="127.246094" xlink:href="#DejaVuSans-53"/>
      </g>
     </g>
    </g>
    <g id="xtick_9">
     <g id="line2d_9">
      <g>
       <use style="stroke:#000000;stroke-width:0.8;" x="398.487273" xlink:href="#mc305ab086c" y="307.584"/>
      </g>
     </g>
     <g id="text_9">
      <!-- 200 -->
      <g transform="translate(388.943523 322.182437)scale(0.1 -0.1)">
       <use xlink:href="#DejaVuSans-50"/>
       <use x="63.623047" xlink:href="#DejaVuSans-48"/>
       <use x="127.246094" xlink:href="#DejaVuSans-48"/>
      </g>
     </g>
    </g>
    <g id="text_10">
     <!-- Numero de tirada -->
     <g transform="translate(192.165469 335.860562)scale(0.1 -0.1)">
      <defs>
       <path d="M 9.8125 72.90625 
L 23.09375 72.90625 
L 55.421875 11.921875 
L 55.421875 72.90625 
L 64.984375 72.90625 
L 64.984375 0 
L 51.703125 0 
L 19.390625 60.984375 
L 19.390625 0 
L 9.8125 0 
z
" id="DejaVuSans-78"/>
       <path d="M 8.5 21.578125 
L 8.5 54.6875 
L 17.484375 54.6875 
L 17.484375 21.921875 
Q 17.484375 14.15625 20.5 10.265625 
Q 23.53125 6.390625 29.59375 6.390625 
Q 36.859375 6.390625 41.078125 11.03125 
Q 45.3125 15.671875 45.3125 23.6875 
L 45.3125 54.6875 
L 54.296875 54.6875 
L 54.296875 0 
L 45.3125 0 
L 45.3125 8.40625 
Q 42.046875 3.421875 37.71875 1 
Q 33.40625 -1.421875 27.6875 -1.421875 
Q 18.265625 -1.421875 13.375 4.4375 
Q 8.5 10.296875 8.5 21.578125 
z
M 31.109375 56 
z
" id="DejaVuSans-117"/>
       <path d="M 52 44.1875 
Q 55.375 50.25 60.0625 53.125 
Q 64.75 56 71.09375 56 
Q 79.640625 56 84.28125 50.015625 
Q 88.921875 44.046875 88.921875 33.015625 
L 88.921875 0 
L 79.890625 0 
L 79.890625 32.71875 
Q 79.890625 40.578125 77.09375 44.375 
Q 74.3125 48.1875 68.609375 48.1875 
Q 61.625 48.1875 57.5625 43.546875 
Q 53.515625 38.921875 53.515625 30.90625 
L 53.515625 0 
L 44.484375 0 
L 44.484375 32.71875 
Q 44.484375 40.625 41.703125 44.40625 
Q 38.921875 48.1875 33.109375 48.1875 
Q 26.21875 48.1875 22.15625 43.53125 
Q 18.109375 38.875 18.109375 30.90625 
L 18.109375 0 
L 9.078125 0 
L 9.078125 54.6875 
L 18.109375 54.6875 
L 18.109375 46.1875 
Q 21.1875 51.21875 25.484375 53.609375 
Q 29.78125 56 35.6875 56 
Q 41.65625 56 45.828125 52.96875 
Q 50 49.953125 52 44.1875 
z
" id="DejaVuSans-109"/>
       <path d="M 56.203125 29.59375 
L 56.203125 25.203125 
L 14.890625 25.203125 
Q 15.484375 15.921875 20.484375 11.0625 
Q 25.484375 6.203125 34.421875 6.203125 
Q 39.59375 6.203125 44.453125 7.46875 
Q 49.3125 8.734375 54.109375 11.28125 
L 54.109375 2.78125 
Q 49.265625 0.734375 44.1875 -0.34375 
Q 39.109375 -1.421875 33.890625 -1.421875 
Q 20.796875 -1.421875 13.15625 6.1875 
Q 5.515625 13.8125 5.515625 26.8125 
Q 5.515625 40.234375 12.765625 48.109375 
Q 20.015625 56 32.328125 56 
Q 43.359375 56 49.78125 48.890625 
Q 56.203125 41.796875 56.203125 29.59375 
z
M 47.21875 32.234375 
Q 47.125 39.59375 43.09375 43.984375 
Q 39.0625 48.390625 32.421875 48.390625 
Q 24.90625 48.390625 20.390625 44.140625 
Q 15.875 39.890625 15.1875 32.171875 
z
" id="DejaVuSans-101"/>
       <path d="M 41.109375 46.296875 
Q 39.59375 47.171875 37.8125 47.578125 
Q 36.03125 48 33.890625 48 
Q 26.265625 48 22.1875 43.046875 
Q 18.109375 38.09375 18.109375 28.8125 
L 18.109375 0 
L 9.078125 0 
L 9.078125 54.6875 
L 18.109375 54.6875 
L 18.109375 46.1875 
Q 20.953125 51.171875 25.484375 53.578125 
Q 30.03125 56 36.53125 56 
Q 37.453125 56 38.578125 55.875 
Q 39.703125 55.765625 41.0625 55.515625 
z
" id="DejaVuSans-114"/>
       <path d="M 30.609375 48.390625 
Q 23.390625 48.390625 19.1875 42.75 
Q 14.984375 37.109375 14.984375 27.296875 
Q 14.984375 17.484375 19.15625 11.84375 
Q 23.34375 6.203125 30.609375 6.203125 
Q 37.796875 6.203125 41.984375 11.859375 
Q 46.1875 17.53125 46.1875 27.296875 
Q 46.1875 37.015625 41.984375 42.703125 
Q 37.796875 48.390625 30.609375 48.390625 
z
M 30.609375 56 
Q 42.328125 56 49.015625 48.375 
Q 55.71875 40.765625 55.71875 27.296875 
Q 55.71875 13.875 49.015625 6.21875 
Q 42.328125 -1.421875 30.609375 -1.421875 
Q 18.84375 -1.421875 12.171875 6.21875 
Q 5.515625 13.875 5.515625 27.296875 
Q 5.515625 40.765625 12.171875 48.375 
Q 18.84375 56 30.609375 56 
z
" id="DejaVuSans-111"/>
       <path id="DejaVuSans-32"/>
       <path d="M 45.40625 46.390625 
L 45.40625 75.984375 
L 54.390625 75.984375 
L 54.390625 0 
L 45.40625 0 
L 45.40625 8.203125 
Q 42.578125 3.328125 38.25 0.953125 
Q 33.9375 -1.421875 27.875 -1.421875 
Q 17.96875 -1.421875 11.734375 6.484375 
Q 5.515625 14.40625 5.515625 27.296875 
Q 5.515625 40.1875 11.734375 48.09375 
Q 17.96875 56 27.875 56 
Q 33.9375 56 38.25 53.625 
Q 42.578125 51.265625 45.40625 46.390625 
z
M 14.796875 27.296875 
Q 14.796875 17.390625 18.875 11.75 
Q 22.953125 6.109375 30.078125 6.109375 
Q 37.203125 6.109375 41.296875 11.75 
Q 45.40625 17.390625 45.40625 27.296875 
Q 45.40625 37.203125 41.296875 42.84375 
Q 37.203125 48.484375 30.078125 48.484375 
Q 22.953125 48.484375 18.875 42.84375 
Q 14.796875 37.203125 14.796875 27.296875 
z
" id="DejaVuSans-100"/>
       <path d="M 18.3125 70.21875 
L 18.3125 54.6875 
L 36.8125 54.6875 
L 36.8125 47.703125 
L 18.3125 47.703125 
L 18.3125 18.015625 
Q 18.3125 11.328125 20.140625 9.421875 
Q 21.96875 7.515625 27.59375 7.515625 
L 36.8125 7.515625 
L 36.8125 0 
L 27.59375 0 
Q 17.1875 0 13.234375 3.875 
Q 9.28125 7.765625 9.28125 18.015625 
L 9.28125 47.703125 
L 2.6875 47.703125 
L 2.6875 54.6875 
L 9.28125 54.6875 
L 9.28125 70.21875 
z
" id="DejaVuSans-116"/>
       <path d="M 9.421875 54.6875 
L 18.40625 54.6875 
L 18.40625 0 
L 9.421875 0 
z
M 9.421875 75.984375 
L 18.40625 75.984375 
L 18.40625 64.59375 
L 9.421875 64.59375 
z
" id="DejaVuSans-105"/>
       <path d="M 34.28125 27.484375 
Q 23.390625 27.484375 19.1875 25 
Q 14.984375 22.515625 14.984375 16.5 
Q 14.984375 11.71875 18.140625 8.90625 
Q 21.296875 6.109375 26.703125 6.109375 
Q 34.1875 6.109375 38.703125 11.40625 
Q 43.21875 16.703125 43.21875 25.484375 
L 43.21875 27.484375 
z
M 52.203125 31.203125 
L 52.203125 0 
L 43.21875 0 
L 43.21875 8.296875 
Q 40.140625 3.328125 35.546875 0.953125 
Q 30.953125 -1.421875 24.3125 -1.421875 
Q 15.921875 -1.421875 10.953125 3.296875 
Q 6 8.015625 6 15.921875 
Q 6 25.140625 12.171875 29.828125 
Q 18.359375 34.515625 30.609375 34.515625 
L 43.21875 34.515625 
L 43.21875 35.40625 
Q 43.21875 41.609375 39.140625 45 
Q 35.0625 48.390625 27.6875 48.390625 
Q 23 48.390625 18.546875 47.265625 
Q 14.109375 46.140625 10.015625 43.890625 
L 10.015625 52.203125 
Q 14.9375 54.109375 19.578125 55.046875 
Q 24.21875 56 28.609375 56 
Q 40.484375 56 46.34375 49.84375 
Q 52.203125 43.703125 52.203125 31.203125 
z
" id="DejaVuSans-97"/>
      </defs>
      <use xlink:href="#DejaVuSans-78"/>
      <use x="74.804688" xlink:href="#DejaVuSans-117"/>
      <use x="138.183594" xlink:href="#DejaVuSans-109"/>
      <use x="235.595703" xlink:href="#DejaVuSans-101"/>
      <use x="297.119141" xlink:href="#DejaVuSans-114"/>
      <use x="335.982422" xlink:href="#DejaVuSans-111"/>
      <use x="397.164062" xlink:href="#DejaVuSans-32"/>
      <use x="428.951172" xlink:href="#DejaVuSans-100"/>
      <use x="492.427734" xlink:href="#DejaVuSans-101"/>
      <use x="553.951172" xlink:href="#DejaVuSans-32"/>
      <use x="585.738281" xlink:href="#DejaVuSans-116"/>
      <use x="624.947266" xlink:href="#DejaVuSans-105"/>
      <use x="652.730469" xlink:href="#DejaVuSans-114"/>
      <use x="693.84375" xlink:href="#DejaVuSans-97"/>
      <use x="755.123047" xlink:href="#DejaVuSans-100"/>
      <use x="818.599609" xlink:href="#DejaVuSans-97"/>
     </g>
    </g>
   </g>
   <g id="matplotlib.axis_2">
    <g id="ytick_1">
     <g id="line2d_10">
      <defs>
       <path d="M 0 0 
L -3.5 0 
" id="md61ce32735" style="stroke:#000000;stroke-width:0.8;"/>
      </defs>
      <g>
       <use style="stroke:#000000;stroke-width:0.8;" x="57.6" xlink:href="#md61ce32735" y="299.646184"/>
      </g>
     </g>
     <g id="text_11">
      <!-- 0 -->
      <g transform="translate(44.2375 303.445403)scale(0.1 -0.1)">
       <use xlink:href="#DejaVuSans-48"/>
      </g>
     </g>
    </g>
    <g id="ytick_2">
     <g id="line2d_11">
      <g>
       <use style="stroke:#000000;stroke-width:0.8;" x="57.6" xlink:href="#md61ce32735" y="260.418034"/>
      </g>
     </g>
     <g id="text_12">
      <!-- 100000 -->
      <g transform="translate(12.425 264.217253)scale(0.1 -0.1)">
       <use xlink:href="#DejaVuSans-49"/>
       <use x="63.623047" xlink:href="#DejaVuSans-48"/>
       <use x="127.246094" xlink:href="#DejaVuSans-48"/>
       <use x="190.869141" xlink:href="#DejaVuSans-48"/>
       <use x="254.492188" xlink:href="#DejaVuSans-48"/>
       <use x="318.115234" xlink:href="#DejaVuSans-48"/>
      </g>
     </g>
    </g>
    <g id="ytick_3">
     <g id="line2d_12">
      <g>
       <use style="stroke:#000000;stroke-width:0.8;" x="57.6" xlink:href="#md61ce32735" y="221.189884"/>
      </g>
     </g>
     <g id="text_13">
      <!-- 200000 -->
      <g transform="translate(12.425 224.989103)scale(0.1 -0.1)">
       <use xlink:href="#DejaVuSans-50"/>
       <use x="63.623047" xlink:href="#DejaVuSans-48"/>
       <use x="127.246094" xlink:href="#DejaVuSans-48"/>
       <use x="190.869141" xlink:href="#DejaVuSans-48"/>
       <use x="254.492188" xlink:href="#DejaVuSans-48"/>
       <use x="318.115234" xlink:href="#DejaVuSans-48"/>
      </g>
     </g>
    </g>
    <g id="ytick_4">
     <g id="line2d_13">
      <g>
       <use style="stroke:#000000;stroke-width:0.8;" x="57.6" xlink:href="#md61ce32735" y="181.961734"/>
      </g>
     </g>
     <g id="text_14">
      <!-- 300000 -->
      <g transform="translate(12.425 185.760953)scale(0.1 -0.1)">
       <defs>
        <path d="M 40.578125 39.3125 
Q 47.65625 37.796875 51.625 33 
Q 55.609375 28.21875 55.609375 21.1875 
Q 55.609375 10.40625 48.1875 4.484375 
Q 40.765625 -1.421875 27.09375 -1.421875 
Q 22.515625 -1.421875 17.65625 -0.515625 
Q 12.796875 0.390625 7.625 2.203125 
L 7.625 11.71875 
Q 11.71875 9.328125 16.59375 8.109375 
Q 21.484375 6.890625 26.8125 6.890625 
Q 36.078125 6.890625 40.9375 10.546875 
Q 45.796875 14.203125 45.796875 21.1875 
Q 45.796875 27.640625 41.28125 31.265625 
Q 36.765625 34.90625 28.71875 34.90625 
L 20.21875 34.90625 
L 20.21875 43.015625 
L 29.109375 43.015625 
Q 36.375 43.015625 40.234375 45.921875 
Q 44.09375 48.828125 44.09375 54.296875 
Q 44.09375 59.90625 40.109375 62.90625 
Q 36.140625 65.921875 28.71875 65.921875 
Q 24.65625 65.921875 20.015625 65.03125 
Q 15.375 64.15625 9.8125 62.3125 
L 9.8125 71.09375 
Q 15.4375 72.65625 20.34375 73.4375 
Q 25.25 74.21875 29.59375 74.21875 
Q 40.828125 74.21875 47.359375 69.109375 
Q 53.90625 64.015625 53.90625 55.328125 
Q 53.90625 49.265625 50.4375 45.09375 
Q 46.96875 40.921875 40.578125 39.3125 
z
" id="DejaVuSans-51"/>
       </defs>
       <use xlink:href="#DejaVuSans-51"/>
       <use x="63.623047" xlink:href="#DejaVuSans-48"/>
       <use x="127.246094" xlink:href="#DejaVuSans-48"/>
       <use x="190.869141" xlink:href="#DejaVuSans-48"/>
       <use x="254.492188" xlink:href="#DejaVuSans-48"/>
       <use x="318.115234" xlink:href="#DejaVuSans-48"/>
      </g>
     </g>
    </g>
    <g id="ytick_5">
     <g id="line2d_14">
      <g>
       <use style="stroke:#000000;stroke-width:0.8;" x="57.6" xlink:href="#md61ce32735" y="142.733585"/>
      </g>
     </g>
     <g id="text_15">
      <!-- 400000 -->
      <g transform="translate(12.425 146.532803)scale(0.1 -0.1)">
       <defs>
        <path d="M 37.796875 64.3125 
L 12.890625 25.390625 
L 37.796875 25.390625 
z
M 35.203125 72.90625 
L 47.609375 72.90625 
L 47.609375 25.390625 
L 58.015625 25.390625 
L 58.015625 17.1875 
L 47.609375 17.1875 
L 47.609375 0 
L 37.796875 0 
L 37.796875 17.1875 
L 4.890625 17.1875 
L 4.890625 26.703125 
z
" id="DejaVuSans-52"/>
       </defs>
       <use xlink:href="#DejaVuSans-52"/>
       <use x="63.623047" xlink:href="#DejaVuSans-48"/>
       <use x="127.246094" xlink:href="#DejaVuSans-48"/>
       <use x="190.869141" xlink:href="#DejaVuSans-48"/>
       <use x="254.492188" xlink:href="#DejaVuSans-48"/>
       <use x="318.115234" xlink:href="#DejaVuSans-48"/>
      </g>
     </g>
    </g>
    <g id="ytick_6">
     <g id="line2d_15">
      <g>
       <use style="stroke:#000000;stroke-width:0.8;" x="57.6" xlink:href="#md61ce32735" y="103.505435"/>
      </g>
     </g>
     <g id="text_16">
      <!-- 500000 -->
      <g transform="translate(12.425 107.304653)scale(0.1 -0.1)">
       <use xlink:href="#DejaVuSans-53"/>
       <use x="63.623047" xlink:href="#DejaVuSans-48"/>
       <use x="127.246094" xlink:href="#DejaVuSans-48"/>
       <use x="190.869141" xlink:href="#DejaVuSans-48"/>
       <use x="254.492188" xlink:href="#DejaVuSans-48"/>
       <use x="318.115234" xlink:href="#DejaVuSans-48"/>
      </g>
     </g>
    </g>
    <g id="ytick_7">
     <g id="line2d_16">
      <g>
       <use style="stroke:#000000;stroke-width:0.8;" x="57.6" xlink:href="#md61ce32735" y="64.277285"/>
      </g>
     </g>
     <g id="text_17">
      <!-- 600000 -->
      <g transform="translate(12.425 68.076504)scale(0.1 -0.1)">
       <defs>
        <path d="M 33.015625 40.375 
Q 26.375 40.375 22.484375 35.828125 
Q 18.609375 31.296875 18.609375 23.390625 
Q 18.609375 15.53125 22.484375 10.953125 
Q 26.375 6.390625 33.015625 6.390625 
Q 39.65625 6.390625 43.53125 10.953125 
Q 47.40625 15.53125 47.40625 23.390625 
Q 47.40625 31.296875 43.53125 35.828125 
Q 39.65625 40.375 33.015625 40.375 
z
M 52.59375 71.296875 
L 52.59375 62.3125 
Q 48.875 64.0625 45.09375 64.984375 
Q 41.3125 65.921875 37.59375 65.921875 
Q 27.828125 65.921875 22.671875 59.328125 
Q 17.53125 52.734375 16.796875 39.40625 
Q 19.671875 43.65625 24.015625 45.921875 
Q 28.375 48.1875 33.59375 48.1875 
Q 44.578125 48.1875 50.953125 41.515625 
Q 57.328125 34.859375 57.328125 23.390625 
Q 57.328125 12.15625 50.6875 5.359375 
Q 44.046875 -1.421875 33.015625 -1.421875 
Q 20.359375 -1.421875 13.671875 8.265625 
Q 6.984375 17.96875 6.984375 36.375 
Q 6.984375 53.65625 15.1875 63.9375 
Q 23.390625 74.21875 37.203125 74.21875 
Q 40.921875 74.21875 44.703125 73.484375 
Q 48.484375 72.75 52.59375 71.296875 
z
" id="DejaVuSans-54"/>
       </defs>
       <use xlink:href="#DejaVuSans-54"/>
       <use x="63.623047" xlink:href="#DejaVuSans-48"/>
       <use x="127.246094" xlink:href="#DejaVuSans-48"/>
       <use x="190.869141" xlink:href="#DejaVuSans-48"/>
       <use x="254.492188" xlink:href="#DejaVuSans-48"/>
       <use x="318.115234" xlink:href="#DejaVuSans-48"/>
      </g>
     </g>
    </g>
    <g id="text_18">
     <!-- Fondo en $ -->
     <g transform="translate(6.345312 202.288938)rotate(-90)scale(0.1 -0.1)">
      <defs>
       <path d="M 9.8125 72.90625 
L 51.703125 72.90625 
L 51.703125 64.59375 
L 19.671875 64.59375 
L 19.671875 43.109375 
L 48.578125 43.109375 
L 48.578125 34.8125 
L 19.671875 34.8125 
L 19.671875 0 
L 9.8125 0 
z
" id="DejaVuSans-70"/>
       <path d="M 54.890625 33.015625 
L 54.890625 0 
L 45.90625 0 
L 45.90625 32.71875 
Q 45.90625 40.484375 42.875 44.328125 
Q 39.84375 48.1875 33.796875 48.1875 
Q 26.515625 48.1875 22.3125 43.546875 
Q 18.109375 38.921875 18.109375 30.90625 
L 18.109375 0 
L 9.078125 0 
L 9.078125 54.6875 
L 18.109375 54.6875 
L 18.109375 46.1875 
Q 21.34375 51.125 25.703125 53.5625 
Q 30.078125 56 35.796875 56 
Q 45.21875 56 50.046875 50.171875 
Q 54.890625 44.34375 54.890625 33.015625 
z
" id="DejaVuSans-110"/>
       <path d="M 33.796875 -14.703125 
L 28.90625 -14.703125 
L 28.859375 0 
Q 23.734375 0.09375 18.609375 1.1875 
Q 13.484375 2.296875 8.296875 4.5 
L 8.296875 13.28125 
Q 13.28125 10.15625 18.375 8.5625 
Q 23.484375 6.984375 28.90625 6.9375 
L 28.90625 29.203125 
Q 18.109375 30.953125 13.203125 35.15625 
Q 8.296875 39.359375 8.296875 46.6875 
Q 8.296875 54.640625 13.625 59.21875 
Q 18.953125 63.8125 28.90625 64.5 
L 28.90625 75.984375 
L 33.796875 75.984375 
L 33.796875 64.65625 
Q 38.328125 64.453125 42.578125 63.6875 
Q 46.828125 62.9375 50.875 61.625 
L 50.875 53.078125 
Q 46.828125 55.125 42.546875 56.25 
Q 38.28125 57.375 33.796875 57.5625 
L 33.796875 36.71875 
Q 44.875 35.015625 50.09375 30.609375 
Q 55.328125 26.21875 55.328125 18.609375 
Q 55.328125 10.359375 49.78125 5.59375 
Q 44.234375 0.828125 33.796875 0.09375 
z
M 28.90625 37.59375 
L 28.90625 57.625 
Q 23.25 56.984375 20.265625 54.390625 
Q 17.28125 51.8125 17.28125 47.515625 
Q 17.28125 43.3125 20.03125 40.96875 
Q 22.796875 38.625 28.90625 37.59375 
z
M 33.796875 28.21875 
L 33.796875 7.078125 
Q 39.984375 7.90625 43.140625 10.59375 
Q 46.296875 13.28125 46.296875 17.671875 
Q 46.296875 21.96875 43.28125 24.5 
Q 40.28125 27.046875 33.796875 28.21875 
z
" id="DejaVuSans-36"/>
      </defs>
      <use xlink:href="#DejaVuSans-70"/>
      <use x="53.894531" xlink:href="#DejaVuSans-111"/>
      <use x="115.076172" xlink:href="#DejaVuSans-110"/>
      <use x="178.455078" xlink:href="#DejaVuSans-100"/>
      <use x="241.931641" xlink:href="#DejaVuSans-111"/>
      <use x="303.113281" xlink:href="#DejaVuSans-32"/>
      <use x="334.900391" xlink:href="#DejaVuSans-101"/>
      <use x="396.423828" xlink:href="#DejaVuSans-110"/>
      <use x="459.802734" xlink:href="#DejaVuSans-32"/>
      <use x="491.589844" xlink:href="#DejaVuSans-36"/>
     </g>
    </g>
   </g>
   <g id="line2d_17">
    <path clip-path="url(#p4474f311c6)" d="M 73.832727 240.843187 
L 75.464157 240.882415 
L 80.358447 240.725503 
L 83.621307 240.803959 
L 85.252736 240.725503 
L 86.884166 240.764731 
L 91.778456 240.607818 
L 99.935605 240.490134 
L 103.198465 240.56859 
L 104.829895 240.490134 
L 108.092755 240.607818 
L 111.355614 240.921644 
L 112.987044 240.607818 
L 114.618474 240.411678 
L 116.249904 240.529362 
L 119.512764 240.215537 
L 122.775624 240.097852 
L 126.038483 240.176309 
L 130.932773 240.019396 
L 135.827063 239.980168 
L 139.089922 239.980168 
L 145.615642 239.901712 
L 150.509931 239.94094 
L 160.298511 239.784027 
L 165.1928 239.94094 
L 168.45566 239.744799 
L 178.244239 239.587886 
L 181.507099 239.587886 
L 188.032819 239.50943 
L 191.295678 239.627115 
L 192.927108 239.744799 
L 196.189968 239.430974 
L 199.452828 239.627115 
L 201.084258 239.823255 
L 202.715688 239.50943 
L 204.347117 239.705571 
L 205.978547 240.019396 
L 207.609977 239.50943 
L 209.241407 239.823255 
L 210.872837 240.333221 
L 212.504267 241.157012 
L 214.135697 242.49077 
L 215.767127 244.648318 
L 217.398556 248.139623 
L 219.029986 242.49077 
L 220.661416 245.982075 
L 222.292846 240.333221 
L 223.924276 236.841916 
L 225.555706 234.684368 
L 227.187136 233.350611 
L 228.818566 232.52682 
L 230.449995 233.036785 
L 232.081425 232.212994 
L 233.712855 231.703028 
L 235.344285 232.016854 
L 236.975715 231.506888 
L 238.607145 231.820713 
L 240.238575 231.310747 
L 241.870005 231.624572 
L 243.501434 231.114606 
L 245.132864 230.800781 
L 248.395724 230.486956 
L 250.027154 230.565412 
L 251.658584 230.447728 
L 253.290014 230.526184 
L 254.921444 230.408499 
L 258.184303 230.60464 
L 261.447163 230.290815 
L 263.078593 230.212359 
L 264.710023 230.251587 
L 267.972883 230.133902 
L 271.235742 230.133902 
L 276.130032 230.094674 
L 281.024322 230.133902 
L 284.287181 230.133902 
L 287.550041 230.251587 
L 290.812901 230.565412 
L 292.444331 230.879237 
L 294.075761 230.369271 
L 295.70719 230.055446 
L 298.97005 229.741621 
L 302.23291 229.623936 
L 307.1272 229.780849 
L 310.390059 230.094674 
L 312.021489 230.408499 
L 313.652919 229.898533 
L 315.284349 230.212359 
L 316.915779 230.722325 
L 318.547209 231.546116 
L 320.178639 230.212359 
L 321.810069 229.388568 
L 323.441498 228.878602 
L 325.072928 228.564776 
L 326.704358 228.760917 
L 328.335788 228.447092 
L 329.967218 228.643233 
L 331.598648 228.329407 
L 333.230078 228.525548 
L 334.861508 228.839373 
L 336.492937 229.349339 
L 338.124367 228.525548 
L 339.755797 228.015582 
L 341.387227 227.701757 
L 343.018657 227.897898 
L 344.650087 228.211723 
L 346.281517 228.721689 
L 347.912947 229.54548 
L 349.544376 230.879237 
L 351.175806 233.036785 
L 352.807236 236.528091 
L 354.438666 242.176944 
L 356.070096 251.317103 
L 357.701526 266.106116 
L 359.332956 290.035287 
L 398.487273 290.035287 
L 398.487273 290.035287 
" style="fill:none;stroke:#1f77b4;stroke-linecap:square;stroke-width:1.5;"/>
   </g>
   <g id="line2d_18">
    <path clip-path="url(#p4474f311c6)" d="M 73.832727 240.843187 
L 77.095587 240.960872 
L 80.358447 241.274697 
L 81.989877 240.960872 
L 83.621307 241.157012 
L 85.252736 241.470838 
L 86.884166 241.980804 
L 88.515596 242.804595 
L 90.147026 244.138352 
L 91.778456 246.2959 
L 93.409886 242.804595 
L 95.041316 244.962143 
L 96.672746 248.453448 
L 98.304175 242.804595 
L 99.935605 246.2959 
L 101.567035 240.647047 
L 103.198465 244.138352 
L 104.829895 238.489498 
L 106.461325 241.980804 
L 108.092755 247.629657 
L 109.724185 256.769816 
L 111.355614 271.558829 
L 112.987044 295.488 
L 398.487273 295.488 
L 398.487273 295.488 
" style="fill:none;stroke:#ff7f0e;stroke-linecap:square;stroke-width:1.5;"/>
   </g>
   <g id="line2d_19">
    <path clip-path="url(#p4474f311c6)" d="M 73.832727 240.843187 
L 77.095587 240.960872 
L 78.727017 241.078556 
L 80.358447 240.882415 
L 83.621307 241.196241 
L 85.252736 240.882415 
L 86.884166 241.078556 
L 88.515596 240.764731 
L 90.147026 240.56859 
L 93.409886 240.882415 
L 95.041316 240.56859 
L 96.672746 240.372449 
L 98.304175 240.490134 
L 101.567035 240.176309 
L 103.198465 240.254765 
L 106.461325 240.058624 
L 109.724185 240.058624 
L 111.355614 240.097852 
L 112.987044 240.019396 
L 116.249904 240.137081 
L 117.881334 240.254765 
L 119.512764 240.058624 
L 121.144194 240.176309 
L 122.775624 239.980168 
L 126.038483 240.293993 
L 127.669913 240.607818 
L 129.301343 241.117784 
L 130.932773 241.941575 
L 132.564203 243.275333 
L 134.195633 241.117784 
L 135.827063 242.451541 
L 137.458492 240.293993 
L 139.089922 241.62775 
L 140.721352 239.470202 
L 142.352782 238.136445 
L 143.984212 238.960236 
L 145.615642 237.626479 
L 147.247072 236.802688 
L 148.878502 236.292722 
L 150.509931 235.978897 
L 152.141361 235.782756 
L 153.772791 235.90044 
L 157.035651 235.586615 
L 160.298511 235.468931 
L 163.56137 235.468931 
L 171.71852 235.351246 
L 176.61281 235.508159 
L 178.244239 235.625843 
L 181.507099 235.312018 
L 184.769959 235.508159 
L 188.032819 235.194334 
L 192.927108 235.037421 
L 197.821398 235.194334 
L 201.084258 234.998193 
L 205.978547 234.958965 
L 210.872837 235.115877 
L 214.135697 234.919737 
L 217.398556 234.919737 
L 220.661416 235.037421 
L 222.292846 235.155106 
L 225.555706 234.84128 
L 227.187136 234.919737 
L 228.818566 234.802052 
L 230.449995 234.880509 
L 233.712855 234.684368 
L 240.238575 234.605911 
L 243.501434 234.723596 
L 245.132864 234.84128 
L 246.764294 234.64514 
L 250.027154 234.958965 
L 251.658584 234.64514 
L 253.290014 234.448999 
L 256.552873 234.762824 
L 258.184303 235.076649 
L 259.815733 235.586615 
L 261.447163 236.410406 
L 263.078593 237.744163 
L 264.710023 235.586615 
L 266.341453 236.920372 
L 267.972883 234.762824 
L 269.604312 236.096581 
L 271.235742 233.939033 
L 272.867172 235.27279 
L 274.498602 233.115242 
L 276.130032 231.781485 
L 277.761462 232.605276 
L 279.392892 233.939033 
L 281.024322 236.096581 
L 282.655751 232.605276 
L 284.287181 230.447728 
L 285.918611 229.11397 
L 287.550041 229.937762 
L 289.181471 231.271519 
L 290.812901 233.429067 
L 292.444331 229.937762 
L 294.075761 232.09531 
L 295.70719 228.604005 
L 297.33862 230.761553 
L 298.97005 234.252858 
L 300.60148 228.604005 
L 302.23291 225.112699 
L 303.86434 227.270247 
L 305.49577 223.778942 
L 307.1272 221.621394 
L 308.75863 222.955151 
L 310.390059 220.797603 
L 312.021489 222.13136 
L 313.652919 224.288908 
L 315.284349 220.797603 
L 316.915779 222.955151 
L 318.547209 219.463846 
L 320.178639 221.621394 
L 321.810069 225.112699 
L 323.441498 219.463846 
L 325.072928 222.955151 
L 326.704358 217.306297 
L 328.335788 213.814992 
L 329.967218 211.657444 
L 331.598648 212.991201 
L 333.230078 215.148749 
L 334.861508 211.657444 
L 336.492937 213.814992 
L 338.124367 217.306297 
L 339.755797 211.657444 
L 341.387227 215.148749 
L 343.018657 209.499896 
L 344.650087 206.00859 
L 346.281517 208.166138 
L 347.912947 204.674833 
L 349.544376 206.832381 
L 351.175806 210.323687 
L 352.807236 204.674833 
L 354.438666 201.183528 
L 356.070096 203.341076 
L 357.701526 206.832381 
L 359.332956 201.183528 
L 360.964386 197.692222 
L 362.595815 195.534674 
L 364.227245 196.868431 
L 365.858675 194.710883 
L 367.490105 193.377126 
L 369.121535 194.200917 
L 370.752965 195.534674 
L 372.384395 197.692222 
L 374.015825 194.200917 
L 375.647254 196.358465 
L 377.278684 199.849771 
L 378.910114 205.498624 
L 380.541544 196.358465 
L 382.172974 190.709612 
L 383.804404 194.200917 
L 385.435834 199.849771 
L 387.067264 208.98993 
L 388.698693 223.778942 
L 390.330123 247.708114 
L 391.961553 208.98993 
L 393.592983 232.919101 
L 395.224413 271.637285 
L 398.487273 271.637285 
L 398.487273 271.637285 
" style="fill:none;stroke:#2ca02c;stroke-linecap:square;stroke-width:1.5;"/>
   </g>
   <g id="line2d_20">
    <path clip-path="url(#p4474f311c6)" d="M 73.832727 240.843187 
L 77.095587 240.843187 
L 78.727017 240.882415 
L 80.358447 240.803959 
L 81.989877 240.843187 
L 83.621307 240.764731 
L 85.252736 240.803959 
L 90.147026 240.647047 
L 96.672746 240.725503 
L 101.567035 240.56859 
L 104.829895 240.56859 
L 108.092755 240.686275 
L 109.724185 240.56859 
L 112.987044 240.764731 
L 116.249904 240.450906 
L 117.881334 240.372449 
L 121.144194 240.490134 
L 124.407053 240.293993 
L 127.669913 240.411678 
L 129.301343 240.293993 
L 132.564203 240.490134 
L 134.195633 240.293993 
L 137.458492 240.607818 
L 139.089922 240.293993 
L 140.721352 240.490134 
L 142.352782 240.803959 
L 143.984212 240.293993 
L 145.615642 239.980168 
L 148.878502 239.666343 
L 150.509931 239.587886 
L 152.141361 239.627115 
L 155.404221 239.50943 
L 158.667081 239.50943 
L 165.1928 239.430974 
L 168.45566 239.430974 
L 178.244239 239.274061 
L 181.507099 239.274061 
L 188.032819 239.195605 
L 192.927108 239.352518 
L 196.189968 239.156377 
L 202.715688 239.077921 
L 205.978547 239.195605 
L 209.241407 239.50943 
L 210.872837 239.823255 
L 212.504267 239.313289 
L 214.135697 238.999464 
L 215.767127 238.803323 
L 217.398556 238.921008 
L 219.029986 238.724867 
L 220.661416 238.842552 
L 223.924276 238.528726 
L 225.555706 238.607183 
L 227.187136 238.489498 
L 230.449995 238.685639 
L 233.712855 238.371814 
L 236.975715 238.567955 
L 240.238575 238.254129 
L 241.870005 238.175673 
L 245.132864 238.293358 
L 248.395724 238.097217 
L 258.184303 237.940304 
L 267.972883 238.214901 
L 269.604312 238.411042 
L 271.235742 238.724867 
L 272.867172 239.234833 
L 274.498602 240.058624 
L 276.130032 238.724867 
L 277.761462 237.901076 
L 279.392892 238.411042 
L 281.024322 239.234833 
L 282.655751 237.901076 
L 284.287181 237.077285 
L 285.918611 236.567319 
L 287.550041 236.253494 
L 289.181471 236.449635 
L 290.812901 236.135809 
L 294.075761 235.821984 
L 297.33862 236.018125 
L 298.97005 235.821984 
L 302.23291 236.135809 
L 303.86434 236.449635 
L 305.49577 236.9596 
L 307.1272 236.135809 
L 308.75863 236.645775 
L 310.390059 235.821984 
L 312.021489 236.33195 
L 313.652919 235.508159 
L 315.284349 236.018125 
L 316.915779 235.194334 
L 318.547209 234.684368 
L 320.178639 234.998193 
L 321.810069 235.508159 
L 323.441498 234.684368 
L 325.072928 234.174402 
L 326.704358 234.488227 
L 328.335788 233.978261 
L 329.967218 234.292086 
L 331.598648 234.802052 
L 333.230078 235.625843 
L 334.861508 236.9596 
L 336.492937 239.117149 
L 338.124367 242.608454 
L 339.755797 236.9596 
L 341.387227 240.450906 
L 343.018657 246.099759 
L 344.650087 255.239918 
L 346.281517 240.450906 
L 347.912947 249.591065 
L 349.544376 234.802052 
L 351.175806 243.942211 
L 352.807236 229.153199 
L 354.438666 238.293358 
L 356.070096 253.08237 
L 357.701526 229.153199 
L 359.332956 243.942211 
L 360.964386 267.871383 
L 398.487273 267.871383 
L 398.487273 267.871383 
" style="fill:none;stroke:#d62728;stroke-linecap:square;stroke-width:1.5;"/>
   </g>
   <g id="line2d_21">
    <path clip-path="url(#p4474f311c6)" d="M 73.832727 240.843187 
L 81.989877 240.725503 
L 88.515596 240.803959 
L 90.147026 240.725503 
L 93.409886 240.843187 
L 95.041316 240.960872 
L 96.672746 240.764731 
L 98.304175 240.882415 
L 99.935605 240.686275 
L 103.198465 241.0001 
L 104.829895 241.313925 
L 106.461325 241.823891 
L 108.092755 242.647682 
L 109.724185 243.981439 
L 111.355614 246.138988 
L 112.987044 242.647682 
L 114.618474 240.490134 
L 116.249904 239.156377 
L 117.881334 239.980168 
L 119.512764 238.646411 
L 121.144194 237.82262 
L 122.775624 238.332586 
L 124.407053 237.508795 
L 126.038483 236.998829 
L 127.669913 236.685003 
L 129.301343 236.488863 
L 130.932773 236.606547 
L 132.564203 236.410406 
L 135.827063 236.724232 
L 137.458492 237.038057 
L 139.089922 237.548023 
L 140.721352 236.724232 
L 142.352782 236.214266 
L 143.984212 235.90044 
L 145.615642 235.7043 
L 147.247072 235.821984 
L 148.878502 235.625843 
L 150.509931 235.743528 
L 152.141361 235.547387 
L 155.404221 235.861212 
L 157.035651 236.175037 
L 158.667081 236.685003 
L 160.298511 237.508795 
L 161.929941 236.175037 
L 163.56137 235.351246 
L 165.1928 235.861212 
L 166.82423 235.037421 
L 168.45566 234.527455 
L 170.08709 234.21363 
L 171.71852 234.409771 
L 173.34995 234.723596 
L 174.98138 234.21363 
L 176.61281 233.899805 
L 178.244239 234.095946 
L 179.875669 234.409771 
L 181.507099 234.919737 
L 183.138529 235.743528 
L 184.769959 237.077285 
L 186.401389 239.234833 
L 188.032819 235.743528 
L 189.664249 237.901076 
L 191.295678 234.409771 
L 192.927108 232.252222 
L 194.558538 233.58598 
L 196.189968 231.428431 
L 197.821398 230.094674 
L 199.452828 230.918465 
L 201.084258 229.584708 
L 202.715688 228.760917 
L 204.347117 228.250951 
L 205.978547 227.937126 
L 209.241407 227.623301 
L 212.504267 227.819442 
L 214.135697 228.015582 
L 215.767127 227.701757 
L 217.398556 227.897898 
L 219.029986 227.584073 
L 220.661416 227.780213 
L 222.292846 228.094039 
L 223.924276 228.604005 
L 225.555706 227.780213 
L 227.187136 228.290179 
L 228.818566 227.466388 
L 230.449995 226.956422 
L 232.081425 227.270247 
L 233.712855 227.780213 
L 235.344285 226.956422 
L 236.975715 226.446456 
L 238.607145 226.760281 
L 240.238575 226.250316 
L 241.870005 225.93649 
L 245.132864 225.622665 
L 248.395724 225.818806 
L 250.027154 225.622665 
L 251.658584 225.74035 
L 253.290014 225.544209 
L 256.552873 225.858034 
L 258.184303 225.544209 
L 259.815733 225.348068 
L 263.078593 225.661893 
L 264.710023 225.348068 
L 266.341453 225.544209 
L 267.972883 225.858034 
L 269.604312 225.348068 
L 271.235742 225.034243 
L 272.867172 224.838102 
L 276.130032 225.151927 
L 277.761462 225.465753 
L 279.392892 224.955787 
L 281.024322 224.641961 
L 282.655751 224.445821 
L 284.287181 224.563505 
L 287.550041 224.24968 
L 290.812901 224.445821 
L 292.444331 224.24968 
L 294.075761 224.367364 
L 295.70719 224.171224 
L 297.33862 224.288908 
L 298.97005 224.092767 
L 302.23291 224.406593 
L 303.86434 224.092767 
L 307.1272 223.778942 
L 312.021489 223.62203 
L 323.441498 223.425889 
L 333.230078 223.700486 
L 334.861508 223.896627 
L 336.492937 223.582801 
L 338.124367 223.386661 
L 341.387227 223.700486 
L 343.018657 224.014311 
L 344.650087 223.504345 
L 346.281517 223.81817 
L 347.912947 224.328136 
L 349.544376 225.151927 
L 351.175806 226.485684 
L 352.807236 228.643233 
L 354.438666 232.134538 
L 356.070096 226.485684 
L 357.701526 222.994379 
L 359.332956 220.836831 
L 360.964386 222.170588 
L 362.595815 220.01304 
L 364.227245 221.346797 
L 365.858675 223.504345 
L 367.490105 226.99565 
L 369.121535 221.346797 
L 370.752965 217.855491 
L 372.384395 215.697943 
L 374.015825 217.0317 
L 375.647254 219.189249 
L 377.278684 222.680554 
L 378.910114 228.329407 
L 380.541544 219.189249 
L 382.172974 224.838102 
L 383.804404 215.697943 
L 385.435834 221.346797 
L 387.067264 212.206638 
L 388.698693 206.557784 
L 390.330123 210.04909 
L 391.961553 215.697943 
L 393.592983 224.838102 
L 395.224413 239.627115 
L 396.855843 215.697943 
L 398.487273 230.486956 
L 398.487273 230.486956 
" style="fill:none;stroke:#9467bd;stroke-linecap:square;stroke-width:1.5;"/>
   </g>
   <g id="line2d_22">
    <path clip-path="url(#p4474f311c6)" d="M 73.832727 240.764731 
L 77.095587 240.843187 
L 81.989877 240.686275 
L 88.515596 240.607818 
L 93.409886 240.764731 
L 95.041316 240.882415 
L 96.672746 240.686275 
L 98.304175 240.803959 
L 101.567035 240.490134 
L 104.829895 240.686275 
L 108.092755 240.372449 
L 112.987044 240.215537 
L 116.249904 240.293993 
L 117.881334 240.215537 
L 119.512764 240.254765 
L 124.407053 240.097852 
L 127.669913 240.097852 
L 130.932773 240.097852 
L 132.564203 240.137081 
L 134.195633 240.058624 
L 135.827063 240.097852 
L 137.458492 240.019396 
L 140.721352 240.137081 
L 143.984212 239.94094 
L 147.247072 239.94094 
L 148.878502 239.980168 
L 150.509931 239.901712 
L 152.141361 239.94094 
L 153.772791 239.862484 
L 157.035651 239.980168 
L 158.667081 239.862484 
L 160.298511 239.94094 
L 163.56137 239.744799 
L 165.1928 239.784027 
L 166.82423 239.705571 
L 170.08709 239.823255 
L 173.34995 240.137081 
L 174.98138 240.450906 
L 176.61281 240.960872 
L 178.244239 241.784663 
L 179.875669 240.450906 
L 181.507099 241.274697 
L 183.138529 242.608454 
L 184.769959 240.450906 
L 186.401389 241.784663 
L 188.032819 243.942211 
L 189.664249 247.433516 
L 191.295678 253.08237 
L 192.927108 243.942211 
L 194.558538 249.591065 
L 196.189968 240.450906 
L 197.821398 246.099759 
L 199.452828 255.239918 
L 201.084258 270.028931 
L 202.715688 293.958102 
L 398.487273 293.958102 
L 398.487273 293.958102 
" style="fill:none;stroke:#8c564b;stroke-linecap:square;stroke-width:1.5;"/>
   </g>
   <g id="line2d_23">
    <path clip-path="url(#p4474f311c6)" d="M 73.832727 240.764731 
L 78.727017 240.725503 
L 80.358447 240.764731 
L 85.252736 240.607818 
L 90.147026 240.764731 
L 91.778456 240.647047 
L 93.409886 240.725503 
L 95.041316 240.607818 
L 98.304175 240.803959 
L 101.567035 240.490134 
L 103.198465 240.411678 
L 104.829895 240.450906 
L 106.461325 240.372449 
L 109.724185 240.490134 
L 112.987044 240.803959 
L 114.618474 240.490134 
L 116.249904 240.686275 
L 117.881334 241.0001 
L 119.512764 240.490134 
L 121.144194 240.803959 
L 122.775624 241.313925 
L 124.407053 242.137716 
L 126.038483 240.803959 
L 127.669913 239.980168 
L 129.301343 240.490134 
L 130.932773 239.666343 
L 132.564203 239.156377 
L 134.195633 238.842552 
L 137.458492 238.528726 
L 139.089922 238.607183 
L 140.721352 238.489498 
L 142.352782 238.567955 
L 143.984212 238.45027 
L 145.615642 238.528726 
L 148.878502 238.332586 
L 153.772791 238.293358 
L 157.035651 238.371814 
L 161.929941 238.214901 
L 165.1928 238.214901 
L 168.45566 238.332586 
L 171.71852 238.136445 
L 173.34995 238.175673 
L 178.244239 238.01876 
L 181.507099 238.01876 
L 184.769959 238.01876 
L 188.032819 238.136445 
L 191.295678 237.940304 
L 194.558538 238.057989 
L 197.821398 237.861848 
L 201.084258 237.979532 
L 204.347117 237.783392 
L 207.609977 237.901076 
L 209.241407 238.01876 
L 212.504267 237.704935 
L 215.767127 237.587251 
L 220.661416 237.626479 
L 227.187136 237.548023 
L 230.449995 237.626479 
L 233.712855 237.508795 
L 236.975715 237.508795 
L 240.238575 237.508795 
L 243.501434 237.626479 
L 246.764294 237.940304 
L 248.395724 237.626479 
L 250.027154 237.430338 
L 251.658584 237.548023 
L 253.290014 237.351882 
L 256.552873 237.665707 
L 258.184303 237.979532 
L 259.815733 237.469566 
L 261.447163 237.155741 
L 263.078593 237.351882 
L 264.710023 237.038057 
L 266.341453 237.234198 
L 267.972883 237.548023 
L 269.604312 238.057989 
L 271.235742 238.88178 
L 272.867172 240.215537 
L 274.498602 242.373085 
L 276.130032 245.86439 
L 277.761462 251.513244 
L 279.392892 242.373085 
L 281.024322 236.724232 
L 282.655751 233.232926 
L 284.287181 235.390474 
L 285.918611 238.88178 
L 287.550041 233.232926 
L 289.181471 229.741621 
L 290.812901 231.899169 
L 292.444331 235.390474 
L 294.075761 229.741621 
L 295.70719 233.232926 
L 297.33862 227.584073 
L 298.97005 231.075378 
L 300.60148 236.724232 
L 302.23291 227.584073 
L 303.86434 221.935219 
L 305.49577 218.443914 
L 307.1272 216.286365 
L 308.75863 217.620123 
L 310.390059 215.462574 
L 312.021489 214.128817 
L 313.652919 214.952608 
L 315.284349 216.286365 
L 316.915779 218.443914 
L 318.547209 221.935219 
L 320.178639 227.584073 
L 321.810069 236.724232 
L 323.441498 221.935219 
L 325.072928 212.79506 
L 326.704358 218.443914 
L 328.335788 227.584073 
L 329.967218 242.373085 
L 331.598648 218.443914 
L 333.230078 233.232926 
L 334.861508 209.303755 
L 336.492937 194.514742 
L 338.124367 185.374583 
L 339.755797 179.72573 
L 341.387227 183.217035 
L 343.018657 188.865889 
L 344.650087 198.006048 
L 346.281517 212.79506 
L 347.912947 236.724232 
L 349.544376 275.442415 
L 398.487273 275.442415 
L 398.487273 275.442415 
" style="fill:none;stroke:#e377c2;stroke-linecap:square;stroke-width:1.5;"/>
   </g>
   <g id="line2d_24">
    <path clip-path="url(#p4474f311c6)" d="M 73.832727 240.843187 
L 77.095587 240.960872 
L 80.358447 241.274697 
L 81.989877 240.960872 
L 83.621307 240.764731 
L 85.252736 240.882415 
L 86.884166 240.686275 
L 88.515596 240.803959 
L 90.147026 240.607818 
L 93.409886 240.921644 
L 95.041316 241.235469 
L 96.672746 241.745435 
L 98.304175 240.921644 
L 99.935605 241.43161 
L 101.567035 240.607818 
L 103.198465 240.097852 
L 104.829895 239.784027 
L 106.461325 239.980168 
L 108.092755 239.666343 
L 109.724185 239.862484 
L 111.355614 239.548658 
L 112.987044 239.352518 
L 116.249904 239.666343 
L 117.881334 239.980168 
L 119.512764 239.470202 
L 121.144194 239.784027 
L 122.775624 240.293993 
L 124.407053 239.470202 
L 126.038483 239.980168 
L 127.669913 239.156377 
L 129.301343 239.666343 
L 130.932773 240.490134 
L 132.564203 241.823891 
L 134.195633 239.666343 
L 135.827063 238.332586 
L 137.458492 239.156377 
L 139.089922 237.82262 
L 140.721352 236.998829 
L 142.352782 236.488863 
L 143.984212 236.175037 
L 145.615642 236.371178 
L 147.247072 236.057353 
L 148.878502 235.861212 
L 152.141361 236.175037 
L 153.772791 236.488863 
L 155.404221 235.978897 
L 157.035651 236.292722 
L 158.667081 235.782756 
L 160.298511 235.468931 
L 161.929941 235.665072 
L 163.56137 235.351246 
L 165.1928 235.155106 
L 168.45566 235.468931 
L 170.08709 235.155106 
L 171.71852 235.351246 
L 173.34995 235.037421 
L 174.98138 234.84128 
L 178.244239 235.155106 
L 179.875669 235.468931 
L 181.507099 235.978897 
L 183.138529 236.802688 
L 184.769959 235.468931 
L 186.401389 234.64514 
L 188.032819 235.155106 
L 189.664249 234.331314 
L 191.295678 234.84128 
L 192.927108 234.017489 
L 194.558538 234.527455 
L 196.189968 233.703664 
L 197.821398 234.21363 
L 199.452828 233.389839 
L 201.084258 232.879873 
L 202.715688 233.193698 
L 204.347117 232.683732 
L 205.978547 232.997557 
L 207.609977 233.507523 
L 209.241407 234.331314 
L 210.872837 235.665072 
L 212.504267 233.507523 
L 214.135697 232.173766 
L 215.767127 232.997557 
L 217.398556 231.6638 
L 219.029986 232.487591 
L 220.661416 231.153834 
L 222.292846 231.977625 
L 223.924276 230.643868 
L 225.555706 229.820077 
L 227.187136 230.330043 
L 228.818566 229.506252 
L 230.449995 230.016218 
L 232.081425 230.840009 
L 233.712855 232.173766 
L 235.344285 234.331314 
L 236.975715 237.82262 
L 238.607145 243.471473 
L 240.238575 252.611632 
L 241.870005 237.82262 
L 243.501434 228.682461 
L 245.132864 234.331314 
L 246.764294 243.471473 
L 248.395724 258.260486 
L 250.027154 234.331314 
L 251.658584 219.542302 
L 253.290014 210.402143 
L 254.921444 204.753289 
L 256.552873 201.261984 
L 258.184303 199.104436 
L 259.815733 200.438193 
L 261.447163 198.280645 
L 263.078593 199.614402 
L 264.710023 201.77195 
L 266.341453 205.263255 
L 267.972883 210.912109 
L 269.604312 201.77195 
L 271.235742 207.420804 
L 272.867172 216.560963 
L 274.498602 201.77195 
L 276.130032 210.912109 
L 277.761462 196.123096 
L 279.392892 186.982938 
L 281.024322 181.334084 
L 282.655751 177.842779 
L 284.287181 175.68523 
L 285.918611 177.018988 
L 287.550041 179.176536 
L 289.181471 182.667841 
L 290.812901 188.316695 
L 292.444331 197.456854 
L 294.075761 212.245866 
L 295.70719 236.175037 
L 297.33862 197.456854 
L 298.97005 173.527682 
L 300.60148 158.73867 
L 302.23291 167.878829 
L 303.86434 153.089816 
L 305.49577 162.229975 
L 307.1272 147.440963 
L 308.75863 156.581121 
L 310.390059 171.370134 
L 312.021489 195.299305 
L 313.652919 156.581121 
L 315.284349 132.65195 
L 316.915779 117.862938 
L 318.547209 127.003096 
L 320.178639 112.214084 
L 321.810069 103.073925 
L 323.441498 108.722779 
L 325.072928 117.862938 
L 326.704358 103.073925 
L 328.335788 93.933766 
L 329.967218 88.284913 
L 331.598648 91.776218 
L 333.230078 86.127364 
L 334.861508 89.61867 
L 336.492937 83.969816 
L 338.124367 80.478511 
L 339.755797 82.636059 
L 341.387227 86.127364 
L 343.018657 80.478511 
L 344.650087 83.969816 
L 346.281517 78.320963 
L 347.912947 74.829657 
L 349.544376 72.672109 
L 351.175806 71.338352 
L 352.807236 70.514561 
L 354.438666 71.024527 
L 356.070096 70.200736 
L 357.701526 70.710701 
L 359.332956 71.534493 
L 360.964386 70.200736 
L 362.595815 71.024527 
L 364.227245 72.358284 
L 365.858675 70.200736 
L 367.490105 68.866978 
L 369.121535 69.69077 
L 370.752965 71.024527 
L 372.384395 73.182075 
L 374.015825 69.69077 
L 375.647254 71.848318 
L 377.278684 68.357012 
L 378.910114 70.514561 
L 380.541544 74.005866 
L 382.172974 68.357012 
L 383.804404 71.848318 
L 385.435834 77.497171 
L 387.067264 68.357012 
L 388.698693 74.005866 
L 390.330123 83.146025 
L 391.961553 68.357012 
L 393.592983 77.497171 
L 395.224413 62.708159 
L 396.855843 53.568 
L 398.487273 59.216854 
L 398.487273 59.216854 
" style="fill:none;stroke:#7f7f7f;stroke-linecap:square;stroke-width:1.5;"/>
   </g>
   <g id="line2d_25">
    <path clip-path="url(#p4474f311c6)" d="M 73.832727 240.843187 
L 77.095587 240.843187 
L 78.727017 240.882415 
L 80.358447 240.803959 
L 83.621307 240.921644 
L 85.252736 240.803959 
L 88.515596 241.0001 
L 91.778456 240.686275 
L 93.409886 240.764731 
L 95.041316 240.647047 
L 96.672746 240.725503 
L 98.304175 240.607818 
L 99.935605 240.686275 
L 103.198465 240.490134 
L 106.461325 240.607818 
L 109.724185 240.921644 
L 111.355614 240.607818 
L 112.987044 240.803959 
L 114.618474 240.490134 
L 116.249904 240.686275 
L 117.881334 240.372449 
L 121.144194 240.058624 
L 122.775624 240.137081 
L 124.407053 240.019396 
L 126.038483 240.097852 
L 127.669913 239.980168 
L 130.932773 240.176309 
L 132.564203 240.372449 
L 134.195633 240.686275 
L 135.827063 241.196241 
L 137.458492 242.020032 
L 139.089922 240.686275 
L 140.721352 241.510066 
L 142.352782 242.843823 
L 143.984212 245.001371 
L 145.615642 248.492677 
L 147.247072 254.14153 
L 148.878502 245.001371 
L 150.509931 250.650225 
L 152.141361 259.790384 
L 153.772791 274.579396 
L 155.404221 250.650225 
L 157.035651 235.861212 
L 158.667081 245.001371 
L 160.298511 259.790384 
L 161.929941 235.861212 
L 163.56137 221.0722 
L 165.1928 230.212359 
L 166.82423 245.001371 
L 168.45566 268.930543 
L 398.487273 268.930543 
L 398.487273 268.930543 
" style="fill:none;stroke:#bcbd22;stroke-linecap:square;stroke-width:1.5;"/>
   </g>
   <g id="line2d_26">
    <path clip-path="url(#p4474f311c6)" d="M 73.832727 240.843187 
L 77.095587 240.960872 
L 80.358447 241.274697 
L 81.989877 241.588522 
L 83.621307 242.098488 
L 85.252736 242.922279 
L 86.884166 244.256036 
L 88.515596 242.098488 
L 90.147026 240.764731 
L 91.778456 239.94094 
L 93.409886 239.430974 
L 95.041316 239.117149 
L 96.672746 239.313289 
L 98.304175 238.999464 
L 101.567035 238.685639 
L 103.198465 238.607183 
L 104.829895 238.646411 
L 109.724185 238.489498 
L 112.987044 238.489498 
L 114.618474 238.528726 
L 116.249904 238.45027 
L 119.512764 238.567955 
L 121.144194 238.45027 
L 124.407053 238.646411 
L 127.669913 238.332586 
L 129.301343 238.254129 
L 130.932773 238.293358 
L 135.827063 238.136445 
L 140.721352 238.293358 
L 143.984212 238.607183 
L 145.615642 238.293358 
L 147.247072 238.489498 
L 148.878502 238.175673 
L 152.141361 237.861848 
L 155.404221 238.057989 
L 157.035651 238.254129 
L 158.667081 237.940304 
L 160.298511 238.136445 
L 161.929941 237.82262 
L 165.1928 237.508795 
L 168.45566 237.704935 
L 171.71852 237.39111 
L 174.98138 237.587251 
L 178.244239 237.273426 
L 179.875669 237.194969 
L 183.138529 237.312654 
L 184.769959 237.430338 
L 186.401389 237.234198 
L 189.664249 237.548023 
L 191.295678 237.861848 
L 192.927108 238.371814 
L 194.558538 237.548023 
L 196.189968 237.038057 
L 197.821398 237.351882 
L 199.452828 236.841916 
L 201.084258 237.155741 
L 202.715688 236.645775 
L 204.347117 236.9596 
L 205.978547 237.469566 
L 207.609977 236.645775 
L 209.241407 236.135809 
L 210.872837 236.449635 
L 212.504267 236.9596 
L 214.135697 237.783392 
L 215.767127 236.449635 
L 217.398556 235.625843 
L 219.029986 236.135809 
L 220.661416 236.9596 
L 222.292846 238.293358 
L 223.924276 236.135809 
L 225.555706 237.469566 
L 227.187136 239.627115 
L 228.818566 243.11842 
L 230.449995 248.767274 
L 232.081425 257.907432 
L 233.712855 272.696445 
L 235.344285 248.767274 
L 236.975715 263.556286 
L 238.607145 287.485457 
L 398.487273 287.485457 
L 398.487273 287.485457 
" style="fill:none;stroke:#17becf;stroke-linecap:square;stroke-width:1.5;"/>
   </g>
   <g id="patch_3">
    <path d="M 57.6 307.584 
L 57.6 41.472 
" style="fill:none;stroke:#000000;stroke-linecap:square;stroke-linejoin:miter;stroke-width:0.8;"/>
   </g>
   <g id="patch_4">
    <path d="M 414.72 307.584 
L 414.72 41.472 
" style="fill:none;stroke:#000000;stroke-linecap:square;stroke-linejoin:miter;stroke-width:0.8;"/>
   </g>
   <g id="patch_5">
    <path d="M 57.6 307.584 
L 414.72 307.584 
" style="fill:none;stroke:#000000;stroke-linecap:square;stroke-linejoin:miter;stroke-width:0.8;"/>
   </g>
   <g id="patch_6">
    <path d="M 57.6 41.472 
L 414.72 41.472 
" style="fill:none;stroke:#000000;stroke-linecap:square;stroke-linejoin:miter;stroke-width:0.8;"/>
   </g>
   <g id="text_19">
    <!-- Grafico fondos pares fibonacci F.I: $150000.0 -->
    <g transform="translate(100.624687 35.472)scale(0.12 -0.12)">
     <defs>
      <path d="M 59.515625 10.40625 
L 59.515625 29.984375 
L 43.40625 29.984375 
L 43.40625 38.09375 
L 69.28125 38.09375 
L 69.28125 6.78125 
Q 63.578125 2.734375 56.6875 0.65625 
Q 49.8125 -1.421875 42 -1.421875 
Q 24.90625 -1.421875 15.25 8.5625 
Q 5.609375 18.5625 5.609375 36.375 
Q 5.609375 54.25 15.25 64.234375 
Q 24.90625 74.21875 42 74.21875 
Q 49.125 74.21875 55.546875 72.453125 
Q 61.96875 70.703125 67.390625 67.28125 
L 67.390625 56.78125 
Q 61.921875 61.421875 55.765625 63.765625 
Q 49.609375 66.109375 42.828125 66.109375 
Q 29.4375 66.109375 22.71875 58.640625 
Q 16.015625 51.171875 16.015625 36.375 
Q 16.015625 21.625 22.71875 14.15625 
Q 29.4375 6.6875 42.828125 6.6875 
Q 48.046875 6.6875 52.140625 7.59375 
Q 56.25 8.5 59.515625 10.40625 
z
" id="DejaVuSans-71"/>
      <path d="M 37.109375 75.984375 
L 37.109375 68.5 
L 28.515625 68.5 
Q 23.6875 68.5 21.796875 66.546875 
Q 19.921875 64.59375 19.921875 59.515625 
L 19.921875 54.6875 
L 34.71875 54.6875 
L 34.71875 47.703125 
L 19.921875 47.703125 
L 19.921875 0 
L 10.890625 0 
L 10.890625 47.703125 
L 2.296875 47.703125 
L 2.296875 54.6875 
L 10.890625 54.6875 
L 10.890625 58.5 
Q 10.890625 67.625 15.140625 71.796875 
Q 19.390625 75.984375 28.609375 75.984375 
z
" id="DejaVuSans-102"/>
      <path d="M 48.78125 52.59375 
L 48.78125 44.1875 
Q 44.96875 46.296875 41.140625 47.34375 
Q 37.3125 48.390625 33.40625 48.390625 
Q 24.65625 48.390625 19.8125 42.84375 
Q 14.984375 37.3125 14.984375 27.296875 
Q 14.984375 17.28125 19.8125 11.734375 
Q 24.65625 6.203125 33.40625 6.203125 
Q 37.3125 6.203125 41.140625 7.25 
Q 44.96875 8.296875 48.78125 10.40625 
L 48.78125 2.09375 
Q 45.015625 0.34375 40.984375 -0.53125 
Q 36.96875 -1.421875 32.421875 -1.421875 
Q 20.0625 -1.421875 12.78125 6.34375 
Q 5.515625 14.109375 5.515625 27.296875 
Q 5.515625 40.671875 12.859375 48.328125 
Q 20.21875 56 33.015625 56 
Q 37.15625 56 41.109375 55.140625 
Q 45.0625 54.296875 48.78125 52.59375 
z
" id="DejaVuSans-99"/>
      <path d="M 44.28125 53.078125 
L 44.28125 44.578125 
Q 40.484375 46.53125 36.375 47.5 
Q 32.28125 48.484375 27.875 48.484375 
Q 21.1875 48.484375 17.84375 46.4375 
Q 14.5 44.390625 14.5 40.28125 
Q 14.5 37.15625 16.890625 35.375 
Q 19.28125 33.59375 26.515625 31.984375 
L 29.59375 31.296875 
Q 39.15625 29.25 43.1875 25.515625 
Q 47.21875 21.78125 47.21875 15.09375 
Q 47.21875 7.46875 41.1875 3.015625 
Q 35.15625 -1.421875 24.609375 -1.421875 
Q 20.21875 -1.421875 15.453125 -0.5625 
Q 10.6875 0.296875 5.421875 2 
L 5.421875 11.28125 
Q 10.40625 8.6875 15.234375 7.390625 
Q 20.0625 6.109375 24.8125 6.109375 
Q 31.15625 6.109375 34.5625 8.28125 
Q 37.984375 10.453125 37.984375 14.40625 
Q 37.984375 18.0625 35.515625 20.015625 
Q 33.0625 21.96875 24.703125 23.78125 
L 21.578125 24.515625 
Q 13.234375 26.265625 9.515625 29.90625 
Q 5.8125 33.546875 5.8125 39.890625 
Q 5.8125 47.609375 11.28125 51.796875 
Q 16.75 56 26.8125 56 
Q 31.78125 56 36.171875 55.265625 
Q 40.578125 54.546875 44.28125 53.078125 
z
" id="DejaVuSans-115"/>
      <path d="M 18.109375 8.203125 
L 18.109375 -20.796875 
L 9.078125 -20.796875 
L 9.078125 54.6875 
L 18.109375 54.6875 
L 18.109375 46.390625 
Q 20.953125 51.265625 25.265625 53.625 
Q 29.59375 56 35.59375 56 
Q 45.5625 56 51.78125 48.09375 
Q 58.015625 40.1875 58.015625 27.296875 
Q 58.015625 14.40625 51.78125 6.484375 
Q 45.5625 -1.421875 35.59375 -1.421875 
Q 29.59375 -1.421875 25.265625 0.953125 
Q 20.953125 3.328125 18.109375 8.203125 
z
M 48.6875 27.296875 
Q 48.6875 37.203125 44.609375 42.84375 
Q 40.53125 48.484375 33.40625 48.484375 
Q 26.265625 48.484375 22.1875 42.84375 
Q 18.109375 37.203125 18.109375 27.296875 
Q 18.109375 17.390625 22.1875 11.75 
Q 26.265625 6.109375 33.40625 6.109375 
Q 40.53125 6.109375 44.609375 11.75 
Q 48.6875 17.390625 48.6875 27.296875 
z
" id="DejaVuSans-112"/>
      <path d="M 48.6875 27.296875 
Q 48.6875 37.203125 44.609375 42.84375 
Q 40.53125 48.484375 33.40625 48.484375 
Q 26.265625 48.484375 22.1875 42.84375 
Q 18.109375 37.203125 18.109375 27.296875 
Q 18.109375 17.390625 22.1875 11.75 
Q 26.265625 6.109375 33.40625 6.109375 
Q 40.53125 6.109375 44.609375 11.75 
Q 48.6875 17.390625 48.6875 27.296875 
z
M 18.109375 46.390625 
Q 20.953125 51.265625 25.265625 53.625 
Q 29.59375 56 35.59375 56 
Q 45.5625 56 51.78125 48.09375 
Q 58.015625 40.1875 58.015625 27.296875 
Q 58.015625 14.40625 51.78125 6.484375 
Q 45.5625 -1.421875 35.59375 -1.421875 
Q 29.59375 -1.421875 25.265625 0.953125 
Q 20.953125 3.328125 18.109375 8.203125 
L 18.109375 0 
L 9.078125 0 
L 9.078125 75.984375 
L 18.109375 75.984375 
z
" id="DejaVuSans-98"/>
      <path d="M 10.6875 12.40625 
L 21 12.40625 
L 21 0 
L 10.6875 0 
z
" id="DejaVuSans-46"/>
      <path d="M 9.8125 72.90625 
L 19.671875 72.90625 
L 19.671875 0 
L 9.8125 0 
z
" id="DejaVuSans-73"/>
      <path d="M 11.71875 12.40625 
L 22.015625 12.40625 
L 22.015625 0 
L 11.71875 0 
z
M 11.71875 51.703125 
L 22.015625 51.703125 
L 22.015625 39.3125 
L 11.71875 39.3125 
z
" id="DejaVuSans-58"/>
     </defs>
     <use xlink:href="#DejaVuSans-71"/>
     <use x="77.490234" xlink:href="#DejaVuSans-114"/>
     <use x="118.603516" xlink:href="#DejaVuSans-97"/>
     <use x="179.882812" xlink:href="#DejaVuSans-102"/>
     <use x="215.087891" xlink:href="#DejaVuSans-105"/>
     <use x="242.871094" xlink:href="#DejaVuSans-99"/>
     <use x="297.851562" xlink:href="#DejaVuSans-111"/>
     <use x="359.033203" xlink:href="#DejaVuSans-32"/>
     <use x="390.820312" xlink:href="#DejaVuSans-102"/>
     <use x="426.025391" xlink:href="#DejaVuSans-111"/>
     <use x="487.207031" xlink:href="#DejaVuSans-110"/>
     <use x="550.585938" xlink:href="#DejaVuSans-100"/>
     <use x="614.0625" xlink:href="#DejaVuSans-111"/>
     <use x="675.244141" xlink:href="#DejaVuSans-115"/>
     <use x="727.34375" xlink:href="#DejaVuSans-32"/>
     <use x="759.130859" xlink:href="#DejaVuSans-112"/>
     <use x="822.607422" xlink:href="#DejaVuSans-97"/>
     <use x="883.886719" xlink:href="#DejaVuSans-114"/>
     <use x="922.75" xlink:href="#DejaVuSans-101"/>
     <use x="984.273438" xlink:href="#DejaVuSans-115"/>
     <use x="1036.373047" xlink:href="#DejaVuSans-32"/>
     <use x="1068.160156" xlink:href="#DejaVuSans-102"/>
     <use x="1103.365234" xlink:href="#DejaVuSans-105"/>
     <use x="1131.148438" xlink:href="#DejaVuSans-98"/>
     <use x="1194.625" xlink:href="#DejaVuSans-111"/>
     <use x="1255.806641" xlink:href="#DejaVuSans-110"/>
     <use x="1319.185547" xlink:href="#DejaVuSans-97"/>
     <use x="1380.464844" xlink:href="#DejaVuSans-99"/>
     <use x="1435.445312" xlink:href="#DejaVuSans-99"/>
     <use x="1490.425781" xlink:href="#DejaVuSans-105"/>
     <use x="1518.208984" xlink:href="#DejaVuSans-32"/>
     <use x="1549.996094" xlink:href="#DejaVuSans-70"/>
     <use x="1591.390625" xlink:href="#DejaVuSans-46"/>
     <use x="1623.177734" xlink:href="#DejaVuSans-73"/>
     <use x="1652.669922" xlink:href="#DejaVuSans-58"/>
     <use x="1686.361328" xlink:href="#DejaVuSans-32"/>
     <use x="1718.148438" xlink:href="#DejaVuSans-36"/>
     <use x="1781.771484" xlink:href="#DejaVuSans-49"/>
     <use x="1845.394531" xlink:href="#DejaVuSans-53"/>
     <use x="1909.017578" xlink:href="#DejaVuSans-48"/>
     <use x="1972.640625" xlink:href="#DejaVuSans-48"/>
     <use x="2036.263672" xlink:href="#DejaVuSans-48"/>
     <use x="2099.886719" xlink:href="#DejaVuSans-48"/>
     <use x="2163.509766" xlink:href="#DejaVuSans-46"/>
     <use x="2195.296875" xlink:href="#DejaVuSans-48"/>
    </g>
   </g>
   <g id="legend_1">
    <g id="patch_7">
     <path d="M 64.6 196.25325 
L 148.025 196.25325 
Q 150.025 196.25325 150.025 194.25325 
L 150.025 48.472 
Q 150.025 46.472 148.025 46.472 
L 64.6 46.472 
Q 62.6 46.472 62.6 48.472 
L 62.6 194.25325 
Q 62.6 196.25325 64.6 196.25325 
z
" style="fill:#ffffff;opacity:0.8;stroke:#cccccc;stroke-linejoin:miter;"/>
    </g>
    <g id="line2d_27">
     <path d="M 66.6 54.570437 
L 86.6 54.570437 
" style="fill:none;stroke:#1f77b4;stroke-linecap:square;stroke-width:1.5;"/>
    </g>
    <g id="line2d_28"/>
    <g id="text_20">
     <!-- Fondos 1 -->
     <g transform="translate(94.6 58.070437)scale(0.1 -0.1)">
      <use xlink:href="#DejaVuSans-70"/>
      <use x="53.894531" xlink:href="#DejaVuSans-111"/>
      <use x="115.076172" xlink:href="#DejaVuSans-110"/>
      <use x="178.455078" xlink:href="#DejaVuSans-100"/>
      <use x="241.931641" xlink:href="#DejaVuSans-111"/>
      <use x="303.113281" xlink:href="#DejaVuSans-115"/>
      <use x="355.212891" xlink:href="#DejaVuSans-32"/>
      <use x="387" xlink:href="#DejaVuSans-49"/>
     </g>
    </g>
    <g id="line2d_29">
     <path d="M 66.6 69.248562 
L 86.6 69.248562 
" style="fill:none;stroke:#ff7f0e;stroke-linecap:square;stroke-width:1.5;"/>
    </g>
    <g id="line2d_30"/>
    <g id="text_21">
     <!-- Fondos 2 -->
     <g transform="translate(94.6 72.748562)scale(0.1 -0.1)">
      <use xlink:href="#DejaVuSans-70"/>
      <use x="53.894531" xlink:href="#DejaVuSans-111"/>
      <use x="115.076172" xlink:href="#DejaVuSans-110"/>
      <use x="178.455078" xlink:href="#DejaVuSans-100"/>
      <use x="241.931641" xlink:href="#DejaVuSans-111"/>
      <use x="303.113281" xlink:href="#DejaVuSans-115"/>
      <use x="355.212891" xlink:href="#DejaVuSans-32"/>
      <use x="387" xlink:href="#DejaVuSans-50"/>
     </g>
    </g>
    <g id="line2d_31">
     <path d="M 66.6 83.926688 
L 86.6 83.926688 
" style="fill:none;stroke:#2ca02c;stroke-linecap:square;stroke-width:1.5;"/>
    </g>
    <g id="line2d_32"/>
    <g id="text_22">
     <!-- Fondos 3 -->
     <g transform="translate(94.6 87.426688)scale(0.1 -0.1)">
      <use xlink:href="#DejaVuSans-70"/>
      <use x="53.894531" xlink:href="#DejaVuSans-111"/>
      <use x="115.076172" xlink:href="#DejaVuSans-110"/>
      <use x="178.455078" xlink:href="#DejaVuSans-100"/>
      <use x="241.931641" xlink:href="#DejaVuSans-111"/>
      <use x="303.113281" xlink:href="#DejaVuSans-115"/>
      <use x="355.212891" xlink:href="#DejaVuSans-32"/>
      <use x="387" xlink:href="#DejaVuSans-51"/>
     </g>
    </g>
    <g id="line2d_33">
     <path d="M 66.6 98.604812 
L 86.6 98.604812 
" style="fill:none;stroke:#d62728;stroke-linecap:square;stroke-width:1.5;"/>
    </g>
    <g id="line2d_34"/>
    <g id="text_23">
     <!-- Fondos 4 -->
     <g transform="translate(94.6 102.104812)scale(0.1 -0.1)">
      <use xlink:href="#DejaVuSans-70"/>
      <use x="53.894531" xlink:href="#DejaVuSans-111"/>
      <use x="115.076172" xlink:href="#DejaVuSans-110"/>
      <use x="178.455078" xlink:href="#DejaVuSans-100"/>
      <use x="241.931641" xlink:href="#DejaVuSans-111"/>
      <use x="303.113281" xlink:href="#DejaVuSans-115"/>
      <use x="355.212891" xlink:href="#DejaVuSans-32"/>
      <use x="387" xlink:href="#DejaVuSans-52"/>
     </g>
    </g>
    <g id="line2d_35">
     <path d="M 66.6 113.282938 
L 86.6 113.282938 
" style="fill:none;stroke:#9467bd;stroke-linecap:square;stroke-width:1.5;"/>
    </g>
    <g id="line2d_36"/>
    <g id="text_24">
     <!-- Fondos 5 -->
     <g transform="translate(94.6 116.782938)scale(0.1 -0.1)">
      <use xlink:href="#DejaVuSans-70"/>
      <use x="53.894531" xlink:href="#DejaVuSans-111"/>
      <use x="115.076172" xlink:href="#DejaVuSans-110"/>
      <use x="178.455078" xlink:href="#DejaVuSans-100"/>
      <use x="241.931641" xlink:href="#DejaVuSans-111"/>
      <use x="303.113281" xlink:href="#DejaVuSans-115"/>
      <use x="355.212891" xlink:href="#DejaVuSans-32"/>
      <use x="387" xlink:href="#DejaVuSans-53"/>
     </g>
    </g>
    <g id="line2d_37">
     <path d="M 66.6 127.961062 
L 86.6 127.961062 
" style="fill:none;stroke:#8c564b;stroke-linecap:square;stroke-width:1.5;"/>
    </g>
    <g id="line2d_38"/>
    <g id="text_25">
     <!-- Fondos 6 -->
     <g transform="translate(94.6 131.461062)scale(0.1 -0.1)">
      <use xlink:href="#DejaVuSans-70"/>
      <use x="53.894531" xlink:href="#DejaVuSans-111"/>
      <use x="115.076172" xlink:href="#DejaVuSans-110"/>
      <use x="178.455078" xlink:href="#DejaVuSans-100"/>
      <use x="241.931641" xlink:href="#DejaVuSans-111"/>
      <use x="303.113281" xlink:href="#DejaVuSans-115"/>
      <use x="355.212891" xlink:href="#DejaVuSans-32"/>
      <use x="387" xlink:href="#DejaVuSans-54"/>
     </g>
    </g>
    <g id="line2d_39">
     <path d="M 66.6 142.639187 
L 86.6 142.639187 
" style="fill:none;stroke:#e377c2;stroke-linecap:square;stroke-width:1.5;"/>
    </g>
    <g id="line2d_40"/>
    <g id="text_26">
     <!-- Fondos 7 -->
     <g transform="translate(94.6 146.139187)scale(0.1 -0.1)">
      <use xlink:href="#DejaVuSans-70"/>
      <use x="53.894531" xlink:href="#DejaVuSans-111"/>
      <use x="115.076172" xlink:href="#DejaVuSans-110"/>
      <use x="178.455078" xlink:href="#DejaVuSans-100"/>
      <use x="241.931641" xlink:href="#DejaVuSans-111"/>
      <use x="303.113281" xlink:href="#DejaVuSans-115"/>
      <use x="355.212891" xlink:href="#DejaVuSans-32"/>
      <use x="387" xlink:href="#DejaVuSans-55"/>
     </g>
    </g>
    <g id="line2d_41">
     <path d="M 66.6 157.317312 
L 86.6 157.317312 
" style="fill:none;stroke:#7f7f7f;stroke-linecap:square;stroke-width:1.5;"/>
    </g>
    <g id="line2d_42"/>
    <g id="text_27">
     <!-- Fondos 8 -->
     <g transform="translate(94.6 160.817312)scale(0.1 -0.1)">
      <defs>
       <path d="M 31.78125 34.625 
Q 24.75 34.625 20.71875 30.859375 
Q 16.703125 27.09375 16.703125 20.515625 
Q 16.703125 13.921875 20.71875 10.15625 
Q 24.75 6.390625 31.78125 6.390625 
Q 38.8125 6.390625 42.859375 10.171875 
Q 46.921875 13.96875 46.921875 20.515625 
Q 46.921875 27.09375 42.890625 30.859375 
Q 38.875 34.625 31.78125 34.625 
z
M 21.921875 38.8125 
Q 15.578125 40.375 12.03125 44.71875 
Q 8.5 49.078125 8.5 55.328125 
Q 8.5 64.0625 14.71875 69.140625 
Q 20.953125 74.21875 31.78125 74.21875 
Q 42.671875 74.21875 48.875 69.140625 
Q 55.078125 64.0625 55.078125 55.328125 
Q 55.078125 49.078125 51.53125 44.71875 
Q 48 40.375 41.703125 38.8125 
Q 48.828125 37.15625 52.796875 32.3125 
Q 56.78125 27.484375 56.78125 20.515625 
Q 56.78125 9.90625 50.3125 4.234375 
Q 43.84375 -1.421875 31.78125 -1.421875 
Q 19.734375 -1.421875 13.25 4.234375 
Q 6.78125 9.90625 6.78125 20.515625 
Q 6.78125 27.484375 10.78125 32.3125 
Q 14.796875 37.15625 21.921875 38.8125 
z
M 18.3125 54.390625 
Q 18.3125 48.734375 21.84375 45.5625 
Q 25.390625 42.390625 31.78125 42.390625 
Q 38.140625 42.390625 41.71875 45.5625 
Q 45.3125 48.734375 45.3125 54.390625 
Q 45.3125 60.0625 41.71875 63.234375 
Q 38.140625 66.40625 31.78125 66.40625 
Q 25.390625 66.40625 21.84375 63.234375 
Q 18.3125 60.0625 18.3125 54.390625 
z
" id="DejaVuSans-56"/>
      </defs>
      <use xlink:href="#DejaVuSans-70"/>
      <use x="53.894531" xlink:href="#DejaVuSans-111"/>
      <use x="115.076172" xlink:href="#DejaVuSans-110"/>
      <use x="178.455078" xlink:href="#DejaVuSans-100"/>
      <use x="241.931641" xlink:href="#DejaVuSans-111"/>
      <use x="303.113281" xlink:href="#DejaVuSans-115"/>
      <use x="355.212891" xlink:href="#DejaVuSans-32"/>
      <use x="387" xlink:href="#DejaVuSans-56"/>
     </g>
    </g>
    <g id="line2d_43">
     <path d="M 66.6 171.995437 
L 86.6 171.995437 
" style="fill:none;stroke:#bcbd22;stroke-linecap:square;stroke-width:1.5;"/>
    </g>
    <g id="line2d_44"/>
    <g id="text_28">
     <!-- Fondos 9 -->
     <g transform="translate(94.6 175.495437)scale(0.1 -0.1)">
      <defs>
       <path d="M 10.984375 1.515625 
L 10.984375 10.5 
Q 14.703125 8.734375 18.5 7.8125 
Q 22.3125 6.890625 25.984375 6.890625 
Q 35.75 6.890625 40.890625 13.453125 
Q 46.046875 20.015625 46.78125 33.40625 
Q 43.953125 29.203125 39.59375 26.953125 
Q 35.25 24.703125 29.984375 24.703125 
Q 19.046875 24.703125 12.671875 31.3125 
Q 6.296875 37.9375 6.296875 49.421875 
Q 6.296875 60.640625 12.9375 67.421875 
Q 19.578125 74.21875 30.609375 74.21875 
Q 43.265625 74.21875 49.921875 64.515625 
Q 56.59375 54.828125 56.59375 36.375 
Q 56.59375 19.140625 48.40625 8.859375 
Q 40.234375 -1.421875 26.421875 -1.421875 
Q 22.703125 -1.421875 18.890625 -0.6875 
Q 15.09375 0.046875 10.984375 1.515625 
z
M 30.609375 32.421875 
Q 37.25 32.421875 41.125 36.953125 
Q 45.015625 41.5 45.015625 49.421875 
Q 45.015625 57.28125 41.125 61.84375 
Q 37.25 66.40625 30.609375 66.40625 
Q 23.96875 66.40625 20.09375 61.84375 
Q 16.21875 57.28125 16.21875 49.421875 
Q 16.21875 41.5 20.09375 36.953125 
Q 23.96875 32.421875 30.609375 32.421875 
z
" id="DejaVuSans-57"/>
      </defs>
      <use xlink:href="#DejaVuSans-70"/>
      <use x="53.894531" xlink:href="#DejaVuSans-111"/>
      <use x="115.076172" xlink:href="#DejaVuSans-110"/>
      <use x="178.455078" xlink:href="#DejaVuSans-100"/>
      <use x="241.931641" xlink:href="#DejaVuSans-111"/>
      <use x="303.113281" xlink:href="#DejaVuSans-115"/>
      <use x="355.212891" xlink:href="#DejaVuSans-32"/>
      <use x="387" xlink:href="#DejaVuSans-57"/>
     </g>
    </g>
    <g id="line2d_45">
     <path d="M 66.6 186.673562 
L 86.6 186.673562 
" style="fill:none;stroke:#17becf;stroke-linecap:square;stroke-width:1.5;"/>
    </g>
    <g id="line2d_46"/>
    <g id="text_29">
     <!-- Fondos 10 -->
     <g transform="translate(94.6 190.173562)scale(0.1 -0.1)">
      <use xlink:href="#DejaVuSans-70"/>
      <use x="53.894531" xlink:href="#DejaVuSans-111"/>
      <use x="115.076172" xlink:href="#DejaVuSans-110"/>
      <use x="178.455078" xlink:href="#DejaVuSans-100"/>
      <use x="241.931641" xlink:href="#DejaVuSans-111"/>
      <use x="303.113281" xlink:href="#DejaVuSans-115"/>
      <use x="355.212891" xlink:href="#DejaVuSans-32"/>
      <use x="387" xlink:href="#DejaVuSans-49"/>
      <use x="450.623047" xlink:href="#DejaVuSans-48"/>
     </g>
    </g>
   </g>
  </g>
 </g>
 <defs>
  <clipPath id="p4474f311c6">
   <rect height="266.112" width="357.12" x="57.6" y="41.472"/>
  </clipPath>
 </defs>
</svg>
